<svg preserveAspectRatio="xMidYMid meet" width="100%" height="100%" overflow="visible" style="display: block;" viewBox="0 0 12 12" fill="none" xmlns="http://www.w3.org/2000/svg">
<g id="Img" clip-path="url(#clip0_0_15)">
<path id="Vector" d="M9.6568 4.23669C9.18343 4.23669 8.7574 4.40237 8.4497 4.71006L4.16568 2.22485C4.21302 2.10651 4.21302 1.94083 4.21302 1.79882C4.23669 0.781065 3.43195 -7.82311e-08 2.4142 -7.82311e-08C1.39645 -7.82311e-08 0.615385 0.781065 0.615385 1.82249C0.615385 2.86391 1.39645 3.6213 2.4142 3.6213C2.88757 3.6213 3.31361 3.43195 3.6213 3.14793L7.90533 5.60947C7.85799 5.72781 7.85799 5.91716 7.85799 6.0355C7.85799 6.15385 7.85799 6.3432 7.90533 6.46154L3.6213 8.99408C3.32933 8.71638 2.95054 8.54785 2.54878 8.51689C2.14703 8.48593 1.74689 8.59445 1.41582 8.82414C1.08475 9.05384 0.843006 9.39066 0.731341 9.77782C0.619677 10.165 0.644922 10.5788 0.802821 10.9495C0.96072 11.3203 1.24161 11.6252 1.59815 11.8129C1.95468 12.0007 2.36505 12.0598 2.76006 11.9802C3.15507 11.9006 3.51057 11.6873 3.76662 11.3762C4.02267 11.065 4.16361 10.6751 4.16568 10.2722C4.16568 10.1302 4.16568 10.0118 4.09467 9.84615L8.3787 7.31361C8.68639 7.59763 9.11243 7.78698 9.5858 7.78698C10.6272 7.78698 11.4083 7.00592 11.4083 5.9645C11.4083 4.94675 10.6746 4.23669 9.6568 4.23669Z" fill="var(--fill-0, #7599B8)"/>
</g>
<defs>
<clipPath id="clip0_0_15">
<rect width="12" height="12" fill="white"/>
</clipPath>
</defs>
</svg>
