<svg xmlns="http://www.w3.org/2000/svg" viewBox="0 0 24 24" fill="#ffffff" aria-hidden="true"><path d="M12.04 2C6.58 2 2.15 6.4 2.15 11.83c0 1.99.59 3.83 1.6 5.4L2 22l4.96-1.64a9.9 9.9 0 0 0 5.08 1.39h.01c5.46 0 9.89-4.4 9.89-9.83C21.94 6.4 17.5 2 12.04 2zm5.77 13.99c-.24.68-1.4 1.25-1.94 1.33-.5.07-1.13.1-1.82-.11-.42-.13-.96-.28-1.65-.55-2.9-1.25-4.79-4.17-4.93-4.36-.14-.2-1.17-1.56-1.17-2.97 0-1.42.74-2.11 1-2.4.26-.28.57-.35.76-.35h.55c.17 0 .4-.04.63.48.24.54.8 1.96.87 2.1.07.14.12.3.02.48-.1.2-.14.32-.28.49-.14.17-.3.38-.42.51-.14.14-.28.29-.12.57.17.28.74 1.22 1.59 1.98 1.1.97 2.02 1.28 2.3 1.42.28.14.45.12.61-.07.17-.2.7-.81.88-1.09.19-.28.37-.23.63-.14.26.1 1.64.77 1.92.91.28.14.47.21.54.32.07.12.07.68-.17 1.36z"/></svg>
