<svg width="73" height="40" viewBox="0 0 73 40" fill="none" xmlns="http://www.w3.org/2000/svg">
<rect width="73" height="40" fill="#1E1E1E"/>
<g id="Live Casino">
<rect width="1905" height="855" transform="translate(-950.434 -2014.78)" fill="white"/>
<rect width="1905" height="855" transform="translate(-950.434 -2014.78)" fill="#1D4268"/>
<g id="Background">
<rect width="1905" height="2392.78" transform="translate(-950.434 -2014.78)" fill="#1D4268"/>
<g id="Background_2">
<rect width="1905" height="1974.78" transform="translate(-950.434 -1918.78)" fill="#283858"/>
<g id="Container">
<g id="Container_2">
<g id="Background_3">
<rect x="-874.434" y="-76" width="1821" height="132" rx="8" fill="#205583"/>
<g id="Container_3" clip-path="url(#clip0_23_28812)">
<g id="Container_4">
<g id="Margin">
<g id="Container_5">
<g id="Link">
<g id="Picture &#226;&#134;&#146; 1XLIVE" opacity="0.8" clip-path="url(#clip1_23_28812)">
<g id="1xLive_mono.svg" clip-path="url(#clip2_23_28812)">
<path id="Vector" d="M20.499 12.9025C20.6138 12.9025 20.6713 12.9025 20.7861 12.9025C22.3365 12.9025 23.9442 12.9025 25.4946 12.9025C25.552 12.9025 25.6094 12.9025 25.7243 12.9025C23.5997 15.0271 21.4751 17.0942 19.3506 19.1613C21.1306 21.8601 22.9106 24.6163 24.6907 27.3724C24.2313 27.3724 23.8294 27.3724 23.4274 27.3724C22.9681 27.3724 22.5662 27.3724 22.1068 27.3724C22.0494 27.3724 21.9919 27.3724 21.8771 27.3724C21.2454 27.3724 20.6713 27.3724 20.0397 27.3724C19.9822 27.3724 19.9248 27.3149 19.9248 27.3149C18.6616 27.1428 17.6854 26.5685 16.9389 25.5349C16.537 24.9608 16.1925 24.3866 15.7906 23.8123C15.6183 23.5827 15.5035 23.353 15.2738 23.0659C15.2163 23.1807 15.1589 23.2382 15.1589 23.2955C13.8383 24.6163 12.5176 25.9369 11.2544 27.2001C11.1969 27.2576 11.0821 27.3149 10.9673 27.3149C10.106 27.3149 9.3021 27.3149 8.44079 27.3149C7.98138 27.3149 7.46466 27.3149 7.00525 27.3149C5.05298 27.3149 3.15811 27.3149 1.20582 27.3149C1.26325 27.1428 1.26325 26.9705 1.32066 26.7982C1.83745 24.0995 2.35423 21.4581 2.81359 18.7593C2.81359 18.702 2.81359 18.5871 2.87101 18.4723C2.52649 18.6445 2.18197 18.8168 1.89487 18.9316C1.26325 19.2188 0.631622 19.5058 0 19.7929C0 19.0465 0 18.3 0 17.6109C0 17.1516 1.46569e-08 16.6348 0.0574202 16.1755C0.0574202 16.0607 0.114841 15.9458 0.229681 15.8884C1.60776 15.0271 2.92843 14.1658 4.30651 13.3045C4.59361 13.1322 4.88071 12.9025 5.16782 12.7302C6.2588 12.7302 7.34977 12.7302 8.44079 12.7302C8.44079 12.7877 8.44079 12.9025 8.44079 12.9599C8.15364 14.4529 7.924 15.8884 7.63685 17.3813C7.17751 19.8504 6.71816 22.262 6.2588 24.7311C6.20138 25.133 6.08654 25.5349 6.02912 25.9943C6.2588 25.7647 6.48848 25.5349 6.71816 25.3052C8.72787 23.2955 10.7376 21.2858 12.7473 19.2761C14.9292 17.0942 17.1687 14.8548 19.3506 12.6729C19.6951 12.9025 20.097 12.9025 20.499 12.9025Z" fill="black"/>
<path id="Vector_2" d="M72.12 13.0754C72.0046 13.5348 71.9476 13.9941 71.8328 14.3961C71.7181 15.0852 71.5456 15.7168 71.4309 16.4058C71.3732 16.5781 71.3161 16.6355 71.2014 16.6355C69.1915 16.6355 67.1817 16.6355 65.1719 16.6355C64.9996 16.6355 64.8848 16.6929 64.8848 16.8652C64.8274 17.3246 64.7126 17.7839 64.5977 18.2433C66.5502 18.2433 68.5023 18.2433 70.4545 18.2433C70.225 19.5065 69.9955 20.7123 69.7653 21.9181C69.6505 21.9181 69.5935 21.9181 69.5358 21.9181C67.7561 21.9181 65.9758 21.9181 64.1958 21.9181C64.0235 21.9181 63.9661 21.9756 63.9086 22.1478C63.8513 22.6072 63.7364 23.0665 63.6215 23.5833C65.861 23.5833 68.0427 23.5833 70.282 23.5833C70.225 23.9278 70.1673 24.2724 70.1102 24.6169C69.9377 25.4782 69.7653 26.3395 69.5935 27.2582C69.5935 27.3731 69.5358 27.4305 69.3633 27.4305C65.5738 27.4305 61.8416 27.4305 58.0518 27.4305C57.9944 27.4305 57.937 27.4305 57.8795 27.4305C57.937 26.9711 58.0518 26.5692 58.1092 26.1098C58.6835 23.0092 59.2576 19.9659 59.8318 16.8652C60.0615 15.6594 60.2912 14.3961 60.5209 13.1903C60.5209 13.1329 60.5209 13.0755 60.5209 13.018C64.3106 13.018 68.1004 13.018 71.8899 13.018C72.0046 12.9032 72.1771 12.9032 72.12 13.0754Z" fill="black"/>
<path id="Vector_3" d="M60.0615 12.9028C58.1667 16.2906 56.2718 19.6784 54.3195 23.0087C53.573 24.3868 52.7692 25.7075 52.0227 27.0856C51.9079 27.2578 51.8504 27.3153 51.6208 27.3153C49.8981 27.3153 48.1755 27.3153 46.3955 27.3153C46.2233 27.3153 46.1658 27.2578 46.1084 27.0856C45.3619 23.181 44.6155 19.3338 43.8116 15.4293C43.6393 14.568 43.4671 13.7067 43.2948 12.9028C45.0174 12.9028 46.7974 12.9028 48.52 12.9028C48.5775 13.5344 48.6923 14.2235 48.7498 14.8551C48.9794 16.8648 49.2091 18.9319 49.4388 20.9417C49.4962 21.401 49.5536 21.9178 49.6111 22.4346C49.6684 22.3197 49.7259 22.2623 49.7259 22.2049C51.0465 19.5061 52.4246 16.8074 53.7453 14.0512C53.9176 13.6493 54.0898 13.3047 54.3195 12.9028C56.3292 12.9028 58.224 12.9028 60.0615 12.9028Z" fill="black"/>
<path id="Vector_4" d="M31.0643 12.9019C30.9495 13.5909 30.8346 14.3374 30.6623 15.0264C30.2604 17.151 29.8585 19.2756 29.4566 21.4001C29.3417 21.9743 29.2269 22.491 29.1694 23.0653C29.1694 23.1227 29.1694 23.1801 29.1694 23.2375C31.1217 23.2375 33.0166 23.2375 34.9689 23.2375C34.9114 23.6395 34.8541 23.984 34.7392 24.3285C34.5669 25.2472 34.3947 26.166 34.2224 27.0847C34.2224 27.1995 34.165 27.2569 33.9928 27.2569C31.294 27.2569 28.5952 27.2569 25.8965 27.2569C25.8391 27.2569 25.7242 27.1995 25.6668 27.1421C25.0352 26.2234 24.461 25.3047 23.8868 24.3859C23.8293 24.3285 23.8293 24.2137 23.8293 24.0988C24.2887 21.7446 24.7481 19.3904 25.15 17.0362C25.3797 15.7155 25.6668 14.3374 25.8965 13.0167C25.8965 12.9593 25.8965 12.9019 25.9539 12.8445C27.6765 12.9019 29.3991 12.9019 31.0643 12.9019Z" fill="black"/>
<path id="Vector_5" d="M42.8929 12.9028C42.6631 14.166 42.4335 15.4293 42.2038 16.6925C41.5722 20.1377 40.9406 23.583 40.3089 27.0856C40.2515 27.3153 40.1941 27.3727 39.9644 27.3727C38.4715 27.3727 36.9211 27.3727 35.4282 27.3727C35.3708 27.3727 35.2559 27.3727 35.1411 27.3727C35.1986 27.0856 35.2559 26.7985 35.3134 26.5114C36.0599 22.4919 36.8063 18.4725 37.5528 14.4531C37.6676 13.9363 37.725 13.477 37.8399 12.9602C39.505 12.9028 41.1702 12.9028 42.8929 12.9028Z" fill="black"/>
<path id="Vector_6" d="M12.4601 12.9028C12.7472 12.9028 13.0343 12.9028 13.3789 12.9028C14.5846 12.9602 15.6182 13.4196 16.4221 14.2809C16.4221 14.2809 16.4795 14.3383 16.4221 14.3383C15.1014 15.7164 13.7234 17.0945 12.4027 18.4725C11.1395 16.5777 9.93362 14.7403 8.72778 12.9028C9.99106 12.9028 11.2543 12.9028 12.4601 12.9028Z" fill="black"/>
</g>
</g>
</g>
</g>
</g>
</g>
</g>
</g>
</g>
</g>
</g>
</g>
</g>
<defs>
<clipPath id="clip0_23_28812">
<rect width="1821" height="100" fill="white" transform="translate(-874.434 -60)"/>
</clipPath>
<clipPath id="clip1_23_28812">
<rect width="72.1311" height="40" fill="white"/>
</clipPath>
<clipPath id="clip2_23_28812">
<rect width="72.1311" height="40" fill="white"/>
</clipPath>
</defs>
</svg>
