<svg width="80" height="40" viewBox="0 0 80 40" fill="none" xmlns="http://www.w3.org/2000/svg">
<rect width="80" height="40" fill="#1E1E1E"/>
<g id="Live Casino">
<rect width="1905" height="855" transform="translate(-343.828 -1954.78)" fill="white"/>
<rect width="1905" height="855" transform="translate(-343.828 -1954.78)" fill="#1D4268"/>
<g id="Background">
<rect width="1905" height="2392.78" transform="translate(-343.828 -1954.78)" fill="#1D4268"/>
<g id="Background_2">
<rect width="1905" height="1974.78" transform="translate(-343.828 -1858.78)" fill="#283858"/>
<g id="Container">
<g id="Container_2">
<g id="Background_3">
<rect x="-267.828" y="-16" width="1821" height="132" rx="8" fill="#205583"/>
<g id="Container_3" clip-path="url(#clip0_23_28812)">
<g id="Container_4">
<g id="Margin">
<g id="Container_5">
<g id="Link">
<g id="Picture &#226;&#134;&#146; Amigo" opacity="0.8" clip-path="url(#clip1_23_28812)">
<g id="Amigo_mono.svg" clip-path="url(#clip2_23_28812)">
<g id="Clip path group">
<mask id="mask0_23_28812" style="mask-type:luminance" maskUnits="userSpaceOnUse" x="0" y="0" width="79" height="40">
<g id="a">
<path id="Vector" d="M78.8106 0.464844H0.12207V39.8091H78.8106V0.464844Z" fill="white"/>
</g>
</mask>
<g mask="url(#mask0_23_28812)">
<g id="Group">
<path id="Vector_2" d="M16.1211 9.85767C16.421 9.88862 16.721 9.9119 17.0209 9.95058C21.0016 10.452 24.1547 12.2661 26.2093 15.7605C27.2474 17.5261 27.6895 19.4544 27.5531 21.5007C27.4383 23.2276 26.8754 24.8074 25.9406 26.2613C25.8374 26.4239 25.6913 26.5265 25.4985 26.5285C25.0467 26.5324 24.5949 26.5304 24.1449 26.5149C23.9736 26.5091 23.8236 26.4065 23.7516 26.2516C23.623 25.9767 23.5179 25.6902 23.3912 25.3824C23.5938 25.3824 23.7574 25.3824 23.921 25.3824C24.1722 25.3824 24.4254 25.3901 24.6766 25.3804C24.9863 25.3688 25.0954 25.1946 24.9863 24.91C24.7273 24.2343 24.4702 23.5567 24.2073 22.883C24.1625 22.7707 24.1684 22.6971 24.2501 22.5984C24.5208 22.2674 24.4955 21.8066 24.2034 21.4929C23.8548 21.1193 23.2277 21.069 22.8284 21.3865C22.5636 21.5956 22.4311 21.8705 22.4876 22.2074C22.5519 22.5868 22.7933 22.8268 23.1575 22.9295C23.2842 22.9663 23.3406 23.0224 23.3776 23.1405C23.5101 23.547 23.6542 23.9497 23.7944 24.3543C23.7944 24.3582 23.7944 24.364 23.7905 24.395C23.5607 24.395 23.327 24.4008 23.0933 24.3892C23.0602 24.3892 23.0193 24.3137 23.0017 24.2672C22.6785 23.3864 22.359 22.5055 22.0377 21.6227C21.8838 21.2006 21.73 20.7805 21.5781 20.3585C21.5528 20.2868 21.5314 20.2539 21.434 20.2558C20.7309 20.2617 19.2936 20.2558 19.2586 20.2558C19.3053 20.4843 19.352 20.7108 19.3988 20.9373C19.5975 21.8956 19.7981 22.8539 19.9967 23.8123C20.0609 24.1221 19.911 24.3582 19.6111 24.366C18.9333 24.3795 18.2556 24.3699 17.5564 24.3699C17.3928 23.0011 17.2292 21.6343 17.0637 20.2558H16.5632C16.6333 21.6265 16.7034 22.9895 16.7754 24.366H14.1521C14.2242 22.9972 14.2962 21.6324 14.3703 20.2558H13.8834C13.8503 20.5288 13.8152 20.8018 13.7821 21.0786C13.6808 21.9402 13.5796 22.8017 13.4783 23.6632C13.4549 23.8665 13.4276 24.0678 13.4101 24.2711C13.4043 24.3486 13.377 24.3776 13.2991 24.3776C12.6467 24.3776 11.9943 24.3872 11.3418 24.3815C11.0478 24.3795 10.8744 24.153 10.9348 23.8607C11.1763 22.6933 11.4236 21.5259 11.667 20.3585C11.6729 20.3294 11.6768 20.3043 11.6865 20.2558C11.6261 20.2539 11.5736 20.2558 11.521 20.2558C10.8744 20.2558 10.2259 20.2655 9.57931 20.2558C9.44102 20.2539 9.38646 20.283 9.34167 20.4068C8.66784 22.2712 7.98233 24.1337 7.31433 26C7.18574 26.3581 6.96567 26.5362 6.5898 26.5362C6.24509 26.5362 5.90233 26.5362 5.55761 26.5401C5.28106 26.544 5.09799 26.4123 4.95777 26.1838C4.40077 25.2836 3.96452 24.3292 3.70161 23.3051C2.94012 20.3333 3.48153 17.5745 5.1681 15.0384C6.60928 12.872 8.61721 11.4181 11.075 10.5663C12.2163 10.1713 13.3945 9.96029 14.6 9.88672C14.6566 9.88285 14.711 9.86927 14.7656 9.85963C15.2174 9.85963 15.6693 9.85963 16.1211 9.85963V9.85767ZM15.4901 16.229C12.3429 16.229 9.19367 16.229 6.04645 16.2348C5.86727 16.2426 5.71926 16.2522 5.54787 16.2987C5.39402 16.3413 5.27717 16.5426 5.27717 16.7149C5.27717 16.9647 5.27132 17.2164 5.28106 17.4661C5.28106 17.5145 5.3317 17.5881 5.37844 17.6055C6.11656 17.8978 6.85859 18.1844 7.60056 18.467C7.65125 18.4864 7.72331 18.4864 7.77393 18.467C8.90738 18.0314 10.0409 17.5939 11.1724 17.1544C11.447 17.048 11.7177 17.0344 11.9962 17.1447C13.0966 17.5823 14.1969 18.014 15.2953 18.4554C15.418 18.5057 15.5212 18.5057 15.644 18.4554C16.7307 18.014 17.8213 17.5823 18.91 17.1428C19.1709 17.0383 19.4202 17.0363 19.6851 17.1389C20.8166 17.5804 21.9501 18.0159 23.0836 18.4496C23.1498 18.4748 23.2394 18.4941 23.2997 18.4709C24.0592 18.1882 24.8129 17.8959 25.5706 17.6113C25.6543 17.5804 25.6738 17.5339 25.6718 17.4526C25.668 17.2493 25.6718 17.044 25.6718 16.8407C25.6718 16.4923 25.5413 16.3297 25.1947 16.26C25.0895 16.2387 24.9805 16.2329 24.8733 16.2329C21.7456 16.2329 18.6179 16.2329 15.4901 16.2329V16.229ZM20.2421 15.8611C20.1759 15.6946 20.1252 15.5514 20.0649 15.412C19.5857 14.2794 18.947 13.2534 17.9907 12.4538C16.4405 11.1567 14.4423 11.1645 12.8998 12.4674C12.0546 13.1837 11.4665 14.084 11.0088 15.079C10.892 15.3307 10.7946 15.5901 10.6816 15.8611H20.2421ZM25.6893 17.9714C24.9863 18.2598 24.3164 18.5309 23.6503 18.8078C23.3699 18.9239 23.0991 18.9259 22.8148 18.8135C21.7047 18.376 20.5888 17.9482 19.4767 17.5126C19.3832 17.4758 19.3072 17.4777 19.2157 17.5145C18.0686 17.9598 16.9215 18.3992 15.7745 18.8465C15.5699 18.9259 15.3849 18.9239 15.1804 18.8465C14.0236 18.3973 12.8648 17.9559 11.706 17.5164C11.6339 17.4893 11.5347 17.4874 11.4626 17.5164C10.333 17.9482 9.20534 18.3838 8.0797 18.8271C7.80508 18.9355 7.5519 18.9375 7.27925 18.8194C6.6502 18.5464 6.01334 18.2889 5.37844 18.0237C5.34533 18.0101 5.30833 18.0004 5.24601 17.9811C5.29275 18.076 5.32391 18.1457 5.36091 18.2114C5.62967 18.6897 6.03087 19.0323 6.50607 19.2956C7.30259 19.737 8.16731 19.8977 9.06902 19.8977C13.3225 19.8977 17.5759 19.9016 21.8274 19.8919C22.2811 19.8919 22.7408 19.8377 23.1848 19.7467C23.9716 19.586 24.6844 19.255 25.2492 18.6625C25.4323 18.4709 25.5861 18.2579 25.6893 17.9733V17.9714ZM12.4909 22.9837C13.0148 22.9837 13.4568 22.5945 13.4724 22.1202C13.488 21.6556 13.1297 21.2529 12.6467 21.189C12.1248 21.1213 11.6456 21.4136 11.5327 21.8666C11.3886 22.4435 11.854 22.9837 12.4909 22.9817V22.9837ZM19.4241 22.155C19.4299 21.5956 19.0151 21.2006 18.4756 21.1793C18.0375 21.1619 17.6382 21.4232 17.5058 21.8163C17.3831 22.1822 17.5175 22.579 17.8564 22.8055C18.1952 23.0301 18.5594 23.0514 18.9217 22.8675C19.2391 22.7087 19.4124 22.4455 19.4241 22.155ZM15.4745 22.972C16.0802 22.972 16.5417 22.4745 16.4385 21.9267C16.3587 21.4988 15.9887 21.1987 15.5154 21.1735C15.0694 21.1503 14.6488 21.4329 14.5319 21.8337C14.3625 22.4087 14.8279 22.9701 15.4745 22.9701V22.972Z" fill="black"/>
<path id="Vector_3" d="M0.186339 30.416C0.168811 30.4004 0.151283 30.385 0.12207 30.3579C0.182444 30.323 0.24087 30.2882 0.301244 30.2572C1.18348 29.8177 2.12415 29.5467 3.07455 29.3124C5.11167 28.811 7.17995 28.509 9.26579 28.2941C10.8647 28.1295 12.4676 28.0289 14.0762 27.996C14.0957 27.996 14.1152 27.9921 14.1483 27.9882V26.571C14.082 26.571 14.0217 26.571 13.9613 26.571C13.155 26.571 12.3487 26.573 11.5424 26.571C11.1588 26.571 10.8959 26.3078 10.9095 25.9535C10.9192 25.6495 11.1627 25.4036 11.4704 25.3882C11.5269 25.3863 11.5834 25.3863 11.6398 25.3863C14.1931 25.3863 16.7443 25.3863 19.2976 25.3863C19.3891 25.3863 19.4845 25.3824 19.5722 25.4036C19.8487 25.4676 20.0357 25.727 20.0201 26.0038C20.0026 26.2981 19.7923 26.5265 19.502 26.5633C19.4359 26.5711 19.3697 26.571 19.3015 26.571C18.5302 26.571 17.761 26.571 16.9897 26.571H16.7969V27.9785C16.8164 27.9824 16.8398 27.9921 16.8632 27.994C17.9343 28.0463 19.0093 28.0618 20.0786 28.1547C21.4944 28.2786 22.9064 28.4451 24.3144 28.629C25.7147 28.811 27.0975 29.0917 28.4588 29.4634C29.2106 29.6686 29.9526 29.9048 30.6518 30.2591C30.6965 30.2823 30.7433 30.3075 30.7861 30.3327C30.7978 30.3404 30.8056 30.3559 30.8154 30.3695C30.0091 30.2572 29.2086 30.1333 28.4062 30.0326C27.1131 29.8739 25.8199 29.7015 24.5228 29.5854C22.8051 29.4324 21.0854 29.3047 19.3618 29.2059C17.3208 29.0878 15.2759 29.0878 13.231 29.1711C11.9437 29.2234 10.6544 29.2853 9.37097 29.3763C8.06998 29.4692 6.77293 29.5912 5.47586 29.7306C4.17491 29.868 2.87784 30.0384 1.57883 30.201C1.13285 30.2572 0.688808 30.3385 0.244765 30.4082H0.182444L0.186339 30.416Z" fill="black"/>
<path id="Vector_4" d="M37.1059 21.9209C36.8547 21.9209 36.7301 22.0661 36.7301 22.3604C36.7301 22.5366 36.8313 22.6372 37.0339 22.6624L37.4468 22.7166L37.4565 23.8762H33.6238L33.614 22.6604H33.8166C34.171 22.6604 34.4378 22.4533 34.617 22.039L36.6678 17.3152H39.554L41.6126 22.0119C41.8015 22.4436 42.1423 22.6604 42.6331 22.6604V23.8762H38.1109V22.6972L38.5238 22.643C38.7204 22.6179 38.8178 22.5191 38.8178 22.341C38.8178 22.0603 38.6854 21.9209 38.4225 21.9209H37.1059ZM37.6941 19.7274L37.2715 20.8871H38.1167L37.6941 19.7274Z" fill="black"/>
<path id="Vector_5" d="M45.7646 19.7641V22.2131C45.7646 22.3719 45.8561 22.5016 46.0412 22.6061C46.2009 22.6971 46.3664 22.7436 46.5378 22.7436V23.8762H43.0361V22.761C43.1763 22.7436 43.3263 22.6874 43.486 22.5965C43.6749 22.4939 43.7703 22.3835 43.7703 22.2674L43.7606 19.1059C43.7606 18.9239 43.6866 18.7671 43.5405 18.6354C43.3925 18.5038 43.2192 18.4399 43.0166 18.4399V17.3074H47.3557L48.6431 20.3682L49.9382 17.3074H54.4799V18.4399C54.2715 18.4399 54.1001 18.5019 53.9657 18.6277C53.8314 18.7535 53.7632 18.9162 53.7632 19.1175V22.1977C53.7632 22.3564 53.8605 22.49 54.0573 22.6004C54.2287 22.6971 54.4 22.7475 54.5714 22.7475V23.88H50.3238V22.7649C50.4407 22.7649 50.5868 22.7088 50.7601 22.5965C50.9354 22.4842 51.023 22.3719 51.023 22.2635L51.0133 19.768C51.0133 19.7002 50.9743 19.6673 50.8944 19.6673C50.8575 19.6673 50.8243 19.7099 50.7932 19.7951L49.1942 23.88H47.6498L45.9944 19.768C45.9769 19.7196 45.9399 19.6945 45.8834 19.6945C45.8035 19.6945 45.7646 19.7196 45.7646 19.768V19.7641Z" fill="black"/>
<path id="Vector_6" d="M58.6068 19.1156V22.2965C58.6068 22.4552 58.7081 22.5888 58.9106 22.6992C59.0762 22.7901 59.2475 22.8366 59.4248 22.8366V23.8782H55.0038V22.8637C55.2492 22.8637 55.4732 22.763 55.6758 22.5617C55.7186 22.5133 55.74 22.4339 55.74 22.3236L55.7303 19.1079C55.7303 18.9259 55.6563 18.7691 55.5102 18.6375C55.3642 18.5058 55.1889 18.4419 54.9863 18.4419V17.3093H59.3352V18.4419C59.1268 18.4419 58.9535 18.5038 58.8152 18.6297C58.6769 18.7556 58.6088 18.9182 58.6088 19.1195L58.6068 19.1156Z" fill="black"/>
<path id="Vector_7" d="M63.4874 21.3091C63.4874 21.6015 63.5829 21.8667 63.7718 22.1049C64.0172 22.4165 64.3814 22.5714 64.8663 22.5714C65.1292 22.5714 65.3512 22.523 65.5285 22.4262C65.7425 22.3043 65.85 22.1222 65.85 21.8783C65.85 21.677 65.77 21.5434 65.61 21.4757C65.5674 21.4582 65.4019 21.4234 65.1136 21.375V20.3876H69.4972V21.3285L69.25 21.3556L69.1858 21.3827C68.9097 21.4989 68.7733 21.6441 68.7733 21.8222V23.8414H67.5497C67.4645 23.6226 67.3418 23.5123 67.1818 23.5123C67.071 23.5123 66.9733 23.5374 66.8881 23.5858C65.5577 23.8782 64.5839 24.0253 63.9646 24.0253C62.8311 24.0253 61.8788 23.7388 61.1056 23.1658C60.2292 22.5211 59.791 21.6615 59.791 20.589C59.791 19.7178 60.1591 18.9744 60.8933 18.3587C61.5496 17.8108 62.3365 17.4817 63.2557 17.3714C63.7094 17.3171 64.1224 17.29 64.4963 17.29C65.1448 17.29 65.7425 17.3752 66.2881 17.5456C66.3425 17.5572 66.4363 17.5882 66.5648 17.6366C66.8159 17.747 66.9602 17.8011 66.9969 17.8011C67.1018 17.8011 67.2599 17.6773 67.4743 17.4256H68.7517V19.892H66.3149L66.2684 19.4525C66.2435 19.2454 66.0487 19.0498 65.6802 18.8679C65.3551 18.7033 65.0708 18.622 64.8254 18.622C64.4456 18.622 64.1262 18.742 63.8692 18.9821C63.6121 19.2222 63.4835 19.5319 63.4835 19.9094V21.3072L63.4874 21.3091Z" fill="black"/>
<path id="Vector_8" d="M74.3529 24.0408C73.1647 24.0408 72.1464 23.7794 71.3011 23.2548C70.3077 22.6391 69.8113 21.7737 69.8113 20.6606C69.8113 19.4428 70.267 18.5348 71.1805 17.9366C71.9516 17.4313 72.9857 17.1777 74.2788 17.1777C75.5719 17.1777 76.5864 17.4274 77.3772 17.9269C78.3332 18.531 78.8106 19.4234 78.8106 20.6044C78.8106 21.7196 78.3293 22.5927 77.3673 23.2277C76.5398 23.7697 75.5346 24.0408 74.3529 24.0408ZM74.3529 18.4303C73.9477 18.4303 73.6362 18.7071 73.4159 19.2608C73.2506 19.6751 73.1687 20.1204 73.1687 20.6006C73.1687 22.0351 73.5483 22.7533 74.3077 22.7533C75.0677 22.7533 75.4395 22.0331 75.4395 20.5928C75.4395 20.1127 75.3693 19.6712 75.227 19.2705C75.0303 18.711 74.7405 18.4322 74.3549 18.4322L74.3529 18.4303Z" fill="black"/>
<path id="Vector_9" d="M35.4447 28.7858C34.9208 28.7858 34.4846 28.6309 34.1359 28.3192C33.7873 28.0075 33.6121 27.6203 33.6121 27.1518C33.6121 26.6833 33.7873 26.2961 34.1359 25.9844C34.4846 25.6747 34.9208 25.5178 35.4447 25.5178C35.8226 25.5178 36.1497 25.6011 36.4282 25.7656C36.7067 25.9321 36.9151 26.1587 37.0592 26.449H36.3113C36.0971 26.1974 35.8089 26.0696 35.4467 26.0696C35.1233 26.0696 34.8526 26.1722 34.6384 26.3774C34.4222 26.5826 34.3151 26.8401 34.3151 27.1499C34.3151 27.4597 34.4222 27.7171 34.6384 27.9223C34.8546 28.1275 35.1233 28.2301 35.4467 28.2301C35.6959 28.2301 35.9024 28.1721 36.066 28.0559C36.2296 27.9398 36.3445 27.7791 36.4068 27.5739H35.2538V27.0202H37.1605C37.1605 27.5526 37.0008 27.9804 36.6795 28.3037C36.3581 28.6251 35.9471 28.7858 35.4467 28.7858H35.4447Z" fill="black"/>
<path id="Vector_10" d="M44.2437 25.5818L45.7861 28.7258H45.0441L44.6974 28.0308H43.079L42.7323 28.7258H42.0176L43.5601 25.5818H44.2437ZM43.8912 26.4045L43.3575 27.4752H44.4209L43.8931 26.4045H43.8912Z" fill="black"/>
<path id="Vector_11" d="M51.6541 25.5818L52.957 28.0579L54.26 25.5818H55.0565V28.7258H54.3573V26.7569L53.327 28.7258H52.5695L51.5392 26.7569V28.7258H50.8401V25.5818H51.6581H51.6541Z" fill="black"/>
<path id="Vector_12" d="M61.2165 25.5818V28.7258H60.5173V25.5818H61.2165Z" fill="black"/>
<path id="Vector_13" d="M69.1975 25.5818H69.8965V28.7258H69.1391L67.3765 26.5207V28.7258H66.6775V25.5818H67.4349L69.1975 27.7868V25.5818Z" fill="black"/>
<path id="Vector_14" d="M76.9976 28.7858C76.4736 28.7858 76.0376 28.6309 75.6887 28.3192C75.3399 28.0075 75.1648 27.6203 75.1648 27.1518C75.1648 26.6833 75.3399 26.2961 75.6887 25.9844C76.0376 25.6747 76.4736 25.5178 76.9976 25.5178C77.3753 25.5178 77.7025 25.6011 77.9812 25.7656C78.2599 25.9321 78.4677 26.1587 78.612 26.449H77.8645C77.65 26.1974 77.3615 26.0696 76.9996 26.0696C76.6763 26.0696 76.4055 26.1722 76.191 26.3774C75.9753 26.5826 75.8677 26.8401 75.8677 27.1499C75.8677 27.4597 75.9753 27.7171 76.191 27.9223C76.4074 28.1275 76.6763 28.2301 76.9996 28.2301C77.2487 28.2301 77.4553 28.1721 77.6186 28.0559C77.7825 27.9398 77.8973 27.7791 77.9595 27.5739H76.8068V27.0202H78.7136C78.7136 27.5526 78.5536 27.9804 78.2323 28.3037C77.911 28.6271 77.4999 28.7858 76.9996 28.7858H76.9976Z" fill="black"/>
</g>
</g>
</g>
</g>
</g>
</g>
</g>
</g>
</g>
</g>
</g>
</g>
</g>
</g>
</g>
</g>
<defs>
<clipPath id="clip0_23_28812">
<rect width="1821" height="100" fill="white" transform="translate(-267.828)"/>
</clipPath>
<clipPath id="clip1_23_28812">
<rect width="79.3443" height="40" fill="white"/>
</clipPath>
<clipPath id="clip2_23_28812">
<rect width="79.3443" height="40" fill="white"/>
</clipPath>
</defs>
</svg>
