<svg width="86" height="40" viewBox="0 0 86 40" fill="none" xmlns="http://www.w3.org/2000/svg">
<rect width="86" height="40" fill="#1E1E1E"/>
<g id="Live Casino">
<rect width="1905" height="855" transform="translate(-1345.83 -1954.78)" fill="white"/>
<rect width="1905" height="855" transform="translate(-1345.83 -1954.78)" fill="#1D4268"/>
<g id="Background">
<rect width="1905" height="2392.78" transform="translate(-1345.83 -1954.78)" fill="#1D4268"/>
<g id="Background_2">
<rect width="1905" height="1974.78" transform="translate(-1345.83 -1858.78)" fill="#283858"/>
<g id="Container">
<g id="Container_2">
<g id="Background_3">
<rect x="-1269.83" y="-16" width="1821" height="132" rx="8" fill="#205583"/>
<g id="Container_3" clip-path="url(#clip0_23_28812)">
<g id="Container_4">
<g id="Margin">
<g id="Container_5">
<g id="Link">
<g id="Picture &#226;&#134;&#146; Capecod" opacity="0.8" clip-path="url(#clip1_23_28812)">
<g id="Capecod_mono.svg">
<path id="Vector" d="M26.1608 21.7271H27.5341C27.4341 22.6004 27.0408 23.2604 26.3674 23.7204C25.6874 24.1804 24.7608 24.4071 23.5808 24.4071C22.1608 24.4071 21.0408 24.0071 20.2341 23.2071C19.4208 22.4071 19.0208 21.3071 19.0208 19.9071C19.0208 18.5071 19.4408 17.4271 20.2741 16.6137C21.1074 15.8071 22.2541 15.4004 23.7008 15.4004C24.8274 15.4004 25.7208 15.6137 26.3742 16.0471C27.0208 16.4804 27.3808 17.0871 27.4408 17.8671H26.0875C26.0275 17.4137 25.7741 17.0537 25.3408 16.7804C24.9008 16.5137 24.3274 16.3804 23.6274 16.3804C22.5808 16.3804 21.7674 16.6937 21.1741 17.3071C20.5874 17.9271 20.2941 18.7871 20.2941 19.9004C20.2941 21.0137 20.5942 21.9137 21.1874 22.5271C21.7874 23.1404 22.6408 23.4471 23.7608 23.4471C24.4608 23.4471 25.0274 23.2937 25.4474 22.9871C25.8674 22.6804 26.1074 22.2604 26.1674 21.7204L26.1608 21.7271Z" fill="black"/>
<path id="Vector_2" d="M27.7606 24.2543L32.2606 15.5476H33.7606L38.1472 24.2609H36.7472L35.6072 21.9409H30.2406L29.0406 24.2609H27.7539L27.7606 24.2543ZM30.7472 20.9143H35.1139L33.0006 16.5409L30.7472 20.9143Z" fill="black"/>
<path id="Vector_3" d="M39.181 24.2543V15.5476H43.0744C43.8077 15.5476 44.341 15.5809 44.6677 15.6409C45.001 15.7009 45.281 15.8076 45.521 15.9543C45.8344 16.1543 46.0744 16.4209 46.241 16.7543C46.4077 17.0876 46.4944 17.4809 46.4944 17.9209C46.4944 18.8409 46.2477 19.4876 45.7477 19.8743C45.2544 20.2543 44.3744 20.4476 43.1144 20.4476H40.381V24.2743H39.1877L39.181 24.2543ZM40.3744 19.4276H42.9877C43.9477 19.4276 44.5677 19.3276 44.8477 19.1143C45.1277 18.9076 45.2677 18.5343 45.2677 17.9876C45.2677 17.4409 45.1277 17.0676 44.8477 16.8609C44.5677 16.6543 43.9477 16.5543 42.9877 16.5543H40.3744V19.4276Z" fill="black"/>
<path id="Vector_4" d="M47.9414 24.2543V15.5476H54.4147V16.5809H49.1414V19.1476H54.0481V20.1809H49.1414V23.1809H54.5814V24.2609H47.9481L47.9414 24.2543Z" fill="black"/>
<path id="Vector_5" d="M62.6608 21.7271H64.0342C63.9342 22.6004 63.5408 23.2604 62.8675 23.7204C62.1942 24.1804 61.2608 24.4071 60.0808 24.4071C58.6608 24.4071 57.5408 24.0071 56.7341 23.2071C55.9208 22.4071 55.5208 21.3071 55.5208 19.9071C55.5208 18.5071 55.9408 17.4271 56.7808 16.6137C57.6141 15.8071 58.7608 15.4004 60.2074 15.4004C61.3341 15.4004 62.2275 15.6137 62.8808 16.0471C63.5342 16.4804 63.8874 17.0871 63.9474 17.8671H62.5942C62.5342 17.4137 62.2874 17.0537 61.8474 16.7804C61.4074 16.5137 60.8341 16.3804 60.1341 16.3804C59.0874 16.3804 58.2741 16.6937 57.6874 17.3071C57.1008 17.9271 56.8075 18.7871 56.8075 19.9004C56.8075 21.0137 57.1075 21.9137 57.7008 22.5271C58.3008 23.1404 59.1542 23.4471 60.2675 23.4471C60.9675 23.4471 61.5342 23.2937 61.9542 22.9871C62.3742 22.6804 62.6142 22.2604 62.6742 21.7204L62.6608 21.7271Z" fill="black"/>
<path id="Vector_6" d="M69.7213 24.3871C69.0013 24.3871 68.368 24.2871 67.8213 24.0938C67.2747 23.9005 66.7747 23.5938 66.3414 23.1871C65.8881 22.7538 65.5414 22.2538 65.3014 21.6938C65.0614 21.1338 64.9414 20.5338 64.9414 19.8938C64.9414 19.2538 65.0614 18.6405 65.3014 18.0738C65.5414 17.5071 65.8881 17.0138 66.3414 16.5938C66.7813 16.1871 67.2747 15.8805 67.8213 15.6871C68.3747 15.4938 69.008 15.3938 69.7147 15.3938C70.4213 15.3938 71.0613 15.4938 71.6147 15.6871C72.168 15.8805 72.6613 16.1871 73.0947 16.5938C73.548 17.0138 73.8947 17.5071 74.1413 18.0738C74.3813 18.6405 74.5013 19.2471 74.5013 19.8938C74.5013 20.5405 74.3813 21.1405 74.1413 21.7005C73.9013 22.2605 73.5547 22.7605 73.0947 23.1805C72.6547 23.5871 72.1613 23.8871 71.608 24.0871C71.0547 24.2805 70.4213 24.3805 69.708 24.3805L69.7213 24.3871ZM73.188 19.8938C73.188 18.8805 72.868 18.0471 72.2213 17.4005C71.5813 16.7538 70.7547 16.4338 69.748 16.4338C68.7413 16.4338 67.8747 16.7538 67.228 17.4005C66.5814 18.0405 66.2547 18.8738 66.2547 19.9005C66.2547 20.9271 66.5747 21.7471 67.2213 22.3871C67.868 23.0271 68.708 23.3405 69.7347 23.3405C70.7613 23.3405 71.588 23.0205 72.228 22.3871C72.868 21.7471 73.188 20.9205 73.188 19.9005V19.8938Z" fill="black"/>
<path id="Vector_7" d="M76.3206 24.2543V15.5476H79.8406C80.7806 15.5476 81.534 15.6276 82.1073 15.7809C82.6806 15.9343 83.1673 16.1876 83.5673 16.5409C84.0206 16.9476 84.3673 17.4209 84.594 17.9676C84.8206 18.5143 84.934 19.1343 84.934 19.8343C84.934 20.4743 84.8406 21.0543 84.6473 21.5743C84.454 22.0943 84.1806 22.5609 83.8006 22.9676C83.374 23.4276 82.874 23.7543 82.3073 23.9609C81.7406 24.1676 80.994 24.2676 80.0873 24.2676H76.314L76.3206 24.2543ZM77.594 23.2209H79.7273C80.5273 23.2209 81.134 23.1609 81.5673 23.0409C82.0006 22.9209 82.354 22.7209 82.6406 22.4343C82.954 22.1209 83.1873 21.7543 83.3406 21.3343C83.494 20.9143 83.574 20.4409 83.574 19.9076C83.574 19.3476 83.4873 18.8409 83.314 18.3943C83.1406 17.9476 82.8873 17.5876 82.5606 17.3076C82.2473 17.0409 81.8806 16.8476 81.4606 16.7343C81.034 16.6143 80.4073 16.5609 79.5806 16.5609H77.594V23.2276V23.2209Z" fill="black"/>
<path id="Vector_8" d="M17.9004 18.3074C16.9804 17.6608 15.8004 17.4541 14.7338 17.4608C13.6738 17.4608 12.6138 17.6874 11.6204 18.1008C11.4804 17.9541 11.3404 17.8141 11.1938 17.6741C10.8538 17.3608 10.4938 17.0674 10.1204 16.8008C11.8404 15.8941 13.7538 15.4408 15.6538 15.4008C14.4671 14.9208 13.0538 15.0074 11.8471 15.3408C11.0071 15.5541 10.1871 15.8941 9.41378 16.3474C8.64711 15.9008 7.82711 15.5541 6.98044 15.3408C5.77379 15.0074 4.3538 14.9208 3.1738 15.4008C5.08046 15.4341 6.98711 15.8874 8.70711 16.8008C8.33378 17.0674 7.97378 17.3541 7.63378 17.6741C7.48711 17.8074 7.34711 17.9541 7.20711 18.1008C6.2138 17.6874 5.1538 17.4608 4.09379 17.4608C3.02046 17.4474 1.84712 17.6608 0.927124 18.3074C2.82712 17.9208 4.84712 18.0074 6.70044 18.6741C5.30712 20.3608 4.34713 22.5608 4.3338 24.8608C4.42713 24.1208 4.62046 23.4008 4.86713 22.7074C5.42046 21.2808 6.24712 19.9674 7.28044 18.9074C7.59378 19.0474 7.90711 19.2008 8.20711 19.3741C8.46044 19.5208 8.70711 19.6741 8.94711 19.8408C7.57378 21.1474 6.57379 22.9208 6.30712 24.9341C6.30712 24.9141 6.32046 24.8941 6.32046 24.8741C6.81378 22.9474 7.96711 21.3474 9.41378 20.2008C10.8604 21.3541 12.0138 22.9541 12.5071 24.8741C12.5071 24.8941 12.5204 24.9141 12.5204 24.9341C12.2538 22.9208 11.2538 21.1474 9.88044 19.8408C10.1204 19.6741 10.3671 19.5141 10.6204 19.3741C10.9204 19.2008 11.2271 19.0474 11.5471 18.9074C12.5804 19.9741 13.4071 21.2808 13.9604 22.7074C14.2138 23.4008 14.4071 24.1208 14.4938 24.8608C14.4804 22.5608 13.5204 20.3608 12.1271 18.6741C13.9738 18.0074 16.0004 17.9208 17.9004 18.3074ZM10.8004 18.4874C10.3138 18.7474 9.84711 19.0674 9.41378 19.4208C8.98044 19.0608 8.51378 18.7474 8.02711 18.4874C7.96044 18.4474 7.89378 18.4208 7.82044 18.3874C8.06044 18.1741 8.31378 17.9741 8.57378 17.7874C8.84711 17.5808 9.12711 17.3941 9.41378 17.2141C9.70044 17.3941 9.98044 17.5808 10.2538 17.7874C10.5138 17.9741 10.7604 18.1741 11.0071 18.3874C10.9404 18.4208 10.8671 18.4541 10.8004 18.4874Z" fill="black"/>
</g>
</g>
</g>
</g>
</g>
</g>
</g>
</g>
</g>
</g>
</g>
</g>
</g>
<defs>
<clipPath id="clip0_23_28812">
<rect width="1821" height="100" fill="white" transform="translate(-1269.83)"/>
</clipPath>
<clipPath id="clip1_23_28812">
<rect width="85.3333" height="40" fill="white"/>
</clipPath>
</defs>
</svg>
