<svg width="86" height="40" viewBox="0 0 86 40" fill="none" xmlns="http://www.w3.org/2000/svg">
<rect width="86" height="40" fill="#1E1E1E"/>
<g id="Live Casino">
<rect width="1905" height="855" transform="translate(-1144.83 -1954.78)" fill="white"/>
<rect width="1905" height="855" transform="translate(-1144.83 -1954.78)" fill="#1D4268"/>
<g id="Background">
<rect width="1905" height="2392.78" transform="translate(-1144.83 -1954.78)" fill="#1D4268"/>
<g id="Background_2">
<rect width="1905" height="1974.78" transform="translate(-1144.83 -1858.78)" fill="#283858"/>
<g id="Container">
<g id="Container_2">
<g id="Background_3">
<rect x="-1068.83" y="-16" width="1821" height="132" rx="8" fill="#205583"/>
<g id="Container_3" clip-path="url(#clip0_23_28812)">
<g id="Container_4">
<g id="Margin">
<g id="Container_5">
<g id="Link">
<g id="Picture &#226;&#134;&#146; Famous Games" opacity="0.8" clip-path="url(#clip1_23_28812)">
<g id="FamousGames_mono-011.svg">
<path id="Vector" d="M44.9869 3.6534H77.1001C77.0801 3.8734 77.0534 4.08673 77.0134 4.30006C77.0134 4.32673 77.0067 4.3534 77.0001 4.38673C76.9801 4.48006 76.9667 4.5734 76.9467 4.6734C76.9334 4.74007 76.9201 4.80674 76.9134 4.88007C76.8801 5.06674 76.8467 5.2534 76.8134 5.4334C76.7801 5.62673 76.7467 5.82673 76.7067 6.02006C76.64 6.39339 76.5734 6.76006 76.5067 7.13339C76.4334 7.55339 76.3601 7.96672 76.2867 8.38672C76.1067 9.39339 75.98 10.1134 75.9001 10.5534C75.9001 10.5867 75.8867 10.6201 75.8801 10.6534C75.8667 10.7201 75.8534 10.7867 75.8467 10.8534C75.8134 11.0534 75.7734 11.2534 75.7401 11.4534C75.7201 11.5801 75.6934 11.7067 75.6734 11.8334C75.6601 11.8934 75.6534 11.9534 75.6401 12.0134C75.6267 12.0934 75.6134 12.1734 75.6001 12.2534C75.6001 12.2801 75.5934 12.3001 75.5867 12.3267C75.5667 12.4334 75.5467 12.5134 75.5201 12.5667C68.2934 12.5801 60.9935 12.5934 53.6202 12.6001C52.9202 16.5401 52.2135 20.4734 51.5135 24.4134C51.4535 24.7534 51.3935 25.1001 51.3335 25.4401C51.2935 25.6467 51.2602 25.8534 51.2202 26.0667C51.2002 26.1934 51.1735 26.3134 51.1535 26.4401C51.1402 26.5001 51.1335 26.5534 51.1202 26.6134C51.1069 26.6934 51.0935 26.7667 51.0802 26.8467C51.0802 26.8867 51.0669 26.9334 51.0602 26.9801C51.0469 27.0467 51.0269 27.1001 51.0069 27.1467H62.8002C62.8135 27.0467 62.8202 26.9401 62.8335 26.8401C62.8335 26.7867 62.8469 26.7401 62.8602 26.6867C62.8602 26.6601 62.8602 26.6334 62.8735 26.6067C62.8735 26.5801 62.8869 26.5534 62.8869 26.5201C62.8869 26.4867 62.9002 26.4601 62.9002 26.4267C62.9202 26.3267 62.9335 26.2334 62.9535 26.1334C62.9669 26.0734 62.9735 26.0134 62.9869 25.9467C63.0269 25.7201 63.0669 25.4934 63.1069 25.2734C63.1935 24.7734 63.2868 24.2601 63.3802 23.7467H58.4602C58.4802 23.5267 58.5002 23.3201 58.5402 23.1067C58.5402 23.0801 58.5469 23.0601 58.5535 23.0334C58.5669 22.9534 58.5802 22.8734 58.5935 22.8001C58.6068 22.7401 58.6135 22.6867 58.6269 22.6267L58.7069 22.1667C58.7335 22.0067 58.7669 21.8401 58.7935 21.6801C58.8469 21.3734 58.9069 21.0601 58.9602 20.7534C59.0202 20.4067 59.0869 20.0601 59.1469 19.7134C59.2202 19.2867 59.3002 18.8667 59.3735 18.4401C59.3735 18.4067 59.3869 18.3801 59.3869 18.3467C59.4135 18.2001 59.4402 18.0534 59.4669 17.9067C59.5135 17.6401 59.5668 17.3667 59.6135 17.1001C59.6335 16.9734 59.6602 16.8467 59.6802 16.7201C59.6935 16.6601 59.7002 16.6001 59.7135 16.5401C59.7269 16.4601 59.7402 16.3734 59.7602 16.2934C59.7602 16.2667 59.7669 16.2467 59.7735 16.2201C59.7935 16.1067 59.8202 16.0267 59.8402 15.9734H74.9001C74.8801 16.2001 74.8601 16.4067 74.8201 16.6267C74.8201 16.6534 74.8134 16.6801 74.8067 16.7001C74.7934 16.7867 74.7801 16.8667 74.7601 16.9534C74.7467 17.0134 74.7401 17.0734 74.7267 17.1334C74.7001 17.3001 74.6667 17.4667 74.6401 17.6334C74.6067 17.8134 74.5734 17.9934 74.5467 18.1667C74.4867 18.5134 74.4201 18.8601 74.3601 19.2067C74.2801 19.6467 74.2001 20.0934 74.1201 20.5334C74.0934 20.7001 74.0601 20.8601 74.0334 21.0267C74.0267 21.0667 74.0201 21.1067 74.0134 21.1467C73.9667 21.3934 73.9267 21.6467 73.8801 21.8934C73.7001 22.9201 73.5134 23.9401 73.3334 24.9667C73.2867 25.2134 73.2467 25.4601 73.2001 25.7134C73.2001 25.7467 73.1867 25.7801 73.18 25.8201C73.1534 25.9534 73.1334 26.0934 73.1067 26.2267C73.0401 26.6201 72.9667 27.0134 72.9001 27.4067C72.8601 27.6534 72.8134 27.8934 72.7734 28.1401C72.7467 28.2801 72.7267 28.4201 72.7001 28.5601C72.6801 28.6867 72.6534 28.8134 72.6334 28.9401C72.62 29.0067 72.6067 29.0734 72.6001 29.1401C72.5601 29.3534 72.5134 29.5467 72.4334 29.7467C72.4134 29.8067 72.3934 29.8667 72.3734 29.9201C72.2267 30.3667 72.0534 30.8001 71.8467 31.2201C71.8334 31.2467 71.8201 31.2667 71.8134 31.2934C71.4601 32.0134 70.9867 32.6801 70.4467 33.2667C70.4001 33.3201 70.3467 33.3734 70.3 33.4267C69.9134 33.8734 69.4667 34.2334 68.9934 34.5801C68.9601 34.6067 68.9267 34.6267 68.8934 34.6534C68.8134 34.7134 68.7334 34.7667 68.6467 34.8201C68.6134 34.8401 68.5867 34.8601 68.5534 34.8801C67.4734 35.5667 66.2669 36.0267 65.0002 36.2267C64.9735 36.2267 64.9535 36.2267 64.9268 36.2401C64.3002 36.3401 63.6735 36.3334 63.0402 36.3334H39.1469C39.4869 34.3934 39.7335 32.9667 39.9002 32.0534C39.9335 31.8801 39.9602 31.7067 39.9935 31.5334C40.0469 31.2401 40.1002 30.9401 40.1535 30.6467C40.2402 30.1734 40.3202 29.6934 40.4069 29.2201C40.4269 29.1001 40.4535 28.9734 40.4735 28.8534C40.4869 28.7734 40.5002 28.6867 40.5202 28.6067C40.5735 28.3134 40.6269 28.0267 40.6735 27.7334C40.8669 26.6534 41.0602 25.5801 41.2469 24.5001C41.2469 24.4667 41.2602 24.4267 41.2669 24.3934C41.3402 23.9667 41.4202 23.5401 41.4935 23.1134C41.6135 22.4334 41.7335 21.7467 41.8602 21.0667C41.8602 21.0334 41.8735 20.9934 41.8802 20.9601C42.0869 19.8134 42.2869 18.6667 42.4935 17.5267C42.5002 17.4934 42.5069 17.4534 42.5135 17.4134C42.6269 16.7667 42.7469 16.1201 42.8602 15.4734C43.1935 13.6134 43.5268 11.7534 43.8535 9.89339C43.8602 9.84672 43.8668 9.80672 43.8802 9.76006C44.0335 8.90672 44.1802 8.05339 44.3335 7.20672C44.3868 6.89339 44.4468 6.58006 44.5002 6.26673C44.5335 6.08673 44.5668 5.90674 44.5935 5.72674C44.6535 5.38674 44.7135 5.04674 44.7735 4.70007C44.8002 4.54007 44.8335 4.38007 44.8602 4.2134C44.8735 4.14674 44.8868 4.0734 44.9002 4.00674C44.9002 3.98007 44.9135 3.94673 44.9135 3.9134C44.9335 3.78673 44.9602 3.6934 44.9869 3.64673V3.6534Z" fill="black"/>
<path id="Vector_2" d="M21.9067 3.64689H41.4467C41.3534 4.21355 41.2601 4.78688 41.1534 5.35355C41.1401 5.41355 41.1334 5.47355 41.1201 5.53355C41.0934 5.69355 41.0601 5.85355 41.0334 6.01355C41.0001 6.18689 40.9734 6.35355 40.9401 6.52688C40.8867 6.81354 40.8401 7.10021 40.7867 7.38688C40.7267 7.71355 40.6667 8.04021 40.6134 8.36688C40.5534 8.72021 40.4867 9.07354 40.4267 9.42688C40.4067 9.52688 40.3934 9.62688 40.3734 9.72688L40.3401 9.92021C40.3401 9.92021 40.3334 9.97355 40.3267 10.0002C40.1734 10.8469 40.0201 11.7002 39.8667 12.5469H22.9534C22.9334 12.7069 22.9067 12.8669 22.8867 13.0269C22.7134 13.9802 22.5467 14.9335 22.3734 15.9135C27.9467 15.9269 33.5134 15.9335 39.2534 15.9469C39.2001 16.3135 39.1601 16.5869 39.1267 16.7535C39.1267 16.7535 39.1134 16.8135 39.1134 16.8402C39.0934 16.9402 39.0801 17.0335 39.0601 17.1335C39.0467 17.2069 39.0334 17.2735 39.0201 17.3469C38.9867 17.5335 38.9534 17.7269 38.9201 17.9135C38.8867 18.1135 38.8467 18.3135 38.8134 18.5069L38.6334 19.5069C38.5667 19.8935 38.4934 20.2802 38.4267 20.6602C38.3601 21.0335 38.2934 21.4002 38.2267 21.7735C38.2001 21.9335 38.1734 22.0869 38.1401 22.2469C38.1067 22.4335 38.0734 22.6202 38.0401 22.8002C38.0267 22.8669 38.0134 22.9335 38.0067 23.0069C37.9934 23.1002 37.9734 23.1935 37.9601 23.2869C37.9601 23.3135 37.9534 23.3402 37.9467 23.3669C37.9267 23.4802 37.9001 23.5935 37.8734 23.7069H20.9601C20.9401 23.8669 20.9134 24.0269 20.8934 24.1869C20.8801 24.2735 20.8667 24.3602 20.8467 24.4402C20.8467 24.4602 20.8401 24.4869 20.8334 24.5069C20.8201 24.5802 20.8067 24.6469 20.7934 24.7202C20.7867 24.7735 20.7734 24.8269 20.7667 24.8802C20.7401 25.0202 20.7134 25.1669 20.6934 25.3069C20.6667 25.4602 20.6401 25.6135 20.6134 25.7669C20.5601 26.0669 20.5067 26.3669 20.4534 26.6602C20.3934 27.0069 20.3267 27.3535 20.2667 27.7002C20.1467 28.3802 20.0267 29.0602 19.9067 29.7335C19.8201 30.2135 19.7334 30.7002 19.6467 31.1802C19.5267 31.8402 19.4134 32.4935 19.2934 33.1535C19.2667 33.3002 19.2401 33.4469 19.2134 33.5935C19.1601 33.9002 19.1067 34.2069 19.0467 34.5135C19.0267 34.6402 19.0001 34.7669 18.9801 34.8935C18.9534 35.0269 18.9334 35.1669 18.9067 35.3002C18.9001 35.3402 18.8934 35.3802 18.8867 35.4202C18.8334 35.7202 18.7801 36.0135 18.7201 36.3135H8.2334C8.2334 36.1402 8.2334 36.0135 8.26673 35.8469C8.2734 35.8002 8.28673 35.7602 8.2934 35.7135C8.30007 35.6669 8.3134 35.6202 8.32007 35.5669C8.32673 35.5135 8.34007 35.4669 8.34673 35.4135C8.3734 35.2735 8.40007 35.1269 8.42007 34.9869C8.44673 34.8335 8.4734 34.6802 8.50007 34.5269C8.54673 34.2602 8.5934 33.9935 8.64007 33.7269C8.72007 33.3002 8.7934 32.8669 8.8734 32.4402C8.90007 32.2935 8.92673 32.1469 8.9534 31.9935C8.9534 31.9535 8.96673 31.9202 8.9734 31.8802C9.02007 31.6135 9.06673 31.3469 9.1134 31.0802C9.30007 30.0469 9.48007 29.0202 9.66673 27.9869C9.66673 27.9535 9.68007 27.9202 9.68673 27.8802C9.74673 27.5269 9.8134 27.1735 9.8734 26.8202C10.0001 26.1002 10.1334 25.3735 10.2601 24.6535C10.2801 24.5402 10.3001 24.4335 10.3201 24.3202C10.5267 23.1669 10.7334 22.0135 10.9401 20.8602C10.9467 20.8202 10.9534 20.7802 10.9601 20.7402C11.0734 20.1135 11.1867 19.4802 11.3001 18.8535C11.6801 16.7202 12.0601 14.5935 12.4401 12.4602C12.4401 12.4335 12.4467 12.4069 12.4534 12.3802C12.5734 11.7269 12.6867 11.0669 12.8067 10.4135H12.8734C12.8734 10.4135 12.8734 10.3469 12.8867 10.3135C12.9667 9.77354 13.2267 9.24688 13.4601 8.76021C13.4734 8.73354 13.4867 8.70688 13.5001 8.68021C13.8801 7.90688 14.3734 7.20688 14.9601 6.58022C15.0267 6.50688 15.0934 6.43355 15.1534 6.36022C15.2401 6.25355 15.3401 6.16689 15.4467 6.07355C15.5334 6.00022 15.6134 5.92022 15.6934 5.84689C17.3867 4.30689 19.6467 3.58689 21.9067 3.59355V3.64689Z" fill="black"/>
</g>
</g>
</g>
</g>
</g>
</g>
</g>
</g>
</g>
</g>
</g>
</g>
</g>
<defs>
<clipPath id="clip0_23_28812">
<rect width="1821" height="100" fill="white" transform="translate(-1068.83)"/>
</clipPath>
<clipPath id="clip1_23_28812">
<rect width="85.3333" height="40" fill="white"/>
</clipPath>
</defs>
</svg>
