<svg width="78" height="40" viewBox="0 0 78 40" fill="none" xmlns="http://www.w3.org/2000/svg">
<rect width="78" height="40" fill="#1E1E1E"/>
<g id="Live Casino">
<rect width="1905" height="855" transform="translate(-746.812 -2014.78)" fill="white"/>
<rect width="1905" height="855" transform="translate(-746.812 -2014.78)" fill="#1D4268"/>
<g id="Background">
<rect width="1905" height="2392.78" transform="translate(-746.812 -2014.78)" fill="#1D4268"/>
<g id="Background_2">
<rect width="1905" height="1974.78" transform="translate(-746.812 -1918.78)" fill="#283858"/>
<g id="Container">
<g id="Container_2">
<g id="Background_3">
<rect x="-670.812" y="-76" width="1821" height="132" rx="8" fill="#205583"/>
<g id="Container_3" clip-path="url(#clip0_23_28812)">
<g id="Container_4">
<g id="Margin">
<g id="Container_5">
<g id="Link">
<g id="Picture &#226;&#134;&#146; Funky" opacity="0.8" clip-path="url(#clip1_23_28812)">
<g id="Funky_mono.svg">
<path id="Vector" d="M30.046 14.249V12.0851H38.3345V14.249H30.046ZM30.046 17.4949V15.331H38.3345V17.4949H32.2165V20.6162H30.0591V17.4949H30.046ZM39.0296 12.026H41.1804V18.4654H45.0427V12.026H47.1935V18.19L45.0427 20.6162H41.1804L39.0296 18.19V12.026ZM60.0394 16.1179L63.3378 12.0523H65.8951L62.3738 16.4457H62.4132L65.9345 20.6162H63.3771L60.0328 16.708V20.6162H57.882V12.1572H60.0394V16.1179ZM66.6427 11.9474H69.4427L71.6591 14.4588L73.7181 11.9933H76.5247L69.3115 20.6162H66.5181L70.3017 16.0851H70.2886L66.6427 11.9474ZM76.2951 22.0719V24.2228H70.282V25.4097H76.2951V28.1965L74.3542 30.6818H68.0525V28.5244H74.1443V27.5605H70.2755L68.0656 25.4949V24.0916L69.705 22.0719H76.2951ZM59.1476 22.0719V30.6818H67.0164V28.5244H61.2984V24.2162H67.0164V22.0654H59.1476V22.0719ZM67.0164 25.3375V27.4883H62.3345V25.3375H67.0164ZM52.905 27.4293L47.9607 22.4457V30.6752H50.1181V27.6719L52.8722 30.4457L55.9542 27.4424V30.6097H58.105V22.2949L52.905 27.4293ZM38.9706 21.9211L38.9968 24.99L39.0427 25.0359H39.0296V30.6752H41.1804V27.3965L44.0001 30.5179H47.0427L38.9771 21.9211H38.9706ZM38.0984 21.9933L36.2033 24.1506H32.2033V28.5244H35.8361V27.4097H34.7214L32.9771 25.2588H37.9869V30.6818H32.1968L30.046 28.0851V21.9933H38.0984ZM54.5443 12.0785H56.6951V20.6162H53.823L50.4591 17.4031V20.6162H48.3083V12.2949L54.5378 18.3015V12.0785H54.5443ZM1.17382 25.5933C-0.268801 22.4982 0.950872 20.4392 1.94104 19.6064C2.11153 19.4621 2.21645 19.2588 2.23612 19.0424C2.33448 18.0129 3.08202 15.8687 5.58038 13.2851C8.82629 9.92769 12.4394 9.65228 14.6624 9.48178C14.8591 9.47523 15.0427 9.46211 15.2132 9.44244C16.8197 9.31129 18.4263 8.07851 19.1476 7.37687C19.1935 7.33096 19.2787 7.36375 19.2787 7.42932V10.4064L19.3443 10.4457C19.5607 10.5703 20.1312 10.8916 20.9312 11.8752C20.9771 11.9277 20.9181 12.0064 20.8525 11.9867C11.8755 9.60637 8.59022 13.5211 6.99022 15.4359C6.92465 15.5015 6.87219 15.5736 6.81317 15.6457C5.85816 16.8137 5.19907 18.1948 4.89186 19.6719H5.57382C5.57382 17.1277 9.94104 12.4195 16.7935 12.4195C23.1935 12.4195 24.964 16.1244 25.8033 17.8752L25.9214 18.1244C25.9542 18.19 25.9935 18.2424 26.0394 18.2883C26.5227 18.7441 26.9 19.3003 27.1447 19.9178C27.3895 20.5354 27.4957 21.1991 27.4558 21.8621V21.9933C27.4558 22.6228 26.9968 23.4556 26.3279 24.5047C26.2772 24.5881 26.2479 24.6827 26.2427 24.7801C26.0656 27.1867 21.8033 32.5638 15.5869 32.5638C10.0787 32.5638 7.5935 29.2523 6.47218 27.7506L6.1312 27.3113C6.12035 27.296 6.10636 27.2832 6.09017 27.2738C6.07397 27.2644 6.05595 27.2586 6.03731 27.2567C6.01868 27.2549 5.99985 27.257 5.98211 27.263C5.96437 27.2691 5.94813 27.2788 5.93448 27.2916C5.35743 27.7506 3.00333 29.508 1.17382 25.5867V25.5933ZM12.5574 16.0851C11.3729 16.1463 10.2586 16.6656 9.44989 17.5332C8.64117 18.4009 8.20144 19.5489 8.2236 20.7348C8.2457 21.9207 8.72799 23.0515 9.56852 23.8883C10.409 24.7252 11.542 25.2025 12.7279 25.2195L12.7935 25.9211C12.9317 27.2451 13.5872 28.461 14.6173 29.3041C15.6475 30.1473 16.9689 30.5495 18.2941 30.4233C19.6193 30.2971 20.841 29.6527 21.6935 28.6302C22.546 27.6078 22.9601 26.29 22.846 24.9638L22.7673 24.1441C23.6536 23.6245 24.339 22.8214 24.7129 21.8645C25.0868 20.9075 25.1274 19.8525 24.8281 18.8696C24.5287 17.8868 23.907 17.0334 23.0631 16.4473C22.2193 15.8612 21.2026 15.5765 20.1771 15.6392L12.5574 16.0851ZM4.30169 23.0883C4.42628 23.7047 4.35415 24.2621 4.18366 24.6621C4.01317 25.0687 3.76399 25.2523 3.55415 25.2916C3.33776 25.3375 3.04268 25.2588 2.72792 24.9506C2.36067 24.5572 2.11674 24.0648 2.02628 23.5342C1.91126 23.0094 1.95229 22.4623 2.14431 21.9605C2.31481 21.5474 2.55743 21.3703 2.77382 21.3244C2.99022 21.2851 3.2853 21.3572 3.60005 21.6719C3.90825 21.9801 4.18366 22.4719 4.30169 23.0883ZM4.82628 23.0097C5.10825 24.4654 4.66891 25.7572 3.67874 25.9474C2.69513 26.1441 1.65251 25.1211 1.37054 23.6654C1.08202 22.2031 1.65251 20.8654 2.64923 20.6687C3.63284 20.4719 4.53776 21.5539 4.81972 23.0097H4.82628Z" fill="black"/>
<path id="Vector_2" d="M20.6164 23.4098C21.0517 23.411 21.4829 23.3246 21.8841 23.1559C22.2854 22.9871 22.6486 22.7393 22.9522 22.4273C23.2558 22.1153 23.4935 21.7454 23.6511 21.3397C23.8088 20.9339 23.8833 20.5006 23.8701 20.0654C23.8569 19.6303 23.7563 19.2023 23.5743 18.8069C23.3923 18.4114 23.1326 18.0566 22.8107 17.7635C22.4888 17.4705 22.1113 17.2452 21.7004 17.101C21.2897 16.9569 20.8541 16.8969 20.4197 16.9245L12.964 17.4163H12.8328L12.7935 17.4229C12.2452 17.4773 11.7197 17.6704 11.2667 17.984C10.8137 18.2977 10.4479 18.7214 10.2039 19.2155C9.95992 19.7095 9.84569 20.2575 9.87199 20.8079C9.89835 21.3583 10.0643 21.8929 10.3543 22.3614C10.6444 22.8299 11.0488 23.2168 11.5298 23.4858C12.0107 23.7547 12.5521 23.8969 13.1031 23.8987C13.6541 23.9006 14.1965 23.7622 14.6792 23.4966C15.162 23.2309 15.5691 22.8467 15.8623 22.3802L18.2296 22.3606C18.8197 23.0032 19.6722 23.4098 20.6164 23.4098ZM12.8132 18.4786L13.6525 18.413L13.7574 19.8557L15.2001 19.7507L15.2656 20.5901L13.823 20.7016L13.9279 22.1442L13.0886 22.2098L12.9771 20.7671L11.5345 20.872L11.4689 20.0327L12.9115 19.9212L12.8066 18.4786H12.8132ZM21.0886 17.8163L20.6558 17.8425L20.682 18.2622L20.2623 18.2884L20.2886 18.7212L20.7082 18.695L20.7345 19.1147L21.1673 19.0884L21.141 18.6688L21.5607 18.6425L21.5345 18.2098L21.1148 18.236L21.0886 17.8163ZM20.8132 20.4393L21.2525 20.4196L21.2787 20.8393L21.6984 20.813L21.7246 21.2458L21.305 21.272L21.3312 21.6917L20.8919 21.718L20.8656 21.2983L20.446 21.3245L20.4197 20.8917L20.8394 20.8655L20.8132 20.4458V20.4393ZM22.3869 19.0425L21.9541 19.0688L21.9804 19.4884L21.5607 19.5147L21.5869 19.9475L22.0066 19.9278L22.0328 20.3475L22.4656 20.3212L22.446 19.9016L22.8656 19.8753L22.8328 19.436L22.4132 19.4622L22.3935 19.0425H22.3869ZM19.5148 19.2196L19.9541 19.1934L19.9804 19.613L20.4001 19.5868L20.4263 20.0196L20.0066 20.0458L20.0328 20.4655L19.5935 20.4917L19.5673 20.072L19.1476 20.0983L19.1214 19.6655L19.541 19.6393L19.5148 19.2196Z" fill="black"/>
</g>
</g>
</g>
</g>
</g>
</g>
</g>
</g>
</g>
</g>
</g>
</g>
</g>
<defs>
<clipPath id="clip0_23_28812">
<rect width="1821" height="100" fill="white" transform="translate(-670.812 -60)"/>
</clipPath>
<clipPath id="clip1_23_28812">
<rect width="77.38" height="40" fill="white" transform="translate(-0.00146484)"/>
</clipPath>
</defs>
</svg>
