<svg width="86" height="40" viewBox="0 0 86 40" fill="none" xmlns="http://www.w3.org/2000/svg">
<rect width="86" height="40" fill="#1E1E1E"/>
<g id="Live Casino">
<rect width="1905" height="855" transform="translate(-742.833 -1954.78)" fill="white"/>
<rect width="1905" height="855" transform="translate(-742.833 -1954.78)" fill="#1D4268"/>
<g id="Background">
<rect width="1905" height="2392.78" transform="translate(-742.833 -1954.78)" fill="#1D4268"/>
<g id="Background_2">
<rect width="1905" height="1974.78" transform="translate(-742.833 -1858.78)" fill="#283858"/>
<g id="Container">
<g id="Container_2">
<g id="Background_3">
<rect x="-666.833" y="-16" width="1821" height="132" rx="8" fill="#205583"/>
<g id="Container_3" clip-path="url(#clip0_23_28812)">
<g id="Container_4">
<g id="Margin">
<g id="Container_5">
<g id="Link">
<g id="Picture &#226;&#134;&#146; GameBeat" opacity="0.8" clip-path="url(#clip1_23_28812)">
<g id="GameBeatmono.svg" clip-path="url(#clip2_23_28812)">
<path id="Vector" fill-rule="evenodd" clip-rule="evenodd" d="M73.6 13.6001H64.8667V9.80012H71.6667V6.86679H64.8667V3.53345H73.6V0.533447H61.4667V16.6001H73.6V13.6001Z" fill="black"/>
<path id="Vector_2" fill-rule="evenodd" clip-rule="evenodd" d="M51.0666 7.00012H50.4666L47.8666 0.533447H42.6666V16.6001H45.8V4.60012H46.4L49.0666 11.1335H52.4666L55.2 4.60012H55.7333V16.6001H58.9333V0.533447H53.7333L51.0666 7.00012Z" fill="black"/>
<path id="Vector_3" fill-rule="evenodd" clip-rule="evenodd" d="M30.3333 12.2668H36.3999L37.6666 16.6001H41.0666L35.9333 0.533447H30.7999L25.7333 16.6001H28.9999L30.2666 12.2668H30.3333ZM32.7999 3.73345H33.7999L35.4666 9.33346H31.1333L32.7999 3.73345Z" fill="black"/>
<path id="Vector_4" fill-rule="evenodd" clip-rule="evenodd" d="M18.0667 10.3999H21.8C21.8 12.4666 20.6 13.9333 18.2 13.9333C15.8 13.9333 13.9333 11.6666 13.9333 8.59992C13.9333 5.53327 15.3333 3.2666 18.2 3.2666C21.0667 3.2666 20.9333 3.93327 21.2667 5.13327H24.7333C24.1333 2.19993 21.8667 0.266602 18.2 0.266602C14.5333 0.266602 10.5333 3.73326 10.5333 8.59992C10.5333 13.4666 13.2 16.9333 18.2 16.9333C23.2 16.9333 25.1333 13.3333 25.1333 9.59992V7.73325H18.0667V10.4666V10.3999Z" fill="black"/>
<path id="Vector_5" fill-rule="evenodd" clip-rule="evenodd" d="M18.2666 30.7334H15.6V33.4667H18.2666C19.4 33.4667 20 33.0001 20 32.1334C20 31.2667 19.4 30.7334 18.2666 30.7334Z" fill="black"/>
<path id="Vector_6" fill-rule="evenodd" clip-rule="evenodd" d="M22.2667 20H13.2C11.7333 20 10.5333 21.2 10.5333 22.6667V37.0667C10.5333 38.5333 11.7333 39.7333 13.2 39.7333H22.2667C23.7333 39.7333 24.9333 38.5333 24.9333 37.0667V22.6667C24.9333 21.2 23.7333 20 22.2667 20ZM18.5333 35.4H13.2667V24.4667H18.4C20.8 24.4667 22 25.8 22 27.3333C22 28.8667 21.5333 29.1333 20.8667 29.4667V29.8667C21.6667 30.2 22.2667 31.0667 22.2667 32.2C22.2667 34 21.0667 35.3333 18.4667 35.3333L18.5333 35.4Z" fill="black"/>
<path id="Vector_7" fill-rule="evenodd" clip-rule="evenodd" d="M19.6667 27.5999C19.6667 26.7999 19.1333 26.3999 18.1333 26.3999H15.5333V28.7999H18.1333C19.1333 28.7999 19.6667 28.3999 19.6667 27.5999Z" fill="black"/>
<path id="Vector_8" fill-rule="evenodd" clip-rule="evenodd" d="M38.9333 20H36.6667V20.8667H32.2667V23.4667H38.0667V25.5334H30.0667V19.8667H29.6C28.1333 19.8667 26.9333 21.0667 26.9333 22.5334V36.9334C26.9333 38.4 28.1333 39.6 29.6 39.6H30.0667V28.4H37.9333V30.4667H32.2667V32.8H36.6667V34.8667H32.2667V37.4667H38.0667V39.5334H38.8667C40.3333 39.5334 41.5333 38.3334 41.5333 36.8667V22.4667C41.5333 21 40.3333 19.8 38.8667 19.8L38.9333 20Z" fill="black"/>
<path id="Vector_9" fill-rule="evenodd" clip-rule="evenodd" d="M50.5334 26.5334L49.3334 30.4668H52.3334L51.2 26.5334H50.5334Z" fill="black"/>
<path id="Vector_10" fill-rule="evenodd" clip-rule="evenodd" d="M55.4667 20H46.1333C44.6667 20 43.4667 21.2 43.4667 22.6667V37.0667C43.4667 38.5333 44.6667 39.7333 46.1333 39.7333H55.4667C56.9333 39.7333 58.1333 38.5333 58.1333 37.0667V22.6667C58.1333 21.2 56.9333 20 55.4667 20ZM53.8667 35.5333L52.9333 32.5333H48.7333L47.8 35.5333H45.5333L49.0667 24.3333H52.6667L56.2 35.5333H53.8667Z" fill="black"/>
<path id="Vector_11" fill-rule="evenodd" clip-rule="evenodd" d="M72.2667 20V22.0667H68.8001V31.2H66.4667V22.0667H63.0001V20H62.8667C61.4667 20 60.2667 21.1333 60.2667 22.6V37.2C60.2667 38.6 61.4001 39.8 62.8667 39.8H66.5334V36.2667H63.0667V34.2H72.4001V36.2667H68.9334V39.8H72.4667C73.8667 39.8 75.0667 38.6667 75.0667 37.2V22.6C75.0667 21.2 73.9334 20 72.4667 20H72.2667Z" fill="black"/>
</g>
</g>
</g>
</g>
</g>
</g>
</g>
</g>
</g>
</g>
</g>
</g>
</g>
<defs>
<clipPath id="clip0_23_28812">
<rect width="1821" height="100" fill="white" transform="translate(-666.833)"/>
</clipPath>
<clipPath id="clip1_23_28812">
<rect width="85.3333" height="40" fill="white"/>
</clipPath>
<clipPath id="clip2_23_28812">
<rect width="85.3333" height="40" fill="white"/>
</clipPath>
</defs>
</svg>
