<svg width="86" height="40" viewBox="0 0 86 40" fill="none" xmlns="http://www.w3.org/2000/svg">
<rect width="86" height="40" fill="#1E1E1E"/>
<g id="Live Casino">
<rect width="1905" height="855" transform="translate(-541.833 -2014.78)" fill="white"/>
<rect width="1905" height="855" transform="translate(-541.833 -2014.78)" fill="#1D4268"/>
<g id="Background">
<rect width="1905" height="2392.78" transform="translate(-541.833 -2014.78)" fill="#1D4268"/>
<g id="Background_2">
<rect width="1905" height="1974.78" transform="translate(-541.833 -1918.78)" fill="#283858"/>
<g id="Container">
<g id="Container_2">
<g id="Background_3">
<rect x="-465.833" y="-76" width="1821" height="132" rx="8" fill="#205583"/>
<g id="Container_3" clip-path="url(#clip0_23_28812)">
<g id="Container_4">
<g id="Margin">
<g id="Container_5">
<g id="Link">
<g id="Picture &#226;&#134;&#146; iMoon" opacity="0.8" clip-path="url(#clip1_23_28812)">
<g id="iMoonmono.svg" clip-path="url(#clip2_23_28812)">
<path id="Vector" fill-rule="evenodd" clip-rule="evenodd" d="M22.86 2.15325C22.2933 2.31992 22.4267 3.03992 22.9333 2.92659C23.1467 2.87992 23.2933 2.69325 23.2933 2.47325C23.2933 2.28659 23.1267 2.13325 22.94 2.14659C22.9133 2.14659 22.8867 2.14659 22.86 2.15325ZM67.5 25.3466C66.3267 25.3466 65.94 25.7333 65.94 26.9066C65.94 25.7333 65.5533 25.3466 64.38 25.3466C65.5533 25.3466 65.94 24.9599 65.94 23.7866C65.94 24.9666 66.3267 25.3466 67.5 25.3466ZM68.18 22.9799C67.5467 22.9799 67.34 23.1933 67.34 23.8199C67.34 23.1866 67.1267 22.9799 66.5 22.9799C67.1267 22.9799 67.34 22.7666 67.34 22.1399C67.34 22.7733 67.5533 22.9799 68.18 22.9799ZM62.1733 20.8333C61.4533 20.8333 61.22 21.0666 61.22 21.7866C61.22 21.0666 60.9867 20.8333 60.2667 20.8333C60.9867 20.8333 61.22 20.5866 61.22 19.8799C61.22 20.5799 61.4533 20.8333 62.1733 20.8333ZM62.98 19.2933C62.5133 19.2933 62.3533 19.4466 62.3533 19.9133C62.3533 19.4466 62.2 19.2933 61.7333 19.2933C62.2 19.2933 62.3533 19.1399 62.3533 18.6666C62.3533 19.1399 62.5133 19.2866 62.98 19.2933ZM71.3933 19.1466C70.76 20.0133 70.3 20.9999 69.92 22.0666C69.44 23.3399 68.6267 26.1799 69.54 27.4533C70.22 28.4333 71.4333 28.8933 72.5867 28.5999C73.4267 28.3999 73.1467 27.8866 73.2467 27.0533C73.4267 25.8066 73.7533 24.7666 74.1867 23.5999C74.58 22.5666 75.0333 21.5533 75.56 20.5733C75.7933 20.0933 76.06 19.6266 76.3467 19.1733C76.5267 18.9199 77.1067 18.0066 77.44 18.1066C77.5667 18.4133 77.1867 19.2733 77.1133 19.5533C75.9933 22.6199 74.7733 27.1199 75.2333 30.3733C75.3867 31.5399 75.6133 32.2799 76.1733 33.1199C76.6267 33.7533 77.42 34.4666 78.38 34.5933C79.5267 34.7199 80.3333 34.3933 81.2267 33.8066C81.9667 33.2999 82.6 32.7399 83.0267 31.9733L83.0533 31.9266V31.7399C82.9267 31.6599 82.7733 31.6599 82.6 31.6333C81.5333 31.3999 80.8467 30.9733 80.1867 30.1133C78.6867 28.1333 78.8933 24.9066 79.1733 22.5466C79.3267 21.2266 79.6067 20.0066 79.9133 18.7599C80.1467 17.8733 80.9067 15.7333 80.2933 15.0999C80.04 14.9333 79.7533 14.8399 79.4533 14.8266C79.1067 14.7999 78.7667 14.8399 78.44 14.9533C77.9133 15.1399 77.4133 15.4066 76.9667 15.7399C76.3333 16.1933 75.7733 16.7799 75.24 17.3666C75.06 17.5666 74.9133 17.7733 74.7067 17.9733C74.38 18.3799 74.0467 18.8399 73.74 19.2666C73.56 19.5199 73.4333 19.6999 73.2867 19.9266C73.2067 20.0799 72.9333 20.5333 72.8333 20.6133C72.8333 20.3066 72.88 19.8999 72.86 19.5466C72.8133 19.2399 72.78 18.9133 72.66 18.6599C72.3067 18.0266 71.62 18.8933 71.4067 19.1466H71.3933ZM63.9 21.4933L63.6667 21.1933L63.2467 21.7333L64.0667 22.6666L64.84 21.9999H64.7933C64.44 21.9599 64.1133 21.7799 63.8933 21.4933H63.9ZM63.7333 19.4133L62.4733 20.7266C62.3867 20.8199 62.3867 20.9666 62.48 21.0533C62.5333 21.0999 62.6 21.1266 62.6733 21.1199L63.7333 20.9533L64.2067 21.4733L64.3267 21.5933C64.4933 21.7866 64.7533 21.8599 65 21.8066L65.1933 21.7599L64.5133 22.8666C64.4467 22.9799 64.4867 23.1199 64.6 23.1866C64.6733 23.2266 64.76 23.2266 64.8333 23.1866L65.96 22.4866C66.2267 22.3266 66.4133 22.0599 66.48 21.7533L66.6333 21.0799L65.8133 21.3999C68.3067 19.8933 70.6067 18.3199 70.72 16.1399C70.4133 16.1533 70.0933 16.1866 69.7867 16.2333C69.3333 16.3133 68.8867 16.4333 68.4533 16.6066C68.56 16.9533 68.7267 17.2666 68.9467 17.5466C69.08 17.7266 69.2333 17.8799 69.4133 18.0133C69.22 17.9066 69.04 17.7799 68.8733 17.6466C68.5667 17.3999 68.3067 17.0999 68.1 16.7599L67.9333 16.8466L67.8467 16.8933C66.6267 17.5399 65.4867 18.6133 64.4467 20.2199L64.92 19.2999L63.7333 19.4199V19.4133ZM66.3867 19.9799C66.1733 19.8933 65.9867 19.7666 65.9333 19.6066C66.24 19.6666 66.56 19.6666 66.8733 19.6066C66.92 19.6066 66.9733 19.5866 67.02 19.5799C67.7733 19.4066 68.36 18.9466 68.6067 18.3866C68.6533 18.4599 68.6733 18.5466 68.6733 18.6399C68.6667 19.2066 67.48 19.9999 66.9133 20.0666C66.7333 20.0733 66.56 20.0466 66.3933 19.9799H66.3867ZM66.96 19.4666C66.6067 19.5533 66.24 19.5599 65.8867 19.4933C65.8733 19.4599 65.8667 19.4266 65.8667 19.3866C65.86 18.6666 67.26 17.5133 67.9133 17.6666C68.08 17.6999 68.3133 17.9199 68.46 18.1466C68.4867 18.1933 68.5133 18.2333 68.5467 18.2799C68.3133 18.7999 67.7733 19.2466 67.0867 19.4466C67.04 19.4599 67 19.4733 66.9667 19.4733L66.96 19.4666ZM61.4733 26.2399C61.4733 26.2399 61.44 26.2866 61.42 26.3066V26.3199C61.42 26.3199 61.3867 26.3799 61.3667 26.4066C61.2667 26.5266 61.1333 26.6199 60.98 26.6599C60.9733 26.6599 60.9733 26.6599 60.9733 26.6666H60.9533L60.8333 26.6866C60.6267 26.6999 60.4333 26.6199 60.2933 26.4666C60.4533 26.5599 60.64 26.5866 60.8133 26.5533C60.9867 26.5266 61.14 26.4333 61.2467 26.2999C61.2933 26.2399 61.3333 26.1799 61.3533 26.1066C61.3867 26.0199 61.4 25.9266 61.4 25.8266C61.3933 25.6466 61.32 25.4733 61.2 25.3333C61.34 25.4133 61.4533 25.5466 61.5 25.6999C61.64 25.8399 61.82 25.9466 62.0133 25.9999C62.2667 26.0666 62.5267 26.0399 62.7533 25.9133C62.9867 25.7933 63.16 25.5933 63.2467 25.3533C63.34 25.0999 63.3333 24.8199 63.2467 24.5666C63.4067 24.8066 63.4533 25.1066 63.38 25.3866C63.3 25.6733 63.1067 25.9199 62.84 26.0599C62.5733 26.1999 62.2667 26.2199 61.9867 26.1266C61.8067 26.0599 61.66 25.9533 61.54 25.8066C61.56 25.9466 61.54 26.0933 61.4933 26.2266C61.4933 26.2266 61.4933 26.2399 61.5067 26.2399H61.5H61.4733ZM57.7133 28.1866C57.5267 28.2466 57.3267 28.2399 57.1467 28.1733C56.9667 28.0999 56.8133 27.9733 56.7067 27.8066C56.6 27.6199 56.5467 27.3999 56.5733 27.1799C56.42 27.3933 56.38 27.6733 56.4733 27.9133C56.6533 28.4066 57.1933 28.6599 57.6733 28.4799C57.72 28.4666 57.7667 28.4399 57.8067 28.4199C58.04 28.2999 58.1867 28.0666 58.2267 27.8133C58.1067 27.9866 57.92 28.1199 57.7133 28.1799V28.1866ZM55.0067 22.3333C54.9733 22.7866 54.4733 23.0399 53.9333 23.9266C53.9333 23.9399 53.9333 23.9533 53.94 23.9599C53.94 23.9599 53.9533 23.9599 53.96 23.9599C54.18 23.8466 54.7467 23.5933 54.46 23.9599C54.24 24.2533 54.0733 24.5866 53.9533 24.9333C53.9533 24.9599 53.98 24.9799 53.9933 24.9533C54.1067 24.8133 54.2733 24.7199 54.4467 24.6999H54.5333C54.5333 24.6999 54.48 24.7133 54.3867 24.9133C53.7267 25.8133 53.58 26.5066 53.5333 26.9933C53.5333 27.0066 53.5467 27.0199 53.56 27.0199C53.5667 27.0199 53.5733 27.0199 53.58 27.0133C53.7667 26.6799 54.2867 26.3599 54.4867 26.3866C54.5133 26.3866 54.5467 26.4066 54.5533 26.4333C54.6667 26.7733 54.4467 27.2399 54.2467 27.5799C54.1933 27.6666 54.14 27.7333 54.1 27.7999C54.1 27.8133 54.08 27.8199 54.0733 27.8333L53.9667 27.9799C54 27.9399 54.0333 27.9066 54.0733 27.8733C54.1267 27.8133 54.1933 27.7466 54.2733 27.6799C54.3733 27.5799 54.54 27.5866 54.6333 27.6866C54.68 27.7333 54.7 27.7999 54.7 27.8666C54.7133 29.0599 53.26 29.8666 52.3267 30.5533C52.32 30.5599 52.3133 30.5799 52.3267 30.5933C52.3267 30.5999 52.34 30.5999 52.3533 30.5999C53.1067 30.3266 54.02 29.6266 54.8133 29.7266C54.8267 29.7266 54.8467 29.7333 54.86 29.7333C55.1133 29.7799 55.2733 30.0199 55.2267 30.2733C55.22 30.3333 55.1933 30.3933 55.16 30.4399C55.1467 30.4733 55.12 30.4999 55.0933 30.5266L54.4733 31.0999C54.4733 31.0999 54.4733 31.1533 54.4933 31.1466C54.9 30.9599 55.3467 30.8733 55.8 30.8933C56.2067 30.9133 56.6133 31.0066 56.98 31.1799C57.14 31.2466 57.3067 31.2999 57.48 31.3399C57.5067 31.3466 57.5467 31.3533 57.58 31.3599C57.3133 31.4133 57.06 31.5199 56.84 31.6799C56.8 31.7133 56.7533 31.7466 56.72 31.7666C56.5867 31.8533 56.28 32.1666 55.46 32.2799C55.62 32.3199 55.7933 32.3399 55.96 32.3333C56.46 32.3266 56.9533 32.2333 57.4267 32.0666L57.7467 31.9599C58.9267 31.5399 60.0267 30.9333 61.3667 31.1466C61.3933 31.1466 61.3933 31.1866 61.3667 31.1933C60.74 31.3933 59.98 31.4399 59.42 31.8533C59.26 31.9733 59.12 32.1133 59.0133 32.2866C58.9933 32.3199 58.9667 32.3533 58.9467 32.3933C60.1267 31.7733 61.3 31.4933 62.4333 31.1666C62.6467 31.0866 62.8533 31.0133 63.06 30.9333C64.4667 30.3866 65.7733 29.6733 66.6667 28.4999C66.92 28.1666 67.1333 27.8066 67.3 27.4266C67.3 27.4199 67.3 27.3999 67.2933 27.3999C67.2867 27.3999 67.2733 27.3999 67.2667 27.3999C65.1267 28.3866 63.0333 27.7333 61.4867 26.2333C61.52 26.1933 61.5533 26.1533 61.58 26.1133C61.72 26.2066 61.8667 26.2666 62.0333 26.2933C62.7667 26.4466 63.4933 25.9666 63.6467 25.2333C63.6467 25.1866 63.66 25.1533 63.6667 25.1266C63.7333 24.5133 63.3933 23.9266 62.82 23.6866L63.96 22.7533L63.1467 21.8333L62.1133 22.9733C61.9 22.4266 61.28 22.1666 60.74 22.3866C60.4867 22.4866 60.2733 22.6933 60.1667 22.9399C60.1333 23.0066 60.1067 23.0866 60.0867 23.1599C60.04 23.4066 60.08 23.6533 60.2 23.8799C60.1333 23.8799 60.0667 23.8933 60 23.9066C59.36 21.8066 60.12 19.5266 61.8933 18.2266C62.24 17.9799 62.6067 17.7733 63 17.6199C63.0133 17.6199 63.02 17.5999 63.0133 17.5866C63.0133 17.5866 63.0067 17.5799 63 17.5733C61.64 16.9533 57.4733 18.4599 56.1533 20.0533C56.14 20.0666 56.1533 20.0999 56.1867 20.0866C56.3267 20.0199 56.5867 19.8866 56.82 19.7999C56.8467 19.7866 56.8667 19.8266 56.8467 19.8399C56.06 20.4266 55.72 20.9333 54.96 21.9799C54.7667 22.2133 54.5933 22.4533 54.4467 22.7199L54.9867 22.3133C54.9867 22.3133 55.0333 22.3133 55.0267 22.3333V22.3066L55.0067 22.3333ZM60.2 23.3733C60.2867 22.9599 60.6867 22.6933 61.1 22.7733C61.1267 22.7733 61.1533 22.7866 61.1867 22.7933C61.38 22.8533 61.5467 23.0066 61.62 23.1933C61.5 23.0466 61.34 22.9466 61.1533 22.9199C60.98 22.8866 60.8067 22.9199 60.6533 23.0066C60.5 23.0933 60.3867 23.2399 60.3267 23.4066C60.2733 23.5866 60.28 23.7799 60.3467 23.9533C60.2067 23.7933 60.16 23.5799 60.2067 23.3733H60.2ZM62.28 23.7933C62.38 23.7866 62.48 23.8066 62.5667 23.8599C62.6067 23.8866 62.64 23.9199 62.6733 23.9533C62.7733 24.0599 62.82 24.2066 62.8067 24.3533C62.8 24.4933 62.72 24.6199 62.5933 24.6866C62.7267 24.4933 62.7067 24.2333 62.5467 24.0599C62.5133 24.0266 62.4733 23.9933 62.4267 23.9733C62.2667 23.8866 62.0733 23.8933 61.92 23.9866C61.9933 23.8599 62.1267 23.7866 62.2733 23.7866L62.28 23.7933ZM55.82 23.7333C56.6067 22.9199 58.1333 23.1266 58.1333 24.5466C57.5 23.4266 56 24.2199 56.18 25.3599C56.2267 25.6866 56.5067 25.8399 56.8133 25.9666C56.52 26.0133 56.2133 25.9599 55.9467 25.8133C54.9867 25.2799 55.5133 24.0866 55.82 23.7266V23.7333ZM59.3333 24.4533C59.4933 24.2866 59.6933 24.1799 59.9067 24.1333C59.9533 24.1199 59.9933 24.1133 60.04 24.1133C60.2867 24.0933 60.5267 24.1666 60.72 24.3133C60.52 24.2266 60.3 24.1933 60.0867 24.2266H60.04C60.0067 24.2466 59.9733 24.2533 59.9333 24.2599C59.9067 24.2599 59.8733 24.2733 59.8467 24.2866L59.76 24.3333C59.6467 24.3933 59.5467 24.4666 59.4533 24.5666C59.4133 24.6133 59.38 24.6666 59.3467 24.7199C59.2133 24.9399 59.1667 25.2066 59.2133 25.4599C59.2467 25.6466 59.3333 25.8199 59.4533 25.9599C59.44 25.9066 59.44 25.8466 59.4533 25.7933C59.46 25.6533 59.54 25.5266 59.6667 25.4599C59.5067 25.6799 59.56 25.9866 59.78 26.1399C59.94 26.2599 60.16 26.2599 60.3267 26.1533C60.2533 26.2733 60.12 26.3466 59.98 26.3466C59.9333 26.3466 59.8933 26.3466 59.86 26.3466C59.8267 26.3466 59.7933 26.3333 59.76 26.3133C59.6933 26.2866 59.6333 26.2466 59.5867 26.1933C59.5467 26.1466 59.5133 26.0933 59.4867 26.0399C59.2933 25.9066 59.1533 25.7133 59.0867 25.4933C59.04 25.3533 59.0333 25.1999 59.0533 25.0466C59.0533 25.0199 59.06 24.9933 59.0667 24.9666C59.0933 24.8466 59.1333 24.7333 59.2 24.6333C59.2333 24.5666 59.28 24.5133 59.3267 24.4533H59.3333ZM56.72 26.7533C57.1933 26.4133 57.86 26.5266 58.2 27.0066C58.54 27.4799 58.4267 28.1466 57.9467 28.4866C57.4733 28.8199 56.82 28.7133 56.4733 28.2399C56.1267 27.7666 56.24 27.1066 56.72 26.7599V26.7533ZM58.2333 31.2799C58.4133 31.2333 59.08 31.0666 59.38 30.9933C59.4067 30.9866 59.42 31.0266 59.4 31.0399C59.1067 31.2333 58.38 31.6999 58.16 31.5733C57.9733 31.5266 57.6267 31.6799 57.46 31.8399C57.6667 31.5866 57.9333 31.3866 58.2333 31.2799ZM62.74 28.3999C62.8733 28.3666 63.02 28.3733 63.1467 28.4266C63.62 28.6199 63.4333 29.1999 63.3133 29.3799C62.9933 29.7999 62.28 29.7799 62.2067 29.1266C62.56 29.6133 63.2067 29.1733 63.0733 28.6533C63.0267 28.5066 62.8933 28.4533 62.7467 28.4066L62.74 28.3999ZM62.9533 27.7999C63.0133 27.7466 63.04 27.6666 63.02 27.5866C63.0667 27.6533 63.0867 27.7266 63.0867 27.7999C63.08 28.0866 62.74 28.0933 62.6267 28.0666C62.3533 27.9799 62.2267 27.6066 62.5467 27.4399C62.36 27.7066 62.72 27.9666 62.9533 27.7999ZM59.3733 20.4933C59.12 20.8733 58.6333 20.6133 58.5 20.4733C58.1933 20.1133 58.3267 19.4866 58.92 19.5333C58.4267 19.7599 58.7067 20.4133 59.1867 20.3799C59.3267 20.3733 59.4 20.2599 59.46 20.1333C59.4733 20.2666 59.44 20.3866 59.3667 20.4933H59.3733ZM58.6733 18.7066C58.3533 18.9466 58.1267 19.4799 57.0467 19.5933C57.02 19.5933 57 19.5666 57.0267 19.5466C57.24 19.3599 57.9667 18.7399 58.6533 18.6599C58.68 18.6599 58.6933 18.6933 58.6733 18.7066ZM56.5533 21.8133C56.5067 21.7466 56.54 21.6533 56.62 21.5933C56.6667 21.5266 56.7533 21.5066 56.8133 21.5466C56.88 21.5933 56.9 21.6799 56.86 21.7399C56.84 21.7666 56.8133 21.7866 56.7867 21.7999C56.7 21.8666 56.5933 21.8666 56.5533 21.8066V21.8133ZM59.06 25.0333V25.0199C59.06 25.0199 59.06 25.0266 59.06 25.0333ZM60.3867 28.3666C60.26 28.2666 60.2333 28.0866 60.3267 27.9599C60.4 27.8133 60.58 27.7599 60.7267 27.8333C60.7267 27.8333 60.7267 27.8333 60.7333 27.8333C60.8533 27.9333 60.88 28.1199 60.78 28.2533C60.68 28.3933 60.4933 28.4466 60.38 28.3666H60.3867ZM58.6267 22.3866C58.4467 22.5333 58.2067 22.5333 58.08 22.3866C57.96 22.2399 58 21.9999 58.18 21.8533C58.36 21.7066 58.6 21.6999 58.72 21.8533C58.84 22.0066 58.8067 22.2466 58.6333 22.3866H58.6267ZM42.38 19.1799C41.88 19.9133 41.48 20.7199 41.1867 21.5666C40.7533 22.9933 40.6533 24.1066 40.6533 25.5066L40.78 26.7266C40.8267 27.1133 40.9 27.4933 41.0133 27.8733C41.4933 29.7533 42.64 32.1133 44.9733 32.1133L45.6533 32.0666C46.4133 31.9399 47.08 31.6133 47.76 31.2533C49 30.5733 50.0733 29.6199 50.88 28.4599C52.1 26.8333 53.1933 24.2399 53.3667 22.1066C53.4133 21.3666 53.4733 20.8866 53.34 20.1266C53.1867 19.0333 52.6267 17.9933 51.56 17.6399C50.9733 17.4399 50.1133 17.5333 49.58 17.8399C48.6667 18.3733 48.26 19.9199 48.1533 20.9933C48.0733 21.8599 48.3867 22.8999 48.6867 23.5066C48.8667 23.8266 49.0733 24.1266 49.32 24.3933C49.5533 24.6733 49.9533 24.8733 50.26 24.9799C50.0467 25.4266 49.7867 25.8466 49.4733 26.2333C48.6867 27.3199 47.2133 28.6999 45.6667 28.6466L45.3867 28.6199C45.58 27.9466 45.9 27.3199 46.3267 26.7666C46.48 26.5866 46.6333 26.4399 46.76 26.2599C47.1667 25.7533 47.88 25.0666 48.3333 24.5799C48.38 24.4999 48.5133 24.3999 48.5333 24.2999C48.3533 24.3466 47.6933 24.9066 47.54 25.0399C47.0867 25.4466 46.14 26.2599 45.5867 26.5399C45.1533 26.7733 44.5733 26.7199 44.3467 26.3599C44.6267 25.8533 45.1867 25.0399 45.54 24.5266C45.5867 24.4466 45.6933 24.3466 45.6933 24.2466C45.5867 24.2933 45.3867 24.5999 45.2867 24.6799C45.1467 24.8333 44.98 24.9599 44.8067 25.0599C44.2733 25.3666 44.0667 25.3133 43.4067 25.3866C43.28 24.9333 43.4533 23.3533 43.56 22.8999C43.64 22.4666 43.74 22.1133 43.84 21.7333C44.4 19.9799 45.4667 18.5799 47.1933 17.8999C47.46 17.7866 47.74 17.7133 48.0333 17.6666C48.34 17.5866 49.0467 17.7466 49.0467 17.4333C49.02 17.2333 48.0067 16.1933 47.0933 16.1933C46.5333 16.1933 46.4067 16.1666 45.82 16.3466C45.18 16.5399 44.58 16.8599 44.0667 17.2866C43.3533 17.9199 42.92 18.3266 42.36 19.1933H42.3667L42.38 19.1799ZM50.1533 23.6799C49.9 22.9199 49.8267 20.6533 50.3533 20.3999C50.6333 20.2466 50.86 20.8066 50.94 21.0599C51.1733 21.6933 51.1733 22.7066 51.0933 23.3733C51.0867 23.5533 51.0467 23.7333 50.9867 23.9066C50.94 24.0599 50.86 24.2599 50.7533 24.3133C50.4467 24.4666 50.22 23.9333 50.1467 23.6799H50.1533ZM25.7733 12.5066C24.6533 12.5866 20.8 18.6266 20.16 19.8466C19.1067 21.7933 14.8 30.4333 16.6733 33.5066C17.14 34.1999 17.8333 34.7066 18.6267 34.9533C19.06 35.0799 20.18 35.1533 20.5333 34.7999C20.7867 34.5199 20.66 34.0399 20.66 33.6333V32.7866C20.6667 31.0333 20.8 29.2866 21.0667 27.5533C21.1467 27.0199 21.6 24.1733 21.8267 23.8199C21.8133 24.0399 21.7867 24.2599 21.7467 24.4799C21.64 26.1599 21.4667 27.6533 21.64 29.3533C21.72 29.7866 21.7467 30.2199 21.82 30.6466C21.9 31.0533 21.9733 31.4599 22.0733 31.8399C22.2733 32.5533 22.5533 33.3399 22.96 33.8533C24.56 35.8066 26.7467 35.4266 28.3467 33.8533C28.72 33.4866 29.0133 33.0399 29.2133 32.5599C30 30.7266 30.4867 29.0533 31.1933 27.2799C31.7267 25.9133 32.34 24.5866 33.0267 23.2933C33.8667 21.6133 35.8467 18.5933 37.0133 17.0933L37.6467 16.3066C37.6067 16.3799 37.1867 17.3666 37.04 17.6999C36.6333 18.6666 36.3 19.6799 35.9467 20.6733C35.4467 22.2666 35.06 23.8999 34.78 25.5533C34.6533 26.3933 34.5 27.4333 34.4733 28.2999C34.4733 28.4533 34.4467 28.5799 34.4467 28.7799C34.4467 28.9599 34.42 29.0333 34.42 29.2333C34.42 31.6999 34.5733 34.0599 35.4867 36.2466C36.0467 37.5399 37.06 38.8599 38.28 39.5199C38.5333 39.6466 38.7333 39.7199 38.9933 39.8266C39.1267 39.8599 39.26 39.8866 39.4 39.9066L39.8333 39.9866H40.5733L40.6533 39.9599H40.7333C40.7733 39.9399 40.82 39.9333 40.86 39.9333L41.6467 39.7533C42.5133 39.4266 43.2933 38.9066 43.9333 38.2333C44.7133 37.4399 45.6533 36.2533 45.78 34.9999C45.8067 34.7199 45.86 34.6933 45.6533 34.5199C45.1467 34.0399 44.56 35.7933 42.3267 34.7733C41.2067 34.2666 40.3733 33.1999 39.94 32.0799C38.9467 29.3866 38.8467 26.3399 39.2533 23.0399C39.56 20.6066 40.3733 17.2199 41.2333 14.8599C41.5867 13.8933 42.1467 12.6533 42.1467 11.6133C42.1467 11.4333 42.2733 11.2333 41.9667 10.9533C41.28 10.3199 39.8067 11.0799 39.1467 11.4866C37.3933 12.5266 36.1467 13.8266 34.7 15.2933C34.2933 15.7266 33.6133 16.5399 33.2267 16.9933C32.4667 17.9599 31.7533 18.9199 31.04 19.9133C29.3133 22.4133 27.64 25.3733 26.62 28.1933C26.4933 28.5999 26.0867 29.7933 26.0867 30.2066C24.6133 29.7266 24.5867 24.1066 24.74 22.7666C25.12 19.2599 25.96 16.9466 27 13.7466C27.08 13.4666 27.2333 13.0866 27.08 12.8333C26.8 12.3933 26.2133 12.4733 25.7533 12.5066H25.7733ZM21.4333 11.2333C18.64 11.6666 14.2467 14.1533 11.9333 15.8066C10.8467 16.5466 7.77333 19.1066 7.77333 20.5533C7.77333 21.1399 7.74667 21.2666 8.05333 21.8733C8.17333 22.1399 8.32667 22.3866 8.50667 22.6133C8.78 22.9333 9.34 23.4933 9.8 23.6733C10.2067 23.7999 10.36 23.6266 10.54 23.3466C11.1267 22.3799 11.78 21.4533 12.4867 20.5733C12.7933 20.1933 16.12 16.5333 16.6 16.3799C16.5733 16.4599 15.5867 17.8266 15.5067 17.9333C15.1533 18.4399 14.7667 18.9733 14.44 19.5066C12.8667 21.9199 10.78 25.8266 10.0733 28.6999C9.92 29.2866 9.74667 30.1266 9.72 30.6799C9.69333 31.3933 9.74667 31.9999 10.0467 32.6066C10.4867 33.5133 11.3067 34.1733 12.28 34.4066C12.7333 34.5133 13.78 34.6599 14.06 34.2066C14.1667 34.0066 14.14 34.0066 14.1667 33.7266L14.2467 32.6866C14.2733 31.9733 14.6 29.9666 14.7533 29.2333C15.2 27.1599 15.8067 25.1266 16.5733 23.1399C17.9467 19.6866 19.42 17.1133 21.5067 14.1533C21.6867 13.8733 22.8533 12.3533 23.1333 12.0733C23.2133 11.9933 23.46 11.9933 23.3133 11.6199C23.1333 11.2399 22.5 11.1866 22.12 11.1866C22.0133 11.1866 21.92 11.2133 21.7933 11.2133C21.68 11.2133 21.56 11.2333 21.4333 11.2399V11.2333ZM13.1267 10.9066C12.6533 11.1133 12.2067 11.3066 11.7533 11.4933C12.68 12.0199 13.7333 12.2999 14.8 12.2999C14.9667 12.2999 15.1467 12.2933 15.3 12.2799C17.5733 12.0999 19.56 10.6666 20.4533 8.56661C20.5733 8.29328 20.6667 8.00661 20.7467 7.71995C20.8067 7.48661 20.8533 7.25995 20.8867 7.01995C20.8933 6.97995 20.8933 6.93328 20.9067 6.89328C19.5067 7.71995 17.94 8.56661 16.2933 9.39995C15.4067 9.83995 14.54 10.2666 13.6867 10.6399C13.5 10.7266 13.3133 10.8066 13.1267 10.8933V10.9066ZM16.2933 11.4733C15.8533 11.5066 15.4533 11.0533 15.8267 10.6266C15.72 11.1199 16.3667 11.2799 16.6133 10.8999C16.68 10.7933 16.64 10.6666 16.5867 10.5533C16.6867 10.6199 16.76 10.7133 16.8 10.8266C16.94 11.2266 16.4733 11.4399 16.2867 11.4666H16.2933V11.4733ZM17.78 10.2133C17.78 10.1466 17.8267 10.0866 17.9 10.0866H17.9067C17.9733 10.0866 18.0333 10.1399 18.0333 10.2133C18.0333 10.2799 17.98 10.3399 17.9067 10.3399C17.84 10.3399 17.78 10.2866 17.78 10.2133ZM7.79333 11.2399C6.89333 11.3333 6.66667 12.5399 7.11333 12.8399C7.31333 12.9866 7.56 13.0533 7.81333 13.0266C8.68 12.9333 8.94 11.7866 8.47333 11.4399C8.27333 11.2999 8.03333 11.2266 7.79333 11.2399ZM8.29333 7.86661C4.35334 10.2933 1.89334 12.4399 2.31334 13.2733C2.32001 13.2999 2.34001 13.3333 2.36001 13.3533C2.77334 13.8666 4.46667 13.6599 6.89333 12.9133C6.66667 12.7066 6.53334 12.4199 6.51334 12.1066C5.47334 12.2533 4.80001 12.1666 4.60667 11.7866C4.28667 11.1333 5.58667 9.76661 7.86667 8.15328C8.00667 8.05995 8.14 7.95995 8.28667 7.86661H8.29333ZM7.64 6.33325C7.66 5.85992 7.20667 5.74659 7.00667 5.79992C6.64667 5.89325 6.47334 6.09992 6.44001 6.45992C6.39334 6.63325 6.46667 6.80661 6.62667 6.89328C6.76667 6.98661 6.93333 7.01995 7.1 6.98661C7.40667 6.91995 7.63333 6.65325 7.64 6.33325ZM20.26 1.96659C22.9467 1.07992 24.8667 0.859921 25.2 1.51325C25.58 2.25325 23.84 3.94659 20.9467 5.82659V5.79325C20.7533 2.39992 17.8467 -0.193415 14.46 0.013252C11.0733 0.213252 8.48 3.11325 8.68 6.49992C8.78 8.19328 9.56667 9.76661 10.8667 10.8533L10.88 10.8666H10.8867C10.16 11.1533 9.48 11.3799 8.84 11.5733C8.90667 11.7199 8.94 11.8799 8.94 12.0466C8.94 12.1133 8.93333 12.1666 8.92 12.2333C9.69333 11.9399 10.5267 11.6133 11.3867 11.2533C12.8867 10.6266 14.4867 9.89328 16.1267 9.06661C17.86 8.19995 19.4867 7.31328 20.9467 6.45325C25.2467 3.89325 28.0533 1.57325 27.7933 0.633252C27.7867 0.593252 27.7733 0.573252 27.7667 0.546585C27.3467 -0.300081 24.1467 0.386585 19.8267 2.09992C19.9667 2.05325 20.1 2.01325 20.24 1.95992C20.24 1.95992 20.2467 1.95769 20.26 1.95325V1.96659ZM15.06 5.11992C14.92 5.11992 14.8067 5.00659 14.8067 4.86659C14.8133 4.71992 14.94 4.61325 15.08 4.61992C15.2067 4.62659 15.3133 4.72659 15.32 4.85992C15.32 4.99992 15.2067 5.11325 15.0667 5.11325L15.06 5.11992ZM18.9867 4.77992C18.92 4.54659 18.7 4.45992 18.4533 4.39992C18.6667 4.33325 18.8933 4.34659 19.0933 4.42659C19.8467 4.71325 19.5867 5.64659 19.4 5.93325C18.9067 6.60659 17.7733 6.61325 17.6333 5.57325C18.2133 6.31325 19.2267 5.59325 18.98 4.77992H18.9867ZM13.5 8.54661C13.5 8.40661 13.62 8.29328 13.7533 8.29328C13.8933 8.29328 14.0067 8.40661 14.0067 8.54661C14.0067 8.68661 13.8933 8.79995 13.7533 8.80661C13.6133 8.80661 13.5 8.69328 13.5 8.55328V8.54661ZM11.0133 4.86659C11.0133 4.93325 10.9533 4.99325 10.8867 4.99325C10.82 4.99325 10.76 4.93325 10.76 4.86659C10.76 4.79992 10.82 4.73992 10.8867 4.73992C10.9533 4.73992 11.0067 4.78659 11.0133 4.85992V4.86659ZM10.3667 6.47992C10.8067 6.02659 11.66 6.13992 11.66 6.93328C11.3067 6.30659 10.4667 6.74661 10.5667 7.38661C10.5933 7.57328 10.7533 7.65328 10.92 7.72661C10.7533 7.75328 10.5867 7.72661 10.44 7.63995C9.90667 7.33995 10.2 6.67328 10.3733 6.47325L10.3667 6.47992ZM12.5 3.03992C12.2267 3.03992 12.0067 2.81992 12.0067 2.54659C12.0067 2.27325 12.2267 2.05325 12.5 2.05325C12.7733 2.05325 12.9933 2.27325 12.9933 2.54659C12.9933 2.81992 12.78 3.03325 12.5133 3.03992H12.5067H12.5ZM15.6133 2.41325C15.5333 2.25992 15.5067 2.08659 15.5267 1.91992C15.6333 1.30659 16.3667 1.36659 16.6133 1.45992C17.2 1.72659 17.3733 2.57992 16.6133 2.84659C17.0867 2.29992 16.3867 1.64659 15.8133 1.95325C15.6467 2.03992 15.62 2.21992 15.6 2.40659L15.6133 2.41325Z" fill="black"/>
<path id="Vector_2" fill-rule="evenodd" clip-rule="evenodd" d="M22.8599 2.15325C22.2933 2.31992 22.4266 3.03992 22.9333 2.92659C23.1466 2.87992 23.2933 2.69325 23.2933 2.47325C23.2933 2.28659 23.1266 2.13325 22.9399 2.14659C22.9133 2.14659 22.8866 2.14659 22.8599 2.15325ZM13.1333 10.9133C12.6599 11.1199 12.2133 11.3133 11.7599 11.4999C12.6866 12.0266 13.7399 12.3066 14.8066 12.3066C14.9733 12.3066 15.1533 12.2999 15.3066 12.2866C17.5799 12.1066 19.5666 10.6733 20.4599 8.57328C20.5799 8.29995 20.6733 8.01328 20.7533 7.72661C20.8133 7.49328 20.8599 7.26661 20.8933 7.02661C20.8999 6.98661 20.8999 6.93995 20.9133 6.89995C19.5133 7.72661 17.9466 8.57328 16.2999 9.40662C15.4133 9.84661 14.5466 10.2733 13.6933 10.6466C13.5066 10.7333 13.3199 10.8133 13.1333 10.8999V10.9133ZM16.2999 11.4799C15.8599 11.5133 15.4599 11.0599 15.8333 10.6333C15.7266 11.1266 16.3733 11.2866 16.6199 10.9066C16.6866 10.7999 16.6466 10.6733 16.5933 10.5599C16.6933 10.6266 16.7666 10.7199 16.8066 10.8333C16.9466 11.2333 16.4799 11.4466 16.2933 11.4733H16.2999V11.4799ZM17.7866 10.2199C17.7866 10.1533 17.8333 10.0933 17.9066 10.0933H17.9133C17.9799 10.0933 18.0399 10.1466 18.0399 10.2199C18.0399 10.2866 17.9866 10.3466 17.9133 10.3466C17.8466 10.3466 17.7866 10.2933 17.7866 10.2199ZM7.79994 11.2466C6.89994 11.3399 6.67327 12.5466 7.11994 12.8466C7.31994 12.9933 7.56661 13.0599 7.81994 13.0333C8.68661 12.9399 8.94661 11.7933 8.47994 11.4466C8.27994 11.3066 8.03994 11.2333 7.79994 11.2466ZM8.29994 7.87328C4.35993 10.2999 1.89993 12.4466 2.31993 13.2799C2.3266 13.3066 2.3466 13.3399 2.3666 13.3599C2.77993 13.8733 4.47327 13.6666 6.89994 12.9199C6.67327 12.7133 6.53993 12.4266 6.51993 12.1133C5.47993 12.2599 4.8066 12.1733 4.61327 11.7933C4.29327 11.1399 5.59327 9.77328 7.87327 8.15995C8.01327 8.06662 8.14661 7.96662 8.29327 7.87328H8.29994ZM7.64661 6.33992C7.66661 5.86659 7.21327 5.75325 7.01327 5.80659C6.65327 5.89992 6.47993 6.10659 6.4466 6.46659C6.39993 6.63992 6.47327 6.81328 6.63327 6.89995C6.77327 6.99328 6.93994 7.02662 7.10661 6.99328C7.41327 6.92662 7.63994 6.65992 7.64661 6.33992ZM20.2599 1.96659C22.9466 1.07992 24.8666 0.859921 25.1999 1.51325C25.5799 2.25325 23.8399 3.94659 20.9466 5.82659V5.79325C20.7533 2.39992 17.8466 -0.193415 14.4599 0.013252C11.0733 0.213252 8.47994 3.11325 8.67994 6.49992C8.77994 8.19328 9.56661 9.76661 10.8666 10.8533L10.8799 10.8666H10.8866C10.1599 11.1533 9.47994 11.3799 8.83994 11.5733C8.90661 11.7199 8.93994 11.8799 8.93994 12.0466C8.93994 12.1133 8.93327 12.1666 8.91994 12.2333C9.69327 11.9399 10.5266 11.6133 11.3866 11.2533C12.8866 10.6266 14.4866 9.89328 16.1266 9.06662C17.8599 8.19995 19.4866 7.31328 20.9466 6.45325C25.2466 3.89325 28.0533 1.57325 27.7933 0.633252C27.7866 0.593252 27.7733 0.573252 27.7666 0.546585C27.3466 -0.300081 24.1466 0.386585 19.8266 2.09992C19.9666 2.05325 20.0999 2.01325 20.2399 1.95992C20.2399 1.95992 20.2466 1.95769 20.2599 1.95325V1.96659ZM15.0599 5.11992C14.9199 5.11992 14.8066 5.00659 14.8066 4.86659C14.8133 4.71992 14.9399 4.61326 15.0799 4.61992C15.2066 4.62659 15.3133 4.72659 15.3199 4.85992C15.3199 4.99992 15.2066 5.11326 15.0666 5.11326L15.0599 5.11992ZM18.9866 4.77992C18.9199 4.54659 18.6999 4.45992 18.4533 4.39992C18.6666 4.33325 18.8933 4.34659 19.0933 4.42659C19.8466 4.71325 19.5866 5.64659 19.3999 5.93326C18.9066 6.60659 17.7733 6.61326 17.6333 5.57326C18.2133 6.31326 19.2266 5.59326 18.9799 4.77992H18.9866ZM13.4999 8.54662C13.4999 8.40662 13.6199 8.29328 13.7533 8.29328C13.8933 8.29328 14.0066 8.40662 14.0066 8.54662C14.0066 8.68661 13.8933 8.79995 13.7533 8.80661C13.6133 8.80661 13.4999 8.69328 13.4999 8.55328V8.54662ZM11.0133 4.86659C11.0133 4.93325 10.9533 4.99325 10.8866 4.99325C10.8199 4.99325 10.7599 4.93325 10.7599 4.86659C10.7599 4.79992 10.8199 4.73992 10.8866 4.73992C10.9533 4.73992 11.0066 4.78659 11.0133 4.85992V4.86659ZM10.3666 6.47992C10.8066 6.02659 11.6599 6.13992 11.6599 6.93328C11.3066 6.30659 10.4666 6.74661 10.5666 7.38661C10.5933 7.57328 10.7533 7.65328 10.9199 7.72661C10.7533 7.75328 10.5866 7.72661 10.4399 7.63995C9.90661 7.33995 10.1999 6.67328 10.3733 6.47325L10.3666 6.47992ZM12.4999 3.03992C12.2266 3.03992 12.0066 2.81992 12.0066 2.54659C12.0066 2.27325 12.2266 2.05325 12.4999 2.05325C12.7733 2.05325 12.9933 2.27325 12.9933 2.54659C12.9933 2.81992 12.7799 3.03325 12.5133 3.03992H12.5066H12.4999ZM15.6133 2.41325C15.5333 2.25992 15.5066 2.08659 15.5266 1.91992C15.6333 1.30659 16.3666 1.36659 16.6133 1.45992C17.1999 1.72659 17.3733 2.57992 16.6133 2.84659C17.0866 2.29992 16.3866 1.64659 15.8133 1.95325C15.6466 2.03992 15.6199 2.21992 15.5999 2.40659L15.6133 2.41325Z" fill="black"/>
</g>
</g>
</g>
</g>
</g>
</g>
</g>
</g>
</g>
</g>
</g>
</g>
</g>
<defs>
<clipPath id="clip0_23_28812">
<rect width="1821" height="100" fill="white" transform="translate(-465.833 -60)"/>
</clipPath>
<clipPath id="clip1_23_28812">
<rect width="85.3333" height="40" fill="white"/>
</clipPath>
<clipPath id="clip2_23_28812">
<rect width="85.3333" height="40" fill="white"/>
</clipPath>
</defs>
</svg>
