<svg width="86" height="40" viewBox="0 0 86 40" fill="none" xmlns="http://www.w3.org/2000/svg">
<rect width="86" height="40" fill="#1E1E1E"/>
<g id="Live Casino">
<rect width="1905" height="855" transform="translate(-1345.83 -2014.78)" fill="white"/>
<rect width="1905" height="855" transform="translate(-1345.83 -2014.78)" fill="#1D4268"/>
<g id="Background">
<rect width="1905" height="2392.78" transform="translate(-1345.83 -2014.78)" fill="#1D4268"/>
<g id="Background_2">
<rect width="1905" height="1974.78" transform="translate(-1345.83 -1918.78)" fill="#283858"/>
<g id="Container">
<g id="Container_2">
<g id="Background_3">
<rect x="-1269.83" y="-76" width="1821" height="132" rx="8" fill="#205583"/>
<g id="Container_3" clip-path="url(#clip0_23_28812)">
<g id="Container_4">
<g id="Margin">
<g id="Container_5">
<g id="Link">
<g id="Picture &#226;&#134;&#146; The Hood" opacity="0.8" clip-path="url(#clip1_23_28812)">
<g id="Hood_mono-01.svg" clip-path="url(#clip2_23_28812)">
<path id="Vector" d="M13.68 8.33335H14.6666V9.72002H15.5733V6.10669H14.6666V7.46668H13.68V6.10669H12.7733V9.72002H13.68V8.33335Z" fill="black"/>
<path id="Vector_2" d="M24.8667 15.0066C25.0067 14.4332 25.2067 13.8932 25.4667 13.3999V11.6599H20.0801V18.4132H16.0667V11.6599H10.6801V29.4532H16.0667V22.6999H20.0801V29.4532H25.4667V22.3066C25.4667 22.3066 25.4601 22.2799 25.4534 22.2666C24.5401 19.6399 24.3601 17.0599 24.8667 14.9999V15.0066Z" fill="black"/>
<path id="Vector_3" d="M11.5799 9.72002V6.97335H12.4732V6.10669H9.77991V6.97335H10.6732V9.72002H11.5799Z" fill="black"/>
<path id="Vector_4" d="M18.2 8.84668H16.9334V8.34002H17.9734V7.47335H16.9334V6.97335H18.2V6.10669H16.02V9.71335H18.2V8.84668Z" fill="black"/>
<path id="Vector_5" d="M75.5667 16.2065C74.7867 14.8598 73.72 13.7732 72.36 12.9798C71 12.1732 69.5267 11.7732 67.9133 11.7532H63.9733C64.26 14.5065 63.8933 17.5665 62.8133 20.6665C62.4 21.8532 61.9 22.9932 61.3267 24.0732V29.5465H67.9067C69.52 29.5332 70.9867 29.1132 72.3533 28.3198C73.7 27.5265 74.7667 26.4598 75.56 25.0932C76.3533 23.7332 76.74 22.2598 76.74 20.6465C76.74 19.0332 76.34 17.5465 75.56 16.1998L75.5667 16.2065ZM71.14 23.9065C70.2533 24.8132 69.1667 25.2532 67.92 25.2532H66.7267V16.0532H67.92C69.1667 16.0532 70.24 16.4998 71.14 17.3998C72.04 18.2998 72.4867 19.3865 72.4867 20.6532C72.4867 21.9198 72.0267 22.9998 71.14 23.9065Z" fill="black"/>
<path id="Vector_6" d="M38.5133 34.72C34.8599 33.74 33.7466 32.1466 32.9466 33.2266C32.3466 34.0333 32.8066 37.0466 35.0933 38.4666C38.9933 40.8866 43.0333 37.8 43.5799 35.7466C44.1266 33.6933 42.1733 35.7 38.5199 34.72H38.5133Z" fill="black"/>
<path id="Vector_7" d="M37.5667 10.22C37.7601 10.1467 37.9601 10.06 38.1667 9.95999C40.7734 8.72665 41.8534 5.69999 41.4401 2.84666C41.3801 2.41999 40.8134 2.31333 40.6001 2.69333L39.5734 4.55333C39.4001 4.85999 38.9801 4.91333 38.7401 4.65333L35.1401 0.80666C34.8267 0.473329 34.2734 0.673326 34.2467 1.13333L33.9334 6.47333C33.9134 6.81332 33.5734 7.04665 33.2467 6.93332L30.4867 5.97999C30.0667 5.83333 29.7001 6.29333 29.9267 6.67332C31.5134 9.39332 34.6201 11.3267 37.5667 10.2133V10.22Z" fill="black"/>
<path id="Vector_8" d="M55.5133 2.14659C50.9666 1.20659 45.8467 3.73992 42.1067 8.24658C39.2333 11.8733 37.28 16.2466 36.8933 21.0733C36.8667 21.3666 36.8467 21.6666 36.8333 21.9599C36.82 21.6599 36.8067 21.3599 36.8 21.0599C36.7667 19.9666 36.8133 18.8866 36.9333 17.8133C34.96 13.7933 31.58 11.1599 28.8267 11.7266C26.72 12.1599 25.5133 14.3533 25.4667 17.2599V17.2266C25.4667 17.2266 25.4667 17.2666 25.4667 17.2866C25.4667 17.3066 25.4667 17.3266 25.4667 17.3533C25.4667 17.3999 25.4667 17.4466 25.4667 17.4933C25.4667 17.5199 25.4667 17.5399 25.4667 17.5666C25.4667 17.5999 25.4667 17.6333 25.4667 17.6666V17.6333C25.4867 18.9799 25.7533 20.4666 26.2799 21.9866C28.0266 26.9999 31.9933 30.5399 35.1467 29.8932C35.8 29.7599 36.3666 29.4533 36.8399 29.0133C37.9199 27.8599 38.5867 26.0866 38.88 24.4132C38.9067 24.2599 38.9333 24.0999 38.9599 23.9399C38.9666 24.0999 38.9733 24.2666 38.98 24.4266C38.98 25.8066 38.88 27.3932 38.3267 28.7799C39.6267 31.3132 41.7533 33.1066 44.5467 33.6799C51.1533 35.0399 58.9599 29.0866 61.9933 20.3799C65.0199 11.6733 62.1199 3.50659 55.5199 2.14659H55.5133ZM32.92 24.4666C31.3867 24.4666 30.1399 23.2199 30.1399 21.6866C30.1399 20.1532 31.3867 18.9066 32.92 18.9066C34.4533 18.9066 35.6999 20.1532 35.6999 21.6866C35.6999 23.2199 34.4533 24.4666 32.92 24.4666ZM46.08 27.3932C42.9333 27.3932 40.38 24.8399 40.38 21.6933C40.38 18.5466 42.9333 15.9933 46.08 15.9933C49.2267 15.9933 51.7799 18.5466 51.7799 21.6933C51.7799 24.8399 49.2267 27.3932 46.08 27.3932Z" fill="black"/>
</g>
</g>
</g>
</g>
</g>
</g>
</g>
</g>
</g>
</g>
</g>
</g>
</g>
<defs>
<clipPath id="clip0_23_28812">
<rect width="1821" height="100" fill="white" transform="translate(-1269.83 -60)"/>
</clipPath>
<clipPath id="clip1_23_28812">
<rect width="85.3333" height="40" fill="white"/>
</clipPath>
<clipPath id="clip2_23_28812">
<rect width="85.3333" height="40" fill="white"/>
</clipPath>
</defs>
</svg>
