<svg width="86" height="40" viewBox="0 0 86 40" fill="none" xmlns="http://www.w3.org/2000/svg">
<rect width="86" height="40" fill="#1E1E1E"/>
<g id="Live Casino">
<rect width="1905" height="855" transform="translate(-1144.83 -2014.78)" fill="white"/>
<rect width="1905" height="855" transform="translate(-1144.83 -2014.78)" fill="#1D4268"/>
<g id="Background">
<rect width="1905" height="2392.78" transform="translate(-1144.83 -2014.78)" fill="#1D4268"/>
<g id="Background_2">
<rect width="1905" height="1974.78" transform="translate(-1144.83 -1918.78)" fill="#283858"/>
<g id="Container">
<g id="Container_2">
<g id="Background_3">
<rect x="-1068.83" y="-76" width="1821" height="132" rx="8" fill="#205583"/>
<g id="Container_3" clip-path="url(#clip0_23_28812)">
<g id="Container_4">
<g id="Margin">
<g id="Container_5">
<g id="Link">
<g id="Picture &#226;&#134;&#146; Tom Horn" opacity="0.8" clip-path="url(#clip1_23_28812)">
<g id="TomHorn_mono.svg" clip-path="url(#clip2_23_28812)">
<path id="Vector" d="M36.5978 15.4919H30.0443V17.513H32.2088V22.7868H34.4332V17.513H36.5978V15.4919Z" fill="#010101"/>
<path id="Vector_2" d="M44.4052 19.1632C44.4052 16.7356 42.9821 15.3723 40.6382 15.3723C38.2942 15.3723 36.8711 16.7356 36.8711 19.1632C36.8711 21.555 38.2942 22.8944 40.6382 22.8944C42.9821 22.8944 44.4052 21.555 44.4052 19.1632ZM40.6382 20.8973C39.7054 20.8973 39.1314 20.3232 39.1314 19.1632C39.1314 17.9554 39.7054 17.3694 40.6382 17.3694C41.5829 17.3694 42.145 17.9554 42.145 19.1632C42.145 20.3232 41.5829 20.8973 40.6382 20.8973Z" fill="#010101"/>
<path id="Vector_3" d="M53.7203 15.4919H51.2329L49.7619 19.0078C49.6782 19.2231 49.6184 19.4503 49.5825 19.5819C49.5467 19.4503 49.4869 19.2231 49.3912 19.0078L47.9322 15.4919H45.4566L45.1576 22.7868H47.3701L47.4539 19.3068V19.0078L48.9367 22.7868H50.2283L51.7351 19.0078V19.3666L51.7829 22.7868H54.0193L53.7203 15.4919Z" fill="#010101"/>
<path id="Vector_4" d="M59.7575 22.7868H61.9938V15.4919H59.7575V18.1109H57.4016V15.4919H55.1653V22.7868H57.4016V20.1439H59.7575V22.7868Z" fill="#010101"/>
<path id="Vector_5" d="M66.5132 15.3723C64.1692 15.3723 62.7461 16.7356 62.7461 19.1632C62.7461 21.555 64.1692 22.8944 66.5132 22.8944C68.8574 22.8944 70.28 21.555 70.28 19.1632C70.28 16.7356 68.8574 15.3723 66.5132 15.3723ZM66.5132 20.8973C65.5804 20.8973 65.0064 20.3232 65.0064 19.1632C65.0064 17.9554 65.5804 17.3694 66.5132 17.3694C67.458 17.3694 68.02 17.9554 68.02 19.1632C68.02 20.3232 67.458 20.8973 66.5132 20.8973Z" fill="#010101"/>
<path id="Vector_6" d="M77.4659 18.2544C77.4659 16.4845 76.2819 15.4919 74.1773 15.4919H71.0439V22.7868H73.2806V20.9571H73.9979L75.3373 22.7868H77.7173V22.5357L76.2699 20.5505C77.0353 20.1081 77.4659 19.3427 77.4659 18.2544ZM74.3206 19.1753H73.2806V17.3575H74.2013C74.8833 17.3575 75.2659 17.6804 75.2659 18.2544C75.2659 18.8404 74.9306 19.1753 74.3206 19.1753Z" fill="#010101"/>
<path id="Vector_7" d="M83.0966 15.4919V19.1872L80.358 15.4919H78.3373V22.7868H80.5733V19.0915L83.312 22.7868H85.3333V15.4919H83.0966Z" fill="#010101"/>
<path id="Vector_8" d="M33.0843 25.758C32.9574 25.586 32.782 25.4422 32.558 25.3267C32.334 25.2114 32.077 25.1536 31.7873 25.1536C31.4614 25.1536 31.1638 25.2341 30.8946 25.3947C30.6252 25.5553 30.4125 25.7806 30.2563 26.0704C30.1001 26.36 30.0221 26.6928 30.0221 27.0684C30.0221 27.4442 30.1001 27.7802 30.2563 28.0766C30.4125 28.373 30.6252 28.604 30.8946 28.7691C31.1638 28.9346 31.4614 29.0171 31.7873 29.0171C32.0726 29.0171 32.3272 28.957 32.5512 28.8372C32.7754 28.7173 32.9529 28.569 33.0843 28.3924V29.0171C33.0843 29.379 32.988 29.6552 32.7957 29.8454C32.6032 30.0353 32.351 30.1304 32.0386 30.1304C31.7715 30.1304 31.5418 30.0704 31.3494 29.9505C31.157 29.8306 31.0314 29.6732 30.9726 29.4786H30.2053C30.2506 29.8861 30.4406 30.2087 30.7756 30.4462C31.1106 30.684 31.5316 30.8027 32.0386 30.8027C32.4188 30.8027 32.7458 30.7258 33.0196 30.5718C33.2936 30.418 33.5028 30.2062 33.6478 29.9371C33.7926 29.6677 33.865 29.3611 33.865 29.0171V25.2148H33.0843V25.758ZM32.9247 27.7574C32.8182 27.9499 32.6791 28.096 32.5071 28.1954C32.335 28.295 32.1495 28.3448 31.9503 28.3448C31.7557 28.3448 31.5712 28.2939 31.397 28.192C31.2227 28.0903 31.0823 27.942 30.976 27.7472C30.8696 27.5527 30.8165 27.3264 30.8165 27.0684C30.8165 26.8104 30.8696 26.5875 30.976 26.3996C31.0823 26.2119 31.2216 26.0692 31.3935 25.9719C31.5655 25.8745 31.7512 25.8258 31.9503 25.8258C32.1495 25.8258 32.335 25.8756 32.5071 25.9753C32.6791 26.075 32.8182 26.2196 32.9247 26.4098C33.0309 26.5997 33.0843 26.8238 33.0843 27.082C33.0843 27.34 33.0309 27.5652 32.9247 27.7574Z" fill="#010101"/>
<path id="Vector_9" d="M38.9098 25.758C38.7784 25.586 38.603 25.4422 38.3835 25.3267C38.1639 25.2114 37.9071 25.1536 37.6129 25.1536C37.287 25.1536 36.9893 25.2341 36.7201 25.3947C36.4507 25.5553 36.238 25.7806 36.0819 26.0704C35.9257 26.36 35.8477 26.6928 35.8477 27.0684C35.8477 27.4442 35.9257 27.7802 36.0819 28.0766C36.238 28.373 36.4496 28.604 36.7167 28.7691C36.9837 28.9346 37.2779 29.0171 37.5993 29.0171C37.8889 29.0171 38.147 28.9582 38.3734 28.8406C38.5996 28.7227 38.7784 28.5758 38.9098 28.3992V28.9559H39.6905V25.2148H38.9098V25.758ZM38.7502 27.7574C38.6437 27.9499 38.5047 28.096 38.3327 28.1954C38.1605 28.295 37.9751 28.3448 37.7759 28.3448C37.5813 28.3448 37.3967 28.2939 37.2225 28.192C37.0483 28.0903 36.9079 27.942 36.8015 27.7472C36.6952 27.5527 36.6421 27.3264 36.6421 27.0684C36.6421 26.8104 36.6952 26.5875 36.8015 26.3996C36.9079 26.2119 37.0471 26.0692 37.2191 25.9719C37.3911 25.8745 37.5767 25.8258 37.7759 25.8258C37.9751 25.8258 38.1605 25.8756 38.3327 25.9753C38.5047 26.075 38.6437 26.2196 38.7502 26.4098C38.8565 26.5997 38.9098 26.8238 38.9098 27.082C38.9098 27.34 38.8565 27.5652 38.7502 27.7574Z" fill="#010101"/>
<path id="Vector_10" d="M47.2507 25.3369C47.0175 25.2148 46.7542 25.1536 46.4597 25.1536C46.1837 25.1536 45.9256 25.2204 45.6857 25.354C45.4458 25.4876 45.2692 25.6675 45.156 25.8938C45.0294 25.6538 44.8482 25.4704 44.6129 25.3438C44.3776 25.217 44.1106 25.1536 43.8117 25.1536C43.5899 25.1536 43.3818 25.1968 43.1872 25.2826C42.9924 25.3688 42.8316 25.4887 42.7051 25.6424V25.2148H41.931V28.9559H42.7051V26.8645C42.7051 26.5296 42.7899 26.2728 42.9596 26.094C43.1294 25.9152 43.3591 25.8258 43.6488 25.8258C43.9384 25.8258 44.167 25.9152 44.3346 26.094C44.502 26.2728 44.5858 26.5296 44.5858 26.8645V28.9559H45.3531V26.8645C45.3531 26.5296 45.438 26.2728 45.6077 26.094C45.7774 25.9152 46.0072 25.8258 46.2968 25.8258C46.5864 25.8258 46.8151 25.9152 46.9828 26.094C47.1499 26.2728 47.2339 26.5296 47.2339 26.8645V28.9559H48.001V26.7492C48.001 26.4098 47.9344 26.1202 47.8008 25.8802C47.6673 25.6402 47.4839 25.459 47.2507 25.3369Z" fill="#010101"/>
<path id="Vector_11" d="M50.9812 25.2148H50.207V28.956H50.9812V25.2148Z" fill="#010101"/>
<path id="Vector_12" d="M50.6009 23.7278C50.4605 23.7278 50.3429 23.7753 50.2478 23.8702C50.1527 23.9652 50.1055 24.0831 50.1055 24.2232C50.1055 24.3636 50.1527 24.4815 50.2478 24.5763C50.3429 24.6714 50.4605 24.7189 50.6009 24.7189C50.7367 24.7189 50.8523 24.6714 50.9471 24.5763C51.0423 24.4815 51.0898 24.3636 51.0898 24.2232C51.0898 24.0831 51.0423 23.9652 50.9471 23.8702C50.8523 23.7753 50.7367 23.7278 50.6009 23.7278Z" fill="#010101"/>
<path id="Vector_13" d="M55.9012 25.3369C55.668 25.2148 55.4043 25.1536 55.1102 25.1536C54.8883 25.1536 54.6791 25.1968 54.4821 25.2826C54.2853 25.3688 54.1233 25.4887 53.9966 25.6424V25.2148H53.2227V28.9559H53.9966V26.8645C53.9966 26.5296 54.0814 26.2728 54.2511 26.094C54.4209 25.9152 54.6506 25.8258 54.9405 25.8258C55.2301 25.8258 55.4587 25.9152 55.6261 26.094C55.7935 26.2728 55.8772 26.5296 55.8772 26.8645V28.9559H56.6446V26.7492C56.6446 26.4098 56.5789 26.1202 56.4475 25.8802C56.3163 25.6402 56.1341 25.459 55.9012 25.3369Z" fill="#010101"/>
<path id="Vector_14" d="M61.6544 25.758C61.5277 25.586 61.3523 25.4422 61.1282 25.3267C60.9041 25.2114 60.6473 25.1536 60.3575 25.1536C60.0317 25.1536 59.7339 25.2341 59.4648 25.3947C59.1955 25.5553 58.9827 25.7806 58.8265 26.0704C58.6704 26.36 58.5924 26.6928 58.5924 27.0684C58.5924 27.4442 58.6704 27.7802 58.8265 28.0766C58.9827 28.373 59.1955 28.604 59.4648 28.7691C59.7339 28.9346 60.0317 29.0171 60.3575 29.0171C60.6427 29.0171 60.8973 28.957 61.1214 28.8372C61.3455 28.7173 61.5231 28.569 61.6544 28.3924V29.0171C61.6544 29.379 61.5582 29.6552 61.3659 29.8454C61.1735 30.0353 60.9212 30.1304 60.6089 30.1304C60.3418 30.1304 60.112 30.0704 59.9195 29.9505C59.7273 29.8306 59.6015 29.6732 59.5428 29.4786H58.7755C58.8207 29.8861 59.0109 30.2087 59.3458 30.4462C59.6809 30.684 60.1017 30.8027 60.6089 30.8027C60.989 30.8027 61.3159 30.7258 61.5898 30.5718C61.8637 30.418 62.0729 30.2062 62.2179 29.9371C62.3628 29.6677 62.4351 29.3611 62.4351 29.0171V25.2148H61.6544V25.758ZM61.4949 27.7574C61.3885 27.9499 61.2492 28.096 61.0773 28.1954C60.9053 28.295 60.7196 28.3448 60.5206 28.3448C60.3259 28.3448 60.1413 28.2939 59.9671 28.192C59.7928 28.0903 59.6525 27.942 59.5463 27.7472C59.4397 27.5527 59.3868 27.3264 59.3868 27.0684C59.3868 26.8104 59.4397 26.5875 59.5463 26.3996C59.6525 26.2119 59.7917 26.0692 59.9637 25.9719C60.1357 25.8745 60.3213 25.8258 60.5206 25.8258C60.7196 25.8258 60.9053 25.8756 61.0773 25.9753C61.2492 26.075 61.3885 26.2196 61.4949 26.4098C61.6011 26.5997 61.6544 26.8238 61.6544 27.082C61.6544 27.34 61.6011 27.5652 61.4949 27.7574Z" fill="#010101"/>
<path id="Vector_15" d="M15.0039 14.8451C15.2163 14.9182 15.4225 15.0023 15.6222 15.0975C15.4492 14.7111 15.2725 14.325 15.0978 13.947C15.0714 14.2536 15.0386 14.5535 15.0039 14.8451Z" fill="#010101"/>
<path id="Vector_16" d="M17.5351 12.5923C17.6414 12.8179 17.7514 13.0511 17.8575 13.2833C18.4096 14.4904 18.9753 15.8007 19.5868 17.289C19.6206 17.3712 19.6566 17.4533 19.6925 17.5352L19.6998 17.5517C19.7823 17.7399 19.8662 17.9313 19.9395 18.1421C19.9473 18.1622 19.9637 18.2062 20.0053 18.3228L20.0061 18.3248C20.2538 18.1597 20.5381 18.0359 20.8633 17.9505L20.9762 17.9212C21.0571 17.9031 21.1286 17.8925 21.2009 17.8825C21.3457 17.8622 21.4846 17.848 21.6382 17.8378C21.8817 17.8191 22.1597 17.8218 22.4297 17.8476C22.6799 17.8688 22.8938 17.9013 23.0973 17.9493C23.5147 18.0479 23.9158 18.1847 24.2918 18.3555C23.7404 14.0002 22.6343 11.1873 22.6343 11.1873L16.8893 11.2327C17.0843 11.6391 17.2767 12.0437 17.4635 12.4403L17.5351 12.5923Z" fill="#010101"/>
<path id="Vector_17" d="M27.4182 22.8867C27.3002 22.4733 27.1386 22.0653 26.9383 21.6746C26.8716 21.5443 26.8004 21.4149 26.7247 21.2873C26.0682 20.1809 25.206 19.3681 24.1618 18.8717C23.7925 18.6962 23.3942 18.5575 22.9784 18.4593C22.8002 18.4173 22.6091 18.3885 22.3812 18.3692C22.2452 18.3562 22.1089 18.3495 21.9723 18.3495C21.8717 18.3495 21.7709 18.3533 21.6742 18.3606C21.5478 18.369 21.4214 18.3808 21.2748 18.4013C21.2148 18.4097 21.1549 18.4184 21.0917 18.4325L20.9975 18.4573C20.5152 18.5839 20.1472 18.8106 19.8727 19.1498C19.8548 19.172 19.8372 19.1946 19.8198 19.2183C19.7654 19.117 19.7094 19.0053 19.6572 18.8878C19.6227 18.8044 19.5604 18.6301 19.5134 18.4992C19.4823 18.4123 19.4569 18.3423 19.4495 18.324C19.3817 18.1277 19.3001 17.9419 19.2213 17.7621C19.1814 17.6711 19.1414 17.58 19.1036 17.4882C18.494 16.0046 17.9309 14.7005 17.3824 13.5012C17.2759 13.2681 17.1665 13.0363 17.0572 12.8044L16.9909 12.6636C16.729 12.1075 16.4642 11.5526 16.1968 10.9992L16.1362 10.8736C15.7573 10.0891 15.3782 9.30435 15.0128 8.51348C14.6982 7.83221 14.4431 7.26201 14.21 6.71948L14.124 6.52114C14.0662 6.38849 14.0082 6.25584 13.9536 6.12039C13.9445 6.09823 13.9372 6.07656 13.932 6.05439C13.92 6.00399 13.9228 5.96411 13.9414 5.91288C13.9519 5.88415 13.9612 5.85493 13.9762 5.80699C14.035 5.64299 14.1038 5.42365 14.1138 5.18281C14.1146 5.15934 14.1143 5.13685 14.1138 5.09744C14.1168 5.04671 14.1192 4.99599 14.118 4.94345C14.1172 4.9139 14.1149 4.88533 14.1098 4.82787L14.1058 4.77025C14.098 4.67027 14.0856 4.57291 14.0654 4.45832L14.0554 4.40349C14.036 4.30893 14.0115 4.21732 13.9803 4.11816C13.9783 4.11111 13.9664 4.07219 13.964 4.0653C13.9558 4.04166 13.9462 4.01884 13.936 3.99766C13.9094 3.92625 13.8816 3.85533 13.8408 3.77258C13.8365 3.76224 13.8266 3.74221 13.8266 3.74221C13.7792 3.6511 13.7263 3.56343 13.6672 3.47921C13.4883 3.22392 13.2558 3.00278 12.9762 2.82236C12.7871 2.69989 12.5844 2.62175 12.3746 2.59006C12.3043 2.57923 12.2342 2.57397 12.1649 2.57397C12.1308 2.57397 12.0968 2.57529 12.0631 2.57775C11.9612 2.58547 11.86 2.60467 11.7617 2.63505C11.3644 2.75949 11.0431 3.06649 10.88 3.47757C10.8016 3.6749 10.7565 3.88373 10.7458 4.10109C10.7437 4.11866 10.7419 4.14065 10.7416 4.15412C10.7368 4.37936 10.7726 4.60854 10.8478 4.8346C10.9044 5.00633 10.9771 5.17313 11.0694 5.34435C11.1503 5.49441 11.2434 5.64233 11.3702 5.81897C11.4046 5.86724 11.4391 5.91534 11.4652 5.94817C11.4711 5.95737 11.4875 5.98167 11.4942 5.99037C11.5688 6.08855 11.6356 6.18787 11.6934 6.28587C11.7212 6.33283 11.7454 6.38192 11.7699 6.43067L11.8379 6.56185C11.8526 6.58927 11.8676 6.61651 11.88 6.64345C11.88 6.64345 11.9341 6.75935 11.9503 6.79741C12.0426 7.01315 12.1245 7.23135 12.2025 7.44768C12.4673 8.19781 12.6562 9.00308 12.7804 9.90948C12.8324 10.2877 12.868 10.6595 12.9002 11.0077C13.0106 12.2067 12.8228 13.7187 12.5826 14.8927C11.0513 14.7087 10.3697 15.1496 10.0584 15.1389C10.0464 15.1379 9.97551 15.137 9.97551 15.137C9.87211 15.137 9.77044 15.1435 9.66937 15.1534C9.12924 15.2071 8.58677 15.4064 8.01124 15.7629C7.53677 16.0567 7.11024 16.4115 6.74397 16.8169C6.10667 17.5203 5.65193 18.3831 5.39255 19.3816C5.3848 19.4114 5.37883 19.4416 5.37155 19.4715L4.97927 18.9262C5.27051 17.9813 5.73171 17.154 6.35592 16.4652C6.75478 16.0235 7.21917 15.6373 7.73557 15.3176C8.38037 14.9182 8.99604 14.6939 9.61764 14.6321C9.74924 14.6193 9.86597 14.6132 9.97557 14.6132L9.98277 14.6133C10.0234 14.6138 10.0491 14.6144 10.0661 14.615C10.1054 14.6094 10.204 14.5814 10.2842 14.5587C10.6565 14.453 11.244 14.2865 12.1565 14.3309C12.2915 13.5705 12.4602 12.3495 12.3948 11.2684L2.68837 11.3452L0.130249 15.8907C3.86829 29.7154 13.2748 33.5266 17.9722 34.5753C17.9567 34.5507 17.9417 34.5255 17.9274 34.4997C17.6873 34.0717 17.6509 33.5237 17.8182 32.8285L17.8462 32.7136C17.8909 32.5312 17.982 32.1593 17.947 32.0393C17.8545 31.9496 17.6654 31.8592 17.4824 31.7717C17.2733 31.6715 17.0368 31.5581 16.8072 31.3944C16.4796 31.1609 16.1698 30.8667 15.8614 30.4962C15.7722 30.4201 15.6632 30.3249 15.556 30.2217L15.5496 30.2155C15.4181 30.0881 15.2875 29.9522 15.1504 29.7999L15.0714 29.7106C14.9284 29.5476 14.8072 29.4009 14.6992 29.2601C14.4527 28.9391 14.2316 28.6018 14.0422 28.2576C14.0368 28.2477 14.0314 28.2378 14.026 28.2279C14.0085 28.2334 13.9906 28.2387 13.9722 28.2435C13.5574 28.3547 13.1186 28.4192 12.6305 28.4408C12.6256 28.4411 12.6032 28.4413 12.5876 28.4415C12.508 28.4453 12.418 28.4473 12.3254 28.4483L12.2722 27.9251C12.3777 27.9246 12.4824 27.9223 12.5724 27.9179C12.5762 27.9179 12.6016 27.9179 12.6074 27.9175C13.0574 27.8977 13.4594 27.8387 13.8366 27.7376C14.0052 27.6925 14.1228 27.6011 14.1858 27.4662C14.1939 27.4491 14.2016 27.4299 14.2082 27.4089C14.2958 27.6113 14.3934 27.81 14.501 28.005C14.6777 28.326 14.8841 28.6409 15.1146 28.9411C15.2275 29.0882 15.3447 29.2279 15.4636 29.3635L15.5396 29.4494C15.6612 29.5845 15.7858 29.7152 15.9139 29.8391C15.9157 29.8409 15.9175 29.8426 15.9192 29.8442C16.022 29.9432 16.1283 30.036 16.2357 30.1269C16.5246 30.4789 16.8114 30.7542 17.1114 30.968C17.304 31.1054 17.5095 31.2039 17.7083 31.2991C17.9465 31.4131 18.1714 31.5209 18.324 31.6755C18.3545 31.7064 18.3796 31.7389 18.3994 31.7726C18.552 32.0347 18.4472 32.4615 18.355 32.8379L18.3274 32.951C18.1924 33.512 18.2122 33.9367 18.3863 34.2471C18.5216 34.4929 18.7455 34.6533 19.0338 34.7111C19.0911 34.7225 19.1482 34.728 19.2049 34.728C19.4496 34.728 19.6908 34.6252 19.8791 34.4463C19.8645 34.5252 19.8568 34.6043 19.8496 34.6833C19.841 34.7785 19.8335 34.8608 19.8105 34.9194C19.7627 35.0412 19.6877 35.167 19.6081 35.2999C19.47 35.5309 19.3136 35.7927 19.2578 36.1119C19.2175 36.3406 19.2507 36.5508 19.3543 36.7325C19.4462 36.8977 19.5822 37.0195 19.7028 37.1169C19.8776 37.258 20.1497 37.4265 20.4521 37.4265C20.6598 37.4265 20.8484 37.3483 20.998 37.2005C21.3255 36.876 21.3076 36.3961 21.2958 36.0786L21.2923 35.9721C21.2884 35.7917 21.2764 35.626 21.2559 35.4658C21.238 35.3275 21.2602 35.2011 21.3319 35.0291C21.4488 34.7488 21.5307 34.465 21.6098 34.1907C21.663 34.0061 21.716 33.8215 21.7802 33.6397C21.822 33.5217 21.9093 33.2826 21.9099 33.2808C21.9495 33.2902 21.994 33.2987 22.0498 33.3076C22.1026 33.3148 22.1554 33.3187 22.231 33.3187C22.2325 33.3187 22.2934 33.3166 22.2934 33.3166C22.3422 33.3153 22.391 33.3123 22.4397 33.3031C22.7999 33.236 23.074 32.9979 23.1847 32.6701C23.1901 32.6567 23.2011 32.6248 23.2049 32.6107C23.2204 32.5691 23.2333 32.5269 23.2407 32.4815C23.2525 32.4099 23.2582 32.3375 23.2635 32.2651C23.2676 32.2096 23.2704 32.1541 23.2819 32.0993C23.2988 32.0172 23.3351 31.9295 23.393 31.8307C23.5329 31.5917 23.7334 31.3656 23.9272 31.1467C24.1003 30.9512 24.3098 30.7378 24.5531 30.6359C24.62 30.6076 24.6792 30.5671 24.7294 30.515C24.7424 30.5061 24.755 30.4971 24.7678 30.4881C24.768 30.4906 24.7683 30.4929 24.7684 30.4953C24.778 30.5981 24.7602 30.7025 24.7072 30.8562C24.6458 31.0348 24.5429 31.3337 24.6784 31.6633C24.6793 31.6655 24.6803 31.668 24.6816 31.6703C24.8164 31.9829 25.1262 32.1765 25.4938 32.1765C25.5934 32.1765 25.6922 32.1618 25.787 32.1333C26.2045 32.0072 26.4836 31.6403 26.5527 31.1267C26.5903 30.8471 26.5834 30.5731 26.5766 30.3083C26.5734 30.1752 26.5698 30.0422 26.5729 29.9105C26.5839 29.4361 26.6312 29.0879 26.726 28.7814C26.7916 28.5695 26.8976 28.3641 27.0097 28.1467C27.0592 28.0511 27.1084 27.9556 27.1548 27.8586C27.2015 27.7612 27.247 27.6634 27.2856 27.5621C27.442 27.152 27.6832 25.1559 27.6726 24.6057C27.6616 24.0168 27.576 23.4386 27.4182 22.8867ZM4.17489 12.938H10.4186L5.19419 13.947L4.17489 17.2681V12.938ZM18.7226 21.0999C18.7268 21.1219 18.7317 21.1439 18.7364 21.1662C18.741 21.1885 18.7453 21.211 18.7486 21.2341C18.7553 21.2803 18.7573 21.3289 18.7474 21.3823C18.7296 21.3568 18.7203 21.3481 18.7169 21.3375C18.6696 21.1921 18.6154 21.0491 18.562 20.9059C18.6072 20.9691 18.6581 21.0333 18.7226 21.0999ZM14.4413 15.1383C14.5182 14.521 14.5954 13.8617 14.6234 13.184C14.6436 12.6997 14.6504 12.2187 14.644 11.748C14.73 11.9259 14.8153 12.1041 14.8988 12.2819C15.3027 13.1418 15.7607 14.1165 16.1927 15.0884C16.4298 15.6219 16.6454 16.1248 16.8428 16.6039C16.7732 16.5275 16.6986 16.4538 16.6192 16.3829C15.997 15.8273 15.2616 15.4361 14.4313 15.2187L14.4413 15.1383ZM16.5938 17.2681C16.3951 17.2438 16.0756 17.1213 15.5995 16.8009C15.2468 16.5636 14.9261 16.2858 14.7066 16.0503C14.9616 16.0421 15.3652 16.1503 15.7298 16.3833C16.0228 16.5705 16.3639 16.9447 16.5938 17.2681ZM12.9992 5.25221C12.6455 5.13876 12.2078 4.45473 11.8284 3.97062C11.3695 3.3852 12.034 3.06876 12.5878 3.19533C12.9417 3.27621 13.426 3.87751 13.5213 4.16049C13.6789 4.62796 13.4321 5.3911 12.9992 5.25221ZM13.5691 25.826C13.5691 25.826 12.7728 19.9817 17.577 19.1755C17.577 19.1755 13.7226 20.8569 13.5691 25.826ZM18.8521 34.0531C18.4916 33.5484 18.9419 32.9239 18.9676 32.1796C18.9932 31.4354 18.8264 31.2557 17.7229 30.6399C16.6194 30.0239 15.4774 28.4713 15.4774 28.4713C16.5296 29.562 17.4065 30.3856 18.018 30.6783C19.2242 31.2557 19.1779 31.4866 19.1857 31.9615C19.1986 32.7442 18.728 33.4117 18.9804 33.8605C19.0959 34.0659 19.3654 34.1172 19.6348 33.8349C19.8306 33.6299 19.3012 34.6818 18.8521 34.0531ZM20.424 36.6643C20.6934 36.5359 20.6966 36.8151 20.6421 36.8696C20.5523 36.9594 20.2035 37.1087 19.8594 36.6001C19.5642 36.1638 20.0839 35.5287 20.2572 35.2785C20.4304 35.0283 20.3983 34.7459 20.4368 34.3225C20.4753 33.8991 20.7191 33.7836 20.7576 32.9945C20.7912 32.3051 20.3487 31.7942 20.269 31.7087C20.2658 31.7055 20.2628 31.7022 20.2596 31.699C20.2534 31.6928 20.2574 31.6963 20.269 31.7087C20.6102 32.0537 20.7585 32.4088 20.8602 32.9046C20.9196 33.194 20.7092 33.779 20.5908 34.2263C20.4753 34.6625 20.5776 34.9287 20.4753 35.2015C20.3598 35.5094 19.962 35.7083 19.9364 36.2665C19.9226 36.565 20.2177 36.7625 20.424 36.6643ZM25.7143 31.6515C25.2812 31.844 25.069 31.4129 25.1556 31.1435C25.2422 30.874 25.2589 30.7202 25.2396 30.4411C25.2204 30.162 25.0379 29.8953 25.0379 29.8953C25.4437 30.0067 25.382 30.6073 25.382 30.809C25.382 31.0167 25.2751 31.4671 25.7024 31.3549C25.969 31.2849 26.0698 31.0087 26.0698 31.0087C26.0698 31.0087 26.1474 31.4591 25.7143 31.6515Z" fill="#010101"/>
</g>
</g>
</g>
</g>
</g>
</g>
</g>
</g>
</g>
</g>
</g>
</g>
</g>
<defs>
<clipPath id="clip0_23_28812">
<rect width="1821" height="100" fill="white" transform="translate(-1068.83 -60)"/>
</clipPath>
<clipPath id="clip1_23_28812">
<rect width="85.3333" height="40" fill="white"/>
</clipPath>
<clipPath id="clip2_23_28812">
<rect width="85.3333" height="40" fill="white"/>
</clipPath>
</defs>
</svg>
