<svg width="86" height="40" viewBox="0 0 86 40" fill="none" xmlns="http://www.w3.org/2000/svg">
<rect width="86" height="40" fill="#1E1E1E"/>
<g id="Live Casino">
<rect width="1905" height="855" transform="translate(-943.833 -1954.78)" fill="white"/>
<rect width="1905" height="855" transform="translate(-943.833 -1954.78)" fill="#1D4268"/>
<g id="Background">
<rect width="1905" height="2392.78" transform="translate(-943.833 -1954.78)" fill="#1D4268"/>
<g id="Background_2">
<rect width="1905" height="1974.78" transform="translate(-943.833 -1858.78)" fill="#283858"/>
<g id="Container">
<g id="Container_2">
<g id="Background_3">
<rect x="-867.833" y="-16" width="1821" height="132" rx="8" fill="#205583"/>
<g id="Container_3" clip-path="url(#clip0_23_28812)">
<g id="Container_4">
<g id="Margin">
<g id="Container_5">
<g id="Link">
<g id="Picture &#226;&#134;&#146; Turbo Games" opacity="0.8" clip-path="url(#clip1_23_28812)">
<g id="Turbogames-mono-01.svg" clip-path="url(#clip2_23_28812)">
<path id="Vector" fill-rule="evenodd" clip-rule="evenodd" d="M31.4696 33.6987C30.2988 33.6966 29.1764 33.2305 28.3485 32.4025C27.5206 31.5746 27.0544 30.4523 27.0523 29.2814V28.3846C27.0544 27.0464 27.5871 25.7636 28.5334 24.8173C29.4797 23.871 30.7625 23.3384 32.1007 23.3362H38.6936V26.4001H31.9762C31.1126 26.4001 30.4152 27.4049 30.4152 28.6503C30.4152 29.8958 31.1126 30.8922 31.9678 30.9005H35.7625V29.7547H33.7032V27.5128H38.6936V31.6727C38.6936 32.0049 38.5109 32.3038 38.2286 32.4533L36.1361 33.5825C35.9866 33.6655 35.8289 33.6987 35.6628 33.6987H31.4696ZM38.1123 8.96319H41.5914V17.2416H46.1998V8.97146H49.6788V17.5488C49.6788 19.2925 48.2672 20.7041 46.5236 20.7041H41.2759C40.4391 20.7041 39.6365 20.3716 39.0448 19.7799C38.4531 19.1882 38.1206 18.3856 38.1206 17.5488V8.96319H38.1123ZM27.0523 8.96319V12.3343H30.4732V20.7207H33.8942V12.3343H37.3152V8.97146H27.0523V8.96319ZM85.2834 14.8419C85.2834 16.3989 84.6647 17.8921 83.564 18.9929C82.4634 20.0939 80.97 20.7123 79.4127 20.7123C77.856 20.7123 76.3627 20.0939 75.262 18.9929C74.1614 17.8921 73.5427 16.3989 73.5427 14.8419C73.5427 13.285 74.1614 11.7918 75.262 10.6909C76.3627 9.58999 77.856 8.97146 79.4127 8.97146C80.97 8.97146 82.4634 9.58999 83.564 10.6909C84.6647 11.7918 85.2834 13.285 85.2834 14.8419ZM77.586 12.1184C77.614 12.0871 77.6474 12.0617 77.6854 12.0434C77.7227 12.0252 77.7634 12.0145 77.8054 12.0123C77.8467 12.01 77.8887 12.016 77.928 12.0299C77.9674 12.0439 78.0034 12.0655 78.0347 12.0935L79.4127 13.3307L80.7914 12.0935C80.924 11.9773 81.1234 11.9856 81.24 12.1184L82.3194 13.3224C82.4354 13.4553 82.4274 13.6545 82.294 13.7708L81.0987 14.8419L82.294 15.9131C82.4274 16.0293 82.4354 16.2286 82.3194 16.3531L81.24 17.5654C81.212 17.5967 81.1787 17.6222 81.1407 17.6405C81.1034 17.6587 81.0627 17.6693 81.0207 17.6716C80.9787 17.6739 80.9374 17.6679 80.898 17.6539C80.8587 17.64 80.822 17.6184 80.7914 17.5903L79.4127 16.3448L78.0347 17.5903C78.0034 17.6184 77.9674 17.64 77.928 17.6539C77.8887 17.6679 77.8467 17.6739 77.8054 17.6716C77.7634 17.6693 77.7227 17.6587 77.6854 17.6405C77.6474 17.6222 77.614 17.5967 77.586 17.5654L76.5067 16.3531C76.4527 16.291 76.4254 16.2102 76.43 16.128C76.434 16.0458 76.4707 15.9687 76.532 15.9131L77.7274 14.8336L76.532 13.7708C76.5007 13.7431 76.4747 13.7095 76.4567 13.672C76.4387 13.6344 76.428 13.5935 76.4254 13.5519C76.4234 13.5101 76.4294 13.4683 76.4434 13.4289C76.4574 13.3896 76.4787 13.3534 76.5067 13.3224L77.586 12.1184ZM50.8247 23.2366H54.2955L57.1186 27.2637L59.8421 23.2366H63.3129V33.6323H59.8421V28.8911L57.9988 31.4403H56.3049L54.2955 28.6669V33.6323H50.8247V23.2366ZM39.1918 33.6074H42.6293L43.0694 32.3785H46.2578L46.698 33.6074H50.1272L46.3824 23.1286H42.9448L39.1918 33.6074ZM45.3694 29.9125L44.6636 27.9197L43.9496 29.9125H45.3694ZM74.73 26.6493C74.73 24.9387 75.1867 23.1037 77.694 23.1037L77.7027 23.1203H85.2587V26.0846H78.2507L78.0847 26.0929C77.312 26.0929 77.42 27.0063 77.802 27.2388H82.502C83.282 27.2388 84.0214 27.5875 84.5194 28.1937C84.976 28.7749 84.976 29.4557 84.968 30.7261V31.241C84.968 33.1507 82.8094 33.7735 81.6714 33.6905H64.4836V23.3113H73.3847V26.2673H67.456V27.2305H71.5334V29.5886H67.456V30.7345H81.6547C81.9954 30.1117 81.738 29.7131 81.572 29.5886H78.0847L77.478 29.6052C75.3694 29.6052 74.738 28.3597 74.738 26.6575L74.73 26.6493ZM62.8645 8.96319H69.7727C71.5167 8.96319 72.928 10.3747 72.928 12.1184V13.2394C72.928 13.9784 72.5127 14.6177 71.8987 14.9249C72.316 15.1709 72.662 15.5217 72.9027 15.9426C73.1427 16.3635 73.2694 16.8399 73.2687 17.3246V17.5571C73.2687 19.3008 71.8567 20.7123 70.1134 20.7123H62.8645V8.97146V8.96319ZM65.9533 11.4957H69.0254C69.7314 11.4957 70.296 12.0603 70.296 12.7578V12.8741C70.296 13.5715 69.7314 14.1361 69.034 14.1361H65.9533V11.4957ZM65.9533 15.9297H69.0254C69.7314 15.9297 70.296 16.4943 70.296 17.1917V17.308C70.296 18.0055 69.7314 18.5784 69.034 18.5784H65.9533V15.9297ZM50.476 8.91333H58.0569C58.9578 8.91593 59.8286 9.23826 60.5141 9.82299C61.1995 10.4077 61.6551 11.2168 61.7997 12.1061C61.9442 12.9953 61.7684 13.9071 61.3034 14.6789C60.8384 15.4505 60.1146 16.0321 59.2608 16.3199L62.2085 20.7123H58.306L56.1886 17.0423H54.1792V20.7123H50.476V8.90506V8.91333ZM57.2182 11.4375H54.1045V13.9784H57.2182C57.5552 13.9784 57.8783 13.8445 58.1166 13.6063C58.3548 13.368 58.4886 13.0449 58.4886 12.708C58.4886 12.371 58.3548 12.0479 58.1166 11.8097C57.8783 11.5714 57.5552 11.4375 57.2182 11.4375ZM24.7772 21.2438C24.7772 24.5229 23.4746 27.6675 21.156 29.9862C18.8373 32.3048 15.6926 33.6074 12.4136 33.6074C9.13451 33.6074 5.98979 32.3048 3.67115 29.9862C1.35251 27.6675 0.0499268 24.5229 0.0499268 21.2438C0.0499268 17.9647 1.35252 14.82 3.67115 12.5014C5.98979 10.1827 9.13451 8.88013 12.4136 8.88013C15.6926 8.88013 18.8373 10.1827 21.156 12.5014C23.4746 14.82 24.7772 17.9647 24.7772 21.2438ZM7.43157 12.5502C7.52011 12.4619 7.62531 12.3919 7.74104 12.3445C7.85677 12.2971 7.98077 12.2731 8.10591 12.2739C8.23097 12.2746 8.35464 12.3002 8.46984 12.349C8.58491 12.3979 8.68931 12.4691 8.77671 12.5585L12.4136 16.2618L16.0504 12.5585C16.2268 12.3804 16.4665 12.2796 16.7171 12.278C16.9677 12.2765 17.2087 12.3743 17.3872 12.5502L21.0158 16.104C21.3894 16.4777 21.3894 17.0755 21.0241 17.4491L17.3042 21.2438L21.0241 25.0384C21.3894 25.4121 21.3894 26.0099 21.0158 26.3752L17.3872 29.9373C17.0136 30.3027 16.4158 30.2944 16.0504 29.9207L12.4136 26.2175L8.77671 29.9207C8.41137 30.2944 7.80524 30.3027 7.43157 29.9373L3.81133 26.3752C3.63215 26.2 3.52978 25.9609 3.52667 25.7102C3.52355 25.4596 3.61995 25.218 3.79472 25.0384L7.53124 21.2438L3.79472 17.4491C3.70693 17.3601 3.63767 17.2545 3.59094 17.1384C3.54421 17.0224 3.52095 16.8983 3.5225 16.7731C3.52404 16.6481 3.55036 16.5245 3.59993 16.4097C3.64951 16.2949 3.72136 16.1909 3.81133 16.104L7.43157 12.5502Z" fill="black"/>
</g>
</g>
</g>
</g>
</g>
</g>
</g>
</g>
</g>
</g>
</g>
</g>
</g>
<defs>
<clipPath id="clip0_23_28812">
<rect width="1821" height="100" fill="white" transform="translate(-867.833)"/>
</clipPath>
<clipPath id="clip1_23_28812">
<rect width="85.3333" height="40" fill="white"/>
</clipPath>
<clipPath id="clip2_23_28812">
<rect width="85.3333" height="40" fill="white"/>
</clipPath>
</defs>
</svg>
