<svg width="82" height="40" viewBox="0 0 82 40" fill="none" xmlns="http://www.w3.org/2000/svg">
<rect width="82" height="40" fill="#1E1E1E"/>
<g id="Live Casino">
<rect width="1905" height="855" transform="translate(-141.833 -1954.78)" fill="white"/>
<rect width="1905" height="855" transform="translate(-141.833 -1954.78)" fill="#1D4268"/>
<g id="Background">
<rect width="1905" height="2392.78" transform="translate(-141.833 -1954.78)" fill="#1D4268"/>
<g id="Background_2">
<rect width="1905" height="1974.78" transform="translate(-141.833 -1858.78)" fill="#283858"/>
<g id="Container">
<g id="Container_2">
<g id="Background_3">
<rect x="-65.8333" y="-16" width="1821" height="132" rx="8" fill="#205583"/>
<g id="Container_3" clip-path="url(#clip0_23_28812)">
<g id="Container_4">
<g id="Margin">
<g id="Container_5">
<g id="Link">
<g id="Picture &#226;&#134;&#146; Winfinity" opacity="0.8" clip-path="url(#clip1_23_28812)">
<g id="Winfinity_mono.svg" clip-path="url(#clip2_23_28812)">
<path id="Vector" d="M29.3708 27.354V32.5236C30.1299 32.5236 30.746 31.9075 30.76 31.1485V30.5909H32.407C33.1801 30.5909 33.7956 29.9601 33.7956 29.2158H30.76V28.0412H35.7867C36.1512 28.0411 36.5007 27.8962 36.7584 27.6385C37.0162 27.3807 37.161 27.0312 37.1612 26.6667H30.0581C29.6862 26.6667 29.3708 26.9674 29.3708 27.354Z" fill="black"/>
<path id="Vector_2" d="M64.9581 28.1836V32.5088C65.7312 32.5088 66.3467 31.8927 66.3326 31.1336V28.1836H68.6359C69.3952 28.1836 70.0252 27.5681 70.0252 26.8091H61.29C61.2902 27.1736 61.4352 27.5232 61.693 27.781C61.9509 28.0387 62.3006 28.1836 62.6652 28.1836H64.9581Z" fill="black"/>
<path id="Vector_3" d="M0.329499 32.4507C0.444237 32.5225 0.558386 32.5508 0.687247 32.5508C0.802673 32.5513 0.916227 32.5217 1.01675 32.4649L4.49651 30.6321L7.97627 32.4649C8.19107 32.5802 8.44933 32.5802 8.6494 32.4507C8.84947 32.336 8.97893 32.1071 8.97893 31.8635V26.8657C8.6142 26.8657 8.26447 27.0106 8.0066 27.2685C7.74867 27.5263 7.6038 27.8761 7.6038 28.2408V30.7038L4.81189 29.2287C4.61125 29.1287 4.36765 29.1287 4.16701 29.2287L1.37508 30.7038V28.2408C1.37508 27.8761 1.23021 27.5263 0.972327 27.2685C0.714447 27.0106 0.364693 26.8657 0 26.8657V31.8635C0.00098324 31.9813 0.0317039 32.0968 0.0893107 32.1995C0.146917 32.3021 0.229539 32.3886 0.329499 32.4507Z" fill="black"/>
<path id="Vector_4" d="M52.5706 32.3653C52.6706 32.4223 52.7854 32.4511 52.8995 32.4511C53.0262 32.4536 53.1508 32.4182 53.2578 32.3506C53.4726 32.2364 53.6015 32.0069 53.6015 31.7633V26.8091C53.2369 26.8091 52.8872 26.9538 52.6294 27.2116C52.3715 27.4693 52.2266 27.819 52.2264 28.1836V30.5895L45.6534 26.9809C45.5476 26.9232 45.4285 26.8941 45.308 26.8966C45.1874 26.8991 45.0696 26.933 44.9662 26.995C44.7514 27.1097 44.6226 27.3386 44.6226 27.5822V32.5223C44.9872 32.5223 45.3368 32.3776 45.5947 32.1198C45.8526 31.8621 45.9975 31.5125 45.9976 31.1479V28.7566L52.5706 32.3653Z" fill="black"/>
<path id="Vector_5" d="M25.0321 32.3653C25.1326 32.422 25.2462 32.4516 25.3616 32.4511C25.4758 32.4511 25.6052 32.4224 25.7052 32.3506C25.9194 32.2364 26.0488 32.0069 26.0488 31.7633V26.8091C25.8683 26.8089 25.6894 26.8445 25.5226 26.9135C25.3557 26.9825 25.2041 27.0837 25.0764 27.2114C24.9486 27.339 24.8472 27.4905 24.7781 27.6573C24.7089 27.8241 24.6732 28.003 24.6732 28.1836V30.5895L18.115 26.9809C18.009 26.9233 17.89 26.8943 17.7694 26.8967C17.6489 26.8992 17.5311 26.9331 17.4277 26.995C17.2129 27.1097 17.0835 27.3386 17.0835 27.5822V32.5223C17.4481 32.5223 17.7978 32.3776 18.0556 32.1198C18.3134 31.8621 18.4584 31.5125 18.4586 31.1479V28.7566L25.0321 32.3653Z" fill="black"/>
<path id="Vector_6" d="M12.4746 28.1836V32.5223C13.2334 32.522 13.8632 31.9067 13.8491 31.1479V26.8091C13.4846 26.8092 13.1351 26.9541 12.8774 27.2118C12.6197 27.4696 12.4748 27.8191 12.4746 28.1836Z" fill="black"/>
<path id="Vector_7" d="M39.925 28.1836V32.5223C40.6982 32.5223 41.3136 31.9069 41.2995 31.1479V26.8091C40.935 26.8092 40.5855 26.9541 40.3278 27.2118C40.07 27.4696 39.9252 27.8191 39.925 28.1836Z" fill="black"/>
<path id="Vector_8" d="M56.9802 28.1836V32.5223C57.7534 32.5223 58.3694 31.9069 58.3547 31.1479V26.8091C57.9902 26.8092 57.6407 26.9541 57.383 27.2118C57.1252 27.4696 56.9804 27.8191 56.9802 28.1836Z" fill="black"/>
<path id="Vector_9" d="M76.7707 28.8996L78.1887 27.5533C78.6894 27.0667 79.3627 26.8091 80.0647 26.8091H81.0814L77.458 30.1311V31.1338C77.458 31.4982 77.3134 31.8478 77.0554 32.1055C76.7974 32.3632 76.448 32.5081 76.0834 32.5082V30.117L72.446 26.8091H73.4774C74.1787 26.8091 74.852 27.0667 75.3534 27.5533L76.7707 28.8996Z" fill="black"/>
<path id="Vector_10" d="M54.1773 12.7177C54.5079 12.4975 54.7063 12.2103 54.7725 11.9023C54.883 11.4395 54.6846 10.9539 54.1555 10.5789L50.2312 7.77965C49.3933 7.18445 48.0707 7.18445 47.2327 7.77965L43.2423 10.6459C43.0787 10.7621 42.9453 10.9158 42.8532 11.0941C42.7611 11.2725 42.7131 11.4702 42.7131 11.6709C42.7131 11.8716 42.7611 12.0693 42.8532 12.2477C42.9453 12.426 43.0787 12.5797 43.2423 12.6959L43.8148 13.0927L47.2327 10.6459C48.0707 10.0507 49.3933 10.0507 50.2312 10.6459L53.67 13.0709L54.1773 12.7177Z" fill="black"/>
<path id="Vector_11" d="M36.7161 13.0709L37.2896 12.6742C37.9943 12.1886 37.9943 11.1315 37.2896 10.6241L33.2991 7.77965C32.4612 7.18445 31.1386 7.18445 30.3006 7.77965L26.3536 10.6015C25.8463 10.9539 25.6479 11.4395 25.7584 11.9023C25.8246 12.2113 26.023 12.4975 26.3536 12.7394L26.8609 13.0927L30.2997 10.6459C31.1386 10.0507 32.4612 10.0507 33.2991 10.6459L36.7161 13.0709Z" fill="black"/>
<path id="Vector_12" d="M57.1982 14.5256V11.6594C57.1982 12.1667 56.9337 12.6958 56.4047 13.0925C56.3736 13.1287 56.3361 13.1588 56.2941 13.1813L54.7505 14.2838L50.6939 17.1718C49.5253 18.0097 47.6075 18.0097 46.4389 17.1718L42.2719 14.195L41.4783 13.6442C41.1224 13.3861 40.694 13.2471 40.2544 13.2471C39.8148 13.2471 39.3864 13.3861 39.0305 13.6442L38.2597 14.195L34.0699 17.1718C32.9022 18.0097 30.9835 18.0097 29.8149 17.1718L25.7583 14.2838L24.2156 13.1813C24.1736 13.1588 24.1361 13.1287 24.1051 13.0925C23.5978 12.6958 23.3333 12.1667 23.3333 11.6594V14.5256C23.3333 15.0774 23.6195 15.6281 24.2156 16.0476L29.8149 20.038C30.9835 20.876 32.9013 20.876 34.0699 20.038L39.3839 16.246C39.6415 16.063 39.9497 15.9648 40.2657 15.9648C40.5817 15.9648 40.8899 16.063 41.1476 16.246L46.4607 20.038C47.6293 20.876 49.5471 20.876 50.7157 20.038L56.3158 16.0476C56.911 15.6281 57.1982 15.0774 57.1982 14.5256Z" fill="black"/>
</g>
</g>
</g>
</g>
</g>
</g>
</g>
</g>
</g>
</g>
</g>
</g>
</g>
<defs>
<clipPath id="clip0_23_28812">
<rect width="1821" height="100" fill="white" transform="translate(-65.8333)"/>
</clipPath>
<clipPath id="clip1_23_28812">
<rect width="81.3333" height="40" fill="white"/>
</clipPath>
<clipPath id="clip2_23_28812">
<rect width="81.3333" height="40" fill="white"/>
</clipPath>
</defs>
</svg>
