<svg xmlns="http://www.w3.org/2000/svg" viewBox="0 0 16 16" fill="#ffffff" aria-hidden="true"><path d="M8.06 2.39a5.63 5.63 0 0 0-5.58 5.66c0 3.13 2.5 5.67 5.58 5.67a5.63 5.63 0 0 0 5.6-5.67c0-3.13-2.5-5.66-5.6-5.66m0 2.12a.8.8 0 0 1 .8.8.8.8 0 0 1-.8.8.8.8 0 0 1-.78-.8c0-.44.35-.8.78-.8m3.57 7.2q-.21.2-.44.37-1.11.8-1.98 1.06-.4.15-.86.2a2.8 2.8 0 0 1-2.57-1.3c-.83-1.17-.26-3.54 1.83-3.8 2.1-.27 3.07-.88 3.25-2.56.13-1.15-.59-2.14-1.05-2.66a5.36 5.36 0 0 1 1.82 8.7"></path><path d="M8.06 10a.8.8 0 0 0-.78.8c0 .43.35.8.78.8a.8.8 0 0 0 .8-.8.8.8 0 0 0-.8-.8"></path></svg>
