<svg xmlns="http://www.w3.org/2000/svg" viewBox="0 0 16 16" fill="#ffffff" aria-hidden="true"><path d="M4.67 1.2a6.44 6.44 0 1 1 6.76 10.96l1.63 2.82h.77a.45.45 0 0 1 0 .9H2.97a.45.45 0 1 1 0-.9h.73L5 12.03a6.4 6.4 0 0 1-2.93-3.97v.11a.37.37 0 1 1-.74 0V4.84a.37.37 0 1 1 .74 0v.1a6.5 6.5 0 0 1 2.6-3.74m.88 11.12.27.12-1.13 2.54h7.32l-1.41-2.44a6.5 6.5 0 0 1-5.05-.22m2.58-9.05a1.2 1.2 0 1 1-2.37-.44 1.2 1.2 0 0 1 2.37.44m1.69 6.46a1.21 1.21 0 1 0 .58-2.35 1.21 1.21 0 0 0-.58 2.35m-2.23.57a1.2 1.2 0 1 1-2.37-.46 1.2 1.2 0 0 1 2.37.46m3.7-5.03a1.2 1.2 0 1 0 .57-2.34 1.2 1.2 0 0 0-.57 2.34m-5 1.13a1.2 1.2 0 1 1-2.37-.46 1.2 1.2 0 0 1 2.37.46" fill-rule="evenodd"></path></svg>
