<svg xmlns="http://www.w3.org/2000/svg" viewBox="0 0 16 16" fill="#ffffff" aria-hidden="true"><path d="M2.17 7.02a.53.53 0 0 0-.54.53v6.3c0 .3.24.54.54.54h4.16c.3 0 .53-.24.53-.54v-6.3c0-.3-.24-.53-.53-.53zm.97 1.07s.06-.3.37-.3c.3 0 .49.23.38.47a1 1 0 0 1-.26.35 3 3 0 0 0-.5.65 2 2 0 0 0-.5-.66c-.1-.1-.18-.17-.25-.35-.1-.24.08-.46.39-.46.3 0 .37.3.37.3m6.13-5.84c0-.3.24-.53.53-.53h4.16c.3 0 .54.24.54.53v6.3c0 .3-.24.54-.54.54h-2.95V4.74c0-.3-.24-.54-.54-.54h-1.2zm1.98.74-.14.02a.3.3 0 0 0 .06-.2c0-.2-.17-.36-.38-.36s-.38.16-.38.36q0 .1.06.2l-.12-.02c-.21 0-.38.16-.38.35 0 .2.17.36.38.36q.08 0 .13-.02s.18-.05.3-.25v.12s-.06.38-.48.42h-.07v.06h1.15v-.06h-.07a.5.5 0 0 1-.48-.42v-.1a.5.5 0 0 0 .41.25h.01c.22 0 .39-.16.39-.36S11.47 3 11.25 3"></path><path d="M5.6 4.93c0-.3.25-.53.54-.53h4.17c.3 0 .53.24.53.53v6.3c0 .3-.24.54-.53.54H7.03V7.38c0-.3-.24-.53-.53-.53h-.9zm.48 1.08.82.84.81-.84-.81-.84z"></path></svg>
