<svg xmlns="http://www.w3.org/2000/svg" viewBox="0 0 16 16" fill="#ffffff" aria-hidden="true"><path d="M1.54 11.42c0-.37.3-.67.67-.67h.88c.38 0 .68.3.68.67v.84H1.54zm2.7-1.51c0-.38.3-.68.68-.68h.88c.37 0 .67.3.67.68v2.35H4.25zm2.71-1.52c0-.37.3-.67.68-.67h.88c.37 0 .67.3.67.67v3.87H6.95zm2.71-1.51c0-.38.3-.68.67-.68h.88c.38 0 .68.3.68.68v5.38H9.66zm2.7-2.02c0-.38.3-.68.68-.68h.88c.37 0 .68.3.68.68v7.4h-2.23zm-4.98-.42c.07.08.2.08.26 0l.55-.64a.2.2 0 0 1 .12-.06h.46c.14 0 .22.17.12.28l-.76.83a.2.2 0 0 0 0 .22l.79.85c.1.1.02.28-.12.28h-.47a.2.2 0 0 1-.12-.06l-.57-.65a.17.17 0 0 0-.26 0l-.56.65a.2.2 0 0 1-.13.06h-.46a.17.17 0 0 1-.12-.28l.78-.85a.2.2 0 0 0 0-.22l-.76-.83a.17.17 0 0 1 .13-.28h.45q.08 0 .13.06z"></path></svg>
