<svg xmlns="http://www.w3.org/2000/svg" viewBox="0 0 16 16" fill="#ffffff" aria-hidden="true"><path d="M8.27 5.62h.05c.16.01.63.08.82.07.2-.02.45-.02.62.04l.04.02c.42.4.47 1.37.25 1.38a1.6 1.6 0 0 1-1.38-1.1c-.08-.3-.24-.4-.35-.41zm6.2-1.58c-.53-2-2.4-2.25-3.56-2.1-.1.01-.11.15-.01.19 2.04.63 2.48 1.44 2.77 1.88q.06.07.16.04c.16-.06.35.02.5.1.08.03.16-.03.14-.11"></path><path d="M6.16 3.27c-1.03 1 .38 1.71 1.21 1.95.33.1.41.13.9.2q.31.03.89.02c.55 0 1.25 0 1.93.09 1.14.13 1.84.89 2.1 1.18.25.29.41.86.08 1.33-.98 1.08-2.72 1.18-3.06 1.18-.35 0-.2.15.1.42.54.6 1.55.33 2 .19.08-.03.15.04.12.12q-.15.4-.36.78c-.19.37-.33.65-.2.78.2.24.63-.12 1.05-.55a5 5 0 0 0 1.57-4.18 5.1 5.1 0 0 0-3.38-4.41c-2.76-.76-4.24.36-4.86.84zm3.55 1.7c.54-.75.38-1.42.2-1.83-.05-.1.02-.16.06-.06l.04.08.08.17c.15.49.34.91.97 1.09h.01c2.54 1.18 2.76 1.9 2.71 2.93-.13-2-2.35-2.46-4.05-2.35q-.03 0-.02-.04M8.15 3.72a.33.33 0 1 0-.05-.67.33.33 0 0 0 .05.67" fill-rule="evenodd"></path><path d="M5.08 13.74a3.44 3.44 0 1 0 0-6.88 3.44 3.44 0 0 0 0 6.88m0 .98a4.42 4.42 0 1 0 0-8.84 4.42 4.42 0 0 0 0 8.84" fill-rule="evenodd"></path><path d="M4.95 6.64h.25v7.03h-.25z"></path><path d="M8.59 10.18v.25H1.56v-.25zM4.62 8.14V6.8c.31-.42.74-.17.91 0v1.34l-.46.44zm0 4.32v1.34c.31.42.74.18.91 0v-1.34l-.46-.44z"></path><path d="M2.88 10.76H1.54c-.41-.32-.17-.74 0-.92h1.34l.44.47zm4.25 0h1.34c.42-.32.18-.74 0-.92H7.13l-.44.47z"></path></svg>
