<svg xmlns="http://www.w3.org/2000/svg" viewBox="0 0 16 16" fill="#ffffff" aria-hidden="true"><path d="M2.44 6.43h3.24v3.24H2.44zm4 4.04H9.7v3.25H6.44zm-4 0h3.24v3.25H2.44zm4-8.08H9.7v3.24H6.44zm4 4.04h3.25v3.24h-3.24z"></path><path d="M6.97 6.43a.53.53 0 0 0-.53.53v2.18a.53.53 0 0 0 .53.53h2.18a.53.53 0 0 0 .54-.53V6.96a.53.53 0 0 0-.54-.53zm1.88 1.22a.2.2 0 0 0-.33-.22l-.61.93-.36-.22a.2.2 0 0 0-.22.34l.7.43zM2.97 2.4a.53.53 0 0 0-.53.53V5.1a.53.53 0 0 0 .53.53h2.18a.53.53 0 0 0 .53-.53V2.92a.53.53 0 0 0-.53-.53zm1.88 1.18a.2.2 0 1 0-.33-.22l-.61.93-.37-.22a.2.2 0 0 0-.21.34l.7.43z" fill-rule="evenodd"></path><path d="M10.45 2.39h3.24v3.24h-3.24z"></path><path d="M10.98 10.47a.53.53 0 0 0-.53.54v2.18a.53.53 0 0 0 .53.53h2.18a.53.53 0 0 0 .53-.53V11a.53.53 0 0 0-.53-.54zm1.88 1.19a.2.2 0 1 0-.33-.22l-.62.93-.36-.23a.2.2 0 0 0-.3.14.2.2 0 0 0 .09.2l.7.44z" fill-rule="evenodd"></path></svg>
