<svg xmlns="http://www.w3.org/2000/svg" viewBox="0 0 16 16" fill="#ffffff" aria-hidden="true"><path d="M11.31 12.53c2.6.03 3.79-1.7 3.36-3.6-.1-.48-.54-1-1.13-1.55-.33-.47-.91-.97-1.53-1.52q-.48-.41-.95-.86A29 29 0 0 1 9.2 3.06c-.63-.77-1.08-1.43-1.09-1.7l-.02.14-.02-.1c0 .5-1.63 2.48-2.82 3.6q-.53.5-1.06.94a10 10 0 0 0-1.62 1.62c-.5.48-.9.94-1.05 1.37-.65 1.87.9 3.63 3.5 3.6a3.1 3.1 0 0 0 2.9-1.73h.44l.05.1c.38.67 1.22 1.6 2.9 1.63m-5.19 2.21c1.34-1.18 1.72-3.14 1.81-3.8a.2.2 0 0 1 .16-.14q.13.01.15.14a9 9 0 0 0 1.7 3.75l.07.05z"></path></svg>
