<svg xmlns="http://www.w3.org/2000/svg" viewBox="0 0 16 16" fill="#ffffff" aria-hidden="true"><path d="M4 14.03a1 1 0 0 1 .84.46.1.1 0 0 0 .09.04h.84a.1.1 0 0 0 .09-.04 1 1 0 0 1 1.32-.34q.22.13.37.34a.1.1 0 0 0 .08.04h.92a.1.1 0 0 0 .09-.04 1 1 0 0 1 .82-.46h.03a1 1 0 0 1 .82.46.1.1 0 0 0 .08.04h.92a.1.1 0 0 0 .09-.04 1 1 0 0 1 1.32-.34q.22.13.37.34a.1.1 0 0 0 .08.04h.73a.1.1 0 0 0 .1-.1V1.57a.1.1 0 0 0-.1-.1h-.73a.1.1 0 0 0-.08.04 1 1 0 0 1-1.33.34 1 1 0 0 1-.36-.34.1.1 0 0 0-.09-.04h-.92a.1.1 0 0 0-.08.04 1 1 0 0 1-.82.46h-.03a1 1 0 0 1-.82-.46.1.1 0 0 0-.09-.04h-.92a.1.1 0 0 0-.08.04 1 1 0 0 1-.85.46 1 1 0 0 1-.84-.46.1.1 0 0 0-.09-.04h-.84a.1.1 0 0 0-.09.04 1 1 0 0 1-1.32.34q-.23-.12-.37-.34a.1.1 0 0 0-.09-.04h-.82a.1.1 0 0 0-.1.1v12.86q0 .1.1.1h.82a.1.1 0 0 0 .1-.04 1 1 0 0 1 .83-.46m8.9-1.5a.1.1 0 0 1-.1.1h-2.55a.1.1 0 0 1-.09-.05c-.05-.1.02-.19.1-.19h2.3a.1.1 0 0 0 .1-.1v-.65a.1.1 0 0 1 .05-.09c.1-.05.19.02.19.1zm-.73-6.72a.9.9 0 0 1 0 1.07q-.33.5-.76.9c-.08.09 0 .22.11.18l.28-.1c.42-.14.84.13 1.02.44a.7.7 0 0 1-.13.92l-.32.27q-.02.04.03.04a1 1 0 0 1 .46 0 1 1 0 0 1 .3.18c.23.21.34.56.28.86a.8.8 0 0 1-.54.56 19 19 0 0 0-4.18 1.9 1 1 0 0 1-.44.13 1 1 0 0 1-.6-.23.8.8 0 0 1-.17-.96c.05-.1-.06-.2-.15-.14q-.53.34-1.05.7c-.28.2-.59.22-.84.05-.32-.21-.48-.67-.38-1.09q.13-.58.48-1.09 0-.02-.02-.02l-.29.18-.32.21a.77.77 0 0 1-1.1-.2A.84.84 0 0 1 4 9.4a24 24 0 0 1 7.27-3.84c.36-.12.7-.02.9.26M9.84 3.9l.05-.02.56-.08a.1.1 0 0 0 .07-.06l.25-.5.04-.04a.12.12 0 0 1 .17.04l.25.5a.1.1 0 0 0 .08.06l.55.08.05.02q.09.1.01.18l-.4.4-.03.08.1.56v.05a.12.12 0 0 1-.17.07l-.5-.26a.1.1 0 0 0-.1 0l-.5.26h-.04a.12.12 0 0 1-.12-.13l.1-.55a.1.1 0 0 0-.03-.1l-.4-.38a.12.12 0 0 1 0-.18m-3.3-.58.06-.03.9-.12a.1.1 0 0 0 .08-.06l.4-.82a.1.1 0 0 1 .1-.06h.01a.1.1 0 0 1 .1.06l.4.82a.1.1 0 0 0 .08.06l.9.13.04.02q.1.09.02.18l-.65.63a.1.1 0 0 0-.03.1l.15.89v.05a.12.12 0 0 1-.17.07l-.8-.43a.1.1 0 0 0-.1 0l-.8.42a.12.12 0 0 1-.17-.06V5.1l.15-.9-.03-.08-.64-.64a.12.12 0 0 1 0-.17m-2.29.58.05-.02.56-.08a.1.1 0 0 0 .07-.06l.26-.5a.1.1 0 0 1 .09-.06h.02a.1.1 0 0 1 .09.06l.25.5a.1.1 0 0 0 .08.06l.55.08.05.02q.09.1.01.18l-.4.4-.03.08.1.56v.05a.12.12 0 0 1-.17.07l-.5-.26a.1.1 0 0 0-.1 0l-.5.26H4.7a.12.12 0 0 1-.12-.13l.1-.55a.1.1 0 0 0-.03-.1l-.4-.38a.12.12 0 0 1 .01-.18M3.17 6.84c0-.1.09-.2.2-.2h3.97q.1.01.13.11a.12.12 0 0 1-.12.13H3.5a.1.1 0 0 0-.1.1v5.3q0 .1.1.11h1.24q.1.01.12.1a.12.12 0 0 1-.12.14H3.28a.1.1 0 0 1-.1-.07z"></path><path d="M7.43 11.08q.01.23.24.25h1.16V9.6h-1.4zm1.87.25h1.17q.21-.02.23-.25V9.6H9.3zm1.4-2.99h-.3q.06-.15.07-.31c0-.39-.29-.7-.64-.7-.3 0-.5.17-.76.54-.25-.37-.44-.54-.75-.54-.35 0-.64.32-.64.7q0 .16.08.31h-.33c-.12 0-.23.11-.23.25v.63q0 .12.12.13h3.5q.1-.01.11-.13V8.6q-.02-.23-.23-.25m-2.38 0c-.16 0-.29-.14-.29-.31 0-.18.13-.32.3-.32.14 0 .24.03.62.63zm1.5 0H9.2c.37-.6.48-.63.63-.63s.29.14.29.31c0 .18-.13.32-.3.32"></path></svg>
