<svg xmlns="http://www.w3.org/2000/svg" viewBox="0 0 16 16" fill="#ffffff" aria-hidden="true"><path d="M6.1 12.47c0-.15.11-.23.23-.23h3a.24.24 0 0 1 .23.23.24.24 0 0 1-.23.24h-3a.24.24 0 0 1-.24-.24m.23.86q0-.24.23-.24h2.59a.24.24 0 0 1 0 .48H6.56a.24.24 0 0 1-.23-.24m.71.71q0-.07.1-.08h1.4q.06-.02.07.08v.27q.02.13-.08.13H7.11a.1.1 0 0 1-.1-.09L7 14.31v-.27zm1.4-2.12H6.8c-.5 0-.63-.08-.63-.27a3.3 3.3 0 0 0-.78-2.2A3.73 3.73 0 0 1 7.87 3a3.7 3.7 0 0 1 3.6 4.56c-.17.73-.55 1.4-1.1 1.92a3 3 0 0 0-.82 2.2c0 .18-.16.26-.63.26h-.47zm-2-4.93c0-.28.05-.75.32-1.11.2-.3.59-.63 1.37-.63a.77.77 0 0 0 .95-.76.8.8 0 0 0-.95-.77 3 3 0 0 0-2.62 1.3c-.42.6-.64 1.31-.63 2.05a.8.8 0 0 0 1.28.38A1 1 0 0 0 6.41 7z"></path><path d="M6.6 14.12c-.04-.08 0-.16.13-.16h1.32q.12-.02.12.08v.27q0 .13-.13.13h-1.2z"></path><path d="M9.07 14.12c.08-.08 0-.16-.08-.16H7.65q-.1-.02-.1.08v.27q0 .13.1.13h1.22zm-2-12.52a.27.27 0 0 1 .28-.28.3.3 0 0 1 .26.27v.86a.27.27 0 0 1-.53 0zM3.16 2.9a.27.27 0 0 1 .03-.46q.08-.04.17-.03.1 0 .2.08l1.17 1.18a.28.28 0 0 1-.4.4L3.2 2.9zM2.55 7a.27.27 0 1 1-.02-.53h.91a.27.27 0 0 1 0 .53zm.97 3.9a.3.3 0 0 1-.4 0 .3.3 0 0 1 0-.4l1.3-1.26a.27.27 0 0 1 .44.03q.04.08.03.17t-.08.2zm8.95-.23a.3.3 0 0 1 0 .4.3.3 0 0 1-.4 0l-1.2-1.27a.28.28 0 0 1 .4-.4zm.74-4.2a.3.3 0 0 1 .27.26.27.27 0 0 1-.27.28h-.98a.27.27 0 0 1 0-.53zm-.98-3.96a.28.28 0 0 1 .4.4l-1.26 1.17a.28.28 0 0 1-.46-.3l.06-.1z"></path></svg>
