<svg xmlns="http://www.w3.org/2000/svg" viewBox="0 0 16 16" fill="#ffffff" aria-hidden="true"><path d="M5.74 7.65c.1-.62.33-1.93.66-2.64-1.04.59-2.59.66-4.67-1.38l.04-.05c.34-.4 2.74-3.17 5.98-.42a7 7 0 0 1 5.58-1.93c-.28.3-.46.46-.58.58l-.02.02h.06l-.12.14c-.43.5-1 1.17-1.3 2.92q-.2 1.41.1 2.81a3.63 3.63 0 1 1-1.02-.05c-.25-1.86.05-4.58 1.1-5.52l.03-.02c-.8.08-1.98.41-3.36 1.68l-.03.04c-.4.44-1.48 1.6-1.64 3.84q.87.11 1.55.58a4.03 4.03 0 0 0-.1 6.08 3.63 3.63 0 1 1-2.27-6.68m.2 1.65q-.65.05-1.16.44a1.9 1.9 0 0 0-.74 1.56h.88c0-.44.19-.7.4-.86q.29-.21.65-.25zm3.65.4q.52-.39 1.16-.43l.04.88q-.37.03-.66.26a1 1 0 0 0-.39.86h-.89c0-.74.33-1.25.74-1.57" fill-rule="evenodd"></path></svg>
