<svg xmlns="http://www.w3.org/2000/svg" viewBox="0 0 16 16" fill="#ffffff" aria-hidden="true"><path d="M9.27 2.44q.12.12.3.16l-.05 4-.21.08L6 4.5a.58.58 0 1 0-.2.26l3.15 2.1a1.1 1.1 0 0 0-.52.82l-7.36 2.69a.8.8 0 0 0-.49 1.04l1 2.76h1.2l-.83-2.25a.8.8 0 0 1 .49-1.04l8.87-3.24a.8.8 0 0 1 1.04.5l2.03 5.54q.09.25.02.49h1.34l-2.67-7.31a.8.8 0 0 0-1.04-.49l-1.3.47a1.1 1.1 0 0 0-.88-.3l.04-3.95a.58.58 0 1 0-.62-.14"></path><path d="M13.1 14.16a.8.8 0 0 0 .12-.78l-1.56-4.29a.8.8 0 0 0-1.05-.48L3.6 11.16a.8.8 0 0 0-.49 1.05l.71 1.94z"></path></svg>
