<svg xmlns="http://www.w3.org/2000/svg" viewBox="0 0 16 16" fill="#ffffff" aria-hidden="true"><path d="M11.84 6.28v-.61H4.4v.61H1.95v.4c0 .1.01 2.27 1.35 3.46q.85.75 2.08.75.2 0 .38-.02.7.97 1.62 1.31v1.77H5.6v1.11H5v.63h6.22v-.63h-.6v-1.1H8.86v-1.78q.92-.34 1.62-1.3h.38q1.23 0 2.08-.74c1.34-1.19 1.36-3.36 1.36-3.45v-.4zM3.85 9.54c-.76-.68-1-1.84-1.06-2.45h1.66a8 8 0 0 0 .83 2.99 2.2 2.2 0 0 1-1.43-.54m8.54 0q-.57.51-1.43.54l.22-.44c.38-.84.55-1.79.61-2.55h1.66c-.06.61-.29 1.77-1.06 2.45M5.3 7.01a3.6 3.6 0 0 0 .53 2.86 8 8 0 0 1-.54-2.86m5.92 1.47c.09-.53 0-1.22-.08-1.47 0 .44-.01 1-.1 1.39-.07.4-.16.61-.27.95-.07.2-.18.42-.22.58 0 0 .57-.92.67-1.45" fill-rule="evenodd"></path><path d="M11.77 2.02a5.07 5.07 0 0 0-7.5 0 .3.3 0 0 0 .44.41 4.5 4.5 0 0 1 6.62 0 .3.3 0 0 0 .43.02.3.3 0 0 0 .01-.43"></path><path d="M10.67 3.26a3.7 3.7 0 0 0-2.65-1.14 3.7 3.7 0 0 0-2.64 1.14.3.3 0 1 0 .42.42 3 3 0 0 1 2.22-.96c.83 0 1.62.34 2.23.96a.3.3 0 0 0 .42 0 .3.3 0 0 0 0-.42M9.47 4.5c-.38-.39-.9-.61-1.45-.63H8c-.5 0-1.07.24-1.46.63a.3.3 0 0 0 .43.42q.42-.41 1.03-.45h.02c.35 0 .76.18 1.04.45a.3.3 0 0 0 .42-.42"></path></svg>
