<svg width="128" height="60" viewBox="0 0 128 60" fill="none" xmlns="http://www.w3.org/2000/svg">
<g clip-path="url(#clip0_429_20)">
<path d="M94.3016 30H90.1016V34.2H94.3016V30Z" fill="black"/>
<path d="M123.802 30H119.602V34.2H123.802V30Z" fill="black"/>
<path d="M119.598 21.5996H115.398V25.7996H119.598V21.5996Z" fill="black"/>
<path d="M115.399 25.8008H111.199V30.0008H115.399V25.8008Z" fill="black"/>
<path d="M98.5008 34.1992H94.3008V38.3992H98.5008V34.1992Z" fill="black"/>
<path d="M119.598 34.1992H115.398V38.3992H119.598V34.1992Z" fill="black"/>
<path d="M102.7 38.4004H98.5V42.6004H4.2V17.4004H0V46.8004H111.2V42.6004H102.7V38.4004Z" fill="black"/>
<path d="M115.399 38.4004H111.199V42.6004H115.399V38.4004Z" fill="black"/>
<path d="M128.001 17.4004H123.801V30.0004H128.001V17.4004Z" fill="black"/>
<path d="M123.799 13.1992H111.199V17.3992H123.799V13.1992Z" fill="black"/>
<path d="M111.099 17.4004H102.699V21.6004H111.099V17.4004Z" fill="black"/>
<path d="M85.8992 29.9992H90.0992V17.3992H102.699V13.1992H4.19922V17.3992H85.8992V29.9992Z" fill="black"/>
<path d="M24.5992 37H34.3992V35.6H35.7992V24.4H34.3992V23H24.5992V24.4H23.1992V35.6H24.5992V37ZM25.9992 25.8H32.9992V34.2H25.9992V25.8Z" fill="black"/>
<path d="M70.4992 31.4H78.8992V30H80.2992V24.4H78.8992V23H67.6992V37H70.4992V31.4ZM70.4992 25.8H77.4992V28.6H70.4992V25.8Z" fill="black"/>
<path d="M55.6984 31.4H62.6984V37H65.4984V23H62.6984V28.6H55.6984V23H52.8984V37H55.6984V31.4Z" fill="black"/>
<path d="M39.4 37H49.2V35.6H50.6V24.4H49.2V23H39.4V24.4H38V35.6H39.4V37ZM40.8 25.8H47.8V34.2H40.8V25.8Z" fill="black"/>
<path d="M21.0008 34.2H16.8008V23H14.0008V24.4H12.6008V25.8H11.2008V28.6H14.0008V34.2H9.80078V37H21.0008V34.2Z" fill="black"/>
</g>
<defs>
<clipPath id="clip0_429_20">
<rect width="128" height="60" fill="white"/>
</clipPath>
</defs>
</svg>
