<svg width="128" height="60" viewBox="0 0 128 60" fill="none" xmlns="http://www.w3.org/2000/svg">
<path d="M6.30688 54.11C7.61688 54.11 8.37688 54.09 8.58688 54.05C8.79688 54.01 8.89687 53.85 8.89687 53.57C8.89687 53.23 8.75688 53.02 8.46688 52.93C8.17688 52.84 7.45688 52.8 6.31688 52.8C4.04688 52.8 2.61688 52.63 2.01688 52.3C1.41688 51.97 1.12688 51.15 1.12688 49.85C1.12688 48.65 1.51688 47.87 2.28688 47.54C2.87688 47.28 4.19688 47.16 6.24688 47.16C8.06688 47.16 9.22687 47.21 9.71688 47.31C10.8669 47.54 11.4369 48.52 11.4369 50.23H8.71688C8.71688 49.76 8.61688 49.49 8.40688 49.41C8.19688 49.33 7.48688 49.29 6.26688 49.29C5.04688 49.29 4.32688 49.31 4.13688 49.36C3.94688 49.41 3.85688 49.57 3.85688 49.86C3.85688 50.17 4.01688 50.36 4.33688 50.45C4.65688 50.54 5.31688 50.59 6.31688 50.59C8.55688 50.59 10.0069 50.77 10.6569 51.12C11.3069 51.47 11.6269 52.29 11.6269 53.57C11.6269 54.75 11.2669 55.5 10.5369 55.84C9.90688 56.12 8.49688 56.26 6.30688 56.26C4.61688 56.26 3.51688 56.22 3.01688 56.15C2.23688 56.03 1.71688 55.76 1.43688 55.34C1.15688 54.92 1.01688 54.18 1.01688 53.13H3.73688C3.73688 53.63 3.84688 53.91 4.05688 54C4.26688 54.08 5.02688 54.12 6.31688 54.12L6.30688 54.11Z" fill="#010101"/>
<path d="M28.0969 51.69C28.0969 53.84 27.8369 55.13 27.3169 55.55C26.7569 56 25.0669 56.23 22.2369 56.23C20.1769 56.23 18.8169 56.16 18.1769 56.01C17.3669 55.82 16.8569 55.41 16.6369 54.77C16.4669 54.28 16.3869 53.26 16.3869 51.69C16.3869 49.54 16.6469 48.25 17.1569 47.83C17.7169 47.37 19.4069 47.14 22.2369 47.14C25.0669 47.14 26.7369 47.37 27.2969 47.82C27.8269 48.25 28.0869 49.54 28.0869 51.69L28.0969 51.69ZM19.1269 51.69C19.1269 52.82 19.2569 53.48 19.5169 53.66C19.7769 53.85 20.6869 53.94 22.2469 53.94C23.8069 53.94 24.7269 53.85 24.9869 53.66C25.2469 53.47 25.3769 52.82 25.3769 51.69C25.3769 50.56 25.2469 49.89 24.9869 49.7C24.7269 49.51 23.8169 49.42 22.2569 49.42C20.6969 49.42 19.7769 49.51 19.5169 49.7C19.2569 49.89 19.1269 50.55 19.1269 51.69Z" fill="#010101"/>
<path d="M32.7269 56.11V47.25H42.1869V49.54H35.4569V51.08H41.8169V53.37H35.4569V56.12H32.7369L32.7269 56.11Z" fill="#010101"/>
<path d="M46.9169 49.53V47.24H57.4469V49.53H53.5469V56.1H50.8269V49.53C50.8269 49.53 46.9169 49.53 46.9169 49.53Z" fill="#010101"/>
<path d="M80.3669 47.27L76.9369 56.11H72.7669L71.2569 50.69C71.2569 50.69 70.8969 50.67 70.8869 50.69L69.3869 56.11H65.2169L61.7869 47.27H64.6969L67.1469 53.81H67.4469L69.4569 47.27H72.7169L74.7269 53.81H75.0269L77.4769 47.27H80.3869L80.3669 47.27Z" fill="#010101"/>
<path d="M89.9269 53.83H87.0969L89.2169 51.03L93.0869 56.11H95.9469L89.2169 47.27L82.4969 56.11H91.6569L89.9269 53.83Z" fill="#010101"/>
<path d="M100.367 47.24H108.287C109.257 47.24 109.947 47.42 110.357 47.77C110.797 48.16 111.017 48.84 111.017 49.82C111.017 50.58 110.927 51.14 110.747 51.51C110.567 51.87 110.247 52.15 109.797 52.33C110.297 52.54 110.617 52.76 110.777 52.97C110.937 53.18 111.017 53.57 111.017 54.12V56.1H108.297V54.52C108.297 54.29 108.237 54.1 108.107 53.94C107.947 53.73 107.717 53.63 107.397 53.63H103.087V56.11H100.367V47.25L100.367 47.24ZM103.087 49.53V51.34H107.457C107.757 51.34 107.967 51.28 108.097 51.15C108.227 51.02 108.287 50.79 108.287 50.45C108.287 50.11 108.217 49.87 108.087 49.74C107.957 49.61 107.747 49.54 107.457 49.54H103.087L103.087 49.53Z" fill="#010101"/>
<path d="M116.067 56.11V47.25H125.597V49.39H118.787V50.63H125.287V52.76H118.787V53.97H125.597V56.11H116.067Z" fill="#010101"/>
<path d="M112.237 39.32H104.627C104.287 39.25 104.177 39.02 104.187 38.69V11.65C104.187 11.15 103.947 10.9 103.457 10.9H90.4469C90.0669 10.88 89.9669 10.8 89.8769 10.41V4.19998C89.8769 3.89998 89.9669 3.75998 90.2269 3.75998H126.617C126.887 3.75998 126.997 3.91998 126.997 4.18998V10.4C126.917 10.79 126.817 10.88 126.437 10.9C122.047 10.92 117.647 10.9 113.257 10.9C112.717 10.9 112.687 10.93 112.687 11.46V38.63C112.687 38.96 112.577 39.21 112.257 39.33L112.237 39.32Z" fill="#010101"/>
<path d="M78.7569 3.75C83.3069 3.75 85.6769 5.76 85.7669 10.38C85.7369 11.75 85.7869 13.13 85.7669 14.5C85.6569 14.77 85.4269 14.79 85.1769 14.79H78.3469C77.8369 14.78 77.6569 14.6 77.6469 14.1C77.6369 13.2 77.6469 12.3 77.6469 11.4C77.6469 10.93 77.5969 10.88 77.1369 10.88H56.4069C55.9469 10.88 55.9069 10.93 55.9069 11.4V31.24C55.9069 31.73 55.9469 31.77 56.4369 31.77H77.0969C77.6069 31.77 77.6469 31.73 77.6469 31.22V25.71C77.6469 25.21 77.6069 25.17 77.0869 25.17H66.8469C65.7869 25.17 65.6969 25.08 65.6969 24.01V19C65.6969 18.33 65.8969 18.12 66.5669 18.12H85.0569C85.3969 18.12 85.6769 18.17 85.7569 18.56C85.6969 23.63 85.8869 28.73 85.6569 33.76C85.3069 37.68 82.7169 39.32 79.0069 39.32H54.7069C49.7469 39.32 47.6069 36.09 47.6069 32.19V10.83C47.5169 6.2 49.8169 3.75 54.4869 3.75C62.5569 3.82 70.6969 3.82 78.7669 3.75H78.7569Z" fill="#010101"/>
<path d="M44.6169 38.6L23.2469 3.96999C23.1569 3.81999 22.9969 3.73999 22.8369 3.73999C22.6769 3.73999 22.5269 3.81999 22.4269 3.96999L1.07688 38.6C0.876876 38.92 1.10688 39.33 1.48688 39.33H31.5969C31.9469 39.33 32.1669 38.94 31.9769 38.65L28.0669 32.34C27.9869 32.21 27.8369 32.13 27.6869 32.13H13.5369L22.8569 17.03L32.1769 32.13L36.4169 38.97C36.5569 39.19 36.7969 39.33 37.0569 39.33H44.2169C44.5869 39.33 44.8169 38.92 44.6269 38.6L44.6169 38.6Z" fill="#010101"/>
</svg>
