<svg width="121" height="61" viewBox="0 0 121 61" fill="none" xmlns="http://www.w3.org/2000/svg">
<g clip-path="url(#clip0_993_55)">
<path d="M24.5846 15.0332C25.042 15.0804 25.4994 15.1159 25.9568 15.1749C32.0274 15.9396 36.8359 18.706 39.9692 24.035C41.5522 26.7276 42.2264 29.6682 42.0185 32.7888C41.8433 35.4224 40.985 37.8315 39.5594 40.0487C39.402 40.2967 39.1792 40.4532 38.8852 40.4562C38.1961 40.4621 37.5071 40.4591 36.821 40.4355C36.5597 40.4266 36.331 40.2702 36.2211 40.034C36.0251 39.6147 35.8647 39.1778 35.6716 38.7084C35.9805 38.7084 36.23 38.7084 36.4795 38.7084C36.8626 38.7084 37.2487 38.7202 37.6318 38.7054C38.1041 38.6877 38.2704 38.422 38.1041 37.988C37.7091 36.9576 37.317 35.9243 36.9161 34.8968C36.8478 34.7256 36.8567 34.6134 36.9814 34.4628C37.3942 33.958 37.3556 33.2553 36.9101 32.777C36.3785 32.2072 35.4222 32.1305 34.8133 32.6146C34.4094 32.9335 34.2074 33.3527 34.2935 33.8665C34.3916 34.4451 34.7598 34.8112 35.3152 34.9677C35.5083 35.0238 35.5944 35.1094 35.6508 35.2895C35.8528 35.9095 36.0726 36.5236 36.2864 37.1406C36.2864 37.1465 36.2864 37.1554 36.2805 37.2026C35.93 37.2026 35.5736 37.2115 35.2172 37.1938C35.1667 37.1938 35.1044 37.0786 35.0776 37.0078C34.5846 35.6645 34.0975 34.3211 33.6075 32.9748C33.3728 32.3312 33.1382 31.6905 32.9066 31.0469C32.868 30.9377 32.8353 30.8875 32.6868 30.8904C31.6146 30.8993 29.4227 30.8904 29.3693 30.8904C29.4406 31.2388 29.5118 31.5843 29.5831 31.9297C29.8861 33.3911 30.192 34.8525 30.4949 36.314C30.5929 36.7864 30.3642 37.1465 29.9069 37.1584C28.8733 37.179 27.8397 37.1643 26.7735 37.1643C26.524 35.0769 26.2745 32.9925 26.0221 30.8904H25.2588C25.3657 32.9807 25.4726 35.0592 25.5825 37.1584H21.5819C21.6918 35.071 21.8017 32.9896 21.9146 30.8904H21.1721C21.1216 31.3067 21.0681 31.723 21.0176 32.1452C20.8632 33.459 20.7088 34.7728 20.5543 36.0866C20.5187 36.3966 20.4771 36.7037 20.4504 37.0137C20.4415 37.1318 20.3999 37.1761 20.2811 37.1761C19.2861 37.1761 18.2912 37.1908 17.2962 37.182C16.8478 37.179 16.5834 36.8336 16.6755 36.3878C17.0438 34.6075 17.421 32.8272 17.7922 31.0469C17.8011 31.0026 17.8071 30.9643 17.8219 30.8904C17.7298 30.8875 17.6497 30.8904 17.5695 30.8904C16.5834 30.8904 15.5944 30.9052 14.6084 30.8904C14.3975 30.8875 14.3143 30.9318 14.246 31.1207C13.2184 33.9639 12.173 36.8041 11.1543 39.6502C10.9582 40.1964 10.6226 40.468 10.0494 40.468C9.52372 40.468 9.001 40.468 8.47531 40.4739C8.05357 40.4798 7.77439 40.279 7.56055 39.9306C6.71113 38.5578 6.04585 37.1023 5.6449 35.5405C4.48363 31.0085 5.30929 26.8014 7.88131 22.9338C10.0791 19.6301 13.1412 17.4128 16.8893 16.1138C18.6298 15.5115 20.4266 15.1897 22.265 15.0775C22.3512 15.0716 22.4343 15.0509 22.5175 15.0362C23.2065 15.0362 23.8956 15.0362 24.5846 15.0362V15.0332ZM23.6223 24.7495C18.8228 24.7495 14.0203 24.7495 9.22078 24.7584C8.94754 24.7702 8.72182 24.7849 8.46046 24.8558C8.22583 24.9207 8.04763 25.2278 8.04763 25.4905C8.04763 25.8714 8.03872 26.2552 8.05357 26.6361C8.05357 26.7099 8.13079 26.8221 8.20207 26.8486C9.3277 27.2944 10.4593 27.7314 11.5908 28.1624C11.6681 28.192 11.778 28.192 11.8552 28.1624C13.5837 27.4982 15.3123 26.8309 17.0378 26.1607C17.4566 25.9984 17.8694 25.9777 18.2941 26.146C19.9722 26.8132 21.6502 27.4716 23.3253 28.1447C23.5124 28.2215 23.6698 28.2215 23.857 28.1447C25.5142 27.4716 27.1774 26.8132 28.8377 26.143C29.2356 25.9836 29.6158 25.9806 30.0197 26.1371C31.7453 26.8103 33.4738 27.4745 35.2024 28.1359C35.3034 28.1743 35.44 28.2038 35.532 28.1684C36.6903 27.7373 37.8397 27.2915 38.9951 26.8575C39.1228 26.8103 39.1525 26.7394 39.1495 26.6154C39.1436 26.3054 39.1495 25.9924 39.1495 25.6824C39.1495 25.151 38.9505 24.903 38.4219 24.7967C38.2615 24.7643 38.0952 24.7554 37.9318 24.7554C33.162 24.7554 28.3922 24.7554 23.6223 24.7554V24.7495ZM30.8691 24.1885C30.7682 23.9346 30.6909 23.7162 30.5989 23.5036C29.8682 21.7764 28.8941 20.2117 27.4358 18.9923C25.0717 17.0143 22.0245 17.0261 19.6722 19.013C18.3832 20.1054 17.4863 21.4783 16.7884 22.9958C16.6102 23.3796 16.4617 23.7752 16.2894 24.1885H30.8691ZM39.1762 27.4066C38.1041 27.8465 37.0824 28.2599 36.0666 28.6821C35.639 28.8592 35.2261 28.8622 34.7925 28.6909C33.0996 28.0237 31.3978 27.3712 29.7019 26.7069C29.5594 26.6508 29.4435 26.6538 29.3039 26.7099C27.5546 27.3889 25.8053 28.0591 24.056 28.7411C23.7441 28.8622 23.4619 28.8592 23.1501 28.7411C21.3859 28.0562 19.6188 27.383 17.8516 26.7128C17.7417 26.6715 17.5903 26.6685 17.4804 26.7128C15.7578 27.3712 14.0381 28.0355 12.3215 28.7116C11.9027 28.8769 11.5166 28.8799 11.1008 28.6998C10.1415 28.2835 9.17029 27.8908 8.20207 27.4864C8.15158 27.4657 8.09515 27.4509 8.00011 27.4214C8.07139 27.5661 8.11891 27.6724 8.17534 27.7727C8.5852 28.502 9.19702 29.0245 9.92171 29.4261C11.1364 30.0992 12.4551 30.3443 13.8302 30.3443C20.3167 30.3443 26.8032 30.3502 33.2867 30.3354C33.9787 30.3354 34.6796 30.2527 35.3568 30.114C36.5567 29.8689 37.6437 29.3641 38.505 28.4606C38.7842 28.1684 39.0188 27.8436 39.1762 27.4096V27.4066ZM19.0485 35.0504C19.8475 35.0504 20.5216 34.4569 20.5454 33.7336C20.5692 33.025 20.0227 32.4109 19.2861 32.3135C18.4902 32.2102 17.7595 32.656 17.5873 33.3468C17.3675 34.2266 18.0773 35.0504 19.0485 35.0474V35.0504ZM29.6217 33.7867C29.6306 32.9335 28.998 32.3312 28.1753 32.2987C27.5071 32.2722 26.8982 32.6707 26.6963 33.2701C26.5092 33.8281 26.7141 34.4333 27.2309 34.7787C27.7477 35.1212 28.3031 35.1537 28.8555 34.8732C29.3396 34.6311 29.6039 34.2296 29.6217 33.7867ZM23.5986 35.0326C24.5222 35.0326 25.2261 34.2739 25.0687 33.4384C24.947 32.7859 24.3827 32.3283 23.6609 32.2899C22.9808 32.2544 22.3393 32.6855 22.1611 33.2966C21.9027 34.1735 22.6125 35.0297 23.5986 35.0297V35.0326Z" fill="black"/>
<path d="M0.284045 46.3846C0.257315 46.3609 0.230585 46.3373 0.186035 46.296C0.278105 46.2428 0.367205 46.1897 0.459275 46.1425C1.80469 45.4723 3.2392 45.0589 4.68856 44.7017C7.79518 43.937 10.9493 43.4765 14.1302 43.1487C16.5686 42.8978 19.0129 42.7443 21.4661 42.6941C21.4958 42.6941 21.5255 42.6882 21.576 42.6823V40.5211C21.475 40.5211 21.3829 40.5211 21.2909 40.5211C20.0613 40.5211 18.8317 40.5241 17.6021 40.5211C17.017 40.5211 16.6161 40.1196 16.6369 39.5793C16.6517 39.1158 17.023 38.7408 17.4922 38.7172C17.5784 38.7143 17.6645 38.7143 17.7506 38.7143C21.6443 38.7143 25.535 38.7143 29.4287 38.7143C29.5683 38.7143 29.7138 38.7084 29.8475 38.7408C30.2692 38.8383 30.5543 39.2339 30.5306 39.6561C30.5038 40.1048 30.1831 40.4532 29.7405 40.5093C29.6396 40.5211 29.5386 40.5211 29.4346 40.5211C28.2585 40.5211 27.0854 40.5211 25.9092 40.5211H25.6152V42.6675C25.6449 42.6734 25.6805 42.6882 25.7162 42.6911C27.3497 42.7708 28.9891 42.7945 30.6197 42.9362C32.7788 43.1251 34.9321 43.379 37.0794 43.6595C39.2148 43.937 41.3235 44.3651 43.3996 44.932C44.546 45.2449 45.6776 45.6051 46.7438 46.1454C46.8121 46.1808 46.8834 46.2192 46.9487 46.2576C46.9665 46.2694 46.9784 46.293 46.9933 46.3137C45.7637 46.1425 44.543 45.9535 43.3194 45.8C41.3473 45.5579 39.3752 45.2951 37.3972 45.118C34.7777 44.8847 32.1551 44.6899 29.5267 44.5393C26.4141 44.3592 23.2956 44.3592 20.1771 44.4862C18.214 44.5659 16.2478 44.6604 14.2906 44.7991C12.3066 44.9408 10.3286 45.1268 8.35057 45.3394C6.36661 45.549 4.38859 45.8088 2.4076 46.0568C1.72747 46.1425 1.05031 46.2665 0.373145 46.3727H0.278105L0.284045 46.3846Z" fill="black"/>
<path d="M56.5864 33.4295C56.2033 33.4295 56.0132 33.6509 56.0132 34.0997C56.0132 34.3684 56.1676 34.5219 56.4765 34.5603L57.1062 34.6429L57.121 36.4114H51.2761L51.2612 34.5573H51.5701C52.1106 34.5573 52.5175 34.2414 52.7908 33.6096L55.9182 26.4058H60.3197L63.459 33.5683C63.7471 34.2266 64.2668 34.5573 65.0153 34.5573V36.4114H58.1189V34.6134L58.7486 34.5307C59.0485 34.4924 59.197 34.3418 59.197 34.0702C59.197 33.6421 58.9951 33.4295 58.5941 33.4295H56.5864ZM57.4834 30.0844L56.8389 31.8529H58.1278L57.4834 30.0844Z" fill="black"/>
<path d="M69.791 30.1405V33.8753C69.791 34.1174 69.9306 34.3152 70.2128 34.4746C70.4563 34.6134 70.7088 34.6843 70.9701 34.6843V36.4114H65.6301V34.7108C65.8439 34.6843 66.0726 34.5986 66.3161 34.4599C66.6042 34.3034 66.7497 34.1351 66.7497 33.958L66.7349 29.1367C66.7349 28.8592 66.622 28.6201 66.3993 28.4193C66.1736 28.2185 65.9092 28.1211 65.6003 28.1211V26.394H72.2175L74.1807 31.0617L76.1557 26.394H83.0818V28.1211C82.764 28.1211 82.5026 28.2156 82.2977 28.4075C82.0928 28.5994 81.9888 28.8474 81.9888 29.1544V33.8517C81.9888 34.0938 82.1373 34.2975 82.4373 34.4658C82.6987 34.6134 82.96 34.6902 83.2214 34.6902V36.4173H76.7438V34.7167C76.922 34.7167 77.1448 34.6311 77.4091 34.4599C77.6764 34.2886 77.81 34.1174 77.81 33.9521L77.7952 30.1464C77.7952 30.0431 77.7358 29.9929 77.614 29.9929C77.5576 29.9929 77.5071 30.0579 77.4596 30.1878L75.0212 36.4173H72.666L70.1415 30.1464C70.1147 30.0726 70.0583 30.0343 69.9722 30.0343C69.8504 30.0343 69.791 30.0726 69.791 30.1464V30.1405Z" fill="black"/>
<path d="M89.3752 29.1515V34.0023C89.3752 34.2444 89.5297 34.4481 89.8385 34.6164C90.091 34.7551 90.3523 34.826 90.6226 34.826V36.4144H83.8807V34.8673C84.2549 34.8673 84.5965 34.7138 84.9054 34.4067C84.9707 34.3329 85.0034 34.2119 85.0034 34.0436L84.9885 29.1397C84.9885 28.8622 84.8757 28.623 84.6529 28.4223C84.4302 28.2215 84.1629 28.1241 83.854 28.1241V26.3969H90.486V28.1241C90.1682 28.1241 89.9039 28.2185 89.693 28.4104C89.4821 28.6024 89.3782 28.8504 89.3782 29.1574L89.3752 29.1515Z" fill="black"/>
<path d="M96.818 32.4965C96.818 32.9424 96.9636 33.3468 97.2517 33.71C97.6259 34.1853 98.1813 34.4215 98.9208 34.4215C99.3218 34.4215 99.6603 34.3477 99.9306 34.2001C100.257 34.0141 100.421 33.7365 100.421 33.3645C100.421 33.0575 100.299 32.8538 100.055 32.7505C99.99 32.7239 99.7376 32.6707 99.298 32.5969V31.0912H105.983V32.5261L105.606 32.5674L105.508 32.6087C105.087 32.7859 104.879 33.0073 104.879 33.2789V36.3583H103.013C102.883 36.0246 102.696 35.8564 102.452 35.8564C102.283 35.8564 102.134 35.8947 102.004 35.9685C99.9752 36.4144 98.4902 36.6387 97.5457 36.6387C95.8172 36.6387 94.3648 36.2018 93.1857 35.3279C91.8492 34.3447 91.181 33.0339 91.181 31.3983C91.181 30.0697 91.7423 28.936 92.862 27.9971C93.8629 27.1616 95.0628 26.6597 96.4646 26.4914C97.1566 26.4087 97.7863 26.3674 98.3565 26.3674C99.3455 26.3674 100.257 26.4973 101.089 26.7571C101.172 26.7748 101.315 26.8221 101.511 26.8959C101.894 27.0642 102.114 27.1468 102.17 27.1468C102.33 27.1468 102.571 26.9579 102.898 26.5741H104.846V30.3354H101.13L101.059 29.6652C101.021 29.3493 100.724 29.0511 100.162 28.7736C99.6663 28.5226 99.2327 28.3986 98.8584 28.3986C98.2793 28.3986 97.7922 28.5817 97.4002 28.9478C97.0081 29.3139 96.8121 29.7863 96.8121 30.362V32.4936L96.818 32.4965Z" fill="black"/>
<path d="M113.388 36.6624C111.576 36.6624 110.023 36.2638 108.734 35.4637C107.219 34.5248 106.462 33.2051 106.462 31.5075C106.462 29.6504 107.157 28.2658 108.55 27.3535C109.726 26.5829 111.303 26.1962 113.275 26.1962C115.247 26.1962 116.794 26.577 118 27.3387C119.458 28.2599 120.186 29.6209 120.186 31.4219C120.186 33.1225 119.452 34.454 117.985 35.4224C116.723 36.249 115.19 36.6624 113.388 36.6624ZM113.388 28.1064C112.77 28.1064 112.295 28.5285 111.959 29.3729C111.707 30.0047 111.582 30.6838 111.582 31.416C111.582 33.6037 112.161 34.699 113.319 34.699C114.478 34.699 115.045 33.6007 115.045 31.4042C115.045 30.672 114.938 29.9988 114.721 29.3877C114.421 28.5344 113.979 28.1093 113.391 28.1093L113.388 28.1064Z" fill="black"/>
<path d="M54.053 43.8986C53.254 43.8986 52.5888 43.6625 52.0571 43.1871C51.5255 42.7118 51.2582 42.1213 51.2582 41.4068C51.2582 40.6924 51.5255 40.1019 52.0571 39.6266C52.5888 39.1542 53.254 38.915 54.053 38.915C54.6292 38.915 55.1281 39.042 55.5528 39.2929C55.9775 39.5468 56.2953 39.8923 56.5151 40.3351H55.3746C55.0479 39.9513 54.6084 39.7565 54.056 39.7565C53.5629 39.7565 53.1501 39.9129 52.8234 40.2259C52.4937 40.5388 52.3304 40.9315 52.3304 41.4039C52.3304 41.8763 52.4937 42.2689 52.8234 42.5819C53.1531 42.8948 53.5629 43.0513 54.056 43.0513C54.4361 43.0513 54.7509 42.9627 55.0004 42.7856C55.2499 42.6085 55.4251 42.3634 55.5202 42.0505H53.7619V41.2061H56.6695C56.6695 42.018 56.426 42.6705 55.936 43.1635C55.4459 43.6536 54.8192 43.8986 54.056 43.8986H54.053Z" fill="black"/>
<path d="M67.4715 39.0125L69.8237 43.8071H68.6921L68.1635 42.7472H65.6954L65.1667 43.8071H64.0767L66.429 39.0125H67.4715ZM66.9339 40.2672L66.1201 41.8999H67.7417L66.9369 40.2672H66.9339Z" fill="black"/>
<path d="M78.7723 39.0125L80.7592 42.7886L82.7462 39.0125H83.9609V43.8071H82.8947V40.8046L81.3235 43.8071H80.1682L78.5971 40.8046V43.8071H77.5309V39.0125H78.7783H78.7723Z" fill="black"/>
<path d="M93.355 39.0125V43.8071H92.2888V39.0125H93.355Z" fill="black"/>
<path d="M105.526 39.0125H106.592V43.8071H105.437L102.749 40.4444V43.8071H101.683V39.0125H102.838L105.526 42.3752V39.0125Z" fill="black"/>
<path d="M117.421 43.8986C116.622 43.8986 115.957 43.6625 115.425 43.1871C114.893 42.7118 114.626 42.1213 114.626 41.4068C114.626 40.6924 114.893 40.1019 115.425 39.6266C115.957 39.1542 116.622 38.915 117.421 38.915C117.997 38.915 118.496 39.042 118.921 39.2929C119.346 39.5468 119.663 39.8923 119.883 40.3351H118.743C118.416 39.9513 117.976 39.7565 117.424 39.7565C116.931 39.7565 116.518 39.9129 116.191 40.2259C115.862 40.5388 115.698 40.9315 115.698 41.4039C115.698 41.8763 115.862 42.2689 116.191 42.5819C116.521 42.8948 116.931 43.0513 117.424 43.0513C117.804 43.0513 118.119 42.9627 118.368 42.7856C118.618 42.6085 118.793 42.3634 118.888 42.0505H117.13V41.2061H120.038C120.038 42.018 119.794 42.6705 119.304 43.1635C118.814 43.6566 118.187 43.8986 117.424 43.8986H117.421Z" fill="black"/>
</g>
<defs>
<clipPath id="clip0_993_55">
<rect width="120" height="60" fill="white" transform="translate(0.186035 0.708984)"/>
</clipPath>
</defs>
</svg>
