<svg width="128" height="60" viewBox="0 0 128 60" fill="none" xmlns="http://www.w3.org/2000/svg">
<path fill-rule="evenodd" clip-rule="evenodd" d="M47.8492 19.8053C47.8492 18.2587 45.9359 18.2598 45.249 18.2601H45.2177C44.6357 18.2601 44.2814 18.3118 43.9778 18.3633V21.2987H45.749C46.1286 21.2987 47.824 21.1957 47.8492 19.8053Z" fill="#010101"/>
<path fill-rule="evenodd" clip-rule="evenodd" d="M41.0423 30.2081H50.5819C52.505 30.2081 54.0739 28.6117 54.0739 26.6547V16.947C54.0739 14.9901 52.505 13.3937 50.5819 13.3937H41.0423C39.1192 13.3937 37.5503 14.9901 37.5503 16.947V26.6547C37.5503 28.6117 39.1192 30.2081 41.0423 30.2081ZM42.434 17.0243C42.8642 16.9727 44.2306 16.8183 45.3693 16.8183C45.9513 16.8183 46.9382 16.8183 47.8744 17.2303C48.7348 17.6423 49.4685 18.3633 49.4685 19.6508C49.4685 21.3245 48.2033 21.9425 47.8744 22.097C48.4817 22.406 48.8107 23.1269 49.1649 24.5947C49.342 25.3671 49.6963 26.2684 50.1012 26.7834H48.3046C48.0263 26.4486 47.7226 25.4444 47.5454 24.5947C47.4442 24.0282 47.2924 23.5132 47.0141 23.1785C46.7357 22.8438 46.2297 22.6634 45.6476 22.6634H44.0029V26.7577H42.434V17.0243Z" fill="#010101"/>
<path fill-rule="evenodd" clip-rule="evenodd" d="M27.3277 19.0066L26.189 22.3026H28.5169L27.3782 19.0066H27.3277Z" fill="#010101"/>
<path fill-rule="evenodd" clip-rule="evenodd" d="M35.6019 26.6547V16.947C35.6019 14.9901 34.0331 13.3937 32.1099 13.3937H22.5704C20.6472 13.3937 19.0784 14.9901 19.0784 16.947V26.6547C19.0784 28.6117 20.6472 30.2081 22.5704 30.2081H32.1099C34.0331 30.2081 35.6019 28.6117 35.6019 26.6547ZM30.0603 26.7829C30.0603 26.7829 28.9723 23.6673 28.9723 23.693H25.708L24.6452 26.7829H22.9499L26.5937 16.8437H28.1119L31.7557 26.7829H30.0603Z" fill="#010101"/>
<path fill-rule="evenodd" clip-rule="evenodd" d="M10.728 19.5216C10.728 18.1826 8.93136 18.1826 8.27351 18.1826C7.80486 18.1826 7.5286 18.2071 6.97603 18.256L6.93237 18.2599V20.9378H8.57711C8.95666 20.9378 10.728 20.8606 10.728 19.5216Z" fill="#010101"/>
<path fill-rule="evenodd" clip-rule="evenodd" d="M8.57711 22.354H6.93237V25.3152C6.93237 25.3152 7.56499 25.3667 8.12165 25.3667C9.00733 25.3667 11.0823 25.3152 11.1075 23.796C11.1075 22.354 9.00733 22.354 8.57711 22.354Z" fill="#010101"/>
<path fill-rule="evenodd" clip-rule="evenodd" d="M13.638 13.3937H4.09837C2.17528 13.3937 0.606445 14.9901 0.606445 16.947V26.6547C0.606445 28.6117 2.17528 30.2081 4.09837 30.2081H13.638C15.5612 30.2081 17.13 28.6117 17.13 26.6547V16.947C17.13 14.9901 15.5612 13.3937 13.638 13.3937ZM10.9305 26.4225C10.1714 26.7829 8.75434 26.8087 7.76746 26.8087C6.02147 26.8087 5.33831 26.6285 5.33831 26.6285V17.1012C5.33831 17.1012 6.37572 16.8437 8.19762 16.8437C9.41226 16.8437 10.4244 16.9467 11.1329 17.3845C11.9173 17.8736 12.3222 18.5689 12.3222 19.4958C12.3222 20.7138 11.3712 21.3325 11.1399 21.4831C11.1267 21.4917 11.1159 21.4987 11.1076 21.5044C11.1119 21.5057 11.1171 21.5075 11.1234 21.5096C11.3417 21.5814 12.7517 22.0454 12.727 23.8475C12.727 25.2123 11.9173 25.9848 10.9305 26.4225Z" fill="#010101"/>
<path fill-rule="evenodd" clip-rule="evenodd" d="M100.665 18.2598C100.654 18.2599 100.644 18.2599 100.633 18.2599C100.051 18.2599 99.6972 18.3113 99.3936 18.3628V21.2983H101.165C101.544 21.2983 103.265 21.1953 103.265 19.8048C103.265 18.2583 101.352 18.2595 100.665 18.2598Z" fill="#010101"/>
<path fill-rule="evenodd" clip-rule="evenodd" d="M106.024 13.3937H96.4838C94.5606 13.3937 92.9917 14.9901 92.9917 16.947V26.6547C92.9917 28.6117 94.5606 30.2081 96.4838 30.2081H106.024C107.947 30.2081 109.515 28.6117 109.515 26.6547V16.947C109.515 14.9901 107.947 13.3937 106.024 13.3937ZM103.721 26.7829C103.442 26.4482 103.139 25.444 102.962 24.5943C102.86 24.0278 102.708 23.5128 102.43 23.1781C102.152 22.8433 101.646 22.663 101.064 22.663H99.4189V26.7829H97.8501V17.0496C98.2803 16.9981 99.6467 16.8437 100.785 16.8437C101.367 16.8437 102.354 16.8437 103.29 17.2556C104.151 17.6419 104.885 18.3629 104.885 19.6503C104.885 21.3478 103.622 21.9407 103.292 22.0961L103.29 22.0966C103.898 22.4055 104.201 23.1266 104.581 24.5943C104.783 25.3667 105.112 26.268 105.517 26.7829H103.721Z" fill="#010101"/>
<path fill-rule="evenodd" clip-rule="evenodd" d="M82.8195 19.0066H82.7689L81.6301 22.3026H83.9582L82.8195 19.0066Z" fill="#010101"/>
<path fill-rule="evenodd" clip-rule="evenodd" d="M78.0116 30.2081H87.5511C89.4743 30.2081 91.0431 28.6117 91.0431 26.6547V16.947C91.0431 14.9901 89.4743 13.3937 87.5511 13.3937H78.0116C76.0632 13.3937 74.4943 14.9901 74.5196 16.947V26.6547C74.5196 28.6117 76.0884 30.2081 78.0116 30.2081ZM81.9843 16.8437H83.5279L87.1716 26.7829H85.4763C85.4763 26.7829 84.4135 23.6673 84.4135 23.693H81.0986L80.0359 26.7829H78.3405L81.9843 16.8437Z" fill="#010101"/>
<path fill-rule="evenodd" clip-rule="evenodd" d="M119.713 19.0066L118.575 22.3026H120.902L119.764 19.0066H119.713Z" fill="#010101"/>
<path fill-rule="evenodd" clip-rule="evenodd" d="M124.496 13.3937H114.956C113.032 13.3937 111.463 14.9901 111.463 16.947V26.6547C111.463 28.6117 113.032 30.2081 114.956 30.2081H124.496C126.418 30.2081 127.987 28.6117 127.987 26.6547V16.947C127.987 14.9901 126.418 13.3937 124.496 13.3937ZM122.446 26.7829C122.446 26.7829 121.357 23.6673 121.357 23.693H118.068L117.005 26.7829H115.31L118.953 16.8437H120.497L124.141 26.7829H122.446Z" fill="#010101"/>
<path fill-rule="evenodd" clip-rule="evenodd" d="M66.1187 19.5216C66.1187 18.1826 64.3474 18.1826 63.6895 18.1826C63.2209 18.1826 62.9446 18.2071 62.392 18.256L62.3484 18.2599V20.9378H63.9679C64.3474 20.9378 66.1187 20.8606 66.1187 19.5216Z" fill="#010101"/>
<path fill-rule="evenodd" clip-rule="evenodd" d="M66.5235 23.796C66.5235 22.354 64.4233 22.354 63.9931 22.354H62.3484V25.3152C62.3484 25.3152 62.981 25.3667 63.5377 25.3667C64.4486 25.3667 66.5235 25.3152 66.5235 23.796Z" fill="#010101"/>
<path fill-rule="evenodd" clip-rule="evenodd" d="M59.5144 30.2081H69.0541C70.9772 30.2081 72.5461 28.6117 72.5461 26.6547V16.947C72.5461 14.9901 70.9772 13.3937 69.0541 13.3937H59.5144C57.5914 13.3937 56.0225 14.9901 56.0225 16.947V26.6547C56.0225 28.6117 57.5914 30.2081 59.5144 30.2081ZM60.7796 17.1012C60.7796 17.1012 61.8172 16.8437 63.639 16.8437C64.8536 16.8437 65.8657 16.9467 66.5743 17.3845C67.3587 17.8736 67.7635 18.5689 67.7635 19.4958C67.7635 20.7138 66.8125 21.3325 66.5813 21.4831C66.568 21.4917 66.5572 21.4987 66.549 21.5044C66.5558 21.5071 66.5668 21.511 66.5814 21.5163C66.8356 21.6074 68.1924 22.0941 68.1685 23.8475C68.1685 25.2123 67.3587 25.9848 66.3719 26.4225C65.6128 26.7829 64.1957 26.8087 63.2088 26.8087C61.4629 26.8087 60.7796 26.6285 60.7796 26.6285V17.1012Z" fill="#010101"/>
<path fill-rule="evenodd" clip-rule="evenodd" d="M78.5201 31.8818H68.9805C67.0574 31.8818 65.4885 33.4784 65.4885 35.4354V45.1429C65.4885 47.0999 67.0574 48.6964 68.9805 48.6964H78.5201C80.4432 48.6964 82.0121 47.0999 82.0121 45.1429V35.4354C82.0121 33.4784 80.4432 31.8818 78.5201 31.8818ZM77.3561 45.2713H75.7873L71.7386 38.2674V45.2713H70.1698V35.3319H71.7386L75.7873 42.3358V35.3319H77.3561V45.2713Z" fill="#010101"/>
<path fill-rule="evenodd" clip-rule="evenodd" d="M96.9416 31.8818H87.4019C85.4788 31.8818 83.9099 33.4784 83.9099 35.4354V45.1429C83.9099 47.0999 85.4788 48.6964 87.4019 48.6964H96.9416C98.8646 48.6964 100.434 47.0999 100.434 45.1429V35.4354C100.434 33.4784 98.8646 31.8818 96.9416 31.8818ZM96.2583 44.551C95.4739 44.9888 94.4617 45.2205 93.1966 45.2205C89.3756 45.2205 87.908 42.9804 87.908 40.2509C87.908 37.5214 89.8816 35.2812 93.1966 35.2812C94.2847 35.2812 95.1703 35.41 96.0306 35.8734L95.5498 37.2382C94.8919 36.8777 94.1075 36.6975 93.1966 36.6975C90.9445 36.6975 89.6033 38.2939 89.6033 40.2767C89.6033 42.2594 90.5902 43.8558 93.1966 43.8558C93.7532 43.8558 94.234 43.7786 94.6642 43.6499V41.2809H92.6399V39.8647L96.2583 39.8131V44.551Z" fill="#010101"/>
<path fill-rule="evenodd" clip-rule="evenodd" d="M55.3416 37.4949L54.2029 40.7908H56.5309L55.3922 37.4949H55.3416Z" fill="#010101"/>
<path fill-rule="evenodd" clip-rule="evenodd" d="M60.1494 31.8818H50.6097C48.6613 31.8818 47.0924 33.4784 47.1177 35.4354V45.1429C47.1177 47.0999 48.6865 48.6964 50.6097 48.6964H60.1494C62.0724 48.6964 63.6412 47.0999 63.6412 45.1429V35.4354C63.6412 33.4784 62.0724 31.8818 60.1494 31.8818ZM58.0744 45.2713C58.0744 45.2713 57.0116 42.1813 56.961 42.1813H53.6967L52.634 45.2713H50.9387L54.5825 35.3319H56.126L59.7698 45.2713H58.0744Z" fill="#010101"/>
<path fill-rule="evenodd" clip-rule="evenodd" d="M38.8179 38.0356C38.8179 36.6967 37.0467 36.6967 36.3887 36.6967C35.92 36.6967 35.6438 36.7211 35.0911 36.77L35.0476 36.7739V39.4518H36.667C37.0467 39.4518 38.8179 39.3745 38.8179 38.0356Z" fill="#010101"/>
<path fill-rule="evenodd" clip-rule="evenodd" d="M36.667 40.868H35.0476V43.8292C35.0476 43.8292 35.6802 43.855 36.2368 43.855C37.1226 43.855 39.1975 43.8036 39.1975 42.3101C39.1975 40.868 37.0972 40.868 36.667 40.868Z" fill="#010101"/>
<path fill-rule="evenodd" clip-rule="evenodd" d="M41.7532 31.8818H32.2135C30.2904 31.8818 28.7217 33.4784 28.7217 35.4354V45.1429C28.7217 47.0999 30.2904 48.6964 32.2135 48.6964H41.7532C43.6764 48.6964 45.2452 47.0999 45.2452 45.1429V35.4354C45.2452 33.4784 43.6764 31.8818 41.7532 31.8818ZM39.071 44.9107C38.3118 45.2713 36.8949 45.297 35.908 45.297C34.1621 45.297 33.4788 45.1167 33.4788 45.1167V35.5894C33.4788 35.5894 34.5163 35.3319 36.3382 35.3319C37.5528 35.3319 38.565 35.4349 39.2735 35.8726C40.0579 36.3619 40.4627 37.0571 40.4627 37.9842C40.4627 39.202 39.5118 39.8208 39.2805 39.9714C39.2672 39.98 39.2563 39.987 39.2481 39.9926C39.2609 40.0003 39.2874 40.0118 39.3249 40.0279C39.6597 40.1718 40.8676 40.6914 40.8676 42.3358C40.8676 43.7005 40.0579 44.473 39.071 44.9107Z" fill="#010101"/>
</svg>
