<svg width="128" height="60" viewBox="0 0 128 60" fill="none" xmlns="http://www.w3.org/2000/svg">
<path d="M15.8032 52.9628H22.2292V56.6458H11.3582V47.6548H23.0412V45.7998H10.7992L9.32617 47.2738V57.0268L10.7992 58.4998H22.7122L24.1852 57.0268V51.1088H15.8032V52.9628Z" fill="black"/>
<path d="M37.0335 45.7998L29.3125 57.2798V58.4988H31.0395L32.9955 55.4508H42.9515L44.9075 58.4988H46.6345V57.2798L38.9135 45.7998H37.0335ZM34.2145 53.5978L37.9735 47.7558L41.7325 53.5978H34.2145Z" fill="black"/>
<path d="M65.5067 45.7998L61.4427 56.1628L57.4047 45.7998H54.9407L51.5117 57.2808V58.4998H53.4417L56.2357 47.9598L60.3757 58.4998H62.5097L66.6747 47.9598L69.4687 58.4998H71.3987V57.2808L67.9697 45.7998H65.5067Z" fill="black"/>
<path d="M76.834 57.0268L78.307 58.4998H90.625V56.6458H78.865V52.9628H89.914V51.1088H78.865V47.6548H90.625V45.7998H76.834V57.0268Z" fill="black"/>
<path d="M99.159 49.9658V47.6548H111.884V45.7998H98.6L97.127 47.2738V50.3468L98.6 51.8198L111.3 53.8518V56.6458H97.127V58.4998H111.859L113.332 57.0268V53.4458L111.91 52.0238L99.159 49.9658Z" fill="black"/>
<path d="M79.3292 5.59L85.7732 1H127.394L125.201 6.421C124.11 9.122 121.488 10.89 118.575 10.89H89.8452L87.6362 16.429H113.332L111.437 21.12C110.303 23.928 106.944 27.269 103.915 27.269H83.2302L79.6642 36.095C78.5732 38.795 75.9532 40.562 73.0412 40.562H65.1992L79.3302 5.588L79.3292 5.59Z" fill="black"/>
<path d="M25.7298 14.0408C16.9988 15.0518 14.0728 17.1357 9.6998 25.4587C9.3378 26.1477 8.3368 26.1477 8.5308 25.4587C10.8828 17.1357 9.6408 15.0518 1.7268 14.0408C1.0718 13.9568 1.4758 12.9557 2.1988 12.8717C10.9298 11.8617 13.8568 9.83975 18.2288 1.51675C18.5908 0.82775 19.5918 0.82775 19.3978 1.51675C17.0458 9.83975 18.2878 11.8607 26.2018 12.8717C26.8568 12.9557 26.4528 13.9578 25.7298 14.0408Z" fill="black"/>
<path d="M17.294 20.8401L17.298 20.8291C17.298 20.8291 17.294 20.8371 17.293 20.8401H17.294Z" fill="black"/>
<path d="M69.7802 1.00002H25.3112L23.1092 6.44902C22.5782 7.76202 22.9602 9.29902 24.1002 10.139C24.1142 10.15 24.1292 10.16 24.1432 10.171C24.8072 10.652 25.6172 10.89 26.4362 10.89H57.7132L55.4752 16.429C55.4752 16.429 23.7202 16.4 23.3332 16.446C22.4522 16.505 21.6052 16.727 20.8282 17.088C19.2622 17.816 17.9822 19.109 17.2882 20.767L17.2952 20.839L9.32617 40.563H54.9122C57.7652 40.563 60.3372 38.847 61.4332 36.213L66.0432 25.133L63.3872 20.543L66.3342 18.405C67.2602 17.733 67.9782 16.815 68.4072 15.755L72.5142 5.58802L69.7792 0.999023L69.7802 1.00002ZM51.1452 30.673H25.9832L28.4132 24.66H53.5752L51.1452 30.673Z" fill="black"/>
</svg>
