<svg width="128" height="60" viewBox="0 0 128 60" fill="none" xmlns="http://www.w3.org/2000/svg">
<path d="M67.4802 5.48022H115.65C115.62 5.81022 115.58 6.13021 115.52 6.45021C115.52 6.49021 115.51 6.53021 115.5 6.58021C115.47 6.72021 115.45 6.86022 115.42 7.01022C115.4 7.11022 115.38 7.21022 115.37 7.32022C115.32 7.60022 115.27 7.88021 115.22 8.15021C115.17 8.44021 115.12 8.74021 115.06 9.03021C114.96 9.59021 114.86 10.1402 114.76 10.7002C114.65 11.3302 114.54 11.9502 114.43 12.5802C114.16 14.0902 113.97 15.1702 113.85 15.8302C113.85 15.8802 113.83 15.9302 113.82 15.9802C113.8 16.0802 113.78 16.1802 113.77 16.2802C113.72 16.5802 113.66 16.8802 113.61 17.1802C113.58 17.3702 113.54 17.5602 113.51 17.7502C113.49 17.8402 113.48 17.9302 113.46 18.0202C113.44 18.1402 113.42 18.2602 113.4 18.3802C113.4 18.4202 113.39 18.4502 113.38 18.4902C113.35 18.6502 113.32 18.7702 113.28 18.8502C102.44 18.8702 91.4902 18.8902 80.4302 18.9002C79.3802 24.8102 78.3202 30.7102 77.2702 36.6202C77.1802 37.1302 77.0902 37.6502 77.0002 38.1602C76.9402 38.4702 76.8902 38.7802 76.8302 39.1002C76.8002 39.2902 76.7602 39.4702 76.7302 39.6602C76.7102 39.7502 76.7002 39.8302 76.6802 39.9202C76.6602 40.0402 76.6402 40.1502 76.6202 40.2702C76.6202 40.3302 76.6002 40.4002 76.5902 40.4702C76.5702 40.5702 76.5402 40.6502 76.5102 40.7202H94.2002C94.2202 40.5702 94.2302 40.4102 94.2502 40.2602C94.2502 40.1802 94.2702 40.1102 94.2902 40.0302C94.2902 39.9902 94.2902 39.9502 94.3102 39.9102C94.3102 39.8702 94.3302 39.8302 94.3302 39.7802C94.3302 39.7302 94.3502 39.6902 94.3502 39.6402C94.3802 39.4902 94.4002 39.3502 94.4302 39.2002C94.4502 39.1102 94.4602 39.0202 94.4802 38.9202C94.5402 38.5802 94.6002 38.2402 94.6602 37.9102C94.7902 37.1602 94.9302 36.3902 95.0702 35.6202H87.6902C87.7202 35.2902 87.7502 34.9802 87.8102 34.6602C87.8102 34.6202 87.8202 34.5902 87.8302 34.5502C87.8502 34.4302 87.8702 34.3102 87.8902 34.2002C87.9102 34.1102 87.9202 34.0302 87.9402 33.9402L88.0602 33.2502C88.1002 33.0102 88.1502 32.7602 88.1902 32.5202C88.2702 32.0602 88.3602 31.5902 88.4402 31.1302C88.5302 30.6102 88.6302 30.0902 88.7202 29.5702C88.8302 28.9302 88.9502 28.3002 89.0602 27.6602C89.0602 27.6102 89.0802 27.5702 89.0802 27.5202C89.1202 27.3002 89.1602 27.0802 89.2002 26.8602C89.2702 26.4602 89.3502 26.0502 89.4202 25.6502C89.4502 25.4602 89.4902 25.2702 89.5202 25.0802C89.5402 24.9902 89.5502 24.9002 89.5702 24.8102C89.5902 24.6902 89.6102 24.5602 89.6402 24.4402C89.6402 24.4002 89.6502 24.3702 89.6602 24.3302C89.6902 24.1602 89.7302 24.0402 89.7602 23.9602H112.35C112.32 24.3002 112.29 24.6102 112.23 24.9402C112.23 24.9802 112.22 25.0202 112.21 25.0502C112.19 25.1802 112.17 25.3002 112.14 25.4302C112.12 25.5202 112.11 25.6102 112.09 25.7002C112.05 25.9502 112 26.2002 111.96 26.4502C111.91 26.7202 111.86 26.9902 111.82 27.2502C111.73 27.7702 111.63 28.2902 111.54 28.8102C111.42 29.4702 111.3 30.1402 111.18 30.8002C111.14 31.0502 111.09 31.2902 111.05 31.5402C111.04 31.6002 111.03 31.6602 111.02 31.7202C110.95 32.0902 110.89 32.4702 110.82 32.8402C110.55 34.3802 110.27 35.9102 110 37.4502C109.93 37.8202 109.87 38.1902 109.8 38.5702C109.8 38.6202 109.78 38.6702 109.77 38.7302C109.73 38.9302 109.7 39.1402 109.66 39.3402C109.56 39.9302 109.45 40.5202 109.35 41.1102C109.29 41.4802 109.22 41.8402 109.16 42.2102C109.12 42.4202 109.09 42.6302 109.05 42.8402C109.02 43.0302 108.98 43.2202 108.95 43.4102C108.93 43.5102 108.91 43.6102 108.9 43.7102C108.84 44.0302 108.77 44.3202 108.65 44.6202C108.62 44.7102 108.59 44.8002 108.56 44.8802C108.34 45.5502 108.08 46.2002 107.77 46.8302C107.75 46.8702 107.73 46.9002 107.72 46.9402C107.19 48.0202 106.48 49.0202 105.67 49.9002C105.6 49.9802 105.52 50.0602 105.45 50.1402C104.87 50.8102 104.2 51.3502 103.49 51.8702C103.44 51.9102 103.39 51.9402 103.34 51.9802C103.22 52.0702 103.1 52.1502 102.97 52.2302C102.92 52.2602 102.88 52.2902 102.83 52.3202C101.21 53.3502 99.4002 54.0402 97.5002 54.3402C97.4602 54.3402 97.4302 54.3402 97.3902 54.3602C96.4502 54.5102 95.5102 54.5002 94.5602 54.5002H58.7202C59.2302 51.5902 59.6002 49.4502 59.8502 48.0802C59.9002 47.8202 59.9402 47.5602 59.9902 47.3002C60.0702 46.8602 60.1502 46.4102 60.2302 45.9702C60.3602 45.2602 60.4802 44.5402 60.6102 43.8302C60.6402 43.6502 60.6802 43.4602 60.7102 43.2802C60.7302 43.1602 60.7502 43.0302 60.7802 42.9102C60.8602 42.4702 60.9402 42.0402 61.0102 41.6002C61.3002 39.9802 61.5902 38.3702 61.8702 36.7502C61.8702 36.7002 61.8902 36.6402 61.9002 36.5902C62.0102 35.9502 62.1302 35.3102 62.2402 34.6702C62.4202 33.6502 62.6002 32.6202 62.7902 31.6002C62.7902 31.5502 62.8102 31.4902 62.8202 31.4402C63.1302 29.7202 63.4302 28.0002 63.7402 26.2902C63.7502 26.2402 63.7602 26.1802 63.7702 26.1202C63.9402 25.1502 64.1202 24.1802 64.2902 23.2102C64.7902 20.4202 65.2902 17.6302 65.7802 14.8402C65.7902 14.7702 65.8002 14.7102 65.8202 14.6402C66.0502 13.3602 66.2702 12.0802 66.5002 10.8102C66.5802 10.3402 66.6702 9.87021 66.7502 9.40021C66.8002 9.13021 66.8502 8.86022 66.8902 8.59022C66.9802 8.08022 67.0702 7.57022 67.1602 7.05022C67.2002 6.81022 67.2502 6.57022 67.2902 6.32022C67.3102 6.22022 67.3302 6.11022 67.3502 6.01022C67.3502 5.97022 67.3702 5.92021 67.3702 5.87021C67.4002 5.68021 67.4402 5.54021 67.4802 5.47021V5.48022Z" fill="black"/>
<path d="M32.8601 5.47021H62.1701C62.0301 6.32021 61.8901 7.18021 61.7301 8.03021C61.7101 8.12021 61.7001 8.21021 61.6801 8.30021C61.6401 8.54021 61.5901 8.78021 61.5501 9.02021C61.5001 9.28021 61.4601 9.53021 61.4101 9.79021C61.3301 10.2202 61.2601 10.6502 61.1801 11.0802C61.0901 11.5702 61.0001 12.0602 60.9201 12.5502C60.8301 13.0802 60.7301 13.6102 60.6401 14.1402C60.6101 14.2902 60.5901 14.4402 60.5601 14.5902L60.5101 14.8802C60.5101 14.8802 60.5001 14.9602 60.4901 15.0002C60.2601 16.2702 60.0301 17.5502 59.8001 18.8202H34.4301C34.4001 19.0602 34.3601 19.3002 34.3301 19.5402C34.0701 20.9702 33.8201 22.4002 33.5601 23.8702C41.9201 23.8902 50.2701 23.9002 58.8801 23.9202C58.8001 24.4702 58.7401 24.8802 58.6901 25.1302C58.6901 25.1302 58.6701 25.2202 58.6701 25.2602C58.6401 25.4102 58.6201 25.5502 58.5901 25.7002C58.5701 25.8102 58.5501 25.9102 58.5301 26.0202C58.4801 26.3002 58.4301 26.5902 58.3801 26.8702C58.3301 27.1702 58.2701 27.4702 58.2201 27.7602L57.9501 29.2602C57.8501 29.8402 57.7401 30.4202 57.6401 30.9902C57.5401 31.5502 57.4401 32.1002 57.3401 32.6602C57.3001 32.9002 57.2601 33.1302 57.2101 33.3702C57.1601 33.6502 57.1101 33.9302 57.0601 34.2002C57.0401 34.3002 57.0201 34.4002 57.0101 34.5102C56.9901 34.6502 56.9601 34.7902 56.9401 34.9302C56.9401 34.9702 56.9301 35.0102 56.9201 35.0502C56.8901 35.2202 56.8501 35.3902 56.8101 35.5602H31.4401C31.4101 35.8002 31.3701 36.0402 31.3401 36.2802C31.3201 36.4102 31.3001 36.5402 31.2701 36.6602C31.2701 36.6902 31.2601 36.7302 31.2501 36.7602C31.2301 36.8702 31.2101 36.9702 31.1901 37.0802C31.1801 37.1602 31.1601 37.2402 31.1501 37.3202C31.1101 37.5302 31.0701 37.7502 31.0401 37.9602C31.0001 38.1902 30.9601 38.4202 30.9201 38.6502C30.8401 39.1002 30.7601 39.5502 30.6801 39.9902C30.5901 40.5102 30.4901 41.0302 30.4001 41.5502C30.2201 42.5702 30.0401 43.5902 29.8601 44.6002C29.7301 45.3202 29.6001 46.0502 29.4701 46.7702C29.2901 47.7602 29.1201 48.7402 28.9401 49.7302C28.9001 49.9502 28.8601 50.1702 28.8201 50.3902C28.7401 50.8502 28.6601 51.3102 28.5701 51.7702C28.5401 51.9602 28.5001 52.1502 28.4701 52.3402C28.4301 52.5402 28.4001 52.7502 28.3601 52.9502C28.3501 53.0102 28.3401 53.0702 28.3301 53.1302C28.2501 53.5802 28.1701 54.0202 28.0801 54.4702H12.3501C12.3501 54.2102 12.3501 54.0202 12.4001 53.7702C12.4101 53.7002 12.4301 53.6402 12.4401 53.5702C12.4501 53.5002 12.4701 53.4302 12.4801 53.3502C12.4901 53.2702 12.5101 53.2002 12.5201 53.1202C12.5601 52.9102 12.6001 52.6902 12.6301 52.4802C12.6701 52.2502 12.7101 52.0202 12.7501 51.7902C12.8201 51.3902 12.8901 50.9902 12.9601 50.5902C13.0801 49.9502 13.1901 49.3002 13.3101 48.6602C13.3501 48.4402 13.3901 48.2202 13.4301 47.9902C13.4301 47.9302 13.4501 47.8802 13.4601 47.8202C13.5301 47.4202 13.6001 47.0202 13.6701 46.6202C13.9501 45.0702 14.2201 43.5302 14.5001 41.9802C14.5001 41.9302 14.5201 41.8802 14.5301 41.8202C14.6201 41.2902 14.7201 40.7602 14.8101 40.2302C15.0001 39.1502 15.2001 38.0602 15.3901 36.9802C15.4201 36.8102 15.4501 36.6502 15.4801 36.4802C15.7901 34.7502 16.1001 33.0202 16.4101 31.2902C16.4201 31.2302 16.4301 31.1702 16.4401 31.1102C16.6101 30.1702 16.7801 29.2202 16.9501 28.2802C17.5201 25.0802 18.0901 21.8902 18.6601 18.6902C18.6601 18.6502 18.6701 18.6102 18.6801 18.5702C18.8601 17.5902 19.0301 16.6002 19.2101 15.6202H19.3101C19.3101 15.6202 19.3101 15.5202 19.3301 15.4702C19.4501 14.6602 19.8401 13.8702 20.1901 13.1402C20.2101 13.1002 20.2301 13.0602 20.2501 13.0202C20.8201 11.8602 21.5601 10.8102 22.4401 9.87021C22.5401 9.76021 22.6401 9.65021 22.7301 9.54021C22.8601 9.38021 23.0101 9.25021 23.1701 9.11021C23.3001 9.00021 23.4201 8.88021 23.5401 8.77021C26.0801 6.46021 29.4701 5.38021 32.8601 5.39021V5.47021Z" fill="black"/>
</svg>
