<svg width="128" height="60" viewBox="0 0 128 60" fill="none" xmlns="http://www.w3.org/2000/svg">
<path d="M70.9906 17.1328C70.9096 16.7968 70.7366 16.4108 70.5636 16.1148C70.4416 13.7028 67.6026 11.8008 64.1326 11.7598C60.6626 11.8008 57.8236 13.7028 57.7016 16.1148C57.5286 16.4508 57.4066 16.7968 57.2746 17.1328C57.1526 17.6008 57.1016 17.7638 57.1016 18.2318C57.1016 18.9948 57.5696 19.6258 57.4376 20.3888C57.3966 20.6838 57.2646 21.0198 57.3156 21.3148C57.3566 21.7828 57.6916 22.1598 58.0786 22.4548C58.7096 22.8818 59.3916 23.2178 60.0216 23.5948C60.4486 23.8488 60.3576 24.2258 60.3166 24.6938V25.7928C60.3166 25.9148 60.3576 26.0068 60.3976 26.1288C60.5706 26.6378 60.9466 27.0548 61.4966 27.2278H61.5776C61.7506 27.2278 61.8726 27.1058 61.8726 26.9328V25.9148C62.2486 25.9148 62.5546 26.2098 62.5546 26.5968V26.8918C62.5546 27.2278 62.6356 27.2678 63.1036 27.2678H63.3986C63.5716 27.2678 63.7346 27.0948 63.7346 26.9318V26.2498C63.7346 26.0768 63.8566 25.9138 64.0296 25.9138C64.2026 25.9138 64.3246 26.0868 64.3246 26.2498V26.9318C64.3246 27.1048 64.4976 27.2678 64.6606 27.2678H64.9556C65.3826 27.2678 65.4646 27.2268 65.5046 26.8918V26.5968C65.5046 26.2208 65.7996 25.9148 66.1866 25.9148V26.9728C66.1866 27.1458 66.3086 27.2678 66.4816 27.2678H66.5626C67.1116 27.0948 67.5396 26.6778 67.6616 26.1688C67.7026 26.0468 67.7026 25.9548 67.7426 25.8328V24.7338C67.7016 24.2248 67.6616 23.8888 68.0376 23.6348C68.6686 23.2078 69.3506 22.9128 69.9806 22.4948C70.3566 22.2408 70.7026 21.8128 70.7436 21.3548C70.7846 21.0188 70.6626 20.7238 70.6216 20.4288C70.5406 19.6658 70.9576 18.9938 70.9576 18.2718C71.0796 17.7628 71.0796 17.5898 70.9576 17.1318L70.9906 17.1328ZM63.0746 21.1518C62.9936 21.2738 62.9016 21.4468 62.7796 21.5788C62.7386 21.6198 62.7386 21.6598 62.6986 21.6598C62.6576 21.7408 62.5766 21.8328 62.4846 21.9138C62.2706 22.1278 61.9756 22.2498 61.6396 22.2898C61.2636 22.3308 60.9176 22.2898 60.5816 22.2088C59.7776 21.9548 59.1876 21.1908 59.1466 20.3468V20.2248C59.1466 19.0848 60.0726 18.1488 61.2226 18.1488C62.3726 18.1488 63.2986 19.0748 63.2986 20.2248C63.3396 20.5198 63.2576 20.8558 63.0846 21.1508H63.0746V21.1518ZM64.7636 23.7358C64.7636 23.7358 64.6826 23.6948 64.6416 23.6548C64.5196 23.5328 64.3876 23.3188 64.1736 23.2788H64.0516C63.8786 23.3198 63.7156 23.5328 63.5836 23.6548C63.5426 23.6958 63.5026 23.7358 63.4616 23.7358C63.2476 23.7768 63.4206 23.1458 63.5426 22.6778C63.6236 22.4238 63.7156 22.2098 63.7566 22.1288C63.7976 22.0878 63.7976 22.0068 63.8376 21.9558C63.8786 21.9148 63.9186 21.8338 63.9596 21.7828C63.9596 21.7828 64.0006 21.7418 64.0406 21.7418C64.0806 21.7418 64.0816 21.7008 64.1216 21.7008H64.1626C64.1626 21.7008 64.2036 21.7008 64.2036 21.7418L64.2446 21.7828L64.2856 21.8238C64.2856 21.8238 64.3666 21.9048 64.4076 21.9968C64.4486 22.0378 64.4486 22.0778 64.4886 22.1188C64.5286 22.1598 64.6106 22.3728 64.7026 22.6678C64.8246 23.1358 64.9976 23.7668 64.7436 23.7258L64.7636 23.7358ZM69.0776 20.3068C69.0366 21.1518 68.4466 21.9148 67.6426 22.1688C67.3066 22.2498 66.9206 22.2908 66.5846 22.2498C66.2896 22.2088 65.9946 22.1278 65.7396 21.8738C65.6586 21.7928 65.6176 21.7008 65.5256 21.6198C65.4846 21.5788 65.4846 21.5388 65.4446 21.5388C65.3226 21.4168 65.2306 21.2848 65.1496 21.1118C64.6406 20.0938 65.0276 18.8728 66.0346 18.3238C67.0526 17.8148 68.2736 18.2018 68.8226 19.2088C68.9956 19.5038 69.0366 19.8398 69.0366 20.1348C69.0636 20.2158 69.0776 20.2738 69.0776 20.3078V20.3068Z" fill="black"/>
<path d="M54.2322 11.0481C51.3522 10.9671 48.4322 10.9261 45.4302 10.9671C43.1912 10.9671 40.9832 11.0081 38.8262 11.0481V10.6211H54.2312L54.2322 11.0481Z" fill="black"/>
<path d="M50.7625 28.0909C51.3525 27.7549 51.9425 27.4599 52.4925 27.0729C52.8685 26.8189 53.2145 26.3909 53.2555 25.9329C53.2965 25.5969 53.1745 25.3019 53.1335 25.0069C53.0525 24.2439 53.4695 23.5719 53.4695 22.8499C53.4695 22.3819 53.4695 22.2189 53.2965 21.7509C53.2155 21.4149 53.0425 21.0289 52.8695 20.7329C52.7475 18.3209 49.9085 16.4189 46.4385 16.3779C42.9685 16.4189 40.1295 18.3209 40.0075 20.7329C39.8345 21.0689 39.7125 21.4149 39.5805 21.7509C39.4585 22.2189 39.4075 22.3819 39.4075 22.8499C39.4075 23.6129 39.8755 24.2439 39.7435 25.0069C39.7025 25.3019 39.5705 25.6379 39.6215 25.9329C39.6625 26.4009 39.9975 26.7779 40.3845 27.0729C40.9335 27.4489 41.5245 27.7549 42.1145 28.0909C40.9745 28.0909 39.7845 28.0499 38.6445 28.0099V28.4369H54.0495V28.0099C53.0725 28.0509 51.9335 28.0509 50.7525 28.0909H50.7625ZM45.4715 25.7199C45.3905 25.8419 45.2985 26.0149 45.1765 26.1469C45.1355 26.1879 45.1355 26.2279 45.0955 26.2279C45.0545 26.3089 44.9735 26.4009 44.8815 26.4819C44.6675 26.6959 44.3725 26.8179 44.0365 26.8579C43.6605 26.8989 43.3145 26.8579 42.9785 26.7769C42.1745 26.5229 41.5845 25.7589 41.5435 24.9149V24.7929C41.5435 23.6529 42.4695 22.7169 43.6195 22.7169C44.7695 22.7169 45.6955 23.6429 45.6955 24.7929C45.7365 25.0879 45.6545 25.4239 45.4815 25.7189L45.4715 25.7199ZM46.9975 28.0909C46.9165 27.9689 46.7835 27.8369 46.6215 27.7959H46.4995C46.3775 27.8369 46.2455 27.9689 46.1235 28.0909H45.7875C45.7875 27.8769 45.9095 27.5009 46.0015 27.2059C46.0825 26.9519 46.1745 26.7379 46.2155 26.6569C46.2565 26.6159 46.2565 26.5349 46.2965 26.4839C46.3375 26.4429 46.3775 26.3619 46.4185 26.3109C46.4185 26.3109 46.4595 26.2699 46.4995 26.2699C46.5395 26.2699 46.5405 26.2289 46.5805 26.2289H46.6215C46.6215 26.2289 46.6625 26.2289 46.6625 26.2699L46.7035 26.3109C46.7035 26.3109 46.7445 26.3109 46.7445 26.3519C46.7855 26.3929 46.8255 26.4329 46.8665 26.5249C46.9075 26.5659 46.9075 26.6059 46.9475 26.6469C46.9875 26.6879 47.0695 26.9009 47.1615 27.1959C47.2535 27.4909 47.3755 27.8779 47.3755 28.0809H46.9995V28.0909H46.9975ZM50.0395 26.7379C49.7035 26.8189 49.3175 26.8599 48.9815 26.8189C48.6865 26.7779 48.3915 26.6969 48.1365 26.4429C48.0555 26.3619 48.0145 26.2699 47.9225 26.1889C47.8815 26.1479 47.8815 26.1079 47.8415 26.1079C47.7195 25.9859 47.6275 25.8539 47.5465 25.6809C47.0375 24.6629 47.4245 23.4419 48.4315 22.8929C49.4495 22.3839 50.6705 22.7709 51.2195 23.7779C51.3925 24.0729 51.4335 24.4089 51.4335 24.7039V24.8259C51.4335 25.7519 50.8435 26.4739 50.0395 26.7289V26.7379Z" fill="black"/>
<path d="M89.3874 10.6201H73.9824V11.0471H74.8274C74.7054 11.5151 74.6544 11.6781 74.6544 12.1461C74.6544 12.9091 75.1224 13.5401 74.9904 14.3031C74.9494 14.5981 74.8174 14.9341 74.8684 15.2291C74.9094 15.6971 75.2444 16.0741 75.6314 16.3691C76.2624 16.7961 76.9444 17.1321 77.5744 17.5091C78.0014 17.7631 77.9104 18.1401 77.8694 18.6081V19.7071C77.8694 19.8291 77.9104 19.9211 77.9504 20.0431C78.1234 20.5521 78.4994 20.9691 79.0494 21.1421H79.1304C79.3034 21.1421 79.4254 21.0201 79.4254 20.8471V19.7891C79.8014 19.7891 80.1074 20.0841 80.1074 20.4711V20.7661C80.1074 21.1021 80.1884 21.1421 80.6564 21.1421H80.9514C81.1244 21.1421 81.2874 20.9691 81.2874 20.8061V20.1241C81.2874 19.9511 81.4094 19.7881 81.5824 19.7881H81.6234C81.7964 19.7881 81.9184 19.9611 81.9184 20.1241V20.8461C81.9184 21.0191 82.0914 21.1821 82.2544 21.1821H82.5494C82.9764 21.1821 83.0584 21.1411 83.0984 20.8061V20.5111C83.0984 20.1351 83.3934 19.8291 83.7804 19.8291V20.8871C83.7804 21.0601 83.9024 21.1821 84.0754 21.1821H84.1564C84.7054 21.0091 85.1334 20.5921 85.2554 20.0831C85.2964 19.9611 85.2964 19.8691 85.3364 19.7471V18.6481C85.2954 18.1391 85.2554 17.8031 85.6314 17.5491C86.2624 17.1221 86.9444 16.8271 87.5744 16.4091C87.9504 16.1551 88.2964 15.7271 88.3374 15.2691C88.3784 14.9331 88.2564 14.6381 88.2154 14.3431C88.1344 13.5801 88.5514 12.9081 88.5514 12.1861C88.5514 11.7181 88.5514 11.5551 88.3784 11.0871C88.6734 11.0871 88.9274 11.0871 89.2234 11.1281L89.3454 10.6191L89.3874 10.6201ZM80.6674 15.0671C80.5864 15.1891 80.4944 15.3621 80.3724 15.4941C80.3314 15.5351 80.3314 15.5751 80.2914 15.5751C80.2504 15.6561 80.1694 15.7481 80.0774 15.8291C79.8634 16.0431 79.5684 16.1651 79.2324 16.2051C78.8564 16.2461 78.5104 16.2051 78.1744 16.1241C77.3704 15.8701 76.7804 15.1061 76.7394 14.2621V14.1401C76.7394 13.0001 77.6654 12.0641 78.8154 12.0641C79.9654 12.0641 80.8914 12.9901 80.8914 14.1401C80.8914 14.4351 80.8104 14.7711 80.6774 15.0661H80.6674V15.0671ZM82.3564 17.6511C82.3564 17.6511 82.2754 17.6101 82.2344 17.5701C82.1124 17.4481 81.9804 17.2341 81.7664 17.1941H81.6444C81.4714 17.2351 81.3084 17.4481 81.1764 17.5701C81.1354 17.6111 81.0954 17.6511 81.0544 17.6511C80.8404 17.6921 81.0134 17.0611 81.1354 16.5931C81.2164 16.3391 81.3084 16.1251 81.3494 16.0441C81.3904 16.0031 81.3904 15.9221 81.4304 15.8711C81.4714 15.8301 81.5114 15.7491 81.5524 15.6981C81.5524 15.6981 81.5934 15.6571 81.6334 15.6571C81.6734 15.6571 81.6744 15.6161 81.7144 15.6161H81.7554C81.7554 15.6161 81.7964 15.6161 81.7964 15.6571L81.8374 15.6981L81.8784 15.7391C81.8784 15.7391 81.9594 15.8201 82.0004 15.9121C82.0414 15.9531 82.0414 15.9931 82.0814 16.0341C82.1214 16.0751 82.2034 16.2881 82.2954 16.5831C82.3764 17.0511 82.5494 17.6821 82.3364 17.6411L82.3564 17.6511ZM86.6304 14.2221C86.5894 15.0671 85.9994 15.8301 85.1954 16.0841C84.8594 16.1651 84.4734 16.2061 84.1374 16.1651C83.8424 16.1241 83.5474 16.0431 83.2924 15.7891C83.2114 15.7081 83.1704 15.6161 83.0784 15.5351C83.0374 15.4941 83.0374 15.4541 82.9974 15.4541C82.8754 15.3321 82.7834 15.2001 82.7024 15.0271C82.1934 14.0091 82.5804 12.7881 83.5874 12.2391C84.6054 11.7301 85.8264 12.1171 86.3754 13.1241C86.5484 13.4191 86.5894 13.7551 86.5894 14.0501C86.6304 14.1721 86.6304 14.2221 86.6304 14.2221Z" fill="black"/>
<path d="M73.9922 28.0098C76.8722 28.0908 79.7922 28.1318 82.7942 28.0908C85.0332 28.0908 87.2412 28.0498 89.3982 28.0098V28.4368H73.9932L73.9922 28.0098Z" fill="black"/>
<path d="M1.04688 35.1631H11.3749V37.5341H3.75288V41.2171H10.6109V43.5881H3.75288V48.9201H1.04688V35.1631Z" fill="black"/>
<path d="M23.8088 48.4011C23.4728 48.0651 23.2598 47.5971 23.2598 47.0481V35.1631H30.1178C31.3488 35.1631 32.3568 35.4581 33.1198 36.0481C33.8828 36.6381 34.2598 37.4421 34.2598 38.4191V39.3961C34.2598 39.8231 34.1378 40.2411 33.9238 40.6271C33.7098 41.0131 33.3748 41.3491 32.9978 41.6041C33.6288 41.8181 34.1378 42.1941 34.5238 42.7031C34.8998 43.1711 35.1138 43.7611 35.1138 44.3921V45.4101C35.1138 46.4681 34.7378 47.3531 33.9338 47.9941C33.1708 48.6251 32.1128 48.9711 30.7588 48.9711H25.2138C24.6238 48.9301 24.1558 48.7571 23.8198 48.4221L23.8098 48.4021L23.8088 48.4011ZM30.1168 40.8711C30.5438 40.8711 30.8798 40.7491 31.1348 40.4441C31.3898 40.1391 31.5108 39.8131 31.5108 39.3861V38.7041C31.5108 38.3281 31.3888 38.0221 31.0838 37.8191C30.7788 37.6161 30.4528 37.4831 29.9848 37.4831H25.9658V40.8311H30.1168V40.8721V40.8711ZM30.5848 46.5791C31.1748 46.5791 31.6028 46.4571 31.9378 46.2431C32.2328 46.0291 32.4058 45.6941 32.4058 45.2661V44.4211C32.4058 44.0451 32.2838 43.7391 31.9788 43.4951C31.6738 43.2511 31.3478 43.1591 30.8798 43.1591H26.0158V46.6291L30.5848 46.5881V46.5791Z" fill="black"/>
<path d="M45.1353 45.7351H39.9763L38.7453 48.9501H35.9062L41.2783 35.2031H42.5093C43.3543 35.2031 43.9443 35.5791 44.2393 36.3831L49.1433 48.9491H46.3043L45.1243 45.7341L45.1353 45.7351ZM40.6883 43.4451H44.3713L42.5503 38.4901L40.6883 43.4451Z" fill="black"/>
<path d="M51.3111 47.8925C50.5071 47.0885 50.0801 45.9495 50.0801 44.5045H52.7461C52.7461 45.1865 52.9191 45.7355 53.2551 46.1125C53.5911 46.4885 54.1001 46.7025 54.6901 46.7025H56.8881C57.4781 46.7025 57.9461 46.5805 58.2821 46.3265C58.6581 46.0725 58.8311 45.7775 58.8311 45.3495V44.6675C58.8311 44.0365 58.3631 43.6095 57.4371 43.4875L53.8451 42.8975C52.6651 42.6835 51.7691 42.3075 51.1791 41.7575C50.5891 41.2085 50.2531 40.4855 50.2531 39.6415V38.5425C50.2531 37.8605 50.4261 37.2295 50.8021 36.7215C51.1781 36.1725 51.6871 35.7955 52.4101 35.4905C53.0921 35.1955 53.8961 35.0635 54.7811 35.0635H57.0201C57.8651 35.0635 58.6281 35.2365 59.2591 35.6125C59.8901 35.9485 60.4391 36.4575 60.7851 37.0985C61.1611 37.7295 61.3341 38.4515 61.3341 39.2965H58.6681C58.6681 38.7475 58.4951 38.3195 58.2001 37.9835C57.9051 37.6475 57.4781 37.4745 57.0201 37.4745H54.7811C54.2321 37.4745 53.8041 37.5965 53.4681 37.8105C53.1321 38.0645 52.9591 38.3595 52.9591 38.7365V39.2855C52.9591 39.9165 53.4271 40.3435 54.3121 40.5165L57.9041 41.1475C59.0841 41.3615 60.0201 41.7375 60.6511 42.2465C61.2821 42.7955 61.5771 43.4775 61.5771 44.3225V45.6355C61.5771 46.3175 61.3631 46.9485 60.9871 47.4975C60.6111 48.0465 60.0611 48.4745 59.3791 48.7695C58.6971 49.0645 57.8931 49.1965 56.9671 49.1965H54.7281C53.2421 49.0745 52.1031 48.6875 51.2991 47.8835L51.3091 47.8935H51.3111V47.8925Z" fill="black"/>
<path d="M67.0113 37.5341H62.6562V35.1631H74.0833V37.5341H69.7282V48.9611H67.0213V37.5341H67.0113Z" fill="black"/>
<path d="M82.1118 45.7351H76.9528L75.7218 48.9501H72.8828L78.2548 35.2031H79.4858C80.3308 35.2031 80.9208 35.5791 81.2158 36.3831L86.1198 48.9491H83.2808L82.1008 45.7341L82.1118 45.7351ZM77.6658 43.4451H81.3488L79.5278 38.4901L77.6658 43.4451Z" fill="black"/>
<path d="M87.9111 35.1633H95.2271C96.4071 35.1633 97.3841 35.4993 98.1071 36.1403C98.8301 36.7813 99.2061 37.6263 99.2061 38.6743V40.0683C99.2061 40.7503 98.9921 41.3403 98.6161 41.8493C98.2401 42.3583 97.6901 42.7343 96.9271 42.9893V43.0303C97.3541 43.2843 97.6491 43.6203 97.9041 43.9563C98.1181 44.2923 98.3311 44.8013 98.5351 45.4423L99.6341 48.9523H96.8461L95.7881 45.6963C95.6151 45.1473 95.3611 44.7193 95.0661 44.4243C94.7711 44.1703 94.3841 43.9973 93.9261 43.9973H90.5781V48.9523H87.8711L87.9121 35.1543V35.1643L87.9111 35.1633ZM94.7181 41.6343C95.2671 41.6343 95.6951 41.5123 96.0311 41.2073C96.3261 40.9123 96.4991 40.5253 96.4991 40.0673V38.7953C96.4991 38.4193 96.3771 38.1133 96.1631 37.8693C95.9091 37.6553 95.6141 37.5333 95.2371 37.5333H90.6681V41.6843H94.7281V41.6433L94.7181 41.6343Z" fill="black"/>
<path d="M102.34 48.4011C102.004 48.0651 101.791 47.5971 101.791 47.0481V35.1631H108.354C109.412 35.1631 110.338 35.3771 111.101 35.7531C111.905 36.1291 112.495 36.6791 112.963 37.4421C113.39 38.1641 113.645 39.0091 113.645 39.9351V43.7811C113.645 45.4701 113.218 46.7421 112.332 47.6271C111.446 48.5121 110.175 48.9401 108.435 48.9401H103.693C103.144 48.8991 102.675 48.7261 102.34 48.3911V48.4011ZM108.344 46.5391C109.189 46.5391 109.83 46.2851 110.247 45.8171C110.664 45.3491 110.878 44.6371 110.878 43.6601V40.0681C110.878 39.3051 110.624 38.7151 110.156 38.2471C109.688 37.7791 109.057 37.5651 108.253 37.5651H104.488V46.5391H108.344Z" fill="black"/>
<path d="M116.942 47.8925C116.138 47.0885 115.711 45.9495 115.711 44.5045H118.377C118.377 45.1865 118.55 45.7355 118.886 46.1125C119.222 46.4885 119.731 46.7025 120.321 46.7025H122.519C123.109 46.7025 123.577 46.5805 123.913 46.3265C124.289 46.0725 124.462 45.7775 124.462 45.3495V44.6675C124.462 44.0365 123.994 43.6095 123.068 43.4875L119.476 42.8975C118.296 42.6835 117.4 42.3075 116.81 41.7575C116.22 41.2075 115.884 40.4855 115.884 39.6415V38.5425C115.884 37.8605 116.057 37.2295 116.433 36.7215C116.809 36.2135 117.318 35.7955 118.041 35.4905C118.723 35.1955 119.527 35.0635 120.412 35.0635H122.651C123.496 35.0635 124.259 35.2365 124.89 35.6125C125.521 35.9485 126.07 36.4575 126.416 37.0985C126.792 37.7295 126.965 38.4515 126.965 39.2965H124.299C124.299 38.7475 124.126 38.3195 123.831 37.9835C123.536 37.6475 123.109 37.4745 122.651 37.4745H120.412C119.863 37.4745 119.435 37.5965 119.099 37.8105C118.763 38.0645 118.59 38.3595 118.59 38.7365V39.2855C118.59 39.9165 119.058 40.3435 119.943 40.5165L123.535 41.1475C124.715 41.3615 125.651 41.7375 126.282 42.2465C126.913 42.7555 127.208 43.4775 127.208 44.3225V45.6355C127.208 46.3175 126.994 46.9485 126.618 47.4975C126.242 48.0465 125.692 48.4745 125.01 48.7695C124.328 49.0645 123.524 49.2375 122.598 49.2375H120.359C118.873 49.0645 117.734 48.6885 116.93 47.8845L116.94 47.8945L116.942 47.8925Z" fill="black"/>
<path d="M16.3594 40.9533V38.7963L14.4564 40.0683L13.7344 38.7153L15.9324 37.5753L13.7344 36.4353L14.4564 35.0823L16.3594 36.3543V34.2383H18.0894V36.3543L19.9924 35.0823L20.7144 36.4353L18.5574 37.5753L20.7554 38.7153L20.0334 40.0683L18.1304 38.7963V40.9533H16.3494H16.3594Z" fill="black"/>
</svg>
