<svg width="128" height="60" viewBox="0 0 128 60" fill="none" xmlns="http://www.w3.org/2000/svg">
<path fill-rule="evenodd" clip-rule="evenodd" d="M110.4 20.4H97.3V14.7H107.5V10.3H97.3V5.29999H110.4V0.799988H92.2V24.9H110.4V20.4Z" fill="black"/>
<path fill-rule="evenodd" clip-rule="evenodd" d="M76.6 10.5H75.7L71.8 0.799988H64V24.9H68.7V6.89999H69.6L73.6 16.7H78.7L82.8 6.89999H83.6V24.9H88.4V0.799988H80.6L76.6 10.5Z" fill="black"/>
<path fill-rule="evenodd" clip-rule="evenodd" d="M45.5 18.4H54.6L56.5 24.9H61.6L53.9 0.799988H46.2L38.6 24.9H43.5L45.4 18.4H45.5ZM49.2 5.59999H50.7L53.2 14H46.7L49.2 5.59999Z" fill="black"/>
<path fill-rule="evenodd" clip-rule="evenodd" d="M27.1 15.6H32.7C32.7 18.7 30.9 20.9 27.3 20.9C23.7 20.9 20.9 17.5 20.9 12.9C20.9 8.30002 23 4.90002 27.3 4.90002C31.6 4.90002 31.4 5.90002 31.9 7.70002H37.1C36.2 3.30002 32.8 0.400024 27.3 0.400024C21.8 0.400024 15.8 5.60002 15.8 12.9C15.8 20.2 19.8 25.4 27.3 25.4C34.8 25.4 37.7 20 37.7 14.4V11.6H27.1V15.7V15.6Z" fill="black"/>
<path fill-rule="evenodd" clip-rule="evenodd" d="M27.4 46.1H23.4V50.2H27.4C29.1 50.2 30 49.5 30 48.2C30 46.9 29.1 46.1 27.4 46.1Z" fill="black"/>
<path fill-rule="evenodd" clip-rule="evenodd" d="M33.4 30H19.8C17.6 30 15.8 31.8 15.8 34V55.6C15.8 57.8 17.6 59.6 19.8 59.6H33.4C35.6 59.6 37.4 57.8 37.4 55.6V34C37.4 31.8 35.6 30 33.4 30ZM27.8 53.1H19.9V36.7H27.6C31.2 36.7 33 38.7 33 41C33 43.3 32.3 43.7 31.3 44.2V44.8C32.5 45.3 33.4 46.6 33.4 48.3C33.4 51 31.6 53 27.7 53L27.8 53.1Z" fill="black"/>
<path fill-rule="evenodd" clip-rule="evenodd" d="M29.5 41.4C29.5 40.2 28.7 39.6 27.2 39.6H23.3V43.2H27.2C28.7 43.2 29.5 42.6 29.5 41.4Z" fill="black"/>
<path fill-rule="evenodd" clip-rule="evenodd" d="M58.4 30H55V31.3H48.4V35.2H57.1V38.3H45.1V29.8H44.4C42.2 29.8 40.4 31.6 40.4 33.8V55.4C40.4 57.6 42.2 59.4 44.4 59.4H45.1V42.6H56.9V45.7H48.4V49.2H55V52.3H48.4V56.2H57.1V59.3H58.3C60.5 59.3 62.3 57.5 62.3 55.3V33.7C62.3 31.5 60.5 29.7 58.3 29.7L58.4 30Z" fill="black"/>
<path fill-rule="evenodd" clip-rule="evenodd" d="M75.8 39.8L74 45.7H78.5L76.8 39.8H75.8Z" fill="black"/>
<path fill-rule="evenodd" clip-rule="evenodd" d="M83.2 30H69.2C67 30 65.2 31.8 65.2 34V55.6C65.2 57.8 67 59.6 69.2 59.6H83.2C85.4 59.6 87.2 57.8 87.2 55.6V34C87.2 31.8 85.4 30 83.2 30ZM80.8 53.3L79.4 48.8H73.1L71.7 53.3H68.3L73.6 36.5H79L84.3 53.3H80.8Z" fill="black"/>
<path fill-rule="evenodd" clip-rule="evenodd" d="M108.4 30V33.1H103.2V46.8H99.7V33.1H94.5V30H94.3C92.2 30 90.4 31.7 90.4 33.9V55.8C90.4 57.9 92.1 59.7 94.3 59.7H99.8V54.4H94.6V51.3H108.6V54.4H103.4V59.7H108.7C110.8 59.7 112.6 58 112.6 55.8V33.9C112.6 31.8 110.9 30 108.7 30H108.4Z" fill="black"/>
</svg>
