<svg width="78" height="60" viewBox="0 0 78 60" fill="none" xmlns="http://www.w3.org/2000/svg">
<g clip-path="url(#clip0_3_3488)">
<path d="M17.65 28.26C17.07 24.86 9.11 24.36 9.11 24.36L21.5 24.38L17.15 36.36C15.8012 36.8034 14.3898 37.0263 12.97 37.02C10.49 37.02 8.27 36.48 6.33 35.41C4.39431 34.3458 2.79686 32.7587 1.72 30.83C0.59526 28.8782 0.00862893 26.6628 0.0199986 24.41C0.0199986 21.27 1.06 18.53 3.15 16.21C5.63 13.44 9.45 11.45 14.97 12.14C18.4841 12.5377 21.7489 14.1506 24.2 16.7L22.62 20.92C21.93 19.58 19.6 16.85 14.74 16.27C10.9 15.81 4.69 17.24 4.69 24.34C4.69 30.58 9.43 32.52 12.47 32.63C15.97 32.76 18.06 30.7 17.65 28.26ZM40.77 22.78C39.94 24.52 36.51 36.1 36.51 36.1H33.11L28.51 21.15L22.95 36.51H17.92L26.66 12.45H31.03L34.81 26.9L38.6 12.45H42.97L51.7 36.51C51.7 36.51 43.21 17.62 40.77 22.78ZM72.96 12.45L67.4 27.81L62.8 12.86H59.4C59.4 12.86 56.3 27.08 54.02 27.52C50.86 28.14 44.21 12.45 44.21 12.45L52.94 36.51H57.31L61.1 22.06L64.88 36.51H69.25L78 12.45H72.97H72.96Z" fill="black"/>
<path fill-rule="evenodd" clip-rule="evenodd" d="M29.34 41.2402H31.12C32.28 41.2402 33.13 41.3802 33.69 41.6702C34.29 41.9802 34.76 42.4702 35.08 43.0502C35.3917 43.6506 35.5742 44.3096 35.6155 44.9848C35.6568 45.66 35.5562 46.3363 35.32 46.9702C35.13 47.4502 34.85 47.8802 34.48 48.2402C34.15 48.5602 33.75 48.8002 33.32 48.9402C32.6074 49.0932 31.8784 49.157 31.15 49.1302H29.34V41.2402ZM30.84 42.6902V47.6602H31.54C32.22 47.6602 32.73 47.5902 33.04 47.4302C33.37 47.2502 33.64 46.9702 33.8 46.6302C34.01 46.2102 34.11 45.7302 34.1 45.2602C34.1232 44.9046 34.0731 44.548 33.9526 44.2125C33.8322 43.877 33.6441 43.5699 33.4 43.3102C32.97 42.9002 32.29 42.6902 31.35 42.6902H30.83H30.84Z" fill="black"/>
<path d="M37.52 41.2402H36.02V49.1302H37.52V41.2402Z" fill="black"/>
<path fill-rule="evenodd" clip-rule="evenodd" d="M40.71 41.2402H42.24L45.3 49.1402H43.73L43.1 47.5002H39.87L39.23 49.1302H37.66L40.71 41.2402ZM41.48 43.3402L40.42 46.0402H42.55L41.48 43.3402Z" fill="black"/>
<path d="M6.61001 43.58L7.68001 42.53C7.26288 42.062 6.75177 41.6871 6.18001 41.43C5.56945 41.1715 4.91303 41.0389 4.25001 41.04C3.69946 41.0212 3.15075 41.1133 2.63649 41.3108C2.12223 41.5083 1.65293 41.8072 1.25647 42.1897C0.860004 42.5721 0.544475 43.0304 0.328632 43.5372C0.112788 44.0441 0.00103537 44.5891 1.47502e-05 45.14C-0.00194337 45.8807 0.191089 46.6088 0.559712 47.2513C0.928336 47.8938 1.45956 48.4279 2.10001 48.8C2.77001 49.16 3.53001 49.35 4.30001 49.33C4.99712 49.347 5.68658 49.1816 6.30001 48.85C6.88736 48.5017 7.37466 48.0074 7.71459 47.4152C8.05451 46.8229 8.23551 46.1528 8.24001 45.47V45.13H4.24001V46.54H6.54001C6.35942 46.9625 6.05639 47.3213 5.67001 47.57C5.27001 47.8 4.82001 47.91 4.35001 47.89C3.79552 47.9034 3.24954 47.7519 2.78131 47.4545C2.31308 47.1572 1.94369 46.7275 1.72001 46.22C1.57998 45.8845 1.51185 45.5234 1.52001 45.16C1.51415 44.8114 1.58042 44.4653 1.71464 44.1435C1.84887 43.8217 2.04816 43.5311 2.30001 43.29C2.55847 43.0369 2.86516 42.8383 3.20185 42.706C3.53855 42.5737 3.89839 42.5105 4.26002 42.52C5.16002 42.52 5.94001 42.87 6.61001 43.58Z" fill="black"/>
<path fill-rule="evenodd" clip-rule="evenodd" d="M11.12 41.2402H12.65L14.71 46.5802L15.64 41.2402H17.11L18.95 46.7402L20.81 41.2402H22.28L23.61 49.1302H22.15L21.3 44.1502L19.61 49.1302H18.28L16.61 44.1502L15.74 49.1302H14.14L13.51 47.5002H10.28L9.63 49.1302H8.06L11.12 41.2402ZM11.89 43.3402L10.83 46.0402H12.95L11.89 43.3402Z" fill="black"/>
<path d="M23.89 41.2402H28.22V42.7102H25.39V44.1302H28.22V45.5802H25.39V47.6602H28.22V49.1302H23.89V41.2402ZM50.84 46.2802L52.67 41.2402H54.31L51.45 49.1402H50.02L48.78 44.3902L47.54 49.1302H46.1L43.24 41.2402H44.89L46.71 46.2802L48.22 41.3802H49.33L50.84 46.2802Z" fill="black"/>
<path fill-rule="evenodd" clip-rule="evenodd" d="M57.66 41.0401C58.2006 41.0438 58.7351 41.1544 59.2328 41.3655C59.7305 41.5766 60.1816 41.884 60.56 42.2701C61.0344 42.7552 61.3839 43.3482 61.5785 43.9981C61.773 44.6481 61.8068 45.3356 61.677 46.0016C61.5471 46.6675 61.2575 47.2919 60.833 47.8212C60.4085 48.3505 59.8619 48.7688 59.24 49.0401C58.74 49.2401 58.21 49.3401 57.67 49.3401C56.9128 49.3528 56.1668 49.1567 55.5138 48.7731C54.8609 48.3896 54.3263 47.8335 53.9687 47.1659C53.6112 46.4984 53.4445 45.7452 53.4871 44.9891C53.5297 44.233 53.7798 43.5033 54.21 42.8801C54.5644 42.3556 55.0327 41.9181 55.58 41.6001C56.2105 41.23 56.929 41.0366 57.66 41.0401ZM57.64 42.5101C57.2951 42.5033 56.9526 42.5682 56.6341 42.7008C56.3157 42.8333 56.0282 43.0306 55.79 43.2801C55.29 43.7801 55.04 44.4301 55.04 45.2101C55.04 46.0801 55.36 46.7701 55.99 47.2801C56.46 47.6801 57.06 47.8801 57.67 47.8801C58.0125 47.8847 58.3522 47.8176 58.6674 47.6833C58.9825 47.549 59.2661 47.3503 59.5 47.1001C59.7984 46.7807 60.017 46.3953 60.1379 45.9753C60.2588 45.5553 60.2786 45.1127 60.1957 44.6836C60.1128 44.2545 59.9296 43.8511 59.6609 43.5063C59.3923 43.1616 59.0459 42.8853 58.65 42.7001C58.33 42.5701 57.99 42.5001 57.65 42.5101H57.64ZM63.96 41.2401H62.36V49.1401H63.88V45.7901H64L65.78 49.1301H67.43L65.55 45.6301C66.05 45.4501 66.43 45.1801 66.68 44.8301C66.94 44.4501 67.08 44.0001 67.06 43.5301C67.06 43.0801 66.96 42.6301 66.72 42.2501C66.5097 41.9017 66.1947 41.6287 65.82 41.4701C65.45 41.3201 64.82 41.2401 63.95 41.2401H63.96ZM64.35 44.3301H63.88V42.7001H64.28C64.559 42.688 64.8384 42.7149 65.11 42.7801C65.2592 42.8312 65.3881 42.9286 65.4781 43.0581C65.568 43.1876 65.6142 43.3425 65.61 43.5001C65.61 43.8001 65.51 44.0001 65.34 44.1301C65.16 44.2501 64.83 44.3201 64.34 44.3201L64.35 44.3301Z" fill="black"/>
<path d="M67.75 41.2402H69.27V43.9602L71.43 41.2402H73.23L70.47 44.7602L73.51 49.1302H71.71L69.27 45.6302V49.1302H67.75V41.2402Z" fill="black"/>
<path d="M76.7 43.2998L77.82 42.3098C77.4933 41.9127 77.1009 41.5744 76.66 41.3098C76.3103 41.1309 75.9228 41.0383 75.53 41.0398C75.1106 41.0288 74.697 41.1389 74.3387 41.3571C73.9804 41.5753 73.6926 41.8922 73.51 42.2698C73.4 42.5098 73.34 42.7698 73.34 43.0398C73.35 43.4398 73.49 43.8398 73.72 44.1798C73.98 44.5598 74.54 45.0998 75.4 45.7998C75.86 46.1698 76.15 46.4398 76.28 46.6198C76.41 46.7698 76.48 46.9598 76.48 47.1598C76.4778 47.2603 76.4533 47.3591 76.4083 47.449C76.3634 47.5389 76.2991 47.6178 76.22 47.6798C76.0343 47.8314 75.7995 47.9097 75.56 47.8998C75.06 47.8998 74.62 47.5498 74.24 46.8598L72.97 47.6198C73.27 48.2098 73.63 48.6398 74.05 48.9198C74.49 49.1998 75.01 49.3398 75.53 49.3198C76.25 49.3198 76.84 49.1198 77.29 48.6898C77.5092 48.4862 77.6823 48.2382 77.7979 47.9622C77.9134 47.6863 77.9687 47.3888 77.96 47.0898C77.96 46.7698 77.9 46.4598 77.76 46.1698C77.5993 45.8416 77.3827 45.5438 77.12 45.2898C76.7799 44.9784 76.4297 44.6783 76.07 44.3898C75.6729 44.0841 75.3047 43.7427 74.97 43.3698C74.8828 43.2659 74.8335 43.1354 74.83 42.9998C74.8319 42.9293 74.85 42.8601 74.883 42.7977C74.9159 42.7352 74.9628 42.6812 75.02 42.6398C75.1558 42.531 75.326 42.4742 75.5 42.4798C75.9 42.4798 76.3 42.7498 76.7 43.2998Z" fill="black"/>
</g>
<defs>
<clipPath id="clip0_3_3488">
<rect width="78" height="60" fill="white"/>
</clipPath>
</defs>
</svg>
