<svg width="120" height="60" viewBox="0 0 120 60" fill="none" xmlns="http://www.w3.org/2000/svg">
<path d="M113.989 18.1364C117.309 18.1364 120 15.4323 120 12.0968C120 8.76125 117.309 6.05725 113.989 6.05725C110.67 6.05725 107.979 8.76125 107.979 12.0968C107.979 15.4323 110.67 18.1364 113.989 18.1364Z" fill="#1D1D1B"/>
<path d="M113.989 21.8034C112.486 20.9406 110.555 20.2935 108.622 20.2935H107.979V42.079C107.979 42.9418 107.979 43.5889 108.193 44.4517C109.266 50.0599 114.204 54.1582 120 54.1582V32.3726C120 31.5098 120 30.8627 119.785 29.9999C119.141 26.5487 116.995 23.5289 113.989 21.8034Z" fill="#1D1D1B"/>
<path d="M29.6249 20.2935H22.9701C22.5408 20.2935 22.3262 20.5092 22.3262 20.9406C22.3262 21.1563 22.5408 21.3719 22.5408 21.3719C22.7555 21.5877 23.1848 21.5877 23.3995 21.8034C27.0489 23.9603 29.4103 27.8429 29.4103 32.1569V42.079C29.4103 42.9418 29.4103 43.5889 29.6249 44.4517C30.6983 50.0599 35.6357 54.1582 41.4318 54.1582V32.3726C41.4318 31.5098 41.4318 30.8627 41.2171 29.9999C40.1437 24.3917 35.421 20.2935 29.6249 20.2935Z" fill="#1D1D1B"/>
<path d="M7.29877 5.8418H0.644011C0.214669 5.8418 0 6.05749 0 6.48889C0 6.70459 0.214669 6.92029 0.214669 6.92029C0.858677 7.13599 1.07335 7.35168 1.28802 7.56738C4.93738 9.72437 7.29877 13.6069 7.29877 17.9209V42.0791C7.29877 42.9419 7.29877 43.589 7.51346 44.4518C8.58677 50.0599 13.5242 54.1582 19.3203 54.1582V17.9209C19.3203 17.0581 19.3203 16.411 19.1056 15.5482C18.0322 10.1558 13.0949 5.8418 7.29877 5.8418Z" fill="#1D1D1B"/>
<path d="M71.4846 20.2932H59.4628C52.8084 20.2932 47.4414 25.6857 47.4414 32.3723V42.0787C47.4414 48.7656 52.8084 54.1578 59.4628 54.1578H71.4846C78.139 54.1578 83.506 48.7656 83.506 42.0787V32.3723C83.506 25.6857 78.139 20.2932 71.4846 20.2932ZM71.4846 42.0787V45.5299C71.4846 48.334 69.5524 50.7068 66.9762 51.3537C66.5469 51.5696 66.1176 51.5696 65.4737 51.5696C65.0444 51.5696 64.4005 51.5696 63.9712 51.3537C61.395 50.7068 59.4628 48.334 59.4628 45.5299V28.7054C59.4628 25.9014 61.395 23.5287 63.9712 22.8816C64.4005 22.6659 65.0444 22.6659 65.4737 22.6659C66.1176 22.6659 66.5469 22.6659 66.9762 22.8816C69.5524 23.5287 71.4846 25.9014 71.4846 28.7054V42.0787Z" fill="#1D1D1B"/>
<path d="M108.409 53.0798C107.979 52.8639 107.765 52.8639 107.55 52.6484C103.9 50.4913 101.539 46.6087 101.539 42.2948V17.9209C101.539 17.0581 101.539 16.411 101.325 15.5482C100.251 9.94006 95.3138 5.8418 89.5176 5.8418V42.0791C89.5176 42.9419 89.5176 43.589 89.7322 44.4518C90.8059 50.0599 95.7431 54.1582 101.539 54.1582H108.194C108.624 54.1582 108.838 53.9427 108.838 53.5113C108.624 53.2954 108.624 53.0798 108.409 53.0798Z" fill="#1D1D1B"/>
</svg>
