<svg width="128" height="60" viewBox="0 0 128 60" fill="none" xmlns="http://www.w3.org/2000/svg">
<g clip-path="url(#clip0_379_431)">
<path d="M128 22.9111C127.402 23.5598 127.178 24.3744 126.969 25.1999C125.894 29.4502 124.814 33.6991 123.734 37.9483C123.682 38.1519 123.622 38.3533 123.544 38.6317H117.803C116.388 34.9885 114.949 31.2864 113.51 27.5843C113.424 27.5858 113.338 27.5874 113.251 27.5889C112.315 31.2595 111.38 34.93 110.433 38.6438H107.436C108.976 33.4321 110.309 28.1805 111.458 22.8406C112.247 22.6252 115.718 22.5658 117.547 22.7716C118.933 26.346 120.338 29.97 121.743 33.5941C121.822 33.5884 121.901 33.5827 121.98 33.577C122.901 29.979 123.822 26.381 124.776 22.6551H128V22.9111Z" fill="black"/>
<path d="M0 38.2711C0.2506 37.8527 0.615766 37.4642 0.733918 37.0112C1.80792 32.8938 2.84566 28.7669 3.87447 24.6378C4.0176 24.0634 4.05459 23.4625 4.14072 22.8739C5.00576 22.6225 8.27502 22.5554 10.3209 22.7617C11.7086 26.3359 13.1168 29.9627 14.5249 33.5895C14.6056 33.5815 14.6863 33.5735 14.767 33.5655C15.6839 29.9704 16.6008 26.3753 17.5284 22.7384H20.6288C19.2456 26.241 18.6454 29.9067 17.6649 33.4673C17.3033 34.7805 16.9975 36.109 16.6572 37.4282C16.5529 37.8324 16.4183 38.2288 16.2921 38.6466H10.5836C9.14163 34.931 7.71423 31.2529 6.28683 27.5749C5.03558 31.1968 4.23659 34.9081 3.19226 38.6445C2.10117 38.6919 1.05058 38.7375 3e-07 38.7831C3e-07 38.6125 3e-07 38.4418 0 38.2711Z" fill="black"/>
<path d="M30.7207 42.6231C30.9369 42.2767 31.1149 41.8982 31.375 41.5888C34.5183 37.851 37.6739 34.1235 40.8251 30.3922C40.9587 30.234 41.0803 30.0656 41.2355 29.8659C39.8804 27.5375 38.5282 25.2354 37.1995 22.9198C36.7177 22.0802 36.292 21.2083 35.8407 20.3511C37.8034 20.3511 39.766 20.3511 41.7287 20.3511C42.5249 21.7981 43.3049 23.2542 44.1213 24.6896C45.0888 26.3907 46.0876 28.074 47.1379 29.8766C43.5458 34.1219 39.9492 38.3725 36.3527 42.6231H30.7207Z" fill="black"/>
<path d="M84.4321 22.6684C84.1456 23.7762 83.9028 24.7154 83.6672 25.6264C80.4583 25.2136 77.3338 25.45 74.124 25.4461C73.903 26.2833 73.7129 27.0037 73.4884 27.8541C73.9905 27.8904 74.3586 27.9374 74.7271 27.9399C76.092 27.9491 77.4571 27.9433 78.8221 27.944C79.1207 27.9442 79.4193 27.9515 79.7179 27.9494C81.6742 27.9352 82.7938 29.1944 82.2561 31.2351C81.8762 32.6766 81.5535 34.1331 81.1739 35.5747C80.6695 37.4902 79.4177 38.5324 77.4334 38.6759C77.1785 38.6944 76.9229 38.7137 76.6676 38.714C73.383 38.7167 70.0984 38.7185 66.8138 38.7122C66.4889 38.7115 66.164 38.6552 65.709 38.6126C65.9703 37.5797 66.2052 36.6507 66.4149 35.822C67.4416 35.8788 68.3596 35.9612 69.2785 35.9736C71.0272 35.997 72.7763 35.9803 74.5253 35.9803C74.9452 35.9803 75.365 35.9803 75.749 35.9803C76.4183 35.0566 76.4162 34.0463 76.7544 33.0363C76.4099 32.9823 76.1378 32.9044 75.8653 32.9026C74.1591 32.891 72.4527 32.9012 70.7465 32.8924C70.3644 32.8904 69.9723 32.8873 69.6025 32.8052C68.4854 32.5571 67.8642 31.7725 67.8515 30.6043C67.8474 30.2248 67.8941 29.836 67.9801 29.466C68.2404 28.3462 68.516 27.2295 68.8137 26.1191C69.4562 23.7227 70.7396 22.6987 73.2171 22.676C76.3308 22.6476 79.445 22.6686 82.5589 22.6684C83.1093 22.6683 83.6596 22.6684 84.4321 22.6684Z" fill="black"/>
<path d="M88.8245 33.3234C88.4307 35.1686 88.0685 36.8659 87.6894 38.6425H82.0488C83.5602 33.3925 85.0068 28.1652 86.0295 22.7447C86.3162 22.7215 86.644 22.6725 86.9718 22.672C90.5095 22.6666 94.0473 22.6578 97.5848 22.6791C98.2173 22.6829 98.861 22.7668 99.4785 22.9066C100.798 23.2051 101.569 24.2479 101.307 25.5425C100.97 27.2076 100.566 28.8685 100.048 30.485C99.5685 31.9787 98.4271 32.8653 96.8772 33.1327C96.126 33.2623 95.3532 33.305 94.5893 33.3152C92.7194 33.3402 90.8489 33.3234 88.8245 33.3234ZM90.7924 25.4936C90.3702 27.2109 89.9719 28.8311 89.5593 30.5093H94.8392C95.437 28.8774 95.914 27.2851 96.0494 25.4936H90.7924Z" fill="black"/>
<path d="M63.2682 25.341C62.2323 29.8922 60.9002 34.15 60.1728 38.6397H54.4441C55.9206 34.3222 56.7949 29.9261 57.991 25.4232H53.7129C53.9584 24.4526 54.1616 23.6495 54.36 22.8653C55.3017 22.6244 66.2625 22.5587 68.1471 22.7916C68.0666 23.1917 67.9988 23.587 67.9054 23.9762C67.8068 24.3875 67.6838 24.793 67.5329 25.341H63.2682Z" fill="black"/>
<path d="M104.806 38.6623H99.0801C100.756 33.3875 101.993 28.0756 103.223 22.7202H108.809C108.734 23.0616 108.685 23.3372 108.612 23.6065C107.455 27.9176 106.285 32.2254 105.143 36.5408C104.972 37.1897 104.928 37.8726 104.806 38.6623Z" fill="black"/>
<path d="M43.9414 34.4504C45.1191 33.0662 46.2085 31.7858 47.4071 30.377C49.1887 33.4235 50.8708 36.3002 52.5613 39.1912C51.6741 39.5402 49.1784 39.6196 46.8323 39.3912C45.9151 37.8237 44.9554 36.1834 43.9414 34.4504Z" fill="black"/>
<path d="M54.2277 21.5015C51.9269 24.2223 49.7731 26.7692 47.4849 29.4752C46.6539 28.0527 45.8956 26.7546 45.0977 25.3887C46.1801 24.1029 47.2415 22.8422 48.3701 21.5015H54.2277Z" fill="black"/>
<path d="M27.5706 25.5691C27.2715 26.7189 26.9633 27.9035 26.6549 29.0886C27.6726 29.3516 32.3999 29.3686 33.9829 29.1152C34.035 30.166 33.5635 31.077 33.3533 32.0172H25.9438C25.6293 33.2378 25.3033 34.503 24.9492 35.8775C25.3245 35.9159 25.6395 35.9741 25.9548 35.976C27.5742 35.9854 29.1943 36.0064 30.8129 35.9682C31.5163 35.9516 32.2167 35.8031 33.0385 35.6994C32.7985 36.6475 32.5454 37.6477 32.2923 38.6477H18.8105C20.3515 33.3785 21.755 28.1398 22.8169 22.7373H35.8349C35.8735 23.8168 35.4471 24.7312 35.1722 25.6754C33.1203 25.3652 28.9388 25.3016 27.5706 25.5691Z" fill="black"/>
</g>
<defs>
<clipPath id="clip0_379_431">
<rect width="128" height="60" fill="white"/>
</clipPath>
</defs>
</svg>
