<svg width="126" height="61" viewBox="0 0 126 61" fill="none" xmlns="http://www.w3.org/2000/svg">
<path d="M125 8.69873L118.3 15.8987H3.2C1.4 15.8987 0 17.2987 0 19.0987V49.2987C0 51.0987 1.4 52.4987 3.2 52.4987H122.4C124.2 52.4987 125.6 51.0987 125.6 49.2987V8.69873H125ZM63.2 21.9987H67.9V25.9987H63.2V21.9987ZM17.6 36.5987H14.9V41.5987H10V23.6987H17.6C21.4 23.6987 24.2 26.3987 24.2 30.1987C24.2 33.8987 21.4 36.5987 17.6 36.5987ZM31 41.5987H26.2V22.7987H31V41.5987ZM48.7 41.4987H45L44.6 40.4987C43.5 41.3987 42 41.8987 40.4 41.8987C36.2 41.8987 33.2 38.7987 33.2 34.4987C33.2 30.1987 36.2 27.1987 40.4 27.1987C42 27.1987 43.5 27.6987 44.6 28.6987L45.1 27.5987H48.6V41.4987H48.7ZM61 41.5987H57.7C54.6 41.5987 52.8 39.6987 52.8 36.5987V31.3987H50.3V30.2987L56.5 23.6987H57.5V27.6987H61V31.3987H57.7V35.7987C57.7 36.7987 58.3 37.3987 59.3 37.3987H61.1V41.5987H61ZM67.9 41.5987H63.1V27.7987H67.9V41.5987ZM79 41.9987C77.8 41.9987 76.6 41.6987 75.6 41.0987V46.4987H70.9V27.7987H74.1L74.7 28.8987C75.8 27.8987 77.3 27.3987 78.9 27.3987C83.1 27.3987 86.1 30.4987 86.1 34.7987C86.1 39.0987 83.2 41.9987 79 41.9987ZM101.8 35.5987C101.8 39.4987 99.1 41.9987 95 41.9987C90.9 41.9987 88.2 39.4987 88.2 35.5987V27.6987H93V35.3987C93 36.8987 93.8 37.6987 95.1 37.6987C96.4 37.6987 97.1 36.7987 97.1 35.3987V27.6987H101.9V35.5987H101.8ZM109.9 41.9987C106.1 41.9987 103.9 39.9987 103.8 36.9987H108.4C108.4 37.9987 109.1 38.4987 110 38.4987C110.7 38.4987 111.4 38.0987 111.4 37.3987C111.4 36.5987 110.4 36.3987 109 36.1987C106.9 35.8987 104 35.1987 104 31.8987C104 29.0987 106.4 27.2987 109.9 27.2987C113.4 27.2987 115.7 29.1987 115.7 31.9987H111.2C111.2 31.0987 110.6 30.6987 109.7 30.6987C108.9 30.6987 108.4 31.0987 108.4 31.6987C108.4 32.4987 109.5 32.6987 110.8 32.8987C113 33.2987 115.9 33.6987 115.9 37.1987C116 40.0987 113.6 41.9987 109.9 41.9987Z" fill="black"/>
<path d="M41 31.4988C39.2 31.4988 37.9 32.7988 37.9 34.5988C37.9 36.3988 39.2 37.6988 41 37.6988C42.8 37.6988 44.1 36.3988 44.1 34.5988C44.1 32.8988 42.8 31.4988 41 31.4988Z" fill="black"/>
<path d="M78.3 31.4988C76.5 31.4988 75.2 32.7988 75.2 34.6988C75.2 36.4988 76.5 37.8988 78.3 37.8988C80.1 37.8988 81.4 36.5988 81.4 34.6988C81.4 32.7988 80.1 31.4988 78.3 31.4988Z" fill="black"/>
<path d="M17 27.9988H14.9V32.2988H17C18.3 32.2988 19.2 31.3988 19.2 30.0988C19.2 28.8988 18.3 27.9988 17 27.9988Z" fill="black"/>
</svg>
