<svg width="128" height="60" viewBox="0 0 128 60" fill="none" xmlns="http://www.w3.org/2000/svg">
<path fill-rule="evenodd" clip-rule="evenodd" d="M2.68001 45.1C-0.93999 42.27 2.23001 34.65 4.96001 31.3L1.01001 27.37C7.56001 16.18 20.87 10.85 33.34 14.44L29.79 17.99C28.67 16.71 26.61 16.46 23.19 16.53C18.55 16.62 7.89001 20.68 8.04001 26.04C8.17001 30.53 9.36001 33.9 11.61 36.17L10.38 37.4C8.85001 35.89 7.37001 34.32 5.96001 32.7C6.01001 35.2 7.04001 37.45 8.68001 39.1L2.68001 45.1ZM12.34 24.23C15.36 24.41 18.05 25.74 20 27.78L25.97 21.81C23.71 19.8 18.78 20.44 12.34 24.23Z" fill="black"/>
<path fill-rule="evenodd" clip-rule="evenodd" d="M20.41 46.6702L17 43.2802C13.66 45.3902 10.02 46.3502 6.08002 46.1802C4.59002 46.1102 3.49002 45.7302 2.70002 45.1202L2.68002 45.1002L8.68002 39.1002L8.72002 39.1402C10.41 40.8202 12.74 41.8602 15.3 41.8602C13.61 40.4502 11.99 38.9802 10.42 37.4502L10.37 37.4002L11.6 36.1702L11.66 36.2302C13.98 38.5202 17.4 39.6602 21.93 39.6302C27.37 39.6002 30.66 28.1202 30.86 23.7102C30.98 20.9502 30.73 19.2102 29.9 18.1402C29.86 18.0902 29.82 18.0402 29.78 18.0002L33.33 14.4502C33.35 14.5302 33.37 14.6102 33.39 14.6802C36.37 27.0202 31.15 39.8902 20.4 46.6702H20.41ZM25.97 21.8102L20 27.7802L20.09 27.8702C22.05 29.9702 23.24 32.8002 23.2 35.8902C27.71 28.8702 28.27 24.0402 26.09 21.9202C26.05 21.8802 26.01 21.8502 25.97 21.8102Z" fill="black"/>
<path d="M42.46 43.0799V21.1599H43.56L44.03 22.7299C45.07 21.6899 46.64 21.1599 48.73 21.1599H50.3C53.43 21.1599 55 22.7299 55 25.8599V32.1199C55 35.2499 53.43 36.8199 50.3 36.8199H48.73C46.64 36.8199 45.07 36.2999 44.03 35.2499V43.0799H42.46ZM48.72 22.7299C46.63 22.7299 45.06 23.2499 44.02 24.2999V33.6899C45.06 34.7299 46.63 35.2599 48.72 35.2599H50.29C52.37 35.2599 53.42 34.2199 53.42 32.1299V25.8699C53.42 23.7899 52.37 22.7399 50.29 22.7399H48.72V22.7299ZM59.68 14.8999V36.8199H58.11V14.8999H59.68ZM73.77 27.4299C73.77 24.2999 72.2 22.7299 69.07 22.7299H64.37V21.1599H69.07C73.24 21.1599 75.33 23.2499 75.33 27.4199V36.8099H74.23L73.76 35.2399C72.71 36.2799 71.15 36.8099 69.06 36.8099H67.49C64.36 36.8099 62.79 35.2399 62.79 32.1099C62.79 28.9799 64.36 27.4099 67.49 27.4099H69.06C71.14 27.4099 72.71 27.9299 73.76 28.9799V27.4099V27.4299H73.77ZM69.07 35.2599C71.15 35.2599 72.72 34.7399 73.77 33.6899V30.5599C72.72 29.5199 71.16 28.9899 69.07 28.9899H67.5C65.41 28.9899 64.37 30.0299 64.37 32.1199C64.37 34.2099 65.41 35.2499 67.5 35.2499H69.07V35.2599ZM80.03 43.0899V41.5199H86.29C88.37 41.5199 89.42 40.4799 89.42 38.3899V35.2599C88.37 36.2999 86.81 36.8299 84.72 36.8299H83.15C80.02 36.8299 78.45 35.2599 78.45 32.1299V21.1699H80.02V32.1299C80.02 34.2199 81.06 35.2599 83.15 35.2599H84.72C86.8 35.2599 88.37 34.7399 89.42 33.6899V21.1599H90.99V38.3799C90.99 41.5099 89.42 43.0799 86.29 43.0799H80.03V43.0899ZM106.65 21.1699V22.7399L96.16 35.2699H106.65V36.8399H94.12V35.2699L104.61 22.7399H94.12V21.1699H106.65ZM111.35 21.1699V36.8299H109.78V21.1699H111.35ZM111.35 14.9099V18.0399H109.78V14.9099H111.35ZM125.44 27.4399C125.44 24.3099 123.87 22.7399 120.74 22.7399H116.04V21.1699H120.74C124.91 21.1699 127 23.2599 127 27.4299V36.8199H125.9L125.43 35.2499C124.38 36.2899 122.82 36.8199 120.73 36.8199H119.16C116.03 36.8199 114.46 35.2499 114.46 32.1199C114.46 28.9899 116.03 27.4199 119.16 27.4199H120.73C122.81 27.4199 124.38 27.9399 125.43 28.9899V27.4199V27.4399H125.44ZM120.74 35.2699C122.82 35.2699 124.39 34.7499 125.44 33.6999V30.5699C124.39 29.5299 122.83 28.9999 120.74 28.9999H119.17C117.08 28.9999 116.04 30.0399 116.04 32.1299C116.04 34.2199 117.08 35.2599 119.17 35.2599H120.74V35.2699Z" fill="black"/>
</svg>
