<svg width="128" height="60" viewBox="0 0 128 60" fill="none" xmlns="http://www.w3.org/2000/svg">
<path d="M32.24 33.17L29.15 28.06C30.65 25.7 31.55 22.74 31.55 19.17C31.56 -1.61001 0.730011 -1.61001 0.730011 19.17C0.730011 33.04 14.6 37.63 23.7 32.78L24.43 34.15H32.24V33.16V33.17ZM8.63001 19.17C8.63001 8.34999 23.66 8.34999 23.66 19.17C23.66 30.08 8.63001 30.08 8.63001 19.17Z" fill="black"/>
<path d="M65.39 19.17C65.39 -1.61001 34.56 -1.61001 34.56 19.17C34.56 39.95 65.39 39.99 65.39 19.17ZM42.46 19.17C42.46 8.34999 57.53 8.34999 57.53 19.17C57.53 29.99 42.46 30.08 42.46 19.17Z" fill="black"/>
<path d="M86.55 34.16H95.14V33.04L89.26 23.51C96.86 18.36 94.71 4.15001 82.91 4.10001H69.73V34.15H77.42V25.31H81.41L86.56 34.15L86.55 34.16ZM77.41 10.97C79.21 10.97 81.1 10.93 82.91 10.97C87.29 11.01 87.07 18.48 82.91 18.48H77.41V10.97Z" fill="black"/>
<path d="M113.7 3.72H110.39L96.87 33.04V34.16H104.38L106.14 30.38H117.99L119.75 34.16H127.26V33.04L113.69 3.72H113.7ZM108.64 23.81L112.03 15.91L115.51 23.81H108.64Z" fill="black"/>
<path d="M30.33 45.17C31.17 44.72 32.1 44.5 33.05 44.52C34.49 44.49 35.88 45.05 36.9 46.06L38.08 44.88C37.47 44.21 36.71 43.69 35.87 43.35C34.95 42.99 33.97 42.82 32.98 42.83C31.71 42.81 30.45 43.11 29.33 43.7C28.27 44.26 27.39 45.1 26.79 46.13C25.56 48.29 25.56 50.94 26.79 53.1C27.4 54.12 28.27 54.96 29.32 55.53C30.43 56.13 31.68 56.43 32.94 56.41C33.87 56.41 34.79 56.27 35.67 55.97C36.51 55.7 37.29 55.27 37.97 54.72V49.54H36.15V53.87C35.22 54.45 34.14 54.75 33.04 54.72C32.1 54.73 31.17 54.51 30.34 54.06C29.55 53.63 28.9 53 28.45 52.23C27.54 50.6 27.54 48.62 28.45 46.99C28.9 46.22 29.55 45.59 30.34 45.17H30.33Z" fill="black"/>
<path d="M47.49 42.98L41.48 56.26H43.43L44.89 52.94H51.95L53.41 56.26H55.4L49.37 42.98H47.49ZM45.56 51.42L48.42 44.91L51.28 51.42H45.55H45.56Z" fill="black"/>
<path d="M71.45 42.98L65.98 52.31L60.44 42.98H58.89V56.26H60.71V46.64L65.51 54.64H66.38L71.18 46.58L71.2 56.26H73.02L73 42.98H71.45Z" fill="black"/>
<path d="M80.42 50.32H87.07V48.71H80.42V44.63H87.89V42.98H78.52V56.26H88.16V54.61H80.42V50.32Z" fill="black"/>
<path d="M99.92 49.54C99.13 49.25 98.33 49 97.51 48.82C96.89 48.69 96.28 48.52 95.68 48.32C95.26 48.18 94.88 47.95 94.55 47.66C94.25 47.37 94.08 46.97 94.09 46.55C94.09 45.94 94.39 45.37 94.9 45.03C95.44 44.64 96.24 44.44 97.32 44.44C97.95 44.44 98.58 44.54 99.18 44.72C99.81 44.9 100.41 45.17 100.96 45.53L101.59 44.01C100.99 43.61 100.33 43.31 99.64 43.14C98.88 42.94 98.11 42.84 97.33 42.84C96.36 42.81 95.4 42.98 94.5 43.35C93.81 43.63 93.22 44.11 92.8 44.72C92.43 45.29 92.23 45.96 92.24 46.64C92.24 47.49 92.46 48.16 92.9 48.66C93.33 49.15 93.87 49.53 94.47 49.77C95.26 50.06 96.07 50.3 96.89 50.49C97.69 50.68 98.3 50.85 98.74 51C99.15 51.14 99.52 51.36 99.84 51.65C100.14 51.94 100.3 52.34 100.29 52.76C100.29 53.37 99.99 53.93 99.47 54.25C98.93 54.62 98.1 54.81 97 54.81C96.17 54.81 95.34 54.67 94.56 54.38C93.85 54.14 93.19 53.76 92.62 53.27L91.92 54.75C92.56 55.3 93.3 55.71 94.11 55.96C95.04 56.27 96.02 56.43 97 56.42C97.97 56.45 98.94 56.28 99.85 55.92C100.55 55.64 101.15 55.17 101.58 54.55C101.96 53.99 102.15 53.32 102.15 52.64C102.15 51.81 101.93 51.14 101.5 50.65C101.07 50.16 100.54 49.79 99.93 49.55L99.92 49.54Z" fill="black"/>
</svg>
