<svg width="128" height="60" viewBox="0 0 128 60" fill="none" xmlns="http://www.w3.org/2000/svg">
<g clip-path="url(#clip0_185_40)">
<path d="M62.0427 38.7054C62.3116 38.3448 62.7068 38.1644 63.2286 38.1644C64.0123 38.1644 64.4772 38.55 64.6232 39.3211H65.4017C65.3178 38.7521 65.0881 38.3126 64.7124 38.0029C64.3366 37.6931 63.8407 37.5381 63.2245 37.5381C62.473 37.5381 61.89 37.7789 61.4751 38.2601C61.0601 38.7414 60.8528 39.4195 60.8528 40.2944V40.801C60.8582 41.3408 60.9628 41.8154 61.167 42.2249C61.3711 42.6344 61.6595 42.9502 62.0325 43.1723C62.4056 43.3942 62.8326 43.5053 63.3137 43.5053C63.7894 43.5053 64.2062 43.4354 64.5644 43.2959C64.9225 43.1563 65.2016 42.9456 65.4017 42.6637V40.5337H63.261V41.1599H64.6273V42.4613C64.484 42.6124 64.3029 42.7199 64.084 42.7836C63.8651 42.8472 63.6096 42.879 63.3178 42.879C62.8014 42.879 62.3919 42.6868 62.0893 42.3022C61.7866 41.9176 61.6352 41.3993 61.6352 40.7473V40.2723C61.6379 39.5883 61.7737 39.066 62.0427 38.7054Z" fill="black"/>
<path d="M70.6815 37.6179L68.4274 43.4255H69.23L69.7855 41.9057H72.2585L72.8222 43.4255H73.6208L71.3625 37.6179H70.6815ZM70.0206 41.2796L71.022 38.5632L72.0275 41.2796H70.0206Z" fill="black"/>
<path d="M79.6506 42.3564L77.7208 37.6179H76.7154V43.4255H77.4937V41.1638L77.4168 38.7347L79.3506 43.4255H79.9467L81.8847 38.7227L81.8116 41.1638V43.4255H82.5899V37.6179H81.5806L79.6506 42.3564Z" fill="black"/>
<path d="M87.0995 37.6179H86.3212V43.4255H87.0995V37.6179Z" fill="black"/>
<path d="M94.5848 42.1131L91.6048 37.6179H90.8223V43.4255H91.6048V38.9501L94.5766 43.4255H95.359V37.6179H94.5848V42.1131Z" fill="black"/>
<path d="M100.041 38.7054C100.31 38.3448 100.705 38.1644 101.227 38.1644C102.011 38.1644 102.475 38.55 102.621 39.3211H103.4C103.316 38.7521 103.086 38.3126 102.71 38.0029C102.335 37.6931 101.839 37.5381 101.223 37.5381C100.471 37.5381 99.888 37.7789 99.4732 38.2601C99.0584 38.7414 98.8509 39.4195 98.8509 40.2944V40.801C98.8563 41.3408 98.9611 41.8154 99.165 42.2249C99.3692 42.6344 99.6578 42.9502 100.031 43.1723C100.404 43.3942 100.831 43.5053 101.312 43.5053C101.787 43.5053 102.204 43.4354 102.563 43.2959C102.921 43.1563 103.2 42.9456 103.4 42.6637V40.5337H101.259V41.1599H102.625V42.4613C102.482 42.6124 102.301 42.7199 102.082 42.7836C101.863 42.8472 101.608 42.879 101.316 42.879C100.8 42.879 100.39 42.6868 100.088 42.3022C99.7847 41.9176 99.6333 41.3993 99.6333 40.7473V40.2723C99.6359 39.5883 99.7718 39.066 100.041 38.7054Z" fill="black"/>
<path d="M43.6715 21.0983C43.4752 20.9544 43.1936 20.8823 42.8274 20.8823C42.0028 20.8823 41.2437 21.3732 40.5502 22.3547C40.5369 22.2894 40.5074 22.1519 40.4617 21.9425C40.4158 21.7333 40.3505 21.5336 40.2654 21.3437C40.1802 21.1541 40.0462 21.0591 39.863 21.0591C39.6535 21.0591 39.4244 21.0953 39.1759 21.167C38.9272 21.2391 38.803 21.3535 38.803 21.5106C38.803 21.5498 38.8422 21.7559 38.9207 22.129C38.9993 22.502 39.0385 23.1204 39.0385 23.9841V30.8748C39.0385 31.1628 39.3001 31.3068 39.8237 31.3068H39.9022C40.4256 31.3068 40.6875 31.1628 40.6875 30.8748V23.6897C40.6875 23.6635 40.7789 23.5458 40.9624 23.3363C41.1456 23.1271 41.3712 22.9339 41.6397 22.7571C41.9078 22.5805 42.1925 22.4922 42.4937 22.4922C42.7686 22.4922 43.0007 22.5283 43.1906 22.6001C43.3802 22.6721 43.5078 22.7081 43.5734 22.7081C43.6779 22.7081 43.7697 22.5872 43.8483 22.3449C43.9268 22.1029 43.9661 21.8706 43.9661 21.6479C43.9661 21.4256 43.8678 21.2424 43.6715 21.0983Z" fill="black"/>
<path d="M50.1828 20.8823C48.6775 20.8823 47.539 21.3339 46.7668 22.2369C45.9945 23.14 45.6086 24.4621 45.6086 26.2025C45.6086 27.9565 46.0012 29.2586 46.7865 30.1093C47.5718 30.9601 48.7822 31.3853 50.4184 31.3853C51.0334 31.3853 51.6124 31.3165 52.1557 31.1792C52.6987 31.0417 53.134 30.8718 53.4612 30.6687C53.7882 30.466 53.9521 30.2859 53.9521 30.1288C53.9521 29.9982 53.8701 29.8018 53.7066 29.5399C53.5428 29.2783 53.3956 29.1473 53.2649 29.1473C53.2256 29.1473 53.075 29.2159 52.8134 29.3534C52.5514 29.4908 52.2211 29.6283 51.822 29.7657C51.4227 29.9031 50.9484 29.9718 50.3987 29.9718C49.43 29.9718 48.7036 29.7166 48.2196 29.2062C47.7353 28.6957 47.454 27.8976 47.3755 26.8112H53.579C53.6968 26.8112 53.8343 26.7065 53.9914 26.497C54.1484 26.2878 54.2269 26.124 54.2269 26.0062C54.2269 24.331 53.8864 23.0584 53.2061 22.1878C52.5254 21.3176 51.5177 20.8823 50.1828 20.8823ZM47.3755 25.3976C47.5193 23.3299 48.4356 22.2959 50.1239 22.2959C51.6944 22.2959 52.4796 23.3299 52.4796 25.3976H47.3755Z" fill="black"/>
<path d="M62.7606 29.962C62.7735 30.0277 62.803 30.1715 62.8489 30.3939C62.8946 30.6166 62.96 30.8292 63.0453 31.0319C63.1302 31.2349 63.2644 31.3361 63.4477 31.3361C63.6569 31.3361 63.886 31.3003 64.1349 31.2283C64.3834 31.1564 64.5078 31.0417 64.5078 30.8847C64.5078 30.8454 64.4686 30.6393 64.39 30.2663C64.3115 29.8933 64.2723 29.2749 64.2723 28.4111V24.0136C64.2723 23.0452 63.9317 22.2893 63.2514 21.7462C62.5707 21.2032 61.622 20.9314 60.4049 20.9314C59.7895 20.9314 59.1941 21.0001 58.6184 21.1375C58.0423 21.275 57.5809 21.4418 57.2344 21.6382C56.8874 21.8345 56.7141 22.0179 56.7141 22.1879C56.7141 22.3188 56.7956 22.5151 56.9595 22.7768C57.123 23.0388 57.2703 23.1695 57.4012 23.1695C57.4272 23.1695 57.5843 23.1007 57.8724 22.9632C58.1601 22.8259 58.5202 22.6884 58.9521 22.551C59.384 22.4137 59.8876 22.3449 60.4637 22.3449C61.2226 22.3449 61.7723 22.4989 62.1128 22.8062C62.4529 23.1139 62.6233 23.5099 62.6233 23.9939V24.9167C61.3275 24.9298 60.2281 25.0117 59.325 25.1621C58.4221 25.3127 57.6595 25.6464 57.038 26.1632C56.4162 26.6804 56.1055 27.4559 56.1055 28.4896C56.1055 29.4583 56.4129 30.1912 57.0283 30.6883C57.6432 31.1859 58.4545 31.4344 59.4625 31.4344C60.7711 31.4344 61.8704 30.9436 62.7606 29.962ZM59.5411 30.0013C58.9914 30.0013 58.5757 29.8638 58.2944 29.5889C58.0128 29.3142 57.8724 28.9151 57.8724 28.3914C57.8724 27.7632 58.108 27.2988 58.5791 26.9976C59.0503 26.6967 59.5965 26.5135 60.2183 26.4479C60.8398 26.3826 61.6417 26.3433 62.6233 26.3301V28.6467C62.1388 29.0786 61.6643 29.4123 61.2 29.6479C60.7352 29.8835 60.1822 30.0013 59.5411 30.0013Z" fill="black"/>
<path d="M75.4781 28.3522V16.9266C75.4781 16.6389 75.216 16.4947 74.6928 16.4947H74.614C74.0908 16.4947 73.8292 16.6389 73.8292 16.9266V21.8737C73.4101 21.5467 72.9816 21.298 72.5429 21.1278C72.1046 20.9579 71.5973 20.8725 71.0215 20.8725C70.2362 20.8725 69.5424 21.0756 68.9406 21.481C68.3384 21.8869 67.8707 22.4857 67.5369 23.2774C67.2032 24.0694 67.0363 25.0215 67.0363 26.1338C67.0363 27.1417 67.1899 28.0448 67.4976 28.843C67.805 29.6414 68.2467 30.2632 68.8228 30.708C69.3985 31.153 70.0725 31.3755 70.8449 31.3755C71.9836 31.3755 73.0239 30.8847 73.9662 29.9031C73.9791 29.9688 74.009 30.1126 74.0548 30.335C74.1006 30.5577 74.166 30.7703 74.251 30.973C74.336 31.1761 74.4698 31.2772 74.6537 31.2772C74.8627 31.2772 75.0919 31.2414 75.3406 31.1694C75.5893 31.0975 75.7134 30.9828 75.7134 30.8258C75.7134 30.7865 75.6743 30.5804 75.596 30.2074C75.5172 29.8344 75.4781 29.216 75.4781 28.3522ZM73.8292 28.5878C73.4363 29.0197 73.0074 29.3534 72.5429 29.589C72.0783 29.8246 71.6233 29.9424 71.1786 29.9424C70.4061 29.9424 69.8109 29.5988 69.3921 28.9117C68.973 28.2246 68.7639 27.2464 68.7639 25.9768C68.7639 24.7988 68.9863 23.8957 69.4314 23.2676C69.8761 22.6394 70.5372 22.3253 71.4141 22.3253C72.3174 22.3253 73.1222 22.6197 73.8292 23.2087V28.5878Z" fill="black"/>
<path d="M81.7263 30.7277L80.0772 34.7325C80.0116 34.9025 79.9789 35.0138 79.9789 35.0662C79.9789 35.2754 80.1949 35.3803 80.6269 35.3803H80.9212C81.4318 35.3803 81.7392 35.243 81.844 34.9681L86.8894 21.5988C86.9286 21.481 86.9481 21.3896 86.9481 21.3241C86.9481 21.1017 86.6863 20.9903 86.1629 20.9903H86.1041C85.633 20.9903 85.3644 21.0952 85.2993 21.3044L83.3361 26.6246L82.8453 28.0969C82.8188 28.1755 82.7928 28.2573 82.7668 28.3423C82.7403 28.4277 82.7143 28.516 82.6883 28.6074H82.6489C82.4393 27.8613 82.23 27.2007 82.0206 26.6246L80.0183 21.3044C79.9526 21.0952 79.691 20.9903 79.233 20.9903H79.0759C78.5131 20.9903 78.2317 21.1017 78.2317 21.3241C78.2317 21.3765 78.2515 21.4615 78.2906 21.5793L81.7263 30.7277Z" fill="black"/>
<path d="M98.4536 23.2775C98.1204 22.4132 97.6374 21.7374 97.0179 21.2688C96.3874 20.7924 95.6464 20.5507 94.816 20.5507C94.1757 20.5507 93.5799 20.6992 93.0456 20.992C92.7493 21.1544 92.4774 21.3524 92.2323 21.5838C92.1913 21.4662 92.1429 21.3515 92.0876 21.2404C91.9282 20.9223 91.6354 20.747 91.2626 20.747C90.9076 20.747 90.4948 20.7998 90.0363 20.9041C89.4024 21.0483 89.0808 21.3201 89.0808 21.7118C89.0808 21.799 89.0957 21.9648 89.2057 22.533C89.279 22.9126 89.3164 23.5346 89.3164 24.3817V34.8454C89.3164 35.1848 89.4755 35.4607 89.7641 35.6224C89.9902 35.7487 90.3133 35.8101 90.7523 35.8101H91.1254C92.3746 35.8101 92.5613 35.2057 92.5613 34.8454V31.4494C93.1393 31.738 93.7761 31.8838 94.4628 31.8838C95.8549 31.8838 96.9672 31.3601 97.7687 30.3272C98.547 29.3253 98.9415 27.9459 98.9415 26.2271C98.9415 25.1107 98.7775 24.1183 98.4536 23.2775ZM93.913 29.0905C93.4177 29.0905 92.9735 28.9697 92.5613 28.722V24.356C92.7871 24.0633 93.0345 23.8264 93.2979 23.6507C93.5678 23.4707 93.8461 23.3833 94.1486 23.3833C94.6206 23.3833 94.954 23.5845 95.1978 24.0166C95.4767 24.5104 95.618 25.2672 95.618 26.2664C95.618 28.7977 94.645 29.0905 93.913 29.0905Z" fill="black"/>
<path d="M102.824 16.8363H102.451C101.201 16.8363 101.015 17.4285 101.015 17.7815V30.7571C101.015 31.1101 101.201 31.7023 102.451 31.7023H102.824C104.073 31.7023 104.26 31.1101 104.26 30.7571V17.7815C104.26 17.4285 104.073 16.8363 102.824 16.8363Z" fill="black"/>
<path d="M115.649 27.9694V24.0234C115.649 22.9116 115.262 22.0206 114.498 21.3753C113.753 20.7468 112.627 20.428 111.151 20.428C110.458 20.428 109.801 20.4974 109.198 20.6341C108.575 20.7758 108.09 20.9551 107.716 21.1824C107.258 21.4613 107.025 21.7831 107.025 22.1388C107.025 22.3998 107.145 22.7256 107.404 23.1642C107.592 23.4837 107.892 23.9084 108.324 23.9084C108.422 23.9084 108.517 23.8865 108.958 23.6869C109.216 23.5702 109.523 23.4573 109.872 23.3516C110.199 23.2523 110.59 23.2018 111.033 23.2018C112.385 23.2018 112.385 23.8097 112.385 24.1019V24.4579C108.437 24.5539 106.436 25.9059 106.436 28.4799C106.436 29.4756 106.74 30.2804 107.339 30.8715C107.936 31.4618 108.796 31.7611 109.894 31.7611C110.712 31.7611 111.413 31.5824 111.978 31.2302C112.251 31.0604 112.494 30.883 112.707 30.6991C112.753 30.852 112.809 30.9977 112.875 31.1347C113.033 31.4627 113.32 31.6433 113.683 31.6433C114.051 31.6433 114.47 31.5905 114.929 31.4862C115.563 31.3421 115.885 31.0703 115.885 30.6785C115.885 30.5918 115.87 30.4253 115.76 29.8487C115.686 29.4624 115.649 28.83 115.649 27.9694ZM112.385 27.96C112.167 28.2508 111.906 28.4948 111.606 28.6864C111.288 28.8889 110.947 28.9873 110.562 28.9873C110.277 28.9873 110.066 28.9226 109.934 28.7944C109.803 28.6683 109.74 28.4884 109.74 28.2443C109.74 27.7918 109.945 27.5085 110.404 27.3259C110.888 27.133 111.554 27.0227 112.385 26.9967V27.96Z" fill="black"/>
<path d="M125.586 20.6537H125.253C124.971 20.6537 124.113 20.6537 123.877 21.2951L122.442 25.5219C122.369 25.7462 122.292 26.0175 122.207 26.3411C122.12 26.0075 122.043 25.7314 121.975 25.5143L120.519 21.2854C120.286 20.6537 119.429 20.6537 119.147 20.6537H118.696C118.331 20.6537 117.22 20.6537 117.22 21.4418C117.22 21.5362 117.23 21.6278 117.249 21.7145C117.266 21.7891 117.283 21.8512 117.302 21.9078L120.571 31.1148L119.258 34.5295C119.167 34.73 119.125 34.8881 119.125 35.027C119.125 35.1907 119.189 35.4929 119.621 35.6759C119.843 35.7695 120.137 35.815 120.521 35.815H120.835C121.602 35.815 122.076 35.5907 122.249 35.1395L126.941 21.9077L126.949 21.88C126.998 21.7007 127.022 21.5573 127.022 21.4418C127.022 20.9189 126.539 20.6537 125.586 20.6537Z" fill="black"/>
<path d="M30.4328 29.0458L3.1984 18.2612C-0.00964665 16.4865 -0.385445 18.5684 -0.385445 18.5684C-0.385445 18.5684 -0.350943 22.459 -0.385058 24.3361C-0.398173 25.0577 -0.0726473 25.5861 0.332213 25.9651C0.829876 26.5893 1.63326 27.1081 1.63326 27.1081L8.53163 30.2279L1.4285 33.4403C1.4285 33.4403 0.0266246 34.3427 -0.220855 35.2003C-0.326226 35.4492 -0.3909 35.7298 -0.385058 36.0511C-0.350943 37.9281 -0.385445 41.8188 -0.385445 41.8188C-0.385445 41.8188 -0.00964665 43.9006 3.1984 42.1259L30.4328 31.3414C30.4328 31.3414 31.1836 30.8977 31.1153 30.2834C31.1116 30.2498 31.1041 30.2239 31.0989 30.1936C31.1041 30.1632 31.1116 30.1373 31.1153 30.1037C31.1836 29.4894 30.4328 29.0458 30.4328 29.0458Z" fill="black"/>
</g>
<defs>
<clipPath id="clip0_185_40">
<rect width="128" height="60" fill="white"/>
</clipPath>
</defs>
</svg>
