<svg width="128" height="60" viewBox="0 0 128 60" fill="none" xmlns="http://www.w3.org/2000/svg">
<path d="M20.5199 12.4999H21.9999V14.5799H23.3599V9.15991H21.9999V11.1999H20.5199V9.15991H19.1599V14.5799H20.5199V12.4999Z" fill="black"/>
<path d="M37.3 22.51C37.51 21.65 37.81 20.84 38.2 20.1V17.49H30.12V27.62H24.1V17.49H16.02V44.18H24.1V34.05H30.12V44.18H38.2V33.46C38.2 33.46 38.19 33.42 38.18 33.4C36.81 29.46 36.54 25.59 37.3 22.5V22.51Z" fill="black"/>
<path d="M17.3699 14.5799V10.4599H18.7099V9.15991H14.6699V10.4599H16.0099V14.5799H17.3699Z" fill="black"/>
<path d="M27.3 13.2699H25.4V12.5099H26.96V11.2099H25.4V10.4599H27.3V9.15991H24.03V14.5699H27.3V13.2699Z" fill="black"/>
<path d="M113.35 24.3099C112.18 22.2899 110.58 20.6599 108.54 19.4699C106.5 18.2599 104.29 17.6599 101.87 17.6299H95.96C96.39 21.7599 95.84 26.3499 94.22 30.9999C93.6 32.7799 92.85 34.4899 91.99 36.1099V44.3199H101.86C104.28 44.2999 106.48 43.6699 108.53 42.4799C110.55 41.2899 112.15 39.6899 113.34 37.6399C114.53 35.5999 115.11 33.3899 115.11 30.9699C115.11 28.5499 114.51 26.3199 113.34 24.2999L113.35 24.3099ZM106.71 35.8599C105.38 37.2199 103.75 37.8799 101.88 37.8799H100.09V24.0799H101.88C103.75 24.0799 105.36 24.7499 106.71 26.0999C108.06 27.4499 108.73 29.0799 108.73 30.9799C108.73 32.8799 108.04 34.4999 106.71 35.8599Z" fill="black"/>
<path d="M57.7699 52.0801C52.2899 50.6101 50.6199 48.2201 49.4199 49.8401C48.5199 51.0501 49.2099 55.5701 52.6399 57.7001C58.4899 61.3301 64.5499 56.7001 65.3699 53.6201C66.1899 50.5401 63.2599 53.5501 57.7799 52.0801H57.7699Z" fill="black"/>
<path d="M56.3501 15.3301C56.6401 15.2201 56.9401 15.0901 57.2501 14.9401C61.1601 13.0901 62.7801 8.55011 62.1601 4.27011C62.0701 3.63011 61.2201 3.47011 60.9001 4.04011L59.3601 6.83011C59.1001 7.29011 58.4701 7.37011 58.1101 6.98011L52.7101 1.21011C52.2401 0.710114 51.4101 1.01011 51.3701 1.70011L50.9001 9.71011C50.8701 10.2201 50.3601 10.5701 49.8701 10.4001L45.7301 8.97011C45.1001 8.75011 44.5501 9.44011 44.8901 10.0101C47.2701 14.0901 51.9301 16.9901 56.3501 15.3201V15.3301Z" fill="black"/>
<path d="M83.2699 3.22001C76.4499 1.81001 68.77 5.61001 63.16 12.37C58.85 17.81 55.92 24.37 55.34 31.61C55.3 32.05 55.27 32.5 55.25 32.94C55.23 32.49 55.21 32.04 55.2 31.59C55.15 29.95 55.22 28.33 55.4 26.72C52.44 20.69 47.37 16.74 43.24 17.59C40.08 18.24 38.27 21.53 38.2 25.89V25.84C38.2 25.84 38.2 25.9 38.2 25.93C38.2 25.96 38.2 25.99 38.2 26.03C38.2 26.1 38.2 26.17 38.2 26.24C38.2 26.28 38.2 26.31 38.2 26.35C38.2 26.4 38.2 26.45 38.2 26.5V26.45C38.23 28.47 38.6299 30.7 39.4199 32.98C42.0399 40.5 47.99 45.81 52.72 44.84C53.7 44.64 54.5499 44.18 55.2599 43.52C56.8799 41.79 57.88 39.13 58.32 36.62C58.36 36.39 58.3999 36.15 58.4399 35.91C58.4499 36.15 58.46 36.4 58.47 36.64C58.47 38.71 58.32 41.09 57.49 43.17C59.44 46.97 62.63 49.66 66.82 50.52C76.7299 52.56 88.4399 43.63 92.9899 30.57C97.5299 17.51 93.1799 5.26001 83.2799 3.22001H83.2699ZM49.38 36.7C47.08 36.7 45.2099 34.83 45.2099 32.53C45.2099 30.23 47.08 28.36 49.38 28.36C51.68 28.36 53.5499 30.23 53.5499 32.53C53.5499 34.83 51.68 36.7 49.38 36.7ZM69.12 41.09C64.4 41.09 60.57 37.26 60.57 32.54C60.57 27.82 64.4 23.99 69.12 23.99C73.84 23.99 77.6699 27.82 77.6699 32.54C77.6699 37.26 73.84 41.09 69.12 41.09Z" fill="black"/>
</svg>
