<svg width="128" height="60" viewBox="0 0 128 60" fill="none" xmlns="http://www.w3.org/2000/svg">
<path d="M56.3604 47.1598L67.0004 31.1498L59.8904 31.4898L81.8403 12.8398L73.2003 26.6398L80.8904 26.3398L56.3604 47.1598Z" fill="black"/>
<path d="M34.5202 30.7491L36.6702 28.0191C36.7602 27.9091 36.8202 27.5891 36.8102 27.4491C36.7702 26.8491 35.1602 26.6991 34.2302 27.9591L30.7502 32.6891H28.4302L30.0002 30.6291C29.2902 31.1391 26.0602 34.1191 25.8302 31.8191L24.4502 32.5191C23.9002 32.7991 23.2202 32.7291 22.7102 32.4291C22.0802 32.0491 21.8502 31.3391 22.1202 30.6591C22.2802 30.2691 22.5102 29.8991 22.7902 29.5691L25.5902 26.1291C25.5302 25.8091 25.2502 25.6891 24.9002 25.4891L28.1602 25.5091L24.3802 30.1491C24.3202 30.2291 24.2802 30.4391 24.3202 30.5091C24.6702 31.0691 25.9102 30.6991 26.4502 30.0491L29.5302 26.3191C29.6802 26.1391 29.6202 25.8191 29.4402 25.7391L28.8902 25.4891L32.1202 25.5291L28.1102 30.4291C28.0502 30.5091 28.0102 30.7491 28.0702 30.8191C28.1302 30.8891 28.3902 30.9091 28.4802 30.8791C29.8002 30.3191 30.8502 29.3691 31.7302 28.2491C32.1402 27.7291 33.3902 26.3391 33.1302 25.8891C33.0502 25.7491 32.8702 25.6291 32.6902 25.4891L36.0602 25.5091L35.5002 26.3591L37.5802 25.6091C38.1602 25.3991 39.5602 25.4291 39.8102 26.1391C39.9002 26.3891 39.9002 26.8091 39.7102 27.0491L36.8602 30.6791C36.8202 30.7291 36.7902 30.8691 36.7802 30.9291C36.6902 31.3791 38.6602 29.9691 38.9302 29.5291C39.8602 28.0191 40.9802 26.6791 42.6502 25.9391C43.3202 25.6491 44.7502 25.1791 45.2702 25.7591C45.4802 25.9891 45.5202 26.3291 45.5802 26.7191L49.7202 21.6291C49.8202 21.5091 49.8302 21.1291 49.6802 21.0591C49.3202 20.8891 49.0102 20.8591 48.6002 20.7391L53.2902 20.1191L44.5402 30.5591C44.4202 30.6991 44.3502 30.9191 44.3502 31.0991C44.6702 31.5391 47.1802 29.0791 47.3902 28.8591C48.2702 27.9091 49.1102 27.0191 50.2502 26.3691C51.6502 25.5691 53.3102 25.2791 54.8502 25.7691C55.1802 25.8791 55.5102 26.1391 55.6202 26.3791C56.1002 27.3991 54.7702 28.4891 53.9002 28.8691C52.5402 29.4591 50.6602 29.8391 49.2102 29.3591C48.9902 29.6791 48.8302 30.0791 48.8202 30.4691C48.8102 30.9191 49.1002 31.2691 49.5502 31.3491C50.0302 31.4291 50.5602 31.3591 51.0402 31.1591C52.1402 30.6791 53.3002 30.2391 54.3502 29.6991L57.3102 26.0191C57.0702 25.7791 56.8602 25.7291 56.5302 25.5591L59.9502 25.5291L59.2602 26.5591L61.5302 25.6991C61.9002 25.5591 62.4502 25.4691 62.7802 25.6591C63.1602 25.8691 63.0902 26.4191 62.9302 26.7691C62.3802 27.9591 60.4702 29.1491 59.0002 28.5091C59.4902 28.2891 60.2002 27.7591 59.9502 27.1791C59.4902 26.8491 58.6902 27.1991 58.3502 27.6291L54.2702 32.7291H51.9602L53.6702 30.5691C51.8302 31.5591 50.0602 33.2591 47.8502 32.5891C47.4502 32.4691 47.0102 32.1091 46.8302 31.7291C46.6302 31.3191 46.7802 30.8391 46.7902 30.3391C46.0202 31.1391 43.4602 33.0991 42.4702 32.6491C42.1302 32.4891 42.3702 31.9691 42.4302 31.6491C41.5402 32.2691 39.7902 33.3491 38.8502 32.2291C38.4702 31.7791 38.5702 31.2491 38.6702 30.5991C37.7802 31.2991 36.9602 31.9691 36.0102 32.5191C35.3602 32.8991 34.4602 32.6991 34.2202 31.9291C34.1102 31.5891 34.2902 31.0791 34.5402 30.7691L34.5202 30.7491ZM53.5802 27.4491C53.8002 27.2591 53.8902 26.8691 53.7402 26.6791C52.9502 25.6291 50.2202 27.2591 49.8102 28.3191C51.1902 28.6391 52.5602 28.3291 53.5802 27.4491ZM42.5002 30.4591L44.7202 27.7291C44.5302 27.2091 43.9502 27.0591 43.4202 27.1691C42.1202 27.4491 41.0202 28.4591 40.5802 29.7391C40.4302 30.1791 40.6702 30.6791 41.0402 30.8491C41.5502 31.0791 42.1202 30.9091 42.4902 30.4591H42.5002Z" fill="black"/>
<path d="M94.8701 31.5694C91.4501 32.7694 87.6101 32.9494 84.0501 32.4194C83.3201 32.3094 82.6401 32.1194 81.9601 31.8894C80.7301 31.4694 80.0801 30.2294 80.4501 28.9894C80.6901 28.1894 81.1301 27.5094 81.8401 27.0394C83.6401 25.8494 86.1901 25.4494 88.1901 25.4294C87.0501 26.1594 85.3701 26.7194 85.6101 28.1894C85.6901 28.6594 86.0601 29.0694 86.6001 29.2894C88.2801 29.9794 90.4901 29.7894 92.2501 29.3894C92.6801 29.2894 93.1001 29.0894 93.4501 28.8394C94.0901 28.3794 94.2301 27.5494 93.8101 26.8794C93.5601 26.4794 93.2201 26.1394 92.8401 25.8294C91.7601 24.9594 90.7001 24.1394 89.7001 23.1994C88.9701 22.5194 88.8201 21.4894 89.2901 20.6394L89.8201 19.6894L87.1501 20.1094C88.8701 19.1494 90.5201 18.2194 92.4101 17.6494C95.1201 16.8394 97.9401 16.5794 100.76 16.7994C102.17 16.9094 103.47 17.2594 104.8 17.6594C105.33 17.8194 105.86 18.1194 106.26 18.4694C106.74 18.8894 106.74 19.5494 106.36 19.9994C105.84 20.6294 105.17 21.0094 104.38 21.2594C102.76 21.7794 101.11 22.0694 99.4401 22.1794C100.25 21.7094 102.92 20.7494 102.59 19.5994C102.29 18.5494 98.0701 19.2094 97.1001 19.4294C96.1601 19.6394 93.5701 20.5494 93.9301 21.8494C94.1101 22.4994 94.5701 22.9494 95.0901 23.3294C96.1601 24.1194 97.1901 24.8694 98.1501 25.7794C98.7201 26.3094 99.1001 27.1194 99.0101 27.8994C98.9501 28.4994 98.5601 29.0194 98.1701 29.4394C97.2701 30.4294 96.1401 31.1194 94.8701 31.5594V31.5694Z" fill="black"/>
<path d="M2.93047 32.6707C2.48047 32.6707 2.12047 32.6307 1.73047 32.6007C4.53047 32.4807 7.37047 30.7607 9.16047 28.5607L16.9005 19.0507L4.69047 19.0207L12.4705 17.6007L7.96047 16.4707L35.7105 16.5407L28.5705 19.0507H21.3505L11.7405 30.8807C11.4605 31.2207 10.9405 32.2207 11.2105 32.4107L11.6605 32.7207L2.94047 32.6707H2.93047Z" fill="black"/>
<path d="M120.72 31.17L126.28 30.46L118.31 32.55C117.5 32.76 116.36 32.62 116.14 31.91C116.05 31.64 116.1 31.19 116.28 30.96L118.52 28.15C118.76 27.85 118.72 27.3 118.34 27.19C117.54 26.96 116.72 27.29 116.21 27.93L112.44 32.69H110.11L111.56 30.71L108.02 32.45C107.29 32.81 106.13 32.79 105.94 32.29C105.89 32.16 105.94 31.87 106.03 31.76L110.49 26.01C110.19 25.75 109.97 25.65 109.61 25.5H113.7L109.39 31.04C110.43 30.68 111.35 30.31 112.26 29.88L114.9 26.55C115.08 26.32 115.03 26.03 114.8 25.88L114.21 25.5L118.05 25.52L117.55 26.36C118.75 25.93 120.16 25.24 121.32 25.65C121.51 25.72 121.74 25.95 121.79 26.11C121.84 26.26 121.81 26.64 121.69 26.79L119.08 30.18C119 30.29 118.95 30.54 118.97 30.64C119.09 31.1 120.12 31.24 120.68 31.17H120.72Z" fill="black"/>
<path d="M98.64 32.5891L95.02 37.0191H90.75C91.33 36.8791 91.83 36.7291 92.38 36.4591C93.54 35.7091 94.59 34.8491 95.48 33.7491L101.72 26.1091C101.29 25.8991 100.87 25.9391 100.39 25.9291L104.4 24.6291C104.54 24.5791 104.85 24.6991 105.01 24.7591L104.5 25.4591C105.86 25.5291 108.35 25.5791 108.14 27.5691C107.92 29.6291 105.41 31.5791 103.51 32.1291C101.93 32.5891 100.39 32.6391 98.63 32.5891H98.64ZM105.64 28.0491C105.77 27.5491 105.53 27.2091 105.17 26.9691C104.67 26.7091 104 26.5691 103.45 26.7391L99.96 31.0091C101.73 31.1791 103.42 30.6491 104.69 29.4991C105.12 29.1091 105.49 28.6391 105.64 28.0591V28.0491Z" fill="black"/>
<path d="M21.16 27.9102C21.24 27.8102 21.28 27.6302 21.26 27.5502C21.15 27.1102 19.61 27.3702 19.22 27.8602L15.39 32.7102L12.25 32.6702C13.08 32.2002 13.63 31.7302 14.19 31.0402L22 21.3702C22 21.3702 22.12 21.1602 22.08 21.1302L21.89 20.9202L20.78 20.7102L25.59 19.9902L20.47 26.3202C21.65 25.8902 21.98 25.3502 23.41 25.5202C23.69 25.5502 23.99 25.7702 24.08 25.9602C24.21 26.2102 24.24 26.6702 24.05 26.9102L20.33 31.5902C20.04 31.9602 20.16 32.3502 20.49 32.7002L17.41 32.6802L21.15 27.9002L21.16 27.9102Z" fill="black"/>
<path d="M114.87 23.3407C115.24 24.4607 111.56 25.8407 111.16 24.7507C110.73 23.5907 114.5 22.2007 114.87 23.3407Z" fill="black"/>
</svg>
