<svg width="128" height="60" viewBox="0 0 128 60" fill="none" xmlns="http://www.w3.org/2000/svg">
<path d="M54.8966 23.2378H45.0664V26.2694H48.3132V34.1801H51.6498V26.2694H54.8966V23.2378Z" fill="#010101"/>
<path d="M66.6077 28.745C66.6077 25.1035 64.4731 23.0586 60.9572 23.0586C57.4413 23.0586 55.3066 25.1035 55.3066 28.745C55.3066 32.3327 57.4413 34.3417 60.9572 34.3417C64.4731 34.3417 66.6077 32.3327 66.6077 28.745ZM60.9572 31.3461C59.558 31.3461 58.697 30.485 58.697 28.745C58.697 26.9333 59.558 26.0543 60.9572 26.0543C62.3743 26.0543 63.2174 26.9333 63.2174 28.745C63.2174 30.485 62.3743 31.3461 60.9572 31.3461Z" fill="#010101"/>
<path d="M80.5804 23.2378H76.8492L74.6428 28.5116C74.5172 28.8345 74.4275 29.1754 74.3737 29.3727C74.3199 29.1754 74.2302 28.8345 74.0867 28.5116L71.8982 23.2378H68.1848L67.7363 34.1801H71.0551L71.1807 28.9601V28.5116L73.405 34.1801H75.3424L77.6026 28.5116V29.0498L77.6743 34.1801H81.0288L80.5804 23.2378Z" fill="#010101"/>
<path d="M89.6364 34.1801H92.9908V23.2378H89.6364V27.1663H86.1025V23.2378H82.748V34.1801H86.1025V30.2158H89.6364V34.1801Z" fill="#010101"/>
<path d="M99.7697 23.0586C96.2538 23.0586 94.1191 25.1035 94.1191 28.745C94.1191 32.3327 96.2538 34.3417 99.7697 34.3417C103.286 34.3417 105.42 32.3327 105.42 28.745C105.42 25.1035 103.286 23.0586 99.7697 23.0586ZM99.7697 31.3461C98.3705 31.3461 97.5095 30.485 97.5095 28.745C97.5095 26.9333 98.3705 26.0543 99.7697 26.0543C101.187 26.0543 102.03 26.9333 102.03 28.745C102.03 30.485 101.187 31.3461 99.7697 31.3461Z" fill="#010101"/>
<path d="M116.199 27.3815C116.199 24.7267 114.423 23.2378 111.266 23.2378H106.566V34.1801H109.921V31.4356H110.997L113.006 34.1801H116.576V33.8034L114.405 30.8257C115.553 30.162 116.199 29.0139 116.199 27.3815ZM111.481 28.7628H109.921V26.0362H111.302C112.325 26.0362 112.899 26.5205 112.899 27.3815C112.899 28.2605 112.396 28.7628 111.481 28.7628Z" fill="#010101"/>
<path d="M124.645 23.2378V28.7807L120.537 23.2378H117.506V34.1801H120.86V28.6372L124.968 34.1801H128V23.2378H124.645Z" fill="#010101"/>
<path d="M49.6265 38.6372C49.4362 38.3792 49.1731 38.1635 48.837 37.9902C48.5011 37.8172 48.1156 37.7305 47.681 37.7305C47.1922 37.7305 46.7457 37.8513 46.3419 38.0922C45.9378 38.3331 45.6188 38.671 45.3845 39.1057C45.1502 39.5401 45.0332 40.0394 45.0332 40.6027C45.0332 41.1665 45.1502 41.6705 45.3845 42.1151C45.6188 42.5597 45.9378 42.9061 46.3419 43.1538C46.7457 43.402 47.1922 43.5258 47.681 43.5258C48.109 43.5258 48.4908 43.4357 48.8269 43.2559C49.1631 43.0761 49.4294 42.8536 49.6265 42.5888V43.5258C49.6265 44.0687 49.4821 44.483 49.1936 44.7683C48.9049 45.0531 48.5265 45.1958 48.0579 45.1958C47.6573 45.1958 47.3127 45.1057 47.0241 44.9259C46.7356 44.746 46.5471 44.5099 46.4589 44.2181H45.308C45.376 44.8293 45.661 45.3132 46.1635 45.6694C46.666 46.0261 47.2975 46.2042 48.0579 46.2042C48.6283 46.2042 49.1187 46.0888 49.5295 45.8578C49.9404 45.6271 50.2543 45.3094 50.4717 44.9058C50.6889 44.5017 50.7976 44.0418 50.7976 43.5258V37.8223H49.6265V38.6372ZM49.3871 41.6363C49.2273 41.925 49.0187 42.1441 48.7607 42.2932C48.5025 42.4427 48.2243 42.5174 47.9255 42.5174C47.6336 42.5174 47.3569 42.441 47.0955 42.2881C46.8341 42.1356 46.6235 41.9131 46.464 41.6209C46.3045 41.3292 46.2248 40.9897 46.2248 40.6027C46.2248 40.2158 46.3045 39.8814 46.464 39.5995C46.6235 39.318 46.8324 39.104 47.0903 38.958C47.3483 38.8119 47.6268 38.7389 47.9255 38.7389C48.2243 38.7389 48.5025 38.8136 48.7607 38.9631C49.0187 39.1126 49.2273 39.3295 49.3871 39.6148C49.5464 39.8997 49.6265 40.2358 49.6265 40.6232C49.6265 41.0102 49.5464 41.348 49.3871 41.6363Z" fill="#010101"/>
<path d="M58.3647 38.6372C58.1676 38.3792 57.9045 38.1635 57.5752 37.9902C57.2459 37.8172 56.8607 37.7305 56.4193 37.7305C55.9305 37.7305 55.4839 37.8513 55.0801 38.0922C54.6761 38.3331 54.357 38.671 54.1228 39.1057C53.8885 39.5401 53.7715 40.0394 53.7715 40.6027C53.7715 41.1665 53.8885 41.6705 54.1228 42.1151C54.357 42.5597 54.6744 42.9061 55.075 43.1538C55.4756 43.402 55.9168 43.5258 56.399 43.5258C56.8334 43.5258 57.2205 43.4374 57.5601 43.261C57.8994 43.0842 58.1676 42.8638 58.3647 42.599V43.434H59.5358V37.8223H58.3647V38.6372ZM58.1253 41.6363C57.9656 41.925 57.757 42.1441 57.499 42.2932C57.2408 42.4427 56.9626 42.5174 56.6638 42.5174C56.3719 42.5174 56.0951 42.441 55.8337 42.2881C55.5724 42.1356 55.3618 41.9131 55.2023 41.6209C55.0428 41.3292 54.9631 40.9897 54.9631 40.6027C54.9631 40.2158 55.0428 39.8814 55.2023 39.5995C55.3618 39.318 55.5706 39.104 55.8286 38.958C56.0866 38.8119 56.3651 38.7389 56.6638 38.7389C56.9626 38.7389 57.2408 38.8136 57.499 38.9631C57.757 39.1126 57.9656 39.3295 58.1253 39.6148C58.2847 39.8997 58.3647 40.2358 58.3647 40.6232C58.3647 41.0102 58.2847 41.348 58.1253 41.6363Z" fill="#010101"/>
<path d="M70.876 38.0055C70.5262 37.8223 70.1312 37.7305 69.6895 37.7305C69.2755 37.7305 68.8883 37.8308 68.5285 38.0311C68.1686 38.2315 67.9038 38.5014 67.734 38.8409C67.544 38.4809 67.2723 38.2058 66.9193 38.0158C66.5664 37.8257 66.1658 37.7305 65.7175 37.7305C65.3848 37.7305 65.0726 37.7954 64.7807 37.924C64.4885 38.0534 64.2474 38.2332 64.0576 38.4638V37.8223H62.8965V43.434H64.0576V40.2969C64.0576 39.7946 64.1848 39.4094 64.4394 39.1412C64.694 38.873 65.0386 38.7389 65.4732 38.7389C65.9076 38.7389 66.2505 38.873 66.5019 39.1412C66.753 39.4094 66.8786 39.7946 66.8786 40.2969V43.434H68.0296V40.2969C68.0296 39.7946 68.1569 39.4094 68.4115 39.1412C68.666 38.873 69.0107 38.7389 69.4452 38.7389C69.8796 38.7389 70.2226 38.873 70.4741 39.1412C70.7248 39.4094 70.8508 39.7946 70.8508 40.2969V43.434H72.0014V40.1239C72.0014 39.6148 71.9015 39.1805 71.7012 38.8204C71.5009 38.4604 71.2258 38.1887 70.876 38.0055Z" fill="#010101"/>
<path d="M76.4718 37.8223H75.3105V43.434H76.4718V37.8223Z" fill="#010101"/>
<path d="M75.9014 35.5918C75.6908 35.5918 75.5144 35.6631 75.3717 35.8054C75.2291 35.948 75.1582 36.1248 75.1582 36.335C75.1582 36.5455 75.2291 36.7223 75.3717 36.8646C75.5144 37.0072 75.6908 37.0785 75.9014 37.0785C76.1051 37.0785 76.2785 37.0072 76.4207 36.8646C76.5634 36.7223 76.6347 36.5455 76.6347 36.335C76.6347 36.1248 76.5634 35.948 76.4207 35.8054C76.2785 35.6631 76.1051 35.5918 75.9014 35.5918Z" fill="#010101"/>
<path d="M83.8518 38.0055C83.502 37.8223 83.1065 37.7305 82.6653 37.7305C82.3325 37.7305 82.0186 37.7954 81.7231 37.924C81.4279 38.0534 81.1849 38.2332 80.9949 38.4638V37.8223H79.834V43.434H80.9949V40.2969C80.9949 39.7946 81.1221 39.4094 81.3767 39.1412C81.6313 38.873 81.9759 38.7389 82.4107 38.7389C82.8451 38.7389 83.188 38.873 83.4392 39.1412C83.6903 39.4094 83.8158 39.7946 83.8158 40.2969V43.434H84.9669V40.1239C84.9669 39.6148 84.8683 39.1805 84.6713 38.8204C84.4745 38.4604 84.2011 38.1887 83.8518 38.0055Z" fill="#010101"/>
<path d="M92.4817 38.6372C92.2917 38.3792 92.0285 38.1635 91.6924 37.9902C91.3563 37.8172 90.9711 37.7305 90.5363 37.7305C90.0477 37.7305 89.6009 37.8513 89.1973 38.0922C88.7933 38.3331 88.4742 38.671 88.2398 39.1057C88.0057 39.5401 87.8887 40.0394 87.8887 40.6027C87.8887 41.1665 88.0057 41.6705 88.2398 42.1151C88.4742 42.5597 88.7933 42.9061 89.1973 43.1538C89.6009 43.402 90.0477 43.5258 90.5363 43.5258C90.9642 43.5258 91.3461 43.4357 91.6822 43.2559C92.0183 43.0761 92.2848 42.8536 92.4817 42.5888V43.5258C92.4817 44.0687 92.3374 44.483 92.049 44.7683C91.7603 45.0531 91.3819 45.1958 90.9134 45.1958C90.5128 45.1958 90.1681 45.1057 89.8794 44.9259C89.5911 44.746 89.4023 44.5099 89.3143 44.2181H88.1633C88.2312 44.8293 88.5165 45.3132 89.0188 45.6694C89.5215 46.0261 90.1527 46.2042 90.9134 46.2042C91.4836 46.2042 91.9739 46.0888 92.3848 45.8578C92.7956 45.6271 93.1095 45.3094 93.3269 44.9058C93.5443 44.5017 93.6528 44.0418 93.6528 43.5258V37.8223H92.4817V38.6372ZM92.2425 41.6363C92.0828 41.925 91.8739 42.1441 91.616 42.2932C91.358 42.4427 91.0795 42.5174 90.781 42.5174C90.4889 42.5174 90.2121 42.441 89.9507 42.2881C89.6893 42.1356 89.4788 41.9131 89.3195 41.6209C89.1597 41.3292 89.0803 40.9897 89.0803 40.6027C89.0803 40.2158 89.1597 39.8814 89.3195 39.5995C89.4788 39.318 89.6876 39.104 89.9456 38.958C90.2036 38.8119 90.482 38.7389 90.781 38.7389C91.0795 38.7389 91.358 38.8136 91.616 38.9631C91.8739 39.1126 92.0828 39.3295 92.2425 39.6148C92.4018 39.8997 92.4817 40.2358 92.4817 40.6232C92.4817 41.0102 92.4018 41.348 92.2425 41.6363Z" fill="#010101"/>
<path d="M22.5059 22.2675C22.8245 22.3771 23.1338 22.5033 23.4334 22.6461C23.1738 22.0665 22.9088 21.4873 22.6467 20.9204C22.6071 21.3803 22.5579 21.8301 22.5059 22.2675Z" fill="#010101"/>
<path d="M26.3027 18.8883C26.4622 19.2267 26.6272 19.5766 26.7863 19.9248C27.6145 21.7355 28.463 23.7009 29.3803 25.9334C29.431 26.0567 29.485 26.1798 29.5388 26.3027L29.5498 26.3275C29.6735 26.6098 29.7994 26.8968 29.9094 27.213C29.9211 27.2432 29.9456 27.3092 30.0081 27.4841L30.0092 27.4871C30.3808 27.2395 30.8072 27.0537 31.295 26.9257L31.4644 26.8817C31.5858 26.8546 31.693 26.8387 31.8014 26.8236C32.0186 26.7932 32.227 26.7719 32.4574 26.7566C32.8226 26.7286 33.2397 26.7326 33.6446 26.7713C34.02 26.8031 34.3408 26.8518 34.6461 26.9239C35.2722 27.0717 35.8738 27.277 36.4378 27.5332C35.6107 21.0002 33.9515 16.7808 33.9515 16.7808L25.334 16.8489C25.6265 17.4585 25.9152 18.0654 26.1953 18.6603L26.3027 18.8883Z" fill="#010101"/>
<path d="M41.1272 34.3299C40.9502 33.7098 40.7078 33.0979 40.4074 32.5118C40.3074 32.3163 40.2006 32.1222 40.087 31.9309C39.1023 30.2713 37.8089 29.0521 36.2427 28.3075C35.6887 28.0442 35.0912 27.8361 34.4675 27.6889C34.2003 27.6258 33.9136 27.5827 33.5718 27.5537C33.3677 27.5342 33.1633 27.5241 32.9584 27.5241C32.8075 27.5241 32.6563 27.5298 32.5112 27.5408C32.3216 27.5534 32.132 27.5711 31.9121 27.6019C31.8222 27.6145 31.7323 27.6275 31.6375 27.6487L31.4962 27.6859C30.7727 27.8758 30.2208 28.2158 29.809 28.7246C29.7822 28.7579 29.7558 28.7918 29.7297 28.8273C29.648 28.6754 29.564 28.5079 29.4857 28.3316C29.434 28.2065 29.3406 27.945 29.27 27.7487C29.2234 27.6184 29.1853 27.5133 29.1742 27.4859C29.0725 27.1914 28.9501 26.9127 28.8319 26.643C28.7721 26.5066 28.712 26.3699 28.6553 26.2322C27.741 24.0068 26.8963 22.0506 26.0736 20.2517C25.9138 19.902 25.7497 19.5543 25.5857 19.2065L25.4863 18.9953C25.0935 18.1612 24.6963 17.3288 24.2951 16.4987L24.2043 16.3103C23.6359 15.1335 23.0673 13.9564 22.5191 12.7701C22.0473 11.7482 21.6646 10.8929 21.3149 10.0791L21.1859 9.78159C21.0992 9.58261 21.0123 9.38364 20.9303 9.18047C20.9167 9.14722 20.9057 9.11472 20.898 9.08147C20.88 9.00587 20.8842 8.94604 20.912 8.8692C20.9278 8.8261 20.9418 8.78228 20.9642 8.71037C21.0524 8.46436 21.1556 8.13536 21.1706 7.7741C21.1719 7.73889 21.1714 7.70515 21.1706 7.64604C21.1751 7.56994 21.1787 7.49386 21.177 7.41505C21.1758 7.37073 21.1723 7.32788 21.1647 7.24169L21.1586 7.15526C21.147 7.00528 21.1283 6.85925 21.098 6.68736L21.083 6.60512C21.0539 6.46327 21.0172 6.32586 20.9704 6.17712C20.9674 6.16654 20.9495 6.10817 20.946 6.09783C20.9337 6.06237 20.9192 6.02814 20.9039 5.99637C20.864 5.88925 20.8224 5.78287 20.7611 5.65875C20.7547 5.64324 20.7399 5.6132 20.7399 5.6132C20.6688 5.47653 20.5894 5.34502 20.5008 5.2187C20.2324 4.83576 19.8837 4.50405 19.4643 4.23342C19.1806 4.04972 18.8765 3.9325 18.5618 3.88497C18.4564 3.86872 18.3512 3.86084 18.2473 3.86084C18.1961 3.86084 18.1451 3.86281 18.0946 3.8665C17.9417 3.87808 17.79 3.90689 17.6425 3.95245C17.0466 4.13911 16.5646 4.59961 16.3199 5.21623C16.2024 5.51223 16.1347 5.82548 16.1187 6.15151C16.1155 6.17787 16.1128 6.21086 16.1123 6.23106C16.1051 6.56892 16.1588 6.91269 16.2716 7.25178C16.3565 7.50937 16.4656 7.75957 16.604 8.01641C16.7254 8.24149 16.8651 8.46337 17.0552 8.72834C17.1069 8.80074 17.1586 8.87289 17.1978 8.92214C17.2066 8.93593 17.2312 8.97238 17.2413 8.98544C17.3532 9.1327 17.4534 9.28168 17.5401 9.42869C17.5817 9.49912 17.6181 9.57276 17.6548 9.64589L17.7568 9.84266C17.7789 9.88378 17.8013 9.92465 17.82 9.96505C17.82 9.96505 17.9011 10.1389 17.9254 10.196C18.0639 10.5196 18.1867 10.8469 18.3037 11.1714C18.7009 12.2966 18.9843 13.5045 19.1705 14.8641C19.2486 15.4314 19.302 15.9892 19.3503 16.5115C19.5158 18.3099 19.2341 20.578 18.8738 22.3389C16.5769 22.0629 15.5545 22.7243 15.0876 22.7083C15.0696 22.7068 14.9632 22.7054 14.9632 22.7054C14.8081 22.7054 14.6556 22.7152 14.504 22.73C13.6938 22.8105 12.8801 23.1095 12.0168 23.6443C11.3051 24.0849 10.6653 24.6171 10.1159 25.2253C9.15995 26.2803 8.47783 27.5746 8.08876 29.0723C8.07714 29.117 8.06818 29.1623 8.05727 29.2071L7.46885 28.3892C7.9057 26.9719 8.59751 25.7309 9.53382 24.6977C10.1321 24.0352 10.8287 23.4558 11.6033 22.9763C12.5705 22.3772 13.494 22.0408 14.4264 21.9481C14.6238 21.9289 14.7989 21.9197 14.9633 21.9197L14.9741 21.9198C15.0351 21.9206 15.0736 21.9215 15.0991 21.9224C15.158 21.914 15.306 21.872 15.4262 21.8379C15.9847 21.6794 16.866 21.4296 18.2347 21.4963C18.4372 20.3556 18.6902 18.5242 18.5921 16.9025L4.03249 17.0177L0.195312 23.836C5.80238 44.573 19.9122 50.2898 26.9583 51.8629C26.935 51.8259 26.9125 51.7881 26.8911 51.7494C26.5309 51.1074 26.4763 50.2855 26.7272 49.2426L26.7692 49.0703C26.8363 48.7967 26.973 48.2388 26.9204 48.0588C26.7817 47.9243 26.498 47.7887 26.2235 47.6574C25.9099 47.5072 25.5551 47.3371 25.2108 47.0915C24.7193 46.7412 24.2546 46.3 23.792 45.7442C23.6583 45.6301 23.4947 45.4872 23.3339 45.3324L23.3244 45.3231C23.1271 45.132 22.9312 44.9282 22.7255 44.6997L22.607 44.5658C22.3926 44.3213 22.2108 44.1012 22.0487 43.89C21.679 43.4085 21.3474 42.9026 21.0632 42.3863C21.0551 42.3714 21.047 42.3566 21.0389 42.3418C21.0127 42.35 20.9858 42.3579 20.9583 42.3652C20.3361 42.532 19.6778 42.6287 18.9457 42.6611C18.9383 42.6615 18.9048 42.6619 18.8813 42.6621C18.7619 42.6679 18.6269 42.6709 18.4881 42.6724L18.4083 41.8876C18.5665 41.8868 18.7235 41.8834 18.8585 41.8767C18.8642 41.8767 18.9024 41.8767 18.911 41.8762C19.586 41.8464 20.189 41.758 20.7549 41.6063C21.0078 41.5386 21.1842 41.4016 21.2787 41.1992C21.2908 41.1736 21.3024 41.1448 21.3122 41.1133C21.4437 41.4169 21.59 41.7149 21.7515 42.0074C22.0165 42.4889 22.3261 42.9612 22.6718 43.4116C22.8412 43.6322 23.017 43.8418 23.1953 44.0452L23.3094 44.174C23.4918 44.3767 23.6787 44.5727 23.8708 44.7586C23.8735 44.7613 23.8762 44.7638 23.8787 44.7662C24.0329 44.9147 24.1924 45.0539 24.3535 45.1903C24.7869 45.7183 25.2171 46.1312 25.667 46.4519C25.9559 46.658 26.2642 46.8057 26.5624 46.9486C26.9197 47.1195 27.2571 47.2813 27.4859 47.5132C27.5317 47.5595 27.5693 47.6083 27.5991 47.6588C27.8279 48.052 27.6708 48.6921 27.5324 49.2567L27.491 49.4264C27.2886 50.2679 27.3182 50.9049 27.5794 51.3706C27.7823 51.7392 28.1182 51.9798 28.5507 52.0665C28.6366 52.0837 28.7223 52.0919 28.8073 52.0919C29.1744 52.0919 29.5362 51.9377 29.8186 51.6693C29.7967 51.7877 29.7851 51.9064 29.7743 52.0249C29.7615 52.1677 29.7502 52.2911 29.7157 52.379C29.644 52.5617 29.5315 52.7504 29.4121 52.9498C29.205 53.2963 28.9703 53.6889 28.8866 54.1678C28.8262 54.5108 28.876 54.8261 29.0314 55.0987C29.1693 55.3464 29.3732 55.5291 29.5542 55.6752C29.8164 55.8869 30.2245 56.1396 30.6781 56.1396C30.9896 56.1396 31.2725 56.0224 31.4969 55.8007C31.9882 55.3139 31.9613 54.5941 31.9436 54.1178L31.9384 53.958C31.9325 53.6874 31.9145 53.4389 31.8838 53.1986C31.8569 52.9912 31.8902 52.8016 31.9978 52.5435C32.1731 52.1231 32.296 51.6974 32.4147 51.2859C32.4945 51.0091 32.574 50.7321 32.6703 50.4594C32.7329 50.2824 32.8639 49.9238 32.8648 49.9211C32.9242 49.9352 32.9909 49.948 33.0746 49.9613C33.1539 49.9721 33.233 49.978 33.3465 49.978C33.3487 49.978 33.4401 49.9748 33.4401 49.9748C33.5132 49.9728 33.5864 49.9684 33.6595 49.9546C34.1998 49.8539 34.611 49.4968 34.777 49.0051C34.7851 48.9849 34.8016 48.9371 34.8073 48.9159C34.8305 48.8536 34.8499 48.7903 34.861 48.7221C34.8787 48.6147 34.8873 48.5061 34.8952 48.3975C34.9014 48.3143 34.9056 48.2311 34.9228 48.1488C34.9482 48.0257 35.0026 47.8942 35.0895 47.7459C35.2993 47.3874 35.6 47.0483 35.8908 46.72C36.1504 46.4267 36.4646 46.1066 36.8296 45.9537C36.93 45.9113 37.0187 45.8505 37.0941 45.7724C37.1135 45.7591 37.1325 45.7456 37.1517 45.732C37.1519 45.7358 37.1524 45.7392 37.1526 45.7429C37.1669 45.897 37.1403 46.0537 37.0608 46.2842C36.9687 46.5521 36.8143 47.0005 37.0175 47.4948C37.0189 47.4982 37.0204 47.5019 37.0224 47.5053C37.2246 47.9742 37.6892 48.2646 38.2406 48.2646C38.3901 48.2646 38.5383 48.2426 38.6804 48.1998C39.3067 48.0107 39.7253 47.4603 39.829 46.69C39.8854 46.2706 39.875 45.8596 39.8649 45.4624C39.86 45.2627 39.8546 45.0632 39.8593 44.8657C39.8758 44.154 39.9467 43.6317 40.089 43.172C40.1873 42.8541 40.3464 42.546 40.5145 42.22C40.5887 42.0766 40.6625 41.9333 40.7322 41.7878C40.8022 41.6417 40.8704 41.495 40.9283 41.343C41.1629 40.7279 41.5247 37.7337 41.5089 36.9084C41.4924 36.0251 41.3639 35.1578 41.1272 34.3299ZM6.26227 19.4069H15.6279L7.79123 20.9204L6.26227 25.9021V19.4069ZM28.0839 31.6498C28.0902 31.6828 28.0975 31.7158 28.1046 31.7492C28.1115 31.7826 28.1179 31.8164 28.1229 31.8511C28.1329 31.9204 28.1359 31.9933 28.1211 32.0734C28.0943 32.0351 28.0804 32.0221 28.0753 32.0062C28.0043 31.7881 27.9231 31.5735 27.843 31.3587C27.9107 31.4535 27.9871 31.5499 28.0839 31.6498ZM21.6619 22.7073C21.7772 21.7814 21.8931 20.7924 21.935 19.7759C21.9653 19.0494 21.9756 18.3279 21.966 17.6219C22.095 17.8888 22.2229 18.156 22.3482 18.4227C22.954 19.7126 23.641 21.1746 24.289 22.6325C24.6446 23.4328 24.9681 24.1871 25.2641 24.9057C25.1597 24.7912 25.0479 24.6806 24.9287 24.5742C23.9954 23.7409 22.8924 23.154 21.6469 22.828L21.6619 22.7073ZM24.8907 25.9021C24.5926 25.8656 24.1134 25.6819 23.3992 25.2013C22.8702 24.8453 22.3891 24.4286 22.0598 24.0753C22.4424 24.0631 23.0478 24.2254 23.5946 24.5748C24.0341 24.8557 24.5458 25.417 24.8907 25.9021ZM19.4987 7.8782C18.9682 7.70802 18.3116 6.68197 17.7425 5.95581C17.0542 5.07768 18.051 4.60302 18.8817 4.79288C19.4125 4.9142 20.1389 5.81615 20.2819 6.24061C20.5183 6.94182 20.1481 8.08653 19.4987 7.8782ZM20.3536 38.7389C20.3536 38.7389 19.1592 29.9725 26.3655 28.7631C26.3655 28.7631 20.5839 31.2852 20.3536 38.7389ZM28.2781 51.0795C27.7374 50.3225 28.4128 49.3857 28.4513 48.2693C28.4898 47.153 28.2396 46.8835 26.5843 45.9597C24.929 45.0358 23.216 42.7069 23.216 42.7069C24.7943 44.3429 26.1097 45.5783 27.027 46.0174C28.8363 46.8835 28.7668 47.2298 28.7785 47.9421C28.7978 49.1162 28.0919 50.1175 28.4706 50.7907C28.6438 51.0987 29.048 51.1757 29.4522 50.7523C29.7458 50.4447 28.9517 52.0226 28.2781 51.0795ZM30.6359 54.9963C31.0401 54.8038 31.0448 55.2226 30.9631 55.3043C30.8284 55.439 30.3052 55.663 29.789 54.9001C29.3463 54.2456 30.1258 53.2929 30.3857 52.9176C30.6455 52.5423 30.5974 52.1188 30.6551 51.4837C30.7129 50.8485 31.0786 50.6753 31.1363 49.4916C31.1868 48.4576 30.523 47.6912 30.4034 47.5629C30.3986 47.5581 30.3942 47.5532 30.3893 47.5484C30.38 47.5391 30.386 47.5444 30.4034 47.5629C30.9152 48.0805 31.1377 48.6131 31.2903 49.3568C31.3793 49.7909 31.0637 50.6684 30.8861 51.3393C30.7129 51.9937 30.8663 52.393 30.7129 52.8021C30.5396 53.264 29.943 53.5624 29.9045 54.3996C29.8839 54.8474 30.3265 55.1436 30.6359 54.9963ZM38.5714 47.4772C37.9218 47.7659 37.6034 47.1193 37.7333 46.7151C37.8633 46.3109 37.8883 46.0802 37.8594 45.6616C37.8305 45.2429 37.5568 44.8428 37.5568 44.8428C38.1655 45.0099 38.073 45.9108 38.073 46.2134C38.073 46.525 37.9126 47.2005 38.5536 47.0322C38.9534 46.9272 39.1047 46.513 39.1047 46.513C39.1047 46.513 39.221 47.1885 38.5714 47.4772Z" fill="#010101"/>
</svg>
