<svg width="128" height="60" viewBox="0 0 128 60" fill="none" xmlns="http://www.w3.org/2000/svg">
<path fill-rule="evenodd" clip-rule="evenodd" d="M47.2044 50.5482C45.4482 50.545 43.7646 49.8458 42.5227 48.6039C41.2809 47.362 40.5816 45.6785 40.5784 43.9222V42.577C40.5816 40.5697 41.3806 38.6455 42.8 37.226C44.2195 35.8066 46.1437 35.0077 48.151 35.0044H58.0403V39.6003H47.9642C46.6689 39.6003 45.6227 41.1074 45.6227 42.9756C45.6227 44.8438 46.6689 46.3384 47.9517 46.3509H53.6437V44.6321H50.5548V41.2693H58.0403V47.5092C58.0403 48.0074 57.7663 48.4558 57.3428 48.68L54.2041 50.3739C53.9799 50.4984 53.7433 50.5482 53.4942 50.5482H47.2044ZM57.1684 13.4449H62.3871V25.8625H69.2996V13.4573H74.5182V26.3233C74.5182 28.9388 72.4008 31.0562 69.7853 31.0562H61.9138C60.6586 31.0562 59.4547 30.5575 58.5671 29.67C57.6796 28.7824 57.1809 27.5785 57.1809 26.3233V13.4449H57.1684ZM40.5784 13.4449V18.5016H45.7098V31.0811H50.8413V18.5016H55.9727V13.4573H40.5784V13.4449ZM127.925 22.263C127.925 24.5984 126.997 26.8382 125.346 28.4895C123.695 30.1409 121.455 31.0686 119.119 31.0686C116.784 31.0686 114.544 30.1409 112.893 28.4895C111.242 26.8382 110.314 24.5984 110.314 22.263C110.314 19.9276 111.242 17.6878 112.893 16.0365C114.544 14.3851 116.784 13.4573 119.119 13.4573C121.455 13.4573 123.695 14.3851 125.346 16.0365C126.997 17.6878 127.925 19.9276 127.925 22.263ZM116.379 18.1777C116.421 18.1308 116.471 18.0926 116.528 18.0652C116.584 18.0379 116.645 18.0219 116.708 18.0185C116.77 18.0151 116.833 18.0241 116.892 18.045C116.951 18.0659 117.005 18.0983 117.052 18.1404L119.119 19.9962L121.187 18.1404C121.386 17.966 121.685 17.9785 121.86 18.1777L123.479 19.9837C123.653 20.183 123.641 20.4819 123.441 20.6563L121.648 22.263L123.441 23.8697C123.641 24.044 123.653 24.343 123.479 24.5298L121.86 26.3482C121.818 26.3952 121.768 26.4334 121.711 26.4608C121.655 26.4881 121.594 26.504 121.531 26.5075C121.468 26.5109 121.406 26.5019 121.347 26.481C121.288 26.4601 121.233 26.4277 121.187 26.3856L119.119 24.5173L117.052 26.3856C117.005 26.4277 116.951 26.4601 116.892 26.481C116.833 26.5019 116.77 26.5109 116.708 26.5075C116.645 26.504 116.584 26.4881 116.528 26.4608C116.471 26.4334 116.421 26.3952 116.379 26.3482L114.76 24.5298C114.679 24.4366 114.638 24.3154 114.645 24.1921C114.651 24.0688 114.706 23.9531 114.798 23.8697L116.591 22.2505L114.798 20.6563C114.751 20.6148 114.712 20.5644 114.685 20.5081C114.658 20.4517 114.642 20.3904 114.638 20.3279C114.635 20.2652 114.644 20.2026 114.665 20.1435C114.686 20.0845 114.718 20.0302 114.76 19.9837L116.379 18.1777ZM76.237 34.855H81.4432L85.6778 40.8956L89.7631 34.855H94.9693V50.4486H89.7631V43.3368L86.9981 47.1605H84.4573L81.4432 43.0005V50.4486H76.237V34.855ZM58.7876 50.4112H63.9439L64.604 48.5679H69.3867L70.0469 50.4112H75.1908L69.5736 34.693H64.4172L58.7876 50.4112ZM68.0541 44.8688L66.9954 41.8796L65.9243 44.8688H68.0541ZM112.095 39.974C112.095 37.4082 112.78 34.6557 116.541 34.6557L116.554 34.6806H127.888V39.127H117.376L117.127 39.1395C115.968 39.1395 116.13 40.5095 116.703 40.8583H123.753C124.923 40.8583 126.032 41.3814 126.779 42.2906C127.464 43.1624 127.464 44.1837 127.452 46.0893V46.8616C127.452 49.7262 124.214 50.6603 122.507 50.5358H96.7254V34.9671H110.077V39.401H101.184V40.8458H107.3V44.383H101.184V46.1018H122.482C122.993 45.1677 122.607 44.5698 122.358 44.383H117.127L116.217 44.4079C113.054 44.4079 112.107 42.5397 112.107 39.9864L112.095 39.974ZM94.2967 13.4449H104.659C107.275 13.4449 109.392 15.5622 109.392 18.1777V19.8592C109.392 20.9677 108.769 21.9267 107.848 22.3875C108.474 22.7564 108.993 23.2827 109.354 23.914C109.714 24.5454 109.904 25.26 109.903 25.987V26.3358C109.903 28.9513 107.785 31.0686 105.17 31.0686H94.2967V13.4573V13.4449ZM98.9299 17.2436H103.538C104.597 17.2436 105.444 18.0906 105.444 19.1368V19.3112C105.444 20.3574 104.597 21.2043 103.551 21.2043H98.9299V17.2436ZM98.9299 23.8946H103.538C104.597 23.8946 105.444 24.7415 105.444 25.7877V25.9621C105.444 27.0083 104.597 27.8677 103.551 27.8677H98.9299V23.8946ZM75.7139 13.3701H87.0853C88.4367 13.374 89.7429 13.8575 90.7711 14.7346C91.7992 15.6117 92.4826 16.8253 92.6995 18.1592C92.9163 19.4931 92.6525 20.8607 91.955 22.0184C91.2576 23.1759 90.1719 24.0483 88.8912 24.48L93.3127 31.0686H87.4589L84.2829 25.5635H81.2688V31.0686H75.7139V13.3577V13.3701ZM85.8273 17.1564H81.1567V20.9677H85.8273C86.3327 20.9677 86.8174 20.7669 87.1748 20.4096C87.5322 20.0521 87.7329 19.5675 87.7329 19.0621C87.7329 18.5566 87.5322 18.072 87.1748 17.7146C86.8174 17.3572 86.3327 17.1564 85.8273 17.1564ZM37.1657 31.8658C37.1657 36.7844 35.2118 41.5014 31.7339 44.9794C28.2559 48.4573 23.5389 50.4112 18.6203 50.4112C13.7017 50.4112 8.98462 48.4573 5.50667 44.9794C2.02871 41.5014 0.0748291 36.7844 0.0748291 31.8658C0.0748291 26.9472 2.02872 22.2301 5.50667 18.7522C8.98462 15.2742 13.7017 13.3203 18.6203 13.3203C23.5389 13.3203 28.2559 15.2742 31.7339 18.7522C35.2118 22.2301 37.1657 26.9472 37.1657 31.8658ZM11.1473 18.8254C11.2801 18.6929 11.4379 18.588 11.6115 18.5169C11.7851 18.4458 11.9711 18.4097 12.1588 18.4109C12.3464 18.412 12.5319 18.4504 12.7047 18.5236C12.8773 18.597 13.0339 18.7037 13.165 18.8379L18.6203 24.3928L24.0756 18.8379C24.3401 18.5707 24.6997 18.4195 25.0756 18.4171C25.4515 18.4148 25.813 18.5616 26.0808 18.8254L31.5236 24.1561C32.0841 24.7166 32.0841 25.6134 31.5361 26.1738L25.9563 31.8658L31.5361 37.5577C32.0841 38.1182 32.0841 39.0149 31.5236 39.5629L26.0808 44.9061C25.5203 45.4541 24.6236 45.4417 24.0756 44.8812L18.6203 39.3263L13.165 44.8812C12.617 45.4417 11.7078 45.4541 11.1473 44.9061L5.71693 39.5629C5.44817 39.3001 5.29461 38.9414 5.28994 38.5654C5.28527 38.1895 5.42986 37.8271 5.69202 37.5577L11.2968 31.8658L5.69202 26.1738C5.56034 26.0402 5.45644 25.8818 5.38635 25.7077C5.31626 25.5337 5.28137 25.3475 5.28369 25.1598C5.286 24.9722 5.32548 24.7869 5.39984 24.6146C5.47421 24.4424 5.58198 24.2865 5.71693 24.1561L11.1473 18.8254Z" fill="black"/>
</svg>
