<svg width="129" height="60" viewBox="0 0 129 60" fill="none" xmlns="http://www.w3.org/2000/svg">
<path d="M22.7507 25.1998V34.5998H26.3507V25.1998H22.7507ZM77.2507 25.1998V34.5998H80.7507V25.1998H77.2507ZM97.1507 25.1998V34.5998H100.751V25.1998H97.1507ZM102.051 25.1998V28.0998H106.151V34.6998H109.751V28.0998H113.951V25.1998H102.051ZM47.2507 38.1998H43.9507C43.3507 38.1998 42.9507 37.8998 42.8507 37.3998C42.8507 37.1998 42.7507 36.9998 42.7507 36.8998V22.7998C42.8507 22.2998 43.2507 21.8998 43.7507 21.7998H47.2507L47.1507 21.8998C46.6507 22.4998 46.2507 23.0998 46.3507 23.9998V25.0998C46.5507 26.1998 47.2507 26.9998 48.2507 27.2998C48.6507 27.4998 49.1507 27.4998 49.5507 27.4998H55.2507C55.6507 27.4998 55.8507 27.8998 55.7507 28.2998C55.6507 28.4998 55.5507 28.5998 55.3507 28.5998H50.0507C49.7507 28.5998 49.6507 28.3998 49.5507 28.1998V28.0998H46.2507V28.8998C46.3507 29.7998 46.7507 30.4998 47.5507 30.8998C48.0507 31.1998 48.6507 31.3998 49.2507 31.3998H56.2507C57.3507 31.2998 58.2507 30.7998 58.8507 29.7998C59.0507 29.4998 59.0507 29.1998 59.0507 28.7998V27.7998C59.0507 26.7998 58.5507 25.9998 57.6507 25.4998C57.1507 25.1998 56.6507 25.0998 56.1507 24.9998H50.0507C49.5507 24.9998 49.3507 24.4998 49.6507 24.0998C49.7507 23.9998 49.8507 23.8998 50.0507 23.8998H54.7507C55.1507 23.8998 55.2507 23.9998 55.3507 24.3998V24.4998H58.7507C58.8507 23.4998 58.5507 22.6998 57.7507 21.9998H61.7507C62.2507 22.0998 62.6507 22.4998 62.6507 23.0998V37.2998C62.6507 37.9998 62.1507 38.3998 61.4507 38.4998H58.8507C58.8507 38.3998 58.7507 38.3998 58.7507 38.3998C58.1507 37.2998 57.2507 36.7998 56.0507 36.6998H50.3507C50.1507 36.6998 49.9507 36.6998 49.7507 36.5998C49.4507 36.4998 49.3507 36.3998 49.3507 36.0998C49.3507 35.7998 49.4507 35.5998 49.7507 35.5998H54.5507C54.8507 35.5998 55.0507 35.7998 55.1507 36.0998V36.1998H58.2507C58.3507 36.1998 58.3507 36.0998 58.3507 35.9998C58.3507 35.0998 58.1507 34.3998 57.5507 33.7998C57.0507 33.2998 56.3507 32.9998 55.6507 32.8998H49.3507C48.9507 32.8998 48.5507 32.8998 48.1507 32.9998C47.9507 32.9998 47.8507 33.0998 47.6507 33.0998C46.6507 33.4998 46.0507 34.1998 45.8507 35.2998C45.7507 35.6998 45.8507 36.0998 45.8507 36.4998C45.8507 36.6998 45.8507 36.9998 45.9507 37.1998C46.0507 37.6998 46.3507 38.0998 46.6507 38.3998C47.1507 38.0998 47.2507 38.1998 47.2507 38.1998ZM127.651 25.1998L122.751 31.4998V34.6998H119.451V31.4998L114.551 25.1998H118.551L121.051 28.6998L123.651 25.1998H127.651ZM82.7507 25.1998H87.3507L91.5507 30.6998V25.1998H95.1507V34.6998H90.4507L86.3507 29.0998V34.6998H82.7507V25.1998ZM28.2507 25.1998H32.8507L37.0507 30.6998V25.1998H40.5507V34.6998H35.9507L31.8507 29.0998V34.6998H28.2507V25.1998ZM75.5507 27.5998C75.3507 25.7998 73.8507 25.2998 72.9507 25.2998H64.6507V34.6998H68.2507V32.3998C68.2507 32.3998 71.3507 32.4998 73.1507 32.3998C75.9507 32.2998 75.6507 28.5998 75.5507 27.5998ZM72.1507 28.9998C71.9507 29.3998 71.4507 29.2998 71.1507 29.2998H68.2507V28.0998H71.6507C72.0507 28.1998 72.3507 28.5998 72.1507 28.9998ZM21.5507 25.1998L18.5507 34.6998H13.1507L11.6507 29.2998L10.1507 34.6998H4.75073L1.75073 25.1998H5.45073L7.45073 31.6998L9.55073 25.1998H13.7507L15.8507 31.6998L17.8507 25.1998H21.5507Z" fill="black"/>
</svg>
