<svg xmlns="http://www.w3.org/2000/svg" viewBox="0 0 24 16" width="24" height="16">
  <rect width="24" height="16" fill="#DE2910"/>
  <path fill="#FFDE00" d="M4.2 3.2l.55 1.7h1.8L5.1 6l.55 1.7L4.2 6.9 2.75 7.7l.55-1.7-1.45-1.1h1.8z"/>
  <path fill="#FFDE00" d="M8.2 1.4l.35 1.1h1.1l-.9.65.35 1.1-.9-.65-.9.65.35-1.1-.9-.65h1.1z"/>
  <path fill="#FFDE00" d="M9.6 3.6l.35 1.1h1.1l-.9.65.35 1.1-.9-.65-.9.65.35-1.1-.9-.65h1.1z"/>
  <path fill="#FFDE00" d="M9.2 6.4l.35 1.1h1.1l-.9.65.35 1.1-.9-.65-.9.65.35-1.1-.9-.65h1.1z"/>
  <path fill="#FFDE00" d="M7.4 8l.35 1.1h1.1l-.9.65.35 1.1-.9-.65-.9.65.35-1.1-.9-.65h1.1z"/>
</svg>
