<svg xmlns="http://www.w3.org/2000/svg" viewBox="0 0 16 16" fill="currentColor" aria-hidden="true">
  <path d="M16 2.5c0 .5625-.4469 1.0812-1.2 1.5-.9094.5031-2.2656.8594-3.8219.9656a4.472 4.472 0 0 0-.3531-.1562C9.3938 4.2938 7.7562 4 6 4c-.2594 0-.5125.0062-.7656.0187L5.2 4C4.4469 3.5812 4 3.0625 4 2.5 4 1.1187 6.6875 0 10 0s6 1.1187 6 2.5ZM5.0219 5.0344C5.3406 5.0125 5.6688 5 6 5c1.9437 0 3.6687.3844 4.7656.9813C11.5406 6.403 12 6.928 12 7.5c0 .125-.0219.2469-.0656.3656-.1438.4125-.5313.7907-1.0938 1.1094-.0031.0031-.0093.0031-.0125.0062-.0094.0063-.0187.0094-.0281.0157-1.0938.6062-2.8375 1-4.8 1-1.8625 0-3.5281-.3531-4.6312-.9094-.0594-.0281-.1157-.0594-.172-.0906C.4469 8.5813 0 8.0625 0 7.5c0-1.0875 1.6687-2.0156 4-2.3563a14.4256 14.4256 0 0 1 1.0219-.1093ZM13 7.5c0-.6844-.3313-1.2469-.7531-1.6688.8843-.1375 1.6937-.3562 2.3812-.6406.5094-.2125.9844-.475 1.3719-.7969V5.5c0 .6031-.5156 1.1594-1.3687 1.5906-.4563.2313-1.0126.4281-1.6376.5781.0032-.0562.0063-.1093.0063-.1656V7.5Zm-1 3c0 .5625-.4469 1.0813-1.2 1.5-.0562.0312-.1125.0594-.1719.0906C9.5281 12.6469 7.8625 13 6 13c-1.9625 0-3.7062-.3938-4.8-1-.7531-.4187-1.2-.9375-1.2-1.5V9.3938c.3906.3218.8625.5843 1.3719.7968C2.6063 10.7063 4.2438 11 6 11c1.7562 0 3.3938-.2937 4.6281-.8094.2438-.1.4782-.2156.7-.3406a4.9622 4.9622 0 0 0 .5375-.35c.0469-.0344.0907-.0719.1344-.1062V10.5Zm1 0V8.6906c.5938-.1312 1.1406-.2968 1.6281-.5.5094-.2125.9844-.475 1.3719-.7969V8.5c0 .3281-.1562.6563-.4656.9656-.5094.5094-1.4063.9281-2.5407 1.2A2.7612 2.7612 0 0 0 13 10.5ZM6 14c1.7562 0 3.3938-.2937 4.6281-.8094.5094-.2125.9844-.475 1.3719-.7968V13.5c0 1.3813-2.6875 2.5-6 2.5s-6-1.1187-6-2.5v-1.1062c.3906.3218.8625.5843 1.3719.7968C2.6063 13.7063 4.2438 14 6 14Z"/>
</svg>
