<svg xmlns="http://www.w3.org/2000/svg" viewBox="0 0 16 16" fill="currentColor" aria-hidden="true">
  <path fill-rule="evenodd" clip-rule="evenodd" d="M3.17 1.26c-.87 0-1.58.7-1.58 1.59h9.52c0-.88-.71-1.6-1.59-1.6H3.17ZM0 5.23c0-.88.71-1.6 1.59-1.6h9.52c.87 0 1.58.72 1.58 1.6v5.55c0 .87-.7 1.59-1.58 1.59H1.59c-.88 0-1.59-.72-1.59-1.6V5.24Zm7.86 1.66L6.7 9.6a.65.65 0 1 1-1.2-.53l.86-1.88h-.9a.58.58 0 1 1 0-1.16h1.81a.63.63 0 0 1 .58.87Zm-3.7 0L3 9.6a.65.65 0 1 1-1.19-.53l.86-1.88h-.9a.58.58 0 0 1 0-1.16h1.8a.63.63 0 0 1 .58.87Zm6.25 2.7 1.15-2.7a.63.63 0 0 0-.57-.87H9.18a.58.58 0 0 0 0 1.16h.9l-.86 1.88a.65.65 0 1 0 1.2.53ZM1.6 13.95c0-.44.35-.8.79-.8l10.86-.05a.8.8 0 0 0 .79-.8V6.47a1.19 1.19 0 0 1 .78-2.09 1.19 1.19 0 0 1 .8 2.07v6.67c0 .87-.7 1.58-1.58 1.58l-11.65.05a.8.8 0 0 1-.8-.8Z"/>
</svg>
