<svg xmlns="http://www.w3.org/2000/svg" viewBox="0 0 16 16" fill="currentColor" aria-hidden="true">
  <path d="M0 10.84v.07a2.7 2.7 0 0 0 5.31.65l.09-.36h5.2l.09.36A2.7 2.7 0 0 0 16 10.9v-.07c0-.16-.01-.32-.04-.47l-.82-4.77c-.21-1.26-1.02-2.33-2.26-2.64A20.3 20.3 0 0 0 8 2.4c-2.1 0-3.74.27-4.88.56-1.24.3-2.05 1.38-2.26 2.64l-.82 4.77c-.03.15-.04.3-.04.47ZM10.8 9.4a1 1 0 1 1 0-2 1 1 0 0 1 0 2ZM13.4 6a1 1 0 1 1-2 0 1 1 0 0 1 2 0Zm-8-.2v.8h.8a.6.6 0 1 1 0 1.2h-.8v.8a.6.6 0 0 1-.6.6.6.6 0 0 1-.6-.6v-.8h-.8a.6.6 0 0 1-.6-.6c0-.33.27-.6.6-.6h.8v-.8a.6.6 0 1 1 1.2 0Z"/>
</svg>
