<svg xmlns="http://www.w3.org/2000/svg" viewBox="0 0 16 16" fill="currentColor" aria-hidden="true">
  <path d="M9.25 1h6c.41 0 .75.34.75.75v5c0 .41-.34.75-.75.75h-6a.75.75 0 0 1-.75-.75v-5c0-.41.34-.75.75-.75Zm-2.5 0h-6a.75.75 0 0 0-.75.75v5c0 .41.34.75.75.75h6c.41 0 .75-.34.75-.75v-5A.75.75 0 0 0 6.75 1ZM0 9.25v5c0 .41.34.75.75.75h6c.41 0 .75-.34.75-.75v-5a.75.75 0 0 0-.75-.75h-6a.75.75 0 0 0-.75.75ZM9.25 15h6c.41 0 .75-.34.75-.75v-5a.75.75 0 0 0-.75-.75h-6a.75.75 0 0 0-.75.75v5c0 .41.34.75.75.75Z"/>
</svg>
