<svg xmlns="http://www.w3.org/2000/svg" viewBox="0 0 32 32" fill="currentColor" aria-hidden="true">
  <path d="M16 0a16 16 0 100 32 16 16 0 000-32zm.6 4.6L22 2.4l1.9 1c.6.3 1.1.8 1.6 1.2l.7.6.1.1.7.7.6.7.1.2.6.8-1.1 4.7-5.5 1.8-5.2-4.2zM4.2 7v-.1l.6-.7.8-.8.7-.7L8 3.4l1.8-1 5.6 2.2V10l-5.2 4.2-5.5-1.8-1-4.7c0-.3.3-.5.5-.8zm-.7 17.3l-.4-.7v-.1l-.5-.8L2 21l-.2-.8V20l-.3-.8v-.1l-.3-1.8 3.3-4 5.4 1.9 1.6 6.3L8.8 25zm16 6.3l-.8.2-.8.1h-.8l-.2.1a14.4 14.4 0 01-1.7 0h-.8l-1.5-.3-3.2-5 2.6-3.3h7.4l2.6 3.4zm11-11.3l-.1.9-.3.9a15.1 15.1 0 01-1.1 2.4l-.5.8-5.3.8-2.6-3.4 1.6-6.3 5.4-1.8 3.3 3.9-.3 1.8z"/>
</svg>
