<svg xmlns="http://www.w3.org/2000/svg" viewBox="0 0 16 16" fill="currentColor" aria-hidden="true">
  <path d="M8 0a8 8 0 100 16A8 8 0 008 0zm2.07 10.83c-.31.38-.73.65-1.2.77a.33.33 0 00-.29.38v.63a.26.26 0 01-.29.3h-.68a.27.27 0 01-.3-.31v-.47c0-.34-.02-.35-.35-.4a4.54 4.54 0 01-1.38-.42.35.35 0 01-.08-.47l.2-.7c.08-.28.15-.31.4-.18a4 4 0 001.35.4c.3.04.61 0 .9-.12a.69.69 0 00.15-1.2 1.82 1.82 0 00-.5-.3c-.47-.18-.93-.4-1.38-.62a1.95 1.95 0 01-1.1-1.87 2.06 2.06 0 011.5-1.91c.37-.13.37-.13.38-.51v-.4c0-.28.05-.33.34-.34H8c.6 0 .6 0 .62.61 0 .44 0 .44.43.51a3.55 3.55 0 011.06.34.28.28 0 01.08.32l-.24.8c-.08.24-.16.28-.4.17-.47-.23-.99-.34-1.5-.3-.15 0-.29.03-.42.08a.58.58 0 00-.13 1.02c.2.15.42.28.65.36.41.16.82.34 1.2.55a2.17 2.17 0 01.7 3.28z"/>
</svg>
