<svg preserveAspectRatio="none" width="100%" height="100%" overflow="visible" style="display: block;" viewBox="0 0 12 12" fill="none" xmlns="http://www.w3.org/2000/svg">
<path id="Vector" d="M0 6C0 7.5913 0.632141 9.11742 1.75736 10.2426C2.88258 11.3679 4.4087 12 6 12C7.5913 12 9.11742 11.3679 10.2426 10.2426C11.3679 9.11742 12 7.5913 12 6C12 4.4087 11.3679 2.88258 10.2426 1.75736C9.11742 0.632141 7.5913 0 6 0C4.4087 0 2.88258 0.632141 1.75736 1.75736C0.632141 2.88258 0 4.4087 0 6ZM6 7.21C6.29572 7.21 6.57932 7.32747 6.78842 7.53658C6.99753 7.74568 7.115 8.02928 7.115 8.325C7.115 8.62072 6.99753 8.90432 6.78842 9.11342C6.57932 9.32253 6.29572 9.44 6 9.44C5.70296 9.44 5.41808 9.322 5.20804 9.11196C4.998 8.90192 4.88 8.61704 4.88 8.32C4.88 8.02296 4.998 7.73808 5.20804 7.52804C5.41808 7.318 5.70296 7.2 6 7.2V7.21ZM7.06 3.21L6.88 6.5C6.87 6.65 6.74 6.77 6.58 6.77H5.42C5.34643 6.77018 5.27554 6.74238 5.2217 6.69225C5.16785 6.64212 5.13507 6.57339 5.13 6.5L4.95 3.2C4.95 3.04 5.08 2.9 5.25 2.9H6.78C6.94 2.9 7.08 3.04 7.07 3.2L7.06 3.21Z" fill="#e95555"/>
</svg>
