<svg xmlns="http://www.w3.org/2000/svg" width="21" height="17" viewBox="0 0 21 17" fill="none" aria-hidden="true">
  <path fill="#8a9db0" d="M18.6562 6.125C19.4688 6.125 20.1562 6.8125 20.1562 7.625V14.625C20.1562 15.4688 19.4688 16.125 18.6562 16.125H11.6562C10.8125 16.125 10.1562 15.4688 10.1562 14.625V13.1875L14.4062 8.9375C15.1562 8.1875 15.3125 7.0625 14.9375 6.125H18.6562ZM15.1562 11.875C15.5625 11.875 15.9062 11.5625 15.9062 11.125C15.9062 10.7188 15.5625 10.375 15.1562 10.375C14.7188 10.375 14.4062 10.7188 14.4062 11.125C14.4062 11.5625 14.7188 11.875 15.1562 11.875ZM13.6875 6.0625C14.2812 6.65625 14.2812 7.625 13.6875 8.21875L8.21875 13.6875C7.625 14.2812 6.65625 14.2812 6.0625 13.6875L0.59375 8.21875C0 7.625 0 6.65625 0.59375 6.0625L6.0625 0.59375C6.65625 0 7.625 0 8.21875 0.59375L13.6875 6.0625ZM3.15625 7.875C3.5625 7.875 3.90625 7.5625 3.90625 7.125C3.90625 6.71875 3.5625 6.375 3.15625 6.375C2.71875 6.375 2.40625 6.71875 2.40625 7.125C2.40625 7.5625 2.71875 7.875 3.15625 7.875ZM7.15625 11.875C7.5625 11.875 7.90625 11.5625 7.90625 11.125C7.90625 10.7188 7.5625 10.375 7.15625 10.375C6.71875 10.375 6.40625 10.7188 6.40625 11.125C6.40625 11.5625 6.71875 11.875 7.15625 11.875ZM7.15625 7.875C7.5625 7.875 7.90625 7.5625 7.90625 7.125C7.90625 6.71875 7.5625 6.375 7.15625 6.375C6.71875 6.375 6.40625 6.71875 6.40625 7.125C6.40625 7.5625 6.71875 7.875 7.15625 7.875ZM7.15625 3.875C7.5625 3.875 7.90625 3.5625 7.90625 3.125C7.90625 2.71875 7.5625 2.375 7.15625 2.375C6.71875 2.375 6.40625 2.71875 6.40625 3.125C6.40625 3.5625 6.71875 3.875 7.15625 3.875ZM11.1562 7.875C11.5625 7.875 11.9062 7.5625 11.9062 7.125C11.9062 6.71875 11.5625 6.375 11.1562 6.375C10.7188 6.375 10.4062 6.71875 10.4062 7.125C10.4062 7.5625 10.7188 7.875 11.1562 7.875Z"/>
</svg>
