<svg xmlns="http://www.w3.org/2000/svg" width="16" height="16" viewBox="0 0 16 16" fill="none" aria-hidden="true">
  <path fill="#8a9db0" d="M6 6.5V10C6 10.5625 5.53125 11 5 11H4.5C3.375 11 2.5 10.125 2.5 9V7.5C2.5 6.40625 3.375 5.5 4.5 5.5H5C5.53125 5.5 6 5.96875 6 6.5ZM11.5 11H11C10.4375 11 10 10.5625 10 10V6.5C10 5.96875 10.4375 5.5 11 5.5H11.5C12.5938 5.5 13.5 6.40625 13.5 7.5V9C13.5 10.125 12.5938 11 11.5 11ZM8 0C12.4375 0 15.8438 3.71875 16 8V13.1875C16 14.75 14.7188 16 13.1562 16H7.5C6.65625 16 6 15.3438 6 14.5C6 13.6875 6.65625 13 7.5 13H8.5C9.3125 13 10 13.6875 10 14.5H13.1562C13.9062 14.5 14.5 13.9375 14.5 13.1875C14.5 13.1875 14.4688 8.09375 14.4688 8H14.5C14.5 4.4375 11.5625 1.5 8 1.5C4.40625 1.5 1.5 4.4375 1.5 8V8.5C1.5 8.78125 1.25 9 1 9H0.5C0.21875 9 0 8.78125 0 8.5V8C0.125 3.71875 3.53125 0 8 0Z"/>
</svg>
