<svg preserveAspectRatio="none" width="100%" height="100%" overflow="visible" style="display: block;" viewBox="0 0 11.1406 12" fill="none" xmlns="http://www.w3.org/2000/svg">
<g id="Button - Copy account number to clipboard &#226;&#134;&#146; Img" clip-path="url(#clip0_0_26)">
<path id="Vector" d="M11.0549 7.62824C11.0549 8.39951 10.1979 8.57091 9.42666 8.57091H4.28485C3.51357 8.57091 3.42788 8.48521 3.42788 7.71394V0.858185C3.42788 0.0869123 3.68497 0.00121534 4.45624 0.00121534H10.2836C11.0549 0.00121534 11.1406 0.0869123 11.1406 0.858185L11.0549 7.62824ZM9.42666 9.42788V10.2848C9.42666 11.0561 8.484 11.9988 7.71272 11.9988H1.45685C0.685575 11.9988 0.0856969 11.3989 0.0856969 10.6276V3.85758C0.0856969 3.0863 0.942666 2.57212 1.71394 2.57212H2.57091V7.71394C2.57091 8.9137 3.08509 9.42788 4.28485 9.42788H9.42666Z" fill="#2f69b1"/>
</g>
<defs>
<clipPath id="clip0_0_26">
<rect width="11.1406" height="12" fill="white"/>
</clipPath>
</defs>
</svg>
