<svg xmlns="http://www.w3.org/2000/svg" width="14" height="16" viewBox="0 0 14 16" fill="none" aria-hidden="true">
  <path fill="#8a9db0" d="M13.625 5H0.375C0.15625 5 0 4.84375 0 4.625V3.5C0 2.6875 0.65625 2 1.5 2H3V0.375C3 0.1875 3.15625 0 3.375 0H4.625C4.8125 0 5 0.1875 5 0.375V2H9V0.375C9 0.1875 9.15625 0 9.375 0H10.625C10.8125 0 11 0.1875 11 0.375V2H12.5C13.3125 2 14 2.6875 14 3.5V4.625C14 4.84375 13.8125 5 13.625 5ZM0.375 6H13.625C13.8125 6 14 6.1875 14 6.375V14.5C14 15.3438 13.3125 16 12.5 16H1.5C0.65625 16 0 15.3438 0 14.5V6.375C0 6.1875 0.15625 6 0.375 6ZM10.7812 9L9.90625 8.125C9.75 7.96875 9.5 7.96875 9.375 8.125L6.0625 11.4062L4.625 9.96875C4.46875 9.8125 4.21875 9.8125 4.09375 9.96875L3.1875 10.8438C3.0625 11 3.0625 11.2188 3.1875 11.375L5.78125 13.9688C5.90625 14.125 6.15625 14.125 6.3125 13.9688L10.7812 9.53125C10.9062 9.40625 10.9062 9.15625 10.7812 9Z"/>
</svg>
