<svg preserveAspectRatio="none" width="100%" height="100%" overflow="visible" style="display: block;" viewBox="0 0 16 16" fill="none" xmlns="http://www.w3.org/2000/svg">
<g id="Img" clip-path="url(#clip0_0_61)">
<path id="Vector" d="M10.4 8L15.75 2.6C16.1 2.3 16.1 1.8 15.75 1.5L14.5 0.25C14.2 -0.1 13.7 -0.1 13.4 0.25L8 5.6L2.6 0.25C2.3 -0.1 1.8 -0.1 1.5 0.25L0.25 1.5C-0.1 1.8 -0.1 2.3 0.25 2.6L5.6 8L0.25 13.4C-0.1 13.7 -0.1 14.2 0.25 14.5L1.5 15.75C1.8 16.1 2.3 16.1 2.6 15.75L8 10.4L13.4 15.75C13.7 16.1 14.2 16.1 14.5 15.75L15.75 14.5C16.1 14.2 16.1 13.7 15.75 13.4L10.4 8Z" fill="#2f69b1"/>
</g>
<defs>
<clipPath id="clip0_0_61">
<rect width="16" height="16" fill="white"/>
</clipPath>
</defs>
</svg>
