<svg preserveAspectRatio="none" width="100%" height="100%" overflow="visible" style="display: block;" viewBox="0 0 16 16" fill="none" xmlns="http://www.w3.org/2000/svg">
<g id="Img" clip-path="url(#clip0_0_16)">
<path id="Vector" d="M6.8 0H9.3C9.7 0 10 0.3 10 0.8V6H12.7C13.3 6 13.6 6.7 13.2 7L8.4 11.8C8.2 12.1 7.8 12.1 7.6 11.8L2.8 7.1C2.65413 7.0337 2.54058 6.91216 2.48431 6.76213C2.42805 6.6121 2.4337 6.44587 2.5 6.3C2.5663 6.15413 2.68784 6.04058 2.83787 5.98431C2.9879 5.92805 3.15413 5.9337 3.3 6H6V0.7C6 0.3 6.3 0 6.8 0ZM16 11.8V15.2C16 15.7 15.7 16 15.2 16H0.8C0.691044 16.0171 0.579593 16.0082 0.474729 15.974C0.369866 15.9399 0.274558 15.8814 0.196573 15.8034C0.118588 15.7254 0.0601332 15.6301 0.0259727 15.5253C-0.00818769 15.4204 -0.017087 15.309 0 15.2V11.8C0 11.3 0.3 11 0.8 11H5.3L7 12.5C7.6 13.2 8.6 13.2 9.2 12.5L10.8 11H15.4C15.8 11 16.1 11.3 16.1 11.8H16ZM12.1 14.5C12.1 14.2 11.8 13.9 11.5 13.9C11.2 13.9 10.9 14.2 10.9 14.5C10.9 14.8 11.2 15.1 11.5 15.1C11.8 15.1 12.1 14.8 12.1 14.5ZM14.1 14.5C14.1 14.2 13.8 13.9 13.5 13.9C13.2 13.9 12.9 14.2 12.9 14.5C12.9 14.8 13.2 15.1 13.5 15.1C13.8 15.1 14.1 14.8 14.1 14.5Z" fill="#8a9db0"/>
</g>
<defs>
<clipPath id="clip0_0_16">
<rect width="16" height="16" fill="white"/>
</clipPath>
</defs>
</svg>
