<svg preserveAspectRatio="none" width="100%" height="100%" overflow="visible" style="display: block;" viewBox="0 0 16 16" fill="none" xmlns="http://www.w3.org/2000/svg">
<g id="Img" clip-path="url(#clip0_0_51)">
<path id="Vector" d="M8 16C10.1217 16 12.1566 15.1571 13.6569 13.6569C15.1571 12.1566 16 10.1217 16 8C16 5.87827 15.1571 3.84344 13.6569 2.34315C12.1566 0.842855 10.1217 0 8 0C5.87827 0 3.84344 0.842855 2.34315 2.34315C0.842855 3.84344 0 5.87827 0 8C0 10.1217 0.842855 12.1566 2.34315 13.6569C3.84344 15.1571 5.87827 16 8 16ZM9.9 11.99L7.16 9.99C7.11368 9.95637 7.07534 9.91295 7.04769 9.86283C7.02003 9.81271 7.00375 9.75712 7 9.7V4.4C7 4.18 7.17 4.01 7.39 4.01H8.42C8.63 4.01 8.81 4.18 8.81 4.4V8.97L10.96 10.54C11.14 10.66 11.17 10.9 11.05 11.08L10.44 11.91C10.3798 11.9929 10.2895 12.0488 10.1884 12.0657C10.0874 12.0825 9.98379 12.0589 9.9 12V11.99Z" fill="#8a9db0"/>
</g>
<defs>
<clipPath id="clip0_0_51">
<rect width="16" height="16" fill="white"/>
</clipPath>
</defs>
</svg>
