<svg preserveAspectRatio="none" width="100%" height="100%" overflow="visible" style="display: block;" viewBox="0 0 16 16" fill="none" xmlns="http://www.w3.org/2000/svg">
<g id="Img" clip-path="url(#clip0_0_12)">
<path id="Vector" d="M4.8 8C5.54261 8 6.2548 7.705 6.7799 7.1799C7.305 6.6548 7.6 5.94261 7.6 5.2C7.6 4.45739 7.305 3.7452 6.7799 3.2201C6.2548 2.695 5.54261 2.4 4.8 2.4C4.05739 2.4 3.3452 2.695 2.8201 3.2201C2.295 3.7452 2 4.45739 2 5.2C2 5.94261 2.295 6.6548 2.8201 7.1799C3.3452 7.705 4.05739 8 4.8 8ZM6.8 8.8H6.5C5.96807 9.04975 5.38764 9.17923 4.8 9.17923C4.21236 9.17923 3.63193 9.04975 3.1 8.8H2.9C2.13087 8.8 1.39325 9.10553 0.84939 9.64939C0.305535 10.1932 0 10.9309 0 11.7L0 12.4C0 13.1 0.5 13.6 1.2 13.6H8.4C9.1 13.6 9.6 13.1 9.6 12.4V11.7C9.6 10.1 8.3 8.8 6.7 8.8H6.8ZM12 8C12.6365 8 13.247 7.74714 13.6971 7.29706C14.1471 6.84697 14.4 6.23652 14.4 5.6C14.4 4.96348 14.1471 4.35303 13.6971 3.90294C13.247 3.45286 12.6365 3.2 12 3.2C11.3635 3.2 10.753 3.45286 10.3029 3.90294C9.85286 4.35303 9.6 4.96348 9.6 5.6C9.6 6.23652 9.85286 6.84697 10.3029 7.29706C10.753 7.74714 11.3635 8 12 8ZM13.2 8.8L12 9C11.6 9 11.2 9 10.9 8.8H10.8C10.3 8.8 9.8 8.9 9.4 9.2C10 9.8 10.4 10.7 10.4 11.7V12.8H14.8C15.5 12.8 16 12.3 16 11.6C16 10.1 14.7 8.8 13.2 8.8Z" fill="#8a9db0"/>
</g>
<defs>
<clipPath id="clip0_0_12">
<rect width="16" height="16" fill="white"/>
</clipPath>
</defs>
</svg>
