<svg preserveAspectRatio="none" width="100%" height="100%" overflow="visible" style="display: block;" viewBox="0 0 16 16" fill="none" xmlns="http://www.w3.org/2000/svg">
<g id="Img">
<path id="Vector" d="M13.5 6.6H12.7V4.3C12.4759 3.21919 11.8861 2.24865 11.03 1.55188C10.1739 0.855108 9.10381 0.474679 8 0.474679C6.89619 0.474679 5.82612 0.855108 4.97002 1.55188C4.11393 2.24865 3.52414 3.21919 3.3 4.3V6.6H2.5C1.7 6.6 1 7.3 1 8V14C1 14.8 1.7 15.5 2.5 15.5H13.5C14.3 15.5 15 14.8 15 14V8C15 7.2 14.3 6.5 13.5 6.5V6.6ZM10.2 6.6H5.8V4.3C5.90932 3.7843 6.19248 3.3218 6.60208 2.98993C7.01167 2.65806 7.52284 2.47697 8.05 2.47697C8.57717 2.47697 9.08833 2.65806 9.49792 2.98993C9.90752 3.3218 10.1907 3.7843 10.3 4.3V6.6H10.2Z" fill="#8a9db0"/>
</g>
</svg>
