<svg preserveAspectRatio="none" width="100%" height="100%" overflow="visible" style="display: block;" viewBox="0 0 16 16" fill="none" xmlns="http://www.w3.org/2000/svg">
<g id="Img" clip-path="url(#clip0_0_4)">
<path id="Vector" d="M15.8 8.5L10.4 13.8C10 14.3 9.1 13.9 9.1 13.3V10.3H4.8C4.6056 10.2755 4.42694 10.1805 4.29791 10.0331C4.16889 9.88562 4.09846 9.69593 4.1 9.5V6.5C4.1 6.1 4.4 5.8 4.8 5.8H9.1V2.8C9.1 2.1 10 1.8 10.4 2.2L15.8 7.5C16.1 7.8 16.1 8.2 15.8 8.5ZM6 13.6V12.4C6 12.2 5.8 12 5.6 12H3C2.73478 12 2.48043 11.8946 2.29289 11.7071C2.10536 11.5196 2 11.2652 2 11V5C2 4.4 2.5 4 3 4H5.7C5.9 4 6.1 3.8 6.1 3.6V2.4C6.1 2.2 5.9 2 5.7 2H3C2.20435 2 1.44129 2.31607 0.87868 2.87868C0.31607 3.44129 0 4.20435 0 5L0 11C0 11.7956 0.31607 12.5587 0.87868 13.1213C1.44129 13.6839 2.20435 14 3 14H5.7C5.9 14 6.1 13.8 6.1 13.6H6Z" fill="#8a9db0"/>
</g>
<defs>
<clipPath id="clip0_0_4">
<rect width="16" height="16" fill="white"/>
</clipPath>
</defs>
</svg>
