<svg xmlns="http://www.w3.org/2000/svg" width="16" height="14" viewBox="0 0 16 14" fill="none" aria-hidden="true">
  <path fill="#8a9db0" d="M1 13V9H7V14H2C1.4375 14 1 13.5625 1 13ZM9 14V9H15V13C15 13.5625 14.5312 14 14 14H9ZM15 4C15.5312 4 16 4.46875 16 5V7.5C16 7.78125 15.75 8 15.5 8H0.5C0.21875 8 0 7.78125 0 7.5V5C0 4.46875 0.4375 4 1 4H2.375C2.15625 3.625 2.0625 3.21875 2.0625 2.75C2.0625 1.25 3.28125 0 4.8125 0C6.09375 0 6.9375 0.6875 8.03125 2.15625C9.09375 0.6875 9.9375 0 11.25 0C12.75 0 14 1.25 14 2.75C14 3.21875 13.875 3.625 13.6562 4H15ZM4.78125 4H7.5C5.875 1.625 5.40625 1.5 4.78125 1.5C4.09375 1.5 3.53125 2.0625 3.53125 2.75C3.53125 3.46875 4.09375 4 4.78125 4ZM11.25 4C11.9375 4 12.5 3.46875 12.5 2.75C12.5 2.0625 11.9375 1.5 11.25 1.5C10.5938 1.5 10.1562 1.625 8.53125 4H11.25Z"/>
</svg>
