<svg preserveAspectRatio="none" width="100%" height="100%" overflow="visible" style="display: block;" viewBox="0 0 20 20" fill="none" xmlns="http://www.w3.org/2000/svg">
<g id="Img" clip-path="url(#clip0_0_22)">
<path id="Vector" d="M19.6211 7.45313C19.6556 7.42607 19.6971 7.40926 19.7407 7.40459C19.7843 7.39992 19.8283 7.40758 19.8678 7.42671C19.9073 7.44584 19.9406 7.47566 19.964 7.51279C19.9874 7.54991 19.9998 7.59285 20 7.63672V15.625C20 16.1223 19.8025 16.5992 19.4508 16.9508C19.0992 17.3025 18.6223 17.5 18.125 17.5H1.875C1.37772 17.5 0.900805 17.3025 0.549175 16.9508C0.197544 16.5992 0 16.1223 0 15.625V7.64063C0.00017043 7.59676 0.0126485 7.55382 0.0360148 7.51669C0.0593812 7.47957 0.0926978 7.44974 0.132175 7.43062C0.171652 7.41149 0.215705 7.40382 0.259323 7.40849C0.302941 7.41316 0.344373 7.42998 0.378906 7.45703C1.25391 8.13672 2.41406 9 6.39844 11.8945C7.22266 12.4961 8.61328 13.7617 10 13.7539C11.3945 13.7656 12.8125 12.4727 13.6055 11.8945C17.5898 9 18.7461 8.13281 19.6211 7.45313ZM10 12.5C10.9062 12.5156 12.2109 11.3594 12.8672 10.8828C18.0508 7.12109 18.4453 6.79297 19.6406 5.85547C19.7526 5.76774 19.8432 5.65568 19.9054 5.52777C19.9677 5.39985 20 5.25945 20 5.11719V4.375C20 3.87772 19.8025 3.40081 19.4508 3.04917C19.0992 2.69754 18.6223 2.5 18.125 2.5H1.875C1.37772 2.5 0.900805 2.69754 0.549175 3.04917C0.197544 3.40081 0 3.87772 0 4.375V5.11719C-3.9206e-05 5.25945 0.032298 5.39985 0.0945619 5.52777C0.156826 5.65568 0.247384 5.76774 0.359375 5.85547C1.55469 6.78906 1.94922 7.12109 7.13281 10.8828C7.78906 11.3594 9.09375 12.5156 10 12.5Z" fill="#2f69b1"/>
</g>
<defs>
<clipPath id="clip0_0_22">
<rect width="20" height="20" fill="white"/>
</clipPath>
</defs>
</svg>
