<svg preserveAspectRatio="none" width="100%" height="100%" overflow="visible" style="display: block;" viewBox="0 0 16 16" fill="none" xmlns="http://www.w3.org/2000/svg">
<g id="Img" clip-path="url(#clip0_0_10)">
<path id="Vector" fill-rule="evenodd" clip-rule="evenodd" d="M16 3.2V10.4C16 11.7 14.9 12.8 13.5 12.8H10L6.8 15.2C6.6 15.4 6.2 15.2 6.2 14.9V12.9H2.5C1.82792 12.8741 1.19201 12.5888 0.725833 12.104C0.259661 11.6192 -0.000497649 10.9726 0 10.3V3.2C0 1.8 1.1 0.7 2.5 0.7H13.5C15 0.8 16 1.9 16 3.3V3.2ZM7.3 5.8L9.1 6.4C9.58037 6.56099 9.98174 6.89829 10.223 7.34377C10.4643 7.78925 10.5276 8.3097 10.4 8.8C10.262 9.17028 10.0173 9.49136 9.69697 9.72273C9.37661 9.9541 8.9949 10.0854 8.6 10.1V11L8.3 11.3H7.7C7.62043 11.3 7.54413 11.2684 7.48787 11.2121C7.43161 11.1559 7.4 11.0796 7.4 11V10C6.86428 9.97046 6.34629 9.7978 5.9 9.5C5.8508 9.445 5.82361 9.37379 5.82361 9.3C5.82361 9.22621 5.8508 9.155 5.9 9.1L6.5 8.5C6.6 8.4 6.7 8.4 6.9 8.5L7.4 8.6H8.6C8.9 8.6 9.1 8.4 9.1 8.1C9.1 7.9 9 7.7 8.7 7.6L7 7.2C6.60731 7.10173 6.25368 6.88661 5.98585 6.58307C5.71802 6.27954 5.54861 5.90187 5.5 5.5C5.48653 5.23728 5.52503 4.97449 5.61328 4.72667C5.70154 4.47885 5.83781 4.25087 6.01431 4.0558C6.1908 3.86073 6.40404 3.70239 6.64182 3.58986C6.8796 3.47733 7.13725 3.41281 7.4 3.4V2.5L7.7 2.2H8.3L8.6 2.5V3.4C9.1 3.4 9.6 3.6 10.1 3.9C10.1 4 10.2 4.2 10.1 4.3L9.5 4.9C9.4 5 9.3 5 9.1 4.9C8.94478 4.82402 8.77251 4.78957 8.6 4.8H7.4C7.1 4.8 6.9 5 6.9 5.3C6.9 5.5 7 5.7 7.3 5.8Z" fill="#8a9db0"/>
</g>
<defs>
<clipPath id="clip0_0_10">
<rect width="16" height="16" fill="white"/>
</clipPath>
</defs>
</svg>
