<svg preserveAspectRatio="none" width="100%" height="100%" overflow="visible" style="display: block;" viewBox="0 0 16 15.9887" fill="none" xmlns="http://www.w3.org/2000/svg">
<path id="Vector" d="M14.9688 3.11372H13.7812C13.9245 2.86438 14.014 2.58784 14.0441 2.30185C14.0741 2.01587 14.0441 1.72676 13.9558 1.45308C13.8675 1.17941 13.723 0.927219 13.5315 0.712706C13.3399 0.498193 13.1057 0.326097 12.8438 0.207466C12.0938 -0.167534 11.25 -0.0112845 10.625 0.551216L9.15625 1.86372C9.0098 1.70259 8.83129 1.57386 8.63218 1.48576C8.43306 1.39767 8.21773 1.35216 8 1.35216C7.78227 1.35216 7.56694 1.39767 7.36782 1.48576C7.16871 1.57386 6.9902 1.70259 6.84375 1.86372L5.375 0.551216C5.08329 0.277011 4.71705 0.0951254 4.3223 0.0284062C3.92754 -0.038313 3.52187 0.01311 3.15625 0.176216C2.74684 0.348578 2.40402 0.648512 2.1788 1.03139C1.95358 1.41427 1.85799 1.85964 1.90625 2.30122C1.9375 2.58247 2.0625 2.86372 2.21875 3.11372H1.03125C0.46875 3.11372 0 3.58247 0 4.14497V5.70747C0 5.98872 0.21875 6.23872 0.53125 6.23872H15.4688C15.7812 6.23872 16 5.98872 16 5.70747V4.14497C16 3.58247 15.5312 3.11372 14.9688 3.11372ZM6.4375 2.92622V3.11372H3.96875C3.80303 3.11139 3.64031 3.06916 3.49438 2.99059C3.34845 2.91203 3.2236 2.79945 3.13041 2.66239C3.03723 2.52533 2.97845 2.36784 2.95906 2.20324C2.93966 2.03864 2.96023 1.87179 3.01901 1.71683C3.07779 1.56187 3.17305 1.42335 3.29672 1.31302C3.4204 1.20269 3.56885 1.1238 3.72949 1.08302C3.89013 1.04224 4.05823 1.04078 4.21956 1.07876C4.38088 1.11675 4.53068 1.19305 4.65625 1.30122L6.4375 2.92622ZM13.0312 2.17622C13 2.70747 12.5 3.11372 11.9688 3.11372H9.5625V2.92622L11.3125 1.33247C11.5625 1.08247 11.9375 0.988716 12.2812 1.08247C12.7812 1.23872 13.0625 1.64497 13.0312 2.17622ZM1.03125 7.26997V14.9262C1.03125 15.52 1.5 15.9887 2.09375 15.9887H6.96875V7.26997H1.03125ZM9.03125 7.26997V15.9887H13.9062C14.5 15.9887 14.9688 15.52 14.9688 14.9262V7.26997H9.03125Z" fill="#8a9db0"/>
</svg>
