<svg preserveAspectRatio="none" width="100%" height="100%" overflow="visible" style="display: block;" viewBox="0 0 14.8399 15.5" fill="none" xmlns="http://www.w3.org/2000/svg">
<path id="Vector" d="M14.6328 9.625L13.3203 8.84375C13.4453 8.125 13.4453 7.375 13.3203 6.65625L14.6328 5.875C14.7891 5.78125 14.8516 5.625 14.8203 5.4375C14.4766 4.34375 13.8828 3.3125 13.1016 2.5C12.9766 2.375 12.7891 2.34375 12.6328 2.40625L11.3203 3.1875C10.7578 2.71875 10.1016 2.34375 9.41406 2.09375V0.5625C9.41406 0.375 9.28906 0.21875 9.13281 0.1875C7.97656 -0.0625 6.78906 -0.0625 5.69531 0.1875C5.53906 0.21875 5.41406 0.375 5.41406 0.5625V2.09375C4.72656 2.34375 4.07031 2.71875 3.50781 3.1875L2.19531 2.4375C2.03906 2.34375 1.85156 2.375 1.72656 2.5C0.945312 3.3125 0.351562 4.34375 0.0078125 5.4375C-0.0234375 5.625 0.0390625 5.8125 0.195312 5.875L1.50781 6.65625C1.38281 7.375 1.38281 8.125 1.50781 8.84375L0.195312 9.625C0.0390625 9.71875 -0.0234375 9.875 0.0078125 10.0625C0.351562 11.1562 0.945312 12.1875 1.72656 13C1.85156 13.125 2.03906 13.1562 2.19531 13.0938L3.50781 12.3125C4.07031 12.7812 4.72656 13.1562 5.41406 13.4062V14.9375C5.41406 15.125 5.53906 15.2812 5.72656 15.3125C6.85156 15.5625 8.03906 15.5625 9.13281 15.3125C9.28906 15.2812 9.41406 15.125 9.41406 14.9375V13.4062C10.1016 13.1562 10.7578 12.7812 11.3203 12.3125L12.6641 13.0938C12.7891 13.1562 13.0078 13.1562 13.1016 13C13.8828 12.1875 14.4766 11.1562 14.8203 10.0625C14.8828 9.875 14.7891 9.6875 14.6328 9.625ZM7.41406 10.25C6.75102 10.25 6.11514 9.98661 5.6463 9.51777C5.17745 9.04893 4.91406 8.41304 4.91406 7.75C4.91406 7.08696 5.17745 6.45107 5.6463 5.98223C6.11514 5.51339 6.75102 5.25 7.41406 5.25C8.0771 5.25 8.71299 5.51339 9.18183 5.98223C9.65067 6.45107 9.91406 7.08696 9.91406 7.75C9.91406 8.41304 9.65067 9.04893 9.18183 9.51777C8.71299 9.98661 8.0771 10.25 7.41406 10.25Z" fill="#2f69b1"/>
</svg>
