<svg preserveAspectRatio="none" width="100%" height="100%" overflow="visible" style="display: block;" viewBox="0 0 16 16" fill="none" xmlns="http://www.w3.org/2000/svg">
<g id="Img" clip-path="url(#clip0_0_24)">
<path id="Vector" d="M0 5.2V4.7C0 4.3 0.3 4 0.8 4H12V2.5C12 1.8 12.8 1.5 13.3 2L15.8 4.5C16.1 4.8 16.1 5.2 15.8 5.5L13.3 8C13.1907 8.09007 13.0594 8.1495 12.9195 8.1722C12.7797 8.1949 12.6364 8.18007 12.5041 8.12922C12.3719 8.07837 12.2556 7.99332 12.167 7.88276C12.0784 7.77221 12.0208 7.64012 12 7.5V6H0.7C0.59902 6.00104 0.499012 5.98021 0.406839 5.93896C0.314666 5.8977 0.23251 5.83699 0.166011 5.76099C0.0995123 5.68499 0.0502442 5.5955 0.0215886 5.49867C-0.00706705 5.40184 -0.0144317 5.29995 0 5.2ZM15.3 10H4V8.5C4 7.8 3.2 7.5 2.7 8L0.2 10.5C-0.1 10.8 -0.1 11.2 0.2 11.5L2.7 14C3.2 14.5 4 14.2 4 13.5V12H15.3C15.7 12 16 11.7 16 11.2V10.7C16 10.3 15.7 10 15.2 10H15.3Z" fill="#8a9db0"/>
</g>
<defs>
<clipPath id="clip0_0_24">
<rect width="16" height="16" fill="white"/>
</clipPath>
</defs>
</svg>
