<svg preserveAspectRatio="none" width="100%" height="100%" overflow="visible" style="display: block;" viewBox="0 0 16 16" fill="none" xmlns="http://www.w3.org/2000/svg">
<g id="Img">
<path id="Vector" d="M8 8C10.2 8 12 6.2 12 4C12 1.8 10.2 0 8 0C5.8 0 4 1.8 4 4C4 6.2 5.8 8 8 8ZM10.8 9H10.3C8.8 9.7 7.2 9.7 5.7 9H5.2C4.64845 9 4.1023 9.10864 3.59273 9.31971C3.08316 9.53078 2.62016 9.84015 2.23015 10.2302C1.4425 11.0178 1 12.0861 1 13.2V14.5C1 15.3 1.7 16 2.5 16H13.5C14.3 16 15 15.3 15 14.5V13.2C15 10.9 13.1 9 10.8 9Z" fill="#8a9db0"/>
</g>
</svg>
