<svg preserveAspectRatio="none" width="100%" height="100%" overflow="visible" style="display: block;" viewBox="0 0 16 16" fill="none" xmlns="http://www.w3.org/2000/svg">
<g id="Img" clip-path="url(#clip0_0_14)">
<path id="Vector" d="M9.3 12H6.7C6.59902 12.001 6.49901 11.9802 6.40684 11.939C6.31467 11.8977 6.23251 11.837 6.16601 11.761C6.09951 11.685 6.05024 11.5955 6.02159 11.4987C5.99293 11.4018 5.98557 11.2999 6 11.2V6H3.3C3.1797 6.01109 3.05885 5.9856 2.95328 5.92687C2.8477 5.86815 2.76231 5.77892 2.70828 5.67086C2.65425 5.5628 2.6341 5.44095 2.65047 5.32126C2.66683 5.20156 2.71895 5.08959 2.8 5L7.6 0.1C7.8 -0.2 8.2 -0.2 8.4 0.1L13.2 4.8C13.6 5.2 13.3 5.9 12.7 5.9H10V11.1C10 11.6 9.7 11.9 9.2 11.9L9.3 12ZM16 11.7V15.2C16 15.7 15.7 16 15.2 16H0.8C0.691044 16.0171 0.579593 16.0082 0.474729 15.974C0.369866 15.9399 0.274558 15.8814 0.196573 15.8034C0.118588 15.7254 0.0601332 15.6301 0.0259727 15.5253C-0.00818769 15.4204 -0.017087 15.309 0 15.2V11.7C0 11.3 0.3 11 0.8 11H5V11.2C5 12.2 5.8 13 6.8 13H9.3C10.3 13 11 12.2 11 11.2V11H15.3C15.7 11 16 11.3 16 11.7ZM12.1 14.5C12.1 14.2 11.8 13.9 11.5 13.9C11.2 13.9 10.9 14.2 10.9 14.5C10.9 14.8 11.2 15.1 11.5 15.1C11.8 15.1 12.1 14.8 12.1 14.5ZM14.1 14.5C14.1 14.2 13.8 13.9 13.5 13.9C13.2 13.9 12.9 14.2 12.9 14.5C12.9 14.8 13.2 15.1 13.5 15.1C13.8 15.1 14.1 14.8 14.1 14.5Z" fill="#8a9db0"/>
</g>
<defs>
<clipPath id="clip0_0_14">
<rect width="16" height="16" fill="white"/>
</clipPath>
</defs>
</svg>
