<svg preserveAspectRatio="none" width="100%" height="100%" overflow="visible" style="display: block;" viewBox="0 0 12 12" fill="none" xmlns="http://www.w3.org/2000/svg">
<g id="Img" clip-path="url(#clip0_0_9)">
<path id="Vector" d="M10.5 2.325C10.2 1.8 8.625 1.575 8.25 1.65C8.09298 1.73904 7.94258 1.8393 7.8 1.95C7.35 2.175 6.9 2.475 6 2.475C5.1 2.475 4.65 2.175 4.2 1.95C4.03336 1.83603 3.85779 1.73571 3.675 1.65C3.375 1.575 1.8 1.8 1.5 2.4C0.225 4.35 -0.45 9.225 0.375 10.125C0.460088 10.2155 0.566307 10.2834 0.68412 10.3226C0.801934 10.3619 0.927656 10.3713 1.05 10.35C1.5 10.35 1.95 9.9 2.4 9.225L2.475 9C3.225 7.725 3.3 7.65 6 7.65C8.7 7.65 8.775 7.725 9.525 9L9.6 9.225C10.05 9.975 10.5 10.35 10.95 10.35C11.25 10.35 11.475 10.35 11.7 10.125C12.45 9.225 11.7 4.35 10.5 2.25V2.325ZM8.55 2.625H9.075L9.225 2.7V3.375L8.85 3.6C8.8386 3.60658 8.82567 3.61005 8.8125 3.61005C8.79933 3.61005 8.7864 3.60658 8.775 3.6L8.475 3.375V2.7L8.55 2.625ZM6.75 3.75H6.975L7.05 3.9V4.05H6.75V3.75ZM4.95 3.75H5.175L5.25 3.9V4.05C5.25 4.08978 5.2342 4.12794 5.20607 4.15607C5.17794 4.1842 5.13978 4.2 5.1 4.2C5.06022 4.2 5.02206 4.1842 4.99393 4.15607C4.9658 4.12794 4.95 4.08978 4.95 4.05L4.875 3.9V3.75H4.95ZM2.925 4.65C2.72609 4.65 2.53532 4.57098 2.39467 4.43033C2.25402 4.28968 2.175 4.09891 2.175 3.9C2.175 3.45 2.475 3.15 2.925 3.15C3.3 3.15 3.675 3.45 3.675 3.9C3.675 4.35 3.3 4.65 2.925 4.65ZM5.625 6.075L5.55 6.15H4.95V6.825H4.35L4.2 6.75V6.15H3.75L3.6 6.075V5.475L3.75 5.4H4.275V4.8C4.275 4.725 4.275 4.65 4.425 4.65H4.95L5.025 4.8V5.4H5.7V6.075H5.625ZM6 4.425C5.93403 4.42592 5.86866 4.41233 5.80853 4.38518C5.7484 4.35803 5.69497 4.31799 5.65203 4.2679C5.6091 4.21781 5.5777 4.15888 5.56007 4.09531C5.54243 4.03173 5.539 3.96505 5.55 3.9C5.55 3.6 5.775 3.375 6 3.375C6.225 3.375 6.45 3.6 6.45 3.9C6.45 4.2 6.225 4.425 6 4.425ZM7.425 6.525C7.22609 6.525 7.03532 6.44598 6.89467 6.30533C6.75402 6.16468 6.675 5.97391 6.675 5.775C6.675 5.325 6.975 5.025 7.425 5.025C7.8 5.025 8.175 5.325 8.175 5.775C8.175 6.225 7.8 6.525 7.425 6.525ZM8.25 4.275H7.725L7.575 4.2V3.6L7.725 3.525H8.25L8.475 3.825V3.975L8.25 4.275ZM9.075 5.25H8.55L8.475 5.175V4.5L8.775 4.275H8.85L9.15 4.5V5.25H9.075ZM10.05 4.275L9.975 4.35H9.375L9.15 4.05V3.75L9.3 3.45H9.975V4.125L10.05 4.275Z" fill="var(--fill-0, #A1BCD4)"/>
</g>
<defs>
<clipPath id="clip0_0_9">
<rect width="12" height="12" fill="white"/>
</clipPath>
</defs>
</svg>
