<svg preserveAspectRatio="none" width="100%" height="100%" overflow="visible" style="display: block;" viewBox="0 0 14 14" fill="none" xmlns="http://www.w3.org/2000/svg">
<g id="Img" clip-path="url(#clip0_0_19)">
<path id="Vector" d="M0 1.72375C0 1.19875 0.42 0.7875 0.945 0.7875H4.71625C4.96688 0.7875 5.20724 0.887062 5.38447 1.06428C5.56169 1.24151 5.66125 1.48187 5.66125 1.7325V5.5125C5.65897 5.7601 5.55959 5.99692 5.38451 6.17201C5.20942 6.34709 4.9726 6.44647 4.725 6.44875H0.945C0.69437 6.44875 0.454006 6.34919 0.276784 6.17197C0.0995622 5.99474 0 5.75438 0 5.50375L0 1.72375ZM0 9.28375C0 8.75875 0.42 8.33875 0.945 8.33875H4.71625C5.24125 8.33875 5.66125 8.75875 5.66125 9.28375V13.055C5.66126 13.3041 5.5629 13.5432 5.38757 13.7201C5.21223 13.8971 4.97411 13.9977 4.725 14H0.945C0.69437 14 0.454006 13.9004 0.276784 13.7232C0.0995622 13.546 0 13.3056 0 13.055L0 9.28375ZM7.55125 9.28375C7.55125 8.75875 7.97125 8.33875 8.49625 8.33875H12.2762C12.8012 8.33875 13.2212 8.75875 13.2212 9.28375V13.055C13.2212 13.1791 13.1968 13.302 13.1493 13.4166C13.1018 13.5313 13.0322 13.6355 12.9445 13.7232C12.8567 13.811 12.7525 13.8806 12.6379 13.9281C12.5232 13.9756 12.4003 14 12.2762 14H8.4875C8.23687 14 7.99651 13.9004 7.81928 13.7232C7.64206 13.546 7.5425 13.3056 7.5425 13.055V9.28375H7.55125ZM7.04375 4.27875C6.86849 4.1018 6.77017 3.86281 6.77017 3.61375C6.77017 3.36469 6.86849 3.1257 7.04375 2.94875L9.72125 0.28C9.8982 0.104737 10.1372 0.00641641 10.3862 0.00641641C10.6353 0.00641641 10.8743 0.104737 11.0513 0.28L13.72 2.94875C13.8953 3.1257 13.9936 3.36469 13.9936 3.61375C13.9936 3.86281 13.8953 4.1018 13.72 4.27875L11.0513 6.95625C10.8743 7.13151 10.6353 7.22983 10.3862 7.22983C10.1372 7.22983 9.8982 7.13151 9.72125 6.95625L7.04375 4.27875Z" fill="var(--fill-0, white)"/>
</g>
<defs>
<clipPath id="clip0_0_19">
<rect width="14" height="14" fill="white"/>
</clipPath>
</defs>
</svg>
