<svg preserveAspectRatio="none" width="100%" height="100%" overflow="visible" style="display: block;" viewBox="0 0 14 14" fill="none" xmlns="http://www.w3.org/2000/svg">
<g id="Img" clip-path="url(#clip0_0_11)">
<path id="Vector" d="M10.9725 7.4025C10.9725 6.2475 11.4538 5.39 12.4338 4.75125C12.1629 4.33704 11.7967 3.99376 11.3658 3.75018C10.935 3.5066 10.4521 3.3698 9.9575 3.35125C8.9075 3.26375 7.77 3.99875 7.35875 3.99875C6.92125 3.99875 5.915 3.38625 5.11875 3.38625C3.5 3.4125 1.75 4.7775 1.75 7.55125C1.75 8.365 1.89 9.21375 2.17 10.0887C2.54625 11.2262 3.9025 14.0438 5.32 14C6.055 13.9825 6.57125 13.44 7.53375 13.44C8.47 13.44 8.95125 14 9.77375 14C11.2 13.9738 12.425 11.4187 12.7837 10.2725C10.8675 9.31 10.9725 7.455 10.9725 7.4025ZM9.31 2.26625C10.115 1.25125 10.0362 0.3325 10.01 0C9.31 0.04375 8.49625 0.51625 8.02375 1.09375C7.51625 1.70625 7.21 2.47625 7.28 3.33375C8.04125 3.40375 8.74125 2.98375 9.31 2.26625Z" fill="var(--fill-0, white)"/>
</g>
<defs>
<clipPath id="clip0_0_11">
<rect width="14" height="14" fill="white"/>
</clipPath>
</defs>
</svg>
