<svg width="16" height="16" viewBox="0 0 16 16" fill="none" xmlns="http://www.w3.org/2000/svg">
<g id="Img" clip-path="url(#clip0_0_4)">
<path id="Vector" d="M9.408 0.432C9.408 0.432 7.44 0.0160002 6.232 0.256C7.152 0.496 6.696 0.856 6.408 0.92C4.216 1.52 0.632 3.392 0.632 6.952C0.872 6.472 2.016 6.344 2.016 6.344C2.016 6.344 -2.016 10.88 1.328 16C1.48561 15.1143 1.90531 14.2962 2.53284 13.6516C3.16036 13.0069 3.96684 12.5654 4.848 12.384C4.848 12.384 4.272 12.744 4.848 13.472C7.328 16.432 16.392 15.28 15.584 12.08C15.12 13.288 9.584 14.736 6.808 11.24C4.968 8.52 3.344 9.728 2.944 11.24C2.944 11.24 2.544 7.624 5.248 5.872C6 5.328 5.136 3.576 4.504 5.152C3.696 2.856 6.344 1.408 9.408 0.44V0.432Z" fill="#1D4268"/>
<path id="Vector_2" fill-rule="evenodd" clip-rule="evenodd" d="M14.224 2.16C13.94 1.91581 13.5866 1.76674 13.2136 1.73374C12.8405 1.70074 12.4664 1.78546 12.144 1.976C11.8132 2.17108 11.5484 2.46089 11.384 2.808C11.2224 3.16054 11.1668 3.55244 11.224 3.936C11.2287 3.99299 11.2212 4.05033 11.2018 4.10415C11.1825 4.15797 11.1519 4.20702 11.112 4.248C11.0745 4.2885 11.0285 4.32025 10.9774 4.34099C10.9262 4.36173 10.8711 4.37095 10.816 4.368C10.7615 4.36374 10.7087 4.34711 10.6615 4.31939C10.6144 4.29167 10.5742 4.25357 10.544 4.208C10.5128 4.16155 10.4917 4.10906 10.4821 4.05394C10.4724 3.99882 10.4744 3.94229 10.488 3.888C10.5916 3.51247 10.5832 3.11486 10.464 2.744C10.3482 2.37985 10.1252 2.05917 9.824 1.824C9.52771 1.59404 9.16648 1.4633 8.79164 1.45038C8.4168 1.43745 8.04743 1.54299 7.736 1.752C7.50336 1.91769 7.3089 2.13128 7.16571 2.37841C7.02252 2.62554 6.93393 2.90047 6.90588 3.1847C6.87784 3.46893 6.911 3.75587 7.00313 4.02622C7.09526 4.29657 7.24422 4.54404 7.44 4.752C7.704 5.024 8.048 5.2 8.416 5.264C8.46846 5.27717 8.51728 5.30198 8.55883 5.33661C8.60038 5.37123 8.63359 5.41478 8.656 5.464C8.67974 5.51311 8.69318 5.56657 8.6955 5.62107C8.69782 5.67557 8.68896 5.72997 8.66948 5.78092C8.65 5.83187 8.6203 5.8783 8.58221 5.91735C8.54412 5.9564 8.49845 5.98725 8.448 6.008C8.39522 6.02667 8.33882 6.03278 8.28327 6.02584C8.22772 6.01889 8.17456 5.99909 8.128 5.968C7.82068 5.75627 7.45469 5.64625 7.08157 5.65343C6.70844 5.6606 6.34695 5.78461 6.048 6.008C5.74356 6.24382 5.51367 6.56252 5.38595 6.92581C5.25823 7.28911 5.23811 7.68155 5.328 8.056C5.41594 8.42421 5.61077 8.7582 5.888 9.016C6.16577 9.26901 6.51605 9.42831 6.8893 9.47138C7.26256 9.51445 7.6399 9.4391 7.968 9.256C8.288 9.072 8.568 8.792 8.736 8.44C8.76322 8.39296 8.80012 8.35224 8.84425 8.32052C8.88838 8.2888 8.93874 8.26681 8.992 8.256C9.04542 8.24548 9.10054 8.24721 9.15319 8.26107C9.20585 8.27492 9.25468 8.30054 9.296 8.336C9.34004 8.37321 9.37513 8.41986 9.39867 8.47249C9.42221 8.52512 9.43361 8.58237 9.432 8.64C9.43136 8.69612 9.41893 8.75147 9.3955 8.80247C9.37207 8.85347 9.33817 8.89896 9.296 8.936C9 9.176 8.784 9.496 8.672 9.872C8.56061 10.2452 8.56061 10.6428 8.672 11.016C8.776 11.384 8.992 11.712 9.288 11.952C9.57808 12.1875 9.93453 12.3265 10.3075 12.3494C10.6804 12.3724 11.0512 12.2782 11.368 12.08C11.6936 11.8749 11.95 11.5766 12.104 11.224C12.2571 10.87 12.3046 10.4792 12.2408 10.0988C12.1769 9.71841 12.0044 9.3646 11.744 9.08C11.7075 9.03756 11.6807 8.98764 11.6655 8.93374C11.6503 8.87984 11.647 8.82328 11.656 8.768C11.6647 8.71289 11.6849 8.66023 11.7152 8.61338C11.7455 8.56654 11.7853 8.52656 11.832 8.496C11.8766 8.46736 11.927 8.44893 11.9795 8.44202C12.0321 8.4351 12.0855 8.43988 12.136 8.456C12.1891 8.47327 12.2376 8.50242 12.2778 8.54123C12.318 8.58004 12.3489 8.6275 12.368 8.68C12.496 9.04 12.728 9.36 13.032 9.584C13.3342 9.80567 13.6986 9.92652 14.0734 9.92939C14.4482 9.93226 14.8144 9.81701 15.12 9.6C15.3489 9.42879 15.5384 9.21051 15.6758 8.95986C15.8132 8.70921 15.8953 8.43203 15.9165 8.14698C15.9378 7.86193 15.8977 7.57564 15.7989 7.3074C15.7001 7.03917 15.545 6.79522 15.344 6.592C15.0732 6.33455 14.7291 6.16774 14.3592 6.1147C13.9894 6.06167 13.6122 6.12503 13.28 6.296C13.2058 6.33154 13.1217 6.34061 13.0416 6.32169C12.9616 6.30277 12.8904 6.257 12.84 6.192C12.8042 6.14768 12.7785 6.09609 12.7647 6.04082C12.7509 5.98556 12.7493 5.92795 12.76 5.872C12.7715 5.81482 12.7953 5.76085 12.8299 5.71387C12.8644 5.66688 12.9088 5.62802 12.96 5.6C13.008 5.568 13.056 5.552 13.12 5.552C13.488 5.536 13.84 5.4 14.144 5.168C14.448 4.928 14.672 4.608 14.792 4.248C14.9139 3.87792 14.925 3.48031 14.824 3.104C14.7262 2.73464 14.52 2.40305 14.232 2.152L14.224 2.16ZM11.84 5.84C11.9471 6.0204 12.0147 6.22152 12.0382 6.43002C12.0617 6.63852 12.0406 6.84963 11.9763 7.04935C11.912 7.24908 11.806 7.43284 11.6652 7.58846C11.5245 7.74408 11.3523 7.868 11.16 7.952C10.9068 8.05085 10.6295 8.07012 10.365 8.00722C10.1006 7.94433 9.86159 7.80227 9.68 7.6C9.49285 7.3883 9.36947 7.12792 9.32417 6.84901C9.27886 6.5701 9.31348 6.28406 9.424 6.024C9.51577 5.8113 9.6575 5.62388 9.83716 5.47765C10.0168 5.33141 10.2291 5.23068 10.456 5.184C10.6353 5.15104 10.8194 5.15533 10.997 5.19662C11.1745 5.23791 11.3417 5.31531 11.488 5.424C11.632 5.536 11.76 5.664 11.856 5.824L11.84 5.84ZM8.096 7.576C8.10881 7.33109 8.03597 7.08936 7.89 6.8923C7.74402 6.69523 7.53401 6.55512 7.296 6.496C7.024 6.44 6.736 6.496 6.512 6.64C6.38305 6.73023 6.27457 6.84663 6.19363 6.9816C6.11269 7.11658 6.0611 7.26709 6.04223 7.42334C6.02336 7.57959 6.03763 7.73806 6.08411 7.88842C6.13059 8.03878 6.20824 8.17766 6.312 8.296C6.44973 8.44862 6.63116 8.55508 6.83157 8.60089C7.03198 8.6467 7.24164 8.62963 7.432 8.552C7.624 8.48 7.792 8.344 7.912 8.168C8.02781 7.99191 8.09159 7.78671 8.096 7.576ZM9.6 2.768C9.68152 2.90268 9.73329 3.05324 9.75184 3.20957C9.7704 3.3659 9.7553 3.52439 9.70757 3.67441C9.65984 3.82443 9.58057 3.9625 9.47509 4.07937C9.36961 4.19623 9.24036 4.28919 9.096 4.352C8.90564 4.42963 8.69598 4.4467 8.49557 4.40089C8.29516 4.35508 8.11373 4.24862 7.976 4.096C7.87224 3.97766 7.79459 3.83878 7.74811 3.68842C7.70163 3.53806 7.68736 3.37959 7.70623 3.22334C7.7251 3.06709 7.77669 2.91658 7.85763 2.78161C7.93857 2.64663 8.04705 2.53023 8.176 2.44C8.28951 2.36425 8.41722 2.31233 8.55139 2.2874C8.68556 2.26247 8.8234 2.26504 8.95655 2.29496C9.08969 2.32488 9.21538 2.38153 9.32598 2.46147C9.43659 2.5414 9.52981 2.64297 9.6 2.76V2.768ZM14.048 3.64C14.048 3.424 14 3.216 13.888 3.04C13.8183 2.9217 13.7258 2.81838 13.616 2.736C13.5062 2.65362 13.3811 2.5938 13.248 2.56C12.976 2.504 12.688 2.56 12.464 2.712C12.3351 2.80224 12.2266 2.91863 12.1456 3.05361C12.0647 3.18858 12.0131 3.33909 11.9942 3.49534C11.9754 3.65159 11.9896 3.81006 12.0361 3.96042C12.0826 4.11078 12.1602 4.24966 12.264 4.368C12.403 4.51871 12.5844 4.62382 12.7843 4.66951C12.9842 4.7152 13.1933 4.69934 13.384 4.624C13.576 4.544 13.736 4.408 13.864 4.232C13.9798 4.05591 14.0436 3.85072 14.048 3.64ZM14.928 7.392C15.0098 7.52618 15.0619 7.67626 15.081 7.83221C15.1001 7.98817 15.0857 8.1464 15.0388 8.29634C14.9918 8.44629 14.9134 8.58448 14.8088 8.70169C14.7041 8.81889 14.5757 8.91241 14.432 8.976C14.2416 9.05363 14.032 9.0707 13.8316 9.02489C13.6312 8.97908 13.4497 8.87262 13.312 8.72C13.2082 8.60166 13.1306 8.46278 13.0841 8.31242C13.0376 8.16206 13.0234 8.00359 13.0422 7.84734C13.0611 7.69109 13.1127 7.54058 13.1936 7.4056C13.2746 7.27063 13.3831 7.15423 13.512 7.064C13.6255 6.98825 13.7532 6.93633 13.8874 6.9114C14.0216 6.88647 14.1594 6.88904 14.2925 6.91896C14.4257 6.94888 14.5514 7.00553 14.662 7.08547C14.7726 7.1654 14.8658 7.26697 14.936 7.384L14.928 7.392ZM11.416 10.432C11.416 10.216 11.368 10 11.256 9.824C11.112 9.584 10.88 9.416 10.616 9.344C10.344 9.288 10.056 9.344 9.832 9.496C9.70305 9.58623 9.59457 9.70263 9.51363 9.8376C9.43269 9.97258 9.3811 10.1231 9.36223 10.2793C9.34336 10.4356 9.35763 10.5941 9.40411 10.7444C9.45059 10.8948 9.52824 11.0337 9.632 11.152C9.77105 11.3027 9.95244 11.4078 10.1523 11.4535C10.3522 11.4992 10.5613 11.4833 10.752 11.408C10.944 11.328 11.112 11.2 11.232 11.024C11.3493 10.8456 11.4131 10.6374 11.416 10.424V10.432Z" fill="#1D4268"/>
<path id="Vector_3" d="M9.264 2.952C9.3355 3.0709 9.37194 3.20759 9.36911 3.34631C9.36627 3.48502 9.32429 3.62011 9.248 3.736C9.17193 3.8506 9.06325 3.93977 8.936 3.992C8.81095 4.04321 8.67315 4.05455 8.54141 4.02448C8.40968 3.99441 8.29044 3.92439 8.2 3.824C8.10746 3.72 8.04631 3.59189 8.02366 3.45453C8.001 3.31718 8.01776 3.17621 8.072 3.048C8.12454 2.91879 8.21347 2.80762 8.328 2.728C8.40226 2.67788 8.48601 2.64351 8.57406 2.627C8.66212 2.61049 8.75263 2.61219 8.84 2.632C9.016 2.68 9.168 2.792 9.264 2.952ZM13.584 3.256C13.6543 3.37565 13.6894 3.51274 13.6851 3.65146C13.6809 3.79018 13.6375 3.92488 13.56 4.04C13.4839 4.1546 13.3753 4.24377 13.248 4.296C13.123 4.34721 12.9851 4.35855 12.8534 4.32848C12.7217 4.29841 12.6024 4.22839 12.512 4.128C12.4203 4.02353 12.3597 3.89545 12.3371 3.7583C12.3145 3.62114 12.3307 3.48039 12.384 3.352C12.4365 3.22279 12.5255 3.11162 12.64 3.032C12.7143 2.98188 12.798 2.94751 12.8861 2.931C12.9741 2.91449 13.0646 2.91619 13.152 2.936C13.328 2.984 13.48 3.096 13.584 3.256ZM14.688 7.568C14.7628 7.68868 14.8011 7.82842 14.7982 7.97036C14.7954 8.11231 14.7515 8.2504 14.672 8.368C14.5915 8.47793 14.4801 8.56146 14.352 8.608C14.2277 8.66016 14.0904 8.67278 13.9587 8.64415C13.8271 8.61553 13.7074 8.54704 13.616 8.448C13.5201 8.34428 13.4569 8.21465 13.4341 8.07525C13.4113 7.93585 13.4301 7.79283 13.488 7.664C13.544 7.536 13.632 7.424 13.752 7.344C13.8274 7.2966 13.9117 7.26505 13.9998 7.2513C14.0878 7.23755 14.1777 7.24187 14.264 7.264C14.44 7.296 14.584 7.408 14.688 7.568ZM10.944 10.04C11.0188 10.1607 11.0571 10.3004 11.0542 10.4424C11.0514 10.5843 11.0075 10.7224 10.928 10.84C10.8496 10.9487 10.7412 11.0321 10.616 11.08C10.4917 11.1322 10.3544 11.1448 10.2227 11.1162C10.0911 11.0875 9.97139 11.019 9.88 10.92C9.78746 10.816 9.72631 10.6879 9.70366 10.5505C9.681 10.4132 9.69776 10.2722 9.752 10.144C9.80454 10.0148 9.89347 9.90362 10.008 9.824C10.0823 9.77388 10.166 9.73951 10.2541 9.723C10.3421 9.70649 10.4326 9.70819 10.52 9.728C10.696 9.768 10.848 9.888 10.944 10.048V10.04ZM7.616 7.2C7.68795 7.32055 7.72393 7.45917 7.71968 7.59951C7.71542 7.73984 7.67112 7.87602 7.592 7.992C7.51688 8.10242 7.41125 8.18859 7.288 8.24C7.16195 8.29304 7.02247 8.30536 6.88907 8.27524C6.75568 8.24512 6.63503 8.17406 6.544 8.072C6.4523 7.96753 6.3917 7.83945 6.36908 7.7023C6.34646 7.56514 6.36271 7.42439 6.416 7.296C6.46854 7.16679 6.55747 7.05562 6.672 6.976C6.74685 6.92724 6.83088 6.89429 6.91892 6.87916C7.00696 6.86402 7.09716 6.86703 7.184 6.888C7.36 6.928 7.52 7.04 7.616 7.2ZM11.56 6.064C11.6677 6.24401 11.7219 6.45097 11.7162 6.66066C11.7106 6.87034 11.6453 7.07408 11.528 7.248C11.415 7.41929 11.2534 7.55298 11.064 7.632C10.8752 7.70741 10.6678 7.72251 10.4701 7.67524C10.2724 7.62797 10.0942 7.52064 9.96 7.368C9.816 7.216 9.72 7.024 9.688 6.816C9.656 6.608 9.68 6.392 9.768 6.2C9.848 6.008 9.976 5.848 10.152 5.736C10.376 5.576 10.656 5.528 10.92 5.592C11.184 5.656 11.408 5.824 11.56 6.064Z" fill="#1D4268"/>
</g>
<defs>
<clipPath id="clip0_0_4">
<rect width="16" height="16" fill="white"/>
</clipPath>
</defs>
</svg>
