<svg width="16" height="16" viewBox="0 0 16 16" fill="none" xmlns="http://www.w3.org/2000/svg">
<g id="Img" clip-path="url(#clip0_0_4)">
<path id="Vector" d="M9.52381 0.31746C9.52381 0.31746 7.55556 -0.126985 6.34921 0.126984C7.2381 0.380952 6.79365 0.761904 6.47619 0.825396C4.25397 1.39682 0.63492 3.30159 0.63492 6.85714C0.888889 6.34921 2.03175 6.22222 2.03175 6.22222C2.03175 6.22222 -2.03175 10.7937 1.33333 15.9365C1.90476 12.7619 4.95238 12.3175 4.95238 12.3175C4.95238 12.3175 4.31746 12.6984 4.95238 13.3968C7.42857 16.381 16.6349 15.2381 15.8095 12C15.3651 13.2063 9.71429 14.6667 6.92063 11.1746C5.01587 8.44444 3.42857 9.65079 2.98413 11.1746C2.98413 11.1746 2.60317 7.49206 5.33333 5.77778C6.09524 5.20635 5.20635 3.49206 4.57143 5.01587C3.74603 2.73016 6.47619 1.26984 9.52381 0.31746Z" fill="#1D4268"/>
<path id="Vector_2" d="M10.9841 3.68254C9.20635 3.68254 7.74603 5.07936 7.74603 6.85714C7.74603 8.63492 9.20635 10.0317 10.9841 10.0317C12.7619 10.0317 14.2222 8.63492 14.2222 6.85714C14.2222 5.07936 12.7619 3.68254 10.9841 3.68254ZM12.6349 4.8254C12.6523 4.7992 12.6759 4.77772 12.7036 4.76285C12.7313 4.74799 12.7622 4.74021 12.7937 4.74021C12.8251 4.74021 12.856 4.74799 12.8837 4.76285C12.9114 4.77772 12.935 4.7992 12.9524 4.8254C13.3968 5.20635 13.6508 5.71429 13.7778 6.28571C13.7778 6.34921 13.7778 6.47619 13.6508 6.53968L13.0159 6.66667C12.6984 6.66667 12.4444 6.60317 12.254 6.4127C11.9365 6.09524 12.0635 5.52381 12.6349 4.8254ZM9.33333 8.88889L9.20635 8.95238L9.07937 8.88889C8.63492 8.50794 8.38095 8 8.25397 7.49206C8.19048 7.36508 8.25397 7.30159 8.31746 7.2381C8.8254 6.98413 9.46032 7.04762 9.71429 7.36508C10.0952 7.68254 9.90476 8.25397 9.33333 8.88889ZM9.71429 6.4127C9.5873 6.60317 9.26984 6.66667 9.01587 6.66667L8.31746 6.53968C8.25397 6.47619 8.19048 6.34921 8.25397 6.28571C8.38095 5.71429 8.63492 5.20635 9.07937 4.8254L9.20635 4.7619L9.33333 4.8254C9.90476 5.52381 10.0952 6.09524 9.71429 6.4127ZM11.873 9.52381C11.3151 9.69928 10.7167 9.69928 10.1587 9.52381C10.0317 9.52381 9.96825 9.39683 10.0317 9.33333C10.0317 8.57143 10.4762 8.06349 10.9841 8.06349C11.5556 8.06349 11.9365 8.57143 12 9.33333L11.873 9.52381ZM10.2222 6.85714C10.2222 6.4127 10.5397 6.03175 10.9841 6.03175C11.4286 6.03175 11.8095 6.4127 11.8095 6.85714C11.8095 7.30159 11.4286 7.68254 10.9841 7.68254C10.5397 7.68254 10.2222 7.30159 10.2222 6.85714ZM12 4.44444C11.9365 5.14286 11.5556 5.65079 10.9841 5.65079C10.4762 5.65079 10.0317 5.14286 10.0317 4.44444C9.96825 4.31746 10.0317 4.25397 10.1587 4.19048C10.7302 4.06349 11.3016 4.06349 11.873 4.19048L12 4.44444ZM13.7778 7.42857C13.6508 8 13.3968 8.50794 12.9524 8.88889L12.8254 8.95238L12.6349 8.88889C12.0635 8.25397 11.9365 7.61905 12.254 7.30159C12.5714 7.04762 13.2063 6.98413 13.6508 7.2381C13.7778 7.2381 13.7778 7.36508 13.7778 7.42857Z" fill="#1D4268"/>
<path id="Vector_3" d="M10.9841 1.96825C8.31746 1.96825 6.09524 4.19048 6.09524 6.85714C6.09524 9.52381 8.31746 11.746 10.9841 11.746C13.7143 11.746 15.9365 9.52381 15.9365 6.85714C15.9365 4.19048 13.7143 1.96825 10.9841 1.96825ZM10.9841 10.4127C9.01587 10.4127 7.42857 8.8254 7.42857 6.85714C7.42857 4.88889 9.01587 3.30159 10.9841 3.30159C12.9524 3.30159 14.6032 4.88889 14.6032 6.85714C14.6032 8.8254 12.9524 10.4127 10.9841 10.4127Z" fill="#1D4268"/>
</g>
<defs>
<clipPath id="clip0_0_4">
<rect width="16" height="16" fill="white"/>
</clipPath>
</defs>
</svg>
