<svg width="16" height="16" viewBox="0 0 16 16" fill="none" xmlns="http://www.w3.org/2000/svg">
<g id="Img" clip-path="url(#clip0_0_4)">
<path id="Vector" d="M9.63333 0.766666C9.63333 0.766666 7.63333 0.333333 6.36667 0.566666C7.33333 0.8 6.86667 1.16667 6.56667 1.23333C4.3 1.8 0.633333 3.63333 0.633333 7.13333C0.9 6.66667 2.06667 6.53333 2.06667 6.53333C2.06667 6.53333 -2.06667 11 1.36667 16C1.93333 12.9333 4.96667 12.4667 4.96667 12.4667C4.96667 12.4667 4.36667 12.8 4.96667 13.5C7.5 16.4 16.7667 15.3 15.9667 12.1667C15.4667 13.3333 9.8 14.7667 6.96667 11.3333C5.06667 8.66667 3.43333 9.86667 3 11.3333C3 11.3333 2.6 7.76667 5.36667 6.06667C6.13333 5.53333 5.26667 3.83333 4.6 5.36667C3.76667 3.1 6.5 1.7 9.6 0.766666H9.63333Z" fill="#1D4268"/>
<path id="Vector_2" fill-rule="evenodd" clip-rule="evenodd" d="M11 12.3333C12.3261 12.3333 13.5979 11.8065 14.5355 10.8689C15.4732 9.93119 16 8.65942 16 7.33333C16 6.00725 15.4732 4.73548 14.5355 3.7978C13.5979 2.86012 12.3261 2.33333 11 2.33333C9.67392 2.33333 8.40215 2.86012 7.46447 3.7978C6.52678 4.73548 6 6.00725 6 7.33333C6 8.65942 6.52678 9.93119 7.46447 10.8689C8.40215 11.8065 9.67392 12.3333 11 12.3333ZM13.5 4.66667H12.3667C12.2667 4.66667 12.2 4.73333 12.2 4.83333V4.96667H11.7667C11.6667 4.96667 11.6 5.03333 11.6 5.13333V5.73333C11.6 5.83333 11.6667 5.9 11.7667 5.9H12.2V6.1H11.7667C11.6667 6.1 11.6 6.16667 11.6 6.26667V6.86667C11.6 6.96667 11.6667 7.03333 11.7667 7.03333H12.2V7.16667C12.2 7.26667 12.2667 7.33333 12.3667 7.33333H13.5C13.6 7.33333 13.6667 7.26667 13.6667 7.16667V4.83333C13.6667 4.73333 13.6 4.66667 13.5 4.66667ZM10.7 5.26667H10.8333C10.9333 5.26667 11 5.33333 11 5.4V6.56667C11 6.66667 10.9333 6.73333 10.8333 6.73333H8.5C8.4558 6.73333 8.4134 6.71577 8.38215 6.68452C8.35089 6.65326 8.33333 6.61087 8.33333 6.56667V5.4C8.33333 5.33333 8.4 5.26667 8.5 5.26667H8.63333V4.83333C8.63333 4.73333 8.7 4.66667 8.8 4.66667H9.4C9.5 4.66667 9.56667 4.73333 9.56667 4.83333V5.26667H9.76667V4.83333C9.76667 4.73333 9.83333 4.66667 9.93333 4.66667H10.5333C10.6333 4.66667 10.7 4.73333 10.7 4.83333V5.26667ZM9.8 7.63333H10.2333C10.3333 7.63333 10.4 7.7 10.4 7.8V8.4C10.4 8.5 10.3333 8.56667 10.2333 8.56667H9.8V8.76667H10.2333C10.3333 8.76667 10.4 8.83333 10.4 8.93333V9.53333C10.4 9.63333 10.3333 9.7 10.2333 9.7H9.8V9.83333C9.8 9.93333 9.73333 10 9.63333 10H8.5C8.4558 10 8.4134 9.98244 8.38215 9.95118C8.35089 9.91993 8.33333 9.87754 8.33333 9.83333V7.5C8.33333 7.4 8.4 7.33333 8.5 7.33333H9.63333C9.73333 7.33333 9.8 7.4 9.8 7.5V7.63333ZM13.3667 8.53333H13.5C13.6 8.53333 13.6667 8.6 13.6667 8.7V9.83333C13.6667 9.93333 13.6 10 13.5 10H11.1667C11.1225 10 11.0801 9.98244 11.0488 9.95118C11.0176 9.91993 11 9.87754 11 9.83333V8.7C11 8.6 11.0667 8.53333 11.1667 8.53333H11.3V8.1C11.3 8 11.3667 7.93333 11.4667 7.93333H12.0667C12.1667 7.93333 12.2333 8 12.2333 8.1V8.53333H12.4333V8.1C12.4333 8 12.5 7.93333 12.6 7.93333H13.2C13.3 7.93333 13.3667 8 13.3667 8.1V8.53333Z" fill="#1D4268"/>
</g>
<defs>
<clipPath id="clip0_0_4">
<rect width="16" height="16" fill="white"/>
</clipPath>
</defs>
</svg>
