<svg width="16" height="16" viewBox="0 0 16 16" fill="none" xmlns="http://www.w3.org/2000/svg">
<g id="Img" clip-path="url(#clip0_0_4)">
<path id="Vector" d="M10.95 1.4C9.61729 1.40663 8.34179 1.94241 7.40411 2.88947C6.46643 3.83652 5.94337 5.11729 5.95 6.45C5.95663 7.78271 6.49241 9.05821 7.43947 9.99589C8.38652 10.9336 9.66729 11.4566 11 11.45C12.3327 11.4434 13.6082 10.9076 14.5459 9.96053C15.4836 9.01348 16.0066 7.73271 16 6.4C15.9934 5.06729 15.4576 3.79179 14.5105 2.85411C13.5635 1.91643 12.2827 1.39337 10.95 1.4ZM13.95 4.25C14.2681 4.17399 14.6032 4.22565 14.8837 4.3939C15.1641 4.56215 15.3674 4.83359 15.45 5.15C15.6 5.65 15.35 6.25 14.9 6.5C15 6.25 15 5.95 15 5.65C14.9592 5.48147 14.8852 5.32281 14.7821 5.18334C14.6791 5.04387 14.5492 4.92642 14.4002 4.8379C14.2511 4.74937 14.0858 4.69157 13.914 4.66789C13.7422 4.64421 13.5675 4.65512 13.4 4.7C13.3242 4.71057 13.2539 4.74569 13.2 4.8C13.35 4.55 13.6 4.3 13.9 4.25H13.95ZM11.6 1.95C11.9181 1.87399 12.2532 1.92565 12.5337 2.0939C12.8141 2.26215 13.0174 2.53359 13.1 2.85C13.25 3.35 13.05 3.95 12.6 4.2C12.7 3.95 12.75 3.65 12.65 3.35C12.567 3.0205 12.3584 2.73657 12.0687 2.55901C11.779 2.38145 11.4313 2.32437 11.1 2.4C11.0538 2.39934 11.0079 2.40783 10.965 2.425C10.9221 2.44216 10.883 2.46765 10.85 2.5C11 2.25 11.25 2 11.6 2V1.95ZM9.85 4.6C10 4.4 10 4.1 9.95 3.8C9.9149 3.62698 9.84492 3.46292 9.74433 3.31782C9.64375 3.17273 9.51467 3.04965 9.36495 2.95607C9.21524 2.8625 9.04804 2.80041 8.87354 2.77358C8.69904 2.74674 8.52091 2.75573 8.35 2.8C8.26714 2.82367 8.19593 2.87708 8.15 2.95C8.35 2.65 8.6 2.45 8.9 2.4C9.21134 2.32201 9.54075 2.36677 9.81999 2.52501C10.0992 2.68325 10.3069 2.94284 10.4 3.25C10.4698 3.50649 10.4593 3.7782 10.3699 4.02852C10.2805 4.27885 10.1165 4.49575 9.9 4.65L9.85 4.6ZM12.15 6.95C12.2652 6.68239 12.2999 6.38703 12.25 6.1C12.1567 5.76877 11.9359 5.48803 11.636 5.31932C11.3361 5.15062 10.9815 5.10771 10.65 5.2C10.5798 5.19621 10.5101 5.21363 10.45 5.25C10.576 5.03286 10.7645 4.8587 10.9908 4.75018C11.2172 4.64166 11.471 4.60383 11.7192 4.64159C11.9674 4.67936 12.1985 4.79099 12.3823 4.96193C12.5662 5.13287 12.6943 5.35521 12.75 5.6C12.7988 5.85933 12.7676 6.12737 12.6604 6.36851C12.5532 6.60965 12.3752 6.81247 12.15 6.95ZM14.45 9.2C14.6 8.95 14.65 8.7 14.55 8.35C14.4464 8.039 14.2291 7.77861 13.9417 7.621C13.6543 7.46338 13.3179 7.42016 13 7.5C12.9298 7.49621 12.8601 7.51363 12.8 7.55C12.95 7.3 13.2 7.05 13.55 7.05C13.8613 6.97201 14.1908 7.01677 14.47 7.17501C14.7492 7.33325 14.9569 7.59284 15.05 7.9C15.15 8.45 14.95 9 14.5 9.25L14.45 9.2Z" fill="#1D4268"/>
<path id="Vector_2" d="M9 1C9 1 7.15 0.55 6 0.8C6.85 1 6.5 1.3 6.2 1.4C4.05 2 0.55 3.7 0.65 7C0.8 6.5 1.95 6.45 1.95 6.45C1.95 6.45 -1.95 10.5 1.25 15.25C1.85 12.5 4.65 12 4.65 12C4.65 12 4.15 12.3 4.65 13C7.05 15.7 15.85 14.7 15.05 11.7C14.55 12.8 9.25 14.1 6.55 10.9C4.8 8.4 3.2 9.55 2.8 10.9C2.8 10.9 2.4 7.55 5.05 6C5.75 5.5 4.9 3.85 4.35 5.3C3.5 3.15 6.1 1.85 9 0.95V1Z" fill="#1D4268"/>
</g>
<defs>
<clipPath id="clip0_0_4">
<rect width="16" height="16" fill="white"/>
</clipPath>
</defs>
</svg>
