<svg width="16" height="16" viewBox="0 0 16 16" fill="none" xmlns="http://www.w3.org/2000/svg">
<g id="Img" clip-path="url(#clip0_0_4)">
<path id="Vector" d="M11.1059 1.69412C12.0645 1.69412 13.0017 1.97839 13.7988 2.51099C14.5959 3.0436 15.2171 3.8006 15.584 4.68629C15.9508 5.57197 16.0468 6.54655 15.8598 7.48679C15.6728 8.42703 15.2111 9.29069 14.5333 9.96856C13.8554 10.6464 12.9917 11.1081 12.0515 11.2951C11.1113 11.4821 10.1367 11.3861 9.25099 11.0193C8.36531 10.6524 7.6083 10.0312 7.0757 9.23406C6.5431 8.43696 6.25882 7.49983 6.25882 6.54118C6.25882 3.85882 8.42353 1.69412 11.1059 1.69412ZM9.41177 0.752941C9.41177 0.752941 3.43529 2.16471 4.51765 5.12941C4.70588 4.65882 5.27059 4.23529 5.50588 5.08235C5.74118 5.92941 4.94118 6.11765 4.51765 6.49412C4.09412 6.87059 2.82353 8.28235 2.91765 11.0118C3.01176 10.8235 4.23529 8.18824 6.44706 10.5412C8.65882 12.8941 9.74118 12.9412 10.6824 13.0353C11.6235 13.1294 14.1176 13.3647 15.5765 11.8588C15.6235 12.1412 16.0471 14.6353 9.6 14.7765C6.44706 14.8706 3.76471 13.0353 4.8 12.1412C4.14118 12.3294 1.97647 12.7529 1.31765 15.5294C0.847059 14.7294 -1.78824 11.0118 2.02353 6.4C1.55294 6.54118 1.22353 6.4 0.705882 7.01176C0.611765 6.30588 0.564706 3.05882 6.44706 1.17647C6.91765 0.988235 6.87059 0.705882 6.25882 0.564706C6.49412 0.423529 8.51765 0.423529 9.36471 0.752941H9.41177ZM14.3529 4.98824C14.446 4.98824 14.537 5.01584 14.6144 5.06754C14.6918 5.11925 14.7521 5.19275 14.7877 5.27874C14.8233 5.36473 14.8326 5.45935 14.8145 5.55063C14.7963 5.64192 14.7515 5.72577 14.6857 5.79158C14.6199 5.85739 14.536 5.90221 14.4447 5.92037C14.3535 5.93853 14.2588 5.92921 14.1729 5.89359C14.0869 5.85797 14.0134 5.79766 13.9617 5.72027C13.91 5.64288 13.8824 5.5519 13.8824 5.45882C13.8824 5.22353 14.1176 4.98824 14.3529 4.98824ZM13.1765 6.11765C13.2695 6.11765 13.3605 6.14525 13.4379 6.19696C13.5153 6.24866 13.5756 6.32216 13.6112 6.40815C13.6469 6.49414 13.6562 6.58876 13.638 6.68004C13.6199 6.77133 13.575 6.85518 13.5092 6.92099C13.4434 6.9868 13.3596 7.03162 13.2683 7.04978C13.177 7.06794 13.0824 7.05862 12.9964 7.023C12.9104 6.98738 12.8369 6.92707 12.7852 6.84968C12.7335 6.77229 12.7059 6.68131 12.7059 6.58824C12.7059 6.30588 12.8941 6.11765 13.1765 6.11765ZM12.0471 7.2C12.1416 7.1905 12.2367 7.20983 12.32 7.25543C12.4034 7.30103 12.4709 7.37078 12.5139 7.4555C12.5568 7.54022 12.5731 7.63595 12.5606 7.73011C12.5481 7.82426 12.5074 7.91244 12.4439 7.98304C12.3804 8.05364 12.2969 8.10336 12.2046 8.12566C12.1123 8.14796 12.0154 8.14181 11.9266 8.108C11.8379 8.0742 11.7614 8.01432 11.7073 7.93625C11.6532 7.85818 11.624 7.76557 11.6235 7.67059C11.6235 7.38824 11.8118 7.2 12.0941 7.2H12.0471ZM10.9647 8.28235C11.0578 8.28235 11.1488 8.30995 11.2262 8.36166C11.3035 8.41337 11.3639 8.48687 11.3995 8.57285C11.4351 8.65884 11.4444 8.75346 11.4263 8.84475C11.4081 8.93603 11.3633 9.01988 11.2975 9.0857C11.2316 9.15151 11.1478 9.19633 11.0565 9.21449C10.9652 9.23265 10.8706 9.22333 10.7846 9.18771C10.6986 9.15209 10.6251 9.09177 10.5734 9.01439C10.5217 8.937 10.4941 8.84602 10.4941 8.75294C10.4941 8.47059 10.7294 8.28235 10.9647 8.28235ZM14.2588 7.2C14.3519 7.2 14.4429 7.2276 14.5203 7.27931C14.5977 7.33102 14.658 7.40451 14.6936 7.4905C14.7292 7.57649 14.7385 7.67111 14.7204 7.7624C14.7022 7.85368 14.6574 7.93753 14.5916 8.00334C14.5258 8.06916 14.4419 8.11398 14.3506 8.13213C14.2593 8.15029 14.1647 8.14097 14.0787 8.10536C13.9927 8.06974 13.9193 8.00942 13.8675 7.93203C13.8158 7.85465 13.7882 7.76366 13.7882 7.67059C13.7882 7.38824 14.0235 7.2 14.2588 7.2ZM13.1765 8.28235C13.2695 8.28235 13.3605 8.30995 13.4379 8.36166C13.5153 8.41337 13.5756 8.48687 13.6112 8.57285C13.6469 8.65884 13.6562 8.75346 13.638 8.84475C13.6199 8.93603 13.575 9.01988 13.5092 9.0857C13.4434 9.15151 13.3596 9.19633 13.2683 9.21449C13.177 9.23265 13.0824 9.22333 12.9964 9.18771C12.9104 9.15209 12.8369 9.09177 12.7852 9.01439C12.7335 8.937 12.7059 8.84602 12.7059 8.75294C12.7059 8.47059 12.8941 8.28235 13.1765 8.28235ZM12.0941 9.41177C12.1906 9.40252 12.2876 9.42327 12.3718 9.4712C12.456 9.51913 12.5234 9.5919 12.5647 9.67956C12.606 9.76721 12.6193 9.86549 12.6026 9.96096C12.586 10.0564 12.5403 10.1444 12.4718 10.213C12.4033 10.2815 12.3153 10.3272 12.2198 10.3438C12.1243 10.3604 12.026 10.3472 11.9384 10.3059C11.8507 10.2646 11.778 10.1972 11.73 10.113C11.6821 10.0287 11.6613 9.93176 11.6706 9.83529C11.6706 9.6 11.8588 9.36471 12.1412 9.36471L12.0941 9.41177ZM9.92941 9.41177C10.0244 9.41224 10.117 9.44145 10.1951 9.49554C10.2731 9.54964 10.333 9.62609 10.3668 9.71485C10.4006 9.80362 10.4068 9.90053 10.3845 9.99285C10.3622 10.0852 10.3125 10.1686 10.2419 10.2321C10.1713 10.2957 10.0831 10.3364 9.98893 10.3488C9.89478 10.3613 9.79904 10.345 9.71432 10.3021C9.6296 10.2592 9.55985 10.1916 9.51425 10.1083C9.46865 10.025 9.44933 9.9298 9.45882 9.83529C9.45882 9.6 9.69412 9.36471 9.92941 9.36471V9.41177Z" fill="#1D4268"/>
</g>
<defs>
<clipPath id="clip0_0_4">
<rect width="16" height="16" fill="white"/>
</clipPath>
</defs>
</svg>
