<svg width="16" height="16" viewBox="0 0 16 16" fill="none" xmlns="http://www.w3.org/2000/svg">
<g id="Img">
<path id="Vector" d="M9.05 0.75C9.05 0.75 7.15 0.35 6.05 0.55C6.9 0.8 6.45 1.1 6.15 1.2C4.05 1.7 0.65 3.45 0.65 6.7C0.85 6.3 1.95 6.2 1.95 6.2C1.95 6.2 -1.95 10.3 1.3 15C1.8 12.1 4.7 11.65 4.7 11.65C4.7 11.65 4.1 12 4.7 12.65C7 15.5 15.75 14.4 15 11.5C14.5 12.5 9.25 13.9 6.5 10.65C4.75 8.15 3.2 9.3 2.8 10.65C2.8 10.65 2.4 7.35 5 5.75C5.75 5.25 4.9 3.6 4.3 5.05C3.5 3 6.1 1.65 9 0.75H9.05Z" fill="#1D4268"/>
<path id="Vector_2" d="M9.15 5.05L7.3 3.2C6.52188 4.05233 6.06258 5.1476 6 6.3C7.16525 6.27126 8.2821 5.82806 9.15 5.05ZM9.55 4.65C10.3281 3.7821 10.7713 2.66525 10.8 1.5C9.6521 1.54045 8.55489 1.98287 7.7 2.75L9.5 4.65H9.55ZM11 3.5C10.7579 4.08518 10.4199 4.62592 10 5.1L11 6.1L14.3 2.8C13.4831 2.0591 12.448 1.60298 11.35 1.5C11.35 2.15 11.25 2.8 11 3.45V3.5ZM16 6.15C15.9006 5.07543 15.463 4.06007 14.75 3.25L11.4 6.5L12.4 7.5C13.3863 6.60543 14.6684 6.10684 16 6.1V6.15ZM12.85 8L14.7 9.85C15.4967 9.00967 15.959 7.90725 16 6.75C14.8347 6.77874 13.7179 7.22194 12.85 8ZM12.45 8.4C11.6681 9.26553 11.2243 10.3839 11.2 11.55C12.3479 11.5095 13.4451 11.0671 14.3 10.3L12.5 8.35L12.45 8.4ZM10.6 6.5L9.6 5.5C8.61366 6.39457 7.33157 6.89316 6 6.9C6.09935 7.97457 6.53701 8.98993 7.25 9.8L10.6 6.5ZM11 9.55C11.25 8.95 11.6 8.4 12 7.95L11 6.95L7.7 10.25C8.52353 10.9727 9.55792 11.411 10.65 11.5C10.65 10.85 10.75 10.2 11 9.55Z" fill="#1D4268"/>
</g>
</svg>
