<svg width="16" height="16" viewBox="0 0 16 16" fill="none" xmlns="http://www.w3.org/2000/svg">
<g id="Img">
<path id="Vector" d="M10.63 2.44C8.15 2.44 6.13 4.455 6.13 6.97C6.13 9.485 8.155 11.47 10.63 11.47C13.105 11.47 15.16 9.445 15.16 6.97C15.16 4.495 13.145 2.44 10.63 2.44ZM12 7.01C12 7.885 11.275 8.61 10.4 8.61C9.525 8.61 8.8 7.885 8.8 7.01C8.8 6.78 8.84 6.325 8.84 6.325H10.02L12 6.515C12.04 6.475 12 6.78 12 7.01ZM14.4 7.2C13.905 7.545 13.335 7.275 13.03 6.78C12.955 6.665 12.84 6.25 12.84 6.25C12.84 6.25 13.37 5.295 13.56 5.22C13.83 4.99 14.21 4.8 14.21 4.8C14.21 4.8 14.59 5.335 14.63 5.525C14.78 6.06 14.93 6.86 14.4 7.2Z" fill="#1D4268"/>
<path id="Vector_2" d="M8.875 2.02C8.875 2.02 7.2 1.64 6.135 1.87C6.935 2.055 6.55 2.32 6.325 2.4C4.42 2.935 1.25 4.455 1.335 7.43C1.485 7.01 2.515 6.93 2.515 6.93C2.515 6.93 -0.99 10.63 1.905 14.86C2.44 12.305 4.955 11.925 4.955 11.925C4.955 11.925 4.455 12.19 4.915 12.8C7.085 15.24 14.97 14.325 14.245 11.655C13.83 12.645 9.065 13.83 6.665 10.935C5.065 8.685 3.615 9.715 3.275 10.935C3.275 10.935 2.935 7.925 5.295 6.515C5.945 6.055 5.18 4.61 4.645 5.905C3.96 3.96 6.245 2.82 8.875 2.02Z" fill="#1D4268"/>
</g>
</svg>
