<svg width="16" height="16" viewBox="0 0 16 16" fill="none" xmlns="http://www.w3.org/2000/svg">
<g id="Img" clip-path="url(#clip0_0_4)">
<path id="Vector" d="M9.62752 0.25856C9.62752 0.25856 7.6192 -0.16896 6.37888 0.0755196C7.32416 0.31936 6.85184 0.68544 6.55616 0.74624C4.31168 1.3568 0.64896 3.24864 0.64896 6.848C0.88576 6.35968 2.0672 6.23744 2.0672 6.23744C2.0672 6.23744 -2.0672 10.8134 1.35808 16C1.9488 12.8275 4.96128 12.3392 4.96128 12.3392C4.96128 12.3392 4.37056 12.7053 4.96128 13.4374C7.50144 16.4269 16.775 15.2678 15.9482 12.0339C15.4752 13.2544 9.8048 14.7187 6.9696 11.1802C5.07968 8.43456 3.42592 9.6544 3.01248 11.1802C3.01248 11.1802 2.59904 7.51936 5.37472 5.74976C6.14272 5.20064 5.25696 3.43104 4.60672 5.0176C3.77984 2.69888 6.49728 1.23456 9.62752 0.25856Z" fill="#1D4268"/>
<path id="Vector_2" fill-rule="evenodd" clip-rule="evenodd" d="M15.6845 7.232C15.7146 6.92928 15.7158 6.62528 15.689 6.32512C15.0778 6.17152 14.4384 5.68832 14.0589 4.97856C13.6774 4.26624 13.607 3.49504 13.8182 2.90496C13.3311 2.52589 12.7777 2.24072 12.1862 2.064C11.5838 1.88393 10.9529 1.8188 10.3264 1.872C10.1709 2.47616 9.68256 3.08928 8.9632 3.46368C8.24448 3.83872 7.46752 3.9072 6.87168 3.70048C6.08367 4.67367 5.70232 5.91379 5.80736 7.1616C6.42112 7.30944 7.0304 7.7984 7.41632 8.50944C7.80288 9.2224 7.87072 9.99552 7.6576 10.585C7.38657 10.3721 7.1386 10.1314 6.91776 9.86688C7.54314 10.6177 8.37625 11.1672 9.31264 11.4464C10.252 11.7272 11.253 11.7266 12.192 11.4445C13.1279 11.1639 13.9601 10.6133 14.5843 9.86176C15.2051 9.11451 15.5882 8.19869 15.6845 7.232ZM14.6272 9.7984C14.0307 9.5872 13.2486 9.6544 12.528 10.0378C11.8061 10.4211 11.3107 11.0234 11.1622 11.6314C11.8349 11.5751 12.4893 11.3835 13.0861 11.0682L13.1232 11.049C13.7024 10.7355 14.2136 10.3102 14.6272 9.79776V9.7984ZM13.1008 6.976C13.1462 6.51538 13.0526 6.05172 12.832 5.6448C12.685 5.37318 12.4858 5.13328 12.2458 4.93888C11.7588 4.54379 11.1353 4.35722 10.5114 4.41984C10.2023 4.45004 9.90205 4.54026 9.62752 4.68544C9.21595 4.9028 8.87808 5.23733 8.65664 5.64672C8.43651 6.05429 8.3436 6.51849 8.38992 6.97938C8.43624 7.44028 8.61965 7.8767 8.91648 8.23232C9.21496 8.59068 9.61259 8.85295 10.0595 8.98624C10.5075 9.12064 10.9856 9.12064 11.433 8.98624C11.881 8.8512 12.2784 8.58816 12.5754 8.23104C12.8714 7.87454 13.0541 7.43773 13.1002 6.97664L13.1008 6.976Z" fill="#1D4268"/>
<path id="Vector_3" d="M15.1206 4.4416C15.3188 4.80701 15.4694 5.19632 15.5686 5.6C15.4895 5.30704 15.3881 5.02055 15.2653 4.74304C15.2163 4.63511 15.1633 4.52901 15.1066 4.42496L15.1002 4.4128C15.0458 4.31333 14.9879 4.21577 14.9267 4.12032L14.9248 4.11776C14.7096 3.78301 14.4545 3.47569 14.1651 3.20256C14.5478 3.56181 14.8704 3.98014 15.1206 4.4416Z" fill="#1D4268"/>
<path id="Vector_4" fill-rule="evenodd" clip-rule="evenodd" d="M7.88416 3.01184C7.93856 2.98432 7.98976 2.9504 8.03648 2.91072L8.00896 2.95808L7.68896 3.59616L7.99552 3.43616C8.03392 3.4176 8.06784 3.39264 8.09792 3.36256C8.1216 3.34016 8.14016 3.31328 8.15424 3.28384L8.35904 2.77824C8.41728 2.63296 8.42816 2.5184 8.39296 2.43392C8.29226 2.48748 8.19343 2.54447 8.09664 2.6048L8.09344 2.60608C8.09088 2.6304 8.0832 2.65408 8.07104 2.6752C8.05696 2.69952 8.03904 2.72192 8.01792 2.74112C7.9652 2.78624 7.90244 2.81807 7.83488 2.83392C7.808 2.8416 7.77984 2.84416 7.75168 2.84096C7.65508 2.91324 7.56115 2.98902 7.47008 3.06816C7.49888 3.0816 7.5296 3.08992 7.5616 3.09184C7.61472 3.09568 7.66784 3.09056 7.71904 3.07648C7.77664 3.06112 7.83168 3.03936 7.88416 3.01248V3.01184ZM8.72704 2.27136C8.7104 2.30144 8.69504 2.33152 8.68096 2.36096C8.66176 2.39936 8.64512 2.43904 8.63296 2.48C8.62208 2.51712 8.61696 2.5568 8.61888 2.5952C8.62016 2.6336 8.63104 2.672 8.65088 2.70528C8.67392 2.74816 8.70912 2.78336 8.75328 2.8064C8.8 2.832 8.85312 2.848 8.90688 2.8512C8.97472 2.85504 9.04128 2.848 9.10656 2.83072C9.18656 2.81152 9.264 2.78144 9.33632 2.74304C9.40608 2.70784 9.47136 2.66496 9.53152 2.61504C9.58145 2.57483 9.6241 2.52634 9.6576 2.47168C9.68512 2.4256 9.70176 2.37376 9.7056 2.32C9.70816 2.26707 9.69574 2.2145 9.66976 2.16832L9.48544 2.23872C9.4496 2.25088 9.41632 2.27072 9.38944 2.29632C9.38076 2.30674 9.37425 2.31879 9.3703 2.33175C9.36634 2.34472 9.36502 2.35835 9.3664 2.37184C9.36832 2.40576 9.35744 2.43904 9.3344 2.46464C9.3088 2.50304 9.2736 2.53312 9.23264 2.55424C9.18656 2.58176 9.13344 2.59584 9.07904 2.59264C9.05809 2.59041 9.03794 2.58336 9.02017 2.57203C9.0024 2.56071 8.9875 2.54541 8.97664 2.52736C8.96219 2.50578 8.95258 2.48133 8.94848 2.45568C8.94437 2.42917 8.94437 2.40219 8.94848 2.37568C8.9536 2.34368 8.9632 2.31232 8.976 2.28288C8.99072 2.24576 9.00736 2.20928 9.02592 2.17408L9.04128 2.14528C8.93504 2.18368 8.83008 2.22592 8.72768 2.27136H8.72704Z" fill="#1D4268"/>
<path id="Vector_5" fill-rule="evenodd" clip-rule="evenodd" d="M7.47008 3.06816C7.56115 2.98902 7.65508 2.91324 7.75168 2.84096C7.77984 2.84416 7.808 2.84096 7.83488 2.83392C7.87008 2.8256 7.90464 2.8128 7.93728 2.7968C7.96608 2.7808 7.9936 2.76224 8.01792 2.74112C8.03904 2.72192 8.05696 2.69952 8.07104 2.6752C8.08384 2.65408 8.09088 2.6304 8.09344 2.60672L8.09664 2.6048C8.19264 2.54464 8.29184 2.48768 8.39232 2.43392C8.42816 2.5184 8.41792 2.63296 8.35904 2.77824L8.15424 3.28384C8.14016 3.31328 8.1216 3.34016 8.09792 3.36256C8.06784 3.39264 8.03392 3.4176 7.99552 3.4368L7.68832 3.5968L8.00832 2.95808L8.03648 2.91072C7.98976 2.9504 7.93856 2.98432 7.88416 3.01184C7.83168 3.03936 7.77664 3.06112 7.71904 3.07648C7.66784 3.09056 7.61472 3.09568 7.5616 3.09184C7.5296 3.08992 7.49888 3.0816 7.47008 3.06816ZM8.68096 2.3616L8.72704 2.27136C8.83012 2.2258 8.93471 2.18375 9.04064 2.14528L9.02592 2.17472C9.00672 2.20928 8.99072 2.24512 8.976 2.28288C8.9632 2.31232 8.9536 2.34368 8.94784 2.37568C8.944 2.40192 8.944 2.4288 8.94784 2.45568C8.95232 2.48128 8.96192 2.5056 8.97664 2.52736C8.98731 2.54563 9.00215 2.56113 9.01995 2.57258C9.03774 2.58404 9.05799 2.59113 9.07904 2.59328C9.13344 2.59584 9.18656 2.58176 9.23264 2.5536C9.2736 2.53312 9.30944 2.5024 9.33504 2.46464C9.35744 2.43904 9.36832 2.40576 9.36704 2.37184C9.36541 2.35829 9.36655 2.34455 9.3704 2.33145C9.37425 2.31836 9.38073 2.30619 9.38944 2.29568C9.41632 2.27008 9.4496 2.25088 9.48544 2.23936L9.66976 2.16896C9.69536 2.2144 9.70816 2.26688 9.7056 2.32C9.70173 2.37363 9.68529 2.42559 9.6576 2.47168C9.62416 2.52657 9.58151 2.57528 9.53152 2.61568C9.47136 2.66496 9.40608 2.70784 9.33568 2.74304C9.26336 2.78144 9.18656 2.81152 9.10656 2.83072C9.04192 2.848 8.97472 2.85504 8.90752 2.8512C8.85321 2.84792 8.80031 2.83262 8.75264 2.8064C8.70934 2.78345 8.67374 2.74829 8.65024 2.70528C8.63065 2.67179 8.61965 2.63397 8.61824 2.5952C8.61696 2.5568 8.62208 2.51712 8.63296 2.48C8.64576 2.43904 8.66176 2.39936 8.68096 2.3616ZM14.5139 3.91104C14.5421 3.9648 14.5766 4.01536 14.6163 4.06144L14.5683 4.03456L13.9219 3.71904L14.0845 4.02176C14.1037 4.05952 14.1293 4.09344 14.1594 4.12288C14.1824 4.14656 14.2093 4.16512 14.2394 4.17856L14.7514 4.38016C14.8986 4.43776 15.0144 4.448 15.0995 4.4128C15.0453 4.31333 14.9877 4.21578 14.9267 4.12032L14.9248 4.11776C14.9003 4.11514 14.8765 4.10752 14.855 4.09536C14.8301 4.08192 14.8077 4.064 14.7885 4.04288C14.7667 4.01856 14.7482 3.99168 14.7322 3.96352C14.7154 3.93144 14.7026 3.8975 14.6938 3.8624C14.6863 3.83577 14.6841 3.80794 14.6874 3.78048V3.77984C14.614 3.68446 14.5371 3.59181 14.457 3.50208C14.4429 3.53024 14.4352 3.56096 14.4326 3.59232C14.4294 3.6448 14.4346 3.69792 14.4486 3.74848C14.4641 3.80498 14.486 3.85952 14.5139 3.91104ZM15.2653 4.74304C15.2346 4.72704 15.2038 4.71168 15.1738 4.69824C15.1354 4.67904 15.095 4.6624 15.0534 4.65024C15.0157 4.63936 14.9766 4.63488 14.937 4.6368C14.8979 4.63808 14.8602 4.64896 14.8256 4.66816C14.7821 4.6912 14.7469 4.7264 14.7232 4.76928C14.6969 4.81624 14.6816 4.86853 14.6784 4.92224C14.6749 4.98865 14.682 5.0552 14.6995 5.11936C14.7194 5.19808 14.7494 5.27424 14.7891 5.34592C14.8246 5.41492 14.868 5.47956 14.9184 5.53856C14.9594 5.58784 15.008 5.63008 15.0637 5.66272C15.1105 5.69014 15.1631 5.70635 15.2173 5.71008C15.271 5.71264 15.3242 5.70048 15.3709 5.67424L15.2986 5.49248C15.2866 5.45703 15.2669 5.42468 15.241 5.39776C15.2303 5.38913 15.218 5.3827 15.2048 5.37885C15.1916 5.37501 15.1778 5.37382 15.1642 5.37536C15.13 5.37722 15.0963 5.36601 15.0701 5.344C15.0317 5.3184 15.001 5.28384 14.9805 5.24352C14.9516 5.19836 14.9376 5.14536 14.9402 5.09184C14.9423 5.07086 14.9493 5.05068 14.9608 5.03298C14.9723 5.01528 14.9878 5.00057 15.0061 4.99008C15.0278 4.976 15.0528 4.9664 15.079 4.96192C15.1059 4.95808 15.1328 4.95808 15.1597 4.96192C15.1917 4.96704 15.2237 4.97664 15.2538 4.9888C15.2915 5.00352 15.328 5.01952 15.3632 5.03808L15.3926 5.05344C15.3535 4.94854 15.3108 4.84501 15.2646 4.74304H15.2653Z" fill="#1D4268"/>
<path id="Vector_6" fill-rule="evenodd" clip-rule="evenodd" d="M14.457 3.50208C14.5371 3.59181 14.614 3.68446 14.6874 3.77984C14.6842 3.808 14.6861 3.83552 14.6938 3.8624C14.7102 3.92943 14.7424 3.99154 14.7878 4.04352C14.8077 4.064 14.8301 4.08192 14.855 4.09536C14.8768 4.10816 14.8998 4.11456 14.9248 4.11776L14.9267 4.12032C14.9877 4.21578 15.0453 4.31333 15.0995 4.4128C15.0144 4.448 14.8986 4.43776 14.7514 4.38016L14.2394 4.17856C14.2093 4.16512 14.1824 4.14656 14.1594 4.12288C14.1293 4.09344 14.1037 4.05888 14.0845 4.02176L13.9226 3.71904L14.569 4.03456L14.617 4.06144C14.5771 4.01547 14.5427 3.96499 14.5146 3.91104C14.4864 3.85955 14.4643 3.80501 14.4486 3.74848C14.4346 3.69728 14.4294 3.6448 14.4326 3.59232C14.4346 3.56096 14.4429 3.53024 14.457 3.50272V3.50208ZM15.1738 4.6976C15.2038 4.71168 15.2346 4.72704 15.2653 4.74304C15.3114 4.84544 15.3536 4.94848 15.3933 5.05344L15.3632 5.03808C15.328 5.02016 15.2915 5.00352 15.2544 4.9888C15.2237 4.976 15.1923 4.96704 15.1597 4.96192C15.133 4.95788 15.1058 4.95788 15.079 4.96192C15.0534 4.9664 15.0278 4.976 15.0061 4.99008C14.9879 5.00069 14.9724 5.01543 14.961 5.0331C14.9495 5.05078 14.9424 5.0709 14.9402 5.09184C14.9376 5.14496 14.951 5.19808 14.9798 5.24352C15.001 5.28384 15.0317 5.31904 15.0701 5.344C15.0963 5.3664 15.1302 5.37728 15.1648 5.376C15.1784 5.37437 15.1922 5.37546 15.2054 5.37919C15.2186 5.38293 15.2309 5.38924 15.2416 5.39776C15.2672 5.42464 15.2864 5.45728 15.2992 5.49248L15.3709 5.67424C15.3242 5.69984 15.271 5.71264 15.2173 5.71008C15.1631 5.70635 15.1105 5.69014 15.0637 5.66272C15.0085 5.62993 14.9594 5.58794 14.9184 5.53856C14.868 5.47956 14.8246 5.41492 14.7891 5.34592C14.7496 5.2746 14.7194 5.19844 14.6995 5.11936C14.6822 5.05536 14.6752 4.9888 14.6784 4.92224C14.6822 4.86848 14.6976 4.81664 14.7232 4.76928C14.7469 4.7264 14.7821 4.6912 14.8256 4.66816C14.8595 4.64896 14.8979 4.63808 14.937 4.63616C14.9766 4.63488 15.0157 4.63936 15.0541 4.65024C15.095 4.66304 15.1354 4.6784 15.1738 4.6976ZM7.00288 9.9648C7.05408 9.91424 7.04128 9.7952 7.0272 9.74464C7.01248 9.68704 6.99008 9.63264 6.96192 9.5808C6.93376 9.52704 6.89984 9.47648 6.85952 9.43104L6.91072 9.45216L7.55328 9.77216L7.39328 9.46816C7.37344 9.43104 7.34784 9.39648 7.31648 9.36704C7.29361 9.34367 7.26673 9.32459 7.23712 9.31072L6.72512 9.10848C6.5728 9.05088 6.56512 9.04512 6.55552 9.04448L6.55168 9.04384C6.48768 9.03936 6.432 9.04 6.37248 9.06176C6.54801 9.38571 6.75947 9.68885 7.00288 9.96544V9.9648ZM6.21312 8.74048L6.304 8.79296C6.34304 8.81088 6.38336 8.82624 6.42496 8.83776C6.46272 8.84928 6.50176 8.8544 6.54144 8.85312C6.58507 8.85067 6.62743 8.83747 6.66472 8.81469C6.70202 8.79191 6.7331 8.76026 6.7552 8.72256C6.78144 8.67456 6.7968 8.62144 6.79936 8.56704C6.8032 8.4992 6.7968 8.43072 6.78016 8.3648C6.73885 8.21172 6.66458 8.06953 6.56256 7.94816C6.52117 7.89912 6.47184 7.85737 6.41664 7.82464C6.36954 7.7967 6.31643 7.78045 6.26176 7.77728C6.20821 7.77364 6.15478 7.78588 6.10816 7.81248L6.18048 8C6.19264 8.0352 6.21248 8.06784 6.23808 8.09472C6.24855 8.10344 6.26075 8.10984 6.27389 8.11348C6.28702 8.11712 6.30077 8.11793 6.31424 8.11584C6.3488 8.112 6.38464 8.12096 6.41216 8.14144C6.45056 8.16704 6.48064 8.20224 6.50176 8.24256C6.52864 8.28736 6.54208 8.33856 6.53952 8.39104C6.53678 8.41199 6.52922 8.43201 6.51746 8.44955C6.50569 8.4671 6.49002 8.48168 6.47168 8.49216C6.44992 8.50624 6.42496 8.51648 6.39936 8.52032C6.37248 8.52672 6.3456 8.52928 6.31808 8.52672C6.28608 8.5216 6.25536 8.51264 6.22528 8.50048C6.20288 8.49152 6.1664 8.47232 6.13312 8.45376L6.08576 8.4288C6.12481 8.53414 6.16751 8.6381 6.21376 8.74048H6.21312ZM14.0243 10.4243C14.0036 10.4173 13.9821 10.413 13.9603 10.4115C13.9071 10.4079 13.8536 10.4135 13.8022 10.4282C13.6858 10.4598 13.5775 10.5161 13.4848 10.5933L13.5117 10.5434L13.8355 9.90848L13.5283 10.0672C13.4906 10.0864 13.456 10.1114 13.4259 10.1408C13.4022 10.1632 13.3837 10.1901 13.3696 10.2195L13.1648 10.7251C13.111 10.8627 13.0982 10.9677 13.1232 11.0483C13.4456 10.8741 13.7478 10.6649 14.0243 10.4243ZM12.8243 11.1974L12.8512 11.143C12.8704 11.1046 12.8864 11.065 12.8979 11.024C12.909 10.9869 12.9138 10.9481 12.912 10.9094C12.911 10.8703 12.9002 10.832 12.8806 10.7981C12.8572 10.7551 12.8216 10.7199 12.7782 10.697C12.7304 10.6707 12.6772 10.6554 12.6227 10.6522C12.5538 10.6485 12.4847 10.6554 12.4179 10.6726C12.2637 10.7142 12.1197 10.7878 11.9962 10.8883C11.9465 10.9286 11.9041 10.9771 11.8707 11.0317C11.8426 11.0778 11.8259 11.1302 11.8227 11.1834C11.8208 11.2371 11.8336 11.2896 11.8605 11.3363L12.0448 11.2646C12.0806 11.2529 12.1134 11.2335 12.1408 11.2077C12.1498 11.1975 12.1565 11.1855 12.1604 11.1724C12.1643 11.1594 12.1652 11.1456 12.1632 11.1322C12.1594 11.0989 12.1677 11.065 12.1875 11.0381C12.2131 10.9997 12.249 10.9696 12.2899 10.9485C12.3366 10.92 12.3909 10.9066 12.4454 10.9101C12.4665 10.9124 12.4866 10.9195 12.5044 10.931C12.5222 10.9424 12.5371 10.9578 12.5478 10.976C12.5626 10.9978 12.5722 11.0221 12.5766 11.0483C12.5805 11.0746 12.5805 11.1014 12.5766 11.1283C12.5709 11.1603 12.5619 11.191 12.5491 11.2211L12.535 11.2608C12.528 11.2838 12.5203 11.3056 12.5082 11.3286C12.615 11.2885 12.7205 11.2448 12.8243 11.1974Z" fill="#1D4268"/>
<path id="Vector_7" d="M10.9792 7.5488C11.0189 7.52532 11.0661 7.51799 11.111 7.52832C11.132 7.53449 11.1515 7.54496 11.1683 7.55907C11.185 7.57317 11.1987 7.59059 11.2083 7.61024L11.3427 7.8624L9.8944 8.61568L9.82016 8.47616C9.8048 8.44672 9.79456 8.41408 9.79008 8.38144C9.7856 8.34304 9.79008 8.30336 9.8048 8.26688L10.0832 7.36576C10.1056 7.29536 10.1242 7.22496 10.1395 7.15264C10.1523 7.09184 10.1587 7.03104 10.1594 6.96896C10.1613 6.9152 10.1562 6.86016 10.1446 6.80768C10.1307 6.7553 10.1101 6.70496 10.0832 6.65792C10.0538 6.58752 9.99872 6.52992 9.92832 6.49792C9.89278 6.48683 9.85525 6.4836 9.81834 6.48846C9.78143 6.49333 9.74602 6.50616 9.71456 6.52608C9.65753 6.55358 9.61094 6.5988 9.58175 6.65498C9.55256 6.71117 9.54235 6.77529 9.55264 6.83776C9.56224 6.8864 9.55392 6.93696 9.5296 6.98048C9.49551 7.0211 9.44968 7.05017 9.3984 7.06368L9.14432 7.14304C9.1072 7.04384 9.08864 6.93824 9.08928 6.83264C9.0912 6.7392 9.11168 6.64704 9.1488 6.56064C9.18664 6.47561 9.24053 6.39868 9.30752 6.33408C9.4568 6.19033 9.64552 6.0943 9.8496 6.05824C9.94048 6.04416 10.0339 6.04864 10.1229 6.07104C10.2083 6.09499 10.2876 6.13713 10.3552 6.19456C10.4269 6.25408 10.4858 6.3264 10.528 6.40896C10.5664 6.47872 10.5933 6.55424 10.6067 6.63296C10.6195 6.7072 10.6234 6.78272 10.617 6.85824C10.6105 6.93702 10.5977 7.01514 10.5786 7.09184C10.5581 7.17056 10.535 7.25184 10.5107 7.3344L10.3251 7.95328C10.368 7.91168 10.4134 7.872 10.4608 7.83616C10.503 7.80416 10.5478 7.77536 10.5952 7.7504L10.9792 7.5488ZM11.4131 6.19456C11.5324 6.07184 11.6882 5.99101 11.8573 5.96416C11.9418 5.95072 12.0288 5.95392 12.112 5.97376C12.1997 5.99616 12.2822 6.03648 12.3539 6.09152C12.4362 6.15795 12.5032 6.24134 12.5504 6.336C12.6 6.42709 12.6309 6.52722 12.6411 6.63044C12.6513 6.73367 12.6407 6.8379 12.6099 6.93696C12.5756 7.0356 12.5228 7.12681 12.4544 7.20576C12.2949 7.38367 12.0769 7.49855 11.84 7.5296C11.735 7.5424 11.6288 7.53216 11.527 7.50144C11.4276 7.46907 11.3361 7.41632 11.2582 7.34656C11.1746 7.26999 11.1053 7.1792 11.0534 7.0784C10.9431 6.85063 10.9111 6.59277 10.9626 6.34496L11.0906 5.48672C11.0995 5.4432 11.1187 5.40288 11.1469 5.36832C11.1801 5.32568 11.2226 5.29111 11.271 5.2672L11.6614 5.06496L11.4374 6.0992L11.4125 6.19456H11.4131ZM11.9827 7.09056C12.0261 7.06809 12.0647 7.0372 12.096 6.99968C12.1254 6.96384 12.1472 6.92224 12.16 6.87744C12.1728 6.83264 12.1766 6.78528 12.1728 6.73856C12.1588 6.63379 12.1063 6.53797 12.0256 6.46976C11.9936 6.43776 11.9546 6.41216 11.9117 6.3968C11.8673 6.38371 11.8206 6.38022 11.7747 6.38656C11.677 6.4 11.587 6.44734 11.5206 6.52032C11.4924 6.5541 11.4719 6.59363 11.4605 6.63616C11.4483 6.68096 11.4464 6.72768 11.4534 6.77312C11.4598 6.82432 11.4771 6.87424 11.5021 6.91968C11.5264 6.96576 11.5571 7.00864 11.5936 7.04576C11.6243 7.0787 11.6623 7.10397 11.7045 7.11954C11.7468 7.1351 11.7921 7.14052 11.8368 7.13536C11.8894 7.1281 11.9401 7.11118 11.9866 7.08544L11.9834 7.09056H11.9827Z" fill="#1D4268"/>
</g>
<defs>
<clipPath id="clip0_0_4">
<rect width="16" height="16" fill="white"/>
</clipPath>
</defs>
</svg>
