<svg width="16" height="16" viewBox="0 0 16 16" fill="none" xmlns="http://www.w3.org/2000/svg">
<g id="Img" clip-path="url(#clip0_0_4)">
<path id="Vector" d="M9.57612 0.294528C9.57612 0.294528 7.58607 -0.119403 6.34428 0.119403C7.29154 0.358209 6.82189 0.732338 6.52736 0.78806C4.29055 1.39303 0.636816 3.27164 0.636816 6.85373C0.875622 6.36816 2.04577 6.24876 2.04577 6.24876C2.04577 6.24876 -2.06169 10.802 1.34527 15.9602C1.50902 15.0639 1.93792 14.2372 2.57652 13.5873C3.21512 12.9373 4.03404 12.4939 4.92736 12.3144C4.92736 12.3144 4.33831 12.6806 4.92736 13.4129C7.45871 16.3821 16.6846 15.2279 15.8567 12.0119C15.3871 13.2299 9.75124 14.6866 6.92537 11.1602C5.04677 8.42985 3.399 9.64776 2.99303 11.1602C2.99303 11.1602 2.5791 7.52239 5.34129 5.76318C6.10547 5.21393 5.22189 3.45473 4.57711 5.03085C3.75721 2.72239 6.45572 1.26567 9.56816 0.294528H9.57612Z" fill="#1D4268"/>
<path id="Vector_2" d="M6.53532 9.45672C6.08014 8.69009 5.88105 7.79837 5.96693 6.91094C6.05281 6.02351 6.4192 5.18652 7.01294 4.52139C7.01294 4.52139 6.31244 7.38706 8.73234 9.09851C11.598 11.1363 14.0338 9.41692 14.0338 9.41692C13.6571 10.0768 13.1135 10.626 12.4574 11.0092C11.8013 11.3925 11.0559 11.5964 10.2961 11.6004C9.53624 11.6045 8.78873 11.4085 8.12861 11.0322C7.46849 10.6559 6.919 10.1126 6.53532 9.45672Z" fill="#1D4268"/>
<path id="Vector_3" fill-rule="evenodd" clip-rule="evenodd" d="M12.7363 1.31343C11.6345 1.01759 10.4604 1.16852 9.46921 1.73342C8.47801 2.29833 7.7498 3.23156 7.44279 4.33035C7.15652 5.42703 7.31666 6.59246 7.88814 7.57128C8.45961 8.55009 9.39579 9.26244 10.4915 9.55224C11.5934 9.84808 12.7675 9.69715 13.7587 9.13225C14.7498 8.56734 15.4781 7.63411 15.7851 6.53532C16.0713 5.43865 15.9112 4.27321 15.3397 3.2944C14.7683 2.31558 13.8321 1.60323 12.7363 1.31343ZM14.9811 3.40697C14.7104 2.92935 11.8289 0.867662 9.84677 1.95025C10.7221 1.4688 11.7519 1.35172 12.713 1.6244C13.6741 1.89708 14.489 2.53754 14.9811 3.40697ZM12.9274 2.54726C14.193 3.02488 14.806 3.55821 15.1642 4.55323C14.6918 3.63135 13.8951 2.91682 12.9274 2.54726Z" fill="#1D4268"/>
</g>
<defs>
<clipPath id="clip0_0_4">
<rect width="16" height="16" fill="white"/>
</clipPath>
</defs>
</svg>
