<svg width="16" height="16" viewBox="0 0 16 16" fill="none" xmlns="http://www.w3.org/2000/svg">
<g id="Img" clip-path="url(#clip0_0_4)">
<path id="Vector" d="M8.904 0.856C8.904 0.856 7.096 0.48 5.984 0.696C6.832 0.912 6.408 1.256 6.144 1.304C4.12 1.864 0.824 3.6 0.824 6.88C1.04 6.44 2.104 6.32 2.104 6.32C2.104 6.32 -1.624 10.504 1.464 15.24C1.992 12.344 4.704 11.896 4.704 11.896C4.704 11.896 4.176 12.232 4.704 12.896C6.992 15.632 15.344 14.576 14.592 11.616C14.168 12.736 9.072 14.072 6.512 10.84C4.816 8.328 3.32 9.448 2.952 10.84C2.952 10.84 2.576 7.496 5.08 5.88C5.76 5.368 4.96 3.76 4.384 5.208C3.64 3.088 6.088 1.752 8.904 0.856Z" fill="#1D4268"/>
<path id="Vector_2" fill-rule="evenodd" clip-rule="evenodd" d="M10.8 11.28C12.1367 11.28 13.4186 10.749 14.3638 9.80382C15.309 8.85864 15.84 7.57669 15.84 6.24C15.84 4.90331 15.309 3.62137 14.3638 2.67618C13.4186 1.731 12.1367 1.2 10.8 1.2C9.46331 1.2 8.18137 1.731 7.23618 2.67618C6.291 3.62137 5.76 4.90331 5.76 6.24C5.76 7.57669 6.291 8.85864 7.23618 9.80382C8.18137 10.749 9.46331 11.28 10.8 11.28ZM10.224 5.736C10.0155 5.56686 9.84228 5.3583 9.71434 5.12222C9.58641 4.88615 9.50622 4.62719 9.47836 4.36013C9.4505 4.09307 9.47552 3.82314 9.55198 3.56574C9.62845 3.30835 9.75486 3.06854 9.924 2.86C10.0931 2.65146 10.3017 2.47828 10.5378 2.35034C10.7738 2.2224 11.0328 2.14222 11.2999 2.11436C11.5669 2.0865 11.8369 2.11152 12.0943 2.18798C12.3516 2.26445 12.5915 2.39086 12.8 2.56C13.2201 2.9016 13.4873 3.39609 13.5428 3.9347C13.5983 4.4733 13.4376 5.0119 13.096 5.432C12.7544 5.8521 12.2599 6.1193 11.7213 6.17481C11.1827 6.23032 10.6441 6.0696 10.224 5.728V5.736ZM11.248 5.368C11.64 5.688 12.168 5.536 12.6 5.008C13.032 4.48 13.064 3.928 12.68 3.608C12.5759 3.52005 12.4478 3.4654 12.3123 3.45114C12.1768 3.43688 12.0401 3.46365 11.92 3.528C11.952 3.288 11.88 3.088 11.688 2.928C11.328 2.632 10.832 2.768 10.44 3.248C10.056 3.728 10.016 4.24 10.384 4.544C10.568 4.696 10.784 4.728 11.008 4.648C10.944 4.928 11.024 5.184 11.248 5.368ZM11.312 3.968C11.472 3.768 11.48 3.56 11.32 3.432C11.16 3.296 10.952 3.352 10.792 3.544C10.632 3.736 10.632 3.944 10.792 4.08C10.952 4.208 11.152 4.16 11.312 3.968ZM11.64 4.232C11.448 4.472 11.44 4.712 11.624 4.864C11.808 5.016 12.048 4.96 12.24 4.72C12.44 4.48 12.448 4.24 12.264 4.08C12.08 3.936 11.84 3.992 11.64 4.24V4.232Z" fill="#1D4268"/>
</g>
<defs>
<clipPath id="clip0_0_4">
<rect width="16" height="16" fill="white"/>
</clipPath>
</defs>
</svg>
