<svg width="16" height="16" viewBox="0 0 16 16" fill="none" xmlns="http://www.w3.org/2000/svg">
<g id="Img" clip-path="url(#clip0_0_4)">
<path id="Vector" d="M9.624 0.256C9.624 0.256 7.624 -0.16 6.376 0.0800002C7.328 0.32 6.856 0.696 6.56 0.752C4.312 1.36 0.64 3.248 0.64 6.848C0.88 6.36 2.056 6.24 2.056 6.24C2.056 6.24 -2.072 10.816 1.352 16C1.51656 15.0992 1.94761 14.2684 2.5894 13.6152C3.2312 12.962 4.05421 12.5164 4.952 12.336C4.952 12.336 4.36 12.704 4.952 13.44C7.496 16.424 16.768 15.264 15.936 12.032C15.464 13.256 9.8 14.72 6.96 11.176C5.072 8.432 3.416 9.656 3.008 11.176C3.008 11.176 2.592 7.52 5.368 5.752C6.136 5.2 5.248 3.432 4.6 5.016C3.776 2.696 6.488 1.232 9.616 0.256H9.624Z" fill="#1D4268"/>
<path id="Vector_2" d="M9.896 1.736C8.98513 1.97416 8.16442 2.47494 7.536 3.176C8.01567 2.82063 8.5587 2.55997 9.136 2.408C10.1107 2.14976 11.1478 2.28523 12.0234 2.78516C12.8991 3.2851 13.5429 4.10938 13.816 5.08C14.0234 5.87766 13.9068 6.725 13.4916 7.43698C13.0764 8.14896 12.3964 8.66773 11.6 8.88C10.9413 9.05714 10.2394 8.96752 9.64636 8.63057C9.05333 8.29362 8.61701 7.7365 8.432 7.08C8.36087 6.80947 8.34377 6.52758 8.38168 6.25044C8.41959 5.97329 8.51177 5.70635 8.65295 5.46486C8.79412 5.22338 8.98152 5.0121 9.20443 4.84311C9.42733 4.67411 9.68137 4.55073 9.952 4.48C10.0516 4.45504 10.157 4.46937 10.2464 4.52C10.3358 4.57064 10.4022 4.65371 10.432 4.752C10.4543 4.85154 10.4378 4.95585 10.3857 5.04359C10.3337 5.13133 10.2501 5.19587 10.152 5.224C9.80457 5.31609 9.50772 5.54197 9.32633 5.85228C9.14494 6.16259 9.09377 6.53208 9.184 6.88C9.31304 7.3397 9.61792 7.73009 10.0327 7.96666C10.4474 8.20322 10.9386 8.26694 11.4 8.144C11.6983 8.06689 11.9783 7.93133 12.2238 7.74518C12.4694 7.55904 12.6755 7.32601 12.8303 7.0596C12.9851 6.7932 13.0854 6.49872 13.1255 6.19323C13.1657 5.88775 13.1447 5.57734 13.064 5.28C12.847 4.50649 12.3342 3.84952 11.6365 3.45126C10.9388 3.053 10.1124 2.94549 9.336 3.152C8.34493 3.41326 7.49787 4.05681 6.9805 4.94158C6.46314 5.82635 6.31767 6.88016 6.576 7.872C6.98013 9.02257 7.80369 9.97819 8.88199 10.5477C9.96029 11.1173 11.2139 11.2588 12.392 10.944C13.0001 10.7859 13.571 10.5091 14.0719 10.1296C14.5727 9.75007 14.9935 9.27531 15.3103 8.73259C15.627 8.18987 15.8333 7.5899 15.9173 6.96718C16.0014 6.34446 15.9615 5.71126 15.8 5.104C15.4577 3.87825 14.6457 2.83701 13.5403 2.20641C12.4349 1.57581 11.1253 1.40677 9.896 1.736Z" fill="#1D4268"/>
</g>
<defs>
<clipPath id="clip0_0_4">
<rect width="16" height="16" fill="white"/>
</clipPath>
</defs>
</svg>
