<svg width="16" height="16" viewBox="0 0 16 16" fill="none" xmlns="http://www.w3.org/2000/svg">
<g id="Img" clip-path="url(#clip0_0_4)">
<path id="Vector" d="M9.63333 0.766666C9.63333 0.766666 7.63333 0.333333 6.36667 0.566666C7.33333 0.8 6.86667 1.16667 6.56667 1.23333C4.3 1.8 0.633333 3.63333 0.633333 7.13333C0.9 6.66667 2.06667 6.53333 2.06667 6.53333C2.06667 6.53333 -2.06667 11 1.36667 16C1.93333 12.9333 4.96667 12.4667 4.96667 12.4667C4.96667 12.4667 4.36667 12.8 4.96667 13.5C7.5 16.4 16.7667 15.3 15.9667 12.1667C15.4667 13.3333 9.8 14.7667 6.96667 11.3333C5.06667 8.66667 3.43333 9.86667 3 11.3333C3 11.3333 2.6 7.76667 5.36667 6.06667C6.13333 5.53333 5.26667 3.83333 4.6 5.36667C3.76667 3.1 6.5 1.7 9.6 0.766666H9.63333Z" fill="#1D4268"/>
<path id="Vector_2" d="M6.86667 7.06667L6.63333 6.83333L7.06667 6.4L7.53333 6.86667L8.16667 6.6L7.83333 6.26667L8.16667 5.86667L8.66667 6.33333L9.16667 5.96667L8.73333 5.53333L9.16667 5.06667L9.6 5.53333L9.96667 5.03333L9.5 4.56667L9.9 4.13333L10.2667 4.46667L10.5333 3.86667L10.0667 3.4L10.5 2.96667L10.7333 3.2C10.7667 2.86667 10.8 2.6 10.7667 2.33333C9.52079 2.39024 8.34115 2.9107 7.45926 3.79259C6.57737 4.67448 6.0569 5.85412 6 7.1L6.86667 7.06667ZM15.9333 7.56667L15.1333 7.6L15.3333 7.83333L14.9333 8.23333L14.4667 7.76667L13.8333 8.03333L14.1667 8.36667L13.7667 8.8L13.3333 8.33333L12.8333 8.7L13.2667 9.13333L12.8333 9.56667L12.4 9.13333L12 9.66667L12.4667 10.1333L12.0667 10.5667L11.7 10.2333L11.4333 10.8333L11.9 11.3L11.5 11.7L11.2667 11.5C11.2333 11.8333 11.2 12.1 11.2333 12.3667C12.4847 12.3092 13.6689 11.784 14.5516 10.8951C15.4343 10.0063 15.9512 8.81842 16 7.56667H15.9333Z" fill="#1D4268"/>
<path id="Vector_3" d="M10.7667 10.9667L10.2333 10.4667L10.6333 10.0333L10.9667 10.3667L11.3 9.73333L10.7667 9.26667L11.2 8.86667L11.5333 9.23333L11.9667 8.73333L11.5333 8.3L11.9333 7.9L12.3667 8.33333L12.8667 7.93333L12.5 7.56667L12.9 7.13333L13.4 7.6L13.9667 7.36667H14L13.6667 7L14.1 6.56667L14.6333 7.13333C15.0812 7.03018 15.5406 6.98537 16 7C15.9225 5.79341 15.4104 4.65578 14.5585 3.79778C13.7066 2.93977 12.5727 2.41951 11.3667 2.33333C11.3667 2.8 11.3667 3.26667 11.2333 3.7L11.7667 4.2L11.3333 4.66667L11 4.33333L10.6667 4.96667L11.2 5.4L10.7333 5.83333L10.4 5.46667L10 5.96667L10.4 6.36667L10 6.76667L9.6 6.36667L9.1 6.76667L9.46667 7.1L9.03333 7.56667L8.56667 7.1L8 7.33333L8.26667 7.66667L7.86667 8.1L7.33333 7.56667C6.89626 7.66699 6.44828 7.71179 6 7.7C6.08525 8.90067 6.60077 10.0303 7.45191 10.8814C8.30305 11.7326 9.43267 12.2481 10.6333 12.3333C10.6333 11.8667 10.6333 11.4 10.7667 10.9667Z" fill="#1D4268"/>
</g>
<defs>
<clipPath id="clip0_0_4">
<rect width="16" height="16" fill="white"/>
</clipPath>
</defs>
</svg>
