<svg width="16" height="16" viewBox="0 0 16 16" fill="none" xmlns="http://www.w3.org/2000/svg">
<g id="Img" clip-path="url(#clip0_0_4)">
<path id="Vector" d="M9.624 0.256C9.624 0.256 7.624 -0.16 6.376 0.0800002C7.328 0.32 6.856 0.696 6.56 0.752C4.312 1.36 0.64 3.248 0.64 6.848C0.88 6.36 2.056 6.24 2.056 6.24C2.056 6.24 -2.072 10.816 1.352 16C1.51656 15.0992 1.94761 14.2684 2.5894 13.6152C3.2312 12.962 4.05421 12.5164 4.952 12.336C4.952 12.336 4.36 12.704 4.952 13.44C7.496 16.424 16.768 15.264 15.936 12.032C15.464 13.256 9.8 14.72 6.96 11.176C5.072 8.432 3.416 9.656 3.008 11.176C3.008 11.176 2.592 7.52 5.368 5.752C6.136 5.2 5.248 3.432 4.6 5.016C3.776 2.696 6.488 1.232 9.616 0.256H9.624Z" fill="#1D4268"/>
<path id="Vector_2" fill-rule="evenodd" clip-rule="evenodd" d="M11.216 11.28C13.856 11.28 15.984 9.176 15.984 6.568C15.984 3.968 13.848 1.848 11.216 1.848C8.576 1.848 6.44 3.968 6.44 6.568C6.44 9.176 8.576 11.288 11.216 11.288V11.28ZM14.336 6.776C14.3606 6.75529 14.3808 6.72984 14.3954 6.70116C14.41 6.67249 14.4186 6.64117 14.4209 6.60908C14.4231 6.57699 14.4189 6.54478 14.4084 6.51436C14.398 6.48394 14.3815 6.45593 14.36 6.432C14.3393 6.40739 14.3138 6.38719 14.2852 6.37261C14.2565 6.35803 14.2252 6.34937 14.1931 6.34713C14.161 6.34489 14.1288 6.34912 14.0984 6.35958C14.0679 6.37004 14.0399 6.3865 14.016 6.408C13.664 6.704 13.36 6.968 12.736 6.968C12.096 6.968 11.8 6.704 11.448 6.408C11.2394 6.1952 10.9905 6.02615 10.7157 5.91076C10.441 5.79537 10.146 5.73596 9.848 5.736C9.54981 5.7346 9.25441 5.79339 8.97948 5.90886C8.70456 6.02433 8.45576 6.1941 8.248 6.408C8.22282 6.42814 8.20195 6.45315 8.18665 6.48153C8.17134 6.50992 8.16192 6.54109 8.15893 6.5732C8.15594 6.60531 8.15946 6.63769 8.16926 6.66841C8.17907 6.69913 8.19496 6.72756 8.216 6.752C8.23671 6.77661 8.26216 6.79681 8.29084 6.81139C8.31951 6.82597 8.35083 6.83464 8.38292 6.83687C8.41501 6.83911 8.44722 6.83488 8.47764 6.82442C8.50806 6.81396 8.53607 6.7975 8.56 6.776C8.912 6.48 9.216 6.216 9.84 6.216C10.48 6.216 10.776 6.48 11.128 6.776C11.3366 6.9888 11.5855 7.15785 11.8603 7.27324C12.135 7.38863 12.43 7.44804 12.728 7.448C13.544 7.448 13.96 7.088 14.328 6.776H14.336ZM14.336 4.824C14.1274 5.0368 13.8785 5.20585 13.6037 5.32124C13.329 5.43663 13.034 5.49604 12.736 5.496C11.92 5.496 11.496 5.136 11.128 4.824C10.776 4.528 10.472 4.272 9.848 4.272C9.208 4.272 8.912 4.528 8.56 4.832C8.53556 4.85304 8.50713 4.86893 8.47641 4.87874C8.44569 4.88854 8.41331 4.89206 8.3812 4.88907C8.34909 4.88608 8.31792 4.87666 8.28953 4.86135C8.26115 4.84605 8.23614 4.82518 8.216 4.8C8.1945 4.77607 8.17804 4.74806 8.16758 4.71764C8.15712 4.68722 8.15289 4.65501 8.15513 4.62292C8.15737 4.59083 8.16603 4.55951 8.18061 4.53084C8.19519 4.50216 8.21539 4.47671 8.24 4.456C8.44856 4.24314 8.6975 4.07403 8.97224 3.95858C9.24698 3.84314 9.54199 3.78367 9.84 3.78367C10.138 3.78367 10.433 3.84314 10.7078 3.95858C10.9825 4.07403 11.2314 4.24314 11.44 4.456C11.8 4.752 12.096 5.016 12.728 5.016C13.368 5.016 13.664 4.752 14.008 4.456C14.0326 4.43367 14.0616 4.41669 14.0931 4.40614C14.1246 4.39559 14.1579 4.39169 14.191 4.3947C14.2241 4.39771 14.2562 4.40755 14.2853 4.42361C14.3144 4.43967 14.3398 4.4616 14.36 4.488C14.4009 4.53594 14.4213 4.59805 14.4169 4.66092C14.4124 4.72379 14.3833 4.78236 14.336 4.824ZM8.24 8.36C8.19268 8.40164 8.16364 8.46021 8.15915 8.52308C8.15466 8.58595 8.17508 8.64806 8.216 8.696C8.23614 8.72118 8.26115 8.74205 8.28953 8.75735C8.31792 8.77266 8.34909 8.78208 8.3812 8.78507C8.41331 8.78806 8.44569 8.78454 8.47641 8.77474C8.50713 8.76493 8.53556 8.74904 8.56 8.728C8.912 8.424 9.216 8.168 9.84 8.168C10.48 8.168 10.776 8.424 11.128 8.728C11.3366 8.94086 11.5855 9.10997 11.8602 9.22542C12.135 9.34086 12.43 9.40033 12.728 9.40033C13.026 9.40033 13.321 9.34086 13.5958 9.22542C13.8705 9.10997 14.1194 8.94086 14.328 8.728C14.3532 8.70786 14.3741 8.68285 14.3894 8.65447C14.4047 8.62608 14.4141 8.59491 14.4171 8.5628C14.4201 8.53069 14.4165 8.49831 14.4067 8.46759C14.3969 8.43687 14.381 8.40844 14.36 8.384C14.3393 8.35939 14.3138 8.33919 14.2852 8.32461C14.2565 8.31003 14.2252 8.30136 14.1931 8.29913C14.161 8.29689 14.1288 8.30112 14.0984 8.31158C14.0679 8.32204 14.0399 8.3385 14.016 8.36C13.664 8.656 13.36 8.912 12.736 8.912C12.096 8.912 11.8 8.656 11.448 8.352C11.2394 8.13914 10.9905 7.97003 10.7158 7.85458C10.441 7.73914 10.146 7.67967 9.848 7.67967C9.54999 7.67967 9.25498 7.73914 8.98024 7.85458C8.7055 7.97003 8.45656 8.13914 8.248 8.352L8.24 8.36Z" fill="#1D4268"/>
</g>
<defs>
<clipPath id="clip0_0_4">
<rect width="16" height="16" fill="white"/>
</clipPath>
</defs>
</svg>
