<svg width="16" height="16" viewBox="0 0 16 16" fill="none" xmlns="http://www.w3.org/2000/svg">
<g id="Img" clip-path="url(#clip0_0_4)">
<path id="Vector" d="M9.624 0.256C9.624 0.256 7.624 -0.16 6.376 0.0800002C7.328 0.32 6.856 0.696 6.56 0.752C4.312 1.36 0.64 3.248 0.64 6.848C0.88 6.36 2.056 6.24 2.056 6.24C2.056 6.24 -2.072 10.816 1.352 16C1.51656 15.0992 1.94761 14.2684 2.5894 13.6152C3.2312 12.962 4.05421 12.5164 4.952 12.336C4.952 12.336 4.36 12.704 4.952 13.44C7.496 16.424 16.768 15.264 15.936 12.032C15.464 13.256 9.8 14.72 6.96 11.176C5.072 8.432 3.416 9.656 3.008 11.176C3.008 11.176 2.592 7.52 5.368 5.752C6.136 5.2 5.248 3.432 4.6 5.016C3.776 2.696 6.488 1.232 9.616 0.256H9.624Z" fill="#1D4268"/>
<path id="Vector_2" fill-rule="evenodd" clip-rule="evenodd" d="M11.048 11.16C11.6927 11.1642 12.3319 11.0413 12.929 10.7982C13.5261 10.5552 14.0694 10.1967 14.5279 9.74348C14.9863 9.29023 15.3509 8.75102 15.6008 8.15672C15.8506 7.56242 15.9809 6.92468 15.984 6.28C15.9798 5.63599 15.8488 4.99912 15.5985 4.40574C15.3482 3.81236 14.9834 3.2741 14.5251 2.82169C14.0667 2.36928 13.5237 2.01158 12.9271 1.76902C12.3305 1.52646 11.692 1.40378 11.048 1.408C8.328 1.408 6.12 3.592 6.12 6.288C6.12 8.984 8.328 11.168 11.048 11.168V11.16ZM11.048 9.768C13 9.768 14.568 8.208 14.568 6.288C14.568 4.368 13.008 2.8 11.056 2.8C9.112 2.8 7.536 4.36 7.536 6.288C7.536 8.208 9.112 9.768 11.056 9.768H11.048Z" fill="#1D4268"/>
<path id="Vector_3" fill-rule="evenodd" clip-rule="evenodd" d="M11.048 8.376C11.3243 8.37811 11.5983 8.32577 11.8544 8.22198C12.1105 8.11819 12.3436 7.96497 12.5405 7.77108C12.7373 7.57719 12.8941 7.34643 13.0017 7.09196C13.1094 6.83749 13.1659 6.5643 13.168 6.288C13.1659 6.01102 13.1092 5.73717 13.001 5.48218C12.8928 5.22718 12.7353 4.99606 12.5376 4.80206C12.3399 4.60807 12.1058 4.45502 11.8488 4.3517C11.5918 4.24839 11.317 4.19683 11.04 4.2C10.4847 4.19785 9.95113 4.41529 9.55551 4.80492C9.15989 5.19455 8.93433 5.72477 8.928 6.28C8.92905 6.5563 8.98451 6.82969 9.09121 7.08456C9.19792 7.33943 9.35378 7.57078 9.5499 7.76541C9.74602 7.96005 9.97855 8.11414 10.2342 8.21891C10.4899 8.32367 10.7637 8.37705 11.04 8.376H11.048ZM11.048 6.632C11.248 6.632 11.4 6.48 11.4 6.288C11.4 6.096 11.24 5.936 11.048 5.936C10.856 5.936 10.696 6.096 10.696 6.288C10.696 6.48 10.856 6.632 11.048 6.632Z" fill="#1D4268"/>
</g>
<defs>
<clipPath id="clip0_0_4">
<rect width="16" height="16" fill="white"/>
</clipPath>
</defs>
</svg>
