<svg width="16" height="16" viewBox="0 0 16 16" fill="none" xmlns="http://www.w3.org/2000/svg">
<g id="Img" clip-path="url(#clip0_0_4)">
<path id="Vector" d="M9.624 0.256C9.624 0.256 7.624 -0.16 6.376 0.0800002C7.328 0.32 6.856 0.696 6.56 0.752C4.312 1.36 0.64 3.248 0.64 6.848C0.88 6.36 2.056 6.24 2.056 6.24C2.056 6.24 -2.072 10.816 1.352 16C1.51656 15.0992 1.94761 14.2684 2.5894 13.6152C3.2312 12.962 4.05421 12.5164 4.952 12.336C4.952 12.336 4.36 12.704 4.952 13.44C7.496 16.424 16.768 15.264 15.936 12.032C15.464 13.256 9.8 14.72 6.96 11.176C5.072 8.432 3.416 9.656 3.008 11.176C3.008 11.176 2.592 7.52 5.368 5.752C6.136 5.2 5.248 3.432 4.6 5.016C3.776 2.696 6.488 1.232 9.616 0.256H9.624Z" fill="#1D4268"/>
<path id="Vector_2" fill-rule="evenodd" clip-rule="evenodd" d="M11.736 1.952C10.5563 1.78194 9.35718 2.08385 8.39869 2.79224C7.44019 3.50063 6.79964 4.55837 6.616 5.736C6.45643 6.91418 6.77003 8.10759 7.48818 9.05513C8.20632 10.0027 9.27055 10.6272 10.448 10.792C11.6289 10.9619 12.8291 10.6589 13.7878 9.94886C14.7465 9.23881 15.3862 8.17909 15.568 7C15.7276 5.82182 15.414 4.62841 14.6958 3.68087C13.9777 2.73334 12.9135 2.10883 11.736 1.944V1.952ZM15.304 6.104H14.72C14.6565 5.23543 14.2817 4.41894 13.6644 3.8046C13.0471 3.19026 12.2289 2.81934 11.36 2.76V2.2C11.36 2.048 11.24 1.936 11.088 1.936C11.0207 1.93801 10.9568 1.96563 10.9092 2.01321C10.8616 2.06079 10.834 2.12474 10.832 2.192V2.76C9.96313 2.81934 9.14487 3.19026 8.52759 3.8046C7.91031 4.41894 7.53549 5.23543 7.472 6.104H6.872C6.80198 6.104 6.73483 6.13181 6.68532 6.18132C6.63581 6.23083 6.608 6.29798 6.608 6.368C6.608 6.512 6.72 6.624 6.872 6.624H7.472C7.5439 7.48162 7.91933 8.28547 8.53081 8.89109C9.14229 9.4967 9.94973 9.86437 10.808 9.928V10.544C10.808 10.688 10.928 10.8 11.072 10.8C11.216 10.8 11.336 10.688 11.336 10.544V9.92C12.2015 9.86763 13.0194 9.50597 13.6406 8.90096C14.2618 8.29594 14.6448 7.48786 14.72 6.624H15.32C15.464 6.624 15.584 6.512 15.584 6.368C15.584 6.224 15.464 6.104 15.32 6.104H15.304ZM13.064 6.624H14.184C14.1124 7.35021 13.7866 8.02779 13.264 8.53716C12.7415 9.04653 12.0558 9.35495 11.328 9.408V8.344C11.328 8.2 11.208 8.088 11.064 8.088C10.9953 8.08797 10.9294 8.11468 10.8801 8.16247C10.8308 8.21027 10.8021 8.27538 10.8 8.344V9.408C10.0822 9.34246 9.40973 9.02851 8.89859 8.52029C8.38745 8.01207 8.06965 7.34143 8 6.624H9.112C9.256 6.624 9.368 6.512 9.368 6.368C9.368 6.224 9.256 6.104 9.112 6.104H7.992C8.05594 5.37458 8.37633 4.69144 8.89628 4.17588C9.41622 3.66033 10.1021 3.34575 10.832 3.288V4.424C10.832 4.49296 10.8594 4.55909 10.9082 4.60785C10.9569 4.65661 11.023 4.684 11.092 4.684C11.161 4.684 11.2271 4.65661 11.2758 4.60785C11.3246 4.55909 11.352 4.49296 11.352 4.424V3.288C12.0819 3.34575 12.7678 3.66033 13.2877 4.17588C13.8077 4.69144 14.1281 5.37458 14.192 6.104H13.072C13.002 6.104 12.9348 6.13181 12.8853 6.18132C12.8358 6.23083 12.808 6.29798 12.808 6.368C12.808 6.512 12.928 6.624 13.072 6.624H13.064ZM11.064 4.976C10.28 4.976 9.64 5.6 9.64 6.376C9.64 7.152 10.28 7.784 11.064 7.784C11.848 7.784 12.488 7.152 12.488 6.376C12.488 5.6 11.848 4.976 11.064 4.976ZM11.064 7.264C10.568 7.264 10.168 6.864 10.168 6.384C10.168 5.888 10.568 5.496 11.064 5.496C11.56 5.496 11.96 5.896 11.96 6.376C11.96 6.864 11.56 7.264 11.064 7.264ZM11.32 6.328C11.334 6.38762 11.3255 6.45031 11.296 6.504C11.2719 6.54782 11.2358 6.58388 11.192 6.608C11.1377 6.63547 11.0757 6.64392 11.016 6.632C10.9994 6.62864 10.9833 6.62327 10.968 6.616C10.9356 6.60269 10.9058 6.58373 10.88 6.56C10.8678 6.54798 10.857 6.53456 10.848 6.52C10.8341 6.50045 10.8233 6.47886 10.816 6.456C10.8069 6.43023 10.8015 6.40329 10.8 6.376C10.8006 6.32416 10.8173 6.2738 10.848 6.232C10.857 6.21744 10.8678 6.20402 10.88 6.192C10.8991 6.17537 10.9207 6.16187 10.944 6.152C10.9591 6.14223 10.9752 6.13418 10.992 6.128C11.0078 6.12405 11.0238 6.12138 11.04 6.12C11.0928 6.11467 11.1459 6.12585 11.192 6.152C11.2301 6.17033 11.2631 6.19781 11.288 6.232C11.3046 6.26172 11.3154 6.29428 11.32 6.328Z" fill="#1D4268"/>
</g>
<defs>
<clipPath id="clip0_0_4">
<rect width="16" height="16" fill="white"/>
</clipPath>
</defs>
</svg>
