<svg width="16" height="16" viewBox="0 0 16 16" fill="none" xmlns="http://www.w3.org/2000/svg">
<g id="Img" clip-path="url(#clip0_0_4)">
<path id="Vector" d="M9.05 0.75C9.05 0.75 7.15 0.35 6 0.5C6.9 0.75 6.45 1.05 6.15 1.15C4.05 1.65 0.65 3.4 0.65 6.65C0.85 6.25 1.95 6.15 1.95 6.15C1.95 6.15 -2 10.3 1.3 15C1.8 12.1 4.65 11.65 4.65 11.65C4.65 11.65 4.15 12 4.65 12.65C7.05 15.5 15.75 14.4 15 11.5C14.5 12.5 9.2 13.9 6.5 10.65C4.7 8.15 3.15 9.3 2.8 10.65C2.8 10.65 2.4 7.35 5 5.75C5.7 5.25 4.9 3.6 4.3 5.05C3.5 3 6.1 1.65 9 0.75H9.05Z" fill="#1D4268"/>
<path id="Vector_2" d="M9.35 4.3C10.1104 3.64846 11.0383 3.22338 12.0283 3.07311C13.0183 2.92285 14.0306 3.05343 14.95 3.45C14.251 2.54889 13.265 1.9138 12.1555 1.65006C11.046 1.38633 9.87969 1.5098 8.85 2V2.15C8.85 2.9 9 3.65 9.35 4.3Z" fill="#1D4268"/>
<path id="Vector_3" d="M9.7 4.85C10.05 5.35 10.5 5.8 11 6.15C11.7 5.75 12.5 5.55 13.3 5.5L13.55 5.45V5.5C14.45 5.5 15.25 5.75 16 6.1C15.9418 5.49099 15.7723 4.89783 15.5 4.35V4.45L15.2 4.3C14.345 3.79122 13.3494 3.57009 12.3594 3.66909C11.3694 3.76808 10.4373 4.182 9.7 4.85ZM13.1 6.2C12.5 6.2 11.9 6.4 11.35 6.7C11.3267 7.50221 11.1216 8.28865 10.75 9L10.65 9.25H10.6C10.1615 9.96209 9.56209 10.5615 8.85 11C9.35 11.3 10 11.45 10.6 11.5V11.4L10.85 11.25C11.7161 10.7598 12.402 10.0047 12.807 9.09569C13.212 8.18668 13.3147 7.17172 13.1 6.2Z" fill="#1D4268"/>
<path id="Vector_4" d="M15.85 6.8C15.2068 6.43788 14.4874 6.23233 13.75 6.2C13.9307 7.17917 13.8345 8.18933 13.4724 9.11683C13.1102 10.0443 12.4964 10.8524 11.7 11.45C12.8276 11.2943 13.8684 10.7586 14.6502 9.93126C15.4321 9.10394 15.9082 8.03461 16 6.9L15.85 6.8ZM7 4C6.98589 4.99981 7.29444 5.97754 7.87988 6.78814C8.46532 7.59875 9.29645 8.19905 10.25 8.5C10.5 7.9 10.65 7.3 10.65 6.7C9.97987 6.26376 9.41605 5.68285 9 5L8.8 4.8L8.85 4.7C8.44786 3.96215 8.22518 3.13995 8.2 2.3C7.7 2.65 7.2 3.1 6.9 3.6H7V4Z" fill="#1D4268"/>
<path id="Vector_5" d="M9.9 9.05C8.95878 8.70986 8.13184 8.11254 7.51314 7.3259C6.89444 6.53927 6.50878 5.59486 6.4 4.6C5.97166 5.65555 5.9166 6.82572 6.24393 7.91682C6.57127 9.00792 7.26136 9.95455 8.2 10.6H8.35C8.98161 10.2127 9.51272 9.68161 9.9 9.05Z" fill="#1D4268"/>
</g>
<defs>
<clipPath id="clip0_0_4">
<rect width="16" height="16" fill="white"/>
</clipPath>
</defs>
</svg>
