<svg width="16" height="16" viewBox="0 0 16 16" fill="none" xmlns="http://www.w3.org/2000/svg">
<g id="Img" clip-path="url(#clip0_0_4)">
<path id="Vector" d="M9.6 0.256C9.6 0.256 7.616 -0.192 6.4 0.0639996C7.296 0.32 6.848 0.704 6.528 0.768C4.288 1.344 0.64 3.264 0.64 6.848C0.896 6.336 2.048 6.208 2.048 6.208C2.048 6.208 -2.048 10.816 1.344 16C1.92 12.8 4.992 12.352 4.992 12.352C4.992 12.352 4.352 12.736 4.992 13.44C7.488 16.448 16.768 15.296 15.936 12.032C15.488 13.248 9.792 14.72 6.976 11.2C5.056 8.448 3.456 9.664 3.008 11.2C3.008 11.2 2.624 7.488 5.376 5.76C6.144 5.184 5.248 3.456 4.608 4.992C3.776 2.688 6.528 1.216 9.6 0.256Z" fill="#1D4268"/>
<path id="Vector_2" fill-rule="evenodd" clip-rule="evenodd" d="M10.944 11.904C13.696 11.904 16 9.664 16 6.912C16 4.16 13.696 1.92 10.944 1.92C8.128 1.92 5.888 4.16 5.888 6.912C5.888 9.664 8.128 11.904 10.944 11.904ZM11.456 3.968V3.648L11.072 3.264C11.008 3.2 10.88 3.136 10.816 3.264L10.048 3.904L10.752 4.544L11.456 3.968ZM11.776 5.44L12.352 4.928C12.416 4.864 12.48 4.736 12.352 4.672L12.032 4.288C11.968 4.16 11.776 4.16 11.712 4.224L11.072 4.8L11.776 5.44ZM11.968 6.72L11.648 6.464C11.52 6.4 11.52 6.208 11.648 6.144L12.672 5.248H12.928L13.248 5.568C13.312 5.696 13.312 5.824 13.184 5.888L12.224 6.72H11.968ZM14.08 6.528L13.824 6.208H13.504L12.608 6.976V7.296L12.928 7.552H13.248L14.08 6.848V6.528ZM12.928 8L13.44 7.936L13.248 8.512C13.184 8.896 12.864 9.216 12.48 9.344L12.288 9.408L12.16 9.536L11.904 10.624L11.648 10.816L8.512 9.984C8.384 9.92 8.32 9.792 8.384 9.664L9.152 8.256V8.064L8.192 5.696L8.256 5.44L9.6 4.288H9.856L11.328 5.568V5.888L11.136 6.016L10.944 6.08L9.664 5.696C9.536 5.696 9.408 5.76 9.344 5.888C9.344 6.016 9.408 6.08 9.536 6.144L10.432 6.336L10.88 8.512C10.88 8.576 11.008 8.704 11.072 8.64C11.2 8.64 11.264 8.512 11.264 8.384L10.88 6.464L11.008 6.528L12.672 7.872L12.928 8Z" fill="#1D4268"/>
</g>
<defs>
<clipPath id="clip0_0_4">
<rect width="16" height="16" fill="white"/>
</clipPath>
</defs>
</svg>
