<svg width="128" height="60" viewBox="0 0 128 60" fill="none" xmlns="http://www.w3.org/2000/svg">
<path d="M118.975 48.9537C118.597 48.9537 118.254 48.9366 117.945 48.9023L117.894 48.9366C117.939 49.2571 117.974 49.6062 117.996 49.9841C118.008 50.3618 118.008 50.7111 117.996 51.0315H115.764L115.747 46.5497H121.585C121.826 47.0763 122.015 47.6773 122.152 48.3527C122.278 49.0167 122.341 49.8638 122.341 50.8942C122.341 52.2679 122.158 53.3441 121.792 54.1225C121.414 54.901 120.813 55.4504 119.988 55.771C119.153 56.0915 118.042 56.2518 116.657 56.2518C115.535 56.2518 114.614 56.1258 113.892 55.8741C113.171 55.6107 112.616 55.233 112.227 54.7407C111.826 54.237 111.551 53.6246 111.402 52.9032C111.242 52.1821 111.162 51.3578 111.162 50.4305C111.162 49.881 111.185 49.3316 111.231 48.782C111.276 48.2211 111.362 47.6658 111.488 47.1164H113.755L113.789 47.1679C113.675 47.6486 113.595 48.1294 113.549 48.6102C113.503 49.0796 113.48 49.5548 113.48 50.0355C113.48 50.7339 113.555 51.3464 113.703 51.873C113.841 52.3881 114.133 52.7889 114.579 53.0749C115.026 53.3612 115.718 53.5042 116.657 53.5042C117.584 53.5042 118.294 53.43 118.786 53.2811C119.267 53.1208 119.599 52.8288 119.782 52.4053C119.954 51.9702 120.04 51.352 120.04 50.5508V50.07C120.029 49.8523 120.017 49.6349 120.006 49.4174C119.994 49.1998 119.977 49.0453 119.954 48.9537H118.975ZM122.135 34.6964H122.187V37.6155C121.912 37.6957 121.597 37.793 121.242 37.9075C120.887 38.0105 120.509 38.125 120.109 38.251V41.96C120.91 42.1891 121.603 42.4007 122.187 42.5955V45.5146H122.152L111.317 41.9943V38.2167L122.135 34.6964ZM113.274 40.1398C113.858 40.2543 114.568 40.4202 115.404 40.6379C116.239 40.8553 117.092 41.0842 117.962 41.3247V38.869C117.092 39.121 116.239 39.3557 115.404 39.5731C114.568 39.7907 113.858 39.9567 113.274 40.0712V40.1398ZM121.637 28.5248C121.019 28.7196 120.361 28.9198 119.662 29.126C118.964 29.3206 118.271 29.5152 117.584 29.7097C116.898 29.9043 116.256 30.0818 115.661 30.2421C115.066 30.4024 114.551 30.5398 114.116 30.6542C113.681 30.7687 113.372 30.8487 113.188 30.8947L113.206 30.9633C113.412 30.929 113.686 30.9003 114.03 30.8774C114.362 30.8546 114.717 30.8373 115.094 30.8259C115.461 30.8144 115.799 30.8088 116.108 30.8088H122.187V33.436H111.317V28.8339C111.923 28.6737 112.564 28.5078 113.24 28.336C113.904 28.1529 114.568 27.9754 115.232 27.8037C115.884 27.6205 116.508 27.4602 117.104 27.3228C117.687 27.1854 118.197 27.0881 118.632 27.031V26.9967C118.197 26.9393 117.687 26.8478 117.104 26.7218C116.52 26.5844 115.896 26.43 115.232 26.2583C114.568 26.0865 113.904 25.909 113.24 25.7259C112.564 25.5427 111.923 25.3767 111.317 25.2278V20.6945H122.187V23.2874H116.108C115.799 23.2874 115.461 23.2818 115.094 23.2704C114.717 23.2587 114.362 23.2417 114.03 23.2188C113.686 23.1845 113.412 23.1558 113.206 23.1329L113.188 23.2016C113.372 23.2473 113.681 23.3275 114.116 23.4421C114.551 23.5564 115.072 23.6996 115.678 23.8713C116.274 24.0316 116.915 24.209 117.602 24.4036C118.288 24.5983 118.981 24.7985 119.679 25.0047C120.366 25.1993 121.019 25.3881 121.637 25.5712V28.5248ZM122.187 18.5796H111.317V10.5087H113.549V15.832H115.61V11.2128H117.842V15.832H119.954V10.5087H122.187V18.5796ZM119.387 9.41306C119.559 8.90934 119.697 8.35984 119.8 7.76455C119.891 7.1578 119.937 6.55679 119.937 5.9615C119.937 5.1487 119.903 4.54767 119.834 4.15845C119.754 3.75776 119.634 3.49445 119.473 3.36854C119.313 3.2426 119.107 3.17964 118.855 3.17964C118.638 3.17964 118.466 3.22543 118.34 3.31702C118.214 3.4086 118.117 3.58604 118.048 3.84935C117.968 4.11265 117.905 4.50187 117.859 5.01704L117.756 6.15038C117.676 6.99754 117.499 7.66724 117.224 8.1595C116.949 8.64031 116.583 8.98376 116.125 9.18981C115.655 9.38443 115.094 9.48174 114.442 9.48174C113.663 9.48174 113.034 9.3272 112.553 9.0181C112.072 8.69756 111.723 8.18239 111.506 7.47262C111.276 6.76284 111.162 5.81839 111.162 4.63926C111.162 3.10523 111.362 1.84023 111.763 0.844254L114.098 0.895771L114.167 0.947287C113.766 2.08064 113.566 3.26549 113.566 4.50187C113.566 5.09717 113.601 5.55509 113.669 5.87564C113.726 6.19618 113.824 6.41942 113.961 6.54534C114.098 6.67127 114.293 6.73424 114.545 6.73424C114.797 6.73424 114.986 6.69416 115.112 6.61402C115.237 6.52245 115.335 6.345 115.404 6.0817C115.461 5.81839 115.518 5.43489 115.575 4.93117L115.695 3.84935C115.799 2.9335 115.982 2.22946 116.245 1.7372C116.508 1.24493 116.863 0.907219 117.31 0.724052C117.745 0.529437 118.277 0.432129 118.907 0.432129C119.674 0.432129 120.315 0.598123 120.83 0.930114C121.334 1.25065 121.711 1.77726 121.963 2.50994C122.215 3.2426 122.341 4.2214 122.341 5.44634C122.341 6.24769 122.301 6.96892 122.221 7.61C122.129 8.25109 122.009 8.87499 121.86 9.48174H119.439L119.387 9.41306Z" fill="black"/>
<path d="M8.93937 6.77839C8.93937 5.03138 10.3556 3.61515 12.1026 3.61515H100.222C101.969 3.61515 103.385 5.03138 103.385 6.77839V49.7082C103.385 51.4553 101.969 52.8714 100.222 52.8714H83.6995V56.4867H100.222C103.965 56.4867 107 53.4519 107 49.7082V6.77839C107 3.03479 103.965 0 100.222 0H12.1026C8.35901 0 5.32422 3.03479 5.32422 6.77839V49.7082C5.32422 53.4519 8.35901 56.4867 12.1026 56.4867H28.6249V52.8714H12.1026C10.3556 52.8714 8.93937 51.4553 8.93937 49.7082V6.77839Z" fill="black"/>
<path fill-rule="evenodd" clip-rule="evenodd" d="M39.8426 13.2598H17.9219V42.431H27.3694V33.9056H39.8426C44.0854 33.9056 47.5247 30.4662 47.5247 26.2234V20.9419C47.5247 16.6992 44.0854 13.2598 39.8426 13.2598ZM27.3694 27.2686V19.8521H36.9231C38.4207 19.8521 39.6346 21.0661 39.6346 22.5636V24.5572C39.6346 26.0547 38.4207 27.2686 36.9231 27.2686H27.3694Z" fill="black"/>
<path d="M60.8499 13.2598H51.4023V42.431H60.8499V13.2598Z" fill="black"/>
<path d="M65.6844 13.2598H74.9719L79.8112 22.2341L84.5017 13.2598H93.6963L85.2089 27.3878L94.4966 42.431H85.0228L79.6438 33.0588L74.2461 42.431H64.8281L74.2461 27.2285L65.6844 13.2598Z" fill="black"/>
<path d="M30.9629 50.5328V59.7748H34.3441V52.787L36.7065 58.6459C36.9816 59.3281 37.6434 59.7748 38.379 59.7748H38.6124C39.3664 59.7748 40.0408 59.3056 40.303 58.5987L42.459 52.787V59.7748H45.8402V50.5328C45.8402 49.5368 45.0329 48.7295 44.0369 48.7295H42.3825C41.6179 48.7295 40.9363 49.2116 40.6819 49.9326L38.4016 56.3936L36.0181 49.9106C35.7573 49.201 35.0815 48.7295 34.3255 48.7295H32.7662C31.7702 48.7295 30.9629 49.5368 30.9629 50.5328Z" fill="black"/>
<path fill-rule="evenodd" clip-rule="evenodd" d="M51.0254 48.7295C48.909 48.7295 47.1934 50.4451 47.1934 52.5615V56.1682C47.1934 58.2846 48.909 60.0002 51.0254 60.0002H55.3083C57.4247 60.0002 59.1403 58.2846 59.1403 56.1682V52.5615C59.1403 50.4451 57.4247 48.7295 55.3083 48.7295H51.0254ZM52.6033 51.4345C51.6073 51.4345 50.8 52.2418 50.8 53.2378V55.4919C50.8 56.4879 51.6073 57.2952 52.6033 57.2952H53.7304C54.7263 57.2952 55.5337 56.4879 55.5337 55.4919V53.2378C55.5337 52.2418 54.7263 51.4345 53.7304 51.4345H52.6033Z" fill="black"/>
<path d="M62.6421 48.7295H59.0273L62.8489 58.8123C63.1199 59.5273 63.805 60.0002 64.5697 60.0002H65.9837C66.7426 60.0002 67.4237 59.5343 67.6987 58.8269L71.624 48.7295H67.8997L65.271 56.7799L62.6421 48.7295Z" fill="black"/>
<path d="M81.4565 51.6599V48.7295H73.567C72.571 48.7295 71.7637 49.5368 71.7637 50.5328V57.9715C71.7637 58.9674 72.571 59.7748 73.567 59.7748H81.4565V57.0698H75.8211C75.5722 57.0698 75.3703 56.8679 75.3703 56.619V55.4919H81.2311V53.0124H75.3703V52.1107C75.3703 51.8618 75.5722 51.6599 75.8211 51.6599H81.4565Z" fill="black"/>
</svg>
