<svg width="128" height="60" viewBox="0 0 128 60" fill="none" xmlns="http://www.w3.org/2000/svg">
<path fill-rule="evenodd" clip-rule="evenodd" d="M44.9084 33.371V30.9786H39.326V21.4087H36.9336V31.7761C36.9336 32.8447 37.4599 33.371 38.5286 33.371H44.9084Z" fill="black"/>
<path d="M48.8964 21.4087H46.5039V33.371H48.8964V21.4087Z" fill="black"/>
<path fill-rule="evenodd" clip-rule="evenodd" d="M69.6155 33.371V30.9786H64.0331V28.5861H66.4256L67.2231 26.1937H64.0331V23.8012H69.6155V21.4087H63.2357C62.167 21.4087 61.6406 21.9351 61.6406 23.0037V31.7761C61.6406 32.8447 62.167 33.371 63.2357 33.371H69.6155Z" fill="black"/>
<path fill-rule="evenodd" clip-rule="evenodd" d="M55.6739 30.9148L52.8827 21.4087H50.4902L53.9992 33.371H57.3327L60.8416 21.4087H58.4492L55.6739 30.9148Z" fill="black"/>
<path fill-rule="evenodd" clip-rule="evenodd" d="M107.096 33.371V23.0037C107.096 21.9351 106.57 21.4087 105.501 21.4087H95.134C94.0654 21.4087 93.5391 21.9351 93.5391 23.0037V33.371H95.9315V23.8012H99.1215V33.371H101.514V23.8012H104.704V33.371H107.096Z" fill="black"/>
<path fill-rule="evenodd" clip-rule="evenodd" d="M108.66 23.0037V31.7761C108.66 32.8447 109.187 33.371 110.255 33.371H116.635V30.9786H111.053V28.5861H113.445L114.243 26.1937H111.053V23.8012H116.635V21.4087H110.255C109.187 21.4087 108.66 21.9351 108.66 23.0037Z" fill="black"/>
<path fill-rule="evenodd" clip-rule="evenodd" d="M90.3499 21.4087H83.97C82.9014 21.4087 82.375 21.9351 82.375 23.0037V33.371H84.7675V30.1811H89.5524V33.371H91.9449V23.0037C91.9449 21.9351 91.4185 21.4087 90.3499 21.4087ZM89.5524 27.7886H84.7675V23.8012H89.5524V27.7886Z" fill="black"/>
<path fill-rule="evenodd" clip-rule="evenodd" d="M71.209 23.0037V31.7761C71.209 32.8447 71.7354 33.371 72.804 33.371H79.1839C80.2525 33.371 80.7789 32.8447 80.7789 31.7761V27.7886C80.7789 26.72 80.2525 26.1937 79.1839 26.1937H76.0099L75.2124 28.5861H78.3864V30.9786H73.6014V23.8012H80.7789V21.4087H72.804C71.7354 21.4087 71.209 21.9351 71.209 23.0037Z" fill="black"/>
<path fill-rule="evenodd" clip-rule="evenodd" d="M126.205 26.1777H120.623V23.7852H127.003L127.8 21.4087H119.825C118.757 21.4087 118.23 21.9351 118.23 23.0037V26.9911C118.23 28.0438 118.757 28.5702 119.825 28.5702H125.408V30.9626H118.23V33.3392H126.205C127.274 33.3392 127.8 32.8128 127.8 31.7441V27.7567C127.8 26.704 127.274 26.1777 126.205 26.1777Z" fill="black"/>
<path fill-rule="evenodd" clip-rule="evenodd" d="M37.6836 38.8262H38.3375V37.311H40.2196V36.7208H38.3375V35.7H40.4589V35.1099H37.6836V38.8262Z" fill="black"/>
<path fill-rule="evenodd" clip-rule="evenodd" d="M108.324 36.8803L107.192 35.1099H106.49L106.506 38.8262H107.144V36.1625L108.308 37.9171H108.324L109.505 36.1625V38.8421H110.159V35.1099H109.457L108.324 36.8803Z" fill="black"/>
<path fill-rule="evenodd" clip-rule="evenodd" d="M125.886 37.3267H126.843V38.0126C126.732 38.1083 126.588 38.1721 126.445 38.2199C126.285 38.2678 126.126 38.2997 125.95 38.2997C125.759 38.3156 125.583 38.2678 125.424 38.204C125.28 38.1401 125.137 38.0444 125.025 37.9328C124.913 37.8212 124.834 37.6776 124.77 37.5181C124.706 37.3586 124.674 37.1672 124.674 36.9918V36.9758C124.674 36.8004 124.706 36.6249 124.77 36.4655C124.834 36.3219 124.913 36.1783 125.025 36.0507C125.137 35.9232 125.264 35.8275 125.408 35.7636C125.551 35.6839 125.727 35.652 125.886 35.652C125.998 35.652 126.094 35.6679 126.205 35.6839C126.301 35.6998 126.397 35.7318 126.476 35.7636C126.556 35.7955 126.636 35.8434 126.716 35.8912C126.795 35.9391 126.875 35.9869 126.939 36.0507L127.354 35.5563C127.258 35.4766 127.162 35.3968 127.051 35.333C126.955 35.2692 126.843 35.2213 126.732 35.1735C126.62 35.1257 126.492 35.0938 126.365 35.0778C126.221 35.0618 126.062 35.0459 125.918 35.0459C125.647 35.0459 125.376 35.0938 125.137 35.2054C124.674 35.3968 124.323 35.7796 124.132 36.2421C124.036 36.4655 123.988 36.7206 123.988 36.9758V36.9918C123.988 37.2629 124.036 37.5181 124.132 37.7574C124.307 38.2199 124.674 38.5867 125.137 38.7622C125.392 38.8579 125.663 38.9058 125.934 38.9058C126.094 38.9058 126.253 38.8898 126.381 38.8579C126.652 38.7941 126.923 38.6984 127.162 38.5389C127.258 38.4751 127.37 38.3953 127.465 38.3156V36.7525H125.886V37.3267Z" fill="black"/>
<path d="M114.195 35.1099H113.541V38.8421H114.195V35.1099Z" fill="black"/>
<path fill-rule="evenodd" clip-rule="evenodd" d="M46.0399 37.2469C46.0399 37.5978 45.9442 37.853 45.7847 38.0285C45.6093 38.204 45.3541 38.2997 45.0989 38.2837C44.8437 38.2997 44.5885 38.204 44.4131 38.0126C44.2376 37.8212 44.1578 37.566 44.1578 37.2151V35.0938H43.5039V37.2469C43.5039 37.5021 43.5358 37.7414 43.6155 37.9647C43.6794 38.1561 43.791 38.3315 43.9346 38.4751C44.0621 38.6187 44.2376 38.7303 44.429 38.7941C44.6364 38.8738 44.8597 38.9058 45.0829 38.9058C45.3063 38.9058 45.5295 38.8579 45.7528 38.7781C45.9442 38.7144 46.1197 38.6027 46.2632 38.4592C46.4068 38.3156 46.5184 38.1242 46.5822 37.9328C46.662 37.6935 46.6938 37.4543 46.6938 37.1991V35.0938H46.0399V37.2469Z" fill="black"/>
<path fill-rule="evenodd" clip-rule="evenodd" d="M120.176 37.6937L118.182 35.1099H117.576V38.8421H118.214V36.1945L120.272 38.8421H120.814V35.1099H120.176V37.6937Z" fill="black"/>
<path fill-rule="evenodd" clip-rule="evenodd" d="M64.7186 37.2631C64.8303 37.1993 64.926 37.1196 65.0057 37.0239C65.0855 36.9282 65.1493 36.8165 65.1971 36.7048C65.245 36.5773 65.2609 36.4337 65.2609 36.2902V36.2742C65.2609 36.1307 65.2291 35.9712 65.1812 35.8276C65.1334 35.7 65.0536 35.5724 64.9579 35.4767C64.8303 35.3651 64.6708 35.2693 64.5113 35.2056C64.3199 35.1418 64.0966 35.1099 63.8893 35.1099H62.2305V38.8262H62.8845V37.5183H63.6819L64.5911 38.8262H65.3566L64.3518 37.4067C64.4794 37.3748 64.607 37.3269 64.7186 37.2631ZM62.8685 36.9441V35.6841H63.8254C64.0328 35.6681 64.2402 35.7319 64.3997 35.8436C64.5432 35.9552 64.623 36.1307 64.607 36.3061V36.3221C64.623 36.4975 64.5432 36.673 64.3997 36.7846C64.2402 36.9122 64.0488 36.976 63.8414 36.9601L62.8685 36.9441Z" fill="black"/>
<path d="M89.9664 35.1099H89.3125V38.8421H89.9664V35.1099Z" fill="black"/>
<path fill-rule="evenodd" clip-rule="evenodd" d="M69.1048 37.2471H70.9709V36.657H69.1048V35.7H71.2261V35.1099H68.4668V38.8421H71.2421V38.252H69.1048V37.2471Z" fill="black"/>
<path fill-rule="evenodd" clip-rule="evenodd" d="M79.2007 35.6201C79.0253 35.4446 78.8179 35.3011 78.5946 35.2054C78.3553 35.0938 78.0842 35.0459 77.813 35.0459C77.2867 35.0459 76.7763 35.2532 76.4095 35.6201C76.234 35.7955 76.1064 36.0029 76.0107 36.2262C75.915 36.4655 75.8672 36.7206 75.8672 36.9758V36.9918C75.8672 37.2469 75.915 37.5021 76.0107 37.7414C76.1862 38.204 76.553 38.5708 77.0156 38.7622C77.2548 38.8579 77.5259 38.9058 77.7971 38.9058C78.3234 38.9217 78.8339 38.7144 79.2007 38.3475C79.3762 38.1721 79.5037 37.9647 79.5994 37.7414C79.6951 37.5021 79.743 37.2469 79.743 36.9918V36.9758C79.743 36.7206 79.6951 36.4655 79.5994 36.2262C79.5037 36.0029 79.3762 35.7955 79.2007 35.6201ZM79.0731 36.9918C79.0731 37.1672 79.0412 37.3427 78.9774 37.5021C78.9296 37.6457 78.8339 37.7892 78.7222 37.9169C78.6105 38.0444 78.467 38.1401 78.3234 38.204C78.1639 38.2837 77.9885 38.3156 77.813 38.3156C77.6216 38.3156 77.4622 38.2837 77.3027 38.204C77.1591 38.1401 77.0156 38.0444 76.9039 37.9169C76.7923 37.8052 76.7125 37.6617 76.6487 37.5021C76.5849 37.3427 76.553 37.1672 76.553 36.9918V36.9758C76.553 36.8004 76.5849 36.6249 76.6487 36.4655C76.6966 36.3219 76.7923 36.1783 76.9039 36.0507C77.0156 35.9232 77.1591 35.8275 77.3027 35.7636C77.6216 35.6201 78.0045 35.6201 78.3234 35.7636C78.467 35.8275 78.6105 35.9232 78.7222 36.0507C78.8339 36.1624 78.9136 36.3059 78.9774 36.4655C79.0412 36.6249 79.0731 36.8004 79.0731 36.9758V36.9918Z" fill="black"/>
<path fill-rule="evenodd" clip-rule="evenodd" d="M101.227 35.0781L99.584 38.8422H100.254L100.637 37.949H102.407L102.79 38.8422H103.476L101.833 35.0781H101.227ZM100.892 37.3589L101.53 35.8596L102.168 37.3589H100.892Z" fill="black"/>
<path fill-rule="evenodd" clip-rule="evenodd" d="M81.8008 38.8262H82.4548V37.311H84.3369V36.7208H82.4548V35.7H84.576V35.1099H81.8008V38.8262Z" fill="black"/>
<path fill-rule="evenodd" clip-rule="evenodd" d="M49.709 35.7159H50.8893H50.9052V38.8421H51.5591V35.7159H52.7394V35.1099H49.709V35.7159Z" fill="black"/>
<path fill-rule="evenodd" clip-rule="evenodd" d="M95.0699 37.3267H96.0269V37.9966C95.9153 38.0923 95.7717 38.1561 95.6282 38.204C95.4527 38.2518 95.2932 38.2837 95.1177 38.2837C94.9264 38.2997 94.7509 38.2518 94.5914 38.188C94.4479 38.1242 94.3043 38.0285 94.1927 37.9169C94.0811 37.8052 94.0013 37.6617 93.9375 37.5021C93.8737 37.3427 93.8418 37.1512 93.8418 36.9758V36.9599C93.8418 36.7844 93.8737 36.6089 93.9375 36.4495C94.0013 36.3059 94.0811 36.1624 94.1927 36.0348C94.3043 35.9072 94.4319 35.8115 94.5755 35.7477C94.7191 35.6679 94.8945 35.636 95.054 35.636C95.1656 35.636 95.2613 35.652 95.373 35.6679C95.4687 35.6839 95.5644 35.7158 95.6441 35.7477C95.7239 35.7796 95.8036 35.8275 95.8834 35.8753C95.9631 35.9232 96.0428 35.971 96.1067 36.0348L96.5214 35.5403C96.4257 35.4606 96.33 35.3968 96.2343 35.333C96.1385 35.2692 96.0269 35.2213 95.9153 35.1735C95.8036 35.1257 95.676 35.0938 95.5484 35.0778C95.4049 35.0618 95.2454 35.0459 95.1018 35.0459C94.8307 35.0459 94.5595 35.0938 94.3203 35.2054C93.8577 35.3968 93.5068 35.7796 93.3154 36.2421C93.2197 36.4655 93.1719 36.7206 93.1719 36.9758V36.9918C93.1719 37.2629 93.2197 37.5181 93.3154 37.7574C93.4909 38.2199 93.8577 38.5867 94.3203 38.7622C94.5755 38.8579 94.8466 38.9058 95.1178 38.9058C95.2773 38.9058 95.4368 38.8898 95.5803 38.8579C95.8514 38.7941 96.1226 38.6984 96.3618 38.5389C96.4575 38.4751 96.5692 38.3953 96.6649 38.3156V36.7525H95.0699V37.3267Z" fill="black"/>
<path fill-rule="evenodd" clip-rule="evenodd" d="M58.2899 37.2469C58.2899 37.5978 58.1942 37.853 58.0347 38.0285C57.8593 38.204 57.6041 38.2997 57.3489 38.2837C57.0937 38.2997 56.8385 38.204 56.663 38.0126C56.4876 37.8212 56.4078 37.566 56.4078 37.2151V35.0938H55.7539V37.2469C55.7539 37.5021 55.7858 37.7414 55.8655 37.9647C55.9293 38.1561 56.041 38.3315 56.1846 38.4751C56.3121 38.6187 56.4876 38.7303 56.679 38.7941C56.8864 38.8738 57.1096 38.9058 57.3329 38.9058C57.5722 38.9058 57.7955 38.8579 58.0028 38.7781C58.1942 38.7144 58.3697 38.6027 58.5132 38.4592C58.6567 38.3156 58.7684 38.1242 58.8322 37.9328C58.9119 37.6935 58.9438 37.4543 58.9438 37.1991V35.0938H58.2899V37.2469Z" fill="black"/>
<path fill-rule="evenodd" clip-rule="evenodd" d="M6.02283 37.6619L4.66711 36.8803V31.2819V30.3887V28.5545V24.0089L0.201172 21.4409V25.9866V27.8208V29.6391V34.2964V38.8421L2.08325 39.9427L8.17609 43.4516L12.2114 45.7803L14.4603 47.0722V42.5266L9.96246 39.9427L6.02283 37.6619Z" fill="black"/>
<path fill-rule="evenodd" clip-rule="evenodd" d="M16.166 30.6596V35.2053V36.9279V41.4735V43.4991V48.0449L20.0897 45.78L20.632 45.461L24.109 43.4513H24.1249L26.2941 42.1913L30.2178 39.9264L32.0839 38.8418V34.2961V32.2864V29.6388V27.7408L27.6179 30.3246L24.1249 32.3343V36.88L27.6179 34.8703V36.88L26.2941 37.6456L24.1249 38.8896L22.3545 39.9264L20.632 40.9153V38.8896V34.344V32.6214L32.0839 26.0023V21.4565L20.632 28.0757L16.166 30.6596Z" fill="black"/>
<path fill-rule="evenodd" clip-rule="evenodd" d="M29.7236 21.0261L30.9199 20.3403L23.8541 16.2571L16.1503 11.8071L8.44659 16.2571L1.38086 20.3243L2.57709 21.0101L15.5602 28.5065L16.1503 28.8574L16.7405 28.5225L29.7236 21.0261ZM22.5781 18.6177C23.3597 18.1711 24.6197 18.1711 25.3853 18.6177C26.1509 19.0643 26.1668 19.798 25.3853 20.2446C24.6038 20.6912 23.3597 20.6912 22.5781 20.2446C21.7966 19.798 21.7966 19.0643 22.5781 18.6177ZM20.9193 22.8284C20.1378 23.275 18.8777 23.275 18.1122 22.8284C17.3466 22.3659 17.3466 21.6481 18.1122 21.2015C18.8937 20.7549 20.1537 20.7549 20.9193 21.2015C21.7009 21.6481 21.7009 22.3818 20.9193 22.8284ZM16.2939 14.9971C17.0754 14.5505 18.3354 14.5505 19.1011 14.9971C19.8826 15.4437 19.8826 16.1774 19.1011 16.624C18.3195 17.0706 17.0595 17.0706 16.2939 16.624C15.5283 16.1774 15.5124 15.4437 16.2939 14.9971ZM10.1851 21.7758C9.40363 22.2224 8.15948 22.2224 7.37799 21.7758C6.61237 21.3292 6.61237 20.5955 7.37799 20.1489C8.15948 19.7023 9.41956 19.7023 10.1851 20.1489C10.9667 20.5955 10.9667 21.3292 10.1851 21.7758ZM11.8439 17.565C12.6254 17.1184 13.8855 17.1184 14.6511 17.565C15.4167 18.0116 15.4326 18.7453 14.6511 19.1919C13.8695 19.6544 12.6095 19.6544 11.8439 19.1919C11.0624 18.7453 11.0624 18.0116 11.8439 17.565ZM16.4694 25.3964C15.6878 25.843 14.4278 25.843 13.6622 25.3964C12.8807 24.9498 12.8807 24.2161 13.6622 23.7695C14.4437 23.3229 15.7037 23.3229 16.4694 23.7695C17.2509 24.2161 17.2509 24.9498 16.4694 25.3964Z" fill="black"/>
</svg>
