<svg width="128" height="60" viewBox="0 0 128 60" fill="none" xmlns="http://www.w3.org/2000/svg">
<path fill-rule="evenodd" clip-rule="evenodd" d="M34.29 3.22976C33.44 3.47976 33.64 4.55976 34.4 4.38976C34.72 4.31976 34.94 4.03976 34.94 3.70976C34.94 3.42976 34.69 3.19976 34.41 3.21976C34.37 3.21976 34.33 3.21976 34.29 3.22976ZM101.25 38.0198C99.49 38.0198 98.91 38.5998 98.91 40.3598C98.91 38.5998 98.33 38.0198 96.57 38.0198C98.33 38.0198 98.91 37.4398 98.91 35.6798C98.91 37.4498 99.49 38.0198 101.25 38.0198ZM102.27 34.4698C101.32 34.4698 101.01 34.7898 101.01 35.7298C101.01 34.7798 100.69 34.4698 99.75 34.4698C100.69 34.4698 101.01 34.1498 101.01 33.2098C101.01 34.1598 101.33 34.4698 102.27 34.4698ZM93.26 31.2498C92.18 31.2498 91.83 31.5998 91.83 32.6798C91.83 31.5998 91.48 31.2498 90.4 31.2498C91.48 31.2498 91.83 30.8798 91.83 29.8198C91.83 30.8698 92.18 31.2498 93.26 31.2498ZM94.47 28.9398C93.77 28.9398 93.53 29.1698 93.53 29.8698C93.53 29.1698 93.3 28.9398 92.6 28.9398C93.3 28.9398 93.53 28.7098 93.53 27.9998C93.53 28.7098 93.77 28.9298 94.47 28.9398ZM107.09 28.7198C106.14 30.0198 105.45 31.4998 104.88 33.0998C104.16 35.0098 102.94 39.2698 104.31 41.1798C105.33 42.6498 107.15 43.3398 108.88 42.8998C110.14 42.5998 109.72 41.8298 109.87 40.5798C110.14 38.7098 110.63 37.1498 111.28 35.3998C111.87 33.8498 112.55 32.3298 113.34 30.8598C113.69 30.1398 114.09 29.4398 114.52 28.7598C114.79 28.3798 115.66 27.0098 116.16 27.1598C116.35 27.6198 115.78 28.9098 115.67 29.3298C113.99 33.9298 112.16 40.6798 112.85 45.5598C113.08 47.3098 113.42 48.4198 114.26 49.6798C114.94 50.6298 116.13 51.6998 117.57 51.8898C119.29 52.0798 120.5 51.5898 121.84 50.7098C122.95 49.9498 123.9 49.1098 124.54 47.9598L124.58 47.8898V47.6098C124.39 47.4898 124.16 47.4898 123.9 47.4498C122.3 47.0998 121.27 46.4598 120.28 45.1698C118.03 42.1998 118.34 37.3598 118.76 33.8198C118.99 31.8398 119.41 30.0098 119.87 28.1398C120.22 26.8098 121.36 23.5998 120.44 22.6498C120.06 22.3998 119.63 22.2598 119.18 22.2398C118.66 22.1998 118.15 22.2598 117.66 22.4298C116.87 22.7098 116.12 23.1098 115.45 23.6098C114.5 24.2898 113.66 25.1698 112.86 26.0498C112.59 26.3498 112.37 26.6598 112.06 26.9598C111.57 27.5698 111.07 28.2598 110.61 28.8998C110.34 29.2798 110.15 29.5498 109.93 29.8898C109.81 30.1198 109.4 30.7998 109.25 30.9198C109.25 30.4598 109.32 29.8498 109.29 29.3198C109.22 28.8598 109.17 28.3698 108.99 27.9898C108.46 27.0398 107.43 28.3398 107.11 28.7198H107.09ZM95.85 32.2398L95.5 31.7898L94.87 32.5998L96.1 33.9998L97.26 32.9998H97.19C96.66 32.9398 96.17 32.6698 95.84 32.2398H95.85ZM95.6 29.1198L93.71 31.0898C93.58 31.2298 93.58 31.4498 93.72 31.5798C93.8 31.6498 93.9 31.6898 94.01 31.6798L95.6 31.4298L96.31 32.2098L96.49 32.3898C96.74 32.6798 97.13 32.7898 97.5 32.7098L97.79 32.6398L96.77 34.2998C96.67 34.4698 96.73 34.6798 96.9 34.7798C97.01 34.8398 97.14 34.8398 97.25 34.7798L98.94 33.7298C99.34 33.4898 99.62 33.0898 99.72 32.6298L99.95 31.6198L98.72 32.0998C102.46 29.8398 105.91 27.4798 106.08 24.2098C105.62 24.2298 105.14 24.2798 104.68 24.3498C104 24.4698 103.33 24.6498 102.68 24.9098C102.84 25.4298 103.09 25.8998 103.42 26.3198C103.62 26.5898 103.85 26.8198 104.12 27.0198C103.83 26.8598 103.56 26.6698 103.31 26.4698C102.85 26.0998 102.46 25.6498 102.15 25.1398L101.9 25.2698L101.77 25.3398C99.94 26.3098 98.23 27.9198 96.67 30.3298L97.38 28.9498L95.6 29.1298V29.1198ZM99.58 29.9698C99.26 29.8398 98.98 29.6498 98.9 29.4098C99.36 29.4998 99.84 29.4998 100.31 29.4098C100.38 29.4098 100.46 29.3798 100.53 29.3698C101.66 29.1098 102.54 28.4198 102.91 27.5798C102.98 27.6898 103.01 27.8198 103.01 27.9598C103 28.8098 101.22 29.9998 100.37 30.0998C100.1 30.1098 99.84 30.0698 99.59 29.9698H99.58ZM100.44 29.1998C99.91 29.3298 99.36 29.3398 98.83 29.2398C98.81 29.1898 98.8 29.1398 98.8 29.0798C98.79 27.9998 100.89 26.2698 101.87 26.4998C102.12 26.5498 102.47 26.8798 102.69 27.2198C102.73 27.2898 102.77 27.3498 102.82 27.4198C102.47 28.1998 101.66 28.8698 100.63 29.1698C100.56 29.1898 100.5 29.2098 100.45 29.2098L100.44 29.1998ZM92.21 39.3598C92.21 39.3598 92.16 39.4298 92.13 39.4598V39.4798C92.13 39.4798 92.08 39.5698 92.05 39.6098C91.9 39.7898 91.7 39.9298 91.47 39.9898C91.46 39.9898 91.46 39.9898 91.46 39.9998H91.43L91.25 40.0298C90.94 40.0498 90.65 39.9298 90.44 39.6998C90.68 39.8398 90.96 39.8798 91.22 39.8298C91.48 39.7898 91.71 39.6498 91.87 39.4498C91.94 39.3598 92 39.2698 92.03 39.1598C92.08 39.0298 92.1 38.8898 92.1 38.7398C92.09 38.4698 91.98 38.2098 91.8 37.9998C92.01 38.1198 92.18 38.3198 92.25 38.5498C92.46 38.7598 92.73 38.9198 93.02 38.9998C93.4 39.0998 93.79 39.0598 94.13 38.8698C94.48 38.6898 94.74 38.3898 94.87 38.0298C95.01 37.6498 95 37.2298 94.87 36.8498C95.11 37.2098 95.18 37.6598 95.07 38.0798C94.95 38.5098 94.66 38.8798 94.26 39.0898C93.86 39.2998 93.4 39.3298 92.98 39.1898C92.71 39.0898 92.49 38.9298 92.31 38.7098C92.34 38.9198 92.31 39.1398 92.24 39.3398C92.24 39.3398 92.24 39.3598 92.26 39.3598H92.25H92.21ZM86.57 42.2798C86.29 42.3698 85.99 42.3598 85.72 42.2598C85.45 42.1498 85.22 41.9598 85.06 41.7098C84.9 41.4298 84.82 41.0998 84.86 40.7698C84.63 41.0898 84.57 41.5098 84.71 41.8698C84.98 42.6098 85.79 42.9898 86.51 42.7198C86.58 42.6998 86.65 42.6598 86.71 42.6298C87.06 42.4498 87.28 42.0998 87.34 41.7198C87.16 41.9798 86.88 42.1798 86.57 42.2698V42.2798ZM82.51 33.4998C82.46 34.1798 81.71 34.5598 80.9 35.8898C80.9 35.9098 80.9 35.9298 80.91 35.9398C80.91 35.9398 80.93 35.9398 80.94 35.9398C81.27 35.7698 82.12 35.3898 81.69 35.9398C81.36 36.3798 81.11 36.8798 80.93 37.3998C80.93 37.4398 80.97 37.4698 80.99 37.4298C81.16 37.2198 81.41 37.0798 81.67 37.0498H81.8C81.8 37.0498 81.72 37.0698 81.58 37.3698C80.59 38.7198 80.37 39.7598 80.3 40.4898C80.3 40.5098 80.32 40.5298 80.34 40.5298C80.35 40.5298 80.36 40.5298 80.37 40.5198C80.65 40.0198 81.43 39.5398 81.73 39.5798C81.77 39.5798 81.82 39.6098 81.83 39.6498C82 40.1598 81.67 40.8598 81.37 41.3698C81.29 41.4998 81.21 41.5998 81.15 41.6998C81.15 41.7198 81.12 41.7298 81.11 41.7498L80.95 41.9698C81 41.9098 81.05 41.8598 81.11 41.8098C81.19 41.7198 81.29 41.6198 81.41 41.5198C81.56 41.3698 81.81 41.3798 81.95 41.5298C82.02 41.5998 82.05 41.6998 82.05 41.7998C82.07 43.5898 79.89 44.7998 78.49 45.8298C78.48 45.8398 78.47 45.8698 78.49 45.8898C78.49 45.8998 78.51 45.8998 78.53 45.8998C79.66 45.4898 81.03 44.4398 82.22 44.5898C82.24 44.5898 82.27 44.5998 82.29 44.5998C82.67 44.6698 82.91 45.0298 82.84 45.4098C82.83 45.4998 82.79 45.5898 82.74 45.6598C82.72 45.7098 82.68 45.7498 82.64 45.7898L81.71 46.6498C81.71 46.6498 81.71 46.7298 81.74 46.7198C82.35 46.4398 83.02 46.3098 83.7 46.3398C84.31 46.3698 84.92 46.5098 85.47 46.7698C85.71 46.8698 85.96 46.9498 86.22 47.0098C86.26 47.0198 86.32 47.0298 86.37 47.0398C85.97 47.1198 85.59 47.2798 85.26 47.5198C85.2 47.5698 85.13 47.6198 85.08 47.6498C84.88 47.7798 84.42 48.2498 83.19 48.4198C83.43 48.4798 83.69 48.5098 83.94 48.4998C84.69 48.4898 85.43 48.3498 86.14 48.0998L86.62 47.9398C88.39 47.3098 90.04 46.3998 92.05 46.7198C92.09 46.7198 92.09 46.7798 92.05 46.7898C91.11 47.0898 89.97 47.1598 89.13 47.7798C88.89 47.9598 88.68 48.1698 88.52 48.4298C88.49 48.4798 88.45 48.5298 88.42 48.5898C90.19 47.6598 91.95 47.2398 93.65 46.7498C93.97 46.6298 94.28 46.5198 94.59 46.3998C96.7 45.5798 98.66 44.5098 100 42.7498C100.38 42.2498 100.7 41.7098 100.95 41.1398C100.95 41.1298 100.95 41.0998 100.94 41.0998C100.93 41.0998 100.91 41.0998 100.9 41.0998C97.69 42.5798 94.55 41.5998 92.23 39.3498C92.28 39.2898 92.33 39.2298 92.37 39.1698C92.58 39.3098 92.8 39.3998 93.05 39.4398C94.15 39.6698 95.24 38.9498 95.47 37.8498C95.47 37.7798 95.49 37.7298 95.5 37.6898C95.6 36.7698 95.09 35.8898 94.23 35.5298L95.94 34.1298L94.72 32.7498L93.17 34.4598C92.85 33.6398 91.92 33.2498 91.11 33.5798C90.73 33.7298 90.41 34.0398 90.25 34.4098C90.2 34.5098 90.16 34.6298 90.13 34.7398C90.06 35.1098 90.12 35.4798 90.3 35.8198C90.2 35.8198 90.1 35.8398 90 35.8598C89.04 32.7098 90.18 29.2898 92.84 27.3398C93.36 26.9698 93.91 26.6598 94.5 26.4298C94.52 26.4298 94.53 26.3998 94.52 26.3798C94.52 26.3798 94.51 26.3698 94.5 26.3598C92.46 25.4298 86.21 27.6898 84.23 30.0798C84.21 30.0998 84.23 30.1498 84.28 30.1298C84.49 30.0298 84.88 29.8298 85.23 29.6998C85.27 29.6798 85.3 29.7398 85.27 29.7598C84.09 30.6398 83.58 31.3998 82.44 32.9698C82.15 33.3198 81.89 33.6798 81.67 34.0798L82.48 33.4698C82.48 33.4698 82.55 33.4698 82.54 33.4998V33.4598L82.51 33.4998ZM90.3 35.0598C90.43 34.4398 91.03 34.0398 91.65 34.1598C91.69 34.1598 91.73 34.1798 91.78 34.1898C92.07 34.2798 92.32 34.5098 92.43 34.7898C92.25 34.5698 92.01 34.4198 91.73 34.3798C91.47 34.3298 91.21 34.3798 90.98 34.5098C90.75 34.6398 90.58 34.8598 90.49 35.1098C90.41 35.3798 90.42 35.6698 90.52 35.9298C90.31 35.6898 90.24 35.3698 90.31 35.0598H90.3ZM93.42 35.6898C93.57 35.6798 93.72 35.7098 93.85 35.7898C93.91 35.8298 93.96 35.8798 94.01 35.9298C94.16 36.0898 94.23 36.3098 94.21 36.5298C94.2 36.7398 94.08 36.9298 93.89 37.0298C94.09 36.7398 94.06 36.3498 93.82 36.0898C93.77 36.0398 93.71 35.9898 93.64 35.9598C93.4 35.8298 93.11 35.8398 92.88 35.9798C92.99 35.7898 93.19 35.6798 93.41 35.6798L93.42 35.6898ZM83.73 35.5998C84.91 34.3798 87.2 34.6898 87.2 36.8198C86.25 35.1398 84 36.3298 84.27 38.0398C84.34 38.5298 84.76 38.7598 85.22 38.9498C84.78 39.0198 84.32 38.9398 83.92 38.7198C82.48 37.9198 83.27 36.1298 83.73 35.5898V35.5998ZM89 36.6798C89.24 36.4298 89.54 36.2698 89.86 36.1998C89.93 36.1798 89.99 36.1698 90.06 36.1698C90.43 36.1398 90.79 36.2498 91.08 36.4698C90.78 36.3398 90.45 36.2898 90.13 36.3398H90.06C90.01 36.3698 89.96 36.3798 89.9 36.3898C89.86 36.3898 89.81 36.4098 89.77 36.4298L89.64 36.4998C89.47 36.5898 89.32 36.6998 89.18 36.8498C89.12 36.9198 89.07 36.9998 89.02 37.0798C88.82 37.4098 88.75 37.8098 88.82 38.1898C88.87 38.4698 89 38.7298 89.18 38.9398C89.16 38.8598 89.16 38.7698 89.18 38.6898C89.19 38.4798 89.31 38.2898 89.5 38.1898C89.26 38.5198 89.34 38.9798 89.67 39.2098C89.91 39.3898 90.24 39.3898 90.49 39.2298C90.38 39.4098 90.18 39.5198 89.97 39.5198C89.9 39.5198 89.84 39.5198 89.79 39.5198C89.74 39.5198 89.69 39.4998 89.64 39.4698C89.54 39.4298 89.45 39.3698 89.38 39.2898C89.32 39.2198 89.27 39.1398 89.23 39.0598C88.94 38.8598 88.73 38.5698 88.63 38.2398C88.56 38.0298 88.55 37.7998 88.58 37.5698C88.58 37.5298 88.59 37.4898 88.6 37.4498C88.64 37.2698 88.7 37.0998 88.8 36.9498C88.85 36.8498 88.92 36.7698 88.99 36.6798H89ZM85.08 40.1298C85.79 39.6198 86.79 39.7898 87.3 40.5098C87.81 41.2198 87.64 42.2198 86.92 42.7298C86.21 43.2298 85.23 43.0698 84.71 42.3598C84.19 41.6498 84.36 40.6598 85.08 40.1398V40.1298ZM87.35 46.9198C87.62 46.8498 88.62 46.5998 89.07 46.4898C89.11 46.4798 89.13 46.5398 89.1 46.5598C88.66 46.8498 87.57 47.5498 87.24 47.3598C86.96 47.2898 86.44 47.5198 86.19 47.7598C86.5 47.3798 86.9 47.0798 87.35 46.9198ZM94.11 42.5998C94.31 42.5498 94.53 42.5598 94.72 42.6398C95.43 42.9298 95.15 43.7998 94.97 44.0698C94.49 44.6998 93.42 44.6698 93.31 43.6898C93.84 44.4198 94.81 43.7598 94.61 42.9798C94.54 42.7598 94.34 42.6798 94.12 42.6098L94.11 42.5998ZM94.43 41.6998C94.52 41.6198 94.56 41.4998 94.53 41.3798C94.6 41.4798 94.63 41.5898 94.63 41.6998C94.62 42.1298 94.11 42.1398 93.94 42.0998C93.53 41.9698 93.34 41.4098 93.82 41.1598C93.54 41.5598 94.08 41.9498 94.43 41.6998ZM89.06 30.7398C88.68 31.3098 87.95 30.9198 87.75 30.7098C87.29 30.1698 87.49 29.2298 88.38 29.2998C87.64 29.6398 88.06 30.6198 88.78 30.5698C88.99 30.5598 89.1 30.3898 89.19 30.1998C89.21 30.3998 89.16 30.5798 89.05 30.7398H89.06ZM88.01 28.0598C87.53 28.4198 87.19 29.2198 85.57 29.3898C85.53 29.3898 85.5 29.3498 85.54 29.3198C85.86 29.0398 86.95 28.1098 87.98 27.9898C88.02 27.9898 88.04 28.0398 88.01 28.0598ZM84.83 32.7198C84.76 32.6198 84.81 32.4798 84.93 32.3898C85 32.2898 85.13 32.2598 85.22 32.3198C85.32 32.3898 85.35 32.5198 85.29 32.6098C85.26 32.6498 85.22 32.6798 85.18 32.6998C85.05 32.7998 84.89 32.7998 84.83 32.7098V32.7198ZM88.59 37.5498V37.5298C88.59 37.5298 88.59 37.5398 88.59 37.5498ZM90.58 42.5498C90.39 42.3998 90.35 42.1298 90.49 41.9398C90.6 41.7198 90.87 41.6398 91.09 41.7498C91.09 41.7498 91.09 41.7498 91.1 41.7498C91.28 41.8998 91.32 42.1798 91.17 42.3798C91.02 42.5898 90.74 42.6698 90.57 42.5498H90.58ZM87.94 33.5798C87.67 33.7998 87.31 33.7998 87.12 33.5798C86.94 33.3598 87 32.9998 87.27 32.7798C87.54 32.5598 87.9 32.5498 88.08 32.7798C88.26 33.0098 88.21 33.3698 87.95 33.5798H87.94ZM63.57 28.7698C62.82 29.8698 62.22 31.0798 61.78 32.3498C61.13 34.4898 60.98 36.1598 60.98 38.2598L61.17 40.0898C61.24 40.6698 61.35 41.2398 61.52 41.8098C62.24 44.6298 63.96 48.1698 67.46 48.1698L68.48 48.0998C69.62 47.9098 70.62 47.4198 71.64 46.8798C73.5 45.8598 75.11 44.4298 76.32 42.6898C78.15 40.2498 79.79 36.3598 80.05 33.1598C80.12 32.0498 80.21 31.3298 80.01 30.1898C79.78 28.5498 78.94 26.9898 77.34 26.4598C76.46 26.1598 75.17 26.2998 74.37 26.7598C73 27.5598 72.39 29.8798 72.23 31.4898C72.11 32.7898 72.58 34.3498 73.03 35.2598C73.3 35.7398 73.61 36.1898 73.98 36.5898C74.33 37.0098 74.93 37.3098 75.39 37.4698C75.07 38.1398 74.68 38.7698 74.21 39.3498C73.03 40.9798 70.82 43.0498 68.5 42.9698L68.08 42.9298C68.37 41.9198 68.85 40.9798 69.49 40.1498C69.72 39.8798 69.95 39.6598 70.14 39.3898C70.75 38.6298 71.82 37.5998 72.5 36.8698C72.57 36.7498 72.77 36.5998 72.8 36.4498C72.53 36.5198 71.54 37.3598 71.31 37.5598C70.63 38.1698 69.21 39.3898 68.38 39.8098C67.73 40.1598 66.86 40.0798 66.52 39.5398C66.94 38.7798 67.78 37.5598 68.31 36.7898C68.38 36.6698 68.54 36.5198 68.54 36.3698C68.38 36.4398 68.08 36.8998 67.93 37.0198C67.72 37.2498 67.47 37.4398 67.21 37.5898C66.41 38.0498 66.1 37.9698 65.11 38.0798C64.92 37.3998 65.18 35.0298 65.34 34.3498C65.46 33.6998 65.61 33.1698 65.76 32.5998C66.6 29.9698 68.2 27.8698 70.79 26.8498C71.19 26.6798 71.61 26.5698 72.05 26.4998C72.51 26.3798 73.57 26.6198 73.57 26.1498C73.53 25.8498 72.01 24.2898 70.64 24.2898C69.8 24.2898 69.61 24.2498 68.73 24.5198C67.77 24.8098 66.87 25.2898 66.1 25.9298C65.03 26.8798 64.38 27.4898 63.54 28.7898H63.55L63.57 28.7698ZM75.23 35.5198C74.85 34.3798 74.74 30.9798 75.53 30.5998C75.95 30.3698 76.29 31.2098 76.41 31.5898C76.76 32.5398 76.76 34.0598 76.64 35.0598C76.63 35.3298 76.57 35.5998 76.48 35.8598C76.41 36.0898 76.29 36.3898 76.13 36.4698C75.67 36.6998 75.33 35.8998 75.22 35.5198H75.23ZM38.66 18.7598C36.98 18.8798 31.2 27.9398 30.24 29.7698C28.66 32.6898 22.2 45.6498 25.01 50.2598C25.71 51.2998 26.75 52.0598 27.94 52.4298C28.59 52.6198 30.27 52.7298 30.8 52.1998C31.18 51.7798 30.99 51.0598 30.99 50.4498V49.1798C31 46.5498 31.2 43.9298 31.6 41.3298C31.72 40.5298 32.4 36.2598 32.74 35.7298C32.72 36.0598 32.68 36.3898 32.62 36.7198C32.46 39.2398 32.2 41.4798 32.46 44.0298C32.58 44.6798 32.62 45.3298 32.73 45.9698C32.85 46.5798 32.96 47.1898 33.11 47.7598C33.41 48.8298 33.83 50.0098 34.44 50.7798C36.84 53.7098 40.12 53.1398 42.52 50.7798C43.08 50.2298 43.52 49.5598 43.82 48.8398C45 46.0898 45.73 43.5798 46.79 40.9198C47.59 38.8698 48.51 36.8798 49.54 34.9398C50.8 32.4198 53.77 27.8898 55.52 25.6398L56.47 24.4598C56.41 24.5698 55.78 26.0498 55.56 26.5498C54.95 27.9998 54.45 29.5198 53.92 31.0098C53.17 33.3998 52.59 35.8498 52.17 38.3298C51.98 39.5898 51.75 41.1498 51.71 42.4498C51.71 42.6798 51.67 42.8698 51.67 43.1698C51.67 43.4398 51.63 43.5498 51.63 43.8498C51.63 47.5498 51.86 51.0898 53.23 54.3698C54.07 56.3098 55.59 58.2898 57.42 59.2798C57.8 59.4698 58.1 59.5798 58.49 59.7398C58.69 59.7898 58.89 59.8298 59.1 59.8598L59.75 59.9798H60.86L60.98 59.9398H61.1C61.16 59.9098 61.23 59.8998 61.29 59.8998L62.47 59.6298C63.77 59.1398 64.94 58.3598 65.9 57.3498C67.07 56.1598 68.48 54.3798 68.67 52.4998C68.71 52.0798 68.79 52.0398 68.48 51.7798C67.72 51.0598 66.84 53.6898 63.49 52.1598C61.81 51.3998 60.56 49.7998 59.91 48.1198C58.42 44.0798 58.27 39.5098 58.88 34.5598C59.34 30.9098 60.56 25.8298 61.85 22.2898C62.38 20.8398 63.22 18.9798 63.22 17.4198C63.22 17.1498 63.41 16.8498 62.95 16.4298C61.92 15.4798 59.71 16.6198 58.72 17.2298C56.09 18.7898 54.22 20.7398 52.05 22.9398C51.44 23.5898 50.42 24.8098 49.84 25.4898C48.7 26.9398 47.63 28.3798 46.56 29.8698C43.97 33.6198 41.46 38.0598 39.93 42.2898C39.74 42.8998 39.13 44.6898 39.13 45.3098C36.92 44.5898 36.88 36.1598 37.11 34.1498C37.68 28.8898 38.94 25.4198 40.5 20.6198C40.62 20.1998 40.85 19.6298 40.62 19.2498C40.2 18.5898 39.32 18.7098 38.63 18.7598H38.66ZM32.15 16.8498C27.96 17.4998 21.37 21.2298 17.9 23.7098C16.27 24.8198 11.66 28.6598 11.66 30.8298C11.66 31.7098 11.62 31.8998 12.08 32.8098C12.26 33.2098 12.49 33.5798 12.76 33.9198C13.17 34.3998 14.01 35.2398 14.7 35.5098C15.31 35.6998 15.54 35.4398 15.81 35.0198C16.69 33.5698 17.67 32.1798 18.73 30.8598C19.19 30.2898 24.18 24.7998 24.9 24.5698C24.86 24.6898 23.38 26.7398 23.26 26.8998C22.73 27.6598 22.15 28.4598 21.66 29.2598C19.3 32.8798 16.17 38.7398 15.11 43.0498C14.88 43.9298 14.62 45.1898 14.58 46.0198C14.54 47.0898 14.62 47.9998 15.07 48.9098C15.73 50.2698 16.96 51.2598 18.42 51.6098C19.1 51.7698 20.67 51.9898 21.09 51.3098C21.25 51.0098 21.21 51.0098 21.25 50.5898L21.37 49.0298C21.41 47.9598 21.9 44.9498 22.13 43.8498C22.8 40.7398 23.71 37.6898 24.86 34.7098C26.92 29.5298 29.13 25.6698 32.26 21.2298C32.53 20.8098 34.28 18.5298 34.7 18.1098C34.82 17.9898 35.19 17.9898 34.97 17.4298C34.7 16.8598 33.75 16.7798 33.18 16.7798C33.02 16.7798 32.88 16.8198 32.69 16.8198C32.52 16.8198 32.34 16.8498 32.15 16.8598V16.8498ZM19.69 16.3598C18.98 16.6698 18.31 16.9598 17.63 17.2398C19.02 18.0298 20.6 18.4498 22.2 18.4498C22.45 18.4498 22.72 18.4398 22.95 18.4198C26.36 18.1498 29.34 15.9998 30.68 12.8498C30.86 12.4398 31 12.0098 31.12 11.5798C31.21 11.2298 31.28 10.8898 31.33 10.5298C31.34 10.4698 31.34 10.3998 31.36 10.3398C29.26 11.5798 26.91 12.8498 24.44 14.0998C23.11 14.7598 21.81 15.3998 20.53 15.9598C20.25 16.0898 19.97 16.2098 19.69 16.3398V16.3598ZM24.44 17.2098C23.78 17.2598 23.18 16.5798 23.74 15.9398C23.58 16.6798 24.55 16.9198 24.92 16.3498C25.02 16.1898 24.96 15.9998 24.88 15.8298C25.03 15.9298 25.14 16.0698 25.2 16.2398C25.41 16.8398 24.71 17.1598 24.43 17.1998H24.44V17.2098ZM26.67 15.3198C26.67 15.2198 26.74 15.1298 26.85 15.1298H26.86C26.96 15.1298 27.05 15.2098 27.05 15.3198C27.05 15.4198 26.97 15.5098 26.86 15.5098C26.76 15.5098 26.67 15.4298 26.67 15.3198ZM11.69 16.8598C10.34 16.9998 10 18.8098 10.67 19.2598C10.97 19.4798 11.34 19.5798 11.72 19.5398C13.02 19.3998 13.41 17.6798 12.71 17.1598C12.41 16.9498 12.05 16.8398 11.69 16.8598ZM12.44 11.7998C6.53001 15.4398 2.84001 18.6598 3.47001 19.9098C3.48001 19.9498 3.51001 19.9998 3.54001 20.0298C4.16001 20.7998 6.70001 20.4898 10.34 19.3698C10 19.0598 9.80001 18.6298 9.77001 18.1598C8.21001 18.3798 7.20001 18.2498 6.91001 17.6798C6.43001 16.6998 8.38001 14.6498 11.8 12.2298C12.01 12.0898 12.21 11.9398 12.43 11.7998H12.44ZM11.46 9.49976C11.49 8.78976 10.81 8.61976 10.51 8.69976C9.97001 8.83976 9.71001 9.14976 9.66001 9.68976C9.59001 9.94976 9.70001 10.2098 9.94001 10.3398C10.15 10.4798 10.4 10.5298 10.65 10.4798C11.11 10.3798 11.45 9.97976 11.46 9.49976ZM30.39 2.94976C34.42 1.61976 37.3 1.28976 37.8 2.26976C38.37 3.37976 35.76 5.91976 31.42 8.73976V8.68976C31.13 3.59976 26.77 -0.290244 21.69 0.019756C16.61 0.319756 12.72 4.66976 13.02 9.74976C13.17 12.2898 14.35 14.6498 16.3 16.2798L16.32 16.2998H16.33C15.24 16.7298 14.22 17.0698 13.26 17.3598C13.36 17.5798 13.41 17.8198 13.41 18.0698C13.41 18.1698 13.4 18.2498 13.38 18.3498C14.54 17.9098 15.79 17.4198 17.08 16.8798C19.33 15.9398 21.73 14.8398 24.19 13.5998C26.79 12.2998 29.23 10.9698 31.42 9.67976C37.87 5.83976 42.08 2.35976 41.69 0.949756C41.68 0.889756 41.66 0.859756 41.65 0.819756C41.02 -0.450244 36.22 0.579756 29.74 3.14976C29.95 3.07976 30.15 3.01976 30.36 2.93976C30.36 2.93976 30.37 2.93642 30.39 2.92976V2.94976ZM22.59 7.67976C22.38 7.67976 22.21 7.50976 22.21 7.29976C22.22 7.07976 22.41 6.91976 22.62 6.92976C22.81 6.93976 22.97 7.08976 22.98 7.28976C22.98 7.49976 22.81 7.66976 22.6 7.66976L22.59 7.67976ZM28.48 7.16976C28.38 6.81976 28.05 6.68976 27.68 6.59976C28 6.49976 28.34 6.51976 28.64 6.63976C29.77 7.06976 29.38 8.46976 29.1 8.89976C28.36 9.90976 26.66 9.91976 26.45 8.35976C27.32 9.46976 28.84 8.38976 28.47 7.16976H28.48ZM20.25 12.8198C20.25 12.6098 20.43 12.4398 20.63 12.4398C20.84 12.4398 21.01 12.6098 21.01 12.8198C21.01 13.0298 20.84 13.1998 20.63 13.2098C20.42 13.2098 20.25 13.0398 20.25 12.8298V12.8198ZM16.52 7.29976C16.52 7.39976 16.43 7.48976 16.33 7.48976C16.23 7.48976 16.14 7.39976 16.14 7.29976C16.14 7.19976 16.23 7.10976 16.33 7.10976C16.43 7.10976 16.51 7.17976 16.52 7.28976V7.29976ZM15.55 9.71976C16.21 9.03976 17.49 9.20976 17.49 10.3998C16.96 9.45976 15.7 10.1198 15.85 11.0798C15.89 11.3598 16.13 11.4798 16.38 11.5898C16.13 11.6298 15.88 11.5898 15.66 11.4598C14.86 11.0098 15.3 10.0098 15.56 9.70976L15.55 9.71976ZM18.75 4.55976C18.34 4.55976 18.01 4.22976 18.01 3.81976C18.01 3.40976 18.34 3.07976 18.75 3.07976C19.16 3.07976 19.49 3.40976 19.49 3.81976C19.49 4.22976 19.17 4.54976 18.77 4.55976H18.76H18.75ZM23.42 3.61976C23.3 3.38976 23.26 3.12976 23.29 2.87976C23.45 1.95976 24.55 2.04976 24.92 2.18976C25.8 2.58976 26.06 3.86976 24.92 4.26976C25.63 3.44976 24.58 2.46976 23.72 2.92976C23.47 3.05976 23.43 3.32976 23.4 3.60976L23.42 3.61976Z" fill="black"/>
<path fill-rule="evenodd" clip-rule="evenodd" d="M34.29 3.22976C33.44 3.47976 33.64 4.55976 34.4 4.38976C34.72 4.31976 34.94 4.03976 34.94 3.70976C34.94 3.42976 34.69 3.19976 34.41 3.21976C34.37 3.21976 34.33 3.21976 34.29 3.22976ZM19.7 16.3698C18.99 16.6798 18.32 16.9698 17.64 17.2498C19.03 18.0398 20.61 18.4598 22.21 18.4598C22.46 18.4598 22.73 18.4498 22.96 18.4298C26.37 18.1598 29.35 16.0098 30.69 12.8598C30.87 12.4498 31.01 12.0198 31.13 11.5898C31.22 11.2398 31.29 10.8998 31.34 10.5398C31.35 10.4798 31.35 10.4098 31.37 10.3498C29.27 11.5898 26.92 12.8598 24.45 14.1098C23.12 14.7698 21.82 15.4098 20.54 15.9698C20.26 16.0998 19.98 16.2198 19.7 16.3498V16.3698ZM24.45 17.2198C23.79 17.2698 23.19 16.5898 23.75 15.9498C23.59 16.6898 24.56 16.9298 24.93 16.3598C25.03 16.1998 24.97 16.0098 24.89 15.8398C25.04 15.9398 25.15 16.0798 25.21 16.2498C25.42 16.8498 24.72 17.1698 24.44 17.2098H24.45V17.2198ZM26.68 15.3298C26.68 15.2298 26.75 15.1398 26.86 15.1398H26.87C26.97 15.1398 27.06 15.2198 27.06 15.3298C27.06 15.4298 26.98 15.5198 26.87 15.5198C26.77 15.5198 26.68 15.4398 26.68 15.3298ZM11.7 16.8698C10.35 17.0098 10.01 18.8198 10.68 19.2698C10.98 19.4898 11.35 19.5898 11.73 19.5498C13.03 19.4098 13.42 17.6898 12.72 17.1698C12.42 16.9598 12.06 16.8498 11.7 16.8698ZM12.45 11.8098C6.53999 15.4498 2.84999 18.6698 3.47999 19.9198C3.48999 19.9598 3.51999 20.0098 3.54999 20.0398C4.16999 20.8098 6.70999 20.4998 10.35 19.3798C10.01 19.0698 9.80999 18.6398 9.77999 18.1698C8.21999 18.3898 7.20999 18.2598 6.91999 17.6898C6.43999 16.7098 8.38999 14.6598 11.81 12.2398C12.02 12.0998 12.22 11.9498 12.44 11.8098H12.45ZM11.47 9.50976C11.5 8.79976 10.82 8.62976 10.52 8.70976C9.97999 8.84976 9.71999 9.15976 9.66999 9.69976C9.59999 9.95976 9.70999 10.2198 9.94999 10.3498C10.16 10.4898 10.41 10.5398 10.66 10.4898C11.12 10.3898 11.46 9.98976 11.47 9.50976ZM30.39 2.94976C34.42 1.61976 37.3 1.28976 37.8 2.26976C38.37 3.37976 35.76 5.91976 31.42 8.73976V8.68976C31.13 3.59976 26.77 -0.290244 21.69 0.019756C16.61 0.319756 12.72 4.66976 13.02 9.74976C13.17 12.2898 14.35 14.6498 16.3 16.2798L16.32 16.2998H16.33C15.24 16.7298 14.22 17.0698 13.26 17.3598C13.36 17.5798 13.41 17.8198 13.41 18.0698C13.41 18.1698 13.4 18.2498 13.38 18.3498C14.54 17.9098 15.79 17.4198 17.08 16.8798C19.33 15.9398 21.73 14.8398 24.19 13.5998C26.79 12.2998 29.23 10.9698 31.42 9.67976C37.87 5.83976 42.08 2.35976 41.69 0.949756C41.68 0.889756 41.66 0.859756 41.65 0.819756C41.02 -0.450244 36.22 0.579756 29.74 3.14976C29.95 3.07976 30.15 3.01976 30.36 2.93976C30.36 2.93976 30.37 2.93642 30.39 2.92976V2.94976ZM22.59 7.67976C22.38 7.67976 22.21 7.50976 22.21 7.29976C22.22 7.07976 22.41 6.91976 22.62 6.92976C22.81 6.93976 22.97 7.08976 22.98 7.28976C22.98 7.49976 22.81 7.66976 22.6 7.66976L22.59 7.67976ZM28.48 7.16976C28.38 6.81976 28.05 6.68976 27.68 6.59976C28 6.49976 28.34 6.51976 28.64 6.63976C29.77 7.06976 29.38 8.46976 29.1 8.89976C28.36 9.90976 26.66 9.91976 26.45 8.35976C27.32 9.46976 28.84 8.38976 28.47 7.16976H28.48ZM20.25 12.8198C20.25 12.6098 20.43 12.4398 20.63 12.4398C20.84 12.4398 21.01 12.6098 21.01 12.8198C21.01 13.0298 20.84 13.1998 20.63 13.2098C20.42 13.2098 20.25 13.0398 20.25 12.8298V12.8198ZM16.52 7.29976C16.52 7.39976 16.43 7.48976 16.33 7.48976C16.23 7.48976 16.14 7.39976 16.14 7.29976C16.14 7.19976 16.23 7.10976 16.33 7.10976C16.43 7.10976 16.51 7.17976 16.52 7.28976V7.29976ZM15.55 9.71976C16.21 9.03976 17.49 9.20976 17.49 10.3998C16.96 9.45976 15.7 10.1198 15.85 11.0798C15.89 11.3598 16.13 11.4798 16.38 11.5898C16.13 11.6298 15.88 11.5898 15.66 11.4598C14.86 11.0098 15.3 10.0098 15.56 9.70976L15.55 9.71976ZM18.75 4.55976C18.34 4.55976 18.01 4.22976 18.01 3.81976C18.01 3.40976 18.34 3.07976 18.75 3.07976C19.16 3.07976 19.49 3.40976 19.49 3.81976C19.49 4.22976 19.17 4.54976 18.77 4.55976H18.76H18.75ZM23.42 3.61976C23.3 3.38976 23.26 3.12976 23.29 2.87976C23.45 1.95976 24.55 2.04976 24.92 2.18976C25.8 2.58976 26.06 3.86976 24.92 4.26976C25.63 3.44976 24.58 2.46976 23.72 2.92976C23.47 3.05976 23.43 3.32976 23.4 3.60976L23.42 3.61976Z" fill="black"/>
</svg>
