<svg width="128" height="60" viewBox="0 0 128 60" fill="none" xmlns="http://www.w3.org/2000/svg">
<path d="M22.4841 15.7429C22.6984 21.6273 22.5156 27.5375 22.5792 33.4316C22.3795 35.9036 21.3381 39.1647 18.4811 39.5082L19.1206 39.2986C21.2697 38.4099 22.0909 35.3702 22.187 33.2573C22.4189 28.1633 22.0075 22.8954 22.1868 17.7834C22.1119 17.117 22.1566 16.4628 22.0416 15.7933C22.0177 15.6545 21.9966 15.2939 21.8255 15.3301L18.0451 16.501C18.0959 16.7363 18.1501 16.9791 18.1753 17.2192C18.3994 19.3535 18.2424 21.7222 18.2609 23.8881C18.2788 25.9839 18.3399 28.1073 18.3519 30.203C18.3652 32.5153 18.5938 35.0972 16.6712 36.7621C16.3542 37.0366 15.2419 37.739 14.8431 37.6805C14.7296 37.6638 14.5078 37.155 14.4514 37.0233C13.8356 35.587 13.8236 34.1298 13.7762 32.5998C13.6451 28.3604 13.7424 24.0764 13.7762 19.8351C13.7888 18.265 13.6742 16.5403 13.7726 14.9944C13.7972 14.6081 13.8789 14.1263 14.1223 13.8196L5.8869 12.5781C6.28741 13.0977 6.39545 13.7581 6.49139 14.3917C6.72845 20.431 6.32349 26.5711 6.58594 32.5998C6.7887 37.2565 7.9328 43.2897 12.0435 46.0985C15.6154 48.5391 20.3971 47.3523 23.4058 44.5861C26.5753 41.6718 27.9583 36.7664 28.1136 32.5601C28.282 27.999 28.0466 23.3279 28.1569 18.7457C28.1792 17.8193 28.0202 16.8131 28.5037 15.9767V15.9331L22.3159 15.0618L22.4841 15.7429ZM13.119 33.0391C13.1396 27.7963 13.0775 22.5435 13.1662 17.3076C13.1835 16.2819 13.0773 15.2397 13.2952 14.2338L6.61835 13.2625C6.36768 13.2537 6.40887 13.0159 6.27972 12.86L13.8181 13.929L13.6567 14.399C13.4249 20.7144 13.6234 27.0608 13.5548 33.3878C13.6902 35.7759 14.2234 38.8633 16.9026 39.5834C18.5412 40.0239 20.01 39.5344 21.0944 38.2655C21.3221 37.999 21.4866 37.6888 21.7052 37.4169C21.132 38.7169 19.754 39.9687 18.2864 40.0768C14.0912 40.3857 13.2045 36.381 13.119 33.0391ZM28.1988 16.1078C28.0693 16.5074 27.9622 16.9249 27.9354 17.3476C27.8408 18.8369 27.9039 20.5815 27.8915 22.0973C27.8625 25.6708 28.0515 29.4017 27.8932 32.9498C27.7672 35.7737 26.9564 39.0889 25.5479 41.5425C23.9587 44.3112 21.2696 46.557 18.0453 47.0471L19.874 46.4579C25.2428 44.1722 27.31 38.0053 27.5032 32.5598C27.6733 27.7686 27.3505 22.8887 27.5468 18.092C27.5704 17.5152 27.506 16.974 27.7192 16.4127L22.736 15.7089L22.5771 15.2799L28.1988 16.1078Z" fill="black"/>
<path d="M6.86682 38.2455C6.39136 36.1708 6.21442 34.2032 6.14795 32.0791C5.96466 26.2254 6.23615 20.335 6.05566 14.4789C5.95746 13.9219 5.86328 13.3228 5.47314 12.8873L1.57269 14.9744V15.0616C1.93146 15.7602 1.91974 16.5828 2.01032 17.3476C2.17303 22.83 1.78766 28.4433 2.00671 33.9107C2.24902 39.9595 5.37012 44.9941 11.55 46.287C11.5934 46.2961 11.7241 46.3356 11.7267 46.285C8.9303 44.5613 7.57422 41.3323 6.86682 38.2455Z" fill="black"/>
<path d="M69.7154 38.7866C68.8404 38.0824 68.0428 37.7441 66.6164 37.3526C65.1702 36.9556 64.2222 36.738 63.8341 36.4192C63.3871 36.0521 63.5771 35.4337 64.4167 35.3167C66.3554 35.0466 67.5705 35.5736 68.8459 36.2899C69.849 36.8532 69.8855 37.2629 70.1407 37.1989C70.3123 37.1559 70.5256 37.182 70.5053 36.7508C70.4369 35.2958 70.2281 33.5546 70.0836 32.106C70.0687 31.957 70.0314 31.6932 69.7883 31.6804C69.4819 31.6642 69.4845 31.834 68.8039 31.8596C67.9976 31.89 67.129 31.6246 66.3238 31.5743C64.7632 31.4768 63.2153 31.4823 61.7351 32.0972C60.5719 32.5804 59.7487 33.4266 59.4473 34.7394C58.8384 37.391 59.7616 39.3599 62.113 40.3952C63.0237 40.7962 63.6801 40.9692 64.6172 41.3066C65.1638 41.5034 65.8703 41.6653 66.3739 41.962C66.9203 42.2841 67.1628 42.6312 66.9312 43.0316C66.6026 43.5994 65.6657 43.6928 64.3842 43.4504C62.7001 43.1318 60.8161 42.1913 60.0957 41.4502C59.8272 41.174 59.7735 41.0436 59.6592 40.9285C59.6035 40.8724 59.2436 40.919 59.1698 41.0014C59.129 41.2519 59.4862 44.9863 59.6348 46.3951C59.6709 46.7377 59.8026 47.0165 60.1739 46.8061C60.7032 46.5063 61.2132 46.6201 61.7528 46.7386C62.9549 47.0024 63.5185 47.3036 65.4017 47.3686C66.0895 47.3008 66.7864 47.2853 67.4633 47.1548C69.1869 46.8228 70.6559 45.7764 71.0915 44.0871C71.5368 42.1755 71.3804 40.1267 69.7154 38.7866Z" fill="black"/>
<path d="M125.41 38.7866C124.535 38.0824 123.737 37.7441 122.311 37.3526C120.865 36.9556 119.917 36.738 119.529 36.4192C119.082 36.0521 119.272 35.4337 120.111 35.3167C122.05 35.0466 123.265 35.5736 124.541 36.2899C125.544 36.8532 125.58 37.2629 125.835 37.1989C126.007 37.1559 126.22 37.182 126.2 36.7508C126.132 35.2958 125.923 33.5546 125.778 32.106C125.763 31.957 125.726 31.6932 125.483 31.6804C125.177 31.6642 125.179 31.834 124.499 31.8596C123.692 31.89 122.824 31.6246 122.018 31.5743C120.458 31.4768 118.91 31.4823 117.43 32.0972C116.267 32.5804 115.443 33.4266 115.142 34.7394C114.533 37.391 115.456 39.3599 117.808 40.3952C118.718 40.7962 119.375 40.9692 120.312 41.3066C120.858 41.5034 121.565 41.6653 122.069 41.962C122.615 42.2841 122.857 42.6312 122.626 43.0316C122.297 43.5994 121.36 43.6928 120.079 43.4504C118.395 43.1318 116.511 42.1913 115.79 41.4502C115.522 41.174 115.468 41.0436 115.354 40.9285C115.298 40.8724 114.938 40.919 114.864 41.0014C114.824 41.2519 115.181 44.9863 115.329 46.3951C115.366 46.7377 115.497 47.0165 115.869 46.8061C116.398 46.5063 116.908 46.6201 117.447 46.7386C118.65 47.0024 119.213 47.3036 121.096 47.3686C121.784 47.3008 122.481 47.2853 123.158 47.1548C124.881 46.8228 126.351 45.7764 126.786 44.0871C127.231 42.1755 127.075 40.1267 125.41 38.7866Z" fill="black"/>
<path d="M83.0394 42.4775C82.2977 42.993 81.6571 43.1151 80.9007 43.1978C79.7897 43.3192 78.4765 43.2402 77.354 43.2402C76.9449 43.2402 76.9824 43.2161 76.9824 42.6547C76.9824 40.2493 76.9437 37.842 77.0222 35.4393C77.0544 34.4561 77.0937 33.7786 77.3056 33.1562C77.4754 32.6571 77.6771 32.4214 77.7521 32.2242C77.8212 32.0424 77.7103 31.8685 77.5427 31.8095C77.4627 31.7814 77.3567 31.7731 77.2249 31.7731C76.5139 31.7731 75.5975 31.7696 74.8864 31.7696V31.7715C74.1378 31.7715 73.2602 31.757 72.5122 31.7766C72.4236 31.7789 72.2837 31.7931 72.2224 31.8176C72.0466 31.8879 71.9859 32.0978 72.1257 32.2913C72.3053 32.5398 72.4769 32.9218 72.5606 33.2048C72.7603 33.8809 72.7915 34.5926 72.8023 35.2936C72.8452 38.0532 72.8549 40.8148 72.7949 43.5737C72.783 44.1272 72.744 44.7846 72.6212 45.335C72.5469 45.6675 72.5015 45.7891 72.3224 46.1166C72.2464 46.2559 72.0257 46.4403 72.0491 46.5937C72.0709 46.7372 72.146 46.8432 72.3194 46.9863C72.456 47.0991 72.5942 47.0854 72.7769 47.0859C74.929 47.0923 77.1699 47.0646 79.3215 47.0997C79.9922 47.1106 80.9229 47.086 81.5923 47.1519C81.9462 47.1867 82.2463 47.248 82.6195 47.3938C83.1286 47.4653 83.0851 47.2307 83.1595 46.7673C83.3591 45.5241 83.5192 44.2733 83.7541 43.0371C83.8518 42.5225 83.892 42.4078 83.7551 42.3194C83.4884 42.1471 83.5389 42.1302 83.0394 42.4775Z" fill="black"/>
<path d="M98.086 33.3997C97.3804 32.7568 96.5572 32.2817 95.6168 31.9748C94.6754 31.6678 93.6792 31.5146 92.6284 31.5146H92.3582C91.2929 31.5146 90.2897 31.6678 89.3491 31.9748C88.408 32.2817 87.585 32.7568 86.8793 33.3997C86.1738 34.043 85.6134 34.8613 85.1984 35.8548C84.7833 36.8489 84.5758 38.0249 84.5758 39.3841V39.4938C84.5758 40.853 84.7833 42.0258 85.1984 43.012C85.6134 43.9986 86.1738 44.8133 86.8793 45.4564C87.585 46.0995 88.408 46.5743 89.3491 46.8812C90.2897 47.1879 91.2929 47.3414 92.3582 47.3414H92.6284C93.6792 47.3414 94.6754 47.1879 95.6168 46.8812C96.5572 46.5743 97.3804 46.0995 98.086 45.4564C98.7921 44.8133 99.3524 43.9986 99.7673 43.012C100.182 42.0258 100.39 40.853 100.39 39.4938V39.3841C100.39 38.0249 100.182 36.8489 99.7673 35.8548C99.3524 34.8613 98.7921 34.043 98.086 33.3997ZM95.8348 41.0632C95.6686 41.5638 95.4346 41.9964 95.1332 42.3602C94.8313 42.7245 94.4684 43.0039 94.0437 43.1992C93.6189 43.3942 93.1415 43.4918 92.6124 43.4918H92.372C91.8425 43.4918 91.3626 43.3942 90.9317 43.1992C90.5005 43.0039 90.1343 42.7245 89.8328 42.3602C89.5309 41.9964 89.2972 41.5638 89.131 41.0632C88.9648 40.5626 88.8817 40.0066 88.8817 39.3951C88.8817 38.7971 88.9648 38.2443 89.131 37.7371C89.2972 37.23 89.5309 36.7977 89.8328 36.4399C90.1343 36.0823 90.5005 35.8029 90.9317 35.6011C91.3626 35.3997 91.8425 35.2986 92.372 35.2986H92.6124C93.1415 35.2986 93.6189 35.3997 94.0437 35.6011C94.4684 35.8029 94.8313 36.0823 95.1332 36.4399C95.4346 36.7977 95.6686 37.23 95.8348 37.7371C96.001 38.2443 96.0841 38.7971 96.0841 39.3951C96.0841 40.0066 96.001 40.5626 95.8348 41.0632Z" fill="black"/>
<path d="M112.914 31.7526C112.847 31.3265 112.304 31.5068 112.15 31.5267C110.717 31.7118 109.125 31.7718 107.188 31.769C105.505 31.7748 103.875 31.716 102.409 31.5267C102.256 31.5068 101.712 31.3265 101.645 31.7526C101.427 33.1307 101.16 34.567 100.95 35.9468C100.93 36.0817 100.877 36.4497 100.946 36.5093C100.982 36.5403 101.292 36.5749 101.418 36.5352C101.486 36.5135 101.753 36.2444 101.968 36.1226C102.788 35.6584 104.038 35.5774 104.465 35.5552C104.962 35.5295 105.209 35.7369 105.205 36.1776C105.187 38.6203 105.224 41.0638 105.174 43.5055C105.153 44.5369 105.18 45.6033 104.556 46.3511C104.319 46.6352 104.362 46.713 104.479 46.8889C104.608 47.0826 104.616 47.0732 104.841 47.0732C105.555 47.0732 106.29 47.0762 107.027 47.0778C107.067 47.0778 107.103 47.0782 107.142 47.0781C107.166 47.0782 107.189 47.0783 107.213 47.0783C108.233 47.0767 108.989 47.0732 109.718 47.0732C109.943 47.0732 109.952 47.0826 110.08 46.8889C110.197 46.713 110.241 46.6352 110.004 46.3511C109.379 45.6033 109.406 44.5369 109.385 43.5055C109.335 41.0638 109.372 38.6203 109.354 36.1776C109.35 35.7369 109.597 35.5295 110.094 35.5552C110.521 35.5774 111.771 35.6584 112.591 36.1226C112.806 36.2444 113.073 36.5135 113.142 36.5352C113.268 36.5749 113.578 36.5403 113.613 36.5093C113.682 36.4497 113.63 36.0817 113.609 35.9468C113.399 34.567 113.132 33.1307 112.914 31.7526Z" fill="black"/>
<path d="M51.7857 32.5998C52.0482 26.5711 51.6432 20.431 51.8802 14.3917C51.9762 13.7581 52.0842 13.0977 52.4847 12.5781L44.2494 13.8196C44.4927 14.1263 44.5744 14.6081 44.599 14.9944C44.6974 16.5403 44.5828 18.265 44.5954 19.8351C44.6293 24.0764 44.7266 28.3604 44.5954 32.5998C44.548 34.1298 44.536 35.587 43.9203 37.0233C43.8638 37.155 43.642 37.6638 43.5284 37.6805C43.1297 37.739 42.0174 37.0366 41.7004 36.7621C39.7778 35.0972 40.0065 32.5153 40.0197 30.203C40.0317 28.1073 40.0928 25.9839 40.1107 23.8881C40.1293 21.7222 39.9722 19.3535 40.1964 17.2192C40.2216 16.9791 40.2757 16.7363 40.3265 16.501L36.5461 15.3301C36.375 15.2939 36.3539 15.6545 36.3301 15.7933C36.2151 16.4628 36.2598 17.117 36.1849 17.7834C36.3641 22.8954 35.9528 28.1633 36.1846 33.2573C36.2808 35.3702 37.1019 38.4099 39.251 39.2986L39.8906 39.5082C37.0335 39.1647 35.9922 35.9036 35.7924 33.4316C35.8561 27.5375 35.6732 21.6273 35.8875 15.7429L36.0558 15.0618L29.8679 15.9331V15.9767C30.3514 16.8131 30.1924 17.8193 30.2147 18.7457C30.3251 23.3279 30.0897 27.999 30.2581 32.5601C30.4133 36.7664 31.7963 41.6718 34.9659 44.5861C37.9745 47.3523 42.7562 48.5391 46.3281 46.0985C50.4388 43.2897 51.5829 37.2565 51.7857 32.5998ZM32.8237 41.5425C31.4153 39.0889 30.6045 35.7737 30.4785 32.9498C30.3201 29.4017 30.5092 25.6708 30.4801 22.0973C30.4678 20.5815 30.5309 18.8369 30.4363 17.3476C30.4094 16.9249 30.3024 16.5074 30.1729 16.1078L35.7944 15.2799L35.6357 15.7089L30.6525 16.4127C30.8656 16.974 30.8012 17.5152 30.8248 18.092C31.0211 22.8887 30.6984 27.7686 30.8684 32.5598C31.0616 38.0053 33.1288 44.1722 38.4977 46.4579L40.3264 47.0471C37.1021 46.557 34.413 44.3112 32.8237 41.5425ZM45.2054 17.3076C45.2941 22.5435 45.2321 27.7963 45.2526 33.0391C45.1671 36.381 44.2805 40.3857 40.0852 40.0768C38.6177 39.9687 37.2396 38.7169 36.6664 37.4169C36.885 37.6888 37.0496 37.999 37.2773 38.2655C38.3616 39.5344 39.8304 40.0239 41.469 39.5834C44.1482 38.8633 44.6814 35.7759 44.8168 33.3878C44.7482 27.0608 44.9468 20.7144 44.715 14.399L44.5536 13.929L52.0919 12.86C51.9628 13.0159 52.004 13.2537 51.7533 13.2625L45.0764 14.2338C45.2943 15.2397 45.1881 16.2819 45.2054 17.3076Z" fill="black"/>
<path d="M52.316 14.4789C52.1355 20.335 52.407 26.2254 52.2237 32.0791C52.1572 34.2032 51.9803 36.1708 51.5048 38.2455C50.7974 41.3323 49.4413 44.5613 46.6449 46.285C46.6475 46.3356 46.7782 46.2961 46.8216 46.287C53.0015 44.9941 56.1226 39.9595 56.3649 33.9107C56.584 28.4433 56.1986 22.83 56.3613 17.3476C56.4518 16.5828 56.4402 15.7602 56.7989 15.0616V14.9744L52.8985 12.8873C52.5084 13.3228 52.4142 13.9219 52.316 14.4789Z" fill="black"/>
</svg>
