<svg width="118" height="61" viewBox="0 0 118 61" fill="none" xmlns="http://www.w3.org/2000/svg">
<path d="M45.82 21.7299V18.4299H58.46V21.7299H45.82ZM45.82 26.6799V23.3799H58.46V26.6799H49.13V31.4399H45.84V26.6799H45.82ZM59.52 18.3399H62.8V28.1599H68.69V18.3399H71.97V27.7399L68.69 31.4399H62.8L59.52 27.7399V18.3399ZM91.56 24.5799L96.59 18.3799H100.49L95.12 25.0799H95.18L100.55 31.4399H96.65L91.55 25.4799V31.4399H88.27V18.5399H91.56V24.5799ZM101.63 18.2199H105.9L109.28 22.0499L112.42 18.2899H116.7L105.7 31.4399H101.44L107.21 24.5299H107.19L101.63 18.2199ZM116.35 33.6599V36.9399H107.18V38.7499H116.35V42.9999L113.39 46.7899H103.78V43.4999H113.07V42.0299H107.17L103.8 38.8799V36.7399L106.3 33.6599H116.35ZM90.2 33.6599V46.7899H102.2V43.4999H93.48V36.9299H102.2V33.6499H90.2V33.6599ZM102.2 38.6399V41.9199H95.06V38.6399H102.2ZM80.68 41.8299L73.14 34.2299V46.7799H76.43V42.1999L80.63 46.4299L85.33 41.8499V46.6799H88.61V33.9999L80.68 41.8299ZM59.43 33.4299L59.47 38.1099L59.54 38.1799H59.52V46.7799H62.8V41.7799L67.1 46.5399H71.74L59.44 33.4299H59.43ZM58.1 33.5399L55.21 36.8299H49.11V43.4999H54.65V41.7999H52.95L50.29 38.5199H57.93V46.7899H49.1L45.82 42.8299V33.5399H58.1ZM83.18 18.4199H86.46V31.4399H82.08L76.95 26.5399V31.4399H73.67V18.7499L83.17 27.9099V18.4199H83.18ZM1.78999 39.0299C-0.410012 34.3099 1.44999 31.1699 2.95999 29.8999C3.21999 29.6799 3.37999 29.3699 3.40999 29.0399C3.55999 27.4699 4.69999 24.1999 8.50999 20.2599C13.46 15.1399 18.97 14.7199 22.36 14.4599C22.66 14.4499 22.94 14.4299 23.2 14.3999C25.65 14.1999 28.1 12.3199 29.2 11.2499C29.27 11.1799 29.4 11.2299 29.4 11.3299V15.8699L29.5 15.9299C29.83 16.1199 30.7 16.6099 31.92 18.1099C31.99 18.1899 31.9 18.3099 31.8 18.2799C18.11 14.6499 13.1 20.6199 10.66 23.5399C10.56 23.6399 10.48 23.7499 10.39 23.8599C8.9336 25.6411 7.92849 27.7473 7.45999 29.9999H8.49999C8.49999 26.1199 15.16 18.9399 25.61 18.9399C35.37 18.9399 38.07 24.5899 39.35 27.2599L39.53 27.6399C39.58 27.7399 39.64 27.8199 39.71 27.8899C40.447 28.5849 41.0224 29.4332 41.3956 30.3749C41.7689 31.3166 41.9308 32.3288 41.87 33.3399V33.5399C41.87 34.4999 41.17 35.7699 40.15 37.3699C40.0726 37.497 40.0279 37.6413 40.02 37.7899C39.75 41.4599 33.25 49.6599 23.77 49.6599C15.37 49.6599 11.58 44.6099 9.86999 42.3199L9.34999 41.6499C9.33345 41.6266 9.31211 41.6071 9.28742 41.5928C9.26272 41.5784 9.23523 41.5695 9.20681 41.5667C9.17839 41.5639 9.14968 41.5671 9.12263 41.5763C9.09558 41.5855 9.07081 41.6004 9.04999 41.6199C8.16999 42.3199 4.57999 44.9999 1.78999 39.0199V39.0299ZM19.15 24.5299C17.3436 24.6233 15.6443 25.4152 14.411 26.7383C13.1777 28.0615 12.5071 29.8122 12.5409 31.6207C12.5746 33.4292 13.3101 35.1537 14.5919 36.4299C15.8737 37.7061 17.6014 38.434 19.41 38.4599L19.51 39.5299C19.7208 41.549 20.7204 43.4032 22.2913 44.689C23.8623 45.9748 25.8775 46.5882 27.8984 46.3957C29.9193 46.2033 31.7825 45.2205 33.0825 43.6613C34.3825 42.102 35.0141 40.0925 34.84 38.0699L34.72 36.8199C36.0717 36.0275 37.1169 34.8028 37.6871 33.3435C38.2573 31.8841 38.3192 30.2752 37.8627 28.7763C37.4062 27.2775 36.4581 25.9761 35.1712 25.0823C33.8844 24.1885 32.3339 23.7544 30.77 23.8499L19.15 24.5299ZM6.55999 35.2099C6.74999 36.1499 6.63999 36.9999 6.37999 37.6099C6.11999 38.2299 5.73999 38.5099 5.41999 38.5699C5.08999 38.6399 4.63999 38.5199 4.15999 38.0499C3.59993 37.4499 3.22794 36.699 3.08999 35.8899C2.91458 35.0895 2.97715 34.2552 3.26999 33.4899C3.52999 32.8599 3.89999 32.5899 4.22999 32.5199C4.55999 32.4599 5.00999 32.5699 5.48999 33.0499C5.95999 33.5199 6.37999 34.2699 6.55999 35.2099ZM7.35999 35.0899C7.78999 37.3099 7.11999 39.2799 5.60999 39.5699C4.10999 39.8699 2.51999 38.3099 2.08999 36.0899C1.64999 33.8599 2.51999 31.8199 4.03999 31.5199C5.53999 31.2199 6.91999 32.8699 7.34999 35.0899H7.35999Z" fill="black"/>
<path d="M31.4401 35.6998C32.1039 35.7017 32.7614 35.57 33.3733 35.3126C33.9853 35.0553 34.5392 34.6774 35.0021 34.2016C35.4651 33.7258 35.8276 33.1617 36.068 32.5429C36.3085 31.9241 36.4221 31.2633 36.402 30.5997C36.3818 29.9362 36.2284 29.2834 35.9509 28.6804C35.6733 28.0773 35.2773 27.5362 34.7864 27.0893C34.2955 26.6424 33.7197 26.2989 33.0932 26.079C32.4668 25.8592 31.8026 25.7677 31.1401 25.8098L19.7701 26.5598H19.5701L19.5101 26.5698C18.6739 26.6528 17.8726 26.9473 17.1818 27.4256C16.4909 27.9039 15.9331 28.5501 15.561 29.3035C15.1889 30.0569 15.0147 30.8926 15.0548 31.732C15.095 32.5713 15.3481 33.3866 15.7904 34.101C16.2327 34.8155 16.8495 35.4056 17.5829 35.8157C18.3163 36.2259 19.142 36.4427 19.9822 36.4455C20.8225 36.4484 21.6497 36.2373 22.3858 35.8322C23.122 35.4271 23.7429 34.8412 24.1901 34.1298L27.8001 34.0998C28.7001 35.0798 30.0001 35.6998 31.4401 35.6998ZM19.5401 28.1798L20.8201 28.0798L20.9801 30.2798L23.1801 30.1198L23.2801 31.3998L21.0801 31.5698L21.2401 33.7698L19.9601 33.8698L19.7901 31.6698L17.5901 31.8298L17.4901 30.5498L19.6901 30.3798L19.5301 28.1798H19.5401ZM32.1601 27.1698L31.5001 27.2098L31.5401 27.8498L30.9001 27.8898L30.9401 28.5498L31.5801 28.5098L31.6201 29.1498L32.2801 29.1098L32.2401 28.4698L32.8801 28.4298L32.8401 27.7698L32.2001 27.8098L32.1601 27.1698ZM31.7401 31.1698L32.4101 31.1398L32.4501 31.7798L33.0901 31.7398L33.1301 32.3998L32.4901 32.4398L32.5301 33.0798L31.8601 33.1198L31.8201 32.4798L31.1801 32.5198L31.1401 31.8598L31.7801 31.8198L31.7401 31.1798V31.1698ZM34.1401 29.0398L33.4801 29.0798L33.5201 29.7198L32.8801 29.7598L32.9201 30.4198L33.5601 30.3898L33.6001 31.0298L34.2601 30.9898L34.2301 30.3498L34.8701 30.3098L34.8201 29.6398L34.1801 29.6798L34.1501 29.0398H34.1401ZM29.7601 29.3098L30.4301 29.2698L30.4701 29.9098L31.1101 29.8698L31.1501 30.5298L30.5101 30.5698L30.5501 31.2098L29.8801 31.2498L29.8401 30.6098L29.2001 30.6498L29.1601 29.9898L29.8001 29.9498L29.7601 29.3098Z" fill="black"/>
</svg>
