<svg width="110" height="61" viewBox="0 0 110 61" fill="none" xmlns="http://www.w3.org/2000/svg">
<path d="M31.261 19.6764C31.4361 19.6764 31.5237 19.6764 31.6988 19.6764C34.0631 19.6764 36.5149 19.6764 38.8792 19.6764C38.9668 19.6764 39.0543 19.6764 39.2295 19.6764C35.9895 22.9164 32.7496 26.0687 29.5097 29.2211C32.2242 33.3367 34.9387 37.5399 37.6533 41.743C36.9528 41.743 36.3398 41.743 35.7268 41.743C35.0263 41.743 34.4134 41.743 33.7128 41.743C33.6253 41.743 33.5377 41.743 33.3626 41.743C32.3993 41.743 31.5237 41.743 30.5605 41.743C30.4729 41.743 30.3853 41.6554 30.3853 41.6554C28.4589 41.3928 26.9703 40.5171 25.8319 38.9409C25.2189 38.0653 24.6936 37.1896 24.0806 36.3139C23.8179 35.9637 23.6428 35.6134 23.2925 35.1756C23.2049 35.3507 23.1174 35.4383 23.1174 35.5258C21.1034 37.5399 19.0893 39.5539 17.1629 41.4803C17.0753 41.5679 16.9002 41.6554 16.7251 41.6554C15.4116 41.6554 14.1857 41.6554 12.8722 41.6554C12.1716 41.6554 11.3836 41.6554 10.683 41.6554C7.70579 41.6554 4.81612 41.6554 1.83888 41.6554C1.92645 41.3928 1.92645 41.1301 2.01401 40.8674C2.80211 36.7518 3.5902 32.7237 4.29072 28.6081C4.29072 28.5206 4.29072 28.3454 4.37829 28.1703C3.85289 28.433 3.3275 28.6957 2.88967 28.8708C1.92645 29.3087 0.963224 29.7465 0 30.1843C0 29.046 0 27.9076 0 26.8568C0 26.1563 1.95725e-08 25.3682 0.0875658 24.6677C0.0875658 24.4926 0.175132 24.3174 0.350263 24.2299C2.45184 22.9164 4.46585 21.6029 6.56743 20.2894C7.00526 20.0267 7.44309 19.6764 7.88092 19.4137C9.54467 19.4137 11.2084 19.4137 12.8722 19.4137C12.8722 19.5013 12.8722 19.6764 12.8722 19.764C12.4343 22.0407 12.0841 24.2299 11.6462 26.5066C10.9457 30.2719 10.2452 33.9497 9.54467 37.715C9.4571 38.3279 9.28197 38.9409 9.19441 39.6414C9.54467 39.2912 9.89493 38.9409 10.2452 38.5906C13.31 35.5258 16.3748 32.461 19.4396 29.3962C22.7671 26.0687 26.1822 22.6537 29.5097 19.3262C30.0351 19.6764 30.648 19.6764 31.261 19.6764Z" fill="black"/>
<path d="M109.983 19.9401C109.807 20.6406 109.72 21.3411 109.545 21.9541C109.37 23.0049 109.107 23.9681 108.932 25.0189C108.844 25.2816 108.757 25.3692 108.582 25.3692C105.517 25.3692 102.452 25.3692 99.3871 25.3692C99.1244 25.3692 98.9493 25.4567 98.9493 25.7194C98.8617 26.42 98.6866 27.1205 98.5114 27.821C101.489 27.821 104.466 27.821 107.443 27.821C107.093 29.7475 106.743 31.5863 106.392 33.4252C106.217 33.4252 106.13 33.4252 106.042 33.4252C103.328 33.4252 100.613 33.4252 97.8985 33.4252C97.6358 33.4252 97.5482 33.5128 97.4606 33.7755C97.3731 34.476 97.1979 35.1765 97.0228 35.9646C100.438 35.9646 103.765 35.9646 107.18 35.9646C107.093 36.49 107.005 37.0154 106.918 37.5408C106.655 38.8543 106.392 40.1678 106.13 41.5688C106.13 41.744 106.042 41.8315 105.779 41.8315C100 41.8315 94.3083 41.8315 88.5289 41.8315C88.4414 41.8315 88.3538 41.8315 88.2662 41.8315C88.3538 41.131 88.5289 40.518 88.6165 39.8175C89.4922 35.089 90.3678 30.448 91.2435 25.7194C91.5937 23.8806 91.944 21.9541 92.2943 20.1152C92.2943 20.0277 92.2943 19.9401 92.2943 19.8525C98.0736 19.8525 103.853 19.8525 109.632 19.8525C109.807 19.6774 110.07 19.6774 109.983 19.9401Z" fill="black"/>
<path d="M91.5937 19.6768C88.7041 24.8431 85.8144 30.0095 82.8372 35.0883C81.6988 37.1899 80.4729 39.2039 79.3345 41.3055C79.1594 41.5682 79.0718 41.6558 78.7216 41.6558C76.0946 41.6558 73.4676 41.6558 70.7531 41.6558C70.4904 41.6558 70.4028 41.5682 70.3153 41.3055C69.1769 35.351 68.0385 29.4841 66.8126 23.5297C66.5499 22.2162 66.2872 20.9027 66.0245 19.6768C68.6515 19.6768 71.366 19.6768 73.993 19.6768C74.0806 20.64 74.2557 21.6908 74.3433 22.654C74.6935 25.7188 75.0438 28.8712 75.3941 31.936C75.4816 32.6365 75.5692 33.4246 75.6568 34.2127C75.7443 34.0375 75.8319 33.95 75.8319 33.8624C77.8459 29.7468 79.9475 25.6312 81.9615 21.4281C82.2242 20.8151 82.4869 20.2897 82.8372 19.6768C85.902 19.6768 88.7916 19.6768 91.5937 19.6768Z" fill="black"/>
<path d="M47.373 19.6755C47.1979 20.7262 47.0227 21.8646 46.76 22.9154C46.1471 26.1553 45.5341 29.3953 44.9212 32.6352C44.746 33.5108 44.5709 34.2989 44.4833 35.1746C44.4833 35.2622 44.4833 35.3497 44.4833 35.4373C47.4606 35.4373 50.3502 35.4373 53.3275 35.4373C53.2399 36.0503 53.1524 36.5757 52.9772 37.101C52.7145 38.5021 52.4518 39.9032 52.1891 41.3042C52.1891 41.4793 52.1016 41.5669 51.8389 41.5669C47.7233 41.5669 43.6077 41.5669 39.4921 41.5669C39.4045 41.5669 39.2294 41.4793 39.1418 41.3918C38.1786 39.9907 37.3029 38.5897 36.4273 37.1886C36.3397 37.101 36.3397 36.9259 36.3397 36.7508C37.0402 33.1606 37.7408 29.5704 38.3537 25.9802C38.704 23.9662 39.1418 21.8646 39.4921 19.8506C39.4921 19.763 39.4921 19.6755 39.5797 19.5879C42.2066 19.6755 44.8336 19.6755 47.373 19.6755Z" fill="black"/>
<path d="M65.4116 19.6768C65.0613 21.6032 64.7111 23.5297 64.3608 25.4561C63.3976 30.71 62.4344 35.964 61.4711 41.3055C61.3836 41.6558 61.296 41.7433 60.9457 41.7433C58.669 41.7433 56.3047 41.7433 54.028 41.7433C53.9405 41.7433 53.7653 41.7433 53.5902 41.7433C53.6778 41.3055 53.7653 40.8677 53.8529 40.4298C54.9913 34.3002 56.1296 28.1706 57.268 22.041C57.4431 21.2529 57.5307 20.5524 57.7058 19.7643C60.2452 19.6768 62.7846 19.6768 65.4116 19.6768Z" fill="black"/>
<path d="M19.0017 19.6768C19.4395 19.6768 19.8774 19.6768 20.4028 19.6768C22.2416 19.7643 23.8178 20.4649 25.0438 21.7783C25.0438 21.7783 25.1313 21.8659 25.0438 21.8659C23.0297 23.9675 20.9282 26.0691 18.9141 28.1706C16.9877 25.281 15.1488 22.4789 13.3099 19.6768C15.2364 19.6768 17.1628 19.6768 19.0017 19.6768Z" fill="black"/>
</svg>
