<svg width="122" height="60" viewBox="0 0 122 60" fill="none" xmlns="http://www.w3.org/2000/svg">
<path d="M44.0563 41.0309V48.7853C45.1949 48.7853 46.119 47.8612 46.1401 46.7227V45.8862H48.6105C49.7702 45.8862 50.6934 44.94 50.6934 43.8236H46.1401V42.0617H53.6801C54.2269 42.0615 54.7511 41.8442 55.1377 41.4576C55.5243 41.071 55.7416 40.5467 55.7419 40H45.0872C44.5294 40 44.0563 40.451 44.0563 41.0309Z" fill="black"/>
<path d="M97.4373 42.2755V48.7633C98.597 48.7633 99.5202 47.8392 99.499 46.7006V42.2755H102.954C104.093 42.2755 105.038 41.3523 105.038 40.2138H91.9352C91.9355 40.7606 92.1529 41.285 92.5397 41.6717C92.9265 42.0583 93.451 42.2755 93.9979 42.2755H97.4373Z" fill="black"/>
<path d="M0.494249 48.676C0.666355 48.7837 0.837579 48.8261 1.03087 48.8261C1.20401 48.8268 1.37434 48.7824 1.52512 48.6972L6.74477 45.948L11.9644 48.6972C12.2866 48.8702 12.674 48.8702 12.9741 48.676C13.2742 48.5039 13.4684 48.1606 13.4684 47.7952V40.2985C12.9213 40.2985 12.3967 40.5158 12.0099 40.9026C11.623 41.2894 11.4057 41.8141 11.4057 42.3611V46.0556L7.21784 43.843C6.91687 43.6929 6.55148 43.6929 6.25051 43.843L2.06262 46.0556V42.3611C2.06262 41.8141 1.84531 41.2894 1.45849 40.9026C1.07167 40.5158 0.54704 40.2985 0 40.2985V47.7952C0.00147486 47.9718 0.0475559 48.1451 0.133966 48.2991C0.220376 48.4531 0.344309 48.5828 0.494249 48.676Z" fill="black"/>
<path d="M78.8561 48.5481C79.0061 48.6337 79.1782 48.6769 79.3494 48.6769C79.5394 48.6806 79.7263 48.6275 79.8869 48.526C80.2091 48.3548 80.4024 48.0106 80.4024 47.6452V40.2138C79.8555 40.2138 79.331 40.4309 78.9442 40.8176C78.5574 41.2042 78.34 41.7286 78.3398 42.2755V45.8844L68.4803 40.4715C68.3215 40.385 68.1429 40.3414 67.9621 40.3451C67.7813 40.3488 67.6046 40.3997 67.4494 40.4927C67.1273 40.6648 66.934 41.0081 66.934 41.3735V48.7837C67.4809 48.7837 68.0054 48.5665 68.3922 48.1799C68.779 47.7933 68.9964 47.2689 68.9966 46.722V43.1351L78.8561 48.5481Z" fill="black"/>
<path d="M37.5481 48.5481C37.6989 48.6332 37.8692 48.6776 38.0424 48.6769C38.2136 48.6769 38.4078 48.6337 38.5578 48.526C38.8791 48.3548 39.0732 48.0106 39.0732 47.6452V40.2138C38.8024 40.2136 38.5341 40.2669 38.2838 40.3704C38.0335 40.474 37.8061 40.6258 37.6145 40.8173C37.4229 41.0087 37.2708 41.236 37.1671 41.4862C37.0633 41.7364 37.0098 42.0046 37.0097 42.2755V45.8844L27.1724 40.4715C27.0135 40.3851 26.8349 40.3416 26.6541 40.3453C26.4733 40.349 26.2966 40.3998 26.1415 40.4927C25.8193 40.6648 25.6252 41.0081 25.6252 41.3735V48.7837C26.1721 48.7837 26.6966 48.5665 27.0834 48.1799C27.4701 47.7933 27.6876 47.2689 27.6878 46.722V43.1351L37.5481 48.5481Z" fill="black"/>
<path d="M18.7118 42.2755V48.7837C19.85 48.7832 20.7947 47.8602 20.7736 46.722V40.2138C20.2268 40.214 19.7026 40.4313 19.316 40.8179C18.9294 41.2045 18.7121 41.7288 18.7118 42.2755Z" fill="black"/>
<path d="M59.8874 42.2755V48.7837C61.0471 48.7837 61.9703 47.8605 61.9491 46.722V40.2138C61.4024 40.214 60.8781 40.4313 60.4915 40.8179C60.1049 41.2045 59.8876 41.7288 59.8874 42.2755Z" fill="black"/>
<path d="M85.4702 42.2755V48.7837C86.6299 48.7837 87.554 47.8605 87.5319 46.722V40.2138C86.9852 40.214 86.4609 40.4313 86.0743 40.8179C85.6877 41.2045 85.4705 41.7288 85.4702 42.2755Z" fill="black"/>
<path d="M115.156 43.3496L117.283 41.3302C118.034 40.6003 119.044 40.2138 120.097 40.2138H121.622L116.187 45.1969V46.7008C116.187 47.2475 115.97 47.7718 115.583 48.1584C115.196 48.545 114.672 48.7623 114.125 48.7625V45.1757L108.669 40.2138H110.216C111.268 40.2138 112.278 40.6003 113.03 41.3302L115.156 43.3496Z" fill="black"/>
<path d="M81.2658 19.0766C81.7618 18.7464 82.0594 18.3156 82.1586 17.8536C82.3244 17.1593 82.0268 16.4309 81.2332 15.8684L75.3467 11.6696C74.0898 10.7768 72.1059 10.7768 70.849 11.6696L64.8633 15.9689C64.6179 16.1433 64.4178 16.3738 64.2797 16.6413C64.1416 16.9088 64.0696 17.2054 64.0696 17.5065C64.0696 17.8075 64.1416 18.1041 64.2797 18.3716C64.4178 18.6391 64.6179 18.8696 64.8633 19.044L65.7221 19.6392L70.849 15.9689C72.1059 15.0762 74.0898 15.0762 75.3467 15.9689L80.5049 19.6065L81.2658 19.0766Z" fill="black"/>
<path d="M55.0742 19.6065L55.9344 19.0114C56.9915 18.283 56.9915 16.6973 55.9344 15.9363L49.9487 11.6696C48.6918 10.7768 46.7079 10.7768 45.4509 11.6696L39.5305 15.9023C38.7695 16.4309 38.4719 17.1593 38.6377 17.8536C38.7369 18.317 39.0345 18.7464 39.5305 19.1092L40.2914 19.6392L45.4496 15.9689C46.7079 15.0762 48.6918 15.0762 49.9487 15.9689L55.0742 19.6065Z" fill="black"/>
<path d="M85.7974 21.7886V17.4893C85.7974 18.2502 85.4007 19.0438 84.6071 19.6389C84.5605 19.6932 84.5043 19.7383 84.4413 19.7721L82.1259 21.4258L76.041 25.7578C74.2881 27.0147 71.4114 27.0147 69.6585 25.7578L63.4079 21.2926L62.2175 20.4665C61.6837 20.0793 61.0412 19.8708 60.3817 19.8708C59.7223 19.8708 59.0797 20.0793 58.5459 20.4665L57.3896 21.2926L51.1049 25.7578C49.3534 27.0147 46.4754 27.0147 44.7225 25.7578L38.6376 21.4258L36.3235 19.7721C36.2605 19.7384 36.2042 19.6932 36.1577 19.6389C35.3968 19.0438 35 18.2502 35 17.4893V21.7886C35 22.6162 35.4294 23.4423 36.3235 24.0715L44.7225 30.0571C46.4754 31.3141 49.352 31.3141 51.1049 30.0571L59.0759 24.3691C59.4624 24.0947 59.9247 23.9473 60.3987 23.9473C60.8727 23.9473 61.335 24.0947 61.7215 24.3691L69.6911 30.0571C71.444 31.3141 74.3207 31.3141 76.0736 30.0571L84.4739 24.0715C85.3667 23.4423 85.7974 22.6162 85.7974 21.7886Z" fill="black"/>
</svg>
