<svg width="128" height="60" viewBox="0 0 128 60" fill="none" xmlns="http://www.w3.org/2000/svg">
<g clip-path="url(#clip0_36_43)">
<path d="M44.6843 14.2441H48.7764L53.2078 22.2057H53.3562L57.8088 14.2441H61.8903V29.8387H59.2187V17.6896H59.0491L54.5329 25.5451H52.0204L47.5149 17.7002H47.3665V29.8599H44.6843V14.2441Z" fill="#010101"/>
<path d="M61.9857 29.9449H59.1234V17.7958H59.1022L54.6072 25.662H51.9781L51.9463 25.6195L47.4513 17.817V29.9767H44.5784V14.1489H48.8189L48.8507 14.1913L53.2396 22.1105H53.282L57.7346 14.1489H61.9751V29.9449H61.9857ZM59.3142 29.7647H61.7949V14.3397H57.8618L53.4093 22.3013H53.1442L53.123 22.2483L48.7235 14.3291H44.7798V29.7541H47.2605V17.5944H47.5679L52.0735 25.4393H54.48L58.9962 17.605H59.3142V29.7647ZM67.4242 29.9555C66.3641 29.9555 65.569 29.6904 65.0283 29.1392C64.7438 28.8223 64.5249 28.4519 64.3848 28.0497C64.2446 27.6475 64.1859 27.2214 64.212 26.7963C64.212 25.6726 64.5618 24.8138 65.2615 24.2308C65.9506 23.6477 67.0425 23.2979 68.5373 23.1918L71.2195 23.001V22.6194C71.2195 22.2695 71.1877 21.9197 71.1135 21.5698C71.056 21.3085 70.919 21.0715 70.7212 20.8914C70.4972 20.7088 70.2312 20.5849 69.9473 20.5309C69.5233 20.4567 69.0992 20.4249 68.6751 20.4249C67.4813 20.4291 66.2912 20.557 65.1237 20.8066L64.9329 18.7181C66.3323 18.4531 67.7528 18.3152 69.1734 18.294C70.8696 18.294 72.1206 18.6121 72.9369 19.227C73.7426 19.8418 74.1454 20.8172 74.1454 22.1211V29.8389H71.7495L71.4739 28.4289H71.3043C70.2345 29.3844 68.8583 29.9259 67.4242 29.9555ZM68.6221 27.8882C69.078 27.8882 69.5339 27.7822 69.9473 27.6126C70.4032 27.443 70.8272 27.2203 71.2195 26.9447V24.6018L69.4172 24.7714C68.5797 24.8456 67.9967 25.0047 67.6574 25.2591C67.4855 25.4092 67.3516 25.598 67.2668 25.8099C67.182 26.0219 67.1488 26.251 67.1698 26.4782C67.1698 27.4218 67.6574 27.8882 68.6221 27.8882Z" fill="#010101"/>
<path d="M67.4241 30.072C66.3427 30.072 65.5158 29.7857 64.954 29.2239C64.3921 28.662 64.1059 27.8457 64.1059 26.8174C64.0759 26.3218 64.1586 25.8258 64.3477 25.3669C64.5368 24.9079 64.8274 24.4976 65.1978 24.1671C65.9081 23.5628 67.0212 23.2129 68.5266 23.1069L71.1133 22.9267V22.6299C71.1239 22.2906 71.0921 21.9514 71.0073 21.6227C70.9546 21.3874 70.8328 21.1733 70.6575 21.0079C70.4466 20.8276 70.1895 20.7101 69.9154 20.6686C68.9517 20.535 67.9743 20.535 67.0106 20.6686C66.3957 20.7322 65.7597 20.8276 65.1342 20.9549L65.0282 20.9655L64.8161 18.6862H64.9222C66.3215 18.4211 67.7421 18.2833 69.1627 18.2621C70.8801 18.2621 72.1735 18.5802 72.9898 19.2162C73.8167 19.8523 74.2407 20.8488 74.2407 22.1846V29.9978H71.6646L71.389 28.5878H71.336C70.2447 29.53 68.8551 30.0559 67.4135 30.072H67.4241ZM68.6644 20.3612C69.0885 20.3612 69.5337 20.393 69.9578 20.4672C70.2652 20.5308 70.5515 20.658 70.7847 20.8488C70.9967 21.0397 71.1345 21.2941 71.2087 21.5697C71.2829 21.9196 71.3148 22.2694 71.3148 22.6299V23.1069L68.5478 23.2977C67.0742 23.4038 66.0035 23.7536 65.3144 24.3155C64.6465 24.8667 64.3073 25.7148 64.3073 26.8068C64.2816 27.218 64.3377 27.6302 64.4724 28.0197C64.607 28.4091 64.8175 28.7679 65.0918 29.0755C65.6112 29.6055 66.3957 29.8706 67.4241 29.8706C68.8335 29.842 70.1867 29.3121 71.2405 28.3758L71.2617 28.3546H71.548L71.813 29.7645H74.0393V22.1316C74.0393 20.8594 73.647 19.9159 72.8731 19.3223C72.0887 18.718 70.8483 18.4105 69.1627 18.4105C67.7633 18.4211 66.3851 18.559 65.0282 18.8134L65.1872 20.711C66.3345 20.4957 67.4974 20.3752 68.6644 20.3506V20.3612ZM68.622 28.0047C67.6043 28.0047 67.0636 27.4959 67.0636 26.4993C67.0426 26.2555 67.0797 26.0103 67.1719 25.7835C67.264 25.5569 67.4086 25.3554 67.5937 25.1954C67.9435 24.9303 68.5478 24.7713 69.4171 24.6865L71.3148 24.5063V27.0082L71.2723 27.04C70.8695 27.3156 70.4348 27.5383 69.979 27.7185C69.5549 27.8881 69.0885 27.9835 68.622 27.9835V28.0047ZM71.1133 24.7183L69.4277 24.8879C68.6114 24.9515 68.0283 25.1 67.7209 25.3544C67.56 25.4957 67.4348 25.6731 67.3555 25.8721C67.2763 26.0712 67.2452 26.286 67.2651 26.4993C67.2651 27.3792 67.7103 27.8139 68.6114 27.8139C69.0567 27.8139 69.4913 27.7079 69.9048 27.5489C70.3288 27.3792 70.7317 27.1672 71.1133 26.9128V24.7183ZM76.8698 18.4635H79.3081L79.4778 19.7675H79.605C80.4955 19.3117 81.4072 18.9194 82.3613 18.6014C83.046 18.3769 83.7611 18.2589 84.4816 18.2515C84.8985 18.2259 85.3163 18.283 85.7111 18.4194C86.106 18.5559 86.4699 18.769 86.7821 19.0466C87.3333 19.5767 87.5984 20.3612 87.5984 21.3895V29.8388H84.6724V22.386C84.7148 21.8984 84.5982 21.4107 84.3332 21.0079C84.1854 20.8571 84.0061 20.7409 83.8082 20.6676C83.6103 20.5943 83.3985 20.5657 83.1882 20.5838C82.6582 20.605 82.1387 20.6898 81.6404 20.8594C81.015 21.0397 80.4107 21.2729 79.817 21.5273V29.8388H76.8804L76.8698 18.4635Z" fill="#010101"/>
<path d="M87.7044 29.9451H84.5876V22.3864C84.63 21.9199 84.5028 21.4535 84.2483 21.0612C84.1084 20.9272 83.9413 20.8248 83.7584 20.7608C83.5756 20.6968 83.3812 20.6727 83.1882 20.6902C82.6581 20.7008 82.1493 20.7961 81.6616 20.9446C81.0573 21.1354 80.4743 21.3685 79.9018 21.623V29.9663H76.7744V18.3684H79.4035L79.5732 19.6723H79.605C80.4955 19.2165 81.4072 18.8349 82.3613 18.5169C83.0492 18.2892 83.7677 18.1677 84.4922 18.1564C84.9213 18.1313 85.3512 18.1914 85.757 18.3334C86.1627 18.4752 86.5363 18.6962 86.8563 18.9832C87.4287 19.5345 87.715 20.3403 87.715 21.3898V29.9557L87.7044 29.9451ZM84.7784 29.7542H87.5135V21.3898C87.5135 20.4039 87.2485 19.63 86.7184 19.1212C86.1075 18.5796 85.3073 18.3016 84.4922 18.3472C83.783 18.3554 83.079 18.4697 82.4037 18.6865C81.4602 19.0046 80.5485 19.3862 79.658 19.8421H79.4035L79.2339 18.5274H76.9652V29.7331H79.711V21.4639L79.764 21.4427C80.3651 21.1807 80.981 20.9541 81.6086 20.7643C82.1161 20.6006 82.6446 20.5113 83.1776 20.4992C83.3993 20.4816 83.6221 20.5124 83.8307 20.5892C84.0394 20.6661 84.2289 20.7874 84.3862 20.9446C84.683 21.3686 84.8102 21.8775 84.7678 22.3864V29.7436L84.7784 29.7542ZM95.4751 30.0511C91.6798 30.0511 89.7822 28.0793 89.7822 24.1568C89.7822 20.2343 91.6905 18.273 95.4751 18.273C96.5437 18.2827 97.609 18.3962 98.6555 18.6122V20.9446C97.6941 20.7933 96.7238 20.7048 95.7508 20.6796C94.6906 20.6796 93.9167 20.9446 93.4291 21.4959C92.952 22.0471 92.7188 22.927 92.7188 24.1462C92.7188 25.3759 92.952 26.2664 93.4079 26.8177C93.8743 27.3584 94.6482 27.6339 95.7402 27.6339C96.7258 27.6712 97.7122 27.5858 98.6767 27.3796V29.7119C97.6241 29.9339 96.5509 30.044 95.4751 30.0405V30.0511Z" fill="#010101"/>
<path d="M95.4751 30.1355C91.6374 30.1355 89.6868 28.1212 89.6868 24.1564C89.6868 20.2021 91.6374 18.1772 95.4751 18.1772C96.5543 18.1861 97.6301 18.2997 98.6873 18.5165L98.7615 18.5377V21.0608L98.6555 21.0396C98.1591 20.9625 97.6606 20.8989 97.1607 20.8487C96.6836 20.7957 96.2066 20.7745 95.7507 20.7745C94.7224 20.7745 93.9591 21.0396 93.5032 21.559C93.0474 22.0891 92.8141 22.9584 92.8141 24.1352C92.8141 25.3119 93.0369 26.2236 93.4927 26.7537C93.938 27.2837 94.6906 27.5382 95.7295 27.5382C96.3126 27.5382 96.8214 27.5276 97.2561 27.4852C97.7226 27.4534 98.189 27.3792 98.6449 27.2837L98.7615 27.2731V29.775L98.6979 29.7963C98.2102 29.9235 97.712 30.0083 97.2137 30.0613C96.6306 30.1143 96.0476 30.1355 95.4751 30.1355ZM95.4751 18.368C91.7116 18.368 89.8776 20.2551 89.8776 24.1564C89.8776 28.047 91.7116 29.9447 95.4751 29.9447C96.0476 29.9447 96.62 29.9129 97.1819 29.8599C97.6484 29.8175 98.1148 29.7432 98.5601 29.6266V27.5064C97.6239 27.6556 96.6776 27.7337 95.7295 27.7396C94.627 27.7396 93.8213 27.4428 93.3336 26.8809C92.8566 26.3084 92.6127 25.3967 92.6127 24.1352C92.6127 22.8736 92.8672 22.0043 93.3548 21.4318C93.8531 20.8699 94.6588 20.5837 95.7507 20.5837C96.6927 20.5771 97.6333 20.6588 98.5601 20.8275V18.6861C98.0936 18.5801 97.6059 18.4953 97.1183 18.4528C96.5564 18.3998 95.9945 18.368 95.4751 18.368ZM103.447 29.9553C102.387 29.9553 101.592 29.6902 101.051 29.139C100.766 28.8224 100.547 28.4521 100.407 28.0498C100.267 27.6475 100.208 27.2213 100.235 26.7961C100.235 25.6723 100.585 24.8136 101.285 24.2306C101.974 23.6475 103.066 23.2976 104.56 23.1916L107.243 23.0008V22.6192C107.243 22.2693 107.211 21.9195 107.137 21.5696C107.078 21.3086 106.942 21.0718 106.744 20.8912C106.521 20.7086 106.255 20.5847 105.97 20.5307C105.546 20.4565 105.122 20.4247 104.698 20.4247C103.505 20.4297 102.314 20.5575 101.147 20.8063L100.956 18.7179C102.355 18.4528 103.776 18.315 105.196 18.2938C106.893 18.2938 108.154 18.6119 108.96 19.2267C109.766 19.8416 110.169 20.8169 110.169 22.1209V29.8387H107.762L107.497 28.4287H107.327C106.256 29.3817 104.881 29.9228 103.447 29.9553ZM104.645 27.888C105.101 27.888 105.557 27.782 105.981 27.6124C106.426 27.4428 106.85 27.2201 107.243 26.9445V24.6016L105.44 24.7712C104.603 24.8454 104.02 25.0045 103.68 25.2589C103.509 25.409 103.375 25.5978 103.29 25.8097C103.205 26.0217 103.172 26.2507 103.193 26.478C103.193 27.4216 103.67 27.888 104.645 27.888Z" fill="#010101"/>
<path d="M103.447 30.0721C102.366 30.0721 101.539 29.7859 100.977 29.224C100.685 28.8984 100.461 28.518 100.317 28.1049C100.173 27.6918 100.113 27.254 100.14 26.8175C100.14 25.6619 100.5 24.782 101.221 24.1672C101.942 23.5629 103.055 23.213 104.561 23.107L107.147 22.9268V22.63C107.147 22.2907 107.116 21.9515 107.041 21.6228C106.986 21.3863 106.86 21.172 106.681 21.008C106.47 20.8277 106.213 20.7103 105.939 20.6687C104.975 20.5355 103.998 20.5355 103.034 20.6687C102.419 20.7323 101.794 20.8277 101.168 20.955L101.062 20.9656L100.85 18.6863H100.946C102.348 18.4229 103.77 18.2811 105.197 18.2622C106.914 18.2622 108.197 18.5803 109.013 19.2163C109.84 19.8524 110.275 20.8489 110.275 22.1847V29.9979H107.688L107.412 28.5879H107.359C106.27 29.5317 104.879 30.0578 103.437 30.0721H103.447ZM104.688 20.3613C105.122 20.3613 105.557 20.3931 105.992 20.4673C106.289 20.5309 106.575 20.6581 106.808 20.8489C107.02 21.0398 107.169 21.2942 107.232 21.5698C107.306 21.9197 107.338 22.2695 107.338 22.63V23.107L104.571 23.2978C103.108 23.4039 102.027 23.7537 101.348 24.3156C100.67 24.8668 100.331 25.7149 100.331 26.8069C100.283 27.6338 100.565 28.4458 101.115 29.065C101.645 29.595 102.419 29.8495 103.447 29.8495C104.853 29.8289 106.205 29.3105 107.264 28.3865L107.296 28.3653H107.571L107.847 29.7752H110.073V22.1423C110.073 20.8702 109.681 19.916 108.907 19.3224C108.123 18.7181 106.872 18.4106 105.197 18.4106C103.797 18.4212 102.419 18.5591 101.052 18.8135L101.221 20.7111C102.365 20.4955 103.524 20.375 104.688 20.3507V20.3613ZM104.645 28.0048C103.617 28.0048 103.098 27.496 103.098 26.4994C103.077 26.2556 103.114 26.0104 103.206 25.7837C103.298 25.557 103.443 25.3555 103.628 25.1955C103.967 24.9305 104.571 24.7714 105.441 24.6866L107.349 24.5064V27.0083L107.306 27.0295C106.903 27.3051 106.469 27.5384 106.013 27.708C105.589 27.8882 105.112 27.9836 104.645 27.9836V28.0048ZM107.147 24.7184L105.451 24.888C104.635 24.9517 104.062 25.1001 103.744 25.3545C103.583 25.4953 103.457 25.6725 103.378 25.8717C103.298 26.0708 103.268 26.286 103.288 26.4994C103.288 27.3794 103.734 27.814 104.635 27.814C105.08 27.814 105.525 27.708 105.939 27.549C106.363 27.3794 106.766 27.1673 107.137 26.9129V24.729L107.147 24.7184ZM112.914 12.8026H115.851V29.8495H112.914V12.8026Z" fill="#010101"/>
<path d="M115.946 29.9451H112.819V12.7286H115.946V29.9663V29.9451ZM113.01 29.7543H115.745V12.8982H113.01V29.7543ZM121.183 29.9557C120.123 29.9557 119.328 29.6907 118.787 29.1394C118.503 28.8224 118.284 28.4521 118.144 28.0499C118.004 27.6477 117.945 27.2216 117.971 26.7965C117.971 25.6728 118.31 24.8141 119.021 24.231C119.731 23.6479 120.823 23.3193 122.307 23.1921L124.979 23.0012V22.6196C124.989 22.2698 124.947 21.9093 124.873 21.5701C124.815 21.3087 124.679 21.0717 124.48 20.8916C124.258 20.7073 123.991 20.5833 123.706 20.5311C123.282 20.4569 122.858 20.4251 122.434 20.4251C121.241 20.4293 120.05 20.5572 118.883 20.8068L118.692 18.7183C120.091 18.4533 121.512 18.3155 122.932 18.2943C124.629 18.2943 125.89 18.6123 126.696 19.2272C127.502 19.8421 127.905 20.8174 127.905 22.1319V29.8497H125.509L125.233 28.4397H125.063C123.993 29.3938 122.625 29.9239 121.183 29.9557ZM122.392 27.8885C122.837 27.8885 123.293 27.7824 123.717 27.6128C124.162 27.4432 124.586 27.2206 124.989 26.9449V24.602L123.187 24.7717C122.339 24.8459 121.756 25.0049 121.427 25.2593C121.254 25.4089 121.119 25.5973 121.032 25.8091C120.945 26.021 120.91 26.2503 120.929 26.4785C120.929 27.422 121.417 27.8885 122.392 27.8885Z" fill="#010101"/>
<path d="M121.183 30.0722C120.113 30.0722 119.275 29.786 118.724 29.2241C118.429 28.8998 118.202 28.5197 118.057 28.1065C117.911 27.6933 117.849 27.255 117.876 26.8176C117.876 25.6621 118.247 24.7821 118.957 24.1673C119.678 23.563 120.791 23.2132 122.297 23.1071L124.883 22.9269V22.6301C124.889 22.2914 124.852 21.9532 124.777 21.623C124.72 21.3872 124.595 21.1734 124.417 21.0081C124.205 20.8279 123.95 20.7112 123.685 20.6688C122.718 20.5342 121.737 20.5342 120.77 20.6688C120.155 20.7325 119.53 20.8279 118.904 20.9551H118.787L118.575 18.6652H118.671C120.073 18.4024 121.495 18.2605 122.922 18.2411C124.639 18.2411 125.922 18.5592 126.749 19.1953C127.576 19.8313 128 20.8279 128 22.1636V29.9768H125.424L125.148 28.5668H125.095C124.01 29.5145 122.624 30.0477 121.183 30.0722ZM122.424 20.3614C122.858 20.3614 123.304 20.3932 123.728 20.4674C124.025 20.531 124.311 20.6582 124.555 20.8491C124.767 21.0399 124.904 21.2943 124.979 21.57C125.042 21.9198 125.085 22.2696 125.085 22.6301V23.1071L122.307 23.298C120.844 23.404 119.763 23.7538 119.084 24.3157C118.406 24.867 118.077 25.7151 118.077 26.807C118.05 27.2175 118.105 27.6293 118.237 28.0187C118.37 28.4081 118.579 28.7673 118.851 29.0757C119.381 29.6057 120.155 29.8708 121.183 29.8708C122.591 29.8452 123.945 29.3191 125 28.3866L125.032 28.3654H125.318L125.583 29.7754H127.809V22.1424C127.809 20.8703 127.417 19.9161 126.643 19.3225C125.859 18.7182 124.618 18.4108 122.933 18.4108C121.533 18.4214 120.155 18.5592 118.787 18.8136L118.957 20.7112C120.101 20.4955 121.261 20.375 122.424 20.3508V20.3614ZM122.392 28.005C121.353 28.005 120.834 27.4961 120.834 26.4996C120.813 26.2558 120.85 26.0108 120.943 25.7843C121.035 25.5577 121.179 25.3561 121.364 25.1956C121.703 24.9306 122.307 24.7715 123.176 24.6867L125.085 24.5065V27.0084L125.042 27.0402C124.639 27.3159 124.194 27.5385 123.749 27.7187C123.325 27.8883 122.858 27.9837 122.392 27.9837V28.005ZM124.883 24.7185L123.187 24.8882C122.371 24.9518 121.809 25.1002 121.491 25.3546C121.328 25.4943 121.199 25.6712 121.119 25.8704C121.037 26.0696 121.005 26.2853 121.024 26.4996C121.024 27.3795 121.47 27.8141 122.381 27.8141C122.827 27.8141 123.261 27.7081 123.664 27.5491C124.088 27.3795 124.502 27.1674 124.873 26.913L124.883 24.7291V24.7185ZM29.6092 37.1645C25.1673 36.9207 22.5064 34.1749 22.464 29.7542C22.5276 25.344 25.1673 22.5877 29.6092 22.3439C32.5352 22.1742 34.6555 20.0116 34.5813 17.2552C34.5455 15.9689 34.0114 14.7467 33.0917 13.8468C32.1719 12.9467 30.9385 12.4394 29.6517 12.4316C26.9165 12.4104 24.5524 14.4565 24.669 17.2976C24.8281 20.7431 23.3015 22.7679 20.2695 23.9128C17.1315 25.1002 14.2904 24.4217 11.746 22.3757C11.1686 21.8942 10.7103 21.2859 10.4069 20.5981C10.1034 19.9104 9.9631 19.1618 9.99686 18.4108C10.0243 17.4689 9.90634 16.5285 9.64701 15.6226C9.23261 14.4893 8.41194 13.5505 7.34429 12.9883C6.27664 12.426 5.03819 12.2806 3.86931 12.58C2.70489 12.8567 1.68015 13.5459 0.984715 14.52C0.28928 15.494 -0.0297597 16.687 0.0866405 17.8782C0.20304 19.0693 0.747 20.178 1.61784 20.9991C2.4887 21.82 3.62747 22.2977 4.82343 22.3439C7.8236 22.5241 10.2301 23.7008 11.6188 26.4678C12.1426 27.4897 12.4157 28.6216 12.4157 29.7701C12.4157 30.9184 12.1426 32.0504 11.6188 33.0724C10.2301 35.8393 7.8236 36.9949 4.83403 37.1857C3.63084 37.2224 2.48224 37.6962 1.60312 38.5185C0.723986 39.3407 0.174556 40.4551 0.0576091 41.6532C-0.0593373 42.8512 0.264213 44.0509 0.96773 45.0276C1.67124 46.0044 2.70654 46.6914 3.87991 46.9601C5.04728 47.2566 6.28316 47.1097 7.34846 46.5476C8.41375 45.9856 9.23274 45.0485 9.64701 43.9175C9.91204 43.0058 10.0287 42.0623 9.99686 41.1188C9.96475 40.3695 10.1059 39.6229 10.4092 38.9371C10.7126 38.2513 11.1701 37.6447 11.746 37.1645C14.2904 35.1078 17.1315 34.4399 20.2695 35.6167C23.3015 36.7722 24.8281 38.7971 24.6796 42.2425C24.5524 45.0731 26.9165 47.1191 29.6623 47.1085C30.9454 47.0953 32.1735 46.5854 33.0887 45.686C34.0039 44.7866 34.5351 43.5676 34.5707 42.2849C34.6449 39.4968 32.5352 37.3235 29.6092 37.1645Z" fill="#010101"/>
<path d="M17.3011 37.1642C16.6502 37.1711 16.0071 37.3062 15.4085 37.5617C14.8098 37.8172 14.2674 38.1882 13.8121 38.6532C13.3568 39.1184 12.9976 39.6686 12.755 40.2726C12.5123 40.8765 12.391 41.5225 12.398 42.1733C12.4049 42.8241 12.5401 43.4672 12.7956 44.0658C13.051 44.6645 13.4219 45.207 13.8871 45.6623C14.3521 46.1175 14.9025 46.4768 15.5064 46.7193C16.1104 46.962 16.7562 47.0833 17.4071 47.0764C18.7215 47.0623 19.9766 46.5267 20.896 45.5872C21.8156 44.6479 22.3242 43.3817 22.3102 42.0673C22.2961 40.7528 21.7604 39.4978 20.8211 38.5783C19.8817 37.6587 18.6156 37.1501 17.3011 37.1642ZM5.04595 24.7394C4.3032 24.7348 3.56869 24.8952 2.8955 25.209C2.22231 25.5229 1.62725 25.9823 1.15333 26.5543C0.679413 27.1262 0.338468 27.7963 0.15514 28.516C-0.0281899 29.2359 -0.0493252 29.9874 0.0932608 30.7164C0.235846 31.4453 0.538592 32.1334 0.97962 32.7311C1.42064 33.3287 1.98894 33.8209 2.64342 34.1722C3.29791 34.5234 4.02225 34.7248 4.76409 34.7619C5.50593 34.799 6.24674 34.6709 6.93299 34.3866C7.83396 34.0081 8.60109 33.3687 9.13574 32.5507C9.67039 31.7326 9.94809 30.7734 9.93316 29.7963V29.7009C9.94015 29.0535 9.81907 28.4113 9.57686 27.8111C9.33464 27.2108 8.9761 26.6644 8.52186 26.2033C8.06762 25.7421 7.52666 25.3754 6.93011 25.1242C6.33358 24.8729 5.69324 24.7422 5.04595 24.7394ZM34.6343 29.5524C34.5791 28.2457 34.0168 27.0119 33.0666 26.1133C32.1164 25.2146 30.8533 24.7217 29.5456 24.7394C28.2157 24.7394 26.9402 25.2677 25.9998 26.2081C25.0595 27.1485 24.5312 28.4239 24.5312 29.7539C24.5312 31.0838 25.0595 32.3591 25.9998 33.2996C26.9402 34.2399 28.2157 34.7683 29.5456 34.7683C30.8541 34.7886 32.1188 34.2967 33.0695 33.3974C34.0202 32.4982 34.5818 31.2628 34.6343 29.9553V29.5524ZM17.3117 22.3435C18.6261 22.3267 19.88 21.7884 20.7975 20.847C21.7151 19.9056 22.2211 18.6383 22.2042 17.3238C22.1873 16.0094 21.6489 14.7554 20.7076 13.8379C19.7662 12.9204 18.4988 12.4145 17.1845 12.4313C15.87 12.4468 14.6156 12.9838 13.697 13.9241C12.7785 14.8645 12.2712 16.1313 12.2867 17.4457C12.3021 18.7602 12.8391 20.0146 13.7795 20.9331C14.7199 21.8516 15.9867 22.359 17.3011 22.3435H17.3117ZM52.3914 43.5674C51.9674 44.0974 51.4055 44.4897 50.7695 44.7229C50.0168 44.9879 49.2111 45.1258 48.4054 45.1152C47.5573 45.1258 46.741 44.9137 46.0095 44.5003C45.3098 44.0863 44.749 43.4738 44.3981 42.7405C44.0013 41.906 43.7983 40.9928 43.8044 40.0689V39.2208C43.7228 37.85 44.1366 36.4954 44.9705 35.4044C45.3741 34.9415 45.8781 34.5768 46.4439 34.338C47.0097 34.0992 47.6224 33.9926 48.2357 34.0262C49.4337 34.0262 50.3878 34.3336 51.0981 34.9273C51.839 35.5849 52.2952 36.5049 52.3702 37.4928H50.5468C50.3348 36.1889 49.5927 35.5422 48.2887 35.5422C47.9197 35.522 47.5516 35.595 47.2181 35.7543C46.8847 35.9136 46.5967 36.1542 46.3805 36.4539C45.8945 37.2496 45.6581 38.1728 45.702 39.1042V39.9417C45.702 41.1079 45.9459 42.009 46.4441 42.6451C46.683 42.9573 46.9938 43.207 47.35 43.3732C47.7063 43.5393 48.0974 43.6168 48.4902 43.5992C49.4443 43.5992 50.1228 43.3871 50.5256 42.9525V40.8534H48.3099V39.4329H52.3914V43.5674ZM59.2187 44.9667C59.1127 44.7229 59.0385 44.4685 59.0067 44.2246C58.7389 44.5121 58.4135 44.7399 58.0519 44.8934C57.6902 45.0468 57.3004 45.1224 56.9076 45.1152C56.1883 45.1449 55.4843 44.9027 54.9358 44.4367C54.6926 44.2266 54.4984 43.966 54.3665 43.673C54.2346 43.3799 54.1684 43.0617 54.1725 42.7405C54.1539 42.3597 54.2316 41.9805 54.3984 41.6376C54.5651 41.2949 54.8155 40.9996 55.1266 40.7792C55.7627 40.3234 56.6638 40.1007 57.8299 40.1007H58.9325V39.5389C58.9537 39.1678 58.8264 38.7968 58.5932 38.5211C58.452 38.3888 58.2848 38.2875 58.1023 38.2237C57.9197 38.1597 57.7258 38.1347 57.5331 38.1501C57.1722 38.1353 56.817 38.2436 56.526 38.4575C56.4026 38.5473 56.3026 38.6655 56.2343 38.802C56.166 38.9385 56.1316 39.0894 56.1337 39.242H54.3315C54.3315 38.7862 54.4905 38.3515 54.7661 38.0017C55.0842 37.6094 55.487 37.2914 55.9535 37.1006C56.4836 36.8779 57.0666 36.7613 57.6497 36.7719C58.4548 36.732 59.2477 36.98 59.8866 37.4716C60.1695 37.7185 60.3935 38.0257 60.5422 38.3706C60.6908 38.7156 60.7601 39.0894 60.7453 39.4647V43.0691C60.7246 43.6637 60.8294 44.2561 61.0527 44.8077V44.9243L59.2187 44.9667ZM57.2362 43.6628C57.5967 43.6628 57.9465 43.578 58.254 43.4083C58.5508 43.2493 58.7946 43.0055 58.9643 42.7087V41.2033H57.9889C57.4589 41.1609 56.9288 41.2775 56.4836 41.5425C56.3222 41.6478 56.1906 41.7928 56.1016 41.9636C56.0124 42.1344 55.9688 42.3252 55.9747 42.5178C55.9676 42.6721 55.9943 42.8259 56.0528 42.9688C56.1114 43.1116 56.2005 43.2399 56.3139 43.3447C56.5684 43.5674 56.9076 43.684 57.2362 43.6628ZM64.4769 36.9415L64.5194 37.7897C64.8052 37.4615 65.1616 37.2024 65.5618 37.0318C65.9621 36.861 66.3958 36.7831 66.8304 36.8037C67.9012 36.8037 68.6327 37.2172 69.0355 38.0335C69.3085 37.6377 69.6772 37.3176 70.1072 37.1026C70.5372 36.8876 71.0146 36.7848 71.495 36.8037C72.3749 36.8037 73.0322 37.0476 73.4669 37.5352C73.8909 38.0229 74.1135 38.7438 74.1347 39.6979V44.9667H72.3325V39.7509C72.3671 39.3517 72.2497 38.9541 72.0039 38.6378C71.8547 38.5051 71.6798 38.4046 71.4901 38.3426C71.3004 38.2806 71.1 38.2584 70.9013 38.2773C70.5317 38.2595 70.1687 38.3806 69.8836 38.6166C69.6292 38.8286 69.4384 39.1466 69.3429 39.4647V44.9773H67.5407V39.6979C67.5195 38.7544 67.0319 38.2773 66.0989 38.2773C65.7831 38.2559 65.4682 38.3293 65.1943 38.4879C64.9205 38.6466 64.7002 38.8833 64.5618 39.1678V44.9667H62.7913V36.9521H64.4875L64.4769 36.9415ZM76.1278 34.8637C76.1257 34.615 76.2208 34.3754 76.3928 34.1958C76.4907 34.101 76.6072 34.0277 76.7349 33.9802C76.8627 33.9328 76.9989 33.9123 77.1349 33.9202C77.2743 33.9106 77.4142 33.9302 77.5455 33.9777C77.677 34.0251 77.797 34.0994 77.8982 34.1958C78.0784 34.376 78.1738 34.6199 78.1632 34.8637C78.1662 34.9887 78.1443 35.113 78.0988 35.2295C78.0533 35.3459 77.9851 35.4523 77.8982 35.5422C77.7979 35.6366 77.6795 35.7098 77.5501 35.7572C77.4207 35.8046 77.283 35.8252 77.1455 35.8178C77.0079 35.8252 76.8702 35.8046 76.7409 35.7572C76.6114 35.7098 76.493 35.6366 76.3928 35.5422C76.3054 35.4526 76.2369 35.3464 76.1913 35.2299C76.1458 35.1132 76.1242 34.9888 76.1278 34.8637ZM78.036 44.9667H76.2338V36.9415H78.036V44.9667ZM81.8207 36.9415L81.8631 37.8745C82.1428 37.528 82.4989 37.2511 82.9035 37.0653C83.3082 36.8795 83.7503 36.7901 84.1954 36.8037C85.8704 36.8037 86.7185 37.7578 86.7397 39.6661V44.9667H84.9481V39.7721C84.9799 39.3692 84.8633 38.9664 84.6088 38.6378C84.4659 38.5055 84.2966 38.4048 84.1121 38.3427C83.9275 38.2806 83.7319 38.2583 83.5381 38.2773C83.2012 38.2667 82.8686 38.3544 82.5807 38.5294C82.2927 38.7044 82.0618 38.9594 81.9161 39.2632V44.9667H80.1139V36.9415H81.8207ZM88.4147 40.8852C88.4147 39.6449 88.7115 38.659 89.2946 37.9063C89.5664 37.5483 89.92 37.2604 90.3257 37.0667C90.7314 36.8732 91.1775 36.7793 91.6269 36.7931C92.0351 36.7739 92.442 36.8503 92.8156 37.0159C93.1892 37.1815 93.519 37.4319 93.779 37.7472L93.8532 36.9415H95.4752V44.7123C95.4998 45.1731 95.4255 45.6339 95.2572 46.0636C95.089 46.4932 94.8307 46.882 94.4999 47.2036C93.7684 47.8397 92.8142 48.1577 91.8495 48.1153C91.2559 48.1153 90.6728 47.9881 90.1321 47.7443C89.6233 47.5429 89.178 47.2142 88.86 46.7902L89.7081 45.6982C89.9483 46.0058 90.2556 46.2544 90.6065 46.4253C90.9573 46.5961 91.3426 46.6846 91.7329 46.6842C92.2524 46.716 92.7506 46.5463 93.1429 46.2071C93.3258 46.0188 93.4667 45.794 93.5561 45.5473C93.6457 45.3005 93.6819 45.0377 93.6624 44.7759V44.2459C93.4003 44.5292 93.0795 44.7519 92.7224 44.8984C92.3654 45.0449 91.9806 45.1117 91.5951 45.094C91.1509 45.1035 90.7108 45.0076 90.311 44.8141C89.911 44.6206 89.5627 44.335 89.2946 43.9808C88.6662 43.075 88.3567 41.9861 88.4147 40.8852ZM90.2169 41.0443C90.1745 41.7121 90.3441 42.3694 90.694 42.9419C90.8457 43.159 91.0493 43.3349 91.2863 43.4534C91.5233 43.5718 91.7861 43.6293 92.051 43.6204C92.3805 43.6349 92.7075 43.5549 92.993 43.3895C93.2786 43.2242 93.5109 42.9806 93.6624 42.6875V39.189C93.511 38.9027 93.2808 38.6656 92.9989 38.506C92.7171 38.3462 92.3955 38.2706 92.0722 38.2879C91.8002 38.2769 91.53 38.3353 91.287 38.4577C91.044 38.5802 90.8363 38.7625 90.6834 38.9876C90.3229 39.6131 90.1533 40.334 90.2063 41.0549V41.0443H90.2169Z" fill="#010101"/>
</g>
<defs>
<clipPath id="clip0_36_43">
<rect width="128" height="60" fill="white"/>
</clipPath>
</defs>
</svg>
