<svg width="128" height="60" viewBox="0 0 128 60" fill="none" xmlns="http://www.w3.org/2000/svg">
<path d="M39.2413 32.5906H41.3012C41.1512 33.9006 40.5612 34.8906 39.5512 35.5806C38.5312 36.2706 37.1412 36.6106 35.3712 36.6106C33.2412 36.6106 31.5612 36.0106 30.3512 34.8106C29.1312 33.6106 28.5312 31.9606 28.5312 29.8606C28.5312 27.7606 29.1612 26.1406 30.4112 24.9206C31.6612 23.7106 33.3812 23.1006 35.5512 23.1006C37.2412 23.1006 38.5813 23.4206 39.5613 24.0706C40.5313 24.7206 41.0712 25.6306 41.1612 26.8006H39.1313C39.0413 26.1206 38.6612 25.5806 38.0112 25.1706C37.3512 24.7706 36.4912 24.5706 35.4412 24.5706C33.8712 24.5706 32.6512 25.0406 31.7612 25.9606C30.8812 26.8906 30.4412 28.1806 30.4412 29.8506C30.4412 31.5206 30.8913 32.8706 31.7812 33.7906C32.6812 34.7106 33.9612 35.1706 35.6412 35.1706C36.6912 35.1706 37.5412 34.9406 38.1712 34.4806C38.8012 34.0206 39.1612 33.3906 39.2512 32.5806L39.2413 32.5906Z" fill="black"/>
<path d="M41.6409 36.3813L48.3909 23.3213H50.6409L57.2209 36.3913H55.1209L53.4109 32.9113H45.3609L43.5609 36.3913H41.6309L41.6409 36.3813ZM46.1209 31.3713H52.6709L49.5009 24.8113L46.1209 31.3713Z" fill="black"/>
<path d="M58.7715 36.3813V23.3213H64.6115C65.7115 23.3213 66.5115 23.3713 67.0015 23.4613C67.5015 23.5513 67.9215 23.7113 68.2815 23.9313C68.7515 24.2313 69.1115 24.6313 69.3615 25.1313C69.6115 25.6313 69.7415 26.2213 69.7415 26.8813C69.7415 28.2613 69.3715 29.2313 68.6215 29.8113C67.8815 30.3813 66.5615 30.6713 64.6715 30.6713H60.5715V36.4113H58.7815L58.7715 36.3813ZM60.5615 29.1413H64.4815C65.9215 29.1413 66.8515 28.9913 67.2715 28.6713C67.6915 28.3613 67.9015 27.8013 67.9015 26.9813C67.9015 26.1613 67.6915 25.6013 67.2715 25.2913C66.8515 24.9813 65.9215 24.8313 64.4815 24.8313H60.5615V29.1413Z" fill="black"/>
<path d="M71.9121 36.3813V23.3213H81.6221V24.8713H73.7121V28.7213H81.0721V30.2713H73.7121V34.7713H81.8721V36.3913H71.9221L71.9121 36.3813Z" fill="black"/>
<path d="M93.9912 32.5906H96.0513C95.9013 33.9006 95.3113 34.8906 94.3013 35.5806C93.2913 36.2706 91.8913 36.6106 90.1213 36.6106C87.9913 36.6106 86.3112 36.0106 85.1012 34.8106C83.8812 33.6106 83.2812 31.9606 83.2812 29.8606C83.2812 27.7606 83.9112 26.1406 85.1712 24.9206C86.4212 23.7106 88.1412 23.1006 90.3112 23.1006C92.0012 23.1006 93.3413 23.4206 94.3213 24.0706C95.3013 24.7206 95.8312 25.6306 95.9212 26.8006H93.8913C93.8013 26.1206 93.4312 25.5806 92.7712 25.1706C92.1112 24.7706 91.2512 24.5706 90.2012 24.5706C88.6312 24.5706 87.4112 25.0406 86.5312 25.9606C85.6513 26.8906 85.2113 28.1806 85.2113 29.8506C85.2113 31.5206 85.6613 32.8706 86.5513 33.7906C87.4513 34.7106 88.7313 35.1706 90.4013 35.1706C91.4513 35.1706 92.3013 34.9406 92.9313 34.4806C93.5613 34.0206 93.9213 33.3906 94.0113 32.5806L93.9912 32.5906Z" fill="black"/>
<path d="M104.582 36.5808C103.502 36.5808 102.552 36.4308 101.732 36.1408C100.912 35.8508 100.162 35.3908 99.5121 34.7808C98.8321 34.1308 98.3121 33.3808 97.9521 32.5408C97.5921 31.7008 97.4121 30.8008 97.4121 29.8408C97.4121 28.8808 97.5921 27.9608 97.9521 27.1108C98.3121 26.2608 98.8321 25.5208 99.5121 24.8908C100.172 24.2808 100.912 23.8208 101.732 23.5308C102.562 23.2408 103.512 23.0908 104.572 23.0908C105.632 23.0908 106.592 23.2408 107.422 23.5308C108.252 23.8208 108.992 24.2808 109.642 24.8908C110.322 25.5208 110.842 26.2608 111.212 27.1108C111.572 27.9608 111.752 28.8708 111.752 29.8408C111.752 30.8108 111.572 31.7108 111.212 32.5508C110.852 33.3908 110.332 34.1408 109.642 34.7708C108.982 35.3808 108.242 35.8308 107.412 36.1308C106.582 36.4208 105.632 36.5708 104.562 36.5708L104.582 36.5808ZM109.782 29.8408C109.782 28.3208 109.302 27.0708 108.332 26.1008C107.372 25.1308 106.132 24.6508 104.622 24.6508C103.112 24.6508 101.812 25.1308 100.842 26.1008C99.8721 27.0608 99.3821 28.3108 99.3821 29.8508C99.3821 31.3908 99.8621 32.6208 100.832 33.5808C101.802 34.5408 103.062 35.0108 104.602 35.0108C106.142 35.0108 107.382 34.5308 108.342 33.5808C109.302 32.6208 109.782 31.3808 109.782 29.8508V29.8408Z" fill="black"/>
<path d="M114.481 36.3813V23.3213H119.761C121.171 23.3213 122.301 23.4413 123.161 23.6713C124.021 23.9013 124.751 24.2813 125.351 24.8113C126.031 25.4213 126.551 26.1313 126.891 26.9513C127.231 27.7713 127.401 28.7013 127.401 29.7513C127.401 30.7113 127.261 31.5813 126.971 32.3613C126.681 33.1413 126.271 33.8413 125.701 34.4513C125.061 35.1413 124.311 35.6313 123.461 35.9413C122.611 36.2513 121.491 36.4013 120.131 36.4013H114.471L114.481 36.3813ZM116.391 34.8313H119.591C120.791 34.8313 121.701 34.7413 122.351 34.5613C123.001 34.3813 123.531 34.0813 123.961 33.6513C124.431 33.1813 124.781 32.6313 125.011 32.0013C125.241 31.3713 125.361 30.6613 125.361 29.8613C125.361 29.0213 125.231 28.2613 124.971 27.5913C124.711 26.9213 124.331 26.3813 123.841 25.9613C123.371 25.5613 122.821 25.2713 122.191 25.1013C121.551 24.9213 120.611 24.8413 119.371 24.8413H116.391V34.8413V34.8313Z" fill="black"/>
<path d="M26.8506 27.4613C25.4706 26.4913 23.7006 26.1813 22.1006 26.1913C20.5106 26.1913 18.9206 26.5313 17.4306 27.1513C17.2206 26.9313 17.0106 26.7213 16.7906 26.5113C16.2806 26.0413 15.7406 25.6013 15.1806 25.2013C17.7606 23.8413 20.6306 23.1613 23.4806 23.1013C21.7006 22.3813 19.5806 22.5113 17.7706 23.0113C16.5106 23.3313 15.2806 23.8413 14.1206 24.5213C12.9706 23.8513 11.7406 23.3313 10.4706 23.0113C8.66062 22.5113 6.53063 22.3813 4.76063 23.1013C7.62063 23.1513 10.4806 23.8313 13.0606 25.2013C12.5006 25.6013 11.9606 26.0313 11.4506 26.5113C11.2306 26.7113 11.0206 26.9313 10.8106 27.1513C9.32063 26.5313 7.73063 26.1913 6.14062 26.1913C4.53062 26.1713 2.77062 26.4913 1.39062 27.4613C4.24062 26.8813 7.27062 27.0113 10.0506 28.0113C7.96062 30.5413 6.52063 33.8413 6.50063 37.2913C6.64063 36.1813 6.93063 35.1013 7.30063 34.0613C8.13063 31.9213 9.37062 29.9513 10.9206 28.3613C11.3906 28.5713 11.8606 28.8013 12.3106 29.0613C12.6906 29.2813 13.0606 29.5113 13.4206 29.7613C11.3606 31.7213 9.86062 34.3813 9.46062 37.4013C9.46062 37.3713 9.48062 37.3413 9.48062 37.3113C10.2206 34.4213 11.9506 32.0213 14.1206 30.3013C16.2906 32.0313 18.0206 34.4313 18.7606 37.3113C18.7606 37.3413 18.7806 37.3713 18.7806 37.4013C18.3806 34.3813 16.8806 31.7213 14.8206 29.7613C15.1806 29.5113 15.5506 29.2713 15.9306 29.0613C16.3806 28.8013 16.8406 28.5713 17.3206 28.3613C18.8706 29.9613 20.1106 31.9213 20.9406 34.0613C21.3206 35.1013 21.6106 36.1813 21.7406 37.2913C21.7206 33.8413 20.2806 30.5413 18.1906 28.0113C20.9606 27.0113 24.0006 26.8813 26.8506 27.4613ZM16.2006 27.7313C15.4706 28.1213 14.7706 28.6013 14.1206 29.1313C13.4706 28.5913 12.7706 28.1213 12.0406 27.7313C11.9406 27.6713 11.8406 27.6313 11.7306 27.5813C12.0906 27.2613 12.4706 26.9613 12.8606 26.6813C13.2706 26.3713 13.6906 26.0913 14.1206 25.8213C14.5506 26.0913 14.9706 26.3713 15.3806 26.6813C15.7706 26.9613 16.1406 27.2613 16.5106 27.5813C16.4106 27.6313 16.3006 27.6813 16.2006 27.7313Z" fill="black"/>
</svg>
