<svg width="128" height="60" viewBox="0 0 128 60" fill="none" xmlns="http://www.w3.org/2000/svg">
<g clip-path="url(#clip0_1870_1665)">
<path d="M43.4004 35.6802V35.2302L44.7804 35.0602H45.0304L46.5404 35.2302V35.6802H43.4004ZM44.3804 35.6802L47.8304 25.3502H48.8604L52.3604 35.6802H50.6704L47.6704 26.4102H47.9504L47.9104 26.6102L45.0304 35.6802H44.3704H44.3804ZM45.9104 32.2702L45.9904 31.8102H50.3304L50.4104 32.2702H45.9004H45.9104ZM49.0004 35.6802V35.2302L50.8804 35.0502H51.4504L53.3304 35.2302V35.6802H48.9904H49.0004ZM58.6704 35.9302C58.0904 35.9302 57.5304 35.8502 56.9804 35.6902C56.4304 35.5402 55.9704 35.3502 55.6004 35.1002L55.6804 32.8902H56.3504L56.9504 35.3902L56.1804 35.0402L56.0504 34.5502C56.5104 34.8802 56.9104 35.0902 57.2604 35.2102C57.6104 35.3202 58.0304 35.3802 58.5204 35.3802C59.2504 35.3802 59.8204 35.2202 60.2504 34.8902C60.6804 34.5602 60.8904 34.0802 60.8904 33.4502C60.8904 33.1202 60.8304 32.8402 60.7104 32.6002C60.6004 32.3602 60.4104 32.1402 60.1504 31.9402C59.8904 31.7402 59.5304 31.5502 59.0604 31.3702L58.4504 31.1002C57.5804 30.7202 56.9204 30.2902 56.4704 29.8002C56.0104 29.3102 55.7904 28.6802 55.7904 27.9202C55.7904 27.3202 55.9404 26.8102 56.2404 26.4002C56.5504 25.9902 56.9604 25.6802 57.4804 25.4802C58.0104 25.2702 58.6004 25.1602 59.2504 25.1602C59.7904 25.1602 60.2704 25.2302 60.7004 25.3702C61.1404 25.5002 61.5404 25.6902 61.9004 25.9302L61.8204 28.0402H61.1404L60.5704 25.6502L61.3804 26.0002L61.4604 26.5202C61.0804 26.2102 60.7404 26.0002 60.4404 25.8802C60.1504 25.7602 59.8104 25.7002 59.4204 25.7002C58.7904 25.7002 58.2704 25.8502 57.8604 26.1602C57.4604 26.4702 57.2604 26.9102 57.2604 27.4902C57.2604 28.0002 57.4004 28.4102 57.6904 28.7202C57.9904 29.0202 58.4004 29.2802 58.9204 29.5202L59.5904 29.8102C60.3004 30.1102 60.8604 30.4102 61.2604 30.7202C61.6704 31.0202 61.9604 31.3502 62.1304 31.7102C62.3104 32.0602 62.4004 32.4902 62.4004 32.9902C62.4004 33.5802 62.2504 34.0902 61.9504 34.5402C61.6504 34.9802 61.2204 35.3202 60.6704 35.5702C60.1104 35.8102 59.4504 35.9302 58.6704 35.9302ZM66.5804 35.6802V35.2302L68.7304 35.0502H69.1804L71.3604 35.2302V35.6802H66.5904H66.5804ZM68.1004 35.6802C68.1204 34.8902 68.1304 34.1002 68.1304 33.3102C68.1304 32.5102 68.1404 31.7102 68.1404 30.9102V30.2002C68.1404 29.4002 68.1404 28.6002 68.1304 27.8102C68.1304 27.0102 68.1304 26.2102 68.1004 25.4202H69.8304C69.8304 26.2002 69.8104 26.9902 69.8004 27.7902V33.2902C69.8004 34.0802 69.8204 34.8802 69.8304 35.6802H68.1004ZM64.5404 28.2102L64.6204 25.4202H73.3004L73.4004 28.2102H72.7204L72.0904 25.4202L72.8704 25.9202H65.0504L65.8504 25.4202L65.2104 28.2102H64.5404ZM75.7704 35.6802V35.2302L77.8204 35.0502H78.1804L80.2304 35.2302V35.6802H75.7604H75.7704ZM77.1404 35.6802C77.1604 34.8902 77.1704 34.1002 77.1704 33.3102V27.8102C77.1704 27.0102 77.1704 26.2102 77.1404 25.4202H78.8604C78.8404 26.2002 78.8304 27.0002 78.8204 27.8202V33.2802C78.8204 34.0802 78.8404 34.8802 78.8604 35.6802H77.1404ZM83.8404 35.8402C83.3104 35.8402 82.9104 35.7502 82.6404 35.5702C82.3704 35.3902 82.2004 35.1002 82.1204 34.6802L81.5304 32.4702C81.4404 32.0802 81.3304 31.7702 81.2004 31.5302C81.0704 31.2902 80.8904 31.1102 80.6604 31.0002C80.4404 30.8902 80.1204 30.8302 79.7204 30.8302H78.0204V30.3702H80.0204C80.5404 30.3702 80.9704 30.2702 81.3204 30.0602C81.6604 29.8502 81.9204 29.5702 82.1004 29.2202C82.2804 28.8702 82.3704 28.4702 82.3704 28.0302C82.3704 27.3502 82.1704 26.8302 81.7804 26.4502C81.3904 26.0702 80.8004 25.8802 80.0104 25.8802H78.0104V25.3902H80.3404C81.5004 25.3902 82.4004 25.6202 83.0204 26.0702C83.6404 26.5302 83.9604 27.1702 83.9604 28.0102C83.9604 28.4602 83.8404 28.8702 83.6004 29.2502C83.3704 29.6302 83.0004 29.9502 82.4804 30.2102C81.9804 30.4602 81.3204 30.6102 80.5104 30.6602V30.5202C81.1504 30.5502 81.6504 30.6502 82.0004 30.8102C82.3604 30.9702 82.6304 31.2002 82.8104 31.4902C83.0004 31.7902 83.1404 32.1602 83.2604 32.6202L83.9904 35.4402L83.1904 35.0602L85.2104 35.1902V35.6402C85.0104 35.6902 84.8004 35.7202 84.6004 35.7502C84.4004 35.7902 84.1404 35.8102 83.8504 35.8102L83.8404 35.8402ZM75.7704 25.8502V25.4202H78.0004V26.0302H77.8204L75.7704 25.8502ZM87.4404 35.6802V35.2302L89.4904 35.0502H89.8404L91.9104 35.2302V35.6802H87.4404ZM88.8104 35.6802C88.8304 34.8902 88.8404 34.1002 88.8404 33.3102C88.8404 32.5102 88.8504 31.7102 88.8504 30.9102V30.2002C88.8504 29.4002 88.8504 28.6002 88.8404 27.8102C88.8404 27.0102 88.8404 26.2102 88.8104 25.4202H90.5504C90.5304 26.2002 90.5204 26.9902 90.5104 27.7902V33.2902C90.5104 34.0802 90.5304 34.8802 90.5504 35.6802H88.8104ZM87.4404 25.8502V25.4202H91.9104V25.8502L89.8404 26.0302H89.4904L87.4404 25.8502ZM99.2004 35.9302C98.5704 35.9302 97.9704 35.8102 97.4004 35.5802C96.8304 35.3402 96.3304 34.9902 95.8904 34.5302C95.4504 34.0702 95.1104 33.5102 94.8604 32.8402C94.6104 32.1702 94.4804 31.4002 94.4804 30.5402C94.4804 29.6802 94.6104 28.9302 94.8604 28.2602C95.1104 27.5902 95.4604 27.0302 95.8904 26.5702C96.3304 26.1002 96.8304 25.7602 97.4004 25.5202C97.9704 25.2802 98.5704 25.1602 99.2004 25.1602C99.8304 25.1602 100.43 25.2802 100.99 25.5102C101.56 25.7402 102.06 26.0902 102.5 26.5602C102.94 27.0202 103.28 27.5802 103.53 28.2502C103.78 28.9102 103.91 29.6702 103.91 30.5402C103.91 31.4102 103.78 32.1602 103.53 32.8302C103.28 33.5002 102.93 34.0702 102.5 34.5302C102.06 34.9902 101.56 35.3302 100.99 35.5802C100.43 35.8102 99.8404 35.9302 99.2004 35.9302ZM99.2004 35.4202C99.6904 35.4202 100.12 35.2902 100.48 35.0402C100.85 34.7902 101.16 34.4402 101.4 34.0102C101.64 33.5602 101.82 33.0402 101.94 32.4502C102.06 31.8502 102.12 31.2202 102.12 30.5402C102.12 29.8602 102.06 29.2302 101.94 28.6402C101.82 28.0502 101.64 27.5402 101.4 27.0902C101.16 26.6402 100.85 26.2902 100.48 26.0402C100.12 25.7902 99.6904 25.6602 99.2004 25.6602C98.7104 25.6602 98.2704 25.7902 97.9004 26.0402C97.5404 26.2902 97.2304 26.6402 96.9804 27.0902C96.7404 27.5402 96.5504 28.0502 96.4204 28.6402C96.3004 29.2302 96.2404 29.8602 96.2404 30.5402C96.2404 31.2202 96.3004 31.8602 96.4204 32.4502C96.5504 33.0502 96.7404 33.5702 96.9804 34.0102C97.2304 34.4502 97.5404 34.7902 97.9004 35.0402C98.2704 35.2902 98.7004 35.4202 99.2004 35.4202ZM106.41 35.6802V35.2302L107.88 35.0502H108.23L110.1 35.2302V35.6802H106.42H106.41ZM107.75 35.6802V25.7702H108.27L108.38 31.7002V35.6802H107.75ZM112.9 25.8502V25.4202H116.58V25.8502L115.11 26.0302H114.78L112.9 25.8502ZM114.38 35.7502L108.13 26.6202L108.09 26.5802L107.69 25.9502L106.43 25.8502V25.4202H109.26L114.95 33.7802L114.7 33.8802L114.66 29.7202V25.4202H115.22V35.7502H114.38ZM118.06 35.6802V35.2302L119.44 35.0602H119.69L121.2 35.2302V35.6802H118.06ZM119.04 35.6802L122.49 25.3502H123.52L127.02 35.6802H125.33L122.33 26.4102H122.61L122.57 26.6102L119.69 35.6802H119.03H119.04ZM120.57 32.2702L120.65 31.8102H124.99L125.07 32.2702H120.56H120.57ZM123.66 35.6802V35.2302L125.54 35.0502H126.11L127.99 35.2302V35.6802H123.65H123.66Z" fill="black"/>
<path d="M18.4694 38.3598C21.6094 38.2098 24.2794 40.6298 24.4294 43.7698C24.5894 46.9098 22.1794 49.5798 19.0394 49.7498H18.8894C15.8494 49.8398 13.2794 47.5198 13.0494 44.4898V44.3398C12.8794 41.1898 15.3194 38.5098 18.4694 38.3598ZM23.9194 43.7898C23.7794 40.9298 21.3494 38.7298 18.4894 38.8698C15.6194 38.9998 13.4094 41.4498 13.5494 44.3098C13.6894 47.1798 16.1394 49.3898 19.0094 49.2298C21.8694 49.0798 24.0594 46.6398 23.9194 43.7898ZM15.9594 41.2498C16.0094 41.2298 15.9794 41.2298 16.0494 41.2498C16.2594 41.2798 16.4794 41.2998 16.6894 41.3098C16.8594 41.3198 17.4094 41.3098 17.5094 41.3598L17.4694 41.3898L17.3194 41.4498C17.1794 41.5098 17.0594 41.5598 16.9294 41.6898C16.9494 41.6898 16.9694 41.6898 16.9894 41.6898C17.0094 41.6898 17.0194 41.6898 17.0394 41.6998C17.6694 41.8398 18.2794 42.0398 18.8294 42.3798C18.8694 42.3598 18.9094 42.3298 18.9494 42.3098C19.5694 41.9398 20.2994 41.6398 20.9994 41.4998C21.1094 41.4598 21.2594 41.4498 21.3794 41.4298C20.6694 41.7598 19.9294 42.1398 19.3094 42.6298C19.8994 43.0498 20.4694 43.4898 20.8994 44.0898C20.9394 44.1498 21.0394 44.2898 21.0594 44.3498C21.0994 44.3998 21.1794 44.5398 21.2194 44.5998C21.5894 45.3198 21.7294 45.9998 21.4994 46.7698C20.9494 46.7698 20.3994 46.7698 19.8494 46.7798C20.8094 46.1998 20.4894 45.1698 20.0594 44.3398C19.7694 43.7898 19.3094 43.3698 18.8694 42.9498C18.0494 43.6498 16.8494 44.8698 17.0794 46.0698C17.1394 46.3998 17.3794 46.6198 17.6594 46.7798C17.1094 46.7598 16.5094 46.7798 15.9594 46.7798C15.6594 46.0398 16.0294 44.8098 16.5694 44.2698C16.9394 43.7298 17.8494 42.9898 18.4194 42.6298C18.3594 42.5898 18.2994 42.5498 18.2294 42.5098C18.1994 42.4898 18.1594 42.4698 18.1294 42.4498C17.8194 42.2898 17.4694 42.1398 17.1894 41.9998C17.1594 41.9798 17.1294 41.9698 17.0994 41.9498C17.0094 41.8998 16.9294 41.8598 16.8594 41.8098C16.7994 42.4698 16.9394 42.8298 17.2494 43.3798C17.1694 43.3098 16.8794 43.0598 16.8494 42.9598C16.6294 42.7598 15.9994 41.4798 15.9694 41.2398L15.9594 41.2498ZM35.6894 24.4998C35.7994 24.5898 36.0294 25.3198 36.0794 25.4798C36.8194 27.8598 36.6094 30.5098 36.0494 32.9098C35.8194 33.8798 35.4094 34.8798 35.0394 35.7998C33.2794 40.0898 29.9994 44.1698 25.9994 46.5498L25.6494 46.7698C25.6894 46.6498 25.8194 46.0698 25.8594 46.0398C26.0794 45.8298 26.6294 45.4798 26.8694 45.3098C27.2394 45.0398 27.6094 44.7598 27.9594 44.4698C30.0594 42.7098 31.8294 40.5898 33.1994 38.2198C34.8794 35.3398 35.8494 32.0998 36.0194 28.7798C36.1094 27.3298 36.0694 25.9398 35.6894 24.5198V24.4998ZM6.79938 43.4198C7.00938 43.5098 7.15938 43.5598 7.37938 43.6298C7.50938 43.6698 7.85938 43.7498 7.96938 43.7998C8.43938 44.0198 8.87938 44.4098 9.33938 44.6498C9.87938 44.9398 10.5394 45.2598 11.0994 45.4898C11.1294 45.6898 11.1994 45.9298 11.2494 46.1298C10.9394 45.9198 10.3694 45.6798 10.0094 45.5098C9.13938 45.0798 7.89938 44.3398 7.18938 43.6898L6.79938 43.4098V43.4198ZM35.2094 28.7098C35.2494 28.8898 35.2094 29.6598 35.2094 29.8998C35.0494 33.0198 33.7794 36.3398 32.1394 38.9598C30.8194 41.0198 29.1394 42.8298 27.1794 44.2998C26.7894 44.5898 26.3994 44.8898 25.9694 45.1198C25.9994 44.9098 26.0194 44.6998 26.0094 44.4798C26.1494 44.3498 26.3594 44.2298 26.5294 44.1198C26.7694 43.9598 27.0094 43.7898 27.2394 43.6198C27.8194 43.1998 28.4194 42.6598 28.9394 42.1598C32.3594 38.7998 34.6294 34.1998 35.1294 29.4298C35.1294 29.3398 35.1294 29.2098 35.1594 29.1198C35.1594 28.9998 35.1694 28.8098 35.1994 28.6998V28.7198L35.2094 28.7098ZM11.3294 43.2098C11.0794 43.6298 10.8994 43.9298 10.3694 43.9998C10.0394 44.0298 9.79938 43.9798 9.46938 43.9298C9.62938 43.9298 9.79938 43.9198 9.95938 43.8998C10.5994 43.7798 10.8494 43.6098 11.3294 43.1998V43.2098ZM33.2894 33.7098C33.1894 33.9998 33.1094 34.4198 33.0194 34.7398C32.9394 35.0298 32.7894 35.3798 32.7194 35.6298C32.4194 36.3398 32.1894 36.8698 31.8094 37.5598C30.4194 40.0898 28.4094 42.2198 25.9694 43.7598C25.9594 43.5798 25.9494 43.4798 25.9094 43.2998C26.3694 42.9398 26.8494 42.6498 27.3394 42.2398C29.1794 40.6898 30.7294 38.8298 31.9094 36.7298C32.0994 36.3898 32.2894 35.9898 32.4694 35.6398C32.7894 35.0098 33.0394 34.3398 33.2494 33.6698L33.2894 33.7098ZM6.98938 36.4098C6.46938 36.8298 6.13938 37.4398 6.01938 38.0998C5.82938 39.0498 6.02938 40.0398 6.56938 40.8398C7.08938 41.5898 7.87938 42.0998 8.77938 42.2598C9.40938 42.3798 9.98938 42.2898 10.5794 42.0398C10.6794 42.0898 10.6894 42.0798 10.7994 42.0398C10.2594 42.5398 9.53938 42.8098 8.79938 42.7698C7.98938 42.7398 7.62938 42.4898 6.93938 42.2698C7.86938 42.8898 8.64938 43.0598 9.74938 42.9398C10.0794 42.8798 10.1994 42.8498 10.5094 42.7198C10.3494 42.8398 10.0494 43.0198 9.85938 43.0798C9.18938 43.4898 7.83938 43.2998 7.13938 43.0398C6.15938 42.7098 5.43938 41.9598 4.99938 41.0398C4.63938 40.2798 4.42938 39.0098 4.72938 38.1898C4.85938 37.6698 4.95938 37.4898 5.20938 37.0298C5.10938 37.4298 5.05938 37.9698 5.10938 38.3798C5.20938 38.9998 5.42938 39.6698 5.83938 40.1598C5.71938 39.6198 5.56938 38.8398 5.65938 38.3098C5.72938 37.3998 6.17938 36.7898 6.98938 36.3998V36.4098ZM23.6794 37.3698C24.7794 37.8698 25.7994 38.5598 26.2294 39.7398C26.4094 40.2198 26.5194 40.9898 26.3994 41.4898C26.3594 41.7098 26.3094 42.0098 26.2194 42.2098C26.2194 42.1498 26.2294 42.0998 26.2394 42.0498C26.2394 41.9998 26.2394 41.9498 26.2494 41.9098C26.2494 41.8898 26.2494 41.8698 26.2494 41.8398C26.2494 41.7998 26.2494 41.7498 26.2494 41.7098C26.2494 41.6498 26.2494 41.5898 26.2394 41.5198C26.2394 41.4598 26.2294 41.3998 26.2194 41.3398C26.2094 41.2598 26.1994 41.1798 26.1794 41.0898C26.0994 40.7698 26.0194 40.4098 25.9094 40.0998C25.5694 39.1398 24.9794 38.4698 24.2294 37.8198C24.0494 37.6598 23.8494 37.5198 23.6794 37.3698ZM11.4994 41.1698C11.3794 41.4898 11.0794 41.8498 10.7994 42.0398C10.6894 42.0798 10.6794 42.0898 10.5794 42.0398C11.0594 41.7798 11.1894 41.6198 11.4994 41.1698ZM16.6194 27.6498C17.1294 28.2498 17.6794 29.4998 18.3694 30.0098C18.5594 30.1498 18.7794 30.1398 18.9994 30.0898C19.1794 30.0198 19.2294 29.9898 19.3894 29.8798L19.1294 30.2398C18.5694 31.2198 18.2694 31.8898 18.2394 33.0498C18.2494 33.1798 18.2594 33.3098 18.2794 33.4398C18.6494 34.9398 19.6694 35.3398 20.8394 36.1198C22.6894 37.3398 25.3794 38.8298 25.8294 41.1998L25.8494 41.3098C25.8894 41.5598 25.9094 41.8198 25.9194 42.0698C25.8294 41.8098 25.7594 41.5098 25.6894 41.2398C25.6594 41.1898 25.6194 41.0398 25.5994 40.9798C25.5794 40.9498 25.5394 40.8298 25.5194 40.7898C25.4794 40.7298 25.4094 40.5698 25.3594 40.4898C25.2094 40.2298 25.0494 39.9798 24.8694 39.7398C23.7294 38.2698 21.7894 37.2698 20.1794 36.3698C19.3494 35.8998 18.0494 35.2998 17.6594 34.3498C17.5894 34.1698 17.5794 33.8798 17.5294 33.6898C17.4594 33.4398 17.3694 33.2098 17.2294 32.9798C16.9794 32.5198 16.5394 32.2598 16.2294 31.8598C16.1994 31.8298 16.1294 31.7398 16.1094 31.6998C15.4994 30.5798 16.2694 28.7098 16.5494 27.5898L16.5994 27.6498H16.6194ZM10.8994 34.4898C11.0894 34.5898 11.3494 34.7098 11.4894 34.8698C11.6994 35.0398 11.9094 35.4498 11.9394 35.7098C11.9794 36.1598 11.8494 36.5698 11.5694 36.9198C10.9094 37.7498 9.76938 37.7398 9.06938 38.5398C8.27938 39.4398 8.83938 41.0898 10.1594 40.9098C10.2894 40.8898 10.4294 40.8398 10.5494 40.7798C10.5694 40.7898 10.5794 40.7998 10.5894 40.8098C10.5894 40.8098 10.5694 40.7898 10.5494 40.7798C10.7594 40.6898 10.8594 40.5998 11.0394 40.4598C10.9194 40.6198 10.7794 40.7898 10.6394 40.9298C10.5494 41.0398 10.3394 41.1698 10.2194 41.2298C8.65938 41.8998 7.13938 40.1898 7.74938 38.6798C8.15938 37.6598 9.09938 37.4898 10.0194 37.1598C10.4894 36.9898 11.1694 36.4798 11.3494 35.9898C11.4994 35.6098 11.4294 35.2298 11.2594 34.8598L11.2394 34.8298C11.1194 34.6598 11.0294 34.6198 10.8794 34.4898L10.9094 34.4798L10.8994 34.4898ZM12.0594 11.2598C16.3694 9.76977 21.3094 9.87977 25.4394 11.8898L25.4994 11.9198C25.5594 11.9498 25.6194 11.9698 25.6594 12.0198C25.5594 12.0198 25.4694 11.9698 25.3694 11.9298C24.8894 11.7198 23.7094 11.4198 23.1994 11.2998C20.1894 10.5898 17.3194 10.4798 14.2794 11.1298L14.2994 11.1798C16.4694 10.7798 18.6994 10.8398 20.8494 11.3498C21.3194 11.4598 21.7594 11.6598 22.1694 11.7498L22.0994 11.7898C21.4694 11.5798 20.2794 11.4198 19.6194 11.3598C16.4094 11.0698 13.1694 11.4498 10.2594 12.9098C8.02938 14.0098 6.05938 15.5898 4.48938 17.5198C4.13938 17.9598 3.83938 18.3998 3.51938 18.8598L3.49938 18.8998C3.37938 19.1398 3.08938 19.5698 2.93938 19.8198C2.58938 20.4498 2.26938 21.0998 1.98938 21.7598C0.699377 24.9298 0.309377 28.3898 0.849377 31.7598C0.989377 32.7298 1.20938 33.6898 1.50938 34.6298C1.88938 35.8098 2.37938 36.9398 2.98938 38.0198C3.23938 38.4598 3.57938 38.9298 3.81938 39.3598C3.87938 39.4698 3.97938 40.0198 4.03938 40.2298V40.2698L4.10938 40.4198C4.15938 40.5498 4.19938 40.6298 4.29938 40.7898C4.19938 40.6898 3.92938 40.3898 3.84938 40.2698L3.81938 40.2498C3.48938 39.9598 2.53938 38.3798 2.34938 38.0298C0.409377 34.4098 -0.360623 30.2798 0.149377 26.2098C0.309377 24.9898 0.539377 24.0498 0.889377 22.8798C1.61938 20.6798 2.58938 18.7698 4.04938 16.9598C4.37938 16.5498 4.80938 16.0198 5.18938 15.6498C5.25938 15.5398 5.78938 15.0598 5.91938 14.9498C7.69938 13.3198 9.78938 12.0698 12.0594 11.2598ZM9.92938 40.0698C10.0494 40.2098 10.1194 40.2698 10.2594 40.3998C10.1194 40.3398 9.88938 40.2598 9.78938 40.1698C9.82938 40.1698 9.86938 40.1698 9.91938 40.1798C9.91938 40.1498 9.91938 40.1098 9.92938 40.0798V40.0698ZM9.90938 38.7398C9.71938 39.1998 9.67938 39.6198 9.92938 40.0698C9.92938 40.0998 9.91938 40.1398 9.91938 40.1698C9.87938 40.1698 9.83938 40.1698 9.78938 40.1598C9.23938 39.7598 9.54938 39.1398 9.90938 38.7398ZM13.7994 32.5698C13.9994 32.5398 14.4794 32.7298 14.6594 32.8198C15.2294 33.0798 15.6494 33.5598 15.7494 34.1898C15.8394 34.7698 15.6894 35.3598 15.3494 35.8298C15.0294 36.2598 14.5194 36.6198 14.0594 36.8798C13.2394 37.3498 12.2294 37.5598 11.7994 38.4998C11.6594 38.7998 11.5694 39.3298 11.8794 39.5598C12.1694 39.7498 12.4294 39.5998 12.6194 39.3698C12.6194 39.3098 12.6194 39.2498 12.6194 39.1998C12.6094 38.9998 12.5394 38.8898 12.3694 38.6998C12.6494 38.8498 12.8194 39.0098 12.8394 39.2898C12.8394 39.3598 12.8394 39.4298 12.8294 39.5098V39.5498C12.7094 39.9098 12.3894 40.0698 12.0294 39.9798C11.7694 39.9098 11.5394 39.7398 11.3994 39.5098C11.2194 39.2098 11.1794 38.8398 11.2694 38.5098C11.4894 37.6198 12.4394 37.0998 13.1694 36.6598C13.6994 36.3498 14.1594 36.0398 14.3094 35.4098C14.4494 34.8498 14.2194 34.1398 13.5894 34.0098C13.3694 33.9698 13.1494 34.0098 12.9594 34.1398C12.5894 34.3998 12.6094 34.7598 12.8394 35.0998C12.9494 35.2098 13.0394 35.2298 13.1694 35.3098C13.0094 35.2798 12.8394 35.2698 12.6994 35.1898L12.6694 35.1698C12.4894 35.0398 12.4094 34.9198 12.3794 34.7098C12.2094 33.5798 13.6594 33.1098 14.4394 33.7198C14.8394 34.0298 14.9794 34.4298 14.9894 34.9098C15.1394 34.4598 15.1694 33.9598 14.9494 33.5398C14.7294 33.1198 14.2994 32.7298 13.8394 32.5998C13.8094 32.5998 13.8194 32.5998 13.7894 32.5698H13.7994ZM8.34938 36.9398C7.49938 37.2498 6.92938 38.2098 6.88938 38.9698C6.58938 38.1098 6.83938 37.4398 7.70938 37.0998C7.80938 37.0598 8.26938 36.9298 8.34938 36.9298V36.9398ZM9.86938 14.0198C8.23938 14.9598 7.08938 16.0298 5.81938 17.3898L5.78938 17.3698C5.78938 17.3698 5.67938 17.4398 5.59938 17.4798L5.70938 17.4198C5.70938 17.4198 5.76938 17.3798 5.78938 17.3698L5.81938 17.3898V17.4098C5.60938 17.6798 5.34938 17.9498 5.14938 18.2198C4.75938 18.7398 4.41938 19.2698 4.08938 19.8198C1.95938 23.3798 1.36938 27.5998 2.00938 31.6698C2.39938 34.1298 2.99938 35.8698 4.28938 37.9698C4.24938 38.1198 4.23938 38.2298 4.20938 38.3798C3.84938 37.8898 3.48938 37.3798 3.19938 36.8498C0.0193772 30.8398 0.829377 22.8398 5.28938 17.6998C5.33938 17.6998 5.38938 17.6798 5.40938 17.6398C5.40938 17.6398 5.35938 17.6898 5.31938 17.6998C5.30938 17.6998 5.29938 17.6998 5.27938 17.6998C6.53938 16.2398 8.17938 14.8698 9.87938 13.9398L9.85938 14.0098L9.86938 14.0198ZM16.0094 23.9498C15.9594 24.1198 15.9294 24.2698 15.9094 24.4498C15.8894 24.7398 15.8894 25.0898 15.9394 25.3798C16.0694 26.1598 16.2694 26.6198 16.1394 27.4198C15.9694 28.4698 15.5294 28.5298 15.0194 29.2498C14.5294 29.9998 14.4794 30.9898 15.1094 31.6798C15.4194 32.0098 15.7594 32.2398 16.0994 32.4898C17.4694 33.4898 17.3594 35.5198 16.0794 36.5498C15.5494 36.9798 15.0594 37.3198 14.3994 37.5298C14.1594 37.6298 14.0094 37.6798 13.7594 37.7398C13.8494 37.6998 13.9494 37.6498 14.0494 37.6098L14.3394 37.4798C14.9894 37.0998 15.7394 36.5598 16.0694 35.8598C16.2794 35.4098 16.3394 34.8698 16.2794 34.3798C15.9794 32.0398 13.7094 31.9998 13.2894 30.7598C13.0894 30.1598 13.4194 29.5498 13.8494 29.1398C14.3594 28.6498 14.9794 28.3598 15.3494 27.7198C15.9994 26.5898 15.2594 25.2698 15.7294 24.3198C15.7994 24.1398 15.8494 24.0398 15.9794 23.9198C15.9994 23.8998 16.0194 23.8798 16.0394 23.8698C16.0394 23.8898 16.0194 23.9198 16.0194 23.9398L16.0094 23.9498ZM17.0694 36.5298C17.1594 36.5598 18.0494 37.0998 18.1994 37.1898C17.7394 37.1198 17.3094 36.9398 17.0694 36.5298ZM17.6094 35.2098C18.0094 35.8698 18.7994 36.2698 19.4494 36.6498C19.6194 36.7498 19.7994 36.8198 19.9694 36.9298C20.1394 37.0098 20.2894 37.0798 20.4694 37.1598C20.2494 37.1398 19.8994 37.1298 19.6894 37.0798C18.8294 37.0098 17.9394 36.4898 17.4194 35.8098C17.4994 35.6398 17.5594 35.3998 17.6194 35.2098H17.6094ZM10.7194 31.0098C10.4694 31.0998 10.2094 31.1098 9.93938 31.1898C8.92938 31.5398 8.26938 31.8798 7.76938 32.8898C7.05938 34.3298 7.76938 35.9598 9.44938 36.0698C9.57938 36.0698 9.79938 36.0398 9.93938 36.0198C10.2794 35.9198 10.3894 35.8698 10.7094 35.6998C10.5094 35.8698 10.3494 36.0198 10.1094 36.1398C9.90938 36.2598 9.65938 36.3498 9.42938 36.3798C8.68938 36.4898 7.94938 36.2998 7.33938 35.8598C6.84938 35.4998 6.51938 34.9498 6.43938 34.3498C6.34938 33.6798 6.55938 32.9198 6.96938 32.3898C7.63938 31.5398 8.64938 31.1798 9.67938 31.0398H9.93938C10.1994 31.0198 10.4594 31.0098 10.7094 31.0098H10.7194ZM26.7494 33.6498C26.7894 33.8098 26.7994 33.9798 26.7994 34.1398V34.2098C26.9394 34.8898 27.2594 34.9798 27.8894 35.1298C26.9994 35.1298 26.8194 35.6098 26.7894 36.3898H26.7694C26.6694 35.4998 26.5394 35.1798 25.5494 35.1298C26.2994 35.0398 26.6294 34.8598 26.7294 34.0998V34.0198C26.7294 33.8798 26.7394 33.7798 26.7494 33.6398V33.6498ZM19.4494 31.6998C19.4494 31.6998 19.4494 31.7198 19.4494 31.7598C19.4294 31.9698 19.4094 32.2398 19.4494 32.4498C19.6294 33.6698 20.9094 33.7298 21.7194 34.3798C22.1794 34.7498 22.6094 35.2298 22.6894 35.8398C22.7094 35.9698 22.7094 36.2598 22.6294 36.3598H22.5794C22.4094 36.2298 22.4594 36.1698 22.4094 35.9598C22.1394 34.8998 21.1494 34.5698 20.2794 34.1098C19.4194 33.6498 18.9194 32.5998 19.4494 31.6998ZM4.81938 32.4398C4.65938 32.7098 4.60938 32.8398 4.50938 33.1398C4.32938 34.2698 4.52938 35.0298 5.34938 35.8398C5.41938 35.9098 5.62938 36.0798 5.70938 36.1598L5.15938 35.8798C4.23938 35.3998 3.73938 34.2498 4.16938 33.2798C4.22938 33.1498 4.28938 33.0198 4.37938 32.9198C4.50938 32.7298 4.63938 32.5898 4.80938 32.4398H4.81938ZM20.9994 35.3398C21.5094 35.3598 21.9394 35.6798 22.1994 36.0998C22.1194 36.0698 21.6594 35.7098 21.5394 35.6298C21.3394 35.4998 21.2294 35.4498 21.0094 35.3398H20.9994ZM8.49938 30.8298C8.26938 30.9398 8.01938 30.9698 7.75938 31.0998C7.72938 31.0598 7.69938 31.0398 7.67938 31.0298C7.69938 31.0298 7.72938 31.0598 7.75938 31.0998C7.20938 31.3998 6.89938 31.5498 6.48938 32.0698C5.99938 32.6998 5.77938 33.4898 5.88938 34.2798C5.98938 35.0998 6.36938 35.5398 6.98938 36.0298C6.82938 35.9698 6.59938 35.8898 6.44938 35.7998C4.97938 34.9298 5.20938 32.6198 6.40938 31.6198C6.66938 31.3998 7.00938 31.1598 7.33938 31.0698H7.38938C7.64938 30.9798 8.31938 30.8098 8.49938 30.8298ZM9.60938 35.2498C9.80938 35.3398 9.87938 35.3498 10.0994 35.3798C9.86938 35.3998 9.68938 35.4098 9.45938 35.4098L9.51938 35.3898C9.51938 35.3898 9.57938 35.2998 9.60938 35.2498ZM11.5994 31.1698C11.4894 31.3098 11.3494 31.4998 11.2194 31.6198L11.1994 31.6398C10.6194 32.2898 9.58938 32.0998 9.01938 33.1498C8.86938 33.4298 8.78938 33.7498 8.80938 34.0798C8.83938 34.5998 9.11938 35.0598 9.60938 35.2598C9.57938 35.3098 9.54938 35.3498 9.51938 35.3998L9.45938 35.4198C8.99938 35.3698 8.61938 35.0898 8.39938 34.6998C7.70938 33.4898 8.52938 32.2498 9.77938 31.9098C10.2294 31.7898 10.6894 31.7198 11.0994 31.5098L11.1794 31.4698C11.3194 31.3798 11.4594 31.2898 11.5894 31.1898L11.5994 31.1698ZM14.2094 25.4598C14.3194 25.6298 14.3594 25.7198 14.4394 25.8998C14.5094 26.0898 14.5694 26.3498 14.5894 26.6198C14.5994 26.7998 14.5894 26.9898 14.5494 27.1398C14.5494 27.1698 14.5294 27.1998 14.5194 27.2198C14.5194 27.2498 14.4994 27.2698 14.4894 27.2998C14.4894 27.3098 14.4794 27.3198 14.4694 27.3298V27.3698C14.1394 28.1998 13.1894 28.4198 12.8094 29.2798C12.2794 30.4998 13.5194 31.1498 12.8994 32.2698C12.2794 33.3698 10.7994 32.8798 10.2794 33.9498C10.2494 34.1098 10.2094 34.2598 10.1794 34.4198C10.1794 34.3698 10.1494 34.2498 10.1294 34.1598C10.1294 34.1498 10.1294 34.1298 10.1294 34.1198C10.1294 34.1098 10.1294 34.0998 10.1294 34.0898C10.0694 33.8098 10.1094 33.3898 10.2394 33.1398C10.7794 32.1098 12.3894 32.7198 12.4094 31.3098C12.4294 30.3298 11.2594 30.1598 11.6194 29.1498C11.9394 28.1898 13.0994 28.1398 13.7994 27.6298C14.4394 27.1498 14.4394 26.1298 14.2094 25.4498V25.4598ZM30.1294 31.0398C30.1894 31.3898 30.2194 31.7698 30.4294 32.0698C30.7094 32.4698 31.1494 32.4798 31.5794 32.5598C30.5594 32.5598 30.1994 32.9598 30.1694 33.9698V33.9898C29.9994 33.9198 30.4194 32.5598 28.7794 32.5598C29.0994 32.4898 29.4294 32.4898 29.6894 32.2698C30.0694 31.9698 30.0694 31.4598 30.1294 31.0398ZM33.3194 33.4998C33.3194 33.5898 33.3194 33.6198 33.2894 33.7198L33.2494 33.6798C33.2594 33.6198 33.2694 33.5398 33.2894 33.4898L33.3094 33.5098L33.3194 33.4998ZM11.2494 31.5098C11.2494 31.5098 11.2194 31.5698 11.2194 31.5798C11.2194 31.5698 11.2394 31.5498 11.2594 31.5098H11.2494ZM9.00938 23.1498L8.97938 23.2198C8.24938 24.7098 6.92938 24.3898 6.02938 25.8398C5.78938 26.4398 5.60938 27.3098 5.91938 27.8898C6.39938 28.8098 7.04938 29.2898 6.61938 30.4498C6.27938 31.3598 5.10938 31.7498 4.21938 31.4298C3.74938 31.2498 3.44938 30.6798 3.64938 30.2098C3.68938 30.1098 3.79938 29.9498 3.88938 29.8898C4.06938 29.7198 4.19938 29.6698 4.41938 29.5698C4.22938 29.7398 4.20938 29.7498 4.13938 29.9898C4.14938 30.1298 4.15938 30.2998 4.22938 30.4198C4.29938 30.5598 4.42938 30.6598 4.57938 30.6998C4.82938 30.7698 5.12938 30.6998 5.34938 30.5698C5.59938 30.4298 5.77938 30.1998 5.84938 29.9198C5.92938 29.6098 5.88938 29.1598 5.72938 28.8798C5.62938 28.7098 5.49938 28.5398 5.39938 28.3698C4.05938 26.8198 4.99938 25.0798 6.67938 24.3298C7.12938 24.1298 7.57938 24.0398 8.00938 23.7798C8.30938 23.5998 8.51938 23.4198 8.75938 23.1898L8.85938 23.0898C8.98938 22.9498 9.06938 22.8398 9.18938 22.6898L9.01938 23.1698L9.00938 23.1498ZM15.3194 29.7898C15.3194 29.7898 15.2994 30.0598 15.2994 30.1098C15.2894 30.4598 15.3094 30.7198 15.4094 31.0498C15.4494 31.1698 15.6094 31.4498 15.5894 31.5098L15.5294 31.4698C15.0594 31.0098 14.9594 30.3498 15.3094 29.7898H15.3194ZM7.62938 31.0298C7.57938 31.0298 7.51938 31.0798 7.42938 31.0798H7.38938C7.50938 31.0898 7.56938 31.0398 7.62938 31.0298ZM27.7794 30.4998C27.7794 30.6298 27.7894 30.7398 27.7594 30.8598L27.7494 30.8198L27.7694 30.8598C27.7394 30.7798 27.7394 30.6398 27.7494 30.5498L27.7894 30.4998H27.7794ZM27.7394 26.5598C27.9394 27.9998 28.0694 28.5398 29.6494 28.6998C29.0694 28.7598 28.5894 28.7998 28.1794 29.2698C27.9594 29.5198 27.7794 30.1798 27.7794 30.4898L27.7394 30.5398C27.7294 30.1498 27.6094 29.6198 27.3694 29.3098C27.0294 28.8698 26.6194 28.7898 26.1094 28.7098C26.0394 28.7098 25.9794 28.7098 25.9294 28.6698C25.9894 28.6398 26.0594 28.6498 26.1194 28.6498C26.5694 28.6098 26.9794 28.5298 27.2794 28.1698C27.6994 27.6698 27.6694 27.1198 27.7494 26.5398L27.7394 26.5598ZM22.0794 14.3098C21.0294 14.8398 20.6594 15.1898 20.3594 16.3498C20.5194 16.0498 20.6494 15.7998 20.8594 15.5398C21.2994 14.9998 21.9394 14.6498 22.6394 14.5798C23.2694 14.5198 23.8594 14.7198 24.2494 15.2298C24.7594 15.8898 24.4694 16.6498 23.9794 17.2198C24.0794 16.8798 24.1294 16.4798 23.9994 16.1398C23.7694 15.4998 22.9594 15.3198 22.3794 15.5598C21.5994 15.8798 21.1594 16.6498 20.9394 17.4198C20.8994 17.5398 20.8694 17.6698 20.8294 17.7898C20.7494 18.0698 20.6894 18.3598 20.5694 18.6198C20.5694 18.5998 20.5594 18.5698 20.5594 18.5498C20.5594 18.5698 20.5594 18.5898 20.5694 18.6198C20.3394 19.4498 19.4694 20.3298 18.7294 20.7298C18.0194 21.1198 17.2094 21.2998 16.3994 21.2898C15.1594 21.2598 14.1094 20.7698 12.8494 21.0498C11.6994 21.3098 11.1294 22.3198 11.7394 23.3698C11.9994 23.8098 12.5794 24.2498 12.9394 24.6898C12.7294 23.7898 11.6794 22.9698 12.2594 21.9798C12.3994 21.7298 12.7594 21.4798 13.0394 21.4198C13.2994 21.3098 13.5494 21.2898 13.8194 21.2398C13.8394 21.2598 13.8494 21.2598 13.8494 21.2698C13.8494 21.2698 13.8394 21.2598 13.8194 21.2398C13.9094 21.2198 13.9094 21.2198 14.0094 21.2298L14.0394 21.2498C13.9794 21.2898 13.9294 21.2798 13.8594 21.2898C13.8594 21.2898 13.8594 21.2798 13.8594 21.2698C13.8594 21.2698 13.8594 21.2698 13.8594 21.2898C13.6194 21.3398 13.4994 21.3798 13.2894 21.4898C12.9094 21.7398 12.5894 21.9698 12.4794 22.4398C12.3994 22.7798 12.5694 23.2698 12.7794 23.5398C13.2894 24.2098 13.7894 24.5598 13.6294 25.4998C13.5394 26.0298 13.2894 26.4798 12.8294 26.7998C11.9194 27.4198 10.5194 27.2898 10.2194 28.6298C10.1394 28.9998 10.2194 29.4398 10.4494 29.7498C10.5494 29.8998 10.6794 30.0298 10.8294 30.1298C10.8894 30.1598 11.0194 30.2198 11.0494 30.2698C10.9994 30.3098 10.9194 30.3098 10.8394 30.3098C10.7394 30.3498 10.4794 30.3698 10.3594 30.3698C8.75938 30.4198 7.09938 28.9798 7.61938 27.2898C7.96938 26.1498 9.09938 25.9698 10.0394 25.5398C10.4394 25.3598 10.6194 24.9998 10.7394 24.5898C10.7594 24.4098 10.7794 24.3298 10.7594 24.1898C10.7594 24.1498 10.7494 24.1098 10.7394 24.0598C10.8794 24.2898 10.9594 24.3798 11.0094 24.6498C11.0894 24.8998 11.0394 25.1698 10.9294 25.3998C10.7094 25.8598 10.1794 26.0398 9.76938 26.3198C8.92938 26.8898 8.42938 27.7898 8.76938 28.7998C8.91938 29.2498 9.22938 29.6098 9.64938 29.8198C9.81938 29.9098 10.0194 29.9698 10.2094 30.0298C9.88938 29.7998 9.63938 29.5898 9.47938 29.2198C9.30938 28.9098 9.22938 28.5598 9.24938 28.2198C9.24938 28.0298 9.29938 27.8398 9.35938 27.6598C9.78938 26.4698 11.2694 26.7198 11.9394 25.7398C12.1194 25.4698 12.1694 25.2198 12.1494 24.9298C12.1494 24.8398 12.1294 24.7398 12.1094 24.6398C11.7394 23.6398 10.3794 23.0298 10.6494 21.6998C10.6494 21.6798 10.6494 21.6498 10.6494 21.6298C10.6994 21.2598 11.0094 20.7598 11.2694 20.5498C12.7294 19.3798 14.6594 20.3098 16.2594 20.3898C16.6194 20.3498 16.7794 20.3898 17.1994 20.2898C18.1894 20.0298 18.6794 19.4698 19.1894 18.6298C19.2494 18.6598 19.2594 18.6698 19.3194 18.6698C19.8494 18.3798 20.1194 17.2798 20.4894 16.7598C20.1294 17.2698 19.8594 18.3798 19.3194 18.6698C19.2594 18.6698 19.2494 18.6698 19.1894 18.6298C19.7094 17.5898 19.6294 16.4398 20.2594 15.4498C20.6694 14.8098 21.3694 14.4498 22.0894 14.2898L22.0794 14.3098ZM22.5294 17.3098C22.7394 17.3198 22.9294 17.4398 23.0894 17.5798C23.1094 17.5998 23.1394 17.6198 23.1594 17.6498C23.7194 18.4198 24.2194 20.3098 24.0894 21.2798C24.0394 21.5698 23.8894 21.8698 23.7694 22.1298C23.3994 22.9198 23.8894 23.6698 24.3094 24.3198C24.5994 24.7598 25.4294 25.2998 24.5694 25.6998C24.2194 25.8198 23.8594 25.8898 23.8094 26.3198C23.8394 26.6198 23.8994 26.6198 24.0194 26.8698C24.0394 26.9798 24.0194 27.0798 23.9894 27.1598C23.7794 27.6598 22.7394 27.5698 22.2394 27.4498C22.2194 27.4498 22.1994 27.4498 22.1794 27.4398C22.1594 27.4398 22.1494 27.4398 22.1294 27.4298L22.0994 27.4598C22.1494 27.6198 22.4694 27.6698 22.6194 27.6998H22.6594C22.7294 27.7098 22.8694 27.7198 22.9894 27.7198C23.0094 27.7198 23.0394 27.7198 23.0594 27.7198C23.0994 27.7198 23.1394 27.7198 23.1694 27.7198C23.2394 27.7198 23.2994 27.7098 23.3594 27.7198C23.3794 27.7198 23.3894 27.7198 23.3994 27.7198C23.4594 27.7198 23.5094 27.7398 23.5494 27.7598C23.5894 27.7798 23.6294 27.7998 23.6594 27.8298C23.6594 27.8298 23.6694 27.8398 23.6794 27.8498C23.7794 27.9598 23.7694 28.1298 23.5994 28.2998C23.5894 28.3098 23.5794 28.3198 23.5594 28.3298C23.5294 28.3498 23.4994 28.3798 23.4694 28.3998C23.4294 28.4298 23.3794 28.4498 23.3294 28.4598C23.1694 28.4898 22.9894 28.4198 22.8594 28.3998C22.8494 28.3998 22.8294 28.3998 22.8194 28.3998C22.7994 28.3998 22.7694 28.3998 22.7594 28.3998C22.9894 28.8498 23.3994 28.9398 23.2694 29.4898C23.2494 29.6098 23.1994 29.7098 23.1194 29.8098C22.9294 30.0398 22.6194 30.1498 22.3294 30.1798C22.2094 30.1798 22.0594 30.1798 21.8994 30.1398H21.8794C21.7094 30.0998 21.5294 30.0498 21.3294 29.9698C21.1194 29.8998 20.8994 29.7998 20.6794 29.6998C19.5594 29.1998 18.3094 28.4298 17.8194 27.9998C17.1894 27.4498 16.7594 26.7198 16.5794 25.9098C16.5294 25.6798 16.4994 25.4498 16.4894 25.2198C16.4794 24.9898 16.4894 24.7398 16.5294 24.5098C16.6094 24.0598 16.7794 23.6198 17.0694 23.2698C17.4694 22.7898 18.1394 22.7798 18.6594 22.4698C20.0294 21.6398 20.8794 20.2698 21.3594 18.7698C21.5194 18.2798 21.6794 17.5798 22.1994 17.3898C22.2094 17.3898 22.2294 17.3798 22.2394 17.3698C22.2894 17.3598 22.3394 17.3398 22.3994 17.3398C22.4194 17.3398 22.4394 17.3398 22.4694 17.3398H22.5194L22.5294 17.3098ZM11.2294 28.0898C11.2294 28.0898 11.2294 28.0898 11.2494 28.1198C11.2194 28.1498 11.1894 28.1798 11.1694 28.2098C10.8494 28.5898 10.7294 29.0198 10.7694 29.4998C10.6794 29.3098 10.6494 28.9898 10.6894 28.7798C10.7594 28.4398 10.9794 28.2698 11.2394 28.0898H11.2294ZM6.38938 23.4598C6.58938 23.5298 6.62938 23.3998 6.78938 23.4998C4.90938 24.1198 3.43938 25.3798 3.99938 27.5298C4.00938 27.5698 4.30938 28.2598 4.30938 28.3398C4.22938 28.2598 3.99938 27.8698 3.91938 27.7998V27.7598C3.74938 27.4798 3.62938 27.0698 3.59938 26.7598C3.51938 26.0098 3.74938 25.2698 4.22938 24.6898C4.73938 24.0698 5.59938 23.5598 6.38938 23.4798V23.4598ZM9.54938 23.2498C9.68938 23.3998 9.85938 23.7398 9.88938 23.9498C10.0194 24.9798 8.91938 25.2598 8.20938 25.6098C7.83938 25.7998 7.44938 26.0598 7.19938 26.3798C7.00938 26.6198 6.86938 26.9098 6.78938 27.2098C6.72938 27.4498 6.70938 27.7598 6.70938 28.0098C6.70938 28.0798 6.72938 28.1198 6.69938 28.1598L6.63938 28.1298C6.18938 27.6198 6.07938 26.8898 6.30938 26.2598C6.93938 24.4898 8.87938 25.1998 9.55938 23.2598L9.54938 23.2498ZM32.7794 11.8498C33.0494 11.9898 33.5094 12.2598 33.7294 12.4698C33.9094 12.5598 34.2494 12.8698 34.3994 13.0098C35.4294 13.9498 36.1994 15.1398 36.6194 16.4698C37.2194 18.3698 36.9294 19.8398 36.2794 21.6798C36.9894 22.3398 37.3794 22.7798 37.7794 23.6598C37.8494 23.8198 37.9794 23.9998 38.0594 24.1698C37.1494 23.3098 36.3294 23.7798 35.3994 23.4098C34.4894 24.7498 33.3794 25.9798 31.9994 26.8498C32.6294 26.0598 33.1894 24.5598 33.4594 23.5898C33.5494 23.2798 33.6194 22.8798 33.6994 22.5498C30.9594 21.7898 28.5894 20.3398 27.1394 17.8398C27.3194 18.0298 27.5094 18.2198 27.6994 18.3898C29.1694 19.6698 31.1394 20.3098 33.0694 20.3598C33.1894 20.3598 33.3294 20.3598 33.4494 20.3798C33.0694 18.8198 32.2394 17.0098 31.3494 15.6698C32.7494 16.9398 33.9694 18.3398 34.8794 20.0098C35.7794 17.7798 35.4994 15.4298 34.1194 13.4598C34.0194 13.3098 33.5594 12.7798 33.5294 12.6898C33.5294 12.6698 33.5094 12.6398 33.5094 12.6198C33.5094 12.6398 33.5194 12.6598 33.5294 12.6898C33.2594 12.4298 33.0294 12.2098 32.7494 11.9498L32.7694 11.8498H32.7794ZM23.1294 25.1498C23.0594 25.2098 22.9394 25.4098 22.9294 25.5098C22.8794 25.9198 23.1394 26.0198 23.4794 26.0798C23.4594 26.0298 23.2594 25.9098 23.1894 25.8598C22.9594 25.5698 23.1594 25.4198 23.1294 25.1498ZM16.1294 22.7498C16.0094 22.8298 15.8794 22.8698 15.7594 22.9498C14.9294 23.5298 14.8394 24.3998 15.0194 25.2898L15.0394 25.3798C15.0794 25.5798 15.0694 25.6998 15.0694 25.8998C14.9994 25.7598 14.9094 25.5898 14.8494 25.4498C14.8094 25.3998 14.7494 25.2698 14.7194 25.1998C14.4294 24.5498 14.5094 23.6198 15.0794 23.1398C15.3694 22.8898 15.7594 22.8298 16.1194 22.7398L16.1294 22.7498ZM24.4394 25.5698C24.2294 25.5298 23.7894 25.5898 23.6694 25.7698C23.6694 25.8398 23.6594 25.8198 23.6994 25.8498C23.8294 25.8198 23.9394 25.7598 24.0894 25.7398C24.1794 25.7298 24.3894 25.6898 24.4494 25.6298V25.5698H24.4394ZM19.8494 20.5398C19.7794 20.6598 19.7594 20.6998 19.6694 20.7998C19.5394 20.9498 19.3994 21.0998 19.2594 21.2398C19.2394 21.2398 19.2294 21.2498 19.2194 21.2598C19.1894 21.2698 19.1794 21.2798 19.1494 21.2798C19.1394 21.2798 19.1194 21.2798 19.0994 21.2798V21.2498H19.0894V21.2798C19.1794 21.2798 19.1994 21.2598 19.2694 21.2398C18.4794 22.0098 17.3494 22.2998 16.2794 22.3898C15.9894 22.4298 15.6294 22.3898 15.3494 22.4798C14.0094 22.8798 14.0794 24.1998 14.3594 25.2598C14.0294 24.7198 13.5894 23.8798 13.7594 23.2398C13.8994 22.6898 14.4394 22.1398 14.9894 21.9898C15.3194 21.8998 15.6694 21.9398 16.0094 21.9198C17.1394 21.8498 18.1394 21.7598 19.1394 21.1598C19.3294 21.0398 19.4594 20.9398 19.6294 20.7898L19.8594 20.5498L19.8494 20.5398ZM22.8494 21.9598C22.2094 22.2498 22.2794 22.4298 22.2094 23.0698C21.5294 22.9098 20.8794 22.6698 20.2594 22.3498C20.6594 23.0298 21.3294 23.7698 22.1294 23.9698C22.1694 23.9798 22.2094 23.9898 22.2494 23.9998C22.1594 23.9098 22.0594 23.7998 21.9694 23.7198C22.3794 23.7798 22.8594 23.6998 23.2094 23.4698L22.8394 23.3498H22.8194L22.7794 23.3198C22.1794 23.0498 22.5994 22.3298 22.8394 21.9498L22.8494 21.9598ZM19.5994 14.4298C19.9194 14.3098 20.4894 14.3598 20.8394 14.3698C18.8294 15.6398 19.5094 17.7398 18.0594 19.0998C16.7094 20.3598 14.7794 19.6998 13.1494 19.5998C12.7994 19.6298 12.3794 19.6098 12.0394 19.7198C10.9694 20.0498 10.3394 20.6798 10.1594 21.4198C10.1494 21.4698 10.1394 21.5098 10.1294 21.5598C10.1294 21.5798 10.1294 21.6098 10.1294 21.6298C10.1294 21.6798 10.1294 21.7198 10.1194 21.7698C10.1194 21.7898 10.1194 21.8198 10.1194 21.8398C10.1194 21.8898 10.1194 21.9398 10.1194 21.9798C10.1194 22.0498 10.1294 22.1298 10.1394 22.1998C10.1394 22.2498 10.1594 22.2998 10.1694 22.3498C10.1994 22.4698 10.2394 22.5998 10.2894 22.7198C10.3094 22.7698 10.3294 22.8198 10.3494 22.8698C10.3694 22.9198 10.3994 22.9698 10.4194 23.0198C10.4494 23.0698 10.4694 23.1198 10.4994 23.1698C10.5394 23.2498 10.5894 23.3198 10.6494 23.3998C10.6894 23.4498 10.7194 23.4998 10.7594 23.5498C10.7994 23.5998 10.8394 23.6498 10.8794 23.6998C10.5694 23.4898 9.97938 23.0398 9.88938 22.6398C9.30938 21.5098 9.81938 19.9298 10.8394 19.2198C11.9294 18.4698 13.1894 18.5298 14.4194 18.8298C14.8294 18.9398 15.2094 19.0798 15.6294 19.1598C17.0994 19.4398 18.0694 18.5098 18.2994 17.0698C17.8894 18.0598 17.3994 18.6898 16.2694 18.7598C18.3994 17.6998 17.3194 15.2698 19.5994 14.4198V14.4298ZM7.31938 23.3598C7.25938 23.4198 6.88938 23.4798 6.78938 23.4998C6.62938 23.3998 6.57938 23.5298 6.38938 23.4598C6.63938 23.4098 7.04938 23.3798 7.31938 23.3598ZM12.6694 14.3498C13.7894 13.8998 15.0994 13.5898 16.2994 13.7898C14.1194 14.0898 11.8194 15.3798 10.9494 17.4898C10.8294 17.7798 10.6794 18.1898 10.6394 18.5098C10.6394 18.5398 10.6094 18.6398 10.5894 18.6498C10.2294 18.9798 9.88938 19.2098 9.58938 19.6198V19.5098C9.58938 19.3998 9.60938 19.2898 9.60938 19.1798C9.64938 18.7498 9.71938 18.3498 9.86938 17.9198C10.2694 16.9998 10.6694 16.2398 11.4194 15.5298L11.3994 15.4798C11.0994 15.7398 10.7294 16.0598 10.4694 16.3598C9.61938 17.3398 9.09938 18.5498 9.03938 19.8598C8.98938 20.9698 8.96938 22.0098 8.10938 22.8498C8.22938 22.5598 8.46938 22.3498 8.55938 21.9898C8.73938 21.2098 8.61938 20.4298 8.68938 19.5998C8.90938 17.2498 10.4294 15.2298 12.6294 14.3598L12.6694 14.3498ZM23.0394 21.0098C22.1994 20.3098 21.7794 20.3098 20.8794 20.8398C20.6194 21.0298 20.2694 21.2398 20.1094 21.5198C20.1094 21.5798 20.1094 21.5598 20.1194 21.6098C20.2994 21.4398 20.9594 21.1398 21.1994 21.0698C21.6994 20.9298 22.0994 21.0098 22.5494 21.2598C22.7594 21.3798 23.1194 21.7398 23.2294 21.7898C23.2394 21.7598 23.2594 21.7098 23.2794 21.6898C23.6494 21.3398 23.2794 21.2098 23.0294 20.9998L23.0394 21.0098ZM24.5194 16.5598C24.7094 16.6298 24.8494 16.6698 25.0294 16.7698C25.3694 16.9298 25.6494 17.1898 25.7594 17.5498C26.0894 18.5698 25.4394 19.4098 25.1594 20.3298C25.1194 20.4498 25.1094 20.6398 25.1094 20.7998V20.9498L25.1194 21.0098C25.1794 21.2998 25.2694 21.3798 25.4394 21.6398C25.1994 21.4398 25.0094 21.2298 24.9194 20.9298L24.8994 20.8898C24.5394 20.1098 25.3494 18.9598 25.3994 18.1398C25.4294 17.6598 25.2694 17.2798 24.9494 16.9198C24.9494 16.9198 24.9494 16.9098 24.9494 16.8998C24.9494 16.8998 24.9494 16.9098 24.9494 16.9198C24.8094 16.7898 24.6494 16.6898 24.5094 16.5598H24.5194ZM20.5194 18.3398C20.3594 18.3698 20.0794 18.8098 19.9194 18.9698C20.0794 18.8198 20.3594 18.3698 20.5194 18.3398ZM19.2994 13.7398C19.8394 13.6498 20.5994 13.8398 21.1094 14.0098C20.1594 13.9498 19.4894 14.0198 18.6894 14.5898C17.2294 15.6198 17.8394 17.4198 16.1794 18.2698C15.6494 18.5298 15.1394 18.5098 14.5694 18.4398C15.6294 17.8898 15.7694 17.1598 16.1894 16.1298C16.7294 14.7698 17.8694 13.9398 19.2994 13.7398ZM17.3194 14.1698C16.5294 14.6198 15.9894 15.4398 15.6594 16.2698C15.1894 17.4798 14.7294 17.9698 13.4194 18.1398C13.7394 17.9798 13.9494 17.8898 14.3094 17.5998C14.9894 17.0498 15.1894 16.1098 15.6794 15.4298C15.6794 15.4298 15.6794 15.4198 15.6794 15.4098H15.6594C15.2394 15.9398 14.5994 17.1098 14.0894 17.3998C13.5994 17.8298 12.8294 17.9398 12.2094 18.0998C11.8594 18.1898 11.5094 18.2898 11.1694 18.4198C11.1694 18.4198 11.1694 18.4198 11.1694 18.4098C11.2694 18.0998 11.4394 17.5998 11.6094 17.3398C12.0294 16.2598 13.4694 15.1098 14.5294 14.6698C15.5994 14.2198 16.2194 14.1798 17.3194 14.1798V14.1698ZM3.74938 17.9998C3.76938 18.0598 3.76938 18.0998 3.76938 18.1398C3.76938 18.0998 3.76938 18.0498 3.74938 17.9998ZM3.57938 17.9098C3.49938 17.9798 3.44938 18.0698 3.31938 18.0998C3.44938 18.0698 3.50938 17.9698 3.59938 17.8998H3.57938V17.9098ZM3.61938 17.8798H3.63938C3.63938 17.8798 3.62938 17.8798 3.61938 17.8798ZM5.51938 17.5298C5.51938 17.5298 5.49938 17.5398 5.48938 17.5498C5.50938 17.5398 5.51938 17.5198 5.53938 17.5098L5.50938 17.5298H5.51938ZM23.3194 16.3398C23.6494 16.5098 23.6994 17.0698 23.6894 17.3998C23.6394 17.3398 23.5594 16.7998 23.4794 16.6498C23.4194 16.5298 23.3994 16.4798 23.3194 16.3498V16.3398ZM22.5694 16.4498C22.9694 16.5798 23.1394 16.9198 23.2194 17.2998C23.1694 17.2498 23.0194 16.9998 22.9694 16.9298C22.8294 16.7298 22.7394 16.6198 22.5694 16.4398V16.4498ZM28.5594 10.8598C28.6394 10.9298 29.1494 13.0198 29.2294 13.2998C29.4494 13.2998 29.8694 13.2498 30.0894 13.2298C30.6094 13.1798 31.1194 13.1298 31.6294 13.0698C31.0194 13.5498 30.1994 14.0798 29.5494 14.5098C29.7694 15.0198 29.9794 15.5198 30.1894 16.0298C30.2994 16.2998 30.4794 16.6898 30.5494 16.9598C29.9394 16.4298 29.2494 15.7598 28.6594 15.2098C28.5894 15.2698 28.5094 15.3498 28.4394 15.4098C27.8694 15.9198 27.3294 16.4598 26.7594 16.9698C27.0194 16.2098 27.4294 15.2798 27.7294 14.5198C27.6394 14.4498 27.5394 14.3998 27.4494 14.3398C26.8094 13.9598 26.1594 13.5898 25.5394 13.1698C26.3694 13.2498 27.1994 13.3198 28.0294 13.3898C28.2494 12.6198 28.4094 11.6698 28.5594 10.8798V10.8598ZM24.9194 16.7798C24.9194 16.7798 24.9394 16.8298 24.9494 16.8498V16.8098C24.9494 16.8098 24.9294 16.7898 24.9194 16.7698V16.7798ZM15.8494 12.9798C16.8194 12.9798 17.7094 13.1098 18.5694 13.6098C18.2294 13.6498 17.9694 13.7098 17.6494 13.8198C16.6294 13.4698 15.9594 13.3998 14.8894 13.4698C13.6994 13.6398 13.0494 13.8598 11.9594 14.3498C12.9594 13.6098 13.9894 13.1298 15.2294 12.9998C15.3694 12.9798 15.7094 12.9798 15.8494 12.9798ZM10.4894 13.6298C10.2794 13.7798 10.0894 13.8798 9.86938 14.0098L9.88938 13.9398C10.0694 13.8198 10.2894 13.6998 10.4894 13.6298ZM32.2594 11.5598C32.4294 11.6498 32.6094 11.7598 32.7794 11.8498L32.7594 11.9498C32.5894 11.8098 32.4294 11.7098 32.2594 11.5498V11.5598ZM22.1794 11.7498C22.3094 11.7998 22.4194 11.8498 22.5494 11.9198C22.4094 11.8798 22.2394 11.8198 22.1094 11.7898L22.1794 11.7498Z" fill="black"/>
</g>
<defs>
<clipPath id="clip0_1870_1665">
<rect width="128" height="60" fill="white"/>
</clipPath>
</defs>
</svg>
