<svg width="100" height="100" viewBox="0 0 100 100" fill="none" xmlns="http://www.w3.org/2000/svg">
<path d="M38.1563 26.5625H61.8438C62.3109 26.5531 62.7632 26.3972 63.1369 26.1169C63.5106 25.8365 63.7869 25.4458 63.9266 25C63.7869 24.5542 63.5106 24.1635 63.1369 23.8831C62.7632 23.6028 62.3109 23.4469 61.8438 23.4375H38.1563C37.6892 23.4469 37.2368 23.6028 36.8631 23.8831C36.4894 24.1635 36.2131 24.5542 36.0734 25C36.2131 25.4458 36.4894 25.8365 36.8631 26.1169C37.2368 26.3972 37.6892 26.5531 38.1563 26.5625Z" fill="#A80132"/>
<path d="M38.1563 21.875H61.8438C62.3109 21.8656 62.7632 21.7097 63.1369 21.4294C63.5106 21.149 63.7869 20.7583 63.9266 20.3125C63.7869 19.8667 63.5106 19.476 63.1369 19.1956C62.7632 18.9153 62.3109 18.7594 61.8438 18.75H38.1563C37.6892 18.7594 37.2368 18.9153 36.8631 19.1956C36.4894 19.476 36.2131 19.8667 36.0734 20.3125C36.2131 20.7583 36.4894 21.149 36.8631 21.4294C37.2368 21.7097 37.6892 21.8656 38.1563 21.875Z" fill="#A80132"/>
<path d="M34.9031 5.10937C35.0203 5.18906 35.1438 5.26562 35.2797 5.34687C35.3359 5.37969 35.3953 5.41094 35.4547 5.44375C35.6109 5.525 35.7672 5.6 35.9406 5.68594C35.9922 5.71094 36.0453 5.73594 36.0969 5.75938C37.3547 6.28454 38.6639 6.67728 40.0031 6.93125L40.0594 6.94219C40.4656 7.025 40.8891 7.09844 41.3328 7.17656C44.2 7.62205 47.0985 7.83472 50 7.8125C58.625 7.8125 64.0625 6.25 65.625 4.6875C65.625 4.6875 62.5 1.5625 50 1.5625C37.5 1.5625 34.375 4.6875 34.375 4.6875C34.4973 4.80599 34.6278 4.91564 34.7656 5.01563C34.8078 5.04688 34.8578 5.07812 34.9031 5.10937Z" fill="#DE8800"/>
<path d="M36.0938 5.75898C36.0391 5.73555 35.9859 5.71055 35.9375 5.68555C35.9937 5.71055 36.0438 5.73555 36.0938 5.75898Z" fill="#FFC608"/>
<path d="M41.3344 7.17656L41.875 9.0625C42.4138 10.9527 43.5539 12.6159 45.1226 13.8C46.6913 14.9842 48.6033 15.6249 50.5688 15.625H57.3891C59.3045 15.6175 61.1563 14.9366 62.6203 13.7016L65.625 4.6875C64.0625 6.25 58.625 7.8125 50 7.8125C47.099 7.83463 44.201 7.62196 41.3344 7.17656Z" fill="#FFC608"/>
<path d="M57.9063 28.125H48.45C42.1207 31.7078 36.8854 36.9451 33.305 43.2758C29.7246 49.6065 27.934 56.792 28.125 64.0625C28.125 93.75 89.0625 89.0625 89.0625 75C89.0625 63.6875 75.6875 35.125 57.9063 28.125Z" fill="#FFC608"/>
<path d="M35.2797 5.34687C35.1437 5.26875 35.0203 5.19063 34.9031 5.10938C35.0203 5.18906 35.1437 5.26875 35.2797 5.34687Z" fill="#F09413"/>
<path d="M41.3344 7.17773C40.8906 7.10586 40.4672 7.02148 40.0609 6.94336C40.4687 7.03242 40.8906 7.10586 41.3344 7.17773Z" fill="#F09413"/>
<path d="M35.9375 5.68555C35.7641 5.60586 35.6031 5.5293 35.4516 5.44336C35.6047 5.52461 35.7672 5.60586 35.9375 5.68555Z" fill="#F09413"/>
<path d="M98.4375 39.0625L93.2344 41.6719L90.625 46.875L88.0156 41.6719L82.8125 39.0625L88.0156 36.4531L90.625 31.25L93.2344 36.4531L98.4375 39.0625Z" fill="#FF9C00"/>
<path d="M17.1875 20.3125L11.9844 22.9219L9.375 28.125L6.76562 22.9219L1.5625 20.3125L6.76562 17.7031L9.375 12.5L11.9844 17.7031L17.1875 20.3125Z" fill="#FF9C00"/>
<path d="M64.4375 62.1094C64.1888 62.7304 64.0615 63.3935 64.0625 64.0625V85.9844C62.5156 86.0312 60.9531 86.0312 59.375 85.9531V68.75C59.375 66.1563 61.3125 63.8125 64.4375 62.1094Z" fill="#F09413"/>
<path d="M63.9266 25C63.7869 24.5542 63.5106 24.1635 63.1369 23.8831C62.7632 23.6028 62.3109 23.4469 61.8438 23.4375C62.4484 23.4199 63.0215 23.1634 63.4374 22.7241C63.8533 22.2847 64.0781 21.6985 64.0625 21.0938C64.0602 20.8277 64.0143 20.5637 63.9266 20.3125C63.7869 19.8667 63.5106 19.476 63.1369 19.1956C62.7632 18.9153 62.3109 18.7594 61.8438 18.75H38.1563C37.6892 18.7594 37.2368 18.9153 36.8631 19.1956C36.4894 19.476 36.2131 19.8667 36.0734 20.3125C35.9857 20.5637 35.9398 20.8277 35.9375 21.0938C35.9219 21.6985 36.1467 22.2847 36.5626 22.7241C36.9785 23.1634 37.5516 23.4199 38.1563 23.4375C37.6892 23.4469 37.2368 23.6028 36.8631 23.8831C36.4894 24.1635 36.2131 24.5542 36.0734 25C35.9857 25.2512 35.9398 25.5152 35.9375 25.7812C35.9219 26.386 36.1467 26.9722 36.5626 27.4116C36.9785 27.8509 37.5516 28.1074 38.1563 28.125H61.8438C62.4484 28.1074 63.0215 27.8509 63.4374 27.4116C63.8533 26.9722 64.0781 26.386 64.0625 25.7812C64.0602 25.5152 64.0143 25.2512 63.9266 25Z" fill="#A80132"/>
<path d="M62.5516 6.26824C58.4784 5.07694 54.2413 4.54314 50 4.68699C45.7587 4.54314 41.5216 5.07694 37.4484 6.26824C41.5319 7.40607 45.7626 7.92642 50 7.81199C54.2374 7.92642 58.4682 7.40607 62.5516 6.26824Z" fill="#C97C10"/>
<path d="M59.625 23.4375H61.8438C62.4484 23.4199 63.0215 23.1634 63.4374 22.7241C63.8533 22.2847 64.0781 21.6985 64.0625 21.0938C64.0602 20.8277 64.0143 20.5637 63.9266 20.3125C63.7869 20.7583 63.5106 21.149 63.1369 21.4294C62.7632 21.7097 62.3109 21.8656 61.8438 21.875H38.1563C37.6892 21.8656 37.2368 21.7097 36.8631 21.4294C36.4894 21.149 36.2131 20.7583 36.0734 20.3125C35.9857 20.5637 35.9398 20.8277 35.9375 21.0938C35.9219 21.6985 36.1467 22.2847 36.5626 22.7241C36.9785 23.1634 37.5516 23.4199 38.1563 23.4375H59.625Z" fill="#7D0126"/>
<path d="M57.9063 28.125H61.8438C62.4484 28.1074 63.0215 27.8509 63.4374 27.4116C63.8533 26.9722 64.0781 26.386 64.0625 25.7812C64.0602 25.5152 64.0143 25.2512 63.9266 25C63.7869 25.4458 63.5106 25.8365 63.1369 26.1169C62.7632 26.3972 62.3109 26.5531 61.8438 26.5625H38.1563C37.6892 26.5531 37.2368 26.3972 36.8631 26.1169C36.4894 25.8365 36.2131 25.4458 36.0734 25C35.9857 25.2512 35.9398 25.5152 35.9375 25.7812C35.9219 26.386 36.1467 26.9722 36.5626 27.4116C36.9785 27.8509 37.5516 28.1074 38.1563 28.125H57.9063Z" fill="#7D0126"/>
<path d="M59.625 18.75H60.9375L62.6203 13.7016C61.1563 14.9366 59.3045 15.6175 57.3891 15.625H50.5687C48.6032 15.6249 46.6913 14.9842 45.1226 13.8C43.5539 12.6159 42.4138 10.9527 41.875 9.0625L41.3344 7.17188C40.8906 7.1 40.4672 7.01563 40.0609 6.9375L40 6.93125C38.6608 6.67728 37.3516 6.28454 36.0938 5.75938C36.0375 5.73594 35.9875 5.71094 35.9375 5.68594C35.7641 5.60625 35.6016 5.52969 35.4516 5.44375C35.3922 5.41094 35.3328 5.37969 35.2766 5.34687C35.1406 5.26875 35.0172 5.19062 34.9 5.10937C34.8547 5.07812 34.8047 5.04688 34.7625 5.01563C34.6258 4.91552 34.4963 4.80587 34.375 4.6875L39.0625 18.75H59.625Z" fill="#F09413"/>
<path d="M28.125 64.0625C27.934 56.792 29.7246 49.6065 33.305 43.2758C36.8854 36.9451 42.1207 31.7078 48.45 28.125H42.0938C24.3125 35.125 10.9375 63.6875 10.9375 75C10.9375 87.9375 28.4219 98.4375 50 98.4375C71.5781 98.4375 89.0625 87.9375 89.0625 75C89.0625 89.0625 28.125 93.75 28.125 64.0625Z" fill="#FF9C00"/>
<path d="M68.75 12.5003C68.441 12.5003 68.139 12.4086 67.8821 12.2369C67.6252 12.0652 67.425 11.8212 67.3068 11.5357C67.1885 11.2503 67.1576 10.9361 67.2178 10.6331C67.2781 10.33 67.4269 10.0517 67.6453 9.83314L77.0203 0.458144C77.315 0.173522 77.7097 0.0160303 78.1194 0.0195903C78.5291 0.0231503 78.921 0.187477 79.2107 0.477177C79.5004 0.766877 79.6647 1.15877 79.6682 1.56845C79.6718 1.97814 79.5143 2.37283 79.2297 2.66752L69.8547 12.0425C69.5617 12.3356 69.1644 12.5002 68.75 12.5003Z" fill="#FFC608"/>
<path d="M68.75 21.8752C68.4145 21.8756 68.0878 21.768 67.8182 21.5683C67.5485 21.3687 67.3504 21.0875 67.2529 20.7665C67.1555 20.4454 67.164 20.1015 67.2771 19.7857C67.3903 19.4699 67.6021 19.1988 67.8812 19.0127L86.6312 6.5127C86.802 6.39881 86.9934 6.31967 87.1947 6.27979C87.396 6.23991 87.6032 6.24007 87.8045 6.28026C88.0057 6.32045 88.1971 6.39989 88.3676 6.51403C88.5382 6.62817 88.6846 6.77479 88.7984 6.94551C88.9123 7.11623 88.9914 7.3077 89.0313 7.50901C89.0712 7.71031 89.0711 7.9175 89.0309 8.11874C88.9907 8.31998 88.9112 8.51134 88.7971 8.68188C88.683 8.85242 88.5363 8.99881 88.3656 9.11269L69.6156 21.6127C69.3593 21.7836 69.0581 21.875 68.75 21.8752Z" fill="#FFC608"/>
<path d="M31.25 12.5003C30.8356 12.5002 30.4383 12.3356 30.1453 12.0425L20.7703 2.66752C20.4857 2.37283 20.3282 1.97814 20.3318 1.56845C20.3353 1.15877 20.4996 0.766877 20.7893 0.477177C21.079 0.187477 21.4709 0.0231503 21.8806 0.0195903C22.2903 0.0160303 22.685 0.173522 22.9797 0.458144L32.3547 9.83314C32.5731 10.0517 32.7219 10.33 32.7822 10.6331C32.8424 10.9361 32.8115 11.2503 32.6932 11.5357C32.575 11.8212 32.3748 12.0652 32.1179 12.2369C31.861 12.4086 31.559 12.5003 31.25 12.5003Z" fill="#FFC608"/>
<path d="M31.25 21.8752C30.9419 21.875 30.6407 21.7836 30.3844 21.6127L11.6344 9.1127C11.2896 8.88271 11.0503 8.52517 10.9691 8.11875C10.9289 7.9175 10.9288 7.71032 10.9687 7.50901C11.0085 7.30771 11.0877 7.11623 11.2016 6.94551C11.3154 6.7748 11.4618 6.62818 11.6324 6.51404C11.8029 6.39989 11.9943 6.32046 12.1955 6.28027C12.6019 6.1991 13.024 6.28271 13.3687 6.5127L32.1187 19.0127C32.3979 19.1988 32.6097 19.4699 32.7229 19.7857C32.836 20.1016 32.8445 20.4454 32.7471 20.7665C32.6496 21.0875 32.4515 21.3687 32.1818 21.5683C31.9122 21.768 31.5855 21.8756 31.25 21.8752Z" fill="#FFC608"/>
<path d="M56.3375 63.9219L51.5625 61.5344V48.4375H54.6875V50H57.8125V46.875C57.8125 46.4606 57.6479 46.0632 57.3549 45.7701C57.0618 45.4771 56.6644 45.3125 56.25 45.3125H51.5625V42.1875H48.4375V45.3125H47.3844C45.5095 45.3123 43.6895 45.9451 42.2193 47.1085C40.7491 48.2719 39.7148 49.8977 39.284 51.7223C38.8533 53.547 39.0513 55.4637 39.846 57.1618C40.6407 58.8599 41.9855 60.2399 43.6625 61.0781L48.4375 63.4656V76.5625H42.1875V75H39.0625V78.125C39.0625 78.5394 39.2271 78.9368 39.5201 79.2299C39.8132 79.5229 40.2106 79.6875 40.625 79.6875H48.4375V82.8125H51.5625V79.6875H52.6156C54.4905 79.6877 56.3105 79.0549 57.7807 77.8915C59.2509 76.7281 60.2852 75.1023 60.716 73.2777C61.1467 71.453 60.9487 69.5363 60.154 67.8382C59.3593 66.1401 58.0145 64.7601 56.3375 63.9219ZM45.0594 58.2812C44.0129 57.7573 43.174 56.8954 42.6784 55.8353C42.1828 54.7751 42.0595 53.5787 42.3285 52.4398C42.5975 51.3008 43.243 50.286 44.1606 49.5597C45.0782 48.8333 46.2141 48.4379 47.3844 48.4375H48.4375V59.9719L45.0594 58.2812ZM52.6156 76.5625H51.5625V65.0281L54.9406 66.7188C55.9871 67.2427 56.826 68.1046 57.3216 69.1647C57.8172 70.2249 57.9405 71.4213 57.6715 72.5602C57.4025 73.6992 56.757 74.714 55.8394 75.4403C54.9218 76.1667 53.7859 76.5621 52.6156 76.5625Z" fill="#FFDF75"/>
<path d="M51.5625 79.6875V81.1984C52.7494 81.1263 53.9068 80.7991 54.9557 80.239C56.0046 79.679 56.9204 78.8993 57.6406 77.9531C56.2034 79.0708 54.4363 79.6807 52.6156 79.6875H51.5625Z" fill="#FFAA00"/>
<path d="M48.4375 79.6875H40.625C40.2106 79.6875 39.8132 79.5229 39.5201 79.2299C39.2271 78.9368 39.0625 78.5394 39.0625 78.125V76.5625H37.5V79.6875C37.5 80.1019 37.6646 80.4993 37.9576 80.7924C38.2507 81.0854 38.6481 81.25 39.0625 81.25H46.875V84.375H50V82.8125H48.4375V79.6875Z" fill="#FFAA00"/>
<path d="M54.6875 48.4375H51.5625V50H53.125V51.5625H56.25V50H54.6875V48.4375Z" fill="#FFAA00"/>
<path d="M48.4375 45.3125V43.75H46.875V45.3641C47.0469 45.3531 47.2094 45.3125 47.3844 45.3125H48.4375Z" fill="#FFAA00"/>
<path d="M48.4375 63.4656L43.6625 61.0781C42.5647 60.5356 41.6012 59.7558 40.8419 58.7951C40.0826 57.8344 39.5463 56.7169 39.2721 55.5235C38.9978 54.3301 38.9923 53.0906 39.256 51.8948C39.5197 50.6989 40.0461 49.5767 40.7969 48.6094C39.6693 49.4593 38.7777 50.5834 38.2069 51.8749C37.636 53.1664 37.4049 54.5824 37.5355 55.9884C37.6661 57.3944 38.154 58.7436 38.9529 59.9079C39.7518 61.0722 40.8351 62.0129 42.1 62.6406L46.875 65.0281V76.5625H48.4375V63.4656Z" fill="#FFAA00"/>
<path d="M43.0203 50.8328C43.8543 50.2908 44.8272 50.0016 45.8219 50H46.875V59.1906L48.4375 59.9719V48.4375H47.3844C46.5145 48.4391 45.659 48.6593 44.8965 49.0778C44.1339 49.4964 43.4888 50.0999 43.0203 50.8328Z" fill="#FFAA00"/>
<path d="M57.8125 71.3648C57.8156 70.3994 57.5482 69.4523 57.0406 68.631C56.533 67.8097 55.8055 67.147 54.9406 66.718L51.5625 65.0273V67.3711L53.3781 68.2789C54.0306 68.6042 54.607 69.0636 55.0695 69.6272C55.532 70.1907 55.8703 70.8457 56.0621 71.549C56.2538 72.2524 56.2948 72.9884 56.1823 73.7087C56.0699 74.429 55.8065 75.1175 55.4094 75.7289C56.1438 75.2614 56.7488 74.6166 57.1687 73.854C57.5887 73.0914 57.8101 72.2354 57.8125 71.3648Z" fill="#FFAA00"/>
<path d="M64.0625 89.0625V64.0625C64.0615 63.3935 64.1888 62.7304 64.4375 62.1094C61.3125 63.8125 59.375 66.1563 59.375 68.75V93.75C59.406 95.1333 59.9138 96.4635 60.8125 97.5156C63.5325 97.0666 66.2128 96.403 68.8281 95.5312C65.875 93.8594 64.0625 91.5781 64.0625 89.0625Z" fill="#FF9C00"/>
<path d="M59.6875 66.9746C59.483 67.5442 59.3773 68.1445 59.375 68.7496V76.184C60.3334 74.8525 60.8748 73.2664 60.9304 71.6268C60.9861 69.9872 60.5535 68.368 59.6875 66.9746Z" fill="#FFC052"/>
<path d="M98.4375 82.8125V89.0625C98.4375 94.2344 90.75 98.4375 81.25 98.4375C71.75 98.4375 64.0625 94.2344 64.0625 89.0625V82.8125C64.0625 87.9844 71.75 92.1875 81.25 92.1875C90.75 92.1875 98.4375 87.9844 98.4375 82.8125Z" fill="#FFCB52"/>
<path d="M98.4375 70.3125V76.5625C98.4375 81.7344 90.75 85.9375 81.25 85.9375C71.75 85.9375 64.0625 81.7344 64.0625 76.5625V70.3125C64.0625 75.4844 71.75 79.6875 81.25 79.6875C90.75 79.6875 98.4375 75.4844 98.4375 70.3125Z" fill="#FFCB52"/>
<path d="M98.4375 76.5625V82.8125C98.4375 87.9844 90.75 92.1875 81.25 92.1875C71.75 92.1875 64.0625 87.9844 64.0625 82.8125V76.5625C64.0625 81.7344 71.75 85.9375 81.25 85.9375C90.75 85.9375 98.4375 81.7344 98.4375 76.5625Z" fill="#F09413"/>
<path d="M98.4375 64.0625V70.3125C98.4375 75.4844 90.75 79.6875 81.25 79.6875C71.75 79.6875 64.0625 75.4844 64.0625 70.3125V64.0625C64.0625 69.2344 71.75 73.4375 81.25 73.4375C90.75 73.4375 98.4375 69.2344 98.4375 64.0625Z" fill="#F09413"/>
<path d="M98.4375 64.0625C98.4375 69.2344 90.75 73.4375 81.25 73.4375C71.75 73.4375 64.0625 69.2344 64.0625 64.0625C64.0625 58.8906 71.75 54.6875 81.25 54.6875C90.75 54.6875 98.4375 58.8906 98.4375 64.0625ZM92.1875 64.0625C92.1875 61.4688 87.2969 59.375 81.25 59.375C75.2031 59.375 70.3125 61.4688 70.3125 64.0625C70.3125 66.6562 75.2031 68.75 81.25 68.75C87.2969 68.75 92.1875 66.6562 92.1875 64.0625Z" fill="#FFC052"/>
<path d="M81.25 68.75C87.2906 68.75 92.1875 66.6513 92.1875 64.0625C92.1875 61.4737 87.2906 59.375 81.25 59.375C75.2094 59.375 70.3125 61.4737 70.3125 64.0625C70.3125 66.6513 75.2094 68.75 81.25 68.75Z" fill="#FFDF75"/>
<path d="M92.1875 64.0625C92.1901 64.3309 92.1368 64.597 92.0312 64.8438C91.1719 62.625 86.6719 60.9375 81.25 60.9375C75.8281 60.9375 71.3281 62.625 70.4687 64.8438C70.3631 64.597 70.3099 64.3309 70.3125 64.0625C70.3125 61.4688 75.2031 59.375 81.25 59.375C87.2969 59.375 92.1875 61.4688 92.1875 64.0625Z" fill="#C97C10"/>
<path d="M98.4375 67.1875V70.3125C98.4375 75.4844 90.75 79.6875 81.25 79.6875C77.4949 79.7436 73.7694 79.0144 70.3125 77.5469C66.5 75.8281 64.0625 73.2188 64.0625 70.3125V64.0625C64.0625 66.9688 66.5 69.5781 70.3125 71.2969C70.3077 72.2632 70.6199 73.2044 71.2013 73.9763C71.7827 74.7482 72.6012 75.3081 73.5313 75.5703C76.0488 76.2417 78.6445 76.5753 81.25 76.5625C90.75 76.5625 98.4375 72.3594 98.4375 67.1875Z" fill="#DE8800"/>
<path d="M98.4375 73.4375V76.5625C98.4375 81.7344 90.75 85.9375 81.25 85.9375C77.4949 85.9936 73.7694 85.2644 70.3125 83.7969C66.5 82.0781 64.0625 79.4688 64.0625 76.5625V70.3125C64.0625 73.2188 66.5 75.8281 70.3125 77.5469C70.3077 78.5132 70.6199 79.4544 71.2013 80.2263C71.7827 80.9982 72.6012 81.5581 73.5313 81.8203C76.0488 82.4917 78.6445 82.8253 81.25 82.8125C90.75 82.8125 98.4375 78.6094 98.4375 73.4375Z" fill="#DE8800"/>
<path d="M98.4375 79.6875V82.8125C98.4375 87.9844 90.75 92.1875 81.25 92.1875C77.4949 92.2436 73.7694 91.5144 70.3125 90.0469C66.5 88.3281 64.0625 85.7188 64.0625 82.8125V76.5625C64.0625 79.4688 66.5 82.0781 70.3125 83.7969C70.3077 84.7632 70.6199 85.7044 71.2013 86.4763C71.7827 87.2482 72.6012 87.8081 73.5313 88.0703C76.0488 88.7417 78.6445 89.0753 81.25 89.0625C90.75 89.0625 98.4375 84.8594 98.4375 79.6875Z" fill="#DE8800"/>
<path d="M98.4375 85.9375V89.0625C98.4375 94.2344 90.75 98.4375 81.25 98.4375C77.4949 98.4936 73.7694 97.7644 70.3125 96.2969C66.5 94.5781 64.0625 91.9688 64.0625 89.0625V82.8125C64.0625 85.7188 66.5 88.3281 70.3125 90.0469C70.3077 91.0132 70.6199 91.9544 71.2013 92.7263C71.7827 93.4982 72.6012 94.0581 73.5313 94.3203C76.0488 94.9917 78.6445 95.3253 81.25 95.3125C90.75 95.3125 98.4375 91.1094 98.4375 85.9375Z" fill="#DE8800"/>
</svg>
