<svg width="40" height="40" viewBox="0 0 40 40" fill="none" xmlns="http://www.w3.org/2000/svg">
<g clip-path="url(#clip0_1631_15874)">
<path d="M20.0012 39.3513C30.6713 39.3513 39.375 30.6587 39.375 19.9997C39.375 9.3407 30.6713 0.650391 20.0012 0.650391C9.33102 0.650391 0.625 9.34305 0.625 19.9997C0.625 30.6563 9.32867 39.3513 20.0012 39.3513Z" fill="#FB8500"/>
<path d="M20.0012 0.650391C9.32867 0.650391 0.625 9.34305 0.625 19.9997C0.625 30.6563 9.32867 39.3513 20.0012 39.3513C30.6737 39.3513 39.375 30.6587 39.375 19.9997C39.375 9.3407 30.6713 0.650391 20.0012 0.650391ZM20.0012 34.7725C11.8537 34.7725 5.20953 28.1368 5.20953 19.9996C5.20953 11.8624 11.8537 5.22672 20.0012 5.22672C28.1487 5.22672 34.7928 11.8648 34.7928 19.9996C34.7928 28.1345 28.1463 34.7725 20.0012 34.7725Z" fill="#FFB703"/>
<path d="M29.7069 16.7875C29.6531 16.622 29.5121 16.4999 29.3406 16.4703L23.2823 15.4264L20.4159 9.99414C20.3347 9.84039 20.1752 9.74414 20.0013 9.74414C19.8273 9.74414 19.6678 9.84039 19.5866 9.99414L16.7202 15.4264L10.6618 16.4703C10.4903 16.4998 10.3493 16.622 10.2955 16.7875C10.2418 16.953 10.2841 17.1346 10.4055 17.2593L14.6917 21.661L13.8147 27.7381C13.7898 27.9102 13.8623 28.082 14.003 28.1842C14.0846 28.2435 14.1813 28.2737 14.2787 28.2737C14.3491 28.2737 14.4199 28.2579 14.4855 28.2256L20.0012 25.5127L25.5168 28.2256C25.673 28.3023 25.8587 28.2864 25.9993 28.1841C26.14 28.0819 26.2125 27.9102 26.1877 27.738L25.3106 21.6609L29.5968 17.2592C29.7182 17.1345 29.7605 16.9529 29.7068 16.7874L29.7069 16.7875Z" fill="#FCD227"/>
<path d="M6.31195 6.32781L9.55055 9.56227C12.23 6.88617 15.9277 5.2268 20.0013 5.2268V0.650391C14.6655 0.650391 9.82188 2.82312 6.31195 6.32781Z" fill="#FCD227"/>
<path d="M33.6904 33.672L30.4518 30.4375C27.772 33.1138 24.0739 34.773 20.0011 34.773V39.3517C25.3366 39.3517 30.1805 37.1781 33.6903 33.672L33.6904 33.672Z" fill="#FCD227"/>
<path d="M33.6894 6.32812L30.4514 9.56203C33.1312 12.2384 34.7927 15.9316 34.7927 19.999H39.375C39.375 14.6707 37.1991 9.83336 33.6894 6.32812Z" fill="#FCD227"/>
<path d="M6.31086 33.673L9.55 30.4379C6.87055 27.7618 5.20945 24.0686 5.20945 20H0.625C0.625 25.3295 2.80094 30.1674 6.31086 33.673Z" fill="#FCD227"/>
</g>
<defs>
<clipPath id="clip0_1631_15874">
<rect width="40" height="40" fill="white"/>
</clipPath>
</defs>
</svg>
