<svg width="35" height="35" viewBox="0 0 35 35" fill="none" xmlns="http://www.w3.org/2000/svg">
<path d="M13.672 29.7487C13.7185 29.7901 13.7773 29.8152 13.8393 29.8202C13.9014 29.8251 13.9634 29.8097 14.0159 29.7762C14.0684 29.7427 14.1085 29.6929 14.1301 29.6345C14.1518 29.5761 14.1537 29.5123 14.1358 29.4527L10.4608 16.8556C10.4276 16.7408 10.3601 16.639 10.2672 16.5639C10.1744 16.4888 10.0607 16.444 9.94158 16.4356C9.34658 16.3918 8.75256 16.3432 8.1595 16.2897L3.24492 15.842C3.19296 15.837 3.14061 15.8461 3.09343 15.8684C3.04624 15.8908 3.006 15.9255 2.97697 15.9689C2.94795 16.0123 2.93123 16.0627 2.92859 16.1148C2.92595 16.167 2.9375 16.2189 2.962 16.2649C5.62054 21.2379 9.44867 25.9774 13.672 29.7487ZM17.277 32.4116C17.3062 32.5137 17.3937 32.5895 17.5001 32.5895C17.5518 32.5887 17.6017 32.5709 17.6421 32.5387C17.6824 32.5065 17.711 32.4618 17.7233 32.4116L22.2208 16.9927C22.2341 16.9479 22.2366 16.9006 22.2278 16.8547C22.2191 16.8088 22.1995 16.7656 22.1706 16.7289C22.1417 16.6922 22.1045 16.6629 22.0619 16.6436C22.0194 16.6243 21.9728 16.6154 21.9262 16.6179C18.9768 16.7441 16.0234 16.7441 13.0741 16.6179C13.0276 16.6155 12.9812 16.6243 12.9388 16.6436C12.8964 16.6628 12.8593 16.6919 12.8304 16.7285C12.8016 16.765 12.7819 16.808 12.7731 16.8537C12.7642 16.8994 12.7664 16.9465 12.7795 16.9912L17.277 32.4116ZM20.8645 29.4527C20.7828 29.7297 21.1124 29.9412 21.3283 29.7487C25.5516 25.976 29.3797 21.2379 32.0382 16.2649C32.0627 16.219 32.0742 16.1672 32.0716 16.1153C32.069 16.0633 32.0524 16.0129 32.0236 15.9696C31.9947 15.9263 31.9547 15.8915 31.9078 15.8691C31.8608 15.8466 31.8086 15.8373 31.7568 15.842L26.8422 16.2897C26.2472 16.3432 25.6527 16.3918 25.0587 16.4356C24.9395 16.444 24.8259 16.4888 24.733 16.5639C24.6402 16.639 24.5726 16.7408 24.5395 16.8556L20.8645 29.4527ZM31.7933 13.6429C31.8441 13.6384 31.8929 13.6207 31.9347 13.5914C31.9766 13.5622 32.01 13.5225 32.0317 13.4763C32.0534 13.4301 32.0626 13.379 32.0584 13.3281C32.0542 13.2773 32.0367 13.2284 32.0076 13.1864L27.2855 6.33953C27.0843 6.04794 26.8153 5.80959 26.5015 5.64498C26.1878 5.48037 25.8388 5.39442 25.4845 5.39453H21.8533C21.8054 5.39453 21.7582 5.40633 21.7159 5.42887C21.6737 5.45142 21.6376 5.48402 21.611 5.5238C21.5843 5.56359 21.5678 5.60933 21.563 5.65698C21.5582 5.70463 21.5653 5.75273 21.5835 5.79703L24.8749 13.8514C24.9217 13.9653 25.0033 14.0615 25.1081 14.1263C25.2129 14.191 25.3354 14.2208 25.4583 14.2116C25.853 14.1815 26.2482 14.1474 26.6439 14.1095L31.7933 13.6429ZM19.1991 5.75328C19.1547 5.64684 19.0797 5.55595 18.9837 5.4921C18.8876 5.42824 18.7748 5.39429 18.6595 5.39453H16.3408C16.2254 5.39429 16.1126 5.42824 16.0166 5.4921C15.9205 5.55595 15.8456 5.64684 15.8012 5.75328L12.3624 14.0045C12.3446 14.0477 12.3374 14.0945 12.3415 14.1411C12.3456 14.1876 12.3607 14.2325 12.3857 14.2719C12.4107 14.3114 12.4449 14.3442 12.4852 14.3677C12.5256 14.3912 12.571 14.4047 12.6176 14.407C15.8697 14.5645 19.1305 14.5645 22.3841 14.407C22.4306 14.4045 22.4758 14.3909 22.516 14.3672C22.5562 14.3436 22.5901 14.3108 22.615 14.2713C22.6398 14.2319 22.6548 14.1871 22.6588 14.1407C22.6628 14.0943 22.6556 14.0476 22.6378 14.0045L19.1991 5.75328ZM13.4168 5.79703C13.435 5.75273 13.442 5.70463 13.4372 5.65698C13.4324 5.60933 13.4159 5.56359 13.3893 5.5238C13.3626 5.48402 13.3266 5.45142 13.2843 5.42887C13.2421 5.40633 13.1949 5.39453 13.147 5.39453H9.51575C9.16146 5.39442 8.81245 5.48037 8.49872 5.64498C8.185 5.80959 7.91595 6.04794 7.71471 6.33953L2.99263 13.1864C2.96359 13.2284 2.94608 13.2773 2.94185 13.3281C2.93761 13.379 2.94681 13.4301 2.96851 13.4763C2.99021 13.5225 3.02366 13.5622 3.06551 13.5914C3.10736 13.6207 3.15615 13.6384 3.207 13.6429L8.35638 14.1095C8.7511 14.1474 9.14631 14.1815 9.542 14.2116C9.66481 14.2208 9.78738 14.191 9.89217 14.1263C9.99696 14.0615 10.0786 13.9653 10.1253 13.8514L13.4168 5.79703Z" fill="url(#paint0_linear_5837_204)"/>
<defs>
<linearGradient id="paint0_linear_5837_204" x1="17.5001" y1="5.39453" x2="17.5001" y2="32.5895" gradientUnits="userSpaceOnUse">
<stop stop-color="#2A9DF4"/>
<stop offset="1" stop-color="#125292"/>
</linearGradient>
</defs>
</svg>
