<svg xmlns="http://www.w3.org/2000/svg" viewBox="0 0 16 16" fill="none" aria-hidden="true">
  <path d="M10.65 8C10.65 8.70282 10.3708 9.37686 9.87383 9.87383C9.37686 10.3708 8.70282 10.65 8 10.65C7.29718 10.65 6.62314 10.3708 6.12617 9.87383C5.6292 9.37686 5.35 8.70282 5.35 8C5.35 7.29718 5.6292 6.62314 6.12617 6.12617C6.62314 5.6292 7.29718 5.35 8 5.35C8.70282 5.35 9.37686 5.6292 9.87383 6.12617C10.3708 6.62314 10.65 7.29718 10.65 8Z" fill="#ffffff"/>
  <path d="M12.47 0H3.53C2.59379 0 1.69592 0.37191 1.03391 1.03391C0.37191 1.69592 0 2.59379 0 3.53L0 12.47C0 12.9336 0.0913061 13.3926 0.268705 13.8209C0.446104 14.2492 0.706122 14.6383 1.03391 14.9661C1.69592 15.6281 2.59379 16 3.53 16H12.47C12.9336 16 13.3926 15.9087 13.8209 15.7313C14.2492 15.5539 14.6383 15.2939 14.9661 14.9661C15.2939 14.6383 15.5539 14.2492 15.7313 13.8209C15.9087 13.3926 16 12.9336 16 12.47V3.53C16 2.59379 15.6281 1.69592 14.9661 1.03391C14.3041 0.37191 13.4062 0 12.47 0ZM8 12.41C7.40254 12.4384 6.80552 12.3453 6.2451 12.1363C5.68467 11.9272 5.17251 11.6066 4.73962 11.1939C4.30674 10.7811 3.96213 10.2848 3.72668 9.7349C3.49122 9.18506 3.36982 8.59314 3.36982 7.995C3.36982 7.39686 3.49122 6.80494 3.72668 6.2551C3.96213 5.70525 4.30674 5.20891 4.73962 4.79614C5.17251 4.38337 5.68467 4.06276 6.2451 3.85372C6.80552 3.64468 7.40254 3.55156 8 3.58C9.13459 3.63401 10.2048 4.12275 10.9887 4.9448C11.7725 5.76686 12.2098 6.85913 12.2098 7.995C12.2098 9.13087 11.7725 10.2231 10.9887 11.0452C10.2048 11.8673 9.13459 12.356 8 12.41ZM13.06 3.82C12.8266 3.82 12.6028 3.72729 12.4377 3.56225C12.2727 3.39722 12.18 3.17339 12.18 2.94C12.18 2.70661 12.2727 2.48278 12.4377 2.31775C12.6028 2.15271 12.8266 2.06 13.06 2.06C13.2934 2.06 13.5172 2.15271 13.6823 2.31775C13.8473 2.48278 13.94 2.70661 13.94 2.94C13.94 3.17339 13.8473 3.39722 13.6823 3.56225C13.5172 3.72729 13.2934 3.82 13.06 3.82Z" fill="#ffffff"/>
</svg>
