<svg xmlns="http://www.w3.org/2000/svg" width="18" height="16" viewBox="0 0 18 16" fill="none" aria-hidden="true">
  <path fill="#1a4f8a" d="M18 7.5C18 8.25 17.5938 8.90625 16.9688 9.25V14C16.9688 14.3125 16.75 15 15.9688 15C15.75 15 15.5312 14.9375 15.375 14.7812L12.6875 12.6562C11.375 11.5938 9.6875 11 8 11H7.09375C7.03125 11.3438 6.96875 11.6562 6.96875 12C6.96875 12.9375 7.28125 13.75 7.78125 14.4375C8.28125 15.0938 7.78125 16 6.96875 16H4.65625C4.28125 16 3.9375 15.8125 3.78125 15.4688C3.25 14.4375 2.96875 13.25 2.96875 12C2.96875 11.6875 3 11.3438 3.03125 11H2C0.875 11 0 10.125 0 9V6C0 4.90625 0.875 4 2 4H8C9.6875 4 11.375 3.4375 12.6875 2.375L15.375 0.25C15.5312 0.09375 15.75 0 16 0C16.7812 0 17 0.75 17 1.03125V5.78125C17.5938 6.125 18 6.78125 18 7.5ZM15 11.9375V3.09375L13.9375 3.9375C12.25 5.28125 10.1562 6 8 6V9C10.1562 9 12.25 9.75 13.9375 11.0938L15 11.9375Z"/>
</svg>
