<svg xmlns="http://www.w3.org/2000/svg" width="17" height="13" viewBox="0 0 17 13" fill="none" aria-hidden="true">
  <path fill="#1a4f8a" d="M0.09375 3.75V3.25C0.09375 2.84375 0.40625 2.5 0.84375 2.5H12.0938V1C12.0938 0.34375 12.875 0 13.3438 0.5L15.8438 3C16.1562 3.28125 16.1562 3.75 15.8438 4.03125L13.3438 6.53125C12.875 7 12.0938 6.6875 12.0938 6V4.5H0.84375C0.40625 4.5 0.09375 4.1875 0.09375 3.75ZM15.3438 8.5C15.75 8.5 16.0938 8.84375 16.0938 9.25V9.75C16.0938 10.1875 15.75 10.5 15.3438 10.5H4.09375V12C4.09375 12.6875 3.28125 13 2.8125 12.5312L0.3125 10.0312C0 9.75 0 9.28125 0.3125 9L2.8125 6.5C3.28125 6 4.09375 6.34375 4.09375 7V8.5H15.3438Z"/>
</svg>
