<svg xmlns="http://www.w3.org/2000/svg" width="16" height="16" viewBox="0 0 16 16" fill="none" aria-hidden="true">
  <path fill="#1a4f8a" d="M7.75 0C12 0 15.5 3.5 15.5 7.75C15.5 12.0312 12 15.5 7.75 15.5C3.46875 15.5 0 12.0312 0 7.75C0 3.5 3.46875 0 7.75 0ZM7.375 7.53125L7.9375 6.625C7.96875 6.53125 8.125 6.53125 8.15625 6.625C8.21875 6.71875 8.28125 6.75 8.375 6.75H8.5C8.625 6.75 8.75 6.65625 8.75 6.5V4.0625C8.75 3.875 8.625 3.71875 8.46875 3.625L8.125 3.46875C7.9375 3.375 7.9375 3.125 8.09375 3.03125L9.65625 1.8125C9.0625 1.625 8.40625 1.5 7.75 1.5C4.28125 1.5 1.5 4.3125 1.5 7.75C1.5 8.09375 1.53125 8.4375 1.5625 8.75H3.53125C3.65625 8.75 3.78125 8.71875 3.875 8.625L4.5 8C4.625 7.875 4.8125 7.9375 4.875 8.0625L5.59375 9.5C5.6875 9.65625 5.84375 9.75 6.03125 9.75H6.25C6.5 9.75 6.75 9.53125 6.75 9.25V8.96875C6.75 8.84375 6.6875 8.71875 6.59375 8.625L6.40625 8.4375C6.3125 8.34375 6.3125 8.1875 6.40625 8.09375L6.59375 7.90625C6.6875 7.8125 6.8125 7.75 6.9375 7.75C7.125 7.75 7.28125 7.6875 7.375 7.53125ZM12.75 10.9688H12.7188V10.1875C12.7188 10.0625 12.6875 9.9375 12.5938 9.84375L12.2188 9.46875C12.1562 9.4375 12.1562 9.375 12.1562 9.28125V8.90625C12.1562 8.8125 12.0938 8.78125 12.0312 8.78125H11.8125C11.7812 8.78125 11.7188 8.8125 11.7188 8.84375L11.5625 9.3125C11.5625 9.375 11.5 9.40625 11.4688 9.40625H11.3438C11.2812 9.40625 11.25 9.375 11.2188 9.3125L11.0625 8.90625C11.0312 8.8125 10.9375 8.78125 10.8125 8.78125H10.4375C10.4062 8.78125 10.3438 8.78125 10.3125 8.8125L9.5625 9.34375C9.5 9.375 9.4375 9.40625 9.375 9.4375L8.15625 9.9375C8.0625 9.96875 8 10.0625 8 10.1562V10.4688C8 10.5625 8.03125 10.625 8.0625 10.6562L8.4375 11.0312C8.53125 11.125 8.65625 11.1875 8.8125 11.1875H9.125C9.15625 11.1875 9.1875 11.1562 9.25 11.1562L9.90625 11C9.96875 10.9688 10.0312 10.9688 10.125 10.9688C10.3438 10.9688 10.5625 11.0625 10.6875 11.2188L11.0938 11.625C11.1875 11.7188 11.3438 11.75 11.4688 11.75H11.9375C12.0625 11.75 12.1875 11.7188 12.2812 11.625L12.5938 11.3125C12.6875 11.2188 12.75 11.0938 12.75 10.9688Z"/>
</svg>
