<svg xmlns="http://www.w3.org/2000/svg" width="16" height="16" viewBox="0 0 16 16" fill="none" aria-hidden="true">
  <path fill="#1a4f8a" d="M16 5.53125C16 8.5625 13.5312 11 10.5 11C10.125 11 9.78125 10.9688 9.46875 10.9062L8.71875 11.75C8.5625 11.9062 8.375 12 8.15625 12H7V13.25C7 13.6875 6.65625 14 6.25 14H5V15.25C5 15.6875 4.65625 16 4.25 16H0.75C0.3125 16 0 15.6875 0 15.25V12.8125C0 12.625 0.0625 12.4375 0.21875 12.2812L5.25 7.25C5.09375 6.6875 5 6.125 5 5.5C5 2.46875 7.4375 0.03125 10.4688 0C13.5312 0 16 2.46875 16 5.53125ZM10.5 4C10.5 4.84375 11.1562 5.5 12 5.5C12.8125 5.5 13.5 4.84375 13.5 4C13.5 3.1875 12.8125 2.5 12 2.5C11.1562 2.5 10.5 3.1875 10.5 4Z"/>
</svg>
