<svg xmlns="http://www.w3.org/2000/svg" width="16" height="16" viewBox="0 0 16 16" fill="none" aria-hidden="true">
  <path fill="#1a4f8a" d="M15.6969 5.9625C15.7245 5.94086 15.7576 5.9274 15.7925 5.92367C15.8274 5.91993 15.8627 5.92607 15.8943 5.94137C15.9258 5.95667 15.9525 5.98053 15.9712 6.01023C15.9899 6.03993 15.9999 6.07428 16 6.10938V12.5C16 12.8978 15.842 13.2794 15.5607 13.5607C15.2794 13.842 14.8978 14 14.5 14H1.5C1.10218 14 0.720644 13.842 0.43934 13.5607C0.158035 13.2794 0 12.8978 0 12.5V6.1125C0.000136344 6.07741 0.0101188 6.04306 0.0288119 6.01335C0.0475049 5.98365 0.0741582 5.9598 0.10574 5.94449C0.137322 5.92919 0.172564 5.92306 0.207459 5.92679C0.242353 5.93053 0.275499 5.94398 0.303125 5.96562C1.00312 6.50937 1.93125 7.2 5.11875 9.51562C5.77813 9.99687 6.89062 11.0094 8 11.0031C9.11562 11.0125 10.25 9.97813 10.8844 9.51562C14.0719 7.2 14.9969 6.50625 15.6969 5.9625ZM8 10C8.725 10.0125 9.76875 9.0875 10.2937 8.70625C14.4406 5.69688 14.7562 5.43437 15.7125 4.68437C15.8021 4.61419 15.8745 4.52454 15.9244 4.42221C15.9742 4.31988 16 4.20756 16 4.09375V3.5C16 3.10218 15.842 2.72064 15.5607 2.43934C15.2794 2.15804 14.8978 2 14.5 2H1.5C1.10218 2 0.720644 2.15804 0.43934 2.43934C0.158035 2.72064 0 3.10218 0 3.5V4.09375C-3.13648e-05 4.20756 0.0258384 4.31988 0.0756495 4.42221C0.125461 4.52454 0.197907 4.61419 0.2875 4.68437C1.24375 5.43125 1.55938 5.69688 5.70625 8.70625C6.23125 9.0875 7.275 10.0125 8 10Z"/>
</svg>
