<svg xmlns="http://www.w3.org/2000/svg" width="15" height="16" viewBox="0 0 15 16" fill="none" aria-hidden="true">
  <path fill="#1a4f8a" d="M3.71875 7C1.78125 7 0.21875 5.4375 0.21875 3.5C0.21875 1.59375 1.78125 0 3.71875 0C5.625 0 7.21875 1.59375 7.21875 3.5C7.21875 5.4375 5.625 7 3.71875 7ZM3.71875 2C2.875 2 2.21875 2.6875 2.21875 3.5C2.21875 4.34375 2.875 5 3.71875 5C4.53125 5 5.21875 4.34375 5.21875 3.5C5.21875 2.6875 4.53125 2 3.71875 2ZM10.7188 9C12.625 9 14.2188 10.5938 14.2188 12.5C14.2188 14.4375 12.625 16 10.7188 16C8.78125 16 7.21875 14.4375 7.21875 12.5C7.21875 10.5938 8.78125 9 10.7188 9ZM10.7188 14C11.5312 14 12.2188 13.3438 12.2188 12.5C12.2188 11.6875 11.5312 11 10.7188 11C9.875 11 9.21875 11.6875 9.21875 12.5C9.21875 13.3438 9.875 14 10.7188 14ZM12.4688 0.03125H13.4375C14.0625 0 14.4062 0.6875 14.0625 1.1875L2.625 15.6875C2.5 15.875 2.25 16 2 16H0.96875C0.34375 16 0 15.3125 0.34375 14.8438L11.8438 0.34375C12 0.125 12.2188 0.03125 12.4688 0.03125Z"/>
</svg>
