<svg xmlns="http://www.w3.org/2000/svg" width="16" height="16" viewBox="0 0 16 16" fill="none" aria-hidden="true">
  <path fill="#1a4f8a" d="M7.75 0C12.0312 0 15.5 3.46875 15.5 7.75C15.5 12.0312 12.0312 15.5 7.75 15.5C3.46875 15.5 0 12.0312 0 7.75C0 3.46875 3.46875 0 7.75 0ZM7.75 3C6.21875 3 5 4.25 5 5.75C5 7.28125 6.21875 8.5 7.75 8.5C9.25 8.5 10.5 7.28125 10.5 5.75C10.5 4.25 9.25 3 7.75 3ZM7.75 13.75C9.5625 13.75 11.2188 12.9375 12.3125 11.625C11.7188 10.5312 10.5625 9.75 9.25 9.75C9.15625 9.75 9.09375 9.78125 9 9.8125C8.625 9.9375 8.1875 10 7.75 10C7.28125 10 6.875 9.9375 6.46875 9.8125C6.375 9.78125 6.3125 9.75 6.25 9.75C4.90625 9.75 3.75 10.5312 3.15625 11.625C4.25 12.9375 5.90625 13.75 7.75 13.75Z"/>
</svg>
