<svg preserveAspectRatio="none" width="100%" height="100%" overflow="visible" style="display: block;" viewBox="0 0 10 10" fill="none" xmlns="http://www.w3.org/2000/svg">
<g id="Img" clip-path="url(#clip0_0_19)">
<path id="Vector" d="M7.24609 2.59766C6.82882 2.20611 6.3164 1.93048 5.7597 1.79815C5.20299 1.66581 4.62136 1.68135 4.07252 1.84324C3.52368 2.00513 3.02672 2.30773 2.63096 2.72101C2.23519 3.13429 1.95439 3.64389 1.81641 4.19922C1.79688 4.29687 1.69922 4.375 1.58203 4.375H0.46875C0.332031 4.375 0.214844 4.23828 0.234375 4.10156C0.396989 3.24546 0.787543 2.44908 1.36487 1.79635C1.9422 1.14363 2.68493 0.658741 3.51477 0.392793C4.3446 0.126845 5.23082 0.0896881 6.08001 0.285238C6.92919 0.480788 7.7099 0.901802 8.33984 1.50391L9.04297 0.800781C9.33594 0.507812 9.84375 0.722656 9.84375 1.13281V3.75C9.84375 4.00391 9.62891 4.21875 9.375 4.21875H6.75781C6.34766 4.21875 6.13281 3.71094 6.42578 3.41797L7.24609 2.59766ZM0.625 5.78125H3.24219C3.65234 5.78125 3.86719 6.28906 3.57422 6.58203L2.75391 7.40234C3.17118 7.79389 3.6836 8.06952 4.2403 8.20185C4.79701 8.33419 5.37864 8.31865 5.92748 8.15676C6.47632 7.99487 6.97328 7.69227 7.36904 7.27899C7.76481 6.86571 8.04561 6.35611 8.18359 5.80078C8.20312 5.70313 8.30078 5.625 8.41797 5.625H9.53125C9.66797 5.625 9.78516 5.76172 9.76562 5.89844C9.60301 6.75454 9.21246 7.55092 8.63513 8.20365C8.0578 8.85637 7.31507 9.34126 6.48523 9.60721C5.6554 9.87315 4.76918 9.91031 3.91999 9.71476C3.07081 9.51921 2.2901 9.0982 1.66016 8.49609L0.957031 9.19922C0.664062 9.49219 0.15625 9.27734 0.15625 8.86719V6.25C0.15625 5.99609 0.371094 5.78125 0.625 5.78125Z" fill="var(--fill-0, white)"/>
</g>
<defs>
<clipPath id="clip0_0_19">
<rect width="10" height="10" fill="white"/>
</clipPath>
</defs>
</svg>
