<svg width="14" height="14" viewBox="0 0 14 14" fill="none" xmlns="http://www.w3.org/2000/svg">
  <circle cx="7" cy="7" r="7" fill="#F0F0F0"/>
  <g transform="translate(0.246, 0.246)">
    <path d="M1.20312 2.48828C0.65625 3.19922 0.246094 4.01953 0 4.92188H3.63672L1.20312 2.48828ZM13.5078 4.92188C13.2617 4.01953 12.8516 3.19922 12.3047 2.48828L9.87109 4.92188H13.5078ZM0 8.58594C0.246094 9.48828 0.65625 10.3086 1.20312 11.0195L3.63672 8.58594H0ZM11.0195 1.20312C10.3086 0.65625 9.48828 0.246094 8.58594 0V3.63672L11.0195 1.20312ZM2.48828 12.3047C3.19922 12.8516 4.01953 13.2617 4.92188 13.5078V9.87109L2.48828 12.3047ZM4.92188 0C4.01953 0.246094 3.19922 0.65625 2.48828 1.20312L4.92188 3.63672V0ZM8.58594 13.5078C9.48828 13.2617 10.3086 12.8516 11.0195 12.3047L8.58594 9.87109V13.5078ZM9.87109 8.58594L12.3047 11.0195C12.8516 10.3086 13.2617 9.48828 13.5078 8.58594H9.87109Z" fill="#0052B4"/>
  </g>
  <g transform="translate(1.641, 1.641)">
    <path d="M7.19141 7.19141L10.3086 10.3086C10.4515 10.1687 10.5883 10.0227 10.7188 9.87109L8.03906 7.19141H7.19141ZM3.52734 7.19141L0.410156 10.3086C0.550087 10.4515 0.696053 10.5883 0.847656 10.7188L3.52734 8.03906V7.19141ZM3.52734 3.52734L0.410156 0.410156C0.267274 0.550087 0.130431 0.696053 0 0.847656L2.67969 3.52734H3.52734ZM7.19141 3.52734L10.3086 0.410156C10.1687 0.267251 10.0227 0.130406 9.87109 0L7.19141 2.67969V3.52734Z" fill="#D80027"/>
  </g>
  <path d="M13.9454 6.0977H7.90238V0.0547269C7.60307 0.0172998 7.30168 -0.000966543 7.00004 3.93803e-05L6.0977 0.0547269V6.0977H0.0547269C0.0172998 6.39701 -0.000966543 6.6984 3.93803e-05 7.00004L0.0547269 7.90238H6.0977V13.9454C6.69678 14.0226 7.3033 14.0226 7.90238 13.9454V7.90238H13.9454C13.9828 7.60307 14.001 7.30168 14 7.00004L13.9454 6.0977Z" fill="#D80027"/>
</svg>
