<svg xmlns="http://www.w3.org/2000/svg" viewBox="0 0 16 16" fill="currentColor"><path d="M14.75 8a6.75 6.75 0 0 0-1.98-4.77.75.75 0 0 0-1.06 1.06 5.25 5.25 0 0 1 0 7.42.75.75 0 0 0 1.06 1.06A6.75 6.75 0 0 0 14.75 8zm-3.53 0a3.22 3.22 0 0 0-.94-2.27.75.75 0 1 0-1.06 1.06 1.72 1.72 0 0 1 0 2.42.75.75 0 1 0 1.06 1.06A3.22 3.22 0 0 0 11.22 8zM4.23 4.23A.75.75 0 0 0 3.17 3.17 6.75 6.75 0 0 0 1.25 8c0 1.85.74 3.53 1.94 4.75a.75.75 0 0 0 1.06-1.06A5.25 5.25 0 0 1 4.23 4.23zm2.12 2.12a.75.75 0 0 0-1.06-1.06 3.22 3.22 0 0 0 0 4.54.75.75 0 1 0 1.06-1.06 1.72 1.72 0 0 1 0-2.42zM9 8a1 1 0 1 1-2 0 1 1 0 0 1 2 0z"/></svg>
