<svg width="11" height="12" viewBox="0 0 11 12" fill="none" xmlns="http://www.w3.org/2000/svg">
<path d="M9.375 4.59399H8.775V2.86899C8.6069 2.05838 8.16455 1.33048 7.52248 0.807901C6.88041 0.285321 6.07785 0 5.25 0C4.42215 0 3.61959 0.285321 2.97752 0.807901C2.33545 1.33048 1.8931 2.05838 1.725 2.86899V4.59399H1.125C0.525 4.59399 0 5.11899 0 5.64399V10.144C0 10.744 0.525 11.269 1.125 11.269H9.375C9.975 11.269 10.5 10.744 10.5 10.144V5.64399C10.5 5.04399 9.975 4.51899 9.375 4.51899V4.59399ZM6.9 4.59399H3.6V2.86899C3.68199 2.48221 3.89436 2.13534 4.20156 1.88644C4.50875 1.63754 4.89213 1.50172 5.2875 1.50172C5.68287 1.50172 6.06625 1.63754 6.37344 1.88644C6.68064 2.13534 6.89301 2.48221 6.975 2.86899V4.59399H6.9Z" fill="#7599B8"/>
</svg>
