<svg preserveAspectRatio="xMidYMid meet" width="100%" height="100%" overflow="visible" style="display: block;" viewBox="0 0 16 16" fill="none" xmlns="http://www.w3.org/2000/svg">
<g id="Img" clip-path="url(#clip0_0_14)">
<path id="Vector" fill-rule="evenodd" clip-rule="evenodd" d="M2.35294 7.98588C2.54118 8.07059 2.75765 8.08941 2.99294 8.21177C3.52504 8.52809 3.99022 8.94532 4.36235 9.44C5.27059 10.6024 7.70353 15.6565 8 16L8.86118 14.4188C8.95529 14.2212 8.79059 14.0282 8.69647 13.8541L6.41412 9.55294C6.21176 9.19059 6.02824 8.84706 5.84 8.48C5.68471 8.16941 4.94588 8.10353 4.67765 8.01412L4.58824 7.97647C4.92242 7.93612 5.2499 7.85228 5.56235 7.72706C5.84471 7.62353 5.83529 7.53882 6.06588 7.08235L7.43059 4.50824C7.55294 4.29647 7.53882 4.32 7.41647 4.10353L6.82353 2.98353L6.72941 2.80941L6.68235 2.71529L6.60235 2.61176C6.46118 2.82353 6.30588 3.13882 6.18823 3.36941C6.05647 3.62824 5.91529 3.90118 5.76471 4.15059C4.98824 5.52941 4.23529 7.51529 2.35294 7.98588ZM11.4824 7.98588L11.3694 8.03294C11.0871 8.12706 11.0212 8.10824 10.5741 8.29177C10.0894 8.48941 10.1741 8.43294 9.95765 8.86588L8.77176 11.1059C8.48941 11.6471 8.41882 11.6047 8.58353 11.8918C8.72 12.1271 8.83765 12.3953 8.97412 12.6306L9.27059 13.1953L9.31765 13.2847L9.32706 13.3035L9.39294 13.3835C9.53412 13.1812 9.69412 12.8518 9.80706 12.6259C10.3529 11.5435 11.2659 9.73647 12.0847 8.91765C12.3925 8.60029 12.7522 8.33771 13.1482 8.14118C13.2941 8.08 13.5059 8.04706 13.6471 7.98588C11.9153 7.55294 11.0306 5.72706 10.3624 4.39529C9.98588 3.65176 9.56706 2.94588 9.19059 2.20706L8 -2.98023e-08C7.83059 0.216471 7.56706 0.785882 7.41647 1.06824C7.33647 1.21412 7.18118 1.46824 7.12941 1.60471C7.06823 1.76 7.24706 2.00941 7.32706 2.16L9.6 6.46588C9.68941 6.63059 10.1035 7.45412 10.1788 7.52941C10.3012 7.64706 11.2329 7.95294 11.4824 7.98118V7.98588ZM8 10.0471C8.09882 9.92471 9.08706 8.06118 9.08235 7.98118C9.08235 7.91529 8.07059 6 8 5.92471C7.92471 6 6.91765 7.92 6.91765 7.98118C6.91294 8.06118 7.90588 9.92941 8 10.0471Z" fill="var(--fill-0, white)"/>
</g>
<defs>
<clipPath id="clip0_0_14">
<rect width="16" height="16" fill="white"/>
</clipPath>
</defs>
</svg>
