<svg preserveAspectRatio="xMidYMid meet" width="100%" height="100%" overflow="visible" style="display: block;" viewBox="0 0 16 16" fill="none" xmlns="http://www.w3.org/2000/svg">
<g id="Img" clip-path="url(#clip0_0_20)">
<path id="Vector" d="M14.85 9.25L15.15 9.35C15.35 9.4 15.35 9.4 15.35 9.6V15L14 14.8L14.25 15.25H14.1L10.8 15.2C10.0049 15.1552 9.20834 15.2569 8.45 15.5H8.5C8.43523 15.5235 8.36821 15.5403 8.3 15.55C8.23418 15.565 8.16582 15.565 8.1 15.55L7.45 15.3H7.2V15.35L7.1 15.45C6.95 15.55 6.85 15.55 6.7 15.45C6.63168 15.3213 6.53142 15.2123 6.40884 15.1335C6.28625 15.0547 6.14547 15.0087 6 15H4.8L4.55 15.1H4.4C4.3 15.1 4.2 15.1 4.05 15H1.35C1.15 15 1 14.9 0.85 14.8L0.8 14.7V13.3V12.35L0.85 12.05L1.1 11.45C1.25 11.15 1.15 10.75 1.15 10.45C1.15 10.3 1.1 10.25 1 10.2C0.929379 10.1881 0.865356 10.1513 0.819504 10.0962C0.773653 10.0412 0.748999 9.97161 0.75 9.9L0.65 8.9V8.85C0.65 8.65 0.75 8.45 0.9 8.35L1.1 8.15C1.11317 8.1272 1.1201 8.10133 1.1201 8.075C1.1201 8.04867 1.11317 8.0228 1.1 8C0.95 7.65 0.85 7.3 0.85 6.9C0.85 6.25 0.75 5.6 0.65 5.05V5.1C0.640953 4.86554 0.65772 4.63079 0.7 4.4L0.8 3.15L0.75 1.95V1.3C0.747427 1.28025 0.750811 1.26018 0.759719 1.24236C0.768628 1.22454 0.782654 1.20979 0.8 1.2H4.1C4.45 1.2 4.75 1.2 5.1 1.3H5C5.40598 1.37181 5.82418 1.31953 6.2 1.15L6.85 0.85L7.1 0.8L8.75 0.85L8.9 0.9C9.1 1.2 9.45 1.4 9.9 1.4H10.15C10.25 1.4 10.25 1.4 10.25 1.3C10.25 1 10.25 1 10.6 1H12.75C12.9 1 13 1 13.05 1.15L13.2 1.25C13.2304 1.26755 13.2649 1.27679 13.3 1.27679C13.3351 1.27679 13.3696 1.26755 13.4 1.25C13.8646 1.07368 14.3744 1.0561 14.85 1.2C15.25 1.3 15.45 1.55 15.35 2C15.15 2.45 15.25 2.85 15.25 3.3L15.35 5.2C15.35 5.35 15.35 5.5 15.25 5.6L14.75 6.5C14.65 6.65 14.65 6.7 14.75 6.8C14.882 6.90861 14.9869 7.04651 15.0564 7.20273C15.1258 7.35896 15.1579 7.52922 15.15 7.7V8.6L15 8.9L14.8 9.25H14.85ZM2.25 3.7L2.3 3.8L3.65 5.35L5.65 7.45L6.65 8.55L7.55 9.35C8.61377 10.4039 9.64752 11.4877 10.65 12.6C10.85 12.8 11.05 12.9 11.3 12.9H12.55C12.75 12.9 12.85 12.85 12.95 12.75L13.15 12.35C13.45 11.65 13.55 10.9 13.65 10.2V10L13.25 9.75C13 9.55 12.75 9.4 12.4 9.3L12 9.2L11.9 9.1L11.85 8.9L11.55 8.65L8.35 6.55L3.6 3.5C3.55373 3.45684 3.49788 3.42526 3.43703 3.40788C3.37619 3.3905 3.31209 3.3878 3.25 3.4C3.13106 3.42478 3.01408 3.45821 2.9 3.5L2.25 3.75V3.7ZM6.4 12.45L3.3 9.6L2.95 10.6L2.5 11.9C2.46099 11.9875 2.45467 12.0861 2.4822 12.1778C2.50972 12.2696 2.56927 12.3484 2.65 12.4L3.5 13C3.57846 13.0565 3.66855 13.0948 3.7637 13.1121C3.85885 13.1294 3.95666 13.1253 4.05 13.1L6.3 12.4H6.4V12.45ZM9.5 4.1L9.8 4.3L11.6 5.7L12.1 5.95C12.3 6.05 12.35 6.05 12.4 5.8L12.55 5.2C12.55 4.8 12.55 4.45 12.65 4.1V4C12.2286 3.79248 11.8119 3.57576 11.4 3.35L11 3.45L10 3.7C9.8 3.75 9.65 3.85 9.5 4.05V4.1Z" fill="var(--fill-0, white)"/>
</g>
<defs>
<clipPath id="clip0_0_20">
<rect width="16" height="16" fill="white"/>
</clipPath>
</defs>
</svg>
