<svg preserveAspectRatio="xMidYMid meet" width="100%" height="100%" overflow="visible" style="display: block;" viewBox="0 0 16 16" fill="none" xmlns="http://www.w3.org/2000/svg">
<g id="Img">
<path id="Vector" d="M7.35 5.75C7.6 5.5 7.95 5.4 8.3 5.4C8.89878 5.34589 9.50122 5.34589 10.1 5.4C10.85 5.4 11.55 5.65 12.1 6.15C12.25 6.3 12.4 6.5 12.45 6.7V13.1C12.45 14.15 11.9 14.9 10.85 15.35C10.35 15.6 9.75 15.75 9.1 15.85C8.30273 15.9435 7.49727 15.9435 6.7 15.85H6.75C6.1 15.75 5.5 15.6 4.95 15.35C4.15 15 3.65 14.35 3.55 13.55V13.15V3.15C3.52078 2.62022 3.66087 2.09488 3.95 1.65C4.3 1.15 4.85 0.8 5.45 0.55L6.95 0.25H7C7.63211 0.19444 8.26788 0.19444 8.9 0.25C9.65 0.25 10.35 0.45 11 0.75C11.75 1.1 12.25 1.75 12.4 2.5L12.45 3.2V4.75H8.65V4.5V3.25C8.65 3.1 8.6 3 8.45 2.95C8.23712 2.89268 8.01288 2.89268 7.8 2.95L7.5 3C7.45199 3.02074 7.41169 3.05602 7.38478 3.10087C7.35788 3.14572 7.34571 3.19788 7.35 3.25V5.75ZM6.35 8.75V8.95L6.45 9.1V13.5C6.45 13.7 6.45 13.85 6.3 14L6.35 14.1H6.4V14.2H6.45L6.6 14.3H6.65C6.81664 14.3039 6.98336 14.3039 7.15 14.3L7.25 14.25L7.6 14.15C7.62652 14.15 7.65196 14.1395 7.67071 14.1207C7.68946 14.102 7.7 14.0765 7.7 14.05V11.8C7.7 11.7 7.75 11.55 7.9 11.5L8.55 11.3C8.75 11.3 8.8 11.3 8.8 11.15V10.15C8.8 10 8.85 9.95 9.05 9.9L10 9.75L10.65 9.65V8.75L10.55 8.45C10.5108 8.38062 10.4518 8.32451 10.3806 8.28888C10.3093 8.25324 10.229 8.23971 10.15 8.25C9.85843 8.27485 9.57206 8.34223 9.3 8.45L8.3 8.7C7.95 8.8 7.8 8.7 7.7 8.45L7.65 8.4C7.31377 8.39062 6.97772 8.42423 6.65 8.5C6.5 8.5 6.45 8.5 6.45 8.65V8.7L6.35 8.75ZM8.6 10.45C8.6 10.25 8.45 10.15 8.3 10.1H8.4C8.55 10.1 8.65 10.15 8.65 10.3V11C8.65 11.1 8.65 11.15 8.5 11.15C8.30003 11.1548 8.09997 11.1548 7.9 11.15C7.86022 11.15 7.82206 11.1342 7.79393 11.1061C7.7658 11.0779 7.75 11.0398 7.75 11V10.5V10.4C7.84966 10.3256 7.96859 10.2813 8.09267 10.2724C8.21675 10.2636 8.34077 10.2905 8.45 10.35H8.6V10.45Z" fill="var(--fill-0, white)"/>
</g>
</svg>
