<svg preserveAspectRatio="xMidYMid meet" width="100%" height="100%" overflow="visible" style="display: block;" viewBox="0 0 16 16" fill="none" xmlns="http://www.w3.org/2000/svg">
<g id="Img" clip-path="url(#clip0_0_22)">
<path id="Vector" d="M15 8.84V12.14C15 14.27 12.99 16 10.5 16C8.01 16 6 14.27 6 12.14V8.84C6 7.89 6.4 6.97 7.15 6.26C7.93872 5.53068 8.94929 5.08701 10.02 5V6.86C9.64 7.02 9.38 7.35 9.38 7.73V8.83C9.38 9.37 9.88 9.8 10.5 9.8C11.12 9.8 11.63 9.37 11.63 8.84V7.74C11.63 7.34 11.36 7.02 10.98 6.86V5C12.08 5.1 13.11 5.55 13.85 6.26C14.59 6.96 15 7.89 15 8.84ZM0 2C0 1.73478 0.105357 1.48043 0.292893 1.29289C0.48043 1.10536 0.734784 1 1 1H13C13.2652 1 13.5196 1.10536 13.7071 1.29289C13.8946 1.48043 14 1.73478 14 2V4C14 4.14444 13.9687 4.28717 13.9083 4.41837C13.8479 4.54956 13.7598 4.66611 13.65 4.76C12.8558 4.26235 11.9373 3.99892 11 4H10C8.87 4 7.84 4.37 7 5H1C0.734784 5 0.48043 4.89464 0.292893 4.70711C0.105357 4.51957 0 4.26522 0 4V2ZM5.67 6.5H1C0.734784 6.5 0.48043 6.60536 0.292893 6.79289C0.105357 6.98043 0 7.23478 0 7.5L0 9.5C0 9.76522 0.105357 10.0196 0.292893 10.2071C0.48043 10.3946 0.734784 10.5 1 10.5H5V9C5 8.09 5.24 7.24 5.67 6.5ZM5 12H1C0.734784 12 0.48043 12.1054 0.292893 12.2929C0.105357 12.4804 0 12.7348 0 13L0 15C0 15.2652 0.105357 15.5196 0.292893 15.7071C0.48043 15.8946 0.734784 16 1 16H7C6.37902 15.5343 5.875 14.9303 5.52786 14.2361C5.18073 13.5418 5 12.7762 5 12Z" fill="var(--fill-0, white)"/>
<path id="Vector_2" d="M10.38 7.75H10.63V8.75H10.38V7.75Z" fill="var(--fill-0, white)"/>
</g>
<defs>
<clipPath id="clip0_0_22">
<rect width="16" height="16" fill="white"/>
</clipPath>
</defs>
</svg>
