<svg preserveAspectRatio="xMidYMid meet" width="100%" height="100%" overflow="visible" style="display: block;" viewBox="0 0 16 16" fill="none" xmlns="http://www.w3.org/2000/svg">
<g id="Img">
<path id="Vector" d="M15.54 7.25H13.56V6.47C13.56 6.21 13.36 6 13.1 6H7.9C7.65 6 7.44 6.2 7.44 6.47V7.25H5.46C5.2 7.25 5 7.45 5 7.72V8.82C5 9.51 5.43 10.22 6.18 10.78C6.78 11.22 7.52 11.5 8.28 11.59C8.88 12.61 9.58 13.03 9.58 13.03V14.43H8.67C7.99 14.43 7.44 14.84 7.44 15.53V15.77C7.44 15.89 7.54 16 7.67 16H13.33C13.45 16 13.56 15.9 13.56 15.77V15.53C13.56 14.84 13.01 14.43 12.33 14.43H11.42V13.03C11.42 13.03 12.12 12.61 12.72 11.59C13.4784 11.5066 14.2021 11.2275 14.82 10.78C15.57 10.23 16 9.5 16 8.8V7.7C16 7.45 15.8 7.24 15.54 7.24V7.25ZM6.9 9.77C6.43 9.42 6.22 9.04 6.22 8.81V8.5H7.45C7.47 9.14 7.55 9.7 7.69 10.18C7.4 10.08 7.14 9.94 6.89 9.77H6.9ZM14.78 8.81C14.78 9.13 14.44 9.51 14.1 9.77C13.86 9.94 13.6 10.08 13.3 10.18C13.44 9.7 13.53 9.14 13.55 8.5H14.78V8.81ZM0 2.27C0 1.57 0.57 1 1.27 1H5.1C5.8 1 6.37 1.57 6.37 2.27V5.85L6.31 6.05H5.47C4.65 6.05 4.01 6.63 3.85 7.36H1.27C0.57 7.36 0 6.8 0 6.1V2.27Z" fill="var(--fill-0, white)"/>
<path id="Vector_2" d="M3.8 8.64H1.27C0.57 8.64 0 9.2 0 9.9V13.72C0 14.43 0.57 15 1.27 15H5.1C5.8 15 6.37 14.43 6.37 13.73V12.28C6.05703 12.1323 5.759 11.9548 5.48 11.75C4.98713 11.4257 4.57798 10.9893 4.286 10.4766C3.99402 9.96389 3.82748 9.38938 3.8 8.8V8.63V8.64ZM14 5.07V2.27C14 1.57 13.43 1 12.73 1H8.9C8.2 1 7.62 1.57 7.62 2.27V4.82L7.89 4.8H13.09C13.42 4.8 13.73 4.9 13.99 5.07H14Z" fill="var(--fill-0, white)"/>
</g>
</svg>
