<svg preserveAspectRatio="xMidYMid meet" width="100%" height="100%" overflow="visible" style="display: block;" viewBox="0 0 16 16" fill="none" xmlns="http://www.w3.org/2000/svg">
<g id="Img" clip-path="url(#clip0_0_10)">
<path id="Vector" d="M0.05 1.515C0.15 1.455 0.21 1.575 0.265 1.635L10.525 14.325C10.595 14.385 10.54 14.515 10.445 14.5H5.535C5.47035 14.4995 5.40665 14.4843 5.34865 14.4558C5.29065 14.4272 5.23984 14.3859 5.2 14.335L0.1 8.035C0.0310613 7.95062 -0.00452044 7.84387 0 7.735V1.65C0 1.6 6.98492e-10 1.54 0.05 1.515ZM15.86 1.505C15.93 1.48 16.01 1.545 16 1.615V7.7C16.0084 7.81702 15.9727 7.93294 15.9 8.025L14.35 9.94C14.3066 9.99442 14.2508 10.0378 14.1874 10.0664C14.1239 10.0951 14.0546 10.1083 13.985 10.105H9.11C9.01 10.12 8.96 9.99 9.03 9.93L15.795 1.56C15.8123 1.53828 15.8346 1.52111 15.86 1.51V1.505Z" fill="var(--fill-0, white)"/>
</g>
<defs>
<clipPath id="clip0_0_10">
<rect width="16" height="16" fill="white"/>
</clipPath>
</defs>
</svg>
