<svg preserveAspectRatio="xMidYMid meet" width="100%" height="100%" overflow="visible" style="display: block;" viewBox="0 0 16 16" fill="none" xmlns="http://www.w3.org/2000/svg">
<g id="Img">
<path id="Vector" d="M14.75 8C14.7484 6.21039 14.0362 4.49466 12.77 3.23C12.6278 3.09752 12.4398 3.0254 12.2455 3.02883C12.0512 3.03225 11.8658 3.11097 11.7284 3.24838C11.591 3.38579 11.5123 3.57118 11.5088 3.76548C11.5054 3.95978 11.5775 4.14783 11.71 4.29C12.6932 5.27438 13.2454 6.60875 13.2454 8C13.2454 9.39125 12.6932 10.7256 11.71 11.71C11.5775 11.8522 11.5054 12.0402 11.5088 12.2345C11.5123 12.4288 11.591 12.6142 11.7284 12.7516C11.8658 12.889 12.0512 12.9677 12.2455 12.9712C12.4398 12.9746 12.6278 12.9025 12.77 12.77C14.0362 11.5053 14.7484 9.78961 14.75 8ZM1.76 10.58C1.25127 9.34673 1.1194 7.99037 1.38103 6.68221C1.64266 5.37404 2.28607 4.17274 3.23 3.23C3.37217 3.09752 3.56022 3.0254 3.75452 3.02883C3.94882 3.03225 4.13421 3.11097 4.27162 3.24838C4.40903 3.38579 4.48775 3.57118 4.49118 3.76548C4.4946 3.95978 4.42248 4.14783 4.29 4.29C3.30685 5.27438 2.75462 6.60875 2.75462 8C2.75462 9.39125 3.30685 10.7256 4.29 11.71C4.42248 11.8522 4.4946 12.0402 4.49118 12.2345C4.48775 12.4288 4.40903 12.6142 4.27162 12.7516C4.13421 12.889 3.94882 12.9677 3.75452 12.9712C3.56022 12.9746 3.37217 12.9025 3.23 12.77C2.60075 12.1438 2.10122 11.3996 1.76 10.58ZM11 8C11 8.79565 10.6839 9.55871 10.1213 10.1213C9.55871 10.6839 8.79565 11 8 11C7.20435 11 6.44129 10.6839 5.87868 10.1213C5.31607 9.55871 5 8.79565 5 8C5 7.20435 5.31607 6.44129 5.87868 5.87868C6.44129 5.31607 7.20435 5 8 5C8.79565 5 9.55871 5.31607 10.1213 5.87868C10.6839 6.44129 11 7.20435 11 8Z" fill="var(--fill-0, white)"/>
</g>
</svg>
