<svg preserveAspectRatio="xMidYMid meet" width="100%" height="100%" overflow="visible" style="display: block;" viewBox="0 0 16 16" fill="none" xmlns="http://www.w3.org/2000/svg">
<g id="Img">
<path id="Vector" d="M2.29 7.65L1.82 7.44H5.34C5.49 7.44 5.61 7.35 5.66 7.23L5.96 6.53H2.56C1.99 6.53 1.46 6.87 1.24 7.39L0.3 9.55C0.257948 9.65682 0.242425 9.77224 0.254761 9.88638C0.267098 10.0005 0.306926 10.11 0.370831 10.2053C0.434737 10.3007 0.520815 10.3791 0.621686 10.4339C0.722557 10.4887 0.835214 10.5183 0.95 10.52H4C4.14 10.52 4.27 10.45 4.32 10.32L4.62 9.62H1.44L2.29 7.65ZM12.06 6.54C11.49 6.54 10.96 6.87 10.74 7.4L10.5 8C10.4 8.22 10.43 8.47 10.57 8.67C10.7 8.87 10.92 8.99 11.17 8.99H13.57L13.3 9.61H10.02C9.94867 9.61243 9.87957 9.63543 9.82102 9.67624C9.76246 9.71705 9.71696 9.77392 9.69 9.84L9.39 10.52H13.07C13.65 10.52 14.17 10.19 14.4 9.68L14.66 9.05C14.7085 8.94135 14.7293 8.82237 14.7206 8.70371C14.7119 8.58504 14.6739 8.47039 14.61 8.37C14.5432 8.26994 14.4523 8.18822 14.3458 8.13232C14.2392 8.07642 14.1203 8.04812 14 8.05H11.59L11.76 7.65L11.31 7.44H15.12C15.27 7.44 15.4 7.35 15.45 7.23L15.75 6.53L12.06 6.54ZM11 5.62H10.99V5.5C10.99 5.49 10.98 5.48 10.95 5.48H10.93L10.86 5.58H9.06V5.5H9.15L9.18 5.49L9.24 5.21L9.16 5.18C9.15 5.13 9.06 4.81 8.61 4.75C8.53315 4.73663 8.45424 4.74142 8.37958 4.76399C8.30491 4.78656 8.23657 4.82629 8.18 4.88L8.1 4.98L8.07 5.04V5.38L8.09 5.4L8.19 5.44L8.13 5.52L7.93 5.54C7.83 5.54 7.6 5.66 7.43 6.04L7.23 6.46H7.05L7.02 6.49L6.77 7.18V7.2L6.97 7.31V7.32L6.87 7.59V7.6L6.75 7.71H6.74L6.57 8.14H6.47C6.44 8.14 6.43 8.18 6.43 8.19L6.36 8.81V8.85L6.31 9.1L6.15 9.23C6.07338 9.30853 6.00625 9.3958 5.95 9.49L5.44 10.55L5.41 10.64L5.45 10.7C5.45 10.73 5.45 10.82 5.43 10.85L5.26 11.15V11.2L5.29 11.25H5.81C5.84 11.25 5.88 11.21 5.88 11.16L5.91 10.81L5.9 10.76L6.9 9.61L6.96 9.49L7.44 8.48L7.46 8.45L7.5 8.44H7.55C7.59 8.5 7.68 8.66 7.74 8.73C7.84 8.87 7.94 9.02 8.05 9.15L8.18 9.23V9.26L7.9 9.75L7.77 10.32V10.36L7.65 10.77C7.65 10.82 7.61 10.85 7.61 10.9L7.57 11.2L7.59 11.21H8.29C8.39162 11.2154 8.49335 11.2018 8.59 11.17C8.63 11.17 8.64 11.15 8.65 11.14L8.71 11.05V11H8.7L8.37 10.9C8.3494 10.8925 8.33183 10.8785 8.32 10.86L8.24 10.74V10.7L8.41 10.54V10.52L8.95 9.3C8.96755 9.21759 8.96755 9.13241 8.95 9.05L8.3 7.93L8.26 7.63V7.6H8.36L8.39 7.58L8.69 6.99V6.97L8.64 6.89V6.86L8.72 6.76H8.75L9 6.9L9.06 6.92C9.14822 6.91211 9.23359 6.88479 9.31 6.84L9.35 6.8L9.47 6.5L9.51 6.67C9.51 6.67 9.52 6.69 9.53 6.67L9.91 6.6L9.83 6.24V6.2L9.87 6.15V6.11L9.92 5.91H10.96C10.97 5.91 10.99 5.91 10.99 5.88V5.74H11.39V5.63H10.99L11 5.62Z" fill="var(--fill-0, white)"/>
</g>
</svg>
