<svg preserveAspectRatio="xMidYMid meet" width="100%" height="100%" overflow="visible" style="display: block;" viewBox="0 0 16 16" fill="none" xmlns="http://www.w3.org/2000/svg">
<g id="Img" clip-path="url(#clip0_0_4)">
<path id="Vector" d="M15.87 2.54C15.899 2.51777 15.9336 2.50394 15.97 2.5C16.01 2.5 16.02 2.55 15.97 2.63L14.57 5.71C14.5379 5.78012 14.4876 5.84033 14.4242 5.88431C14.3609 5.92829 14.2869 5.95444 14.21 5.96H10.25C10.2129 5.96049 10.1772 5.97475 10.15 6C10.1228 6.02046 10.102 6.0482 10.09 6.08L9.79 6.78V6.82L9.8 6.86C9.8 6.88 9.82 6.88 9.83 6.89H12.98L13.07 6.91C13.1069 6.93366 13.135 6.9688 13.15 7.01C13.1578 7.03282 13.1609 7.05697 13.1592 7.08101C13.1575 7.10506 13.151 7.12852 13.14 7.15L12.54 8.7C12.5108 8.77218 12.4612 8.83429 12.3973 8.8787C12.3333 8.9231 12.2578 8.94788 12.18 8.95H9.21C9.17467 8.95142 9.14028 8.96174 9.11 8.98C9.08125 9.00314 9.0603 9.03456 9.05 9.07L7.65 13.37C7.65 13.4 7.63 13.43 7.61 13.47C7.58178 13.4925 7.54596 13.5033 7.51 13.5C7.49 13.5 7.46 13.5 7.44 13.48C7.42195 13.4685 7.40519 13.4551 7.39 13.44L1.2 7.17C1.17884 7.14355 1.15132 7.1229 1.12 7.11C1.08811 7.09748 1.05425 7.09071 1.02 7.09C0.985499 7.09559 0.95188 7.10567 0.92 7.12C0.890164 7.13538 0.863122 7.15566 0.84 7.18L0.16 7.98C0.148444 7.995 0.134999 8.00844 0.12 8.02C0.100665 8.02852 0.080578 8.03521 0.06 8.04C0.03 8.04 0 8 0 7.91V5.54C-0.00345639 5.32499 0.0550547 5.11354 0.168544 4.93089C0.282033 4.74824 0.445702 4.60213 0.64 4.51C0.78 4.45 0.92 4.42 1.06 4.41H7.12L7.21 4.43L7.26 4.47L7.3 4.53V4.6C7.3 4.62 7.3 4.64 7.28 4.66L6.78 6.22C6.75317 6.29035 6.70834 6.35242 6.65 6.4C6.58798 6.44262 6.51519 6.46689 6.44 6.47H5.23C5.19039 6.47316 5.15238 6.48698 5.12 6.51C5.08709 6.52959 5.05959 6.55709 5.04 6.59L4.73 7.25C4.7126 7.28026 4.70558 7.31538 4.71 7.35C4.71 7.39 4.73 7.42 4.76 7.45L6.3 9C6.31386 9.01224 6.33152 9.01931 6.35 9.02L6.41 9.01L6.43 8.96L8 4.51C8.2 3.96 8.8 3.65 9.36 3.65H14.05C14.13 3.65 14.22 3.63 14.29 3.59L15.88 2.54H15.87Z" fill="var(--fill-0, white)"/>
</g>
<defs>
<clipPath id="clip0_0_4">
<rect width="16" height="16" fill="white"/>
</clipPath>
</defs>
</svg>
