<svg preserveAspectRatio="none" width="100%" height="100%" overflow="visible" style="display: block;" viewBox="0 0 12.56 11.9976" fill="none" xmlns="http://www.w3.org/2000/svg">
<g id="Img" clip-path="url(#clip0_0_5)">
<path id="Vector" d="M6.02233 0.628091V0.623404L6.02468 0.618717C6.04716 0.569888 6.08317 0.528527 6.12844 0.499534C6.17371 0.470541 6.22634 0.455132 6.2801 0.455132C6.33385 0.455132 6.38648 0.470541 6.43175 0.499534C6.47702 0.528527 6.51303 0.569888 6.53551 0.618717V0.625747L6.5402 0.628091L8.06333 3.72123L8.17113 3.94149L8.41248 3.97899L10.1231 4.23675L11.8337 4.49451H11.8501C11.9002 4.50084 11.9474 4.52177 11.9857 4.55468C12.024 4.58759 12.0518 4.63104 12.0657 4.67963C12.0833 4.72685 12.0867 4.77822 12.0755 4.82737C12.0642 4.87651 12.0388 4.92128 12.0024 4.95614L12 4.96082L9.51617 7.3744L9.33808 7.54546L9.38026 7.78917L9.96608 11.2104V11.2197C9.97417 11.2686 9.96842 11.3187 9.94947 11.3644C9.93053 11.4101 9.89914 11.4496 9.85888 11.4784C9.81863 11.5072 9.7711 11.5241 9.72171 11.5273C9.67232 11.5304 9.62303 11.5197 9.57944 11.4962L9.57241 11.4916L9.56538 11.4869L6.49568 9.89343L6.2801 9.7833L6.06451 9.89343L2.99481 11.4869L2.98778 11.4916L2.98075 11.4962C2.9371 11.5203 2.88753 11.5316 2.83774 11.5288C2.78796 11.526 2.73998 11.5092 2.69934 11.4803C2.6587 11.4514 2.62704 11.4116 2.60801 11.3655C2.58898 11.3194 2.58335 11.2689 2.59177 11.2197V11.215L2.59411 11.2104L3.17993 7.78917L3.22211 7.54546L3.04636 7.3744L0.562483 4.96082L0.557797 4.95848V4.95614C0.521364 4.92128 0.495953 4.87651 0.484707 4.82737C0.473462 4.77822 0.476876 4.72685 0.494528 4.67963C0.529677 4.57418 0.609349 4.50857 0.71011 4.49685H0.71714L0.726513 4.49451L4.14771 3.97899L4.38907 3.94149L4.49686 3.72123L6.01999 0.628091H6.02233Z" stroke="var(--stroke-0, #5C92FF)" stroke-width="0.937313"/>
</g>
<defs>
<clipPath id="clip0_0_5">
<rect width="12.56" height="11.9976" fill="white"/>
</clipPath>
</defs>
</svg>
