<svg preserveAspectRatio="xMidYMid meet" width="100%" height="100%" overflow="visible" style="display: block;" viewBox="0 0 8.75 10" fill="none" xmlns="http://www.w3.org/2000/svg">
<g id="Img" clip-path="url(#clip0_0_6)">
<path id="Vector" d="M7.61719 9.25781L3.53516 5.17578C3.4375 5.07812 3.4375 4.92188 3.53516 4.84375L7.61719 0.742188C7.71484 0.644531 7.87109 0.644531 7.94922 0.742188L8.33984 1.13281C8.4375 1.23047 8.4375 1.36719 8.33984 1.46484L4.80469 5L8.33984 8.53516C8.4375 8.63281 8.4375 8.76953 8.33984 8.86719L7.94922 9.25781C7.87109 9.35547 7.71484 9.35547 7.61719 9.25781ZM4.82422 9.25781L5.21484 8.86719C5.3125 8.76953 5.3125 8.63281 5.21484 8.53516L1.67969 5L5.21484 1.46484C5.3125 1.36719 5.3125 1.23047 5.21484 1.13281L4.82422 0.742188C4.74609 0.644531 4.58984 0.644531 4.49219 0.742188L0.410156 4.84375C0.3125 4.92188 0.3125 5.07812 0.410156 5.17578L4.49219 9.25781C4.58984 9.35547 4.74609 9.35547 4.82422 9.25781Z" fill="var(--fill-0, white)"/>
</g>
<defs>
<clipPath id="clip0_0_6">
<rect width="8.75" height="10" fill="white"/>
</clipPath>
</defs>
</svg>
