<svg preserveAspectRatio="xMidYMid meet" width="100%" height="100%" overflow="visible" style="display: block;" viewBox="0 0 16 16" fill="none" xmlns="http://www.w3.org/2000/svg">
<g id="Img" clip-path="url(#clip0_0_28)">
<path id="Vector" d="M4 13.83V13.78C4 13.65 4.01 13.53 4.03 13.4L4.64 9.57C4.8 8.56 5.41 7.69 6.34 7.45C7.2 7.22 8.43 7 10 7C11.57 7 12.8 7.22 13.66 7.45C14.59 7.7 15.2 8.55 15.36 9.57L15.97 13.4C15.99 13.53 16 13.65 16 13.78V13.83C16 15.03 15.1 16 13.98 16C13.05 16 12.24 15.32 12.02 14.36L11.95 14.07H8.05L7.98 14.36C7.88728 14.8149 7.64289 15.2249 7.28683 15.5228C6.93077 15.8207 6.48413 15.989 6.02 16C4.91 16 4 15.03 4 13.83ZM11.35 11.83C11.35 12.26 11.69 12.63 12.1 12.63C12.51 12.63 12.85 12.26 12.85 11.83C12.85 11.38 12.51 11.02 12.1 11.02C11.69 11.02 11.35 11.38 11.35 11.82V11.83ZM13.3 10.7C13.71 10.7 14.05 10.34 14.05 9.9C14.05 9.45 13.71 9.09 13.3 9.09C12.89 9.09 12.55 9.45 12.55 9.89C12.55 10.34 12.89 10.69 13.3 10.69V10.7ZM8.05 10.38V9.73C8.05 9.46 7.85 9.25 7.6 9.25C7.35 9.25 7.15 9.46 7.15 9.73V10.37H6.55C6.3 10.37 6.1 10.59 6.1 10.86C6.1 11.13 6.3 11.34 6.55 11.34H7.15V11.98C7.15 12.25 7.35 12.46 7.6 12.46C7.85 12.46 8.05 12.25 8.05 11.98V11.34H8.65C8.9 11.34 9.1 11.12 9.1 10.86C9.1 10.6 8.9 10.37 8.65 10.37H8.05V10.38ZM0 4.18C0.00177965 3.64553 0.138242 3.12013 0.396779 2.65235C0.655315 2.18457 1.02758 1.7895 1.47919 1.50364C1.93079 1.21778 2.44716 1.05036 2.98058 1.01685C3.514 0.983332 4.04726 1.08481 4.53109 1.31189C5.01493 1.53898 5.43372 1.88435 5.74877 2.31609C6.06382 2.74784 6.26497 3.25202 6.33363 3.78207C6.40229 4.31211 6.33625 4.85091 6.14161 5.34868C5.94696 5.84645 5.63 6.28713 5.22 6.63C5.07 6.72 4.92 6.82 4.79 6.93C4.30564 7.21438 3.75459 7.36539 3.19292 7.36769C2.63125 7.36998 2.07899 7.22346 1.59233 6.94304C1.10566 6.66263 0.701947 6.25831 0.422255 5.77123C0.142563 5.28414 -0.0031285 4.73167 0 4.17V4.18ZM3.63 8.67C3.21437 8.62863 2.79465 8.66954 2.39483 8.79038C1.995 8.91121 1.62289 9.10962 1.29975 9.37427C0.976598 9.63892 0.70874 9.96462 0.511467 10.3328C0.314193 10.7009 0.191366 11.1044 0.15 11.52C0.108634 11.9356 0.149537 12.3553 0.270376 12.7552C0.391215 13.155 0.589621 13.5271 0.854268 13.8503C1.11892 14.1734 1.44462 14.4413 1.81278 14.6385C2.18095 14.8358 2.58437 14.9586 3 15C2.87 14.63 2.8 14.24 2.8 13.83V13.78C2.8 13.59 2.81 13.4 2.85 13.21L3.45 9.38C3.5 9.14 3.55 8.9 3.63 8.67ZM13.33 6.13C13.6852 5.66885 13.907 5.11905 13.9713 4.5405C14.0356 3.96196 13.9398 3.37688 13.6944 2.84902C13.4491 2.32116 13.0635 1.87078 12.5798 1.54695C12.0961 1.22312 11.5328 1.03827 10.9513 1.01255C10.3697 0.986828 9.7923 1.12122 9.28189 1.40108C8.77147 1.68094 8.34767 2.09552 8.05666 2.59966C7.76565 3.10379 7.6186 3.67814 7.63153 4.26009C7.64446 4.84205 7.81688 5.40929 8.13 5.9C9.86484 5.70864 11.6188 5.78622 13.33 6.13Z" fill="var(--fill-0, white)"/>
</g>
<defs>
<clipPath id="clip0_0_28">
<rect width="16" height="16" fill="white"/>
</clipPath>
</defs>
</svg>
