<svg preserveAspectRatio="none" width="100%" height="100%" overflow="visible" style="display: block;" viewBox="0 0 16 16" fill="none" xmlns="http://www.w3.org/2000/svg">
<g id="Img" clip-path="url(#clip0_0_8)">
<path id="Vector" d="M14.4442 0.491294C12.59 1.04535 10.7501 1.64601 8.92612 2.29271C8.864 2.08753 8.80847 1.89647 8.76141 1.74494C8.74064 1.67865 8.70559 1.61772 8.65873 1.56643C8.61187 1.51515 8.55434 1.47476 8.49018 1.44811C8.42603 1.42146 8.35681 1.4092 8.28741 1.41219C8.218 1.41518 8.1501 1.43335 8.08847 1.46541C6.83859 2.11671 3.59153 3.89553 1.78259 5.65647C1.74965 5.68659 1.70918 5.71576 1.67906 5.74494C1.14675 6.27719 0.724502 6.90908 0.436418 7.60453C0.148333 8.29998 5.69901e-05 9.04536 5.69901e-05 9.79812C5.69901e-05 10.5509 0.148333 11.2963 0.436418 11.9917C0.724502 12.6872 1.14675 13.319 1.67906 13.8513C2.21119 14.3835 2.843 14.8056 3.53836 15.0935C4.23373 15.3813 4.97901 15.5293 5.7316 15.529C6.4842 15.5286 7.22934 15.3799 7.92444 15.0914C8.61953 14.8029 9.25095 14.3802 9.78259 13.8475C9.81082 13.8184 9.84094 13.7779 9.87012 13.744C11.632 11.9322 13.4118 8.68235 14.0621 7.43812C14.0945 7.37656 14.1129 7.30861 14.116 7.23912C14.1191 7.16963 14.1068 7.10031 14.08 7.03611C14.0532 6.97192 14.0126 6.91444 13.961 6.86776C13.9094 6.82109 13.8482 6.78638 13.7816 6.76612C13.6292 6.72094 13.4146 6.66447 13.2085 6.60329C13.8541 4.77627 14.4563 2.93418 15.0146 1.07859C15.0386 0.996408 15.0398 0.909274 15.0183 0.826425C14.9968 0.743576 14.9532 0.6681 14.8922 0.608C14.8366 0.54766 14.7648 0.504581 14.6854 0.48389C14.6059 0.463199 14.5222 0.465769 14.4442 0.491294ZM9.27718 9.30259L7.78729 10.7548L8.13647 12.8038C8.15085 12.8863 8.14201 12.9712 8.11093 13.049C8.07985 13.1267 8.02776 13.1943 7.96047 13.2442C7.89228 13.2933 7.81177 13.3223 7.72798 13.3282C7.64419 13.334 7.56043 13.3163 7.48612 13.2772L5.64706 12.3106L3.80518 13.2772C3.73098 13.3166 3.64718 13.3344 3.56336 13.3285C3.47954 13.3226 3.39908 13.2932 3.33115 13.2437C3.26323 13.1943 3.21059 13.1267 3.17924 13.0487C3.1479 12.9708 3.13911 12.8855 3.15388 12.8028L3.50682 10.7548L2.01694 9.30259C1.95746 9.24357 1.91537 9.16933 1.89528 9.08798C1.8752 9.00664 1.87789 8.92133 1.90306 8.84141C1.92867 8.76139 1.97635 8.69022 2.04062 8.63611C2.10489 8.582 2.18314 8.54713 2.26635 8.53553L4.32188 8.23435L5.24141 6.36706C5.27869 6.2921 5.33614 6.22903 5.4073 6.18494C5.47847 6.14085 5.56052 6.11749 5.64424 6.11749C5.72795 6.11749 5.81 6.14085 5.88117 6.18494C5.95233 6.22903 6.00978 6.2921 6.04706 6.36706L6.96941 8.23435L9.02118 8.53553C9.10452 8.54707 9.18292 8.5819 9.24735 8.63601C9.31178 8.69012 9.35964 8.76132 9.38541 8.84141C9.41365 9.00329 9.39576 9.18212 9.27529 9.30259H9.27718Z" fill="url(#paint0_linear_0_8)"/>
</g>
<defs>
<linearGradient id="paint0_linear_0_8" x1="7.51624" y1="0.470588" x2="7.51624" y2="15.5285" gradientUnits="userSpaceOnUse">
<stop stop-color="#FF3D3D"/>
<stop offset="1" stop-color="#FF9A02"/>
</linearGradient>
<clipPath id="clip0_0_8">
<rect width="16" height="16" fill="white"/>
</clipPath>
</defs>
</svg>
