<svg width="14" height="14" viewBox="0 0 14 14" fill="none" xmlns="http://www.w3.org/2000/svg">
<path d="M2.62195e-07 4.65296C-0.000119316 4.4903 0.0406647 4.33023 0.118601 4.18746C0.196537 4.0447 0.309122 3.92382 0.446 3.83595L5.918 0.317955C6.2407 0.110374 6.6163 0 7 0C7.3837 0 7.7593 0.110374 8.082 0.317955L13.554 3.83595C13.6909 3.92382 13.8035 4.0447 13.8814 4.18746C13.9593 4.33023 14.0001 4.4903 14 4.65296V4.87295C14 5.07187 13.921 5.26263 13.7803 5.40329C13.6397 5.54394 13.4489 5.62295 13.25 5.62295C13.0511 5.62295 12.8603 5.70197 12.7197 5.84262C12.579 5.98328 12.5 6.17404 12.5 6.37295V11.623C12.5 12.1534 12.2893 12.6621 11.9142 13.0372C11.5391 13.4122 11.0304 13.623 10.5 13.623H9.5C9.23478 13.623 8.98043 13.5176 8.79289 13.3301C8.60536 13.1425 8.5 12.8882 8.5 12.623V9.12296C8.5 8.85774 8.39464 8.60338 8.20711 8.41585C8.01957 8.22831 7.76522 8.12296 7.5 8.12296H6.5C6.23478 8.12296 5.98043 8.22831 5.79289 8.41585C5.60536 8.60338 5.5 8.85774 5.5 9.12296V12.623C5.5 12.8882 5.39464 13.1425 5.20711 13.3301C5.01957 13.5176 4.76522 13.623 4.5 13.623H3.5C2.96957 13.623 2.46086 13.4122 2.08579 13.0372C1.71071 12.6621 1.5 12.1534 1.5 11.623V6.37295C1.5 6.17404 1.42098 5.98328 1.28033 5.84262C1.13968 5.70197 0.948913 5.62295 0.75 5.62295C0.551088 5.62295 0.360322 5.54394 0.21967 5.40329C0.0790179 5.26263 2.62195e-07 5.07187 2.62195e-07 4.87295V4.65296Z" fill="white"/>
</svg>
