<svg viewBox="0 0 512 512" class="ico__svg" focusable="false" role="img" xmlns="http://www.w3.org/2000/svg"><path d="M0 256a256 256 0 01512 0l-256 22L0 256z" fill="#ffda44"></path><path d="M34 384a256 256 0 00444 0l-222-17-222 17z" fill="#d80027"></path><path d="M478 384c22-38 34-81 34-128H0c0 47 12 90 34 128h444z" fill="#0052b4"></path><circle cx="256" cy="256" fill="#ffda44" r="89"></circle><path d="M256 312c-31 0-56-25-56-56v-33a56 56 0 01112 0v33c0 31-25 56-56 56z" fill="#338af3"></path><path d="M345 122h-67a22 22 0 00-44 0h-67c0 13 11 23 23 23h-1c0 12 10 22 22 22 0 12 10 22 23 22h44c13 0 23-10 23-22 12 0 22-10 22-22h-1c12 0 23-10 23-23z" fill="#000"></path></svg>