<svg viewBox="0 0 512 512" class="ico__svg" focusable="false" role="img" xmlns="http://www.w3.org/2000/svg"><circle cx="256" cy="256" fill="#f0f0f0" r="256"></circle><path d="M245 256h267c0-23-3-45-9-67H245v67zm0-134h229a257 257 0 00-59-66H245v66zm11 390c60 0 116-21 159-56H97c43 35 99 56 159 56zM38 390h436a254 254 0 0029-67H9a254 254 0 0029 67z" fill="#d80027"></path><path d="M119 40h23l-22 16 9 25-22-16-22 16 7-22a257 257 0 00-49 56h7l-14 10a256 256 0 00-6 11l7 20-13-9a254 254 0 00-8 20l7 22h27l-22 16 9 25-22-15-13 9a258 258 0 00-2 32h256V0c-51 0-98 15-137 40zm10 190l-22-15-22 15 8-25-21-16h27l8-25 8 25h27l-22 16 9 25zm-9-100l9 26-22-16-22 16 8-26-21-15h27l8-26 8 26h27l-22 15zm100 100l-21-15-22 15 8-25-21-16h26l9-25 8 25h27l-22 16 8 25zm-8-100l8 26-21-16-22 16 8-26-21-15h26l9-26 8 26h27l-22 15zm0-74l8 25-21-16-22 16 8-25-21-16h26l9-26 8 26h27l-22 16z" fill="#0052b4"></path></svg>