<svg viewBox="0 0 512 512" class="ico__svg" focusable="false" role="img" xmlns="http://www.w3.org/2000/svg"><defs><clipPath id="nz"><circle cx="256" cy="256" r="256"/></clipPath></defs><g clip-path="url(#nz)"><circle cx="256" cy="256" fill="#0052b4" r="256"></circle><path d="M0 89h222M111 0v200" stroke="#f0f0f0" stroke-width="44"></path><path d="M0 89h222M111 0v200" stroke="#d80027" stroke-width="28"></path><path d="M0 0l222 200M222 0L0 200" stroke="#f0f0f0" stroke-width="36"></path><path d="M0 0l222 200M222 0L0 200" stroke="#d80027" stroke-width="20"></path><g fill="#d80027" stroke="#f0f0f0" stroke-width="3"><path d="M330 95l14 42h44l-36 26 14 42-36-26-36 26 14-42-36-26h44z"></path><path d="M410 200l11 34h36l-29 21 11 34-29-21-29 21 11-34-29-21h36z"></path><path d="M430 310l10 30h32l-26 19 10 30-26-19-26 19 10-30-26-19h32z"></path><path d="M320 290l9 26h28l-22 16 9 26-22-16-22 16 9-26-22-16h28z"></path></g></g></svg>