<svg viewBox="0 0 512 512" class="ico__svg" focusable="false" role="img" xmlns="http://www.w3.org/2000/svg"><circle cx="256" cy="256" fill="#f0f0f0" r="256"></circle><path d="M512 256c0-101-59-189-145-231v462c86-42 145-130 145-231z" fill="#d80027"></path><path d="M0 256c0 101 59 189 145 231V25A256 256 0 000 256zm189 0a67 67 0 00134 0v-22H189v22z" fill="#6da544"></path><path d="M345 211h-67a22 22 0 00-44 0h-67c0 13 11 23 23 23h-1c0 12 10 22 22 22 0 12 10 22 23 22h44c13 0 23-10 23-22 12 0 22-10 22-22h-1c12 0 23-10 23-23z" fill="#ff9811"></path></svg>