<svg width="12" height="11" viewBox="0 0 12 11" fill="none" xmlns="http://www.w3.org/2000/svg">
<path d="M1.0875 0C0.4875 0 0 0.4725 0 1.05V2.1H2.175V8.4H0V9.45C0 10.0275 0.4875 10.5 1.0875 10.5H5.4525V7.35H4.365V6.3H5.4525V4.2H4.365V3.15H5.4525V0H1.0875ZM6.5475 0V3.15H7.635V4.2H6.5475V6.3H7.635V7.35H6.5475V10.5H10.9125C11.5125 10.5 12 10.0275 12 9.45V8.4H9.825V2.1H12V1.05C12 0.4725 11.5125 0 10.9125 0H6.5475ZM12 3.15H10.9125V7.35H12V3.15ZM7.635 6.3V4.2H8.73V6.3H7.635ZM4.365 4.2V6.3H3.27V4.2H4.365ZM0 7.35H1.0875V3.15H0V7.35Z" fill="#1D4268"/>
</svg>
