<svg width="16" height="16" viewBox="0 0 16 16" fill="none" xmlns="http://www.w3.org/2000/svg">
<path d="M5 5.5L2 2.5C1 4 0 6 0 7.5C2 7.5 3.5 7 5 5.5ZM5.5 5C7 3.5 7.5 2 7.5 0C6 0 4 1 2.5 2L5.5 5ZM8 3L6.5 5.5L8 7.5L13.5 2C12 1 10.5 0 8.5 0L8 3ZM16 7.5C16 5.5 15 4 14 2.5L8.5 8L10.5 9.5C12.0388 8.20332 13.9877 7.49462 16 7.5ZM11 10.5L14 13.5C15 12 16 10 16 8.5C14 8.5 12.5 9 11 10.5ZM10.5 11C9 12.5 8.5 14 8.5 16C10 16 12 15 13.5 14L10.5 11ZM7.5 8L5.5 6.5C3.9612 7.79668 2.01228 8.50538 0 8.5C0 10.5 1 12 2 13.5L7.5 8ZM8 13L9.5 10.5L8 8.5L2.5 14C4 15 5.5 16 7.5 16L8 13Z" fill="#276AA5"/>
</svg>
