<svg width="32" height="32" viewBox="0 0 32 32" fill="none" xmlns="http://www.w3.org/2000/svg">
<g clip-path="url(#clip0_156_32336)">
<path d="M31.9708 6.24L31.7808 7H4.80078L5.12078 5.76C5.23078 5.31 5.64078 5 6.11078 5H30.9808C31.6408 5 32.1308 5.61 31.9708 6.24Z" fill="#DA1919"/>
<path d="M31.7808 7L31.2708 9H4.30078L4.80078 7H31.7808Z" fill="white"/>
<path d="M31.271 9L30.761 11H3.79102L4.30102 9H31.271Z" fill="#DA1919"/>
<path d="M30.7603 11L30.4203 12.33L30.2503 13H3.28027L3.45027 12.33L3.79027 11H30.7603Z" fill="white"/>
<path d="M30.2505 13L29.7405 15H2.77051L3.28051 13H30.2505Z" fill="#DA1919"/>
<path d="M29.7398 15L29.2298 17H2.25977L2.76977 15H29.7398Z" fill="white"/>
<path d="M29.23 17L28.72 19H1.75L2.26 17H29.23Z" fill="#DA1919"/>
<path d="M28.7202 19L28.5502 19.67L28.2102 21H1.24023L1.58023 19.67L1.75023 19H28.7202Z" fill="white"/>
<path d="M28.2105 21L27.7005 23H0.730469L1.24047 21H28.2105Z" fill="#DA1919"/>
<path d="M27.7007 23L27.2007 25H0.220703L0.730703 23H27.7007Z" fill="white"/>
<path d="M27.2005 25L26.8805 26.24C26.7705 26.69 26.3605 27 25.8905 27H1.0205C0.360501 27 -0.129499 26.39 0.0305006 25.76L0.220501 25H27.2005Z" fill="#DA1919"/>
<path fill-rule="evenodd" clip-rule="evenodd" d="M18.7697 5H6.10796C5.64091 5 5.23379 5.3123 5.12052 5.75746L3.44723 12.3333L2.25977 17H16.0005L18.7697 5Z" fill="#1A0095"/>
<path d="M12.0001 8.80908L12.2439 9.93205L12.9507 9.02606L12.6831 10.1436L13.7131 9.63402L12.9871 10.5248L14.1362 10.5125L13.0956 11.0001L14.1362 11.4876L12.9871 11.4754L13.7131 12.3662L12.6831 11.8566L12.9507 12.9741L12.2439 12.0681L12.0001 13.1911L11.7563 12.0681L11.0494 12.9741L11.3171 11.8566L10.2871 12.3662L11.0131 11.4754L9.86402 11.4876L10.9046 11.0001L9.86402 10.5125L11.0131 10.5248L10.2871 9.63402L11.3171 10.1436L11.0494 9.02606L11.7563 9.93205L12.0001 8.80908Z" fill="#FFC700"/>
<path d="M11.25 14.2499C9.45508 14.2499 8.00003 12.7948 8.00003 10.9999C8.00003 9.20508 9.45514 7.74996 11.25 7.74996C11.8097 7.74996 12.3362 7.89151 12.796 8.14061C12.0748 7.43536 11.0884 7 10 7C7.79092 7 6 8.79087 6 11C6 13.2091 7.79092 15 10 15C11.0884 15 12.0748 14.5646 12.796 13.8594C12.3362 14.1084 11.8097 14.2499 11.25 14.2499Z" fill="#FFC700"/>
</g>
<defs>
<clipPath id="clip0_156_32336">
<rect width="32" height="32" fill="white"/>
</clipPath>
</defs>
</svg>
