<svg xmlns="http://www.w3.org/2000/svg" viewBox="0 0 127 140" fill="#ffffff" aria-hidden="true"><path d="M87.45 11.45A7.45 7.45 0 0 1 94.9 4a16 16 0 0 1 16 16v99.8h-16a7.45 7.45 0 0 1-7.45-7.45V11.45Z" fill="#000" filter="url(#a_phone)"></path><path d="M3.75 19.53a12 12 0 0 1 12-12h78.5a13 13 0 0 1 13 13V120H3.75V19.53Z" fill="var(--colored-svg-clr1)"></path><path d="M1 20.15C1 11.23 8.25 4 17.16 4h77.7C103.77 4 111 11.23 111 20.15v35c.29.26.47.64.47 1.05v20.99c0 .41-.18.79-.47 1.04v41.81h-6.56V21.16a10.6 10.6 0 0 0-10.6-10.6h-9.58a7.06 7.06 0 0 1-7.07 7.07H35.06A7.06 7.06 0 0 1 28 10.56h-9.84a10.6 10.6 0 0 0-10.6 10.6v98.89H1.02V87.2A1.4 1.4 0 0 1 0 85.86V72c0-.64.43-1.17 1-1.34v-3.89c-.57-.16-1-.7-1-1.33V51.55c0-.63.43-1.17 1-1.33v-7.17c-.57-.17-1-.7-1-1.34v-6.05c0-.63.43-1.17 1-1.33V20.15Z" fill="var(--colored-svg-clr16)"></path><path d="M2.27 120V20.26a15 15 0 0 1 15-15h77.46a15 </svg>
