<svg xmlns="http://www.w3.org/2000/svg" viewBox="0 0 1000 1000" class="lang-flag-svg"><path d="M500 1a499.2 499.2 0 01470.1 331.3c-.7.5-660.2.4-940.4.4A499.2 499.2 0 01500 1z" fill-rule="evenodd" fill="#ed2024"></path><path d="M500 998a499 499 0 00470-331.7c-.7-.4-660-.3-940-.3a499 499 0 00470 332z" fill-rule="evenodd" fill="#278e43"></path><path d="M970.4 332.1a507.3 507.3 0 01.5 334.4c-389.2-.6-701.8 0-941.8-.1A504.1 504.1 0 011 500a498.2 498.2 0 0128.8-167.4c431.8-.2 564-.5 940.6-.5z" fill-rule="evenodd" fill="#fff"></path><circle cx="500.5" cy="500.5" fill="#febd11" r="178.5"></circle></svg>