<svg xmlns="http://www.w3.org/2000/svg" viewBox="0 0 512 512" class="lang-flag-svg"><circle cx="256" cy="256" fill="#f0f0f0" r="256"></circle><path d="M510 284zm0 0L230 1a255 255 0 00-37 7C82 36 0 256 0 256s358 240 399 212a257 257 0 0024-18L256 284h254z" fill="#0052b4"></path><path d="M445 256L196 7a256 256 0 10205 460L189 256h256z" fill="#d80027"></path><path d="M243 378l-31-15 17-30-34 7-4-35-24 25-24-25-4 35-34-7 17 30-32 15 32 15-17 30 34-7 4 35 24-25 24 25 4-35 34 7-17-30zm-20-236l-23-11 12-22-25 5-3-25-17 18-17-18-3 25-25-5 12 22-23 11 56 11zm11 0a67 67 0 01-134 0" fill="#f0f0f0"></path></svg>