<svg xmlns="http://www.w3.org/2000/svg" viewBox="0 0 512 512" class="lang-flag-svg"><circle cx="256" cy="256" fill="#f0f0f0" r="256"></circle><path d="M345 256c0 22-40 78-89 78s-89-56-89-78a89 89 0 11178 0z" fill="#d80027"></path><path d="M345 256a89 89 0 11-178 0" fill="#0052b4"></path><path d="M350 335l24-24 16 16-24 23zm-39 39l24-24 15 16-23 24zm87 8l23-24 16 16-24 24zm-40 39l24-23 16 15-24 24zm16-63l24-23 15 15-23 24zm-39 40l23-24 16 16-24 23zm63-221l-63-63 15-15 63 63zm-63-15l-24-24 16-16 23 24zm39 39l-24-24 16-15 24 23zm8-87l-24-23 16-16 24 24zm39 40l-23-24 15-16 24 24zM91 358l63 63-16 16-63-63zm63 16l23 24-15 15-24-23zm-40-39l24 23-16 16-23-24zm24-24l63 63-16 16-63-63zm16-220l-63 63-16-16 63-63zm23 23l-63 63-15-15 63-63zm24 24l-63 63-16-16 63-63z" fill="#000"></path></svg>