<svg xmlns="http://www.w3.org/2000/svg" viewBox="0 0 512 512" class="lang-flag-svg"><circle cx="256" cy="256" fill="#f0f0f0" r="256"></circle><path d="M256 0C165 0 86 47 40 118l347 358A256 256 0 00256 0z" fill="#ffda44"></path><path d="M512 256c0-66-25-127-67-172v344c42-45 67-106 67-172zM320 482h27l8-26 8 26h14a256 256 0 0024-15L45 111a256 256 0 00-16 27l3 10h27l-22 16 8 25-21-16-13 10a256 256 0 00330 314l-21-15zM57 245l8-26-21-15h26l9-26 8 26h27l-22 15 8 26-21-16-22 16zm55 56l9-26-22-16h27l8-25 8 25h27l-22 16 9 25-22-15-22 16zm56 55l8-25-22-16h27l8-26 9 26h26l-21 16 8 25-22-16-21 16zm76 40l-21 16 8-26-22-15h27l8-26 9 26h27l-22 15 8 26-22-16zm34 71l8-25-21-16h26l9-25 8 25h27l-22 16 8 25-21-15-22 15z" fill="#0052b4"></path></svg>