<svg xmlns="http://www.w3.org/2000/svg" viewBox="0 0 512 512" class="lang-flag-svg"><circle cx="256" cy="256" fill="#f0f0f0" r="256"></circle><path d="M53 100c-20 26-35 56-44 89h133l-89-89zm450 89c-9-33-24-63-44-89l-89 89h133zM9 323c9 33 24 63 44 89l89-89H9zM412 53c-26-20-56-35-89-44v133l89-89zM100 459c26 20 56 35 89 44V370l-89 89zM189 9c-33 9-63 24-89 44l89 89V9zm134 494c33-9 63-24 89-44l-89-89v133zm47-180l89 89c20-26 35-56 44-89H370z" fill="#0052b4"></path><g fill="#d80027"><path d="M510 223H289V2a259 259 0 00-33-2l-33 2v221H2a259 259 0 00-2 33l2 33h221v221a258 258 0 0066 0V289h221a259 259 0 002-33l-2-33z"></path><path d="M323 323l114 114a257 257 0 0015-16l-98-98h-31zm-134 0L75 437a257 257 0 0016 15l98-98v-31zm0-134L75 75a257 257 0 00-15 16l98 98h31zm134 0L437 75a256 256 0 00-16-15l-98 98v31z"></path></g></svg>