<svg xmlns="http://www.w3.org/2000/svg" viewBox="0 0 512 512" class="lang-flag-svg"><path d="M25 145a255 255 0 000 222l231 23 231-23a255 255 0 000-222l-231-23-231 23z" fill="#f0f0f0"></path><path d="M25 367a256 256 0 00462 0H25z" fill="#6da544"></path><path d="M25 145h462a256 256 0 00-462 0z" fill="#d80027"></path><path d="M211 323h90v-38l-18 9-27-27-27 27-18-9zm-50-45l4 13h13l-11 8 4 13-10-8-11 8 4-13-11-8h13zm12-44l5 12h13l-11 8 4 13-11-8-10 8 4-13-11-8h13zm37-34l4 13h14l-11 8 4 13-11-8-11 8 4-13-10-8h13zm141 78l-4 13h-13l11 8-4 13 10-8 11 8-4-13 11-8h-13zm-12-44l-5 12h-13l11 8-4 13 11-8 10 8-4-13 11-8h-13zm-37-34l-4 13h-14l11 8-4 13 11-8 11 8-4-13 10-8h-13zm-46-16l4 12h14l-11 8 4 13-11-8-11 8 4-13-11-8h14z" fill="#ffda44"></path></svg>