<svg xmlns="http://www.w3.org/2000/svg" viewBox="0 0 512 512" class="lang-flag-svg"><circle cx="256" cy="256" fill="#d80027" r="256"></circle><path d="M381 256l-51 24 27 50-55-11-7 56-39-41-39 41-7-56-55 11 27-50-51-24 51-24-27-50 55 11 7-56 39 41 39-41 7 56 55-11-27 50z" fill="#ffda44"></path><circle cx="256" cy="256" fill="#d80027" r="77.9"></circle><path d="M217 256h-6a44 44 0 0011 29 78 78 0 0115-25 55 55 0 00-20-4zm24 42a44 44 0 0030 0c-3-10-8-19-15-26-7 7-12 16-15 26zm54-64a44 44 0 00-78 0 77 77 0 0139 10 77 77 0 0139-10zm-20 26a78 78 0 0115 25 44 44 0 0011-29 56 56 0 00-6 0 55 55 0 00-20 4z" fill="#ffda44"></path></svg>