<svg xmlns="http://www.w3.org/2000/svg" viewBox="0 0 512 512" class="lang-flag-svg"><path d="M512 256c0-31-6-61-16-89l-240-11-240 11a255 255 0 000 178l240 11 240-11c10-28 16-58 16-89z" fill="#d80027"></path><path d="M256 512c110 0 204-69 240-167H16c36 98 130 167 240 167z" fill="#6da544"></path><path d="M16 167h480a256 256 0 00-480 0z" fill="#338af3"></path><g fill="#f0f0f0"><path d="M262 328a72 72 0 1134-136 89 89 0 00-151 64 89 89 0 00151 64c-10 5-22 8-34 8z"></path><path d="M317 206l10 27 26-12-13 25 27 10-27 10 13 25-26-12-10 27-9-27-26 12 12-25-27-10 27-10-12-25 26 12z"></path></g></svg>