<svg xmlns="http://www.w3.org/2000/svg" viewBox="0 0 512 512" class="lang-flag-svg"><circle cx="256" cy="256" fill="#f0f0f0" r="256"></circle><path d="M256 0C155 0 67 59 25 145h462A256 256 0 00256 0z" fill="#000"></path><path d="M256 512c-101 0-189-59-231-145h462a256 256 0 01-231 145z" fill="#496e2d"></path><path d="M500 178H12a256 256 0 000 156h488a256 256 0 000-156z" fill="#a2001d"></path><g fill="#f0f0f0"><path d="M336 118l-31-14-49 112-49-112-31 14 62 138-62 138 31 14 49-112 49 112 31-14-62-138z"></path><path d="M277 131l-21-20-21 20v250l21 20 21-20V131z"></path></g><path d="M200 179v154c13 22 28 40 39 52V127c-11 12-26 30-39 52zm112 0c-13-22-28-40-39-52v258c11-12 26-30 39-52V179z" fill="#a2001d"></path><path d="M312 179v154c12-22 22-49 22-77s-10-55-22-77zm-112 0v154c-12-22-22-49-22-77s10-55 22-77z" fill="#000"></path></svg>