<svg xmlns="http://www.w3.org/2000/svg" viewBox="0 0 512 512" class="lang-flag-svg"><path d="M0 45v422-211z" fill="#ff9811"></path><circle cx="256" cy="256" fill="#ffda44" r="256"></circle><path d="M200 45h-88a258 258 0 00-12 8L78 256l22 203a256 256 0 0012 8h88V45z" fill="#ff9811"></path><path d="M0 256c0 83 39 156 100 203V53A256 256 0 000 256z" fill="#6da544"></path><path d="M412 156v7z" fill="#ffda44"></path><path d="M492 323h-49l-20 22v45h-45v-23h23v-44H301v28h-23v-53c-7-7-11-15-11-25V128c0-18 15-33 34-33v206h44l15-13a53 53 0 01-4-21v-33h-33v-67h67c0-11 16-22 16-22s17 11 17 22v67h53a68 68 0 0113-83c-19-43-50-80-89-106H234v422h166c47-32 83-79 100-135l-8-9z" fill="#a2001d"></path></svg>