<svg xmlns="http://www.w3.org/2000/svg" viewBox="0 0 512 512" class="lang-flag-svg"><path d="M512 256a256 256 0 01-512 0L256 0c141 0 256 115 256 256z" fill="#d80027"></path><path d="M256 256V0A256 256 0 000 256h256z" fill="#0052b4"></path><path d="M223 150l-32 15 17 30-34-7-4 35-24-26-24 26-4-35-34 7 17-30-31-15 31-15-17-30 34 6 4-34 24 25 24-25 4 34 34-6-17 30z" fill="#f0f0f0"></path><circle cx="146.1" cy="149.8" fill="#0052b4" r="47.7"></circle><path d="M146 175a25 25 0 110-51 25 25 0 010 51z" fill="#f0f0f0"></path></svg>