<svg xmlns="http://www.w3.org/2000/svg" viewBox="0 0 512 512" class="lang-flag-svg"><circle cx="256" cy="256" fill="#f0f0f0" r="256"></circle><path d="M256 512a256 256 0 00240-345H16a255 255 0 00240 345z" fill="#0052b4"></path><path d="M256 512c110 0 204-69 240-167H16c36 98 130 167 240 167z" fill="#d80027"></path><path d="M66 145v127c0 73 95 95 95 95s95-22 95-95V145H66z" fill="#f0f0f0"></path><path d="M88 145v127c0 9 2 17 6 25h134c4-8 6-16 6-25V145H88z" fill="#d80027"></path><path d="M206 234h-34v-23h22v-22h-22v-22h-22v22h-22v22h22v23h-33v22h33v22h22v-22h34z" fill="#f0f0f0"></path><path d="M124 328c15 9 30 14 37 16 8-2 22-7 37-16 14-9 24-20 30-31a39 39 0 00-22-8l-9 1a39 39 0 00-72 0 39 39 0 00-8-1c-9 0-17 3-23 8 6 11 16 22 30 31z" fill="#0052b4"></path></svg>