<svg xmlns="http://www.w3.org/2000/svg" viewBox="0 0 512 512" class="lang-flag-svg"><path d="M512 256c0-31-6-61-16-89l-240-11-240 11a255 255 0 000 178l240 11 240-11c10-28 16-58 16-89z" fill="#f0f0f0"></path><path d="M256 512c110 0 204-69 240-167H16c36 98 130 167 240 167z" fill="#0052b4"></path><path d="M16 167h480a256 256 0 00-480 0z" fill="#d80027"></path><path d="M323 178h-45l8-56 29-22 30 22v45zm-134 0h45l-8-56-29-22-30 22v45z" fill="#338af3"></path><path d="M286 178h-60v-56l30-22 30 22z" fill="#0052b4"></path><path d="M167 167v122c0 30 14 55 36 72l15-4 20 20a89 89 0 0018 1l18-1 22-19 13 3c22-17 36-42 36-72V167H167z" fill="#f0f0f0"></path><path d="M167 167h36v36h-36zm71 0h36v36h-36zm71 0h36v36h-36zm-106 36h35v35h-35zm71 0h35v35h-35zm-107 35h36v36h-36zm36 36h35v35h-35zm35-36h36v36h-36zm71 0h36v36h-36zm-35 36h35v35h-35zm-36 35h36v36h-36zm-35 0h-34c3 14 9 26 18 36h16v-36zm106 36h16a89 89 0 0018-36h-34v36zm-106 0v16c10 7 22 13 35 16v-32h-35zm71 0v32c13-3 25-9 35-16v-16h-35z" fill="#d80027"></path></svg>