<svg xmlns="http://www.w3.org/2000/svg" viewBox="0 0 512 512" class="lang-flag-svg"><circle cx="256" cy="256" fill="#f0f0f0" r="256"></circle><path d="M352 200h-64l-32-55-32 55h-64l32 56-32 56h64l32 55 32-55h64l-32-56 32-56zm-57 56l-19 34h-40l-19-34 19-34h40l19 34zm-39-68l7 12h-14l7-12zm-59 34h14l-7 13-7-13zm0 68l7-13 7 13h-14zm59 34l-7-12h14l-7 12zm59-34h-14l7-13 7 13zm-14-68h14l-7 13-7-13zM415 56H97a257 257 0 00-59 66h436a257 257 0 00-59-66zM97 456h318a257 257 0 0059-66H38a257 257 0 0059 66z" fill="#0052b4"></path></svg>