<svg xmlns="http://www.w3.org/2000/svg" viewBox="0 0 512 512" class="lang-flag-svg"><circle cx="256" cy="256" fill="#f0f0f0" r="256"></circle><path d="M256 0A256 256 0 0016 345h480A255 255 0 00256 0z" fill="#0052b4"></path><g fill="#d80027"><path d="M256 0C146 0 52 69 16 167h480A256 256 0 00256 0z"></path><path d="M66 145v127c0 73 95 95 95 95s95-22 95-95V145H66z"></path></g><path d="M105 167h112v-45l-23 12-33-34-33 34-23-12zm129 123l-73-72-72 72 24 24 48-49 49 49z" fill="#ffda44"></path><path d="M234 223h-34a22 22 0 003-12 22 22 0 00-42-10 22 22 0 00-42 10 22 22 0 003 12H89c0 12 11 22 23 22h-1c0 12 10 22 23 22 0 11 7 20 18 22l-18 40a72 72 0 0027 5 72 72 0 0028-5l-18-40c10-2 18-11 18-22 13 0 22-10 22-22 12 0 23-10 23-22z" fill="#f0f0f0"></path></svg>