<svg xmlns="http://www.w3.org/2000/svg" viewBox="0 0 512 512" class="lang-flag-svg"><circle cx="256" cy="256" fill="#f0f0f0" r="256"></circle><path d="M256 0C155 0 67 59 25 145h462A256 256 0 00256 0z" fill="#ff9811"></path><path d="M256 512c101 0 189-59 231-145H25c42 86 130 145 231 145z" fill="#6da544"></path><circle cx="256" cy="256" fill="#0052b4" r="89"></circle><circle cx="256" cy="256" fill="#f0f0f0" r="55.7"></circle><path d="M256 187l17 39 42-4-25 34 25 34-42-4-17 39-17-39-42 4 25-34-25-34 42 4z" fill="#0052b4"></path></svg>