<svg xmlns="http://www.w3.org/2000/svg" viewBox="0 0 32 32" fill="#ffffff" aria-hidden="true"><path d="M19.3 7.3c1.5.9 2.6 2.4 2.8 4.3.6.3 1.2.5 2 .5a4.7 4.7 0 000-9.3c-2.7-.1-4.8 2-4.8 4.5zm-3 9.6c2.6 0 4.6-2.2 4.6-4.7s-2.1-4.7-4.6-4.7-4.7 2.2-4.7 4.7 2 4.7 4.7 4.7zm1.9.3h-4a6 6 0 00-6 6v5h.3c3.2 1 6 1.4 8.2 1.4 4.4 0 7-1.3 7.2-1.3l.3-.2v-4.8a6 6 0 00-6-6.1zm7.8-4.8h-4c0 1.6-.7 3-1.7 4 2.9.9 5 3.6 5 6.9v1.5c4-.1 6.2-1.3 6.3-1.3l.3-.2h.1v-4.8a6 6 0 00-6-6.1zm-18-.3c1 0 1.8-.3 2.5-.8.2-1.5 1-2.8 2.2-3.7v-.3a4.7 4.7 0 00-9.3 0c0 2.6 2 4.8 4.6 4.8zm4.2 4.3c-1-1-1.7-2.5-1.8-4H6a6 6 0 00-6 6v5h.3c2.6.9 4.8 1.2 6.8 1.3v-1.4c0-3.3 2.2-6 5.1-6.9z"></path></svg>
