<svg width="16" height="16" viewBox="0 0 16 16" fill="none" xmlns="http://www.w3.org/2000/svg">
<g clip-path="url(#clip0_262_1887)">
<path d="M9.2 9.74992L6.51 12.4499H4.74V14.2199H2.96V15.9999H0V13.0299L6.25 6.79992C5.84852 5.71981 5.82928 4.53473 6.1955 3.44216C6.56172 2.34958 7.29127 1.41549 8.26259 0.795527C9.23392 0.175561 10.3884 -0.092838 11.5336 0.0350506C12.6788 0.162939 13.7455 0.679392 14.5562 1.49836C15.3668 2.31732 15.8723 3.38934 15.9885 4.53578C16.1047 5.68223 15.8245 6.83386 15.1946 7.7988C14.5648 8.76374 13.6233 9.48371 12.527 9.83874C11.4308 10.1938 10.246 10.1624 9.17 9.74992L9.2 9.75992V9.74992ZM14.22 3.54992C14.2227 3.07783 14.0377 2.62403 13.7057 2.28834C13.3738 1.95265 12.9221 1.76257 12.45 1.75992C12.2162 1.7586 11.9845 1.80335 11.7681 1.89159C11.5516 1.97983 11.3546 2.10984 11.1884 2.2742C10.8527 2.60614 10.6627 3.05783 10.66 3.52992C10.6573 4.002 10.8423 4.45581 11.1743 4.7915C11.5062 5.12719 11.9579 5.31727 12.43 5.31992C12.9021 5.32257 13.3559 5.13758 13.6916 4.80564C14.0273 4.4737 14.2173 4.022 14.22 3.54992Z" fill="black"/>
</g>
<defs>
<clipPath id="clip0_262_1887">
<rect width="16" height="16" fill="white"/>
</clipPath>
</defs>
</svg>
