<svg width="16" height="16" viewBox="0 0 16 16" fill="none" xmlns="http://www.w3.org/2000/svg">
<g clip-path="url(#clip0_250_8)">
<path d="M2.29002 1.041e-10C1.68268 1.041e-10 1.10021 0.241267 0.670747 0.670725C0.241289 1.10018 2.18361e-05 1.68265 2.18361e-05 2.29V13.7C-0.00129507 14.0016 0.0569656 14.3004 0.171459 14.5794C0.285953 14.8584 0.454424 15.112 0.667201 15.3257C0.879979 15.5394 1.13287 15.709 1.41136 15.8247C1.68985 15.9404 1.98845 16 2.29002 16H13.7C14.0016 16.0013 14.3004 15.9431 14.5794 15.8286C14.8584 15.7141 15.1121 15.5456 15.3258 15.3328C15.5395 15.12 15.709 14.8672 15.8248 14.5887C15.9405 14.3102 16 14.0116 16 13.71V2.3C16.0013 1.99843 15.9431 1.69957 15.8286 1.42058C15.7141 1.14159 15.5456 0.887964 15.3328 0.674257C15.1201 0.460551 14.8672 0.290976 14.5887 0.175268C14.3102 0.0595595 14.0116 -2.87524e-06 13.71 1.04099e-10L2.30002 1.041e-10H2.29002ZM4.36002 6.86C4.99002 6.86 5.50002 7.36 5.50002 8V11.43C5.50002 11.7337 5.37939 12.0249 5.16466 12.2396C4.94993 12.4544 4.65869 12.575 4.35502 12.575C4.05135 12.575 3.76011 12.4544 3.54538 12.2396C3.33066 12.0249 3.21002 11.7337 3.21002 11.43V8C3.21002 7.37 3.73002 6.86 4.36002 6.86ZM6.86002 4.57C6.86002 4.42029 6.88951 4.27205 6.9468 4.13374C7.00409 3.99543 7.08806 3.86976 7.19392 3.7639C7.29978 3.65804 7.42545 3.57407 7.56376 3.51678C7.70207 3.45949 7.85032 3.43 8.00002 3.43C8.14973 3.43 8.29797 3.45949 8.43628 3.51678C8.57459 3.57407 8.70026 3.65804 8.80612 3.7639C8.91198 3.86976 8.99595 3.99543 9.05324 4.13374C9.11053 4.27205 9.14002 4.42029 9.14002 4.57V11.43C9.14002 11.5797 9.11053 11.7279 9.05324 11.8663C8.99595 12.0046 8.91198 12.1302 8.80612 12.2361C8.70026 12.342 8.57459 12.4259 8.43628 12.4832C8.29797 12.5405 8.14973 12.57 8.00002 12.57C7.85032 12.57 7.70207 12.5405 7.56376 12.4832C7.42545 12.4259 7.29978 12.342 7.19392 12.2361C7.08806 12.1302 7.00409 12.0046 6.9468 11.8663C6.88951 11.7279 6.86002 11.5797 6.86002 11.43V4.57ZM11.64 9.14C12.27 9.14 12.79 9.65 12.79 10.29V11.43C12.79 11.7337 12.6694 12.0249 12.4547 12.2396C12.2399 12.4544 11.9487 12.575 11.645 12.575C11.3413 12.575 11.0501 12.4544 10.8354 12.2396C10.6207 12.0249 10.5 11.7337 10.5 11.43V10.29C10.5 9.65 11.01 9.14 11.64 9.14Z" fill="black"/>
</g>
<defs>
<clipPath id="clip0_250_8">
<rect width="16" height="16" fill="white"/>
</clipPath>
</defs>
</svg>
