<svg width="16" height="17" viewBox="0 0 16 17" fill="none" xmlns="http://www.w3.org/2000/svg">
<g clip-path="url(#clip0_250_14)">
<path d="M15.2 11C14.6091 12.708 13.4289 14.1494 11.8711 15.0658C10.3133 15.9821 8.47996 16.3133 6.70002 16C5.39538 15.7385 4.18225 15.139 3.18196 14.2616C2.18167 13.3841 1.42928 12.2594 1.00002 11C0.600024 10.2 0.400024 9.29999 0.400024 8.49999C0.400024 7.49999 0.600024 6.59999 1.00002 5.79999C1.60367 4.14957 2.7606 2.75935 4.27391 1.86595C5.78721 0.972553 7.56336 0.631197 9.30002 0.899985C10.5823 1.14329 11.7804 1.71273 12.7787 2.55344C13.777 3.39415 14.542 4.4778 15 5.69999C15.4 6.49999 15.6 7.39998 15.6 8.39998C15.6 9.19998 15.4 10.1 15.2 10.9V11ZM6.70002 15H9.30002V13.4C8.87739 13.5236 8.44027 13.5909 8.00002 13.6C7.60002 13.6 7.10002 13.6 6.70002 13.4V15ZM3.00002 12.8L4.30002 12C3.71976 11.3804 3.30679 10.6233 3.10002 9.79998L1.70002 10.5C2.00002 11.3 2.50002 12.1 3.00002 12.7V12.8ZM3.10002 4.19998C2.60002 4.79998 2.10002 5.49999 1.80002 6.29999L3.10002 6.99999C3.33548 6.16643 3.78345 5.40834 4.40002 4.79999L3.10002 4.19998ZM9.30002 1.99999H6.70002V3.59998C7.12266 3.47636 7.55977 3.40912 8.00002 3.39999C8.40002 3.39999 8.90002 3.39998 9.30002 3.59998V1.99999ZM8.00002 4.49998C6.93916 4.49998 5.92174 4.92141 5.1716 5.67156C4.42145 6.4217 4.00002 7.43912 4.00002 8.49999C4.00002 9.56085 4.42145 10.5783 5.1716 11.3284C5.92174 12.0786 6.93916 12.5 8.00002 12.5C9.06089 12.5 10.0783 12.0786 10.8285 11.3284C11.5786 10.5783 12 9.56085 12 8.49999C12 7.43912 11.5786 6.4217 10.8285 5.67156C10.0783 4.92141 9.06089 4.49998 8.00002 4.49998ZM13 3.99998L11.7 4.99999C12.2884 5.55201 12.7344 6.2382 13 6.99999L14.3 6.19999C14 5.39999 13.6 4.69998 13 3.99998ZM13 9.79998C12.7933 10.6233 12.3803 11.3804 11.8 12L13.1 12.7C13.7 12.1 14.1 11.3 14.4 10.5L13 9.49998V9.79998Z" fill="black"/>
<path d="M11.1 8.49999C11.1 10.2 9.69998 11.7 8.09998 11.7C7.67599 11.7139 7.25366 11.6406 6.85913 11.4848C6.46459 11.3289 6.10625 11.0937 5.80628 10.7937C5.50632 10.4937 5.27111 10.1354 5.11522 9.74084C4.95933 9.34631 4.88607 8.92398 4.89998 8.49999C4.99998 6.69999 6.29998 5.29999 7.99998 5.29999C9.69998 5.29999 11.1 6.69999 11.1 8.49999Z" fill="black"/>
</g>
<defs>
<clipPath id="clip0_250_14">
<rect width="16" height="17" fill="white"/>
</clipPath>
</defs>
</svg>
