<svg xmlns="http://www.w3.org/2000/svg" width="18" height="18" viewBox="0 0 18 18" fill="none" aria-hidden="true">
  <path d="M5.342 10.075c.25-.287.046-.734-.334-.734H3.87A5.14 5.14 0 0 1 3.859 9c0-2.835 2.306-5.141 5.141-5.141 1.362 0 2.602.533 3.523 1.401l1.605-1.877A7.58 7.58 0 0 0 9 1.395C6.968 1.395 5.058 2.186 3.622 3.622A7.58 7.58 0 0 0 1.394 9c0 .114.003.228.008.341H.444c-.38 0-.584.447-.334.734l2.616 3.001 2.616-3.001Z" fill="#88af2a"/>
  <path d="M17.89 8.628 15.274 5.627l-2.616 3.001c-.25.286-.046.733.334.733h1.136a5.142 5.142 0 0 1-5.128 4.78c-1.185 0-2.277-.403-3.147-1.078L4.249 14.94A7.58 7.58 0 0 0 9 16.606c2.032 0 3.942-.791 5.378-2.227a7.58 7.58 0 0 0 2.219-5.017h.96c.38 0 .583-.447.333-.734Z" fill="#88af2a"/>
</svg>
