<svg width="14" height="14" viewBox="0 0 14 14" fill="none" xmlns="http://www.w3.org/2000/svg">
<g clip-path="url(#clip0_253_21)">
<path d="M0.929976 3.95C0.821418 4.81762 0.865414 5.69754 1.05998 6.55L2.92998 6.28L2.88998 6.12C2.88998 6.12 2.53998 4.7 2.63998 3.8C2.79998 2.46 3.43998 1.88 3.43998 1.88C3.43998 1.88 3.89998 1.62 4.42998 1.59C4.93998 1.56 5.24998 1.6 5.73998 1.76C6.48998 2 7.15998 2.53 7.70998 3.26C8.20998 3.96 8.61998 5.24 8.61998 5.24L10.62 4.74C10.62 4.74 10.25 3.53 9.83998 2.84C9.43908 2.08299 8.8797 1.4213 8.19998 0.9C7.46069 0.334563 6.56051 0.0193231 5.62998 0C4.37998 0 3.52998 0.38 2.39998 1.37C1.62712 2.03475 1.10779 2.94621 0.929976 3.95Z" fill="black"/>
<path d="M0.929976 3.95C0.821418 4.81762 0.865414 5.69754 1.05998 6.55L2.92998 6.28L2.88998 6.12C2.88998 6.12 2.53998 4.7 2.63998 3.8C2.79998 2.46 3.43998 1.88 3.43998 1.88C3.43998 1.88 3.89998 1.62 4.42998 1.59C4.93998 1.56 5.24998 1.6 5.73998 1.76C6.48998 2 7.15998 2.53 7.70998 3.26C8.20998 3.96 8.61998 5.24 8.61998 5.24L10.62 4.74C10.62 4.74 10.25 3.53 9.83998 2.84C9.43908 2.08299 8.8797 1.4213 8.19998 0.9C7.46069 0.334563 6.56051 0.0193231 5.62998 0C4.37998 0 3.52998 0.38 2.39998 1.37C1.62712 2.03475 1.10779 2.94621 0.929976 3.95Z" fill="white" fill-opacity="0.83"/>
<path d="M6.41 13.15C6.27679 13.2062 6.12794 13.2133 5.99 13.17C5.79 13.11 5.72 12.97 5.57 12.8C5.41 12.63 5.31 12.53 5.21 12.32C5.16014 12.2263 5.12633 12.1249 5.11 12.02C5.1 11.86 5.15 11.62 5.15 11.62C5.15 11.62 4.77 11.29 4.57 11.04C4.31688 10.7577 4.12909 10.4231 4.02 10.06C3.86532 9.60614 3.86532 9.11384 4.02 8.65999C4.36 7.49999 4.58 6.82999 4.97 5.81999C5.23943 5.12431 5.7507 4.54913 6.41 4.19999C6.91 3.89999 7.54 3.69999 8.11 3.72999C9.31 3.80999 9.92 3.83999 11.02 3.98999C11.56 4.05999 11.95 4.24999 12.3 4.65999C12.79 5.21999 13.12 5.53999 13.26 6.25999C13.34 6.65999 13.36 6.90999 13.26 7.30999C13 8.38999 12.64 9.15999 12.38 9.92999C12.16 10.59 11.68 11.4 10.83 11.92C10.48 12.12 9.97 12.3 9.63 12.35C9.09 12.43 8.71 12.47 8.13 12.61C7.44 12.77 7.03 12.95 6.41 13.15Z" fill="black"/>
<path d="M6.41 13.15C6.27679 13.2062 6.12794 13.2133 5.99 13.17C5.79 13.11 5.72 12.97 5.57 12.8C5.41 12.63 5.31 12.53 5.21 12.32C5.16014 12.2263 5.12633 12.1249 5.11 12.02C5.1 11.86 5.15 11.62 5.15 11.62C5.15 11.62 4.77 11.29 4.57 11.04C4.31688 10.7577 4.12909 10.4231 4.02 10.06C3.86532 9.60614 3.86532 9.11384 4.02 8.65999C4.36 7.49999 4.58 6.82999 4.97 5.81999C5.23943 5.12431 5.7507 4.54913 6.41 4.19999C6.91 3.89999 7.54 3.69999 8.11 3.72999C9.31 3.80999 9.92 3.83999 11.02 3.98999C11.56 4.05999 11.95 4.24999 12.3 4.65999C12.79 5.21999 13.12 5.53999 13.26 6.25999C13.34 6.65999 13.36 6.90999 13.26 7.30999C13 8.38999 12.64 9.15999 12.38 9.92999C12.16 10.59 11.68 11.4 10.83 11.92C10.48 12.12 9.97 12.3 9.63 12.35C9.09 12.43 8.71 12.47 8.13 12.61C7.44 12.77 7.03 12.95 6.41 13.15Z" fill="url(#paint0_radial_253_21)" fill-opacity="0.5" style="mix-blend-mode:overlay"/>
<path d="M6.41 13.15C6.27679 13.2062 6.12794 13.2133 5.99 13.17C5.79 13.11 5.72 12.97 5.57 12.8C5.41 12.63 5.31 12.53 5.21 12.32C5.16014 12.2263 5.12633 12.1249 5.11 12.02C5.1 11.86 5.15 11.62 5.15 11.62C5.15 11.62 4.77 11.29 4.57 11.04C4.31688 10.7577 4.12909 10.4231 4.02 10.06C3.86532 9.60614 3.86532 9.11384 4.02 8.65999C4.36 7.49999 4.58 6.82999 4.97 5.81999C5.23943 5.12431 5.7507 4.54913 6.41 4.19999C6.91 3.89999 7.54 3.69999 8.11 3.72999C9.31 3.80999 9.92 3.83999 11.02 3.98999C11.56 4.05999 11.95 4.24999 12.3 4.65999C12.79 5.21999 13.12 5.53999 13.26 6.25999C13.34 6.65999 13.36 6.90999 13.26 7.30999C13 8.38999 12.64 9.15999 12.38 9.92999C12.16 10.59 11.68 11.4 10.83 11.92C10.48 12.12 9.97 12.3 9.63 12.35C9.09 12.43 8.71 12.47 8.13 12.61C7.44 12.77 7.03 12.95 6.41 13.15Z" fill="#3A9DF2"/>
<g opacity="0.21" filter="url(#filter0_f_253_21)">
<path d="M7.46002 11.21C6.76002 11.38 5.71002 11.84 5.71002 11.84L8.81002 4.5C8.81002 4.5 9.70002 4.54 10.26 4.65H10.27C10.71 4.73 11.24 4.83 11.6 5.32C11.98 5.83 11.98 6.42 11.86 7.05C11.69 8.02 11.46 8.42 11.07 9.24C10.85 9.71 10.67 9.97 10.27 10.31C9.52002 10.94 8.57002 10.94 7.47002 11.21H7.46002Z" fill="url(#paint1_linear_253_21)"/>
</g>
<g style="mix-blend-mode:overlay" filter="url(#filter1_f_253_21)">
<path d="M10.7 7.40001C10.7 7.74001 10.29 8.13001 9.9 8.13001C9.47 8.13001 9.47 7.81001 9.5 7.52001C9.5 7.17001 9.68 6.92001 10.03 6.92001C10.31 6.92001 10.7 6.99001 10.7 7.39001V7.40001Z" fill="black"/>
</g>
<path d="M10.67 7.36C10.67 7.71 10.25 8.1 9.85998 8.1C9.43998 8.1 9.24998 7.71 9.27998 7.42C9.27998 7.07 9.70998 6.72 10.08 6.72C10.35 6.72 10.67 6.96 10.67 7.36Z" fill="white"/>
<path d="M10.67 7.36C10.67 7.71 10.25 8.1 9.85998 8.1C9.43998 8.1 9.24998 7.71 9.27998 7.42C9.27998 7.07 9.70998 6.72 10.08 6.72C10.35 6.72 10.67 6.96 10.67 7.36Z" fill="url(#paint2_radial_253_21)" fill-opacity="0.6"/>
<g style="mix-blend-mode:overlay" filter="url(#filter2_f_253_21)">
<path d="M8.75999 7.25999C8.75999 7.61999 8.33999 7.99999 7.95999 7.99999C7.52999 7.99999 7.52999 7.67999 7.55999 7.39999C7.55999 7.03999 7.73999 6.79999 8.08999 6.79999C8.36999 6.79999 8.75999 6.85999 8.75999 7.25999Z" fill="black"/>
</g>
<path d="M8.72997 7.23C8.72997 7.58 8.30997 7.97 7.91997 7.97C7.49997 7.97 7.29997 7.58 7.33997 7.29C7.33997 6.94 7.76997 6.59 8.12997 6.59C8.39997 6.59 8.72997 6.83 8.72997 7.23Z" fill="white"/>
<path d="M8.72997 7.23C8.72997 7.58 8.30997 7.97 7.91997 7.97C7.49997 7.97 7.29997 7.58 7.33997 7.29C7.33997 6.94 7.76997 6.59 8.12997 6.59C8.39997 6.59 8.72997 6.83 8.72997 7.23Z" fill="url(#paint3_radial_253_21)" fill-opacity="0.6"/>
<g style="mix-blend-mode:overlay" filter="url(#filter3_f_253_21)">
<path d="M6.87999 7.10001C6.87999 7.46001 6.46999 7.84001 6.07999 7.84001C5.64999 7.84001 5.64999 7.52001 5.67999 7.24001C5.67999 6.88001 5.85999 6.64001 6.21999 6.64001C6.48999 6.64001 6.87999 6.70001 6.87999 7.10001Z" fill="black"/>
</g>
<path d="M6.84997 7.06999C6.84997 7.41999 6.42997 7.80999 6.04997 7.80999C5.61997 7.80999 5.42997 7.41999 5.44997 7.12999C5.44997 6.77999 5.89997 6.42999 6.24997 6.42999C6.52997 6.42999 6.84997 6.66999 6.84997 7.06999Z" fill="white"/>
<path d="M6.84997 7.06999C6.84997 7.41999 6.42997 7.80999 6.04997 7.80999C5.61997 7.80999 5.42997 7.41999 5.44997 7.12999C5.44997 6.77999 5.89997 6.42999 6.24997 6.42999C6.52997 6.42999 6.84997 6.66999 6.84997 7.06999Z" fill="url(#paint4_radial_253_21)" fill-opacity="0.6"/>
<path d="M2.65 8.9C3 10.2 2.81 11.39 2.17 11.55C1.41 11.75 0.310004 11.13 0.0500043 9.35C-0.179996 7.88 0.440004 7.25 1.12 7.01C1.71 6.88 2.27 7.51 2.65 8.89V8.9Z" fill="black"/>
<path d="M2.65 8.9C3 10.2 2.81 11.39 2.17 11.55C1.41 11.75 0.310004 11.13 0.0500043 9.35C-0.179996 7.88 0.440004 7.25 1.12 7.01C1.71 6.88 2.27 7.51 2.65 8.89V8.9Z" fill="white" fill-opacity="0.57"/>
<path d="M2.65 8.9C3 10.2 2.81 11.39 2.17 11.55C1.41 11.75 0.310004 11.13 0.0500043 9.35C-0.179996 7.88 0.440004 7.25 1.12 7.01C1.71 6.88 2.27 7.51 2.65 8.89V8.9Z" fill="url(#paint5_radial_253_21)" fill-opacity="0.79"/>
<path d="M5.34998 7.63C6.30998 9.9 5.24998 11.33 4.30998 11.33C4.50998 11.06 4.90998 10.11 4.37998 8.25C4.20004 7.47144 3.7761 6.77072 3.16998 6.25C3.62998 6.06 4.67998 6.05 5.34998 7.63Z" fill="black"/>
<path d="M5.34998 7.63C6.30998 9.9 5.24998 11.33 4.30998 11.33C4.50998 11.06 4.90998 10.11 4.37998 8.25C4.20004 7.47144 3.7761 6.77072 3.16998 6.25C3.62998 6.06 4.67998 6.05 5.34998 7.63Z" fill="white" fill-opacity="0.25"/>
<path d="M5.34998 7.63C6.30998 9.9 5.24998 11.33 4.30998 11.33C4.50998 11.06 4.90998 10.11 4.37998 8.25C4.20004 7.47144 3.7761 6.77072 3.16998 6.25C3.62998 6.06 4.67998 6.05 5.34998 7.63Z" fill="url(#paint6_radial_253_21)" fill-opacity="0.5"/>
<path d="M2.27999 12.03C2.00999 11.91 1.71999 11.53 1.71999 11.53C1.71999 11.53 2.09999 11.61 2.27999 11.49C2.87999 11.09 2.85999 10.21 2.73999 9.39C2.60999 8.47 2.06999 7.03 1.23999 6.99C1.01999 6.99 0.73999 7.2 0.73999 7.2C0.73999 7.2 0.80999 6.89999 0.89999 6.74C0.980829 6.56763 1.10919 6.42192 1.26999 6.32C1.39149 6.22976 1.53865 6.18071 1.68999 6.18C1.84999 6.18 1.94999 6.23 2.11999 6.25C2.29999 6.26 2.38999 6.27 2.56999 6.25C2.66999 6.25 2.76999 6.25 2.85999 6.19C2.87999 6.19 2.87999 6.12 2.87999 6.12C2.87999 6.12 3.16999 6.21 3.47999 6.51C3.79999 6.83 4.04999 7.34 4.19999 7.68C4.45999 8.28 4.62999 9.22 4.63999 9.58C4.65999 10.15 4.63999 10.64 4.46999 11.03C4.31999 11.39 4.09999 11.69 3.67999 11.88C3.49999 11.97 3.19999 12.07 2.89999 12.1C2.67999 12.13 2.47999 12.1 2.27999 12.03Z" fill="black"/>
<path d="M2.27999 12.03C2.00999 11.91 1.71999 11.53 1.71999 11.53C1.71999 11.53 2.09999 11.61 2.27999 11.49C2.87999 11.09 2.85999 10.21 2.73999 9.39C2.60999 8.47 2.06999 7.03 1.23999 6.99C1.01999 6.99 0.73999 7.2 0.73999 7.2C0.73999 7.2 0.80999 6.89999 0.89999 6.74C0.980829 6.56763 1.10919 6.42192 1.26999 6.32C1.39149 6.22976 1.53865 6.18071 1.68999 6.18C1.84999 6.18 1.94999 6.23 2.11999 6.25C2.29999 6.26 2.38999 6.27 2.56999 6.25C2.66999 6.25 2.76999 6.25 2.85999 6.19C2.87999 6.19 2.87999 6.12 2.87999 6.12C2.87999 6.12 3.16999 6.21 3.47999 6.51C3.79999 6.83 4.04999 7.34 4.19999 7.68C4.45999 8.28 4.62999 9.22 4.63999 9.58C4.65999 10.15 4.63999 10.64 4.46999 11.03C4.31999 11.39 4.09999 11.69 3.67999 11.88C3.49999 11.97 3.19999 12.07 2.89999 12.1C2.67999 12.13 2.47999 12.1 2.27999 12.03Z" fill="white" fill-opacity="0.79"/>
<path d="M2.27999 12.03C2.00999 11.91 1.71999 11.53 1.71999 11.53C1.71999 11.53 2.09999 11.61 2.27999 11.49C2.87999 11.09 2.85999 10.21 2.73999 9.39C2.60999 8.47 2.06999 7.03 1.23999 6.99C1.01999 6.99 0.73999 7.2 0.73999 7.2C0.73999 7.2 0.80999 6.89999 0.89999 6.74C0.980829 6.56763 1.10919 6.42192 1.26999 6.32C1.39149 6.22976 1.53865 6.18071 1.68999 6.18C1.84999 6.18 1.94999 6.23 2.11999 6.25C2.29999 6.26 2.38999 6.27 2.56999 6.25C2.66999 6.25 2.76999 6.25 2.85999 6.19C2.87999 6.19 2.87999 6.12 2.87999 6.12C2.87999 6.12 3.16999 6.21 3.47999 6.51C3.79999 6.83 4.04999 7.34 4.19999 7.68C4.45999 8.28 4.62999 9.22 4.63999 9.58C4.65999 10.15 4.63999 10.64 4.46999 11.03C4.31999 11.39 4.09999 11.69 3.67999 11.88C3.49999 11.97 3.19999 12.07 2.89999 12.1C2.67999 12.13 2.47999 12.1 2.27999 12.03Z" fill="url(#paint7_radial_253_21)"/>
<path d="M2.27999 12.03C2.00999 11.91 1.71999 11.53 1.71999 11.53C1.71999 11.53 2.09999 11.61 2.27999 11.49C2.87999 11.09 2.85999 10.21 2.73999 9.39C2.60999 8.47 2.06999 7.03 1.23999 6.99C1.01999 6.99 0.73999 7.2 0.73999 7.2C0.73999 7.2 0.80999 6.89999 0.89999 6.74C0.980829 6.56763 1.10919 6.42192 1.26999 6.32C1.39149 6.22976 1.53865 6.18071 1.68999 6.18C1.84999 6.18 1.94999 6.23 2.11999 6.25C2.29999 6.26 2.38999 6.27 2.56999 6.25C2.66999 6.25 2.76999 6.25 2.85999 6.19C2.87999 6.19 2.87999 6.12 2.87999 6.12C2.87999 6.12 3.16999 6.21 3.47999 6.51C3.79999 6.83 4.04999 7.34 4.19999 7.68C4.45999 8.28 4.62999 9.22 4.63999 9.58C4.65999 10.15 4.63999 10.64 4.46999 11.03C4.31999 11.39 4.09999 11.69 3.67999 11.88C3.49999 11.97 3.19999 12.07 2.89999 12.1C2.67999 12.13 2.47999 12.1 2.27999 12.03Z" fill="url(#paint8_radial_253_21)" fill-opacity="0.5"/>
</g>
<defs>
<filter id="filter0_f_253_21" x="4.21002" y="3" width="9.22083" height="10.34" filterUnits="userSpaceOnUse" color-interpolation-filters="sRGB">
<feFlood flood-opacity="0" result="BackgroundImageFix"/>
<feBlend mode="normal" in="SourceGraphic" in2="BackgroundImageFix" result="shape"/>
<feGaussianBlur stdDeviation="0.75" result="effect1_foregroundBlur_253_21"/>
</filter>
<filter id="filter1_f_253_21" x="8.28877" y="5.72001" width="3.61124" height="3.60999" filterUnits="userSpaceOnUse" color-interpolation-filters="sRGB">
<feFlood flood-opacity="0" result="BackgroundImageFix"/>
<feBlend mode="normal" in="SourceGraphic" in2="BackgroundImageFix" result="shape"/>
<feGaussianBlur stdDeviation="0.6" result="effect1_foregroundBlur_253_21"/>
</filter>
<filter id="filter2_f_253_21" x="6.34877" y="5.59999" width="3.61124" height="3.60001" filterUnits="userSpaceOnUse" color-interpolation-filters="sRGB">
<feFlood flood-opacity="0" result="BackgroundImageFix"/>
<feBlend mode="normal" in="SourceGraphic" in2="BackgroundImageFix" result="shape"/>
<feGaussianBlur stdDeviation="0.6" result="effect1_foregroundBlur_253_21"/>
</filter>
<filter id="filter3_f_253_21" x="4.46876" y="5.44001" width="3.61124" height="3.60001" filterUnits="userSpaceOnUse" color-interpolation-filters="sRGB">
<feFlood flood-opacity="0" result="BackgroundImageFix"/>
<feBlend mode="normal" in="SourceGraphic" in2="BackgroundImageFix" result="shape"/>
<feGaussianBlur stdDeviation="0.6" result="effect1_foregroundBlur_253_21"/>
</filter>
<radialGradient id="paint0_radial_253_21" cx="0" cy="0" r="1" gradientUnits="userSpaceOnUse" gradientTransform="translate(4.67854 9.54215) rotate(-28.2608) scale(3.28856 3.23019)">
<stop/>
<stop offset="1" stop-opacity="0"/>
</radialGradient>
<linearGradient id="paint1_linear_253_21" x1="10.7" y1="9.86" x2="7.74002" y2="7.22" gradientUnits="userSpaceOnUse">
<stop stop-color="white"/>
<stop offset="1" stop-color="white" stop-opacity="0"/>
</linearGradient>
<radialGradient id="paint2_radial_253_21" cx="0" cy="0" r="1" gradientUnits="userSpaceOnUse" gradientTransform="translate(9.84065 7.27876) rotate(43.5248) scale(1.04893 1.09669)">
<stop stop-color="white" stop-opacity="0"/>
<stop offset="0.77"/>
</radialGradient>
<radialGradient id="paint3_radial_253_21" cx="0" cy="0" r="1" gradientUnits="userSpaceOnUse" gradientTransform="translate(7.8988 7.15031) rotate(43.5247) scale(1.04893 1.09669)">
<stop stop-color="white" stop-opacity="0"/>
<stop offset="0.77"/>
</radialGradient>
<radialGradient id="paint4_radial_253_21" cx="0" cy="0" r="1" gradientUnits="userSpaceOnUse" gradientTransform="translate(6.02167 6.98977) rotate(43.5248) scale(1.04893 1.09669)">
<stop stop-color="white" stop-opacity="0"/>
<stop offset="0.77"/>
</radialGradient>
<radialGradient id="paint5_radial_253_21" cx="0" cy="0" r="1" gradientUnits="userSpaceOnUse" gradientTransform="translate(-0.00555746 9.31153) rotate(-10.038) scale(1.29508 3.15677)">
<stop stop-color="white" stop-opacity="0.72"/>
<stop offset="1" stop-color="#42A1F3"/>
</radialGradient>
<radialGradient id="paint6_radial_253_21" cx="0" cy="0" r="1" gradientUnits="userSpaceOnUse" gradientTransform="translate(4.5455 8.86946) rotate(-17.4678) scale(5.85952 15.528)">
<stop stop-color="#42A1F3"/>
<stop offset="1" stop-color="white" stop-opacity="0"/>
</radialGradient>
<radialGradient id="paint7_radial_253_21" cx="0" cy="0" r="1" gradientUnits="userSpaceOnUse" gradientTransform="translate(1.97603 9.34914) rotate(-11.1705) scale(2.06338 4.23389)">
<stop/>
<stop offset="1" stop-color="white" stop-opacity="0"/>
</radialGradient>
<radialGradient id="paint8_radial_253_21" cx="0" cy="0" r="1" gradientUnits="userSpaceOnUse" gradientTransform="translate(2.50225 6.076) rotate(82.4595) scale(0.469637 1.72515)">
<stop/>
<stop offset="1" stop-color="white" stop-opacity="0"/>
</radialGradient>
<clipPath id="clip0_253_21">
<rect width="14" height="14" fill="white"/>
</clipPath>
</defs>
</svg>
