<svg preserveAspectRatio="xMidYMid meet" width="100%" height="100%" overflow="visible" style="display: block;" viewBox="0 0 16 16" fill="none" xmlns="http://www.w3.org/2000/svg">
<g id="Img">
<path id="Vector" d="M1 6.03C0.99988 5.86735 1.04066 5.70727 1.1186 5.56451C1.19654 5.42174 1.30912 5.30087 1.446 5.213L6.918 1.695C7.2407 1.48742 7.6163 1.37705 8 1.37705C8.3837 1.37705 8.7593 1.48742 9.082 1.695L14.554 5.213C14.6909 5.30087 14.8035 5.42174 14.8814 5.56451C14.9593 5.70727 15.0001 5.86735 15 6.03V6.25C15 6.44891 14.921 6.63968 14.7803 6.78033C14.6397 6.92098 14.4489 7 14.25 7C14.0511 7 13.8603 7.07902 13.7197 7.21967C13.579 7.36032 13.5 7.55109 13.5 7.75V13C13.5 13.5304 13.2893 14.0391 12.9142 14.4142C12.5391 14.7893 12.0304 15 11.5 15H10.5C10.2348 15 9.98043 14.8946 9.79289 14.7071C9.60536 14.5196 9.5 14.2652 9.5 14V10.5C9.5 10.2348 9.39464 9.98043 9.20711 9.79289C9.01957 9.60536 8.76522 9.5 8.5 9.5H7.5C7.23478 9.5 6.98043 9.60536 6.79289 9.79289C6.60536 9.98043 6.5 10.2348 6.5 10.5V14C6.5 14.2652 6.39464 14.5196 6.20711 14.7071C6.01957 14.8946 5.76522 15 5.5 15H4.5C3.96957 15 3.46086 14.7893 3.08579 14.4142C2.71071 14.0391 2.5 13.5304 2.5 13V7.75C2.5 7.55109 2.42098 7.36032 2.28033 7.21967C2.13968 7.07902 1.94891 7 1.75 7C1.55109 7 1.36032 6.92098 1.21967 6.78033C1.07902 6.63968 1 6.44891 1 6.25V6.03Z" fill="var(--fill-0, white)"/>
</g>
</svg>
