<svg viewBox="0 0 14 14" xmlns="http://www.w3.org/2000/svg" aria-hidden="true"><path fill="#2f69b1" d="M.93 3.95a7.5 7.5 0 0 0 .13 2.6l1.87-.27-.04-.16S2.54 4.7 2.64 3.8c.16-1.34.8-1.92.8-1.92s.46-.26.99-.29c.51-.03.82.01 1.31.17.75.24 1.42.77 1.97 1.5.5.7.91 1.98.91 1.98l2-.5s-.37-1.21-.78-1.9A5.96 5.96 0 0 0 8.2.9 4.38 4.38 0 0 0 5.63 0C4.38 0 3.53.38 2.4 1.37A4.42 4.42 0 0 0 .93 3.95Z"/><path fill="#fff" fill-opacity=".83" d="M.93 3.95a7.5 7.5 0 0 0 .13 2.6l1.87-.27-.04-.16S2.54 4.7 2.64 3.8c.16-1.34.8-1.92.8-1.92s.46-.26.99-.29c.51-.03.82.01 1.31.17.75.24 1.42.77 1.97 1.5.5.7.91 1.98.91 1.98l2-.5s-.37-1.21-.78-1.9A5.96 5.96 0 0 0 8.2.9 4.38 4.38 0 0 0 5.63 0C4.38 0 3.53.38 2.4 1.37A4.42 4.42 0 0 0 .93 3.95Z"/><path fill="#2f69b1" d="M6.41 13.15a.61.61 0 0 1-.42.02c-.2-.06-.27-.2-.42-.37-.16-.17-.26-.27-.36-.48a.95.95 0 0 1-.1-.3c-.01-.16.04-.4.04-.4s-.38-.33-.58-.58a2.58 2.58 0 0 1-.55-.98 2.17 2.17 0 0 1 0-1.4c.34-1.16.56-1.83.95-2.84A3.1 3.1 0 0 1 6.41 4.2c.5-.3 1.13-.5 1.7-.47 1.2.08 1.81.11 2.91.26.54.07.93.26 1.28.67.49.56.82.88.96 1.6.08.4.1.65 0 1.05-.26 1.08-.62 1.85-.88 2.62-.22.66-.7 1.47-1.55 1.99-.35.2-.86.38-1.2.43-.54.08-.92.12-1.5.26-.69.16-1.1.34-1.72.54Z"/><circle cx="10.3" cy="7.4" r=".55" fill="#fff"/><circle cx="8.35" cy="7.25" r=".55" fill="#fff"/><circle cx="6.45" cy="7.1" r=".55" fill="#fff"/><path fill="#2f69b1" d="M2.65 8.9c.35 1.3.16 2.49-.48 2.65-.76.2-1.86-.42-2.12-2.2-.23-1.47.39-2.1 1.07-2.34.59-.13 1.15.5 1.53 1.88Z"/></svg>
