<svg width="111" height="49" viewBox="0 0 111 49" fill="none" xmlns="http://www.w3.org/2000/svg">
<g clip-path="url(#clip0_254_68)">
<path d="M1 16.15C1 7.23 8.25 0 17.16 0H94.86C103.77 0 111 7.23 111 16.15V51.15C111.29 51.41 111.47 51.79 111.47 52.2V73.19C111.47 73.6 111.29 73.98 111 74.23V116.04H104.44V17.16C104.44 14.3487 103.323 11.6526 101.335 9.66467C99.3474 7.67678 96.6513 6.56 93.84 6.56H84.26C84.2613 7.48882 84.0793 8.40876 83.7245 9.26713C83.3697 10.1255 82.849 10.9054 82.1922 11.5622C81.5354 12.219 80.7555 12.7397 79.8971 13.0945C79.0388 13.4493 78.1188 13.6313 77.19 13.63H35.06C34.132 13.63 33.2132 13.4471 32.3559 13.0916C31.4987 12.7362 30.72 12.2153 30.0643 11.5586C29.4086 10.902 28.8887 10.1225 28.5345 9.26482C28.1803 8.4071 27.9987 7.48797 28 6.56H18.16C15.3487 6.56 12.6526 7.67678 10.6647 9.66467C8.67678 11.6526 7.56 14.3487 7.56 17.16V116.05H1.02V83.2C0.72762 83.1175 0.469991 82.9422 0.285994 82.7005C0.101997 82.4588 0.00161604 82.1638 0 81.86L0 68C0 67.36 0.43 66.83 1 66.66V62.77C0.43 62.61 0 62.07 0 61.44V47.55C0 46.92 0.43 46.38 1 46.22V39.05C0.43 38.88 0 38.35 0 37.71V31.66C0 31.03 0.43 30.49 1 30.33V16.15Z" fill="#194C85"/>
<path d="M2.26999 116V16.26C2.26999 12.2818 3.85034 8.46645 6.66339 5.65341C9.47643 2.84036 13.2917 1.26001 17.27 1.26001H94.73C98.7082 1.26001 102.524 2.84036 105.337 5.65341C108.15 8.46645 109.73 12.2818 109.73 16.26V116" stroke="url(#paint0_linear_254_68)" stroke-width="0.5"/>
<path d="M3.23999 116V16.27C3.23999 12.557 4.71499 8.996 7.3405 6.37049C9.966 3.74499 13.527 2.26999 17.24 2.26999H94.7C98.413 2.26999 101.974 3.74499 104.599 6.37049C107.225 8.996 108.7 12.557 108.7 16.27V116" stroke="url(#paint1_linear_254_68)" stroke-width="0.5"/>
<path d="M105.83 4.82C106.56 4.82 110.83 9.82 110.83 15.82V116.32H105.83V4.81V4.82Z" fill="url(#paint2_linear_254_68)" fill-opacity="0.1"/>
<path d="M61.44 7.39999H50.33C49.844 7.39999 49.45 7.79398 49.45 8.27999V8.28999C49.45 8.776 49.844 9.16999 50.33 9.16999H61.44C61.926 9.16999 62.32 8.776 62.32 8.28999V8.27999C62.32 7.79398 61.926 7.39999 61.44 7.39999Z" fill="black" fill-opacity="0.15"/>
<path d="M50.34 7.40001C50.2069 7.40071 50.0758 7.43156 49.9564 7.49025C49.837 7.54894 49.7324 7.63394 49.6506 7.73885C49.5688 7.84377 49.5118 7.96588 49.484 8.09598C49.4562 8.22609 49.4582 8.36081 49.49 8.49001C49.59 8.11001 49.93 7.82001 50.34 7.82001H61.44C61.84 7.82001 62.19 8.11001 62.29 8.49001C62.3235 8.36014 62.3269 8.22433 62.2999 8.09294C62.273 7.96155 62.2163 7.83807 62.1343 7.73194C62.0523 7.6258 61.9471 7.53982 61.8267 7.48056C61.7064 7.4213 61.5741 7.39033 61.44 7.39001H50.34V7.40001Z" fill="black" fill-opacity="0.15"/>
<g clip-path="url(#clip1_254_68)">
<path d="M45.54 32.46C45.54 31.14 46.09 30.16 47.21 29.43C46.9004 28.9566 46.4819 28.5643 45.9895 28.2859C45.4971 28.0075 44.9452 27.8512 44.38 27.83C43.18 27.73 41.88 28.57 41.41 28.57C40.91 28.57 39.76 27.87 38.85 27.87C37 27.9 35 29.46 35 32.63C35 33.56 35.16 34.53 35.48 35.53C35.91 36.83 37.46 40.05 39.08 40C39.92 39.98 40.51 39.36 41.61 39.36C42.68 39.36 43.23 40 44.17 40C45.8 39.97 47.2 37.05 47.61 35.74C45.42 34.64 45.54 32.52 45.54 32.46ZM43.64 26.59C44.56 25.43 44.47 24.38 44.44 24C43.64 24.05 42.71 24.59 42.17 25.25C41.59 25.95 41.24 26.83 41.32 27.81C42.19 27.89 42.99 27.41 43.64 26.59Z" fill="white"/>
</g>
<path d="M75.68 34.26C75.5471 34.26 75.4176 34.218 75.31 34.14C75.2006 34.059 75.1172 33.9477 75.07 33.82C75.0185 33.6882 75.0043 33.5447 75.029 33.4053C75.0537 33.266 75.1163 33.1361 75.21 33.03C75.31 32.93 75.42 32.87 75.55 32.83C75.682 32.8039 75.8189 32.8215 75.94 32.88C76.06 32.93 76.16 33.03 76.24 33.14C76.3234 33.2799 76.3597 33.4428 76.3435 33.6049C76.3273 33.7669 76.2594 33.9194 76.15 34.04C76.0914 34.1075 76.0192 34.1619 75.9383 34.1998C75.8573 34.2377 75.7694 34.2582 75.68 34.26ZM68.32 34.26C68.1871 34.26 68.0576 34.218 67.95 34.14C67.8369 34.0604 67.7499 33.949 67.7 33.82C67.6498 33.6873 67.6372 33.5433 67.6637 33.4039C67.6902 33.2645 67.7546 33.1351 67.85 33.03C67.94 32.93 68.05 32.87 68.19 32.83C68.3188 32.8061 68.4518 32.8236 68.57 32.88C68.7 32.93 68.8 33.03 68.87 33.14C68.9547 33.2788 68.9927 33.4412 68.9783 33.6032C68.9639 33.7652 68.8979 33.9183 68.79 34.04C68.7314 34.1075 68.6592 34.1619 68.5783 34.1998C68.4973 34.2377 68.4094 34.2582 68.32 34.26ZM75.92 29.94L77.25 27.46C77.2928 27.3915 77.3071 27.309 77.29 27.23C77.2826 27.1946 77.2691 27.1608 77.25 27.13C77.227 27.0937 77.1963 27.063 77.16 27.04C77.111 27.0084 77.0528 26.9942 76.9948 26.9996C76.9368 27.0051 76.8823 27.0299 76.84 27.07C76.8101 27.0982 76.7862 27.1322 76.77 27.17L75.42 29.67C74.3532 29.1561 73.1842 28.8892 72 28.8892C70.8158 28.8892 69.6468 29.1561 68.58 29.67L67.23 27.17C67.2138 27.1322 67.1899 27.0982 67.16 27.07C67.1177 27.0299 67.0632 27.0051 67.0052 26.9996C66.9472 26.9942 66.889 27.0084 66.84 27.04C66.8047 27.0601 66.7741 27.0873 66.75 27.12C66.7266 27.153 66.7101 27.1904 66.7015 27.2299C66.6929 27.2694 66.6924 27.3103 66.7 27.35L66.75 27.46L68.08 29.94C66.903 30.6543 65.9169 31.6434 65.2063 32.8226C64.4957 34.0017 64.0817 35.3357 64 36.71H80C79.9183 35.3357 79.5043 34.0017 78.7937 32.8226C78.0831 31.6434 77.097 30.6543 75.92 29.94Z" fill="white"/>
</g>
<defs>
<linearGradient id="paint0_linear_254_68" x1="2.78999" y1="61.65" x2="111.26" y2="61.13" gradientUnits="userSpaceOnUse">
<stop stop-opacity="0.03"/>
<stop offset="1" stop-opacity="0.04"/>
</linearGradient>
<linearGradient id="paint1_linear_254_68" x1="3.73999" y1="62.13" x2="110.2" y2="61.62" gradientUnits="userSpaceOnUse">
<stop stop-opacity="0.03"/>
<stop offset="1" stop-opacity="0.04"/>
</linearGradient>
<linearGradient id="paint2_linear_254_68" x1="105.83" y1="52.33" x2="110.83" y2="52.34" gradientUnits="userSpaceOnUse">
<stop stop-opacity="0"/>
<stop offset="0.64"/>
<stop offset="1" stop-opacity="0"/>
</linearGradient>
<clipPath id="clip0_254_68">
<rect width="111" height="49" fill="white"/>
</clipPath>
<clipPath id="clip1_254_68">
<rect width="16" height="16" fill="white" transform="translate(33 24)"/>
</clipPath>
</defs>
</svg>
