<svg xmlns="http://www.w3.org/2000/svg" viewBox="0 0 24 24" aria-hidden="true">
  <path fill="#3a6fa5" d="M3.8 9h16.4v2.4H3.8z"/>
  <path fill="#3a6fa5" d="M5 11.8h14V19a1.8 1.8 0 0 1-1.8 1.8H6.8A1.8 1.8 0 0 1 5 19v-7.2z"/>
  <path fill="#fff" opacity=".25" d="M11.1 9h1.8v11.8h-1.8z"/>
  <path fill="#3a6fa5" d="M12 2.8c-1.8 0-3.1 1.05-3.1 2.5S10.2 7.5 12 8.6c1.8-1.1 3.1-2 3.1-3.3S13.8 2.8 12 2.8zM7.4 7.2c.55-.75 1.4-1.25 2.45-1.4-.15 1.15.25 2.2 1.2 3H7.55c-.2 0-.2-.85-.15-1.6zm7.15-1.4c1.05.15 1.9.65 2.45 1.4.05.75.05 1.6-.15 1.6h-3.1c.95-.8 1.35-1.85 1.2-3z"/>
</svg>
