<svg xmlns="http://www.w3.org/2000/svg" viewBox="0 0 24 24" aria-hidden="true">
  <path fill="#5c7a96" d="M4.2 5.2h15.6A2.6 2.6 0 0 1 22.4 7.8v8.4a2.6 2.6 0 0 1-2.6 2.6H4.2A2.6 2.6 0 0 1 1.6 16.2V7.8A2.6 2.6 0 0 1 4.2 5.2z"/>
  <path fill="#fff" d="M12.75 7.35v.95c1.25.2 2.1.9 2.1 2.05 0 1.25-1 1.95-2.45 2.15l-.55.08c1.15.2 1.85.75 1.85 1.7 0 1.05-.95 1.75-2.3 1.85v.95h-1.3v-.95c-1.2-.15-2.1-.85-2.25-1.9h1.5c.18.55.72.9 1.5.9.95 0 1.5-.4 1.5-1.05 0-.55-.42-.9-1.5-1.1l-.7-.12c-1.4-.25-2.25-.95-2.25-2.15 0-1.2.95-2 2.35-2.2v-.95h1.3zm-1.3 1.1c-.85.12-1.35.55-1.35 1.15 0 .6.48.95 1.35 1.1V8.45zm1.3 5.2v2.15c.9-.12 1.45-.55 1.45-1.15 0-.55-.48-.9-1.45-1z"/>
</svg>
