<svg xmlns="http://www.w3.org/2000/svg" viewBox="0 0 24 24" aria-hidden="true">
  <path fill="#3a6fa5" d="M9.85 2.4h4.3l.45 2.35c.55.15 1.05.4 1.5.7l2.2-1.1 2.15 2.15-1.1 2.2c.3.45.55.95.7 1.5l2.35.45v4.3l-2.35.45c-.15.55-.4 1.05-.7 1.5l1.1 2.2-2.15 2.15-2.2-1.1c-.45.3-.95.55-1.5.7l-.45 2.35h-4.3l-.45-2.35c-.55-.15-1.05-.4-1.5-.7l-2.2 1.1-2.15-2.15 1.1-2.2c-.3-.45-.55-.95-.7-1.5L2.4 14.15v-4.3l2.35-.45c.15-.55.4-1.05.7-1.5l-1.1-2.2L6.5 3.55l2.2 1.1c.45-.3.95-.55 1.5-.7L9.85 2.4zm2.15 6.55a3.05 3.05 0 1 0 0 6.1 3.05 3.05 0 0 0 0-6.1z"/>
  <circle cx="12" cy="12" r="1.55" fill="#fff"/>
</svg>
