<svg width="512" height="512" viewBox="0 0 512 512" fill="none" xmlns="http://www.w3.org/2000/svg">
<g clip-path="url(#clip0_252_18)">
<path d="M505 443L405 343C401 339 395 336 388 336H372C404.582 294.252 420.014 241.648 415.147 188.915C410.281 136.181 385.484 87.2893 345.812 52.2089C306.14 17.1284 254.581 -1.49887 201.648 0.125231C148.716 1.74934 98.3958 23.5025 60.9492 60.9492C23.5025 98.3958 1.74935 148.716 0.125246 201.648C-1.49886 254.581 17.1284 306.14 52.2089 345.812C87.2894 385.484 136.181 410.281 188.915 415.147C241.648 420.014 294.252 404.582 336 372V388C336 395 339 401 343 405L443 505C452 514 467 514 477 505L505 477C514 467 514 452 505 443ZM208 336C174.052 336 141.495 322.514 117.49 298.51C93.4857 274.505 80 241.948 80 208C80 174.052 93.4857 141.495 117.49 117.49C141.495 93.4857 174.052 80 208 80C241.948 80 274.505 93.4857 298.51 117.49C322.514 141.495 336 174.052 336 208C336 241.948 322.514 274.505 298.51 298.51C274.505 322.514 241.948 336 208 336Z" fill="black"/>
</g>
<defs>
<clipPath id="clip0_252_18">
<rect width="512" height="512" fill="white"/>
</clipPath>
</defs>
</svg>
