<svg width="16" height="16" viewBox="0 0 16 16" fill="none" xmlns="http://www.w3.org/2000/svg">
<g clip-path="url(#clip0_250_11)">
<path d="M7.99999 2.77999C9.08999 1.07999 13.96 -0.800007 15.85 4.37999C16.29 6.21999 16.27 10.63 8.02999 15.28V15.31L7.99999 15.29L7.97999 15.31L7.96999 15.27C-0.27001 10.63 -0.30001 6.21999 0.14999 4.36999C2.04999 -0.800008 6.90999 1.09999 7.99999 2.77999ZM11.6 1.49999L11.13 1.52999C11.1233 1.54333 11.1367 1.55999 11.17 1.57999L11.25 1.62999L11.42 1.74999L11.85 2.09999C12.2425 2.4478 12.6039 2.82925 12.93 3.23999V3.33999L12.85 3.83999L12.81 4.03999L12.75 4.37999V4.43999L12.72 4.53999L12.65 4.94999L12.57 5.36999C12.5633 5.40999 12.53 5.43999 12.47 5.45999L12.42 5.47999L12.39 5.48999L12.34 5.50999L12.28 5.52999L12.2 5.55999L11.62 5.75999L11.46 5.80999L11.28 5.86999L10.83 6.02999L10.43 6.15999C10.3833 6.16666 10.3433 6.15999 10.31 6.13999L10.29 6.11999L10.26 6.09999L9.41999 5.47999L9.13999 5.27999L8.85999 5.06999L8.68999 4.94999L8.48999 4.79999C8.28999 4.65999 8.23999 4.62999 8.22999 4.59999L8.20999 3.95999L8.19999 3.34999L8.15999 3.35999L8.03999 3.39999C7.97516 3.4056 7.90994 3.3953 7.84999 3.36999L7.79999 3.34999V4.59999L7.75999 4.62999L7.64999 4.71999L7.56999 4.76999L7.48999 4.82999L7.34999 4.92999L7.06999 5.12999L6.99999 5.16999L6.94999 5.20999L6.89999 5.24999L6.84999 5.27999L6.79999 5.31999L6.72999 5.36999L6.62999 5.43999L6.54999 5.49999L6.41999 5.59999L5.61999 6.16999L5.36999 6.10999L5.33999 6.08999L5.27999 6.07999L4.97999 5.97999L4.80999 5.91999L3.70999 5.53999L3.65999 5.51999L3.60999 5.49999L3.46999 5.43999C3.44332 5.41999 3.42332 5.37666 3.40999 5.30999L3.34999 4.96999L3.30999 4.73999L3.20999 4.09999L3.13999 3.66999L3.07999 3.23999C3.08666 3.21333 3.15332 3.12999 3.27999 2.98999L3.45999 2.78999C3.52999 2.69999 3.89999 2.32999 3.97999 2.25999L4.06999 2.17999C4.28806 1.99256 4.51499 1.81569 4.74999 1.64999L4.78999 1.61999L4.84999 1.57999C4.87666 1.55333 4.87999 1.53999 4.85999 1.53999L4.59999 1.49999H4.34999L4.29999 1.50999L4.19999 1.57999L4.09999 1.63999C4.06999 1.65999 3.83999 1.83999 3.79999 1.88999L3.69999 1.95999C3.53014 2.10653 3.37292 2.2671 3.22999 2.43999L3.16999 2.49999C3.11999 2.55999 2.94999 2.75999 2.86999 2.87999C2.79999 2.96999 2.77999 2.97999 2.70999 2.99999L2.60999 3.00999L2.24999 3.06999L2.03999 3.09999L1.28999 3.25999L1.22999 3.30999L1.19999 3.35999L1.15999 3.41999L1.06999 3.57999L0.92999 3.85999L0.89999 3.92999L0.87999 3.99999L0.85999 4.02999L0.75999 4.30999C0.528491 4.96005 0.453128 5.65544 0.53999 6.33999L0.55999 6.48999C0.58999 6.68999 0.59999 6.71999 0.67999 6.77999L0.73999 6.82999L1.49999 7.53999L1.53999 7.58999L1.54999 7.66999L1.58999 7.91999L1.60999 7.99999C1.60999 8.09999 1.65999 8.32999 1.69999 8.47999L1.76999 8.70999L2.00999 9.42999L2.01999 9.46999L2.03999 9.50999L2.16999 9.82999L2.36999 10.21L2.56999 10.46L2.73999 10.63L3.87999 11.74L3.95999 11.82L4.03999 11.88L4.10999 11.95L4.39999 12.19L4.48999 12.26L4.62999 12.38L5.26999 12.88L5.33999 12.93L5.38999 12.97L5.48999 13.05L5.57999 13.11L5.64999 13.16L5.73999 13.22L6.02999 13.42L6.22999 13.56L6.30999 13.49L6.40999 13.41L6.59999 13.44L6.93999 13.5L7.06999 13.52C7.90393 13.6147 8.74759 13.5776 9.56999 13.41C9.62999 13.41 9.63999 13.41 9.70999 13.49C9.73666 13.5233 9.75666 13.54 9.76999 13.54C9.77999 13.54 9.86999 13.5 9.95999 13.43L10.2 13.26L10.56 13.01L10.66 12.94L10.79 12.84L10.93 12.74C11.4776 12.3337 11.9986 11.8928 12.49 11.42L12.61 11.31L13.41 10.49L13.62 10.23C13.7567 10.0244 13.8676 9.80273 13.95 9.56999L13.98 9.47999L13.99 9.43999L14.01 9.40999L14.17 8.95999L14.2 8.85999C14.3279 8.45244 14.4183 8.03402 14.47 7.60999C14.49 7.54999 14.49 7.54999 14.56 7.47999L14.68 7.35999L14.75 7.29999L15.33 6.77999C15.4 6.70999 15.42 6.68999 15.43 6.61999C15.4881 6.10162 15.4881 5.57837 15.43 5.05999V4.96999C15.3846 4.69642 15.3109 4.42831 15.21 4.16999L15.18 4.06999L15.12 3.92999L15.1 3.87999L14.78 3.28999C14.7733 3.26999 14.74 3.25333 14.68 3.23999L14.46 3.19999L13.93 3.10999L13.63 3.05999L13.37 3.02999C13.24 3.00999 13.24 3.00999 13.09 2.81999C12.9833 2.68666 12.9167 2.60999 12.89 2.58999L12.85 2.52999C12.5608 2.19515 12.2355 1.89331 11.88 1.62999C11.72 1.52999 11.68 1.49999 11.66 1.49999H11.6ZM9.14999 9.33999C9.15999 9.33999 9.29999 9.33999 9.31999 9.35999C9.34666 9.36666 9.38666 9.40999 9.43999 9.48999L9.75999 9.92999L9.79999 9.98999L9.86999 10.09L9.94999 10.19L10.31 10.68L10.38 10.78L10.52 10.97C10.61 11.07 10.61 11.07 10.57 11.17L10.35 11.62L10.15 11.98L10.11 12.05L9.98999 12.27L9.58999 12.96L9.51999 13.01L9.28999 13.06L9.18999 13.08C8.26922 13.2316 7.32743 13.1976 6.41999 12.98C6.39332 12.98 6.36999 12.9467 6.34999 12.88L6.25999 12.74L6.19999 12.64L6.15999 12.57L6.13999 12.52L6.10999 12.48L5.96999 12.23L5.74999 11.83L5.69999 11.73L5.57999 11.52L5.47999 11.32L5.37999 11.13C5.37332 11.11 5.38332 11.0767 5.40999 11.03L5.48999 10.93L5.53999 10.85L5.63999 10.72L5.67999 10.66L5.72999 10.59L6.15999 10.02L6.51999 9.51999L6.56999 9.44999L6.64999 9.34999L9.14999 9.33999ZM3.43999 5.85999L3.56999 5.89999L3.66999 5.92999L3.69999 5.94999L3.73999 5.95999L3.79999 5.97999L3.84999 5.99999L3.94999 6.03999L4.04999 6.06999L4.08999 6.08999L4.12999 6.09999L4.17999 6.11999L4.22999 6.13999L4.62999 6.27999C4.66999 6.27999 4.69666 6.28999 4.70999 6.30999L4.76999 6.32999L4.81999 6.33999L5.01999 6.40999L5.47999 6.57999C5.49999 6.57999 5.52999 6.64999 5.52999 6.66999L5.54999 6.72999L5.68999 7.16999L5.74999 7.33999L6.31999 9.07999C6.32999 9.11999 6.33999 9.10999 6.21999 9.25999L6.13999 9.35999L6.08999 9.42999L6.02999 9.50999L5.82999 9.77999L5.74999 9.89999L5.65999 10.02L5.58999 10.12L5.54999 10.18L5.42999 10.34L5.39999 10.38L5.35999 10.43L5.29999 10.53L5.22999 10.61L5.03999 10.87H4.99999L4.84999 10.83L4.66999 10.79L4.53999 10.76L3.93999 10.61L3.76999 10.57L3.63999 10.53L3.21999 10.43L3.01999 10.37L2.93999 10.36C2.91332 10.36 2.88332 10.3267 2.84999 10.26L2.80999 10.2L2.78999 10.16L2.74999 10.08L2.44999 9.47999L2.43999 9.43999L2.41999 9.38999L2.39999 9.33999L2.37999 9.30999L2.35999 9.25999L2.32999 9.16999L2.25999 8.97999V8.93999L2.20999 8.80999L2.12999 8.52999C2.06514 8.31363 2.01503 8.09313 1.97999 7.86999L1.93999 7.46999L2.49999 6.76999L2.67999 6.56999C2.89003 6.31796 3.1137 6.0776 3.34999 5.84999L3.43999 5.85999ZM12.7 5.85999C12.73 5.86999 12.84 5.97999 12.92 6.06999L12.99 6.14999L13.05 6.21999L13.09 6.26999L13.15 6.33999L13.21 6.40999L13.44 6.68999L13.51 6.76999L14.07 7.46999C14.11 7.52999 14.1 7.62999 14.02 7.98999C13.9314 8.37055 13.828 8.74751 13.71 9.11999L13.69 9.17999L13.67 9.21999L13.61 9.35999L13.57 9.45999L13.37 9.87999L13.28 10.05C13.2425 10.1402 13.1919 10.2244 13.13 10.3C13.08 10.34 13.01 10.37 12.74 10.43L12.48 10.5L12.25 10.56L12.07 10.61L11.47 10.75L11.24 10.8L11.01 10.84H10.95L10.92 10.82L10.85 10.72L10.69 10.49L10.62 10.4L10.55 10.3L10.35 10.02L10.28 9.92999L10.16 9.75999L10.06 9.62999L9.97999 9.51999L9.88999 9.39999L9.70999 9.14999C9.66332 9.09666 9.64999 9.06333 9.66999 9.04999L9.68999 9.02999L9.69999 8.97999L9.76999 8.79999L9.81999 8.63999L9.83999 8.57999L9.93999 8.26999L10.16 7.64999L10.17 7.60999L10.21 7.50999L10.3 7.21999L10.33 7.11999L10.51 6.58999L10.58 6.55999L10.68 6.51999L11.23 6.31999L11.57 6.20999L11.67 6.16999L11.73 6.14999L11.78 6.12999L12.06 6.02999L12.16 5.99999L12.3 5.94999L12.65 5.83999L12.7 5.85999Z" fill="black"/>
</g>
<defs>
<clipPath id="clip0_250_11">
<rect width="16" height="16" fill="white"/>
</clipPath>
</defs>
</svg>
