<svg preserveAspectRatio="xMidYMid meet" width="100%" height="100%" overflow="visible" style="display: block;" viewBox="0 0 16 16" fill="none" xmlns="http://www.w3.org/2000/svg">
<g id="Img" clip-path="url(#clip0_0_9)">
<path id="Vector" d="M8.8 0.5L10.8 4.6L15.3 5.4C16 5.6 16.3 6.4 15.8 6.9L12.7 10.3L13.3 15C13.3 15.7 12.7 16.2 12 16L8 13.9L4 15.9C3.4 16.2 2.7 15.7 2.7 14.9L3.3 10.3L0.3 7C-0.2 6.5 -2.04891e-08 5.7 0.7 5.5L5.1 4.7L7.3 0.5C7.35683 0.346898 7.45915 0.214856 7.59322 0.121612C7.72729 0.0283675 7.88669 -0.0216118 8.05 -0.0216118C8.21331 -0.0216118 8.37271 0.0283675 8.50678 0.121612C8.64085 0.214856 8.74317 0.346898 8.8 0.5Z" fill="currentColor"/>
</g>
<defs>
<clipPath id="clip0_0_9">
<rect width="16" height="16" fill="currentColor"/>
</clipPath>
</defs>
</svg>
