<svg preserveAspectRatio="xMidYMid meet" width="100%" height="100%" overflow="visible" style="display: block;" viewBox="0 0 16 16" fill="none" xmlns="http://www.w3.org/2000/svg">
<g id="Img" clip-path="url(#clip0_0_4)">
<path id="Vector" d="M15.7576 13.9636C15.7576 14.1992 15.7112 14.4325 15.621 14.6501C15.5309 14.8678 15.3987 15.0656 15.2321 15.2321C15.0656 15.3987 14.8678 15.5309 14.6501 15.621C14.4325 15.7112 14.1992 15.7576 13.9636 15.7576C13.7281 15.7576 13.4948 15.7112 13.2771 15.621C13.0595 15.5309 12.8617 15.3987 12.6951 15.2321C12.5285 15.0656 12.3964 14.8678 12.3063 14.6501C12.2161 14.4325 12.1697 14.1992 12.1697 13.9636C12.1697 13.4879 12.3587 13.0316 12.6951 12.6951C13.0316 12.3587 13.4879 12.1697 13.9636 12.1697C14.4394 12.1697 14.8957 12.3587 15.2321 12.6951C15.5686 13.0316 15.7576 13.4879 15.7576 13.9636ZM12.8485 2.13333C12.0939 1.39373 11.1703 0.849324 10.1578 0.547313C9.14524 0.245302 8.07434 0.194798 7.03788 0.400179C6.00142 0.60556 5.0307 1.06063 4.20985 1.72593C3.389 2.39124 2.7428 3.24671 2.32727 4.21818V4.26667L10.6667 12.703C11.6507 12.2953 12.5195 11.6518 13.1963 10.8293C13.8732 10.0068 14.3374 9.03047 14.5482 7.98632C14.7589 6.94216 14.7097 5.86221 14.4049 4.84156C14.1 3.8209 13.5489 2.89086 12.8 2.13333H12.8485ZM1.84242 6.20606C1.7177 7.62396 2.07656 9.04233 2.86061 10.2303L0.0969695 12.9939C0.0647175 13.0255 0.0390952 13.0633 0.0216034 13.1049C0.00411157 13.1465 -0.0048982 13.1912 -0.0048982 13.2364C-0.0048982 13.2815 0.00411157 13.3262 0.0216034 13.3678C0.0390952 13.4095 0.0647175 13.4472 0.0969695 13.4788L1.55151 14.9333C1.58312 14.9656 1.62083 14.9912 1.66246 15.0087C1.70409 15.0262 1.74879 15.0352 1.79394 15.0352C1.83909 15.0352 1.88379 15.0262 1.92542 15.0087C1.96704 14.9912 2.00476 14.9656 2.03636 14.9333L4.75152 12.1212C5.45498 12.5963 6.24594 12.9267 7.07833 13.0932C7.91072 13.2597 8.76791 13.2589 9.6 13.0909H9.50303L1.93939 5.4303L1.84242 6.10909V6.20606Z" fill="var(--fill-0, #1D4268)"/>
</g>
<defs>
<clipPath id="clip0_0_4">
<rect width="16" height="16" fill="white"/>
</clipPath>
</defs>
</svg>
