<svg xmlns="http://www.w3.org/2000/svg" viewBox="0 0 16 16" fill="currentColor" aria-hidden="true">
  <path d="M14 3.1c-.4-.7-2.5-1-3-.9a5 5 0 0 0-.6.4c-.6.3-1.2.7-2.4.7s-1.8-.4-2.4-.7a5 5 0 0 0-.7-.4c-.4-.1-2.5.2-2.9 1C.3 5.8-.6 12.3.5 13.5a1 1 0 0 0 .9.3c.6 0 1.2-.6 1.8-1.5l.1-.3c1-1.7 1.1-1.8 4.7-1.8s3.7.1 4.7 1.8l.1.3c.6 1 1.2 1.5 1.8 1.5.4 0 .7 0 1-.3 1-1.2 0-7.7-1.6-10.5Zm-2.6.4h.7l.2.1v.9l-.5.3a.1.1 0 0 1-.1 0l-.4-.3v-.9ZM9 5h.3l.1.2v.2H9V5ZM6.6 5h.3l.1.2v.2a.2.2 0 0 1-.4 0l-.1-.2V5ZM3.9 6.2a1 1 0 0 1-1-1c0-.6.4-1 1-1 .5 0 1 .4 1 1s-.5 1-1 1Zm3.6 1.9-.1.1h-.8v.9h-.8L5.6 9v-.8H5l-.2-.1v-.8l.2-.1h.7v-.8c0-.1 0-.2.2-.2h.7l.1.2v.8h.9v.9ZM8 5.9a.6.6 0 0 1-.6-.7c0-.4.3-.7.6-.7s.6.3.6.7c0 .4-.3.7-.6.7Zm1.9 2.8a1 1 0 0 1-1-1c0-.6.4-1 1-1 .5 0 1 .4 1 1s-.5 1-1 1Zm1.1-3h-.7l-.2-.1v-.8l.2-.1H11l.3.4v.2l-.3.4ZM12.1 7h-.7l-.1-.1v-.9l.4-.3h.1l.4.3v1Zm1.3-1.3-.1.1h-.8l-.3-.4V5l.2-.4h.9v.9Z"/>
</svg>
