<svg preserveAspectRatio="xMidYMid meet" width="100%" height="100%" overflow="visible" style="display: block;" viewBox="0 0 16 16" fill="none" xmlns="http://www.w3.org/2000/svg">
<g id="Img">
<path id="Vector" d="M6.3 6.6C6.23858 6.42351 6.12374 6.27051 5.97143 6.16224C5.81911 6.05397 5.63687 5.9958 5.45 5.9958C5.26313 5.9958 5.08089 6.05397 4.92857 6.16224C4.77626 6.27051 4.66142 6.42351 4.6 6.6V7.3C4.53858 7.47649 4.42374 7.62949 4.27143 7.73776C4.11911 7.84603 3.93687 7.9042 3.75 7.9042C3.56313 7.9042 3.38089 7.84603 3.22857 7.73776C3.07626 7.62949 2.96142 7.47649 2.9 7.3V5.7C2.9 5.03333 3.1 4.5 3.5 4.1L5.2 2.4C5.35913 2.24087 5.44853 2.02504 5.44853 1.8C5.44853 1.57496 5.35913 1.35913 5.2 1.2C5.12121 1.12121 5.02767 1.0587 4.92472 1.01606C4.82177 0.97342 4.71143 0.951472 4.6 0.951472C4.37496 0.951472 4.15913 1.04087 4 1.2L1.5 3.4C0.833333 4 0.4 4.5 0.2 4.9C0.0666667 5.23333 0 5.9 0 6.9V8.5L0.1 10C0.366667 10.7333 0.866667 11.2333 1.6 11.5L3.1 11.6H4.7C5.43333 11.2 5.93333 10.6667 6.2 10V6.5M5.5 13.6C5.36667 13.2667 5.03333 13.0667 4.5 13H1.5C1.03333 13 0.733333 13.2 0.6 13.6V14.3C0.733333 14.6333 1.06667 14.8667 1.6 15H4.7C5.16667 14.8667 5.46667 14.6333 5.6 14.3L5.5 13.6ZM7.7 11H7.4L6 12.1V12.6C6.6666 13.2105 7.46252 13.6625 8.32832 13.9223C9.19412 14.182 10.1074 14.2428 11 14.1C11.2 14.1 11.2667 13.9667 11.2 13.7L10.5 12.1L10.4 12L7.7 11ZM14.2 9H13.9L12 11.5V11.8L12.7 13.4C12.7 13.5333 12.8333 13.5667 13.1 13.5C13.8624 13.0562 14.5176 12.4497 15.0189 11.7237C15.5201 10.9978 15.8551 10.1702 16 9.3C16 9.03333 15.9 8.9 15.7 8.9L14.2 9ZM10.6 5.9L8.3 6.7C8.1 6.7 8 6.8 8 7V9.3C8 9.5 8.06667 9.6 8.2 9.6L10.5 10.5L10.8 10.4L12.5 8.4V8L11 6C10.9333 5.8 10.8 5.76667 10.6 5.9ZM13 3L12.7 3.1L12 4.6V5L14 7.4L14.2 7.5H15.7C15.9 7.5 16 7.4 16 7.2C15.844 6.32081 15.4937 5.48753 14.9747 4.76093C14.4557 4.03433 13.7811 3.43273 13 3Z" fill="var(--fill-0, #1D4268)"/>
<path id="Vector_2" d="M10.1 2.2C8.61457 2.21976 7.18928 2.78987 6.1 3.8C5.9 3.93333 5.9 4.1 6.1 4.3L7.4 5.3H7.6L10.4 4.3L10.6 4.2L11.2 2.7C11.2667 2.43333 11.2 2.3 11 2.3L10.1 2.2Z" fill="var(--fill-0, #1D4268)"/>
</g>
</svg>
