<svg preserveAspectRatio="xMidYMid meet" width="100%" height="100%" overflow="visible" style="display: block;" viewBox="0 0 16 16" fill="none" xmlns="http://www.w3.org/2000/svg">
<g id="Img" clip-path="url(#clip0_0_26)">
<path id="Vector" d="M8.4 1.7V4.9L11.05 6.8L13.65 5.3V2.3C12.9535 1.62566 12.1403 1.08351 11.25 0.7H11.2L8.4 1.7ZM8 5.65L5.45 7.5L6.45 10.5H9.5L10.5 7.5L7.95 5.65H8ZM10.1 15.7L11.6 13.35L9.7 11.35H6.3L4.4 13.35L5.9 15.7C7.28899 16.096 8.76101 16.096 10.15 15.7H10.1ZM6 0.25L8 1L9.95 0.25C8.63995 -0.102367 7.26005 -0.102367 5.95 0.25H6.05H6ZM14 6.1L11.35 7.6L10.35 10.8L12.25 12.8L15.1 11.7L15.35 11.1C15.7 10.35 15.9 9.45 15.95 8.5L14 6.1ZM5.65 10.8L4.65 7.6L2 6.1L0 8.45C0.0530358 9.34414 0.255856 10.223 0.6 11.05V11C0.666667 11.2333 0.766667 11.45 0.9 11.65L3.75 12.8L5.65 10.8ZM14.35 12.85L12.4 13.6L11.4 15.25C12.5384 14.7063 13.5322 13.901 14.3 12.9L14.35 12.85ZM14.5 3.35V5.35L15.95 7.1C15.75 5.7 15.25 4.4 14.45 3.3L14.5 3.35ZM4.6 15.25L3.6 13.6L1.6 12.85C2.38199 13.8572 3.39343 14.663 4.55 15.2L4.6 15.25ZM4.95 6.8L7.5 4.9V1.7L4.75 0.7C3.75 1.1 2.95 1.7 2.25 2.35V5.35L4.95 6.8ZM0 7.1L1.5 5.4V3.35C0.703061 4.42233 0.187372 5.67717 0 7V7.05V7.1Z" fill="var(--fill-0, #1D4268)"/>
</g>
<defs>
<clipPath id="clip0_0_26">
<rect width="16" height="16" fill="white"/>
</clipPath>
</defs>
</svg>
