<svg preserveAspectRatio="xMidYMid meet" width="100%" height="100%" overflow="visible" style="display: block;" viewBox="0 0 16 16" fill="none" xmlns="http://www.w3.org/2000/svg">
<g id="Img" clip-path="url(#clip0_0_10)">
<path id="Vector" d="M16 14C16 14.5304 15.7893 15.0391 15.4142 15.4142C15.0391 15.7893 14.5304 16 14 16C13.4696 16 12.9609 15.7893 12.5858 15.4142C12.2107 15.0391 12 14.5304 12 14C12 13.4696 12.2107 12.9609 12.5858 12.5858C12.9609 12.2107 13.4696 12 14 12C14.5304 12 15.0391 12.2107 15.4142 12.5858C15.7893 12.9609 16 13.4696 16 14ZM1.95 12.65L0.15 14.5C0.0583865 14.5935 0.00707142 14.7191 0.00707142 14.85C0.00707142 14.9809 0.0583865 15.1065 0.15 15.2L0.85 15.9C1.05 16.1 1.35 16.1 1.55 15.9L3.35 14.1L2 12.65H1.95ZM15.7 2.4L13.6 0.3C13.5066 0.201663 13.3941 0.123359 13.2695 0.0698504C13.1449 0.0163422 13.0106 -0.0112511 12.875 -0.0112511C12.7394 -0.0112511 12.6051 0.0163422 12.4805 0.0698504C12.3559 0.123359 12.2434 0.201663 12.15 0.3L5.1 7.35C5.00166 7.44342 4.92336 7.55587 4.86985 7.68051C4.81634 7.80514 4.78875 7.93936 4.78875 8.075C4.78875 8.21064 4.81634 8.34486 4.86985 8.46949C4.92336 8.59413 5.00166 8.70658 5.1 8.8L5.45 9.15L2.65 11.95L4.05 13.35L6.85 10.55L7.2 10.9C7.6 11.3 8.25 11.3 8.65 10.9L15.7 3.85C16.1 3.45 16.1 2.8 15.7 2.4Z" fill="var(--fill-0, #1D4268)"/>
</g>
<defs>
<clipPath id="clip0_0_10">
<rect width="16" height="16" fill="white"/>
</clipPath>
</defs>
</svg>
