<svg preserveAspectRatio="xMidYMid meet" width="100%" height="100%" overflow="visible" style="display: block;" viewBox="0 0 16 16" fill="none" xmlns="http://www.w3.org/2000/svg">
<g id="Img" clip-path="url(#clip0_0_6)">
<path id="Vector" fill-rule="evenodd" clip-rule="evenodd" d="M8 1.008C9.35943 1.0055 10.69 1.40025 11.8281 2.14373C12.9662 2.88721 13.8623 3.94703 14.4062 5.19291C14.9501 6.43879 15.1181 7.81645 14.8896 9.15654C14.6611 10.4966 14.046 11.7408 13.12 12.736C13.218 12.5279 13.3034 12.3142 13.376 12.096C13.5442 11.4839 13.4697 10.8305 13.168 10.272C12.8 9.6 11.968 8.896 11.488 8.656C11.008 8.416 10.208 8.32 9.376 8.4C8.544 8.48 7.536 8.624 6.768 8.512C6 8.4 5.44 7.824 5.36 7.328C5.29822 7.00754 5.36117 6.67558 5.536 6.4C5.616 6.304 5.536 6.272 5.472 6.224C5.41032 6.17293 5.35996 6.10956 5.32414 6.03793C5.28833 5.9663 5.26785 5.88799 5.264 5.808C5.25261 5.60604 5.28537 5.40401 5.36 5.216C5.392 5.216 5.392 5.248 5.376 5.296C5.36 5.344 5.328 5.584 5.504 6.064C5.68 6.544 6.352 6.528 6.768 6.432C7.184 6.336 7.68 6 7.888 5.952C8.096 5.904 8.56 6.096 9.104 6.384C9.648 6.672 9.856 7.072 10.176 7.36C10.2603 7.45216 10.3649 7.52331 10.4816 7.56776C10.5983 7.61222 10.7238 7.62873 10.848 7.616C11.008 7.616 11.2 7.68 11.376 7.712C11.5653 7.75161 11.7595 7.7624 11.952 7.744C12.08 7.696 12.272 7.456 12.368 7.424C12.464 7.392 12.496 7.824 12.576 8.224C12.645 8.71457 12.8317 9.18116 13.12 9.584C13.472 10.032 13.76 10.176 14.096 10.16C14.432 10.144 14.688 9.76 14.72 9.68C14.752 9.6 14.624 9.68 14.496 9.728C14.2959 9.81973 14.0725 9.84766 13.856 9.808C13.7753 9.79011 13.7018 9.7486 13.6448 9.68876C13.5878 9.62892 13.5499 9.55346 13.536 9.472C13.568 9.424 13.696 9.472 13.824 9.504C14.0402 9.55194 14.2663 9.52368 14.464 9.424C14.5938 9.34547 14.7015 9.23528 14.777 9.10375C14.8526 8.97222 14.8935 8.82367 14.896 8.672C14.9003 8.54385 14.8659 8.41738 14.7975 8.30897C14.729 8.20056 14.6295 8.11522 14.512 8.064C14.32 7.984 14.288 8.096 14.32 8.128C14.352 8.16 14.544 8.256 14.576 8.416C14.6179 8.64299 14.5721 8.87741 14.448 9.072C14.304 9.232 13.888 9.296 13.584 9.136C13.28 8.976 13.072 8.432 13.008 8.096C12.9203 7.73611 12.7801 7.39108 12.592 7.072C12.464 6.88 12.176 6.72 12.192 6.672C12.208 6.624 12.304 6.624 12.496 6.656C12.5664 6.67414 12.6285 6.71572 12.6722 6.77388C12.7158 6.83204 12.7383 6.90333 12.736 6.976C12.736 7.056 12.784 7.04 12.864 7.008C12.9195 6.97666 12.9644 6.92946 12.9929 6.87245C13.0214 6.81544 13.0322 6.75121 13.024 6.688C13.024 6.60145 13.0521 6.51724 13.104 6.448C13.152 6.384 13.104 6.24 13.104 6.192C13.158 6.11574 13.2061 6.03551 13.248 5.952C13.264 5.872 13.12 5.728 13.136 5.712C13.1988 5.69507 13.2631 5.68435 13.328 5.68C13.392 5.68 13.312 5.472 13.2 5.328C13.1027 5.16956 12.9479 5.05489 12.768 5.008C12.56 4.976 12.544 5.136 12.384 5.152C12.1956 5.15298 12.0133 5.08465 11.872 4.96C11.7119 4.81026 11.4991 4.72976 11.28 4.736C11.1737 4.7363 11.0686 4.71357 10.9719 4.66938C10.8753 4.62518 10.7893 4.56058 10.72 4.48C10.544 4.32 10.368 4.192 10.384 4.064C10.4 3.936 10.64 3.904 10.784 3.904C10.928 3.904 10.912 3.76 10.8 3.552C10.652 3.30172 10.4277 3.10545 10.16 2.992C9.936 2.896 9.712 2.992 9.6 2.944C9.488 2.896 9.488 2.688 9.376 2.544C9.264 2.4 8.864 2.416 8.464 2.416C8.064 2.416 7.872 2.416 7.776 2.336C7.68 2.256 7.776 2.176 7.824 2.08C7.872 1.984 7.824 1.984 7.728 2.016C7.59667 2.07285 7.48527 2.16755 7.408 2.288C7.39438 2.32459 7.37304 2.35782 7.34543 2.38543C7.31782 2.41304 7.28459 2.43438 7.248 2.448C7.184 2.448 7.216 2.368 7.136 2.288C7.056 2.208 6.944 2.24 6.768 2.208C6.592 2.176 6.208 2.08 6.16 1.76C6.15333 1.68253 6.16288 1.60451 6.18802 1.53093C6.21316 1.45735 6.25335 1.38981 6.30603 1.33261C6.35871 1.27541 6.42273 1.22982 6.494 1.19872C6.56527 1.16763 6.64224 1.15171 6.72 1.152C7.056 1.136 7.2 1.472 7.248 1.472C7.312 1.472 7.28 1.248 7.2 1.056C7.47083 1.02414 7.7433 1.00811 8.016 1.008H8ZM3.2 13.056C2.42364 12.3198 1.82702 11.4149 1.45629 10.4112C1.08557 9.40757 0.950669 8.3321 1.06203 7.26798C1.17339 6.20386 1.52803 5.17962 2.09851 4.27447C2.669 3.36932 3.44004 2.60753 4.352 2.048C4.36423 2.13536 4.38568 2.22117 4.416 2.304C4.48 2.48 4.768 2.544 4.96 2.624C5.09485 2.66394 5.2356 2.68018 5.376 2.672C5.36446 2.69283 5.34842 2.71082 5.32904 2.72466C5.30967 2.7385 5.28745 2.74784 5.264 2.752C4.95282 2.81201 4.6369 2.84414 4.32 2.848C3.856 2.88 3.44 3.216 3.152 3.568C2.864 3.92 2.672 4.304 2.528 4.352C2.384 4.4 2.304 4.08 2.256 4.096C2.208 4.112 2.144 4.256 2.16 4.448C2.176 4.64 2.416 4.72 2.448 4.8C2.48 4.88 2.32 5.024 2.176 5.168C2.032 5.312 1.792 5.696 1.824 6.832C1.856 7.968 1.712 8.432 1.584 8.656C1.456 8.88 1.312 8.816 1.216 8.848C1.12 8.88 1.2 8.992 1.312 9.088C1.40368 9.14638 1.50649 9.18506 1.61391 9.20159C1.72133 9.21811 1.83102 9.21213 1.936 9.184C2.16 9.136 2.288 8.8 2.336 8.816C2.384 8.832 2.4 9.04 2.56 9.408C2.73591 9.75639 2.95061 10.0838 3.2 10.384C3.36 10.592 3.328 10.592 3.28 10.688C3.232 10.784 3.232 10.944 3.248 11.2C3.264 11.456 3.36 11.792 3.216 11.92C3.072 12.048 2.72 11.888 2.64 11.904C2.56 11.92 2.56 11.968 2.704 12.128C2.78151 12.2191 2.88094 12.2889 2.99292 12.3309C3.10489 12.3729 3.22572 12.3856 3.344 12.368C3.648 12.32 3.776 11.952 3.792 11.776C3.808 11.6 3.888 11.28 4.112 11.312C4.336 11.344 4.432 11.696 4.432 11.92C4.432 12.144 4.544 12.24 4.592 12.4C4.64 12.56 4.432 12.56 4.432 12.672C4.432 12.784 4.608 12.736 4.72 12.624C4.832 12.512 4.88 12.256 4.912 12.128C4.944 12 5.056 12.032 5.184 12.112C5.312 12.192 5.584 12.192 5.92 12.256C6.256 12.32 6.72 12.464 6.736 12.896C6.752 13.328 6.416 13.536 5.712 13.6C4.90305 13.647 4.09505 13.493 3.36 13.152L3.2 13.056ZM5.28 1.552L5.632 1.424C5.61999 1.5985 5.64733 1.77348 5.712 1.936C5.824 2.208 6.256 2.336 6.256 2.4C6.256 2.464 6.112 2.464 5.984 2.416C5.77551 2.35195 5.56109 2.30907 5.344 2.288C5.072 2.24 4.816 2.192 4.784 2.08C4.752 1.968 4.928 1.824 5.104 1.76C5.28 1.696 5.408 1.872 5.456 1.872C5.504 1.872 5.488 1.792 5.424 1.68C5.39214 1.62774 5.34826 1.58386 5.296 1.552H5.28ZM7.76 3.888C7.68 3.808 7.856 3.536 8.24 3.568C8.624 3.6 8.736 3.728 8.976 3.888C9.216 4.048 9.296 4.064 9.248 4.08C9.03178 4.0873 8.81577 4.0603 8.608 4C8.336 3.92 8.24 3.872 8.08 3.872C7.92 3.872 7.824 3.952 7.76 3.872V3.888ZM11.12 5.568C11.1105 5.53041 11.1109 5.49101 11.1213 5.45364C11.1316 5.41627 11.1514 5.38221 11.1788 5.3548C11.2062 5.32739 11.2403 5.30756 11.2776 5.29725C11.315 5.28695 11.3544 5.28651 11.392 5.296C11.568 5.328 11.696 5.392 11.68 5.456C11.664 5.52 11.52 5.504 11.424 5.568C11.328 5.632 11.168 5.728 11.104 5.568H11.12ZM7.968 5.36C7.952 5.296 8.4 4.8 8.88 4.88C9.36 4.96 9.888 5.408 10.32 5.792C10.752 6.176 11.04 6.352 11.248 6.416C11.456 6.48 11.536 6.448 11.552 6.48C11.5778 6.71931 11.5778 6.96069 11.552 7.2C11.504 7.216 10.944 7.168 10.352 6.768C9.76 6.368 9.072 5.824 8.672 5.664C8.272 5.504 7.984 5.424 7.968 5.344V5.36ZM11.856 6.88C11.952 6.752 12.336 6.96 12.224 7.136C12.112 7.312 11.744 7.024 11.856 6.88ZM8 0.32C9.51896 0.32 11.0038 0.770424 12.2668 1.61431C13.5297 2.4582 14.5141 3.65765 15.0954 5.06099C15.6767 6.46433 15.8288 8.00852 15.5324 9.49829C15.2361 10.9881 14.5046 12.3565 13.4306 13.4306C12.3565 14.5046 10.9881 15.2361 9.49829 15.5324C8.00852 15.8288 6.46433 15.6767 5.06099 15.0954C3.65765 14.5141 2.4582 13.5297 1.61431 12.2668C0.770424 11.0038 0.32 9.51896 0.32 8C0.32 5.96314 1.12914 4.0097 2.56942 2.56942C4.0097 1.12914 5.96314 0.32 8 0.32Z" fill="var(--fill-0, #1D4268)"/>
</g>
<defs>
<clipPath id="clip0_0_6">
<rect width="16" height="16" fill="white"/>
</clipPath>
</defs>
</svg>
