<svg preserveAspectRatio="xMidYMid meet" width="100%" height="100%" overflow="visible" style="display: block;" viewBox="0 0 16 16" fill="none" xmlns="http://www.w3.org/2000/svg">
<g id="Img" clip-path="url(#clip0_0_24)">
<path id="Vector" d="M2.1 16L2 15.71L1.06 15.35L1.02 14.61L6.08 11.83L9.2 9.04L9.7 9.29L11.65 9.49L10.56 9.69L8.69 11.87L8.42 11.74L7.25 13.3L7.41 13.46L8.89 12.4L13.29 9.62L13.09 8.55L10.64 7.61L12.9 5.53L15.27 6.92L15.89 6.51L16.01 5.81V4.1L15.66 3.82L15.27 3.86L15.23 4.43H15V4.72L15.62 5.09L15.15 5.62C14.47 4.91 13.07 3.46 12.97 3.32C13.28 3.29 13.41 2.66 13.44 2.34H13.71C13.7 2.24 13.65 1.93 13.56 1.57C13.76 1.12 13.6 0.63 13.36 0.38C13.13 0.13 12.46 -0.19 11.81 0.18C11.28 0.47 11.46 1.53 11.61 2.02C11.52 2.12 11.31 2.38 11.22 2.51C9.63 2.47 7.58 2.77 6.74 2.91L5.34 5.37L4.99 5.57L4.79 5.99V6.19L5.15 6.48V6.8L5.38 6.89L5.69 6.72L5.93 6.76L6.23 6.36L6.04 5.78L7.84 4.18L9.44 4.31L8.24 6.7L5.41 10.6L3.78 11.3L0.66 14.32L0 14.65L0.47 16H2.1Z" fill="var(--fill-0, #1D4268)"/>
</g>
<defs>
<clipPath id="clip0_0_24">
<rect width="16" height="16" fill="white"/>
</clipPath>
</defs>
</svg>
