<svg preserveAspectRatio="xMidYMid meet" width="100%" height="100%" overflow="visible" style="display: block;" viewBox="0 0 16 16" fill="none" xmlns="http://www.w3.org/2000/svg">
<g id="Img" clip-path="url(#clip0_0_4)">
<path id="Vector" d="M14.8174 2.43478L14.7478 3.30435L15.1652 2.57391L15.0609 3.44348C15.4783 3.51304 15.4783 3.7913 15.4783 3.7913C15.1652 3.61739 15.2348 3.89565 15.2348 3.89565C15.5478 4.17391 16.1391 5.98261 16.1391 5.98261C16.0696 6.67826 15.3391 6.67826 15.3391 6.67826C14.9217 6.6087 14.713 5.98261 14.5391 5.70435C14.087 5.04348 13.7739 5.42609 13.7043 5.63478C13.1826 6.64348 12.5217 7.02609 12.2783 7.51304C12.1391 7.75652 12.2435 8.27826 12.2087 8.55652C12.1739 9.35652 12.9043 9.77391 12.9043 9.77391C14.1217 10.4696 14.2957 12.6609 14.2957 12.6609C14.5739 13.4957 14.1913 13.4957 14.1913 13.4957L13.6348 13.0087C13.3565 12.6261 13.8087 12.5217 13.8087 12.5217L13.6696 12.3478C13.3217 10.1913 12.4522 10.2957 12 10.1565C11.3739 9.98261 11.3043 10.2261 11.3043 10.2261C11.1652 11.3043 10.4348 11.8957 10.4348 11.8957C9.66957 13.0087 9.18261 12.9391 9.18261 12.9391L8.73044 13.0783C7.7913 13.5652 8.10435 12.9739 8.10435 12.9739L8.45217 12.5217C8.8 12.2435 8.86957 12.5565 8.86957 12.5565C9.49565 12.487 10.087 11.6522 10.087 11.6522C10.7826 10.5391 10.3304 9.56522 10.3304 9.56522C7.68696 10.087 6.50435 9.21739 6.50435 9.21739C5.8087 8.76522 5.49565 10.0174 5.49565 10.0174C5.14783 10.7478 5.25217 11.1652 5.25217 11.1652L6.64348 12.2783C7.33913 12.7652 7.13043 13.4609 7.13043 13.4609L6.46957 13.1826C6.12174 13.0783 6.43478 12.7304 6.43478 12.7304L4.93913 11.687C4 11.3391 4.45217 10.6435 4.45217 10.6435C4.90435 9.63478 4.45217 9.73913 4.45217 9.73913C4.2087 9.98261 3.58261 10.2609 3.26957 10.3652C2.08696 10.713 2.08696 11.9652 2.08696 11.9652C1.91304 13.0783 1.28696 13.287 1.28696 13.287C0.8 13.8435 0.765217 13.3565 0.765217 13.3565L0.869565 12.7304C0.973913 12.2783 1.32174 12.487 1.32174 12.487C1.66957 12.1391 1.8087 10.9565 1.84348 10.4348C1.91304 9.94783 2.12174 9.87826 2.29565 9.8087C2.57391 9.70435 3.33913 9.21739 3.33913 9.21739C2.46957 7.72174 3.16522 6.6087 3.16522 6.6087C2.46957 6.6087 2.33043 7.51304 2.05217 7.7913C0.904348 8.93913 -0.0347828 9.35652 -0.0347828 9.35652C0.521739 5.63478 3.72174 6.15652 3.72174 6.15652C4.2087 5.70435 5.11304 5.63478 5.6 5.66957C9.42609 5.84348 11.1652 4.62609 11.1652 4.62609C12.9043 2.6087 14.2957 3.09565 14.2957 3.09565L14.8174 2.43478Z" fill="var(--fill-0, #1D4268)"/>
</g>
<defs>
<clipPath id="clip0_0_4">
<rect width="16" height="16" fill="white"/>
</clipPath>
</defs>
</svg>
