<svg preserveAspectRatio="xMidYMid meet" width="100%" height="100%" overflow="visible" style="display: block;" viewBox="0 0 16 16" fill="none" xmlns="http://www.w3.org/2000/svg">
<g id="Img" clip-path="url(#clip0_0_15)">
<path id="Vector" d="M7.45 15.85L7.2 15.65C5.6 14.65 4.3 13.35 3.4 11.8L3.35 11.75V11.7L4.2 10.5L5.5 8.9L5.6 8.7C5.85 7.85 6.1 7.05 6.55 6.35C6.75 6 7 5.7 7.3 5.5C7.43744 5.4054 7.59636 5.3467 7.76229 5.32923C7.92822 5.31176 8.09588 5.33609 8.25 5.4L8.35 5.45L8.5 4.7C8.62878 4.23278 8.92282 3.82822 9.32748 3.56152C9.73213 3.29481 10.2199 3.18411 10.7 3.25C11.35 3.35 11.9 3.55 12.4 3.9C13.4647 4.60208 14.3679 5.52241 15.05 6.6C15.4764 7.21272 15.6713 7.95694 15.6 8.7C15.6 9.2 15.4 9.7 15.1 10.1C14.6 10.85 14.1 11.55 13.4 12.1C12.9298 12.4889 12.3854 12.7781 11.8 12.95L10.35 13.45L10.15 13.55L7.5 15.7L7.45 15.8H7.4L7.45 15.85ZM6.8 13L7.3 13.1C7.35 13.1 7.45 13.1 7.5 13.2C7.55063 13.2828 7.62667 13.347 7.71678 13.383C7.80689 13.4191 7.90624 13.425 8 13.4C8.09689 13.3825 8.18645 13.3367 8.25744 13.2685C8.32843 13.2003 8.3777 13.1126 8.39906 13.0165C8.42042 12.9203 8.41292 12.8201 8.37751 12.7282C8.3421 12.6363 8.28035 12.5569 8.2 12.5L8.1 12.45L7.95 11.85H8.2L8.7 12.1C8.73852 12.1473 8.78624 12.1862 8.84027 12.2144C8.89429 12.2427 8.9535 12.2597 9.01428 12.2643C9.07507 12.269 9.13617 12.2613 9.19388 12.2416C9.25159 12.222 9.30471 12.1908 9.35 12.15C9.44245 12.0721 9.50352 11.9633 9.5219 11.8438C9.54029 11.7242 9.51474 11.6021 9.45 11.5C9.37911 11.3994 9.2736 11.3284 9.15367 11.3008C9.03374 11.2731 8.90781 11.2906 8.8 11.35C8.73692 11.3775 8.66883 11.3917 8.6 11.3917C8.53117 11.3917 8.46308 11.3775 8.4 11.35L7.95 11.3C7.9303 11.3 7.9108 11.2961 7.8926 11.2886C7.8744 11.281 7.85786 11.27 7.84393 11.2561C7.83001 11.2421 7.81896 11.2256 7.81142 11.2074C7.80388 11.1892 7.8 11.1697 7.8 11.15C7.7768 10.9319 7.74343 10.715 7.7 10.5L7.75 10.3L7.85 10.1C7.85 9.96739 7.79732 9.84022 7.70355 9.74645C7.60978 9.65268 7.48261 9.6 7.35 9.6C7.27238 9.6 7.19582 9.61807 7.12639 9.65279C7.05697 9.6875 6.99657 9.7379 6.95 9.8C6.86475 9.89987 6.82221 10.0293 6.83156 10.1602C6.84092 10.2912 6.90142 10.4133 7 10.5C7.25 10.7 7.15 10.95 7.25 11.2L6.75 11.1C6.69213 11.0803 6.64041 11.0459 6.6 11C6.54443 10.9224 6.46782 10.8624 6.37923 10.8269C6.29063 10.7915 6.19374 10.7822 6.1 10.8C6.00717 10.8148 5.92039 10.8555 5.84964 10.9174C5.77889 10.9794 5.72703 11.06 5.7 11.15C5.68215 11.2437 5.6915 11.3406 5.72694 11.4292C5.76237 11.5178 5.82243 11.5944 5.9 11.65L6 11.75L6.1 12.35L5.6 12.25C5.54093 12.2328 5.48856 12.1979 5.45 12.15C5.37043 12.0373 5.24935 11.9608 5.11339 11.9373C4.97742 11.9139 4.83772 11.9454 4.725 12.025C4.61228 12.1046 4.53579 12.2256 4.51235 12.3616C4.48891 12.4976 4.52043 12.6373 4.6 12.75C4.6394 12.8025 4.68875 12.8468 4.74525 12.8802C4.80175 12.9137 4.86429 12.9357 4.92929 12.945C4.99429 12.9543 5.06048 12.9507 5.12409 12.9344C5.1877 12.9181 5.24747 12.8894 5.3 12.85C5.3647 12.8271 5.4353 12.8271 5.5 12.85C5.7 12.85 5.9 12.85 6.1 12.95C6.15 12.95 6.2 12.95 6.2 13.05C6.25943 13.2644 6.30947 13.4813 6.35 13.7L6.3 13.85C6.24067 13.9291 6.20612 14.024 6.20074 14.1228C6.19536 14.2215 6.21938 14.3197 6.26976 14.4047C6.32015 14.4898 6.39463 14.5581 6.4838 14.6008C6.57297 14.6436 6.67281 14.659 6.77071 14.645C6.86861 14.631 6.96016 14.5883 7.03379 14.5223C7.10742 14.4563 7.15981 14.3699 7.18436 14.2741C7.2089 14.1783 7.20448 14.0774 7.17167 13.9841C7.13885 13.8908 7.07911 13.8093 7 13.75L6.9 13.65L6.8 13.05V13ZM3.15 11.1L2.7 11.6L3.2 12.45L2.35 12.1H2.4L0.55 11.15C0.528525 11.1321 0.512465 11.1086 0.503631 11.0821C0.494797 11.0556 0.49354 11.0272 0.5 11L1.2 7.7C1.24294 7.43506 1.24294 7.16494 1.2 6.9L0.95 5.35C0.878802 4.81218 0.93008 4.26522 1.1 3.75C1.4 3 1.7 2.15 2.25 1.5C2.51319 1.0997 2.86841 0.768244 3.28596 0.533374C3.70351 0.298503 4.17123 0.167046 4.65 0.15C5.45 0.15 6.25 0.3 7.05 0.55C7.76943 0.7653 8.4461 1.10364 9.05 1.55C9.45 1.9 9.8 2.3 10.05 2.8C9.52651 2.89928 9.04727 3.16003 8.67959 3.54565C8.31191 3.93127 8.07425 4.42238 8 4.95H7.85C7.7 4.95 7.6 4.95 7.5 4.85C6.5 4.35 5.65 3.85 4.85 3.3H4.9L4.75 3.25C5 3.6 5.2 3.95 5.1 4.4C5 4.85 4.7 5.05 4.35 5.3C4.66023 5.20972 4.98977 5.20972 5.3 5.3C5.65 5.4 6 5.65 6.15 6C6.16946 6.04811 6.16946 6.10189 6.15 6.15C5.85 6.75 5.55 7.45 5.35 8.15L5.3 8.25C5.25 8.45 5.1 8.65 4.85 8.65L4.4 8.8L4.3 8.75L3.85 8.25V8V7.9C3.84809 7.80585 3.81964 7.71415 3.7679 7.63546C3.71617 7.55676 3.64327 7.49428 3.55759 7.4552C3.4719 7.41613 3.37693 7.40204 3.28359 7.41457C3.19026 7.42709 3.10236 7.46572 3.03001 7.52601C2.95766 7.5863 2.90382 7.66579 2.87466 7.75534C2.84551 7.84489 2.84224 7.94085 2.86523 8.03217C2.88821 8.12349 2.93652 8.20647 3.0046 8.27154C3.07267 8.33662 3.15773 8.38115 3.25 8.4C3.35 8.4 3.4 8.4 3.45 8.5L3.75 8.9C3.55 8.9 3.35 9 3.2 9.05L3.05 9C2.98662 8.95246 2.91285 8.92067 2.83477 8.90724C2.75669 8.89381 2.67654 8.89912 2.60092 8.92274C2.52529 8.94637 2.45637 8.98762 2.39982 9.04311C2.34327 9.0986 2.30071 9.16673 2.27566 9.24189C2.2506 9.31705 2.24377 9.39709 2.25572 9.47541C2.26767 9.55372 2.29805 9.62808 2.34438 9.69236C2.3907 9.75663 2.45164 9.80897 2.52216 9.84507C2.59268 9.88117 2.67077 9.9 2.75 9.9L2.9 9.95L3.25 10.45L2.65 10.6H2.55C2.43065 10.5271 2.28722 10.5045 2.15126 10.5373C2.01529 10.5702 1.89793 10.6557 1.825 10.775C1.75207 10.8943 1.72953 11.0378 1.76235 11.1737C1.79517 11.3097 1.88065 11.4271 2 11.5L2.25 11.55C2.45 11.55 2.6 11.45 2.7 11.3C2.8 11.15 2.95 11.2 3.1 11.15L3.15 11.1ZM4.3 9.6L3.8 10.25L3.3 9.6L4.05 9.35L4.2 9.45L4.3 9.6ZM6.55 11.6L7.3 11.7L7.4 11.8L7.55 12.55C7.25 12.55 7 12.45 6.75 12.4L6.7 12.35L6.55 11.55V11.6Z" fill="var(--fill-0, #1D4268)"/>
</g>
<defs>
<clipPath id="clip0_0_15">
<rect width="16" height="16" fill="white"/>
</clipPath>
</defs>
</svg>
