<svg width="32" height="32" viewBox="0 0 32 32" fill="none" xmlns="http://www.w3.org/2000/svg">
<g clip-path="url(#clip0_250_5)">
<path d="M32 28C32 29.0609 31.5786 30.0783 30.8284 30.8284C30.0783 31.5786 29.0609 32 28 32C26.9392 32 25.9217 31.5786 25.1716 30.8284C24.4214 30.0783 24 29.0609 24 28C24 26.9391 24.4214 25.9217 25.1716 25.1716C25.9217 24.4214 26.9392 24 28 24C29.0609 24 30.0783 24.4214 30.8284 25.1716C31.5786 25.9217 32 26.9391 32 28ZM3.90002 25.3L0.300017 29C0.11679 29.1869 0.0141602 29.4382 0.0141602 29.7C0.0141602 29.9617 0.11679 30.2131 0.300017 30.4L1.70002 31.8C2.10002 32.2 2.70002 32.2 3.10002 31.8L6.70002 28.2L4.00002 25.3H3.90002ZM31.4 4.8L27.2 0.599996C27.0132 0.403321 26.7883 0.246713 26.539 0.139696C26.2897 0.03268 26.0213 -0.0225067 25.75 -0.0225067C25.4787 -0.0225067 25.2103 0.03268 24.961 0.139696C24.7118 0.246713 24.4869 0.403321 24.3 0.599996L10.2 14.7C10.0033 14.8868 9.84673 15.1117 9.73972 15.361C9.6327 15.6103 9.57751 15.8787 9.57751 16.15C9.57751 16.4213 9.6327 16.6897 9.73972 16.939C9.84673 17.1883 10.0033 17.4132 10.2 17.6L10.9 18.3L5.30002 23.9L8.10002 26.7L13.7 21.1L14.4 21.8C15.2 22.6 16.5 22.6 17.3 21.8L31.4 7.7C32.2 6.9 32.2 5.6 31.4 4.8Z" fill="black"/>
</g>
<defs>
<clipPath id="clip0_250_5">
<rect width="32" height="32" fill="white"/>
</clipPath>
</defs>
</svg>
