<svg xmlns="http://www.w3.org/2000/svg" viewBox="0 0 24 24" fill="#88af2a" aria-hidden="true">
  <path d="M20.5 12a8.5 8.5 0 0 0-2.5-6 .9.9 0 0 0-1.3 1.3 6.7 6.7 0 0 1 0 9.4.9.9 0 1 0 1.3 1.3 8.5 8.5 0 0 0 2.5-6zm-4.5 0a4 4 0 0 0-1.2-2.9.9.9 0 1 0-1.3 1.3 2.2 2.2 0 0 1 0 3.2.9.9 0 1 0 1.3 1.3A4 4 0 0 0 16 12zM7.5 7.5A.9.9 0 0 0 6.2 6.2 8.5 8.5 0 0 0 3.5 12a8.5 8.5 0 0 0 2.5 6 .9.9 0 0 0 1.3-1.3 6.7 6.7 0 0 1 0-9.4zm2.7 2.7a.9.9 0 0 0-1.3-1.3 4 4 0 0 0 0 5.8.9.9 0 1 0 1.3-1.3 2.2 2.2 0 0 1 0-3.2zM13 12a1.2 1.2 0 1 1-2.4 0A1.2 1.2 0 0 1 13 12z"/>
</svg>
