<svg viewBox="0 0 16 17" xmlns="http://www.w3.org/2000/svg" aria-hidden="true"><path fill="currentColor" d="M15.2 11a7.6 7.6 0 0 1-8.5 5A7.6 7.6 0 0 1 1 11C.6 10.2.4 9.3.4 8.5c0-1 .2-1.9.6-2.7A7.6 7.6 0 0 1 9.3.9 7.6 7.6 0 0 1 15 5.7c.4.8.6 1.7.6 2.7 0 .8-.2 1.7-.4 2.5Zm-8.5 4h2.6v-1.6a5 5 0 0 1-1.3.2c-.4 0-.9 0-1.3-.2V15ZM3 12.8l1.3-.8a5 5 0 0 1-1.2-2.2l-1.4.7c.3.8.8 1.6 1.3 2.2v.1Zm.1-8.6c-.5.6-1 1.3-1.3 2.1l1.3.7a5 5 0 0 1 1.3-2.2l-1.3-.6ZM9.3 2H6.7v1.6A5 5 0 0 1 8 3.4c.4 0 .9 0 1.3.2V2ZM8 4.5a4 4 0 1 0 0 8 4 4 0 0 0 0-8ZM13 4l-1.3 1a5 5 0 0 1 1.3 2l1.3-.8c-.3-.8-.7-1.5-1.3-2.2Zm0 5.8a5 5 0 0 1-1.2 2.2l1.3.7c.6-.6 1-1.4 1.3-2.2l-1.4-1v.3Z"/><path fill="currentColor" d="M11.1 8.5c0 1.7-1.4 3.2-3 3.2a3.1 3.1 0 0 1-3.2-3.2C5 6.7 6.3 5.3 8 5.3c1.7 0 3.1 1.4 3.1 3.2Z"/></svg>
