<svg viewBox="0 0 16 16" xmlns="http://www.w3.org/2000/svg" aria-hidden="true"><path fill="currentColor" clip-rule="evenodd" d="M13 0H3v1H1.75C.78 1 0 1.65 0 2.44v1.04c0 .82.4 1.6 1.1 2.18L3 7.23a5 5 0 0 0 3.72 4.6L6 14H4a1 1 0 0 0-1 1v1h10v-1a1 1 0 0 0-1-1h-2l-.72-2.16A5 5 0 0 0 13 7.1l2-1.7c.64-.56 1-1.3 1-2.07v-.98C16 1.61 15.29 1 14.4 1h-1.38v1.17h1.39c.12 0 .23.08.23.2v.97c0 .46-.22.9-.6 1.24L13 5.46V0ZM1.75 2.24H3v3.24l-.84-.7a1.7 1.7 0 0 1-.66-1.3V2.44c0-.11.11-.2.25-.2Zm6.44 1.35a.2.2 0 0 0-.38 0l-.44 1.34a.2.2 0 0 1-.19.14H5.76a.2.2 0 0 0-.12.36l1.15.84c.07.05.1.14.08.22l-.44 1.35a.2.2 0 0 0 .3.23l1.15-.84a.2.2 0 0 1 .24 0l1.15.84a.2.2 0 0 0 .3-.23L9.13 6.5a.2.2 0 0 1 .08-.22l1.15-.84a.2.2 0 0 0-.12-.36H8.82a.2.2 0 0 1-.2-.14L8.2 3.6Z" fill-rule="evenodd"/></svg>
