<svg xmlns="http://www.w3.org/2000/svg" viewBox="0 0 24 24" fill="currentColor" aria-hidden="true">
  <path d="M11.2 9.1c.4-1.6 1.5-3 2.9-3.8.3-.2.7 0 .7.4v.2c0 1.3-.7 2.5-1.8 3.2-.4.3-.7.8-.7 1.3v.2c0 .3-.3.5-.6.4-1.2-.4-2-1.1-2.2-1.7-.1-.3 0-.6.3-.7.5-.2 1-.1 1.4.5z"/>
  <path d="M14.6 9.1c-.4-1.6-1.5-3-2.9-3.8-.3-.2-.7 0-.7.4v.2c0 1.3.7 2.5 1.8 3.2.4.3.7.8.7 1.3v.2c0 .3.3.5.6.4 1.2-.4 2-1.1 2.2-1.7.1-.3 0-.6-.3-.7-.5-.2-1-.1-1.4.5z"/>
  <circle cx="8.2" cy="16.2" r="4.2"/>
  <circle cx="15.8" cy="16.2" r="4.2"/>
</svg>
