<svg width="14" height="14" viewBox="0 0 14 14" fill="none" xmlns="http://www.w3.org/2000/svg">
<rect width="14" height="14" fill="#1E1E1E"/>
<g id="Background">
<rect width="1905" height="507" transform="translate(-1580.83 -74)" fill="#1D4268"/>
<g id="Footer">
<g id="Nav">
<rect x="-1572.83" y="-58" width="1889" height="194" rx="8" fill="#205583"/>
<g id="Container">
<g id="List">
<g id="Item &#226;&#134;&#146; Link">
<g id="Container_2">
<g id="Img" clip-path="url(#clip0_3_15489)">
<path id="Vector" d="M10.22 8.97747C10.1037 8.9775 9.99039 8.94075 9.89625 8.87247C9.80051 8.80155 9.72753 8.70424 9.68625 8.59247C9.64116 8.47712 9.62875 8.35158 9.65036 8.22963C9.67197 8.10769 9.72677 7.99405 9.80875 7.90122C9.89625 7.81372 9.9925 7.76122 10.1062 7.72622C10.2217 7.7034 10.3415 7.71875 10.4475 7.76997C10.5525 7.81372 10.64 7.90122 10.71 7.99747C10.783 8.11985 10.8147 8.26244 10.8005 8.40421C10.7864 8.54599 10.727 8.67947 10.6312 8.78497C10.5799 8.844 10.5168 8.89162 10.446 8.92477C10.3752 8.95793 10.2982 8.97588 10.22 8.97747ZM3.78 8.97747C3.66371 8.9775 3.55039 8.94075 3.45625 8.87247C3.35727 8.8028 3.28115 8.70537 3.2375 8.59247C3.19356 8.47635 3.18256 8.35034 3.20572 8.22835C3.22889 8.10637 3.2853 7.99316 3.36875 7.90122C3.4475 7.81372 3.54375 7.76122 3.66625 7.72622C3.77892 7.70532 3.89532 7.72064 3.99875 7.76997C4.1125 7.81372 4.2 7.90122 4.26125 7.99747C4.33538 8.11895 4.36859 8.261 4.35599 8.40276C4.34339 8.54451 4.28564 8.67848 4.19125 8.78497C4.13994 8.844 4.07684 8.89162 4.00601 8.92477C3.93518 8.95793 3.85819 8.97588 3.78 8.97747ZM10.43 5.19747L11.5938 3.02747C11.6312 2.96751 11.6438 2.8953 11.6287 2.82622C11.6223 2.79524 11.6104 2.76562 11.5938 2.73872C11.5737 2.70697 11.5468 2.68007 11.515 2.65997C11.4721 2.63233 11.4212 2.61989 11.3705 2.62465C11.3197 2.62941 11.272 2.6511 11.235 2.68622C11.2088 2.71088 11.188 2.74067 11.1737 2.77372L9.9925 4.96122C9.05901 4.51152 8.03617 4.27798 7 4.27798C5.96383 4.27798 4.94099 4.51152 4.0075 4.96122L2.82625 2.77372C2.81205 2.74067 2.7912 2.71088 2.765 2.68622C2.72803 2.6511 2.68032 2.62941 2.62954 2.62465C2.57876 2.61989 2.52786 2.63233 2.485 2.65997C2.45414 2.67754 2.42731 2.70139 2.40625 2.72997C2.38577 2.75884 2.37133 2.79154 2.36381 2.82613C2.3563 2.86071 2.35585 2.89646 2.3625 2.93122L2.40625 3.02747L3.57 5.19747C2.54015 5.82244 1.67731 6.68795 1.05551 7.71971C0.433703 8.75148 0.0715086 9.9187 0 11.1212H14C13.9285 9.9187 13.5663 8.75148 12.9445 7.71971C12.3227 6.68795 11.4598 5.82244 10.43 5.19747Z" fill="white"/>
</g>
</g>
</g>
</g>
</g>
</g>
</g>
</g>
<defs>
<clipPath id="clip0_3_15489">
<rect width="14" height="14" fill="white"/>
</clipPath>
</defs>
</svg>
