<svg width="16" height="16" viewBox="0 0 16 16" fill="none" xmlns="http://www.w3.org/2000/svg">
<path d="M8 15.984C12.4183 15.984 16 12.4023 16 7.98401C16 3.56573 12.4183 -0.0159912 8 -0.0159912C3.58172 -0.0159912 0 3.56573 0 7.98401C0 12.4023 3.58172 15.984 8 15.984Z" fill="#2C5FF0"/>
<path fill-rule="evenodd" clip-rule="evenodd" d="M1.55201 7.6V7.488L1.58401 7.52C1.60001 7.6 1.66401 7.664 1.68001 7.776C1.82401 7.808 1.84001 7.84 1.93601 7.92C2.01601 7.904 2.12801 7.84 2.19201 7.92H2.14401C2.24001 8.096 2.54401 8.288 2.49601 8.56C2.60801 8.544 2.54401 8.624 2.64001 8.688L2.94401 8.752C3.21601 8.912 3.24801 9.2 3.40801 9.456L3.23201 9.68L3.31201 9.632L3.28001 9.712C3.36001 9.664 3.44001 9.648 3.53601 9.712H3.56801V9.776L3.50401 9.872L3.34401 9.888L3.36001 9.904C3.45601 9.888 3.42401 9.92 3.48801 9.936L3.61601 9.776C3.77601 9.792 4.03201 9.952 4.01601 10.048C4.06401 10.08 4.03201 10.112 4.01601 10.176C4.36801 9.936 4.70401 10.368 4.97601 10.528L5.21601 10.592L5.29601 10.848C5.34401 11.104 5.00801 11.36 4.89601 11.52L4.83201 11.472C4.83201 11.712 4.91201 12.384 4.68801 12.56C4.64001 12.608 4.62401 12.624 4.54401 12.64C4.43201 12.592 4.00001 12.688 4.00001 12.848L4.06401 13.152C3.98401 13.2 4.00001 13.248 3.96801 13.344C3.95201 13.264 3.93601 13.28 3.87201 13.248C3.90401 13.392 3.88801 13.536 3.80801 13.664C3.64801 13.648 3.52001 13.568 3.40801 13.504L3.71201 13.824V13.92C3.60001 13.936 3.48801 13.92 3.39201 13.872L3.52001 14.064H3.45601L3.32801 14V14.016C3.56801 14.256 3.68001 14.576 3.96801 14.784C4.00001 14.8 4.03201 14.816 3.98401 14.832C4.08001 14.88 4.32001 14.928 4.40001 15.04C3.96801 14.88 3.50401 14.64 3.16801 14.256C3.07201 14.144 3.02401 14 2.89601 13.888L2.92801 13.968C2.44801 13.552 2.16001 12.736 1.92001 12.096L1.74401 11.488L1.29601 11.008C1.08801 10.704 0.736008 9.76 0.688008 9.44C0.672008 9.328 0.736008 9.312 0.752008 9.264C0.784008 9.152 0.656008 9.024 0.704008 8.848C0.752008 8.672 0.896008 8.576 0.928008 8.432C0.976008 8.224 0.960008 7.696 0.832008 7.632C0.784008 7.728 0.784008 7.696 0.784008 7.824H0.736008C0.720008 7.664 0.640008 7.44 0.576008 7.296L0.560008 7.312V6.768L0.432008 6.576L0.416008 6.144L0.368008 6.176C0.240008 5.328 0.736008 4.528 1.05601 4C2.00001 2.416 3.55201 0.863997 5.53601 0.351997L5.52001 0.399997L5.10401 0.623997V0.639997C5.28001 0.591997 5.45601 0.447997 5.58401 0.399997C5.80801 0.303997 5.95201 0.383997 6.11201 0.287997L5.84001 0.303997L5.85601 0.271997C6.57601 0.111997 7.31201 -0.0160035 8.28801 -0.0160035C8.60801 -0.0160035 9.13601 -0.0480035 9.29601 0.111997V0.127997H9.08801L9.10401 0.159997C9.24801 0.191997 9.31201 0.175997 9.44001 0.175997L9.42401 0.223997L9.08801 0.191997L9.26401 0.335997V0.351997L8.97601 0.335997L8.96001 0.463997C8.78401 0.479997 8.54401 0.559997 8.36801 0.591997C8.11201 0.639997 7.93601 0.431997 7.76001 0.495997L7.87201 0.543997L7.84001 0.623997C7.80801 0.591997 7.82401 0.591997 7.76001 0.575997V0.671997H7.77601C7.87201 0.623997 7.93601 0.607997 8.04801 0.607997V0.623997L7.87201 0.671997C7.85601 0.719997 7.87201 0.735997 7.82401 0.799997L7.88801 0.895997C7.74401 0.927997 7.90401 0.959997 7.84001 1.072C7.79201 1.152 7.68001 1.184 7.64801 1.28C7.68001 1.312 7.66401 1.296 7.68001 1.36H7.58401C7.56801 1.28 7.60001 1.328 7.52001 1.296L7.50401 1.344L7.58401 1.424C7.21601 1.472 7.10401 1.616 6.80001 1.712L6.52801 1.76C6.44801 1.808 6.16001 2.192 6.12801 2.16C6.03201 2.192 5.93601 2.112 5.87201 2.016C5.79201 1.856 5.98401 1.488 6.09601 1.408C6.19201 1.344 6.27201 1.376 6.33601 1.296L6.32001 1.28C6.25601 1.296 6.22401 1.312 6.19201 1.28C6.25601 1.216 6.36801 1.216 6.40001 1.168L6.33601 1.136C6.41601 1.04 6.52801 0.943997 6.54401 0.847997L6.56001 0.799997L6.43201 0.751997L6.51201 0.655997C6.56001 0.655997 6.56001 0.655997 6.59201 0.607997L5.79201 0.703997V0.719997C5.85601 0.719997 5.82401 0.703997 5.87201 0.735997L5.77601 0.751997V0.767997L5.95201 0.783997C5.92001 0.879997 5.90401 0.847997 5.88801 0.975997L5.96801 0.959997C5.98401 0.991997 6.11201 0.991997 6.17601 1.008L6.16001 1.072C5.87201 1.376 5.58401 1.616 5.15201 1.696L5.10401 1.584H5.08801L5.04001 1.776L4.99201 1.744L4.97601 1.712C4.97601 1.584 4.99201 1.568 5.04001 1.424L4.89601 1.408L4.92801 1.36L4.97601 1.328C4.89601 1.312 4.91201 1.296 4.86401 1.248L4.83201 1.264C4.80001 1.36 4.78401 1.328 4.76801 1.408H4.70401L4.72001 1.328L4.57601 1.36C4.60801 1.328 4.60801 1.36 4.59201 1.312L4.84801 1.2V1.184C4.60801 1.248 4.28801 1.296 4.06401 1.424L3.74401 1.696C3.76001 1.776 3.71201 2.096 3.69601 2.128C3.56801 2.192 3.45601 2.336 3.42401 2.496H3.44001C3.48801 2.48 3.47201 2.448 3.48801 2.496L4.68801 1.536C4.75201 1.6 4.72001 1.6 4.81601 1.6C4.76801 1.696 4.76801 1.712 4.78401 1.808L4.56001 1.984L4.64001 1.968C4.64001 2.048 4.60801 2.016 4.68801 2.048L4.94401 1.92V1.936C4.86401 2.112 4.83201 2.192 4.72001 2.32L4.75201 2.448L4.84801 2.56C4.73601 2.56 4.64001 2.56 4.57601 2.64L4.81601 2.592L4.76801 2.672C4.83201 2.656 4.80001 2.64 4.84801 2.688C4.81601 2.736 4.78401 2.8 4.73601 2.832C4.28801 3.056 3.84001 2.704 3.44001 3.12C3.61601 3.072 3.74401 2.944 3.96801 2.976V3.056C3.87201 3.088 3.88801 3.088 3.77601 3.072C3.82401 3.152 3.84001 3.12 3.82401 3.184C3.74401 3.216 3.77601 3.296 3.77601 3.36L3.92001 3.44L3.88801 3.488C3.68001 3.488 3.63201 3.536 3.48801 3.6L3.53601 3.472L3.76001 3.424L3.69601 3.408L3.74401 3.344C3.50401 3.44 3.08801 3.408 3.05601 3.712C3.00801 3.696 2.86401 3.68 2.80001 3.728L2.86401 3.744C2.70401 3.744 2.70401 3.824 2.60801 3.888C2.59201 3.84 2.60801 3.84 2.57601 3.856C2.56001 3.952 2.52801 3.984 2.46401 4.032L2.57601 3.808L2.52801 3.824C2.49601 3.904 2.48001 3.936 2.41601 3.92C2.43201 4.08 2.32001 4.224 2.27201 4.304C2.22401 4.304 2.16001 4.368 2.06401 4.432C1.68001 4.416 1.52001 5.12 1.40801 5.44H1.36001C1.42401 5.184 1.50401 4.992 1.52001 4.72H1.50401L1.44001 4.752C1.45601 4.624 1.40801 4.592 1.37601 4.544C1.36001 4.576 1.31201 4.528 1.28001 4.528L1.26401 4.64H1.20001C1.21601 4.512 1.18401 4.544 1.13601 4.448H1.12001C1.07201 4.576 0.976008 4.56 0.912008 4.672C0.800008 4.864 0.384008 5.728 0.544008 5.936C0.608008 5.936 0.560008 5.936 0.624008 5.968L0.752008 5.68H0.864008L0.896008 5.728L0.592008 6.368C0.560008 6.496 0.800008 6.48 0.768008 6.624C0.864008 6.848 0.592008 7.216 0.720008 7.584L0.752008 7.6C0.864008 7.568 0.832008 7.552 0.928008 7.616L0.992008 7.856H1.00801C1.02401 7.744 1.12001 7.568 1.18401 7.504C1.31201 7.52 1.32801 7.472 1.47201 7.408L1.48801 7.456C1.40801 7.552 1.36001 7.712 1.37601 7.872H1.39201L1.44001 7.84C1.42401 7.728 1.40801 7.664 1.47201 7.616L1.55201 7.6ZM9.48801 0.143997C10.9767 0.443114 12.3518 1.15325 13.4575 2.19392C14.5632 3.23459 15.3553 4.56418 15.744 6.032H15.728L15.472 5.264H15.456L15.472 5.376L15.424 5.344C15.36 5.168 15.28 5.056 15.136 4.912C15.12 5.008 15.088 5.056 15.04 5.136L14.864 5.168C14.832 5.104 14.816 5.056 14.736 5.024L14.72 5.152H14.656C14.48 5.056 14.304 4.896 14.208 4.816L14.192 5.008C14.4 5.088 14.48 5.36 14.64 5.504L14.576 5.312L14.608 5.328C14.624 5.424 14.656 5.52 14.736 5.568L14.832 5.488V5.184C14.864 5.376 15.04 5.44 15.152 5.536C15.168 5.744 15.152 5.888 15.232 6.032C15.104 6.352 15.04 7.184 14.656 7.312C14.56 6.992 14.432 6.704 14.256 6.464L14.048 6.304L13.92 6C13.744 5.76 13.408 5.632 13.344 5.312H13.328L13.36 5.552H13.344L13.296 5.504C13.216 5.456 13.184 5.36 13.104 5.312C13.184 5.616 13.664 6 13.84 6.256L14 6.672C14.064 6.736 14.144 6.752 14.192 6.848L14.288 7.104C14.384 7.2 14.608 7.184 14.656 7.424L14.592 7.472C14.624 7.504 14.736 7.584 14.8 7.6L15.168 7.2C15.248 8.4 14.736 8.928 14.448 9.824C14.32 10.208 14.56 10.576 14.4 11.056C14.288 11.376 13.936 11.568 13.744 11.808C13.664 11.92 13.712 12.192 13.632 12.32L13.328 12.544C12.944 13.152 12.592 13.552 11.728 13.744L11.664 13.696C11.68 13.6 11.76 13.44 11.696 13.232L11.584 13.072C11.552 12.96 11.664 12.736 11.648 12.56L11.424 12.08C11.36 11.776 11.712 11.504 11.776 11.312C11.824 11.168 11.728 11.104 11.712 10.992L11.76 10.928C11.792 10.816 11.68 10.672 11.648 10.608L11.728 10.56C11.664 10.56 11.68 10.576 11.632 10.544C11.648 10.352 11.328 10.144 11.232 9.968C11.2706 9.90647 11.3134 9.84766 11.36 9.792C11.296 9.776 11.328 9.792 11.296 9.744C11.376 9.696 11.344 9.44 11.328 9.28C11.232 9.28 11.216 9.232 11.136 9.184C11.104 9.264 10.896 9.312 10.832 9.264L10.64 9.024C10.24 9.024 10.08 9.264 9.79201 9.312L9.61601 9.264C9.37601 9.216 9.16801 9.344 9.02401 9.408C8.51201 9.184 8.19201 8.8 7.93601 8.464L7.98401 8.368C7.82401 8.384 7.85601 8.384 7.76001 8.32C7.77601 8.256 7.76001 8.272 7.74401 8.176C7.80801 8.208 7.85601 8.208 7.92001 8.16H7.77601C7.74401 8.032 7.64801 8.016 7.74401 7.936C7.87201 7.616 7.88801 7.296 7.72801 7.072C7.77601 6.944 8.16001 6.24 8.24001 6.176C8.35201 6.096 8.48001 6.112 8.56001 6.016C8.68801 5.872 8.57601 5.712 8.67201 5.536C8.72001 5.44 8.88001 5.424 8.94401 5.344L9.05601 5.088C9.42401 5.408 10.016 4.704 10.496 4.864C10.576 4.848 10.608 4.784 10.688 4.8L10.752 4.848L10.816 4.8L10.768 4.928L10.864 5.008L10.8 5.2C10.88 5.248 10.944 5.296 11.072 5.328C11.184 5.36 11.28 5.264 11.408 5.344L11.472 5.456L11.904 5.552L11.968 5.504L11.888 5.312C11.952 5.232 11.952 5.2 12.064 5.152C12.304 5.232 12.576 5.2 12.784 5.296L12.864 5.168C13.024 5.152 13.056 5.2 13.184 5.12C13.2 4.832 13.104 4.576 12.992 4.368L12.88 4.432L12.784 4.544C12.72 4.496 12.688 4.48 12.576 4.48V4.496C12.592 4.544 12.576 4.544 12.56 4.592H12.544C12.384 4.528 12.32 4.496 12.16 4.384C12.192 4.368 12.176 4.384 12.176 4.352C12.144 4.24 12.128 4.256 12.048 4.224V4.16C12.176 4.096 12.208 4.096 12.272 4.032L12.144 4.016C12.016 4.096 11.92 4.096 11.792 4.128L11.808 4.208H11.792L11.712 4.176V4.192C11.792 4.352 11.872 4.368 11.984 4.496L11.696 4.448L11.424 4.224L11.376 4.064C11.168 3.888 10.944 3.904 10.768 3.728L10.752 3.792L10.704 3.776C10.688 3.712 10.736 3.712 10.64 3.696L10.56 3.76C10.64 3.856 10.768 4.032 10.912 4.112C11.056 4.192 11.248 4.176 11.376 4.32V4.336H11.36C11.312 4.304 11.296 4.288 11.216 4.272L11.2 4.336L11.216 4.4C11.28 4.416 11.264 4.416 11.296 4.448L11.248 4.608H11.216C11.216 4.512 11.232 4.448 11.152 4.368L10.288 3.904L10.112 4.096C10 4.064 9.90401 4.032 9.84001 4.096C9.77601 4.16 9.85601 4.24 9.82401 4.304C9.66401 4.368 9.61601 4.448 9.55201 4.592L9.61601 4.688C9.47201 4.88 9.28001 4.992 9.00801 5.056C8.89601 4.88 8.83201 4.976 8.67201 4.928C8.70401 4.8 8.64001 4.768 8.65601 4.72L8.59201 4.736C8.67201 4.544 8.67201 4.352 8.59201 4.192C8.75201 4.048 9.13601 4.144 9.34401 4.128V4.096C9.37601 4 9.36001 3.952 9.34401 3.872L9.39201 3.904C9.31201 3.712 9.18401 3.648 8.97601 3.584C8.96001 3.536 8.99201 3.568 8.94401 3.536L8.96001 3.504L9.23201 3.488L9.18401 3.392L9.20001 3.376L9.36001 3.408C9.36001 3.376 9.47201 3.216 9.47201 3.216L9.74401 3.008C9.71201 2.928 9.74401 2.96 9.68001 2.944C9.76001 2.88 9.76001 2.944 9.80801 2.864C9.88801 2.88 9.85601 2.88 9.88801 2.848C9.92001 2.816 9.90401 2.832 9.88801 2.8C9.85601 2.688 9.77601 2.592 9.72801 2.512C9.79201 2.48 9.79201 2.48 9.82401 2.432L9.85601 2.448C9.87201 2.544 9.88801 2.512 9.93601 2.56C9.90401 2.624 9.88801 2.64 9.90401 2.72C9.95201 2.752 10.016 2.768 10.048 2.816C10.08 2.8 10.176 2.784 10.208 2.72L10.336 2.816C10.368 2.736 10.448 2.672 10.528 2.64L10.656 2.688C10.672 2.592 10.624 2.656 10.72 2.592C10.656 2.496 10.608 2.464 10.576 2.32L10.592 2.304L10.752 2.368V2.32C10.688 2.224 10.56 2.208 10.592 2.112C10.72 2.096 10.752 2.08 10.848 2V1.984C10.704 1.984 10.512 2.08 10.464 2.064C10.336 2.048 10.24 1.952 10.16 1.824C10.192 1.728 10.192 1.632 10.176 1.584L10.08 1.552L9.98401 1.568L10 1.6C10.016 1.856 9.98401 1.984 10.256 2.144C10.192 2.288 10.256 2.304 10.288 2.528C10.176 2.544 10.208 2.576 10.16 2.64L10.08 2.576C10.032 2.432 9.80801 2.368 9.74401 2.208H9.72801C9.74401 2.288 9.72801 2.352 9.63201 2.4L9.45601 2.368L9.47201 2.288L9.40801 2.304L9.45601 2.176C9.37601 2.208 9.40801 2.208 9.34401 2.16L9.39201 2.112C9.32801 2.096 9.32801 2.128 9.31201 2.032C9.37601 2 9.39201 1.984 9.40801 1.952H9.44001C9.48801 1.904 9.52001 1.904 9.56801 1.84L9.53601 1.808L9.50401 1.872L9.48801 1.824C9.53601 1.728 9.58401 1.344 9.56801 1.296C9.64801 1.296 9.69601 1.264 9.68001 1.168L9.76001 1.232L9.74401 1.168C9.82401 1.2 9.79201 1.168 9.92001 1.152C9.92001 1.216 9.90401 1.216 10 1.2C10.144 1.216 10.576 1.168 10.64 1.376L10.624 1.392L10.288 1.376V1.392H10.32C10.464 1.472 10.624 1.568 10.816 1.584V1.568C10.752 1.504 10.64 1.536 10.736 1.504L10.816 1.456L10.704 1.392V1.312L10.784 1.328C10.736 1.264 10.624 1.2 10.528 1.168L10.544 1.136L10.592 1.152C10.672 1.184 10.672 1.264 10.8 1.232V1.216C10.704 1.152 10.736 1.104 10.72 1.04L10.8 1.056L10.768 0.943997L10.848 0.975997L10.688 0.863997L10.944 0.847997C10.752 0.799997 10.48 0.735997 10.352 0.607997C10.56 0.623997 11.184 0.927997 11.232 0.911997C11.152 0.895997 10.816 0.735997 10.976 0.751997C10.88 0.671997 10.688 0.735997 10.528 0.623997L10.592 0.591997C10.528 0.591997 10.48 0.575997 10.416 0.543997H10.496C10.256 0.367997 9.68001 0.303997 9.48801 0.143997ZM7.58401 0.463997L7.53601 0.479997V0.511997L7.69601 0.479997V0.463997H7.58401ZM9.79201 0.479997L10.496 0.895997H10.48C10.192 0.863997 9.95201 0.639997 9.79201 0.479997ZM7.69601 0.559997L7.71201 0.591997L7.72801 0.559997H7.69601ZM4.92801 0.607997L4.78401 0.671997V0.703997H4.84801C4.89601 0.655997 4.96001 0.655997 4.92801 0.607997ZM8.81601 0.607997C8.89601 0.607997 8.91201 0.607997 8.94401 0.639997V0.655997H8.84801C8.80001 0.623997 8.78401 0.655997 8.81601 0.607997ZM5.00801 0.655997C4.97601 0.719997 4.96001 0.735997 4.89601 0.767997V0.783997C5.00801 0.751997 5.00801 0.719997 5.05601 0.655997H5.00801ZM8.62401 0.671997L8.91201 0.687997C8.91201 0.751997 8.92801 0.767997 8.96001 0.831997C8.84801 0.799997 8.88001 0.783997 8.80001 0.783997L8.83201 0.719997C8.75201 0.735997 8.72001 0.751997 8.62401 0.671997ZM8.96001 0.719997C9.02401 0.719997 9.04001 0.719997 9.07201 0.767997L8.96001 0.719997ZM10.592 0.863997L10.672 0.879997V0.895997L10.592 0.863997ZM4.27201 0.959997L4.16001 1.04C4.24001 1.008 4.27201 0.991997 4.27201 0.959997ZM4.33601 0.975997L4.28801 0.991997V1.024C4.35201 1.008 4.32001 1.008 4.33601 0.975997ZM10.528 1.04C10.608 1.056 10.576 1.04 10.608 1.088L10.528 1.04ZM4.57601 1.424L4.60801 1.456L4.51201 1.472L4.57601 1.424ZM4.76801 1.456C4.76801 1.472 4.78401 1.472 4.75201 1.488L4.76801 1.456ZM7.92001 1.712L8.08001 1.824C7.95201 1.968 7.76001 1.952 7.55201 1.92C7.55201 1.856 7.55201 1.872 7.52001 1.824L7.60001 1.792V1.776H7.48801L7.52001 1.728C7.63201 1.728 7.61601 1.728 7.63201 1.792L7.92001 1.712ZM3.28001 1.84L3.04001 2.096C3.12001 2.032 3.26401 1.92 3.28001 1.84ZM10.56 2.208L10.544 2.256L10.528 2.224L10.56 2.208ZM3.55201 2.272C3.60001 2.288 3.56801 2.288 3.55201 2.32V2.272ZM10.352 2.336C10.4 2.368 10.384 2.352 10.4 2.416L10.352 2.384V2.336ZM8.81601 2.416H8.84801L8.78401 2.528L8.97601 2.512L8.89601 2.688C9.05601 2.688 9.24801 2.896 9.24801 3.008H9.39201V3.072L9.32801 3.168H9.40801L9.37601 3.216C9.13601 3.264 9.02401 3.28 8.84801 3.344C8.91201 3.264 9.00801 3.232 9.07201 3.152C8.9933 3.17232 8.91072 3.17232 8.83201 3.152V3.136L8.92801 3.072L8.86401 2.976L8.99201 2.96L8.91201 2.784L8.78401 2.816C8.81601 2.656 8.75201 2.752 8.73601 2.608L8.67201 2.656L8.70401 2.464L8.72001 2.432L8.81601 2.416ZM8.60801 2.448L8.62401 2.496H8.57601L8.60801 2.448ZM2.92801 2.528L2.62401 2.656L2.65601 2.72H2.73601L2.72001 2.832C2.78401 2.848 2.76801 2.848 2.80001 2.88L2.84801 2.848C2.89601 2.736 2.99201 2.656 2.92801 2.528ZM8.64001 2.528C8.64001 2.544 8.65601 2.544 8.62401 2.56L8.64001 2.528ZM10.032 2.576L10.08 2.608V2.688C10.016 2.656 10.032 2.672 10 2.608C10.048 2.592 10.032 2.624 10.032 2.576ZM12.752 2.592L12.8 2.624V2.64C12.72 2.64 12.752 2.624 12.704 2.656C12.752 2.736 12.736 2.72 12.752 2.8L12.672 2.784C12.72 2.848 12.736 2.832 12.72 2.88C12.672 2.848 12.656 2.832 12.56 2.832V2.848L12.592 2.88C12.656 2.864 12.736 2.928 12.8 2.976C12.752 2.992 12.784 2.976 12.8 3.024L12.736 3.008C12.928 3.312 13.408 3.392 13.536 3.696L13.424 3.664L13.44 3.728C13.536 3.76 13.76 4.112 13.936 4C13.984 3.968 13.984 3.968 14 3.904C13.888 3.84 13.92 3.728 13.824 3.616C13.776 3.552 13.696 3.584 13.648 3.536L13.696 3.44L13.52 3.312V3.392L13.488 3.376C13.44 3.216 13.312 3.28 13.2 3.152H13.344C13.324 3.07825 13.3079 3.00348 13.296 2.928C13.12 2.816 12.88 2.64 12.752 2.592ZM9.92001 2.64L9.98401 2.688L9.92001 2.672V2.64ZM12.752 2.656L12.8 2.672V2.688L12.752 2.656ZM10.08 2.688C10.112 2.72 10.064 2.752 10.032 2.72L10.08 2.688ZM13.328 2.704L13.504 3.008H13.584C13.568 2.88 13.456 2.736 13.328 2.704ZM8.59201 2.768L8.73601 2.816L8.75201 2.864C8.70401 2.944 8.73601 2.992 8.72001 3.104C8.59201 3.12 8.56001 3.184 8.43201 3.168L8.41601 3.136L8.49601 3.008L8.40001 2.96C8.44801 2.912 8.41601 2.96 8.41601 2.896C8.54401 2.896 8.57601 2.816 8.59201 2.768ZM2.64001 2.88C2.52801 2.992 2.30401 3.136 2.27201 3.328C2.44801 3.232 2.56001 3.04 2.72001 2.944H2.73601V3.008L2.56001 3.2H2.57601L2.64001 3.168L2.56001 3.296H2.57601L2.75201 3.136C2.81601 3.168 2.78401 3.184 2.84801 3.152L2.91201 3.024C2.83201 2.928 2.78401 2.912 2.64001 2.88ZM4.64001 2.896H4.68801V2.944C4.60801 2.976 4.56001 3.008 4.52801 3.072L4.60801 3.04V3.056C4.59201 3.104 4.56001 3.072 4.60801 3.12L4.72001 3.152L4.70401 3.184L4.64001 3.248L4.70401 3.264L4.52801 3.344C4.46401 3.312 4.27201 3.296 4.22401 3.216C4.36801 3.168 4.54401 3.008 4.64001 2.896ZM4.06401 2.928C4.12801 2.96 4.12801 2.976 4.16001 3.024V3.04L4.08001 3.008L4.06401 2.928ZM12.4 3.104C12.336 3.184 12.272 3.216 12.24 3.328L12.336 3.408C12.4 3.376 12.368 3.376 12.416 3.392V3.408C12.336 3.44 12.336 3.44 12.32 3.536L12.16 3.424L12.192 3.344C12.064 3.344 12.048 3.296 11.984 3.328C11.888 3.424 11.984 3.808 12 3.888L12.112 3.968C12.192 4.016 12.304 3.984 12.368 3.968L12.432 3.824C12.576 3.808 12.88 3.92 12.992 3.76V3.664C12.896 3.472 12.592 3.504 12.432 3.36C12.48 3.328 12.432 3.136 12.4 3.104ZM13.648 3.216C13.664 3.296 13.664 3.28 13.728 3.296L13.648 3.216ZM2.73601 3.28C2.70401 3.344 2.70401 3.296 2.70401 3.376C2.62401 3.36 2.51201 3.328 2.49601 3.344L2.40001 3.424V3.44L2.41601 3.472C2.68801 3.456 2.80001 3.376 2.99201 3.296V3.28H2.73601ZM3.82401 3.296L3.92001 3.344H3.88801L3.85601 3.376V3.344L3.82401 3.296ZM4.06401 3.296C4.04801 3.36 4.00001 3.408 3.92001 3.44L3.93601 3.392L4.06401 3.296ZM4.62401 3.328C4.65601 3.392 4.64001 3.376 4.59201 3.456L4.56001 3.44L4.59201 3.344L4.62401 3.328ZM4.46401 3.344H4.49601L4.44801 3.376L4.46401 3.344ZM2.46401 3.36H2.52801L2.46401 3.392V3.36ZM13.728 3.376C13.76 3.424 13.76 3.424 13.808 3.44V3.424L13.728 3.376ZM4.01601 3.392L4.04801 3.408L3.98401 3.44L4.01601 3.392ZM13.296 3.984L13.28 4L13.344 4.048L13.296 3.984ZM13.472 3.984C13.488 4.064 13.52 4.08 13.568 4.112C13.552 4.048 13.52 4.016 13.472 3.984ZM10.4 4.112L10.464 4.176C10.448 4.24 10.48 4.224 10.416 4.256V4.224C10.368 4.16 10.368 4.176 10.4 4.112ZM10.448 4.304L10.544 4.352L10.576 4.544C10.512 4.56 10.56 4.528 10.528 4.576C10.448 4.544 10.416 4.416 10.384 4.352C10.448 4.336 10.416 4.352 10.448 4.304ZM11.76 4.48L11.904 4.512C11.9087 4.55593 11.9195 4.59901 11.936 4.64L11.904 4.656C11.84 4.624 11.856 4.656 11.808 4.64C11.792 4.576 11.792 4.576 11.728 4.544L11.76 4.48ZM9.87201 4.528L9.93601 4.56L9.92001 4.592L9.88801 4.56H9.85601L9.87201 4.528ZM11.168 4.592L11.216 4.784C11.104 4.768 10.96 4.704 10.912 4.656H10.96C10.992 4.624 11.104 4.624 11.168 4.592ZM12.912 4.592L12.944 4.64L12.88 4.72H12.864L12.832 4.656H12.864L12.912 4.592ZM13.744 4.688L13.76 4.72C13.76 4.704 13.776 4.704 13.744 4.688ZM14.048 4.72V4.864H14.112L14.096 4.832C14.096 4.768 14.112 4.752 14.048 4.72ZM12.08 4.784C12.16 4.784 12.24 4.768 12.288 4.816C12.192 4.832 12.112 4.816 12.08 4.784ZM13.184 4.864L13.312 5.184V5.12L13.184 4.864ZM10.352 5.152L10.368 5.264H10.384L10.48 5.248L10.448 5.168L10.352 5.152ZM10.56 5.184L10.544 5.216L10.608 5.232V5.216L10.56 5.184ZM12.72 5.344C12.64 5.408 12.592 5.472 12.624 5.584L12.72 5.6C12.752 5.488 12.752 5.44 12.8 5.344H12.72ZM12.976 5.408L12.992 5.44L13.008 5.408H12.976ZM12.048 5.472C12.048 5.568 12.064 5.552 12.096 5.6L12.128 5.568L12.048 5.472ZM12.56 5.536L12.528 5.552L12.592 5.584V5.536H12.56ZM1.48801 5.568V5.632H1.47201L1.48801 5.568ZM12 5.648V5.696H12.032L12 5.648ZM1.08801 5.664H1.20001C1.31201 5.808 1.50401 6.144 1.52001 6.304H1.50401L1.29601 6.24L1.36001 6.16L1.16801 5.712L1.02401 5.76L1.08801 5.664ZM1.47201 5.664L1.48801 5.712H1.47201V5.664ZM1.08801 5.808C1.10401 5.856 1.10401 5.824 1.07201 5.856L1.08801 5.808ZM8.11201 6.064C8.12801 6.112 8.11201 6.096 8.09601 6.128L8.11201 6.064ZM7.76001 6.112C7.80801 6.144 7.79201 6.112 7.77601 6.16L7.76001 6.112ZM7.90401 6.144H7.93601L7.92001 6.192H7.90401L7.88801 6.176V6.16L7.90401 6.144ZM1.56801 6.368L1.77601 6.448C1.80186 6.51804 1.83976 6.58302 1.88801 6.64L1.87201 6.688C1.74401 6.624 1.72801 6.64 1.61601 6.688C1.60001 6.592 1.50401 6.592 1.44001 6.512L1.45601 6.496L1.56801 6.576L1.60001 6.56C1.60001 6.48 1.60001 6.432 1.56801 6.368ZM1.20001 6.416C1.28001 6.448 1.28001 6.464 1.31201 6.528C1.23201 6.512 1.23201 6.496 1.20001 6.416ZM1.98401 6.72L2.09601 6.784V6.8L2.06401 6.816L1.96801 6.784L1.98401 6.72ZM15.28 6.992C15.312 7.024 15.28 6.992 15.296 7.04L15.264 7.024L15.28 6.992ZM14.336 7.136C14.368 7.248 14.416 7.296 14.464 7.376H14.496V7.312C14.448 7.328 14.432 7.184 14.336 7.136ZM2.40001 7.376L2.41601 7.424H2.40001V7.376ZM14.192 7.568C14.192 7.616 14.176 7.6 14.208 7.648H14.224L14.24 7.6L14.192 7.568ZM11.696 7.872L11.824 8.064H11.84L11.92 7.936C11.792 7.936 11.792 7.92 11.696 7.872ZM2.27201 7.92H2.32001V8L2.30401 8.016L2.25601 8L2.27201 7.92ZM14.208 8.672C14.1958 8.71403 14.1953 8.75862 14.2065 8.80092C14.2178 8.84322 14.2405 8.88164 14.272 8.912V8.864L14.208 8.672ZM14.016 9.28L13.856 9.392L13.84 9.728C13.904 9.68 13.984 9.664 14.032 9.6C13.968 9.52 14.096 9.408 14.048 9.328L14.016 9.28ZM11.2 9.344C11.248 9.376 11.216 9.376 11.184 9.408L11.2 9.344ZM3.34401 9.568C3.34401 9.6 3.36001 9.584 3.32801 9.616L3.34401 9.568ZM3.39201 9.6H3.42401L3.36001 9.632L3.39201 9.6ZM13.552 9.952C13.552 10.128 13.568 10.416 13.696 10.544H13.712V10.496C13.648 10.352 13.632 10.016 13.552 9.952ZM15.04 10.464C15.184 10.736 14.464 12.064 14.288 12.192L14.224 12.16C14.304 11.92 14.416 11.744 14.496 11.552C14.544 11.424 14.528 11.248 14.608 11.12L14.768 11.024L15.04 10.464ZM13.472 10.592L13.424 10.688H13.44L13.456 10.656C13.488 10.624 13.536 10.624 13.472 10.592ZM13.968 10.592C13.92 10.736 13.872 10.944 13.936 11.072H13.952C13.968 10.912 14.048 10.704 13.968 10.592ZM13.296 11.568L13.248 11.616V11.632H13.264L13.328 11.568H13.296ZM4.44801 14.912H4.48001L4.44801 14.944V14.912ZM4.51201 14.928C4.57601 14.944 4.56001 14.928 4.59201 14.96C4.52801 14.944 4.54401 14.96 4.51201 14.928ZM5.45601 15.536L5.66401 15.568V15.6L5.45601 15.536Z" fill="#31CD56"/>
</svg>
