<svg width="32" height="32" viewBox="0 0 32 32" fill="none" xmlns="http://www.w3.org/2000/svg">
<rect width="32" height="32" fill="#1E1E1E"/>
<g id="Container">
<g id="Header" filter="url(#filter0_d_3_15489)">
<rect width="1905" height="96" transform="translate(-924 -52)" fill="#1D4268"/>
<g id="Background">
<rect x="-916" y="-4" width="1889" height="40" rx="8" fill="#205583"/>
<g id="Container_2">
<g id="Link - Dice">
<g id="Dice" clip-path="url(#clip0_3_15489)">
<g id="game-66-animation.svg" clip-path="url(#clip1_3_15489)">
<g id="Frame">
<g id="Frame_2">
<g id="Frame_3">
<g id="a">
<path id="Vector" d="M0.787539 1.3882C1.18234 1.4554 1.66534 1.216 1.66534 1.216L7.78054 -1.7198L1.78714 1.7788C1.78714 1.7788 1.32094 2.0686 0.934539 2.4172C0.594339 2.728 0.32554 3.1018 0.32554 3.1018L-2.79506 7.4572L-0.506061 3.3706C-0.506061 3.3706 -0.249861 2.9296 -0.19106 2.5138C-0.13646 2.1232 -0.65306 1.4596 -0.65306 1.4596L-6.30626 -4.9034L-0.0650606 0.922003C-0.0650606 0.922003 0.32134 1.3084 0.787539 1.3882ZM0.74134 -4.9034C1.24954 -4.9034 1.92574 -4.5086 2.12734 -3.8996C2.32894 -3.2906 1.90894 -2.627 1.39654 -2.627C0.879939 -2.6228 0.161739 -3.026 0.0357389 -3.6938C-0.0818605 -4.3238 0.233139 -4.9034 0.74134 -4.9034ZM-4.71866 -1.8752C-4.68506 -1.3586 -4.99586 -0.867198 -5.49986 -0.867198V-0.871398C-6.00386 -0.871398 -6.35246 -1.4804 -6.35246 -1.997C-6.35246 -2.5136 -6.07526 -2.9252 -5.57126 -2.9252C-5.06726 -2.9252 -4.75226 -2.396 -4.71866 -1.8752ZM-7.59566 0.674202C-7.59566 0.157602 -7.31846 -0.253998 -6.81446 -0.253998V-0.258198C-6.31046 -0.258198 -5.99546 0.271003 -5.96186 0.791802C-5.92826 1.3084 -6.23906 1.7998 -6.74306 1.7998C-7.24706 1.7998 -7.59566 1.1908 -7.59566 0.674202ZM-3.08486 4.2694C-3.05126 4.786 -3.36206 5.2774 -3.86606 5.2774V5.2732C-4.37006 5.2732 -4.71866 4.6684 -4.71866 4.1476C-4.71866 3.6268 -4.44146 3.2194 -3.93746 3.2194C-3.43346 3.2194 -3.11846 3.7486 -3.08486 4.2694ZM-1.79546 1.6024C-1.76186 2.119 -2.07266 2.6104 -2.57666 2.6104V2.6062C-3.08066 2.6062 -3.42926 2.0014 -3.42926 1.4806C-3.42926 0.959803 -3.15206 0.552402 -2.64806 0.552402C-2.14406 0.552402 -1.82906 1.0816 -1.79546 1.6024ZM0.346539 5.4748C0.10294 5.962 -0.380061 6.2896 -0.657261 6.151C-0.934461 6.0124 -0.89666 5.5252 -0.65306 5.0338C-0.40526 4.5466 0.0945396 4.1854 0.371739 4.324C0.648939 4.4626 0.590139 4.9876 0.346539 5.4748ZM3.26974 3.4672C3.02614 3.9544 2.54314 4.282 2.26594 4.1434C1.98874 4.0048 2.02654 3.5134 2.27014 3.0262C2.51794 2.539 3.01774 2.1778 3.29494 2.3164C3.57214 2.455 3.51334 2.98 3.26974 3.4672ZM6.04594 1.3882C5.80234 1.8754 5.31934 2.203 5.04214 2.0644C4.76494 1.9258 4.80274 1.4344 5.04634 0.947202C5.29414 0.455802 5.79394 0.0988016 6.07114 0.237402C6.34834 0.376001 6.28954 0.901002 6.04594 1.3882ZM4.87834 4.324L8.01994 -1.3796H8.01574C8.01574 -1.3796 8.11234 -1.6904 8.06614 -1.9928C8.01574 -2.3372 7.82254 -2.6774 7.82254 -2.6774L1.92574 -8.5028C1.92574 -8.5028 1.58974 -8.696 1.24534 -8.7464C0.896739 -8.7926 0.539739 -8.696 0.539739 -8.696L-5.40326 -6.3104C-5.40326 -6.3104 -6.37766 -6.0164 -6.69266 -5.5754C-6.77666 -5.4578 -6.84806 -5.336 -6.91526 -5.21L-6.93206 -5.231L-7.16306 -4.6976L-7.38986 -4.034C-7.38986 -4.0214 -7.38986 -3.9962 -7.38986 -3.9962L-7.72166 -3.0302C-7.73006 -3.026 -7.73846 -3.0134 -7.73846 -3.0134L-8.64986 -0.325397L-8.79686 0.107203L-8.80106 0.128202C-8.80106 0.128202 -8.80526 0.136602 -8.80526 0.149202C-8.80946 0.157602 -8.80946 0.166002 -8.80946 0.178602C-8.80946 0.182802 -8.80946 0.187002 -8.80946 0.187002C-8.81366 0.203802 -8.81786 0.220603 -8.81786 0.241603C-8.81786 0.245803 -8.81786 0.250002 -8.81786 0.250002C-8.82206 0.266802 -8.82626 0.283602 -8.82626 0.304602C-8.83886 0.422202 -8.84726 0.577602 -8.82206 0.720403C-8.77586 0.972403 -8.60366 1.1866 -8.60366 1.1866L-5.23106 5.5084C-5.22686 5.5 -3.47966 7.7008 -3.47966 7.7008C-3.47966 7.7008 -3.21506 7.957 -2.89586 7.9948C-2.59346 8.0284 -2.23646 7.8478 -2.23646 7.8478L3.90394 5.1808C3.90394 5.1808 4.27354 5.0464 4.51294 4.8364C4.76074 4.618 4.87834 4.324 4.87834 4.324Z" fill="white"/>
</g>
</g>
</g>
</g>
</g>
</g>
</g>
</g>
</g>
</g>
</g>
<defs>
<filter id="filter0_d_3_15489" x="-934" y="-62" width="1925" height="116" filterUnits="userSpaceOnUse" color-interpolation-filters="sRGB">
<feFlood flood-opacity="0" result="BackgroundImageFix"/>
<feColorMatrix in="SourceAlpha" type="matrix" values="0 0 0 0 0 0 0 0 0 0 0 0 0 0 0 0 0 0 127 0" result="hardAlpha"/>
<feOffset/>
<feGaussianBlur stdDeviation="5"/>
<feComposite in2="hardAlpha" operator="out"/>
<feColorMatrix type="matrix" values="0 0 0 0 0.113725 0 0 0 0 0.258824 0 0 0 0 0.407843 0 0 0 0.5 0"/>
<feBlend mode="normal" in2="BackgroundImageFix" result="effect1_dropShadow_3_15489"/>
<feBlend mode="normal" in="SourceGraphic" in2="effect1_dropShadow_3_15489" result="shape"/>
</filter>
<clipPath id="clip0_3_15489">
<rect width="32" height="32" fill="white"/>
</clipPath>
<clipPath id="clip1_3_15489">
<rect width="32" height="32" fill="white"/>
</clipPath>
</defs>
</svg>
