<svg width="32" height="32" viewBox="0 0 32 32" fill="none" xmlns="http://www.w3.org/2000/svg">
<rect width="32" height="32" fill="#1E1E1E"/>
<g id="Background">
<rect width="1905" height="507" transform="translate(-1681.24 -415)" fill="#1D4268"/>
<g id="Footer">
<g id="Container">
<g id="Container_2">
<g id="List">
<rect x="-92.4027" y="-12" width="256.806" height="56" rx="8" fill="#205583"/>
<g id="Item">
<g id="Link - Facebook">
<rect width="32" height="32" rx="16" fill="#E9EEF2"/>
<g id="Container_3">
<g id="Img">
<path id="Vector" d="M19.14 16H16.9V24H13.58V16H12V13.19H13.58V11.35C13.58 10.05 14.2 8 16.93 8H19.4V10.75H17.6C17.5009 10.7462 17.4022 10.7641 17.3108 10.8025C17.2194 10.8408 17.1375 10.8987 17.0708 10.9721C17.0041 11.0454 16.9543 11.1325 16.9248 11.2271C16.8953 11.3218 16.8868 11.4217 16.9 11.52V13.18H19.43L19.14 16.01V16Z" fill="#276AA5"/>
</g>
</g>
</g>
</g>
</g>
</g>
</g>
</g>
</g>
</svg>
