<svg preserveAspectRatio="xMidYMid meet" width="100%" height="100%" overflow="visible" style="display: block;" viewBox="0 0 32.0013 22" fill="none" xmlns="http://www.w3.org/2000/svg">
<g id="Group">
<path id="Vector" d="M31.9708 1.24L31.7808 2H4.80078L5.12078 0.76C5.23078 0.31 5.64078 0 6.11078 0H30.9808C31.6408 0 32.1308 0.61 31.9708 1.24Z" fill="var(--fill-0, #DA1919)"/>
<path id="Vector_2" d="M31.7808 2L31.2708 4H4.30078L4.80078 2H31.7808Z" fill="var(--fill-0, white)"/>
<path id="Vector_3" d="M31.271 4L30.761 6H3.79102L4.30102 4H31.271Z" fill="var(--fill-0, #DA1919)"/>
<path id="Vector_4" d="M30.7603 6L30.4203 7.33L30.2503 8H3.28027L3.45027 7.33L3.79027 6H30.7603Z" fill="var(--fill-0, white)"/>
<path id="Vector_5" d="M30.2505 8L29.7405 10H2.77051L3.28051 8H30.2505Z" fill="var(--fill-0, #DA1919)"/>
<path id="Vector_6" d="M29.7398 10L29.2298 12H2.25977L2.76977 10H29.7398Z" fill="var(--fill-0, white)"/>
<path id="Vector_7" d="M29.23 12L28.72 14H1.75L2.26 12H29.23Z" fill="var(--fill-0, #DA1919)"/>
<path id="Vector_8" d="M28.7202 14L28.5502 14.67L28.2102 16H1.24023L1.58023 14.67L1.75023 14H28.7202Z" fill="var(--fill-0, white)"/>
<path id="Vector_9" d="M28.2105 16L27.7005 18H0.730469L1.24047 16H28.2105Z" fill="var(--fill-0, #DA1919)"/>
<path id="Vector_10" d="M27.7007 18L27.2007 20H0.220703L0.730703 18H27.7007Z" fill="var(--fill-0, white)"/>
<path id="Vector_11" d="M27.2005 20L26.8805 21.24C26.7705 21.69 26.3605 22 25.8905 22H1.0205C0.360501 22 -0.129499 21.39 0.0305004 20.76L0.220501 20H27.2005Z" fill="var(--fill-0, #DA1919)"/>
<path id="Vector_12" fill-rule="evenodd" clip-rule="evenodd" d="M18.7697 0H6.10796C5.64091 0 5.23379 0.3123 5.12052 0.75746L3.44723 7.3333L2.25977 12H16.0005L18.7697 0Z" fill="var(--fill-0, #1A0095)"/>
<path id="Vector_13" d="M12.0001 3.80908L12.2439 4.93205L12.9507 4.02606L12.6831 5.1436L13.7131 4.63402L12.9871 5.5248L14.1362 5.5125L13.0956 6.0001L14.1362 6.4876L12.9871 6.4754L13.7131 7.3662L12.6831 6.8566L12.9507 7.9741L12.2439 7.0681L12.0001 8.1911L11.7563 7.0681L11.0494 7.9741L11.3171 6.8566L10.2871 7.3662L11.0131 6.4754L9.86402 6.4876L10.9046 6.0001L9.86402 5.5125L11.0131 5.5248L10.2871 4.63402L11.3171 5.1436L11.0494 4.02606L11.7563 4.93205L12.0001 3.80908Z" fill="var(--fill-0, #FFC700)"/>
<path id="Vector_14" d="M11.25 9.2499C9.45508 9.2499 8.00003 7.7948 8.00003 5.9999C8.00003 4.20508 9.45514 2.74996 11.25 2.74996C11.8097 2.74996 12.3362 2.89151 12.796 3.14061C12.0748 2.43536 11.0884 2 10 2C7.79092 2 6 3.79087 6 6C6 8.2091 7.79092 10 10 10C11.0884 10 12.0748 9.5646 12.796 8.8594C12.3362 9.1084 11.8097 9.2499 11.25 9.2499Z" fill="var(--fill-0, #FFC700)"/>
</g>
</svg>
