<svg preserveAspectRatio="none" width="100%" height="100%" overflow="visible" style="display: block;" viewBox="0 0 14 14" fill="none" xmlns="http://www.w3.org/2000/svg">
<g id="Img" clip-path="url(#clip0_0_17)">
<path id="Vector" d="M10.22 8.9775C10.1037 8.97753 9.99039 8.94077 9.89625 8.8725C9.80051 8.80158 9.72753 8.70427 9.68625 8.5925C9.64116 8.47715 9.62875 8.35161 9.65036 8.22966C9.67197 8.10771 9.72677 7.99408 9.80875 7.90125C9.89625 7.81375 9.9925 7.76125 10.1063 7.72625C10.2217 7.70342 10.3415 7.71878 10.4475 7.77C10.5525 7.81375 10.64 7.90125 10.71 7.9975C10.783 8.11988 10.8147 8.26246 10.8005 8.40424C10.7864 8.54602 10.727 8.67949 10.6312 8.785C10.5799 8.84402 10.5168 8.89165 10.446 8.9248C10.3752 8.95796 10.2982 8.97591 10.22 8.9775ZM3.78 8.9775C3.66371 8.97753 3.55039 8.94077 3.45625 8.8725C3.35727 8.80283 3.28115 8.7054 3.2375 8.5925C3.19356 8.47637 3.18256 8.35036 3.20572 8.22838C3.22889 8.1064 3.2853 7.99319 3.36875 7.90125C3.4475 7.81375 3.54375 7.76125 3.66625 7.72625C3.77892 7.70535 3.89532 7.72067 3.99875 7.77C4.1125 7.81375 4.2 7.90125 4.26125 7.9975C4.33538 8.11898 4.36859 8.26103 4.35599 8.40278C4.34339 8.54453 4.28564 8.6785 4.19125 8.785C4.13994 8.84402 4.07684 8.89165 4.00601 8.9248C3.93518 8.95796 3.85819 8.97591 3.78 8.9775ZM10.43 5.1975L11.5938 3.0275C11.6312 2.96754 11.6438 2.89533 11.6287 2.82625C11.6223 2.79526 11.6104 2.76565 11.5938 2.73875C11.5737 2.70699 11.5468 2.68009 11.515 2.66C11.4721 2.63236 11.4212 2.61992 11.3705 2.62468C11.3197 2.62944 11.272 2.65112 11.235 2.68625C11.2088 2.71091 11.188 2.74069 11.1738 2.77375L9.9925 4.96125C9.05901 4.51154 8.03617 4.27801 7 4.27801C5.96383 4.27801 4.94099 4.51154 4.0075 4.96125L2.82625 2.77375C2.81205 2.74069 2.7912 2.71091 2.765 2.68625C2.72803 2.65112 2.68032 2.62944 2.62954 2.62468C2.57876 2.61992 2.52786 2.63236 2.485 2.66C2.45414 2.67757 2.42731 2.70141 2.40625 2.73C2.38577 2.75886 2.37133 2.79157 2.36381 2.82616C2.3563 2.86074 2.35585 2.89649 2.3625 2.93125L2.40625 3.0275L3.57 5.1975C2.54015 5.82247 1.67731 6.68797 1.05551 7.71974C0.433703 8.7515 0.0715086 9.91873 0 11.1212H14C13.9285 9.91873 13.5663 8.7515 12.9445 7.71974C12.3227 6.68797 11.4598 5.82247 10.43 5.1975Z" fill="var(--fill-0, white)"/>
</g>
<defs>
<clipPath id="clip0_0_17">
<rect width="14" height="14" fill="white"/>
</clipPath>
</defs>
</svg>
