<svg preserveAspectRatio="none" width="100%" height="100%" overflow="visible" style="display: block;" viewBox="0 0 48 48" fill="none" xmlns="http://www.w3.org/2000/svg">
<g id="Img" clip-path="url(#clip0_0_13)">
<path id="Vector" d="M42.3 21H42V19.5C42 14.7261 40.1036 10.1477 36.7279 6.77208C33.3523 3.39642 28.7739 1.5 24 1.5C19.2261 1.5 14.6477 3.39642 11.2721 6.77208C7.89642 10.1477 6 14.7261 6 19.5V21C4.4087 21 2.88258 21.6321 1.75736 22.7574C0.632141 23.8826 0 25.4087 0 27L0 33C0 36 2.7 38.7 6 38.7H6.9C7.5 41.7 10.2 44.1 13.5 44.1H17.1C17.7 45.6 19.2 46.5 20.7 46.5H23.7C25.8 46.5 27.6 44.7 27.6 42.6C27.6 40.2 25.8 38.7 23.7 38.7H20.7C19.2 38.7 17.7 39.6 17.1 41.1H13.5C11.7 41.1 10.5 40.2 9.9 38.7H10.5C11.1 38.7 12 38.1 12 37.2V22.5C12 21.6 11.4 21 10.5 21H9V19.5C9 15.5218 10.5804 11.7064 13.3934 8.8934C16.2064 6.08035 20.0218 4.5 24 4.5C27.9782 4.5 31.7936 6.08035 34.6066 8.8934C37.4196 11.7064 39 15.5218 39 19.5V21H37.5C36.9 21 36.3 21.6 36.3 22.5V37.5C36.3 38.1 36.9 38.7 37.5 38.7H42.3C43.8387 38.623 45.2889 37.957 46.35 36.84C47.4111 35.723 48.0019 34.2407 48 32.7V27C48 24 45.6 21.3 42.3 21.3V21Z" fill="var(--fill-0, #A1BCD4)"/>
</g>
<defs>
<clipPath id="clip0_0_13">
<rect width="48" height="48" fill="white"/>
</clipPath>
</defs>
</svg>
