<svg width="150" height="150" viewBox="0 0 150 150" fill="none" xmlns="http://www.w3.org/2000/svg">
<g clip-path="url(#clip0_3743_18328)">
<path d="M113.015 46.8754C115.67 44.9887 118.217 42.8887 120.551 40.5549C125.444 35.662 128.717 29.6418 129.766 23.6034C130.917 16.9844 129.229 10.8388 125.133 6.74307C121.867 3.47676 117.441 1.75 112.336 1.75C105.065 1.75 97.4057 5.23984 91.321 11.3245C81.5833 21.0622 75.907 34.5039 72.8528 44.0963C70.5911 34.4573 66.0844 21.4434 57.3229 12.6815C52.6216 7.98057 46.6128 5.5668 40.9392 5.5668C36.3023 5.5668 31.8894 7.17871 28.5964 10.472C21.2742 17.7944 22.2636 30.6555 30.8063 39.1981C33.852 42.2438 37.4124 44.7736 41.1656 46.8757H9.375V84.3757H18.75V150.001H131.25V84.3754H140.625V46.8754H113.015ZM98.7782 18.7823C102.839 14.7212 107.907 12.2969 112.335 12.2969C113.903 12.2969 116.101 12.6271 117.675 14.2009C121.488 18.0136 119.346 26.8437 113.093 33.0971C106.655 39.5345 97.996 43.9615 90.4708 46.8754H83.0481C85.7681 38.4455 90.6738 26.8867 98.7782 18.7823ZM34.2677 23.5683C34.1648 22.2323 34.2604 19.7233 36.0542 17.9295C37.5548 16.4289 39.5388 16.1137 40.9392 16.1137C44.0531 16.1137 47.3065 17.5809 49.8647 20.1391C54.8265 25.1008 58.9125 32.9963 61.6813 42.9725C61.7561 43.242 61.829 43.5101 61.9005 43.7761C61.6345 43.7049 61.3664 43.6319 61.0969 43.5569C51.1207 40.7878 43.2255 36.7018 38.2638 31.74C35.9452 29.4218 34.4889 26.4432 34.2677 23.5683ZM65.625 140.625H28.125V79.6879H65.625V140.625ZM65.625 75.0004H18.75V56.2504H65.625V75.0004ZM121.875 140.625H84.375V79.6879H121.875V140.625ZM131.25 75.0004H84.375V56.2504H131.25V75.0004Z" fill="white" stroke="white"/>
</g>
<defs>
<clipPath id="clip0_3743_18328">
<rect width="150" height="150" fill="white"/>
</clipPath>
</defs>
</svg>
