<svg preserveAspectRatio="xMidYMid meet" width="100%" height="100%" overflow="visible" style="display: block;" viewBox="0 0 16 16" fill="none" xmlns="http://www.w3.org/2000/svg">
<g id="Img">
<path id="Vector" d="M10 7.3L6.7 6.3C6.53941 6.19322 6.41312 6.04228 6.33635 5.86536C6.25958 5.68845 6.2356 5.49311 6.26731 5.30288C6.29901 5.11266 6.38504 4.93565 6.51504 4.7932C6.64504 4.65075 6.81346 4.54893 7 4.5H9C9.4 4.5 9.7 4.6 10 4.8C10.3 5 10.5 4.9 10.7 4.8L11.7 3.7C12 3.5 11.9 3.1 11.7 2.9C10.9 2.3 10 2 9 2V0.5C9 0.2 8.8 0 8.5 0H7.5C7.2 0 7 0.2 7 0.5V2C5 2 3.2 3.7 3.4 5.7C3.49156 6.39987 3.78683 7.05739 4.2491 7.59078C4.71138 8.12417 5.32025 8.5099 6 8.7L9.2 9.7C9.6 9.8 9.9 10.2 9.9 10.6C9.9 11.1 9.5 11.5 8.9 11.5H7C6.64598 11.4903 6.30089 11.3868 6 11.2C5.90654 11.1084 5.78088 11.0571 5.65 11.0571C5.51912 11.0571 5.39346 11.1084 5.3 11.2L4.3 12.3C4 12.5 4 12.9 4.3 13.1C5.1 13.7 6 14 7 14V15.5C7 15.8 7.2 16 7.5 16H8.5C8.8 16 9 15.8 9 15.5V14C9.84894 14.0519 10.6865 13.7837 11.3474 13.2484C12.0084 12.7131 12.4446 11.9494 12.5702 11.1082C12.6957 10.267 12.5014 9.40931 12.0256 8.70432C11.5498 7.99932 10.8271 7.49826 10 7.3Z" fill="var(--fill-0, #93C738)"/>
</g>
</svg>
