<svg preserveAspectRatio="none" width="100%" height="100%" overflow="visible" style="display: block;" viewBox="0 0 16 16" fill="none" xmlns="http://www.w3.org/2000/svg">
<g id="Img" clip-path="url(#clip0_0_9)">
<path id="Vector" d="M14.9688 3.125H13.7812C13.9245 2.87566 14.014 2.59912 14.0441 2.31313C14.0741 2.02715 14.0441 1.73804 13.9558 1.46437C13.8675 1.19069 13.723 0.938504 13.5315 0.723991C13.3399 0.509478 13.1057 0.337381 12.8438 0.21875C12.0938 -0.15625 11.25 -1.58325e-08 10.625 0.5625L9.15625 1.875C9.0098 1.71388 8.83129 1.58514 8.63218 1.49705C8.43306 1.40895 8.21773 1.36345 8 1.36345C7.78227 1.36345 7.56694 1.40895 7.36782 1.49705C7.16871 1.58514 6.9902 1.71388 6.84375 1.875L5.375 0.5625C5.08329 0.288296 4.71705 0.10641 4.3223 0.0396907C3.92754 -0.0270285 3.52187 0.0243945 3.15625 0.1875C2.74684 0.359862 2.40402 0.659797 2.1788 1.04268C1.95358 1.42556 1.85799 1.87092 1.90625 2.3125C1.9375 2.59375 2.0625 2.875 2.21875 3.125H1.03125C0.46875 3.125 0 3.59375 0 4.15625V5.71875C0 6 0.21875 6.25 0.53125 6.25H15.4688C15.7812 6.25 16 6 16 5.71875V4.15625C16 3.59375 15.5312 3.125 14.9688 3.125ZM6.4375 2.9375V3.125H3.96875C3.80303 3.12267 3.64031 3.08044 3.49438 3.00188C3.34845 2.92331 3.2236 2.81073 3.13041 2.67368C3.03723 2.53662 2.97845 2.37912 2.95906 2.21452C2.93966 2.04992 2.96023 1.88308 3.01901 1.72811C3.07779 1.57315 3.17305 1.43464 3.29672 1.32431C3.4204 1.21398 3.56885 1.13508 3.72949 1.0943C3.89013 1.05353 4.05823 1.05207 4.21956 1.09005C4.38088 1.12803 4.53068 1.20434 4.65625 1.3125L6.4375 2.9375ZM13.0312 2.1875C13 2.71875 12.5 3.125 11.9688 3.125H9.5625V2.9375L11.3125 1.34375C11.5625 1.09375 11.9375 1 12.2812 1.09375C12.7812 1.25 13.0625 1.65625 13.0312 2.1875ZM1.03125 7.28125V14.9375C1.03125 15.5312 1.5 16 2.09375 16H6.96875V7.28125H1.03125ZM9.03125 7.28125V16H13.9062C14.5 16 14.9688 15.5312 14.9688 14.9375V7.28125H9.03125Z" fill="var(--fill-0, white)"/>
</g>
<defs>
<clipPath id="clip0_0_9">
<rect width="16" height="16" fill="white"/>
</clipPath>
</defs>
</svg>
