<svg preserveAspectRatio="xMidYMid meet" width="100%" height="100%" overflow="visible" style="display: block;" viewBox="0 0 16.917 16.7579" fill="none" xmlns="http://www.w3.org/2000/svg">
<g id="a">
<path id="Vector" d="M9.62592 10.1471C10.0207 10.2143 10.5037 9.97491 10.5037 9.97491L16.6189 7.03911L10.6255 10.5377C10.6255 10.5377 10.1593 10.8275 9.77292 11.1761C9.43272 11.4869 9.16392 11.8607 9.16392 11.8607L6.04332 16.2161L8.33232 12.1295C8.33232 12.1295 8.58852 11.6885 8.64732 11.2727C8.70192 10.8821 8.18532 10.2185 8.18532 10.2185L2.53212 3.85551L8.77332 9.68091C8.77332 9.68091 9.15972 10.0673 9.62592 10.1471ZM9.57972 3.85551C10.0879 3.85551 10.7641 4.25031 10.9657 4.85931C11.1673 5.46831 10.7473 6.13191 10.2349 6.13191C9.71832 6.13611 9.00012 5.73291 8.87412 5.06511C8.75652 4.43511 9.07152 3.85551 9.57972 3.85551ZM4.11972 6.88371C4.15332 7.40031 3.84252 7.89171 3.33852 7.89171V7.88751C2.83452 7.88751 2.48592 7.27851 2.48592 6.76191C2.48592 6.24531 2.76312 5.83371 3.26712 5.83371C3.77112 5.83371 4.08612 6.36291 4.11972 6.88371ZM1.24272 9.43311C1.24272 8.91651 1.51992 8.50491 2.02392 8.50491V8.50071C2.52792 8.50071 2.84292 9.02991 2.87652 9.55071C2.91012 10.0673 2.59932 10.5587 2.09532 10.5587C1.59132 10.5587 1.24272 9.94971 1.24272 9.43311ZM5.75352 13.0283C5.78712 13.5449 5.47632 14.0363 4.97232 14.0363V14.0321C4.46832 14.0321 4.11972 13.4273 4.11972 12.9065C4.11972 12.3857 4.39692 11.9783 4.90092 11.9783C5.40492 11.9783 5.71992 12.5075 5.75352 13.0283ZM7.04292 10.3613C7.07652 10.8779 6.76572 11.3693 6.26172 11.3693V11.3651C5.75772 11.3651 5.40912 10.7603 5.40912 10.2395C5.40912 9.71871 5.68632 9.31131 6.19032 9.31131C6.69432 9.31131 7.00932 9.84051 7.04292 10.3613ZM9.18492 14.2337C8.94132 14.7209 8.45832 15.0485 8.18112 14.9099C7.90392 14.7713 7.94172 14.2841 8.18532 13.7927C8.43312 13.3055 8.93292 12.9443 9.21012 13.0829C9.48732 13.2215 9.42852 13.7465 9.18492 14.2337ZM12.1081 12.2261C11.8645 12.7133 11.3815 13.0409 11.1043 12.9023C10.8271 12.7637 10.8649 12.2723 11.1085 11.7851C11.3563 11.2979 11.8561 10.9367 12.1333 11.0753C12.4105 11.2139 12.3517 11.7389 12.1081 12.2261ZM14.8843 10.1471C14.6407 10.6343 14.1577 10.9619 13.8805 10.8233C13.6033 10.6847 13.6411 10.1933 13.8847 9.70611C14.1325 9.21471 14.6323 8.85771 14.9095 8.99631C15.1867 9.13491 15.1279 9.65991 14.8843 10.1471ZM13.7167 13.0829L16.8583 7.37931H16.8541C16.8541 7.37931 16.9507 7.06851 16.9045 6.76611C16.8541 6.42171 16.6609 6.08151 16.6609 6.08151L10.7641 0.256113C10.7641 0.256113 10.4281 0.0629136 10.0837 0.0125136C9.73512 -0.0336864 9.37812 0.0629131 9.37812 0.0629131L3.43512 2.44851C3.43512 2.44851 2.46072 2.74251 2.14572 3.18351C2.06172 3.30111 1.99032 3.42291 1.92312 3.54891L1.90632 3.52791L1.67532 4.06131L1.44852 4.72491C1.44852 4.73751 1.44852 4.76271 1.44852 4.76271L1.11672 5.72871C1.10832 5.73291 1.09992 5.74551 1.09992 5.74551L0.188518 8.43351L0.0415185 8.86611L0.0373181 8.88711C0.0373181 8.88711 0.0331183 8.89551 0.0331183 8.90811C0.0289183 8.91651 0.0289184 8.92491 0.0289184 8.93751C0.0289184 8.94171 0.0289184 8.94591 0.0289184 8.94591C0.0247184 8.96271 0.0205183 8.97951 0.0205183 9.00051C0.0205183 9.00471 0.0205183 9.00891 0.0205183 9.00891C0.0163183 9.02571 0.0121181 9.04251 0.0121181 9.06351C-0.000481938 9.18111 -0.00888158 9.33651 0.0163184 9.47931C0.0625184 9.73131 0.234718 9.94551 0.234718 9.94551L3.60732 14.2673C3.61152 14.2589 5.35872 16.4597 5.35872 16.4597C5.35872 16.4597 5.62332 16.7159 5.94252 16.7537C6.24492 16.7873 6.60192 16.6067 6.60192 16.6067L12.7423 13.9397C12.7423 13.9397 13.1119 13.8053 13.3513 13.5953C13.5991 13.3769 13.7167 13.0829 13.7167 13.0829Z" fill="var(--fill-0, white)"/>
</g>
</svg>
