<svg preserveAspectRatio="xMidYMid meet" width="100%" height="100%" overflow="visible" style="display: block;" viewBox="0 0 16 16" fill="none" xmlns="http://www.w3.org/2000/svg">
<g id="Img" clip-path="url(#clip0_0_14)">
<path id="Vector" d="M15.2188 9.875L13.9062 9.09375C14.0312 8.375 14.0312 7.625 13.9062 6.90625L15.2188 6.125C15.375 6.03125 15.4375 5.875 15.4062 5.6875C15.0625 4.59375 14.4688 3.5625 13.6875 2.75C13.5625 2.625 13.375 2.59375 13.2188 2.65625L11.9062 3.4375C11.3438 2.96875 10.6875 2.59375 10 2.34375V0.8125C10 0.625 9.875 0.46875 9.71875 0.4375C8.5625 0.1875 7.375 0.1875 6.28125 0.4375C6.125 0.46875 6 0.625 6 0.8125V2.34375C5.3125 2.59375 4.65625 2.96875 4.09375 3.4375L2.78125 2.6875C2.625 2.59375 2.4375 2.625 2.3125 2.75C1.53125 3.5625 0.9375 4.59375 0.59375 5.6875C0.5625 5.875 0.625 6.0625 0.78125 6.125L2.09375 6.90625C1.96875 7.625 1.96875 8.375 2.09375 9.09375L0.78125 9.875C0.625 9.96875 0.5625 10.125 0.59375 10.3125C0.9375 11.4062 1.53125 12.4375 2.3125 13.25C2.4375 13.375 2.625 13.4062 2.78125 13.3438L4.09375 12.5625C4.65625 13.0312 5.3125 13.4062 6 13.6562V15.1875C6 15.375 6.125 15.5312 6.3125 15.5625C7.4375 15.8125 8.625 15.8125 9.71875 15.5625C9.875 15.5312 10 15.375 10 15.1875V13.6562C10.6875 13.4062 11.3438 13.0312 11.9062 12.5625L13.25 13.3438C13.375 13.4062 13.5938 13.4062 13.6875 13.25C14.4688 12.4375 15.0625 11.4062 15.4062 10.3125C15.4688 10.125 15.375 9.9375 15.2188 9.875ZM8 10.5C7.33696 10.5 6.70107 10.2366 6.23223 9.76777C5.76339 9.29893 5.5 8.66304 5.5 8C5.5 7.33696 5.76339 6.70107 6.23223 6.23223C6.70107 5.76339 7.33696 5.5 8 5.5C8.66304 5.5 9.29893 5.76339 9.76777 6.23223C10.2366 6.70107 10.5 7.33696 10.5 8C10.5 8.66304 10.2366 9.29893 9.76777 9.76777C9.29893 10.2366 8.66304 10.5 8 10.5Z" fill="var(--fill-0, white)"/>
</g>
<defs>
<clipPath id="clip0_0_14">
<rect width="16" height="16" fill="white"/>
</clipPath>
</defs>
</svg>
