<svg width="32" height="32" viewBox="0 0 32 32" fill="none" xmlns="http://www.w3.org/2000/svg">
<rect width="32" height="32" fill="#1E1E1E"/>
<g id="Background">
<rect width="1905" height="507" transform="translate(-1721.24 -415)" fill="#1D4268"/>
<g id="Footer">
<g id="Container">
<g id="Container_2">
<g id="List">
<rect x="-132.403" y="-12" width="256.806" height="56" rx="8" fill="#205583"/>
<g id="Item">
<g id="Link - Instagram">
<rect width="32" height="32" rx="16" fill="#E9EEF2"/>
<g id="Container_3">
<g id="Img" clip-path="url(#clip0_3_15489)">
<path id="Vector" d="M18.65 16C18.65 16.7028 18.3708 17.3768 17.8738 17.8738C17.3768 18.3708 16.7028 18.65 16 18.65C15.2972 18.65 14.6231 18.3708 14.1261 17.8738C13.6292 17.3768 13.35 16.7028 13.35 16C13.35 15.2972 13.6292 14.6231 14.1261 14.1261C14.6231 13.6292 15.2972 13.35 16 13.35C16.7028 13.35 17.3768 13.6292 17.8738 14.1261C18.3708 14.6231 18.65 15.2972 18.65 16Z" fill="#276AA5"/>
<path id="Vector_2" d="M20.47 8H11.53C10.5938 8 9.69592 8.37191 9.03391 9.03391C8.37191 9.69592 8 10.5938 8 11.53V20.47C8 20.9336 8.09131 21.3926 8.26871 21.8209C8.4461 22.2492 8.70612 22.6383 9.03391 22.9661C9.69592 23.6281 10.5938 24 11.53 24H20.47C20.9336 24 21.3926 23.9087 21.8209 23.7313C22.2492 23.5539 22.6383 23.2939 22.9661 22.9661C23.2939 22.6383 23.5539 22.2492 23.7313 21.8209C23.9087 21.3926 24 20.9336 24 20.47V11.53C24 10.5938 23.6281 9.69592 22.9661 9.03391C22.3041 8.37191 21.4062 8 20.47 8ZM16 20.41C15.4025 20.4384 14.8055 20.3453 14.2451 20.1363C13.6847 19.9272 13.1725 19.6066 12.7396 19.1939C12.3067 18.7811 11.9621 18.2848 11.7267 17.7349C11.4912 17.1851 11.3698 16.5931 11.3698 15.995C11.3698 15.3969 11.4912 14.8049 11.7267 14.2551C11.9621 13.7052 12.3067 13.2089 12.7396 12.7961C13.1725 12.3834 13.6847 12.0628 14.2451 11.8537C14.8055 11.6447 15.4025 11.5516 16 11.58C17.1346 11.634 18.2048 12.1227 18.9887 12.9448C19.7725 13.7669 20.2098 14.8591 20.2098 15.995C20.2098 17.1309 19.7725 18.2231 18.9887 19.0452C18.2048 19.8673 17.1346 20.356 16 20.41ZM21.06 11.82C20.8266 11.82 20.6028 11.7273 20.4377 11.5623C20.2727 11.3972 20.18 11.1734 20.18 10.94C20.18 10.7066 20.2727 10.4828 20.4377 10.3177C20.6028 10.1527 20.8266 10.06 21.06 10.06C21.2934 10.06 21.5172 10.1527 21.6823 10.3177C21.8473 10.4828 21.94 10.7066 21.94 10.94C21.94 11.1734 21.8473 11.3972 21.6823 11.5623C21.5172 11.7273 21.2934 11.82 21.06 11.82Z" fill="#276AA5"/>
</g>
</g>
</g>
</g>
</g>
</g>
</g>
</g>
</g>
<defs>
<clipPath id="clip0_3_15489">
<rect width="16" height="16" fill="white" transform="translate(8 8)"/>
</clipPath>
</defs>
</svg>
