<svg preserveAspectRatio="xMidYMid meet" width="100%" height="100%" overflow="visible" style="display: block;" viewBox="0 0 122 26.7125" fill="none" xmlns="http://www.w3.org/2000/svg">
<g id="Layer 1">
<path id="Vector" d="M70.5833 8.01463C71.6736 3.63426 69.0147 0.00945719 62.5016 0.00945719H48.3849L43.096 21.4331L46.166 26.7029H56.2084C62.7885 26.7029 67.8862 23.6329 69.1965 18.2961C69.8564 15.5607 69.0913 13.6479 67.3697 12.6915V12.6245C69.0023 11.567 70.1558 9.91223 70.5833 8.01463ZM61.9755 18.1239C61.7078 19.2429 60.9522 20.3906 57.8247 20.3906H51.4167L52.5358 15.7998H58.915C62.0042 15.7903 62.2338 16.9667 61.9373 18.1239H61.9755ZM63.2571 8.15809C63.0276 9.01886 62.3677 10.0709 59.6706 10.0709H53.9321L54.8885 6.34091H60.627C63.3528 6.32178 63.4867 7.20168 63.2571 8.15809Z" fill="var(--fill-0, #14A0FF)"/>
<path id="Vector_2" d="M79.4683 16.3641H92.3225L93.7858 10.0518H81.0177L82.0124 6.32178H94.6562L96.1195 0.00945719H75.3653L68.7852 26.6934H92.2938L93.8337 20.381H78.5215L79.4683 16.3641Z" fill="var(--fill-0, #14A0FF)"/>
<path id="Vector_3" d="M97.9175 0.00945719L96.4446 6.32178H104.125L99.0843 26.6934H107.147L112.197 6.32178H120.422L122 0.00945719H97.9175Z" fill="var(--fill-0, #14A0FF)"/>
<path id="Vector_4" d="M8.43556 26.6934H0.306052L3.82565 12.4428L4.6386 10.2909L2.48667 12.4428L0.0956413 14.8625L0 7.74684L8.43556 0.00945719H15.0061L8.43556 26.6934Z" fill="var(--fill-0, white)"/>
<path id="Vector_5" d="M37.7879 15.6372L35.196 11.2473L47.7728 0.00945719H36.0568L31.2747 4.60024L15.0539 19.4725L7.26874 26.6934H18.3536L26.6839 19.262L29.4862 24.0441C30.4426 25.2492 31.7912 26.7125 37.5105 26.7125H44.2054L37.7974 15.6277L37.7879 15.6372Z" fill="var(--fill-0, white)"/>
<path id="Vector_6" d="M30.3757 3.12736V3.06998C29.6581 2.06887 28.7006 1.26402 27.591 0.729271C26.4814 0.194527 25.2552 -0.0529821 24.0251 0.00945718H15.3696L21.8253 10.9891L30.3757 3.12736Z" fill="var(--fill-0, white)"/>
</g>
</svg>
