<svg preserveAspectRatio="xMidYMid meet" width="100%" height="100%" overflow="visible" style="display: block;" viewBox="0 0 11.8125 8.69976" fill="none" xmlns="http://www.w3.org/2000/svg">
<path id="Vector" d="M11.8125 4.34988C11.8112 2.78397 11.188 1.2827 10.08 0.17613C9.95564 0.0602103 9.7911 -0.00289745 9.62109 0.000102241C9.45108 0.00310193 9.28886 0.0719749 9.16863 0.192211C9.04839 0.312448 8.97952 0.47466 8.97652 0.644673C8.97352 0.814687 9.03663 0.979227 9.15255 1.10363C10.0128 1.96496 10.496 3.13253 10.496 4.34988C10.496 5.56723 10.0128 6.7348 9.15255 7.59613C9.03663 7.72053 8.97352 7.88507 8.97652 8.05509C8.97952 8.2251 9.04839 8.38731 9.16863 8.50755C9.28886 8.62779 9.45108 8.69666 9.62109 8.69966C9.7911 8.70266 9.95564 8.63955 10.08 8.52363C11.188 7.41706 11.8112 5.91579 11.8125 4.34988ZM0.446297 6.60738C0.00115902 5.52827 -0.114231 4.34146 0.114698 3.19681C0.343627 2.05216 0.906609 1.00102 1.73255 0.17613C1.85695 0.0602103 2.02149 -0.00289745 2.1915 0.000102241C2.36152 0.00310193 2.52373 0.0719749 2.64397 0.192211C2.7642 0.312448 2.83308 0.47466 2.83608 0.644673C2.83907 0.814687 2.77597 0.979227 2.66005 1.10363C1.79979 1.96496 1.31659 3.13253 1.31659 4.34988C1.31659 5.56723 1.79979 6.7348 2.66005 7.59613C2.77597 7.72053 2.83907 7.88507 2.83608 8.05509C2.83308 8.2251 2.7642 8.38731 2.64397 8.50755C2.52373 8.62779 2.36152 8.69666 2.1915 8.69966C2.02149 8.70266 1.85695 8.63955 1.73255 8.52363C1.18196 7.97568 0.744863 7.3245 0.446297 6.60738ZM8.5313 4.34988C8.5313 5.04607 8.25474 5.71375 7.76245 6.20604C7.27017 6.69832 6.60249 6.97488 5.9063 6.97488C5.2101 6.97488 4.54242 6.69832 4.05014 6.20604C3.55786 5.71375 3.2813 5.04607 3.2813 4.34988C3.2813 3.65369 3.55786 2.98601 4.05014 2.49373C4.54242 2.00144 5.2101 1.72488 5.9063 1.72488C6.60249 1.72488 7.27017 2.00144 7.76245 2.49373C8.25474 2.98601 8.5313 3.65369 8.5313 4.34988Z" fill="var(--fill-0, #A4D058)"/>
</svg>
