<svg preserveAspectRatio="xMidYMid meet" width="100%" height="100%" overflow="visible" style="display: block;" viewBox="0 0 12 12" fill="none" xmlns="http://www.w3.org/2000/svg">
<g id="Img" clip-path="url(#clip0_0_6)">
<path id="Vector" d="M5.75373 0.868657V0.864179L5.75597 0.859702C5.77745 0.813049 5.81186 0.773532 5.85511 0.745832C5.89836 0.718132 5.94864 0.70341 6 0.70341C6.05136 0.70341 6.10164 0.718132 6.14489 0.745832C6.18814 0.773532 6.22255 0.813049 6.24403 0.859702V0.866418L6.24851 0.868657L7.70373 3.82388L7.80672 4.03433L8.03731 4.07015L9.67164 4.31642L11.306 4.56269H11.3216C11.3695 4.56874 11.4146 4.58873 11.4512 4.62017C11.4878 4.65162 11.5144 4.69313 11.5276 4.73955C11.5445 4.78467 11.5477 4.83375 11.537 4.8807C11.5263 4.92766 11.502 4.97043 11.4672 5.00373L11.4649 5.00821L9.09179 7.31418L8.92164 7.47761L8.96194 7.71045L9.52164 10.9791V10.9881C9.52937 11.0347 9.52388 11.0826 9.50577 11.1263C9.48767 11.17 9.45769 11.2077 9.41922 11.2352C9.38076 11.2627 9.33536 11.2789 9.28817 11.2819C9.24098 11.2849 9.19389 11.2746 9.15224 11.2522L9.14552 11.2478L9.13881 11.2433L6.20597 9.7209L6 9.61567L5.79403 9.7209L2.86119 11.2433L2.85448 11.2478L2.84776 11.2522C2.80606 11.2753 2.75869 11.2861 2.71113 11.2834C2.66356 11.2807 2.61773 11.2646 2.5789 11.237C2.54007 11.2094 2.50982 11.1714 2.49164 11.1273C2.47345 11.0833 2.46808 11.035 2.47612 10.9881V10.9836L2.47836 10.9791L3.03806 7.71045L3.07836 7.47761L2.91045 7.31418L0.537313 5.00821L0.532836 5.00597V5.00373C0.498028 4.97043 0.473749 4.92766 0.463005 4.8807C0.452261 4.83375 0.455523 4.78467 0.472388 4.73955C0.50597 4.63881 0.58209 4.57612 0.678358 4.56493H0.685075L0.69403 4.56269L3.96269 4.07015L4.19328 4.03433L4.29627 3.82388L5.75149 0.868657H5.75373Z" stroke="var(--stroke-0, #7EAC2F)" stroke-width="0.895522"/>
</g>
<defs>
<clipPath id="clip0_0_6">
<rect width="12" height="12" fill="white"/>
</clipPath>
</defs>
</svg>
