<svg preserveAspectRatio="xMidYMid meet" width="100%" height="100%" overflow="visible" style="display: block;" viewBox="0 0 16 16" fill="none" xmlns="http://www.w3.org/2000/svg">
<g id="Img" clip-path="url(#clip0_0_15)">
<path id="Vector" d="M3.25 7H0.75C0.551088 7 0.360322 7.07902 0.21967 7.21967C0.0790176 7.36032 0 7.55109 0 7.75L0 15.25C0 15.66 0.34 16 0.75 16H3.25C3.66 16 4 15.66 4 15.25V7.75C4 7.55109 3.92098 7.36032 3.78033 7.21967C3.63968 7.07902 3.44891 7 3.25 7ZM2 14.75C1.80109 14.75 1.61032 14.671 1.46967 14.5303C1.32902 14.3897 1.25 14.1989 1.25 14C1.25 13.8011 1.32902 13.6103 1.46967 13.4697C1.61032 13.329 1.80109 13.25 2 13.25C2.19891 13.25 2.38968 13.329 2.53033 13.4697C2.67098 13.6103 2.75 13.8011 2.75 14C2.75 14.1989 2.67098 14.3897 2.53033 14.5303C2.38968 14.671 2.19891 14.75 2 14.75ZM12 2.55C12 3.87 11.19 4.61 10.96 5.5H14.14C15.18 5.5 16 6.37 16 7.32C16 7.88 15.76 8.48 15.4 8.85H15.39C15.69 9.59 15.65 10.61 15.09 11.34C15.37 12.14 15.09 13.14 14.59 13.68C14.72 14.23 14.66 14.69 14.39 15.08C13.76 15.98 12.18 16 10.84 16H10.75C9.25 16 8.01 15.45 7.01 15C6.51 14.79 5.86 14.51 5.37 14.5C5.27267 14.4975 5.18002 14.4577 5.11117 14.3888C5.04232 14.32 5.00253 14.2273 5 14.13V7.45C5 7.35 5.04 7.25 5.11 7.18C6.35 5.96 6.88 4.66 7.9 3.65C8.36 3.18 8.53 2.48 8.69 1.81C8.83 1.23 9.12 0 9.75 0C10.5 0 12 0.25 12 2.55Z" fill="var(--fill-0, white)"/>
</g>
<defs>
<clipPath id="clip0_0_15">
<rect width="16" height="16" fill="white"/>
</clipPath>
</defs>
</svg>
