<svg preserveAspectRatio="xMidYMid meet" width="100%" height="100%" overflow="visible" style="display: block;" viewBox="0 0 12.8906 16" fill="none" xmlns="http://www.w3.org/2000/svg">
<g id="Img" clip-path="url(#clip0_0_17)">
<path id="Vector" d="M8.42719 10.3983C8.55658 10.1597 8.74965 9.96181 8.98489 9.82654C9.22014 9.69128 9.48831 9.62398 9.75955 9.63214C9.87894 9.64314 9.99928 9.62714 10.1116 9.58533C10.224 9.54352 10.3255 9.47697 10.4087 9.3906C10.4919 9.30424 10.5545 9.20028 10.5921 9.08641C10.6296 8.97254 10.6411 8.85169 10.6256 8.7328C10.6174 8.46156 10.6847 8.19338 10.82 7.95814C10.9552 7.7229 11.1532 7.52983 11.3917 7.40044C11.5013 7.35311 11.5988 7.28184 11.6773 7.19188C11.7557 7.10191 11.813 6.99552 11.8449 6.88052C11.8769 6.76551 11.8827 6.64482 11.8619 6.52729C11.8411 6.40976 11.7942 6.29837 11.7248 6.20131C11.587 5.96953 11.5142 5.70487 11.5142 5.4352C11.5142 5.16554 11.587 4.90087 11.7248 4.6691C11.7942 4.57203 11.8411 4.46065 11.8619 4.34312C11.8827 4.22559 11.8769 4.10489 11.8449 3.98989C11.813 3.87489 11.7557 3.7685 11.6773 3.67853C11.5988 3.58856 11.5013 3.5173 11.3917 3.46997C11.1532 3.34058 10.9552 3.14751 10.82 2.91227C10.6847 2.67702 10.6174 2.40885 10.6256 2.13761C10.6411 2.01872 10.6296 1.89786 10.5921 1.784C10.5545 1.67013 10.4919 1.56617 10.4087 1.4798C10.3255 1.39344 10.224 1.32689 10.1116 1.28508C9.99928 1.24327 9.87894 1.22727 9.75955 1.23826C9.48831 1.24643 9.22014 1.17913 8.98489 1.04387C8.74965 0.908601 8.55658 0.710682 8.42719 0.472156C8.38105 0.357313 8.30887 0.254753 8.21634 0.172553C8.12381 0.0903538 8.01346 0.0307611 7.89398 -0.00153063C7.7745 -0.0338224 7.64916 -0.0379312 7.52782 -0.0135333C7.40648 0.0108645 7.29247 0.0631026 7.19475 0.139066C6.96298 0.276893 6.69831 0.34964 6.42865 0.34964C6.15898 0.34964 5.89432 0.276893 5.66254 0.139066C5.56548 0.0696029 5.45409 0.0227554 5.33656 0.00196178C5.21903 -0.0188318 5.09834 -0.0130437 4.98333 0.0189013C4.86833 0.0508463 4.76194 0.108137 4.67197 0.18657C4.582 0.265002 4.51074 0.362585 4.46341 0.472156C4.33402 0.710682 4.14095 0.908601 3.90571 1.04387C3.67046 1.17913 3.40229 1.24643 3.13105 1.23826C3.01166 1.22727 2.89132 1.24327 2.77895 1.28508C2.66659 1.32689 2.56506 1.39344 2.48189 1.4798C2.39873 1.56617 2.33606 1.67013 2.29851 1.784C2.26097 1.89786 2.24952 2.01872 2.26502 2.13761C2.26947 2.40816 2.2006 2.67488 2.06572 2.90945C1.93084 3.14403 1.73498 3.33772 1.49891 3.46997C1.38934 3.5173 1.29175 3.58856 1.21332 3.67853C1.13489 3.7685 1.0776 3.87489 1.04565 3.98989C1.01371 4.10489 1.00792 4.22559 1.02871 4.34312C1.04951 4.46065 1.09635 4.57203 1.16582 4.6691C1.30717 4.89963 1.38199 5.16478 1.38199 5.4352C1.38199 5.70563 1.30717 5.97078 1.16582 6.20131C1.09635 6.29837 1.04951 6.40976 1.02871 6.52729C1.00792 6.64482 1.01371 6.76551 1.04565 6.88052C1.0776 6.99552 1.13489 7.10191 1.21332 7.19188C1.29175 7.28184 1.38934 7.35311 1.49891 7.40044C1.73743 7.52983 1.93535 7.7229 2.07062 7.95814C2.20588 8.19338 2.27318 8.46156 2.26502 8.7328C2.24388 8.85419 2.2511 8.97883 2.2861 9.09697C2.3211 9.21511 2.38294 9.32357 2.46678 9.41386C2.55063 9.50415 2.65421 9.57384 2.76944 9.61749C2.88467 9.66113 3.00843 9.67755 3.13105 9.66545C3.40229 9.65729 3.67046 9.72459 3.90571 9.85985C4.14095 9.99512 4.33402 10.193 4.46341 10.4316C4.50955 10.5464 4.58173 10.649 4.67426 10.7312C4.76679 10.8134 4.87714 10.873 4.99662 10.9052C5.1161 10.9375 5.24144 10.9416 5.36278 10.9172C5.48412 10.8929 5.59813 10.8406 5.69585 10.7647C5.92762 10.6268 6.19229 10.5541 6.46195 10.5541C6.73162 10.5541 6.99628 10.6268 7.22806 10.7647C7.32512 10.8341 7.43651 10.881 7.55404 10.9018C7.67157 10.9225 7.79227 10.9168 7.90727 10.8848C8.02227 10.8529 8.12866 10.7956 8.21863 10.7171C8.30859 10.6387 8.37986 10.5411 8.42719 10.4316V10.3983ZM6.42865 8.63287C5.79621 8.63287 5.17797 8.44533 4.65212 8.09397C4.12626 7.7426 3.71641 7.2432 3.47439 6.6589C3.23236 6.0746 3.16904 5.43166 3.29242 4.81137C3.4158 4.19108 3.72035 3.62131 4.16755 3.17411C4.61475 2.72691 5.18452 2.42236 5.80481 2.29898C6.4251 2.1756 7.06804 2.23892 7.65234 2.48094C8.23664 2.72297 8.73605 3.13282 9.08741 3.65867C9.43877 4.18453 9.62631 4.80276 9.62631 5.4352C9.62636 6.27754 9.29404 7.08587 8.70155 7.6846C8.10905 8.28333 7.30424 8.6241 6.46195 8.63287H6.42865Z" fill="var(--fill-0, white)"/>
<path id="Vector_2" d="M3.09774 10.0985C2.46487 10.0985 2.39825 9.79869 2.39825 9.79869L2.85196e-07 14.5286L1.93192 14.2954L2.99781 15.8942L5.22952 11.3309C4.0637 11.3309 4.49672 10.1651 3.09774 10.1318V10.0985ZM10.459 9.99854C8.69366 10.1984 9.06006 10.6314 8.66035 10.9645C8.53175 11.0964 8.37524 11.1977 8.20231 11.2611C8.02938 11.3245 7.84444 11.3484 7.66108 11.3309L10.3258 15.9942L10.992 14.2621L12.8906 14.5286L10.459 9.99854ZM7.12814 4.73571L6.46195 3.40335L5.79577 4.73571L4.26356 4.93557L5.36276 6.00146L5.09628 7.50036L6.42865 6.80087L7.76101 7.46706L7.52784 6.00146L8.62704 4.93557L7.12814 4.73571Z" fill="var(--fill-0, white)"/>
</g>
<defs>
<clipPath id="clip0_0_17">
<rect width="12.8906" height="16" fill="white"/>
</clipPath>
</defs>
</svg>
