<svg preserveAspectRatio="none" width="100%" height="100%" overflow="visible" style="display: block;" viewBox="0 0 13.56 13.9974" fill="none" xmlns="http://www.w3.org/2000/svg">
<g id="Img" clip-path="url(#clip0_0_4)">
<path id="Vector" d="M6.78 0.21875C4.98183 0.21875 3.25731 0.933069 1.98582 2.20457C0.714319 3.47606 0 5.20058 0 6.99875C0 8.79692 0.714319 10.5214 1.98582 11.7929C3.25731 13.0644 4.98183 13.7788 6.78 13.7788C8.57817 13.7788 10.3027 13.0644 11.5742 11.7929C12.8457 10.5214 13.56 8.79692 13.56 6.99875C13.56 5.20058 12.8457 3.47606 11.5742 2.20457C10.3027 0.933069 8.57817 0.21875 6.78 0.21875ZM6.47927 6.78004C6.39726 6.91673 6.26056 6.99875 6.09653 6.99875C5.95984 6.99875 5.85048 7.05343 5.76847 7.13544L5.63177 7.27214C5.54976 7.35415 5.54976 7.51819 5.63177 7.6002L5.76847 7.7369C5.85048 7.81891 5.90516 7.92827 5.90516 8.06496V8.31101C5.90516 8.55706 5.71379 8.74843 5.46774 8.74843H5.30371C5.13968 8.74843 4.97565 8.66641 4.92097 8.50238L4.29218 7.27214C4.2375 7.13544 4.04613 7.1081 3.93677 7.21746L3.41734 7.7369C3.33532 7.81891 3.22597 7.87359 3.08927 7.87359H1.39427C1.24595 6.94959 1.33726 6.00299 1.65947 5.12438C1.98168 4.24578 2.52401 3.46457 3.23454 2.85555C3.94507 2.24652 4.80003 1.83005 5.71758 1.64601C6.63513 1.46196 7.58456 1.5165 8.475 1.8044L7.08073 2.84327C6.94403 2.95262 6.97137 3.14399 7.10806 3.22601L7.40879 3.39004C7.57282 3.44472 7.65484 3.60875 7.65484 3.77278V5.9052C7.65484 6.01456 7.54548 6.12391 7.43613 6.12391H7.35411C7.2721 6.12391 7.19008 6.06923 7.16274 6.01456C7.10806 5.9052 6.99871 5.9052 6.94403 5.98722L6.47927 6.78004ZM11.1542 9.7873C11.1542 9.92399 11.0995 10.0333 11.0175 10.1154L10.7715 10.3614C10.6894 10.4434 10.5801 10.4981 10.4434 10.4981H10.0333C9.92395 10.4981 9.8146 10.4434 9.73258 10.3614L9.37718 10.006C9.28851 9.91925 9.17941 9.85623 9.05995 9.82278C8.9405 9.78934 8.81454 9.78653 8.69371 9.81464L8.09226 9.97867H7.70952C7.60016 9.97867 7.49081 9.92399 7.40879 9.84198L7.08073 9.51391C7.03716 9.48029 7.00788 9.43148 6.99871 9.37722V9.10383C6.99871 8.99448 7.05339 8.91246 7.16274 8.88512L8.22895 8.4477C8.28363 8.4477 8.33831 8.42036 8.36565 8.36569L9.02177 7.90093C9.06314 7.87715 9.11114 7.86755 9.15847 7.87359H9.48653C9.56855 7.87359 9.65056 7.92827 9.6779 8.01028L9.84194 8.36569C9.85037 8.38058 9.86219 8.39329 9.87643 8.40279C9.89068 8.41229 9.90695 8.41831 9.92395 8.42036H10.0333C10.088 8.42036 10.1153 8.39302 10.1427 8.33835L10.252 7.9556C10.2794 7.90093 10.3067 7.87359 10.3614 7.87359H10.5254C10.5801 7.87359 10.6348 7.92827 10.6348 7.98294V8.33835L10.6894 8.50238L11.0175 8.83044C11.0995 8.91246 11.1542 9.02181 11.1542 9.13117V9.7873Z" fill="var(--fill-0, #276AA5)"/>
</g>
<defs>
<clipPath id="clip0_0_4">
<rect width="13.56" height="13.9974" fill="white"/>
</clipPath>
</defs>
</svg>
