<svg preserveAspectRatio="xMidYMid meet" width="100%" height="100%" overflow="visible" style="display: block;" viewBox="0 0 16 16" fill="none" xmlns="http://www.w3.org/2000/svg">
<g id="Img" clip-path="url(#clip0_0_11)">
<path id="Vector" d="M11.68 10.26C11.5471 10.26 11.4176 10.218 11.31 10.14C11.2006 10.0589 11.1172 9.94774 11.07 9.82C11.0185 9.68817 11.0043 9.54469 11.029 9.40533C11.0537 9.26596 11.1163 9.13609 11.21 9.03C11.31 8.93 11.42 8.87 11.55 8.83C11.682 8.80391 11.8189 8.82146 11.94 8.88C12.06 8.93 12.16 9.03 12.24 9.14C12.3234 9.27986 12.3597 9.44281 12.3435 9.60485C12.3273 9.76688 12.2594 9.91942 12.15 10.04C12.0914 10.1075 12.0192 10.1619 11.9383 10.1998C11.8573 10.2377 11.7694 10.2582 11.68 10.26ZM4.32 10.26C4.1871 10.26 4.05759 10.218 3.95 10.14C3.83688 10.0604 3.74988 9.94903 3.7 9.82C3.64978 9.68728 3.63722 9.54327 3.66369 9.40386C3.69016 9.26446 3.75463 9.13507 3.85 9.03C3.94 8.93 4.05 8.87 4.19 8.83C4.31877 8.80611 4.45179 8.82362 4.57 8.88C4.7 8.93 4.8 9.03 4.87 9.14C4.95472 9.27883 4.99267 9.44118 4.97827 9.60318C4.96387 9.76518 4.89788 9.91829 4.79 10.04C4.73136 10.1075 4.65925 10.1619 4.5783 10.1998C4.49735 10.2377 4.40936 10.2582 4.32 10.26ZM11.92 5.94L13.25 3.46C13.2928 3.39147 13.3071 3.30895 13.29 3.23C13.2826 3.19459 13.2691 3.16074 13.25 3.13C13.227 3.09371 13.1963 3.06297 13.16 3.04C13.111 3.00841 13.0528 2.99419 12.9948 2.99963C12.9368 3.00507 12.8823 3.02985 12.84 3.07C12.8101 3.09818 12.7862 3.13222 12.77 3.17L11.42 5.67C10.3532 5.15605 9.18419 4.88916 8 4.88916C6.81581 4.88916 5.64685 5.15605 4.58 5.67L3.23 3.17C3.21377 3.13222 3.18994 3.09818 3.16 3.07C3.11774 3.02985 3.06322 3.00507 3.00519 2.99963C2.94716 2.99419 2.88898 3.00841 2.84 3.04C2.80473 3.06008 2.77407 3.08733 2.75 3.12C2.72659 3.15299 2.71009 3.19037 2.7015 3.22989C2.69291 3.26942 2.6924 3.31027 2.7 3.35L2.75 3.46L4.08 5.94C2.90303 6.65425 1.91692 7.6434 1.20629 8.82256C0.495661 10.0017 0.0817242 11.3357 0 12.71H16C15.9183 11.3357 15.5043 10.0017 14.7937 8.82256C14.0831 7.6434 13.097 6.65425 11.92 5.94Z" fill="var(--fill-0, white)"/>
</g>
<defs>
<clipPath id="clip0_0_11">
<rect width="16" height="16" fill="white"/>
</clipPath>
</defs>
</svg>
