<svg preserveAspectRatio="xMidYMid meet" width="100%" height="100%" overflow="visible" style="display: block;" viewBox="0 0 16 16" fill="none" xmlns="http://www.w3.org/2000/svg">
<g id="Img" clip-path="url(#clip0_0_33)">
<path id="Vector" d="M12.54 8.46C12.54 7.14 13.09 6.16 14.21 5.43C13.9004 4.95661 13.4819 4.5643 12.9895 4.28592C12.4971 4.00754 11.9452 3.8512 11.38 3.83C10.18 3.73 8.88 4.57 8.41 4.57C7.91 4.57 6.76 3.87 5.85 3.87C4 3.9 2 5.46 2 8.63C2 9.56 2.16 10.53 2.48 11.53C2.91 12.83 4.46 16.05 6.08 16C6.92 15.98 7.51 15.36 8.61 15.36C9.68 15.36 10.23 16 11.17 16C12.8 15.97 14.2 13.05 14.61 11.74C12.42 10.64 12.54 8.52 12.54 8.46ZM10.64 2.59C11.56 1.43 11.47 0.38 11.44 0C10.64 0.05 9.71 0.59 9.17 1.25C8.59 1.95 8.24 2.83 8.32 3.81C9.19 3.89 9.99 3.41 10.64 2.59Z" fill="var(--fill-0, #A1BCD4)"/>
</g>
<defs>
<clipPath id="clip0_0_33">
<rect width="16" height="16" fill="white"/>
</clipPath>
</defs>
</svg>
