<svg preserveAspectRatio="xMidYMid meet" width="100%" height="100%" overflow="visible" style="display: block;" viewBox="0 0 8.75 10" fill="none" xmlns="http://www.w3.org/2000/svg">
<g id="Img" clip-path="url(#clip0_0_83)">
<path id="Vector" d="M1.13281 0.742188L5.21484 4.84375C5.3125 4.92188 5.3125 5.07812 5.21484 5.17578L1.13281 9.25781C1.03516 9.35547 0.878906 9.35547 0.800781 9.25781L0.410156 8.86719C0.3125 8.76953 0.3125 8.63281 0.410156 8.53516L3.94531 5L0.410156 1.46484C0.3125 1.36719 0.3125 1.23047 0.410156 1.13281L0.800781 0.742188C0.878906 0.644531 1.03516 0.644531 1.13281 0.742188ZM3.92578 0.742188L3.53516 1.13281C3.4375 1.23047 3.4375 1.36719 3.53516 1.46484L7.07031 5L3.53516 8.53516C3.4375 8.63281 3.4375 8.76953 3.53516 8.86719L3.92578 9.25781C4.00391 9.35547 4.16016 9.35547 4.25781 9.25781L8.33984 5.17578C8.4375 5.07812 8.4375 4.92188 8.33984 4.84375L4.25781 0.742188C4.16016 0.644531 4.00391 0.644531 3.92578 0.742188Z" fill="var(--fill-0, #A1BCD4)"/>
</g>
<defs>
<clipPath id="clip0_0_83">
<rect width="8.75" height="10" fill="white"/>
</clipPath>
</defs>
</svg>
