<svg preserveAspectRatio="xMidYMid meet" width="100%" height="100%" overflow="visible" style="display: block;" viewBox="0 0 4.125 4.85722" fill="none" xmlns="http://www.w3.org/2000/svg">
<path id="Vector" d="M3.1875 4.39736C2.89109 4.39191 2.59974 4.31958 2.3352 4.18579C2.07065 4.05199 1.83973 3.86018 1.65968 3.62467C1.47962 3.38915 1.35508 3.11601 1.29535 2.82564C1.23561 2.53526 1.24223 2.23514 1.3147 1.94768C1.38717 1.66021 1.52362 1.39283 1.71388 1.16548C1.90413 0.938121 2.14327 0.756669 2.41346 0.634659C2.68365 0.512649 2.9779 0.453232 3.27426 0.460843C3.57062 0.468453 3.86143 0.542894 4.125 0.678611C3.78077 0.348351 3.3472 0.126358 2.87802 0.0401414C2.40884 -0.0460749 1.92467 0.00727618 1.48552 0.193583C1.04637 0.37989 0.671535 0.690963 0.407477 1.08825C0.143418 1.48554 0.00173991 1.95158 0 2.42861C0.00173991 2.90564 0.143418 3.37168 0.407477 3.76897C0.671535 4.16626 1.04637 4.47733 1.48552 4.66364C1.92467 4.84995 2.40884 4.9033 2.87802 4.81708C3.3472 4.73086 3.78077 4.50887 4.125 4.17861C3.84375 4.30361 3.53125 4.39736 3.1875 4.39736Z" fill="var(--fill-0, #FFDA44)"/>
</svg>
