<svg preserveAspectRatio="xMidYMid meet" width="100%" height="100%" overflow="visible" style="display: block;" viewBox="0 0 64.92 14.2146" fill="none" xmlns="http://www.w3.org/2000/svg">
<g id="Layer 1">
<path id="Vector" d="M37.5595 4.26483C38.1397 1.9339 36.7249 0.00503246 33.259 0.00503246H25.7471L22.9327 11.4052L24.5664 14.2095H29.9102C33.4117 14.2095 36.1243 12.5758 36.8216 9.73591C37.1728 8.28035 36.7656 7.26247 35.8495 6.75354V6.71791C36.7183 6.15516 37.3321 5.27461 37.5595 4.26483ZM32.9791 9.6443C32.8366 10.2398 32.4346 10.8505 30.7703 10.8505H27.3605L27.9559 8.40758H31.3505C32.9944 8.40249 33.1165 9.02848 32.9588 9.6443H32.9791ZM33.6611 4.34118C33.5389 4.79922 33.1878 5.35905 31.7526 5.35905H28.699L29.2079 3.37419H32.2615C33.712 3.36402 33.7832 3.83224 33.6611 4.34118Z" fill="var(--fill-0, #007ACC)"/>
<path id="Vector_2" d="M42.2876 8.70786H49.1277L49.9064 5.34887H43.112L43.6413 3.36402H50.3695L51.1482 0.00503246H40.1042L36.6027 14.2044H49.1124L49.9318 10.8454H41.7837L42.2876 8.70786Z" fill="var(--fill-0, #007ACC)"/>
<path id="Vector_3" d="M52.105 0.00503246L51.3212 3.36402H55.408L52.7259 14.2044H57.0162L59.7034 3.36402H64.0803L64.92 0.00503246H52.105Z" fill="var(--fill-0, #007ACC)"/>
<path id="Vector_4" d="M4.48882 14.2044H0.16286L2.03575 6.62121L2.46834 5.47611L1.32324 6.62121L0.0508937 7.90882L0 4.12233L4.48882 0.00503246H7.98522L4.48882 14.2044Z" fill="var(--fill-0, #002F5E)"/>
<path id="Vector_5" d="M20.1081 8.32106L18.7289 5.98504L25.4214 0.00503246H19.1869L16.6422 2.44793L8.01067 10.3619L3.86792 14.2044H9.7665L14.1993 10.2499L15.6905 12.7946C16.1995 13.4359 16.9171 14.2146 19.9605 14.2146H23.5231L20.1132 8.31597L20.1081 8.32106Z" fill="var(--fill-0, #002F5E)"/>
<path id="Vector_6" d="M16.1638 1.66417V1.63363C15.782 1.10091 15.2725 0.672622 14.682 0.388068C14.0916 0.103514 13.4391 -0.0281935 12.7845 0.00503246H8.17862L11.6139 5.84763L16.1638 1.66417Z" fill="var(--fill-0, #002F5E)"/>
</g>
</svg>
