<svg preserveAspectRatio="xMidYMid meet" width="100%" height="100%" overflow="visible" style="display: block;" viewBox="0 0 10.66 16.0057" fill="none" xmlns="http://www.w3.org/2000/svg">
<g id="Img" clip-path="url(#clip0_0_17)">
<path id="Vector" d="M9.2742 0.754053H1.8122C1.066 0.754053 0.4264 1.18045 0.4264 1.82005V14.6121C0.4264 15.2517 0.9594 15.6781 1.599 15.6781H9.1676C9.8072 15.6781 10.3402 15.2517 10.3402 14.6121V1.82005C10.3402 1.18045 9.8072 0.754053 9.2742 0.754053ZM4.264 1.50025H6.7158L6.8224 1.60685V1.71345H4.264V1.50025ZM5.5432 15.1451C5.2234 15.1451 4.9036 14.9319 4.9036 14.7187C4.9036 14.3989 5.2234 14.1857 5.5432 14.1857C5.863 14.1857 6.0762 14.3989 6.0762 14.7187C6.0762 14.9319 5.863 15.1451 5.5432 15.1451ZM9.594 13.8659H1.3858V2.35305H9.594V13.8659Z" fill="var(--fill-0, #276AA5)"/>
</g>
<defs>
<clipPath id="clip0_0_17">
<rect width="10.66" height="16.0057" fill="white"/>
</clipPath>
</defs>
</svg>
