<svg preserveAspectRatio="xMidYMid meet" width="100%" height="100%" overflow="visible" style="display: block;" viewBox="0 0 70 70" fill="none" xmlns="http://www.w3.org/2000/svg">
<g id="SVG" clip-path="url(#clip0_0_29)">
<path id="Vector" d="M70 0H0V70H70V0Z" fill="var(--fill-0, white)"/>
<path id="Vector_2" d="M0 0H13.2432V1.89189H0V0ZM18.9189 0H20.8108V1.89189H18.9189V0ZM22.7027 0H26.4865V1.89189H22.7027V0ZM28.3784 0H30.2703V1.89189H28.3784V0ZM34.0541 0H41.6216V1.89189H34.0541V0ZM43.5135 0H45.4054V1.89189H43.5135V0ZM52.973 0H54.8649V1.89189H52.973V0ZM56.7568 0H70V1.89189H56.7568V0ZM0 1.89189H1.89189V3.78378H0V1.89189ZM11.3514 1.89189H13.2432V3.78378H11.3514V1.89189ZM15.1351 1.89189H17.027V3.78378H15.1351V1.89189ZM18.9189 1.89189H20.8108V3.78378H18.9189V1.89189ZM24.5946 1.89189H35.9459V3.78378H24.5946V1.89189ZM39.7297 1.89189H43.5135V3.78378H39.7297V1.89189ZM45.4054 1.89189H47.2973V3.78378H45.4054V1.89189ZM49.1892 1.89189H54.8649V3.78378H49.1892V1.89189ZM56.7568 1.89189H58.6486V3.78378H56.7568V1.89189ZM68.1081 1.89189H70V3.78378H68.1081V1.89189ZM0 3.78378H1.89189V5.67568H0V3.78378ZM3.78378 3.78378H9.45946V5.67568H3.78378V3.78378ZM11.3514 3.78378H13.2432V5.67568H11.3514V3.78378ZM22.7027 3.78378H26.4865V5.67568H22.7027V3.78378ZM34.0541 3.78378H35.9459V5.67568H34.0541V3.78378ZM39.7297 3.78378H47.2973V5.67568H39.7297V3.78378ZM51.0811 3.78378H52.973V5.67568H51.0811V3.78378ZM56.7568 3.78378H58.6486V5.67568H56.7568V3.78378ZM60.5405 3.78378H66.2162V5.67568H60.5405V3.78378ZM68.1081 3.78378H70V5.67568H68.1081V3.78378ZM0 5.67568H1.89189V7.56757H0V5.67568ZM3.78378 5.67568H9.45946V7.56757H3.78378V5.67568ZM11.3514 5.67568H13.2432V7.56757H11.3514V5.67568ZM15.1351 5.67568H20.8108V7.56757H15.1351V5.67568ZM22.7027 5.67568H24.5946V7.56757H22.7027V5.67568ZM26.4865 5.67568H28.3784V7.56757H26.4865V5.67568ZM32.1622 5.67568H34.0541V7.56757H32.1622V5.67568ZM35.9459 5.67568H39.7297V7.56757H35.9459V5.67568ZM41.6216 5.67568H43.5135V7.56757H41.6216V5.67568ZM47.2973 5.67568H52.973V7.56757H47.2973V5.67568ZM56.7568 5.67568H58.6486V7.56757H56.7568V5.67568ZM60.5405 5.67568H66.2162V7.56757H60.5405V5.67568ZM68.1081 5.67568H70V7.56757H68.1081V5.67568ZM0 7.56757H1.89189V9.45946H0V7.56757ZM3.78378 7.56757H9.45946V9.45946H3.78378V7.56757ZM11.3514 7.56757H13.2432V9.45946H11.3514V7.56757ZM17.027 7.56757H18.9189V9.45946H17.027V7.56757ZM30.2703 7.56757H32.1622V9.45946H30.2703V7.56757ZM34.0541 7.56757H39.7297V9.45946H34.0541V7.56757ZM43.5135 7.56757H45.4054V9.45946H43.5135V7.56757ZM49.1892 7.56757H51.0811V9.45946H49.1892V7.56757ZM52.973 7.56757H54.8649V9.45946H52.973V7.56757ZM56.7568 7.56757H58.6486V9.45946H56.7568V7.56757ZM60.5405 7.56757H66.2162V9.45946H60.5405V7.56757ZM68.1081 7.56757H70V9.45946H68.1081V7.56757ZM0 9.45946H1.89189V11.3514H0V9.45946ZM11.3514 9.45946H13.2432V11.3514H11.3514V9.45946ZM15.1351 9.45946H18.9189V11.3514H15.1351V9.45946ZM20.8108 9.45946H24.5946V11.3514H20.8108V9.45946ZM28.3784 9.45946H30.2703V11.3514H28.3784V9.45946ZM37.8378 9.45946H43.5135V11.3514H37.8378V9.45946ZM47.2973 9.45946H49.1892V11.3514H47.2973V9.45946ZM51.0811 9.45946H54.8649V11.3514H51.0811V9.45946ZM56.7568 9.45946H58.6486V11.3514H56.7568V9.45946ZM68.1081 9.45946H70V11.3514H68.1081V9.45946ZM0 11.3514H13.2432V13.2432H0V11.3514ZM15.1351 11.3514H17.027V13.2432H15.1351V11.3514ZM18.9189 11.3514H20.8108V13.2432H18.9189V11.3514ZM22.7027 11.3514H24.5946V13.2432H22.7027V11.3514ZM26.4865 11.3514H28.3784V13.2432H26.4865V11.3514ZM30.2703 11.3514H32.1622V13.2432H30.2703V11.3514ZM34.0541 11.3514H35.9459V13.2432H34.0541V11.3514ZM37.8378 11.3514H39.7297V13.2432H37.8378V11.3514ZM41.6216 11.3514H43.5135V13.2432H41.6216V11.3514ZM45.4054 11.3514H47.2973V13.2432H45.4054V11.3514ZM49.1892 11.3514H51.0811V13.2432H49.1892V11.3514ZM52.973 11.3514H54.8649V13.2432H52.973V11.3514ZM56.7568 11.3514H70V13.2432H56.7568V11.3514ZM17.027 13.2432H22.7027V15.1351H17.027V13.2432ZM26.4865 13.2432H30.2703V15.1351H26.4865V13.2432ZM39.7297 13.2432H41.6216V15.1351H39.7297V13.2432ZM43.5135 13.2432H45.4054V15.1351H43.5135V13.2432ZM49.1892 13.2432H51.0811V15.1351H49.1892V13.2432ZM52.973 13.2432H54.8649V15.1351H52.973V13.2432ZM0 15.1351H9.45946V17.027H0V15.1351ZM11.3514 15.1351H18.9189V17.027H11.3514V15.1351ZM20.8108 15.1351H22.7027V17.027H20.8108V15.1351ZM28.3784 15.1351H34.0541V17.027H28.3784V15.1351ZM37.8378 15.1351H39.7297V17.027H37.8378V15.1351ZM41.6216 15.1351H49.1892V17.027H41.6216V15.1351ZM54.8649 15.1351H56.7568V17.027H54.8649V15.1351ZM58.6486 15.1351H60.5405V17.027H58.6486V15.1351ZM62.4324 15.1351H64.3243V17.027H62.4324V15.1351ZM66.2162 15.1351H68.1081V17.027H66.2162V15.1351ZM1.89189 17.027H7.56757V18.9189H1.89189V17.027ZM9.45946 17.027H11.3514V18.9189H9.45946V17.027ZM13.2432 17.027H20.8108V18.9189H13.2432V17.027ZM22.7027 17.027H28.3784V18.9189H22.7027V17.027ZM30.2703 17.027H32.1622V18.9189H30.2703V17.027ZM35.9459 17.027H37.8378V18.9189H35.9459V17.027ZM39.7297 17.027H41.6216V18.9189H39.7297V17.027ZM43.5135 17.027H49.1892V18.9189H43.5135V17.027ZM52.973 17.027H56.7568V18.9189H52.973V17.027ZM62.4324 17.027H68.1081V18.9189H62.4324V17.027ZM11.3514 18.9189H13.2432V20.8108H11.3514V18.9189ZM17.027 18.9189H20.8108V20.8108H17.027V18.9189ZM24.5946 18.9189H32.1622V20.8108H24.5946V18.9189ZM37.8378 18.9189H43.5135V20.8108H37.8378V18.9189ZM45.4054 18.9189H52.973V20.8108H45.4054V18.9189ZM54.8649 18.9189H58.6486V20.8108H54.8649V18.9189ZM60.5405 18.9189H66.2162V20.8108H60.5405V18.9189ZM68.1081 18.9189H70V20.8108H68.1081V18.9189ZM0 20.8108H11.3514V22.7027H0V20.8108ZM22.7027 20.8108H26.4865V22.7027H22.7027V20.8108ZM28.3784 20.8108H30.2703V22.7027H28.3784V20.8108ZM34.0541 20.8108H43.5135V22.7027H34.0541V20.8108ZM49.1892 20.8108H56.7568V22.7027H49.1892V20.8108ZM62.4324 20.8108H64.3243V22.7027H62.4324V20.8108ZM66.2162 20.8108H68.1081V22.7027H66.2162V20.8108ZM5.67568 22.7027H7.56757V24.5946H5.67568V22.7027ZM9.45946 22.7027H20.8108V24.5946H9.45946V22.7027ZM22.7027 22.7027H24.5946V24.5946H22.7027V22.7027ZM26.4865 22.7027H30.2703V24.5946H26.4865V22.7027ZM32.1622 22.7027H37.8378V24.5946H32.1622V22.7027ZM41.6216 22.7027H43.5135V24.5946H41.6216V22.7027ZM47.2973 22.7027H51.0811V24.5946H47.2973V22.7027ZM56.7568 22.7027H66.2162V24.5946H56.7568V22.7027ZM68.1081 22.7027H70V24.5946H68.1081V22.7027ZM3.78378 24.5946H11.3514V26.4865H3.78378V24.5946ZM15.1351 24.5946H17.027V26.4865H15.1351V24.5946ZM30.2703 24.5946H37.8378V26.4865H30.2703V24.5946ZM39.7297 24.5946H41.6216V26.4865H39.7297V24.5946ZM43.5135 24.5946H45.4054V26.4865H43.5135V24.5946ZM52.973 24.5946H56.7568V26.4865H52.973V24.5946ZM64.3243 24.5946H68.1081V26.4865H64.3243V24.5946ZM0 26.4865H1.89189V28.3784H0V26.4865ZM5.67568 26.4865H9.45946V28.3784H5.67568V26.4865ZM11.3514 26.4865H13.2432V28.3784H11.3514V26.4865ZM15.1351 26.4865H18.9189V28.3784H15.1351V26.4865ZM20.8108 26.4865H24.5946V28.3784H20.8108V26.4865ZM28.3784 26.4865H30.2703V28.3784H28.3784V26.4865ZM32.1622 26.4865H34.0541V28.3784H32.1622V26.4865ZM39.7297 26.4865H41.6216V28.3784H39.7297V26.4865ZM45.4054 26.4865H47.2973V28.3784H45.4054V26.4865ZM51.0811 26.4865H52.973V28.3784H51.0811V26.4865ZM56.7568 26.4865H58.6486V28.3784H56.7568V26.4865ZM60.5405 26.4865H62.4324V28.3784H60.5405V26.4865ZM64.3243 26.4865H70V28.3784H64.3243V26.4865ZM5.67568 28.3784H7.56757V30.2703H5.67568V28.3784ZM9.45946 28.3784H11.3514V30.2703H9.45946V28.3784ZM17.027 28.3784H22.7027V30.2703H17.027V28.3784ZM26.4865 28.3784H28.3784V30.2703H26.4865V28.3784ZM30.2703 28.3784H32.1622V30.2703H30.2703V28.3784ZM37.8378 28.3784H45.4054V30.2703H37.8378V28.3784ZM49.1892 28.3784H51.0811V30.2703H49.1892V28.3784ZM52.973 28.3784H54.8649V30.2703H52.973V28.3784ZM58.6486 28.3784H60.5405V30.2703H58.6486V28.3784ZM62.4324 28.3784H64.3243V30.2703H62.4324V28.3784ZM68.1081 28.3784H70V30.2703H68.1081V28.3784ZM0 30.2703H5.67568V32.1622H0V30.2703ZM9.45946 30.2703H17.027V32.1622H9.45946V30.2703ZM18.9189 30.2703H22.7027V32.1622H18.9189V30.2703ZM32.1622 30.2703H34.0541V32.1622H32.1622V30.2703ZM41.6216 30.2703H51.0811V32.1622H41.6216V30.2703ZM56.7568 30.2703H66.2162V32.1622H56.7568V30.2703ZM68.1081 30.2703H70V32.1622H68.1081V30.2703ZM0 32.1622H3.78378V34.0541H0V32.1622ZM9.45946 32.1622H11.3514V34.0541H9.45946V32.1622ZM13.2432 32.1622H15.1351V34.0541H13.2432V32.1622ZM22.7027 32.1622H28.3784V34.0541H22.7027V32.1622ZM35.9459 32.1622H45.4054V34.0541H35.9459V32.1622ZM47.2973 32.1622H49.1892V34.0541H47.2973V32.1622ZM52.973 32.1622H54.8649V34.0541H52.973V32.1622ZM64.3243 32.1622H68.1081V34.0541H64.3243V32.1622ZM1.89189 34.0541H3.78378V35.9459H1.89189V34.0541ZM5.67568 34.0541H7.56757V35.9459H5.67568V34.0541ZM11.3514 34.0541H13.2432V35.9459H11.3514V34.0541ZM18.9189 34.0541H20.8108V35.9459H18.9189V34.0541ZM24.5946 34.0541H30.2703V35.9459H24.5946V34.0541ZM32.1622 34.0541H35.9459V35.9459H32.1622V34.0541ZM37.8378 34.0541H39.7297V35.9459H37.8378V34.0541ZM47.2973 34.0541H56.7568V35.9459H47.2973V34.0541ZM64.3243 34.0541H70V35.9459H64.3243V34.0541ZM1.89189 35.9459H11.3514V37.8378H1.89189V35.9459ZM13.2432 35.9459H20.8108V37.8378H13.2432V35.9459ZM22.7027 35.9459H26.4865V37.8378H22.7027V35.9459ZM28.3784 35.9459H32.1622V37.8378H28.3784V35.9459ZM39.7297 35.9459H43.5135V37.8378H39.7297V35.9459ZM52.973 35.9459H54.8649V37.8378H52.973V35.9459ZM58.6486 35.9459H60.5405V37.8378H58.6486V35.9459ZM62.4324 35.9459H64.3243V37.8378H62.4324V35.9459ZM68.1081 35.9459H70V37.8378H68.1081V35.9459ZM1.89189 37.8378H5.67568V39.7297H1.89189V37.8378ZM7.56757 37.8378H13.2432V39.7297H7.56757V37.8378ZM15.1351 37.8378H20.8108V39.7297H15.1351V37.8378ZM22.7027 37.8378H24.5946V39.7297H22.7027V37.8378ZM26.4865 37.8378H34.0541V39.7297H26.4865V37.8378ZM35.9459 37.8378H37.8378V39.7297H35.9459V37.8378ZM41.6216 37.8378H43.5135V39.7297H41.6216V37.8378ZM45.4054 37.8378H62.4324V39.7297H45.4054V37.8378ZM64.3243 37.8378H70V39.7297H64.3243V37.8378ZM1.89189 39.7297H7.56757V41.6216H1.89189V39.7297ZM13.2432 39.7297H15.1351V41.6216H13.2432V39.7297ZM17.027 39.7297H18.9189V41.6216H17.027V39.7297ZM30.2703 39.7297H41.6216V41.6216H30.2703V39.7297ZM43.5135 39.7297H45.4054V41.6216H43.5135V39.7297ZM52.973 39.7297H56.7568V41.6216H52.973V39.7297ZM62.4324 39.7297H64.3243V41.6216H62.4324V39.7297ZM66.2162 39.7297H68.1081V41.6216H66.2162V39.7297ZM0 41.6216H1.89189V43.5135H0V41.6216ZM5.67568 41.6216H7.56757V43.5135H5.67568V41.6216ZM11.3514 41.6216H17.027V43.5135H11.3514V41.6216ZM20.8108 41.6216H24.5946V43.5135H20.8108V41.6216ZM28.3784 41.6216H32.1622V43.5135H28.3784V41.6216ZM34.0541 41.6216H35.9459V43.5135H34.0541V41.6216ZM37.8378 41.6216H43.5135V43.5135H37.8378V41.6216ZM49.1892 41.6216H54.8649V43.5135H49.1892V41.6216ZM56.7568 41.6216H60.5405V43.5135H56.7568V41.6216ZM66.2162 41.6216H70V43.5135H66.2162V41.6216ZM0 43.5135H3.78378V45.4054H0V43.5135ZM5.67568 43.5135H11.3514V45.4054H5.67568V43.5135ZM17.027 43.5135H18.9189V45.4054H17.027V43.5135ZM20.8108 43.5135H22.7027V45.4054H20.8108V43.5135ZM26.4865 43.5135H32.1622V45.4054H26.4865V43.5135ZM35.9459 43.5135H43.5135V45.4054H35.9459V43.5135ZM45.4054 43.5135H47.2973V45.4054H45.4054V43.5135ZM52.973 43.5135H54.8649V45.4054H52.973V43.5135ZM56.7568 43.5135H62.4324V45.4054H56.7568V43.5135ZM68.1081 43.5135H70V45.4054H68.1081V43.5135ZM7.56757 45.4054H9.45946V47.2973H7.56757V45.4054ZM11.3514 45.4054H15.1351V47.2973H11.3514V45.4054ZM17.027 45.4054H22.7027V47.2973H17.027V45.4054ZM28.3784 45.4054H30.2703V47.2973H28.3784V45.4054ZM32.1622 45.4054H34.0541V47.2973H32.1622V45.4054ZM35.9459 45.4054H37.8378V47.2973H35.9459V45.4054ZM41.6216 45.4054H51.0811V47.2973H41.6216V45.4054ZM54.8649 45.4054H58.6486V47.2973H54.8649V45.4054ZM60.5405 45.4054H62.4324V47.2973H60.5405V45.4054ZM64.3243 45.4054H70V47.2973H64.3243V45.4054ZM0 47.2973H1.89189V49.1892H0V47.2973ZM3.78378 47.2973H7.56757V49.1892H3.78378V47.2973ZM9.45946 47.2973H11.3514V49.1892H9.45946V47.2973ZM17.027 47.2973H18.9189V49.1892H17.027V47.2973ZM22.7027 47.2973H28.3784V49.1892H22.7027V47.2973ZM30.2703 47.2973H32.1622V49.1892H30.2703V47.2973ZM35.9459 47.2973H45.4054V49.1892H35.9459V47.2973ZM49.1892 47.2973H51.0811V49.1892H49.1892V47.2973ZM52.973 47.2973H56.7568V49.1892H52.973V47.2973ZM62.4324 47.2973H68.1081V49.1892H62.4324V47.2973ZM0 49.1892H1.89189V51.0811H0V49.1892ZM7.56757 49.1892H9.45946V51.0811H7.56757V49.1892ZM11.3514 49.1892H15.1351V51.0811H11.3514V49.1892ZM17.027 49.1892H18.9189V51.0811H17.027V49.1892ZM24.5946 49.1892H30.2703V51.0811H24.5946V49.1892ZM45.4054 49.1892H49.1892V51.0811H45.4054V49.1892ZM51.0811 49.1892H52.973V51.0811H51.0811V49.1892ZM56.7568 49.1892H60.5405V51.0811H56.7568V49.1892ZM62.4324 49.1892H64.3243V51.0811H62.4324V49.1892ZM66.2162 49.1892H70V51.0811H66.2162V49.1892ZM0 51.0811H1.89189V52.973H0V51.0811ZM3.78378 51.0811H5.67568V52.973H3.78378V51.0811ZM7.56757 51.0811H11.3514V52.973H7.56757V51.0811ZM13.2432 51.0811H20.8108V52.973H13.2432V51.0811ZM22.7027 51.0811H26.4865V52.973H22.7027V51.0811ZM34.0541 51.0811H37.8378V52.973H34.0541V51.0811ZM39.7297 51.0811H43.5135V52.973H39.7297V51.0811ZM51.0811 51.0811H54.8649V52.973H51.0811V51.0811ZM58.6486 51.0811H60.5405V52.973H58.6486V51.0811ZM68.1081 51.0811H70V52.973H68.1081V51.0811ZM0 52.973H1.89189V54.8649H0V52.973ZM7.56757 52.973H9.45946V54.8649H7.56757V52.973ZM11.3514 52.973H13.2432V54.8649H11.3514V52.973ZM15.1351 52.973H20.8108V54.8649H15.1351V52.973ZM22.7027 52.973H24.5946V54.8649H22.7027V52.973ZM26.4865 52.973H30.2703V54.8649H26.4865V52.973ZM32.1622 52.973H34.0541V54.8649H32.1622V52.973ZM37.8378 52.973H66.2162V54.8649H37.8378V52.973ZM15.1351 54.8649H18.9189V56.7568H15.1351V54.8649ZM30.2703 54.8649H32.1622V56.7568H30.2703V54.8649ZM34.0541 54.8649H39.7297V56.7568H34.0541V54.8649ZM41.6216 54.8649H45.4054V56.7568H41.6216V54.8649ZM47.2973 54.8649H49.1892V56.7568H47.2973V54.8649ZM51.0811 54.8649H54.8649V56.7568H51.0811V54.8649ZM60.5405 54.8649H62.4324V56.7568H60.5405V54.8649ZM64.3243 54.8649H66.2162V56.7568H64.3243V54.8649ZM0 56.7568H13.2432V58.6486H0V56.7568ZM15.1351 56.7568H17.027V58.6486H15.1351V56.7568ZM18.9189 56.7568H24.5946V58.6486H18.9189V56.7568ZM28.3784 56.7568H30.2703V58.6486H28.3784V56.7568ZM41.6216 56.7568H43.5135V58.6486H41.6216V56.7568ZM47.2973 56.7568H51.0811V58.6486H47.2973V56.7568ZM52.973 56.7568H54.8649V58.6486H52.973V56.7568ZM56.7568 56.7568H58.6486V58.6486H56.7568V56.7568ZM60.5405 56.7568H64.3243V58.6486H60.5405V56.7568ZM66.2162 56.7568H70V58.6486H66.2162V56.7568ZM0 58.6486H1.89189V60.5405H0V58.6486ZM11.3514 58.6486H13.2432V60.5405H11.3514V58.6486ZM18.9189 58.6486H22.7027V60.5405H18.9189V58.6486ZM26.4865 58.6486H30.2703V60.5405H26.4865V58.6486ZM37.8378 58.6486H47.2973V60.5405H37.8378V58.6486ZM49.1892 58.6486H51.0811V60.5405H49.1892V58.6486ZM52.973 58.6486H54.8649V60.5405H52.973V58.6486ZM60.5405 58.6486H62.4324V60.5405H60.5405V58.6486ZM0 60.5405H1.89189V62.4324H0V60.5405ZM3.78378 60.5405H9.45946V62.4324H3.78378V60.5405ZM11.3514 60.5405H13.2432V62.4324H11.3514V60.5405ZM15.1351 60.5405H22.7027V62.4324H15.1351V60.5405ZM30.2703 60.5405H35.9459V62.4324H30.2703V60.5405ZM41.6216 60.5405H43.5135V62.4324H41.6216V60.5405ZM45.4054 60.5405H70V62.4324H45.4054V60.5405ZM0 62.4324H1.89189V64.3243H0V62.4324ZM3.78378 62.4324H9.45946V64.3243H3.78378V62.4324ZM11.3514 62.4324H13.2432V64.3243H11.3514V62.4324ZM15.1351 62.4324H17.027V64.3243H15.1351V62.4324ZM18.9189 62.4324H20.8108V64.3243H18.9189V62.4324ZM22.7027 62.4324H28.3784V64.3243H22.7027V62.4324ZM30.2703 62.4324H41.6216V64.3243H30.2703V62.4324ZM43.5135 62.4324H45.4054V64.3243H43.5135V62.4324ZM47.2973 62.4324H49.1892V64.3243H47.2973V62.4324ZM52.973 62.4324H58.6486V64.3243H52.973V62.4324ZM60.5405 62.4324H70V64.3243H60.5405V62.4324ZM0 64.3243H1.89189V66.2162H0V64.3243ZM3.78378 64.3243H9.45946V66.2162H3.78378V64.3243ZM11.3514 64.3243H13.2432V66.2162H11.3514V64.3243ZM15.1351 64.3243H20.8108V66.2162H15.1351V64.3243ZM24.5946 64.3243H34.0541V66.2162H24.5946V64.3243ZM39.7297 64.3243H41.6216V66.2162H39.7297V64.3243ZM45.4054 64.3243H47.2973V66.2162H45.4054V64.3243ZM52.973 64.3243H54.8649V66.2162H52.973V64.3243ZM58.6486 64.3243H60.5405V66.2162H58.6486V64.3243ZM66.2162 64.3243H70V66.2162H66.2162V64.3243ZM0 66.2162H1.89189V68.1081H0V66.2162ZM11.3514 66.2162H13.2432V68.1081H11.3514V66.2162ZM15.1351 66.2162H20.8108V68.1081H15.1351V66.2162ZM22.7027 66.2162H26.4865V68.1081H22.7027V66.2162ZM28.3784 66.2162H30.2703V68.1081H28.3784V66.2162ZM35.9459 66.2162H43.5135V68.1081H35.9459V66.2162ZM49.1892 66.2162H56.7568V68.1081H49.1892V66.2162ZM68.1081 66.2162H70V68.1081H68.1081V66.2162ZM0 68.1081H13.2432V70H0V68.1081ZM15.1351 68.1081H17.027V70H15.1351V68.1081ZM18.9189 68.1081H20.8108V70H18.9189V68.1081ZM22.7027 68.1081H24.5946V70H22.7027V68.1081ZM26.4865 68.1081H37.8378V70H26.4865V68.1081ZM41.6216 68.1081H43.5135V70H41.6216V68.1081ZM45.4054 68.1081H52.973V70H45.4054V68.1081ZM54.8649 68.1081H56.7568V70H54.8649V68.1081ZM58.6486 68.1081H60.5405V70H58.6486V68.1081ZM64.3243 68.1081H70V70H64.3243V68.1081Z" fill="var(--fill-0, black)"/>
</g>
<defs>
<clipPath id="clip0_0_29">
<rect width="70" height="70" fill="white"/>
</clipPath>
</defs>
</svg>
