<svg preserveAspectRatio="xMidYMid meet" width="100%" height="100%" overflow="visible" style="display: block;" viewBox="0 0 12 12" fill="none" xmlns="http://www.w3.org/2000/svg">
<g id="Img" clip-path="url(#clip0_0_13)">
<path id="Vector" d="M11.4141 7.40625L10.4297 6.82031C10.5234 6.28125 10.5234 5.71875 10.4297 5.17969L11.4141 4.59375C11.5312 4.52344 11.5781 4.40625 11.5547 4.26562C11.2969 3.44531 10.8516 2.67188 10.2656 2.0625C10.1719 1.96875 10.0312 1.94531 9.91406 1.99219L8.92969 2.57812C8.50781 2.22656 8.01562 1.94531 7.5 1.75781V0.609375C7.5 0.46875 7.40625 0.351562 7.28906 0.328125C6.42188 0.140625 5.53125 0.140625 4.71094 0.328125C4.59375 0.351562 4.5 0.46875 4.5 0.609375V1.75781C3.98438 1.94531 3.49219 2.22656 3.07031 2.57812L2.08594 2.01562C1.96875 1.94531 1.82812 1.96875 1.73438 2.0625C1.14844 2.67188 0.703125 3.44531 0.445312 4.26562C0.421875 4.40625 0.46875 4.54688 0.585938 4.59375L1.57031 5.17969C1.47656 5.71875 1.47656 6.28125 1.57031 6.82031L0.585938 7.40625C0.46875 7.47656 0.421875 7.59375 0.445312 7.73438C0.703125 8.55469 1.14844 9.32812 1.73438 9.9375C1.82812 10.0312 1.96875 10.0547 2.08594 10.0078L3.07031 9.42188C3.49219 9.77344 3.98438 10.0547 4.5 10.2422V11.3906C4.5 11.5312 4.59375 11.6484 4.73438 11.6719C5.57812 11.8594 6.46875 11.8594 7.28906 11.6719C7.40625 11.6484 7.5 11.5312 7.5 11.3906V10.2422C8.01562 10.0547 8.50781 9.77344 8.92969 9.42188L9.9375 10.0078C10.0312 10.0547 10.1953 10.0547 10.2656 9.9375C10.8516 9.32812 11.2969 8.55469 11.5547 7.73438C11.6016 7.59375 11.5312 7.45312 11.4141 7.40625ZM6 7.875C5.50272 7.875 5.02581 7.67746 4.67417 7.32583C4.32254 6.97419 4.125 6.49728 4.125 6C4.125 5.50272 4.32254 5.02581 4.67417 4.67417C5.02581 4.32254 5.50272 4.125 6 4.125C6.49728 4.125 6.97419 4.32254 7.32583 4.67417C7.67746 5.02581 7.875 5.50272 7.875 6C7.875 6.49728 7.67746 6.97419 7.32583 7.32583C6.97419 7.67746 6.49728 7.875 6 7.875Z" fill="var(--fill-0, #7599B8)"/>
</g>
<defs>
<clipPath id="clip0_0_13">
<rect width="12" height="12" fill="white"/>
</clipPath>
</defs>
</svg>
