<svg preserveAspectRatio="xMidYMid meet" width="100%" height="100%" overflow="visible" style="display: block;" viewBox="0 0 109.74 162.69" fill="none" xmlns="http://www.w3.org/2000/svg">
<path id="Vector" fill-rule="evenodd" clip-rule="evenodd" d="M0.984212 15.8458C0.984212 7.1847 8.07054 0 16.9284 0H93.4017C102.161 0 109.247 7.08637 109.247 15.8458V50.2932C109.543 50.5884 109.74 50.9821 109.74 51.2774V71.9459C109.74 72.438 109.543 72.8317 109.247 73.0286V162.69H102.358V16.6332C102.358 10.8264 97.7322 6.20053 91.9254 6.20053H82.969V6.39742C82.9823 7.31874 82.8106 8.23337 82.4641 9.08718C82.1176 9.94098 81.6034 10.7165 80.9519 11.3681C80.3004 12.0196 79.5247 12.5339 78.6709 12.8803C77.8171 13.2269 76.9025 13.3985 75.9811 13.3853H34.5458C33.6329 13.3983 32.7264 13.2297 31.8791 12.8894C31.0318 12.5489 30.2607 12.0436 29.6105 11.4025C28.9602 10.7615 28.444 9.99757 28.0916 9.15519C27.7392 8.3129 27.5578 7.4089 27.5579 6.49585V6.20053H18.3063C12.4995 6.20053 7.87369 10.8264 7.87369 16.6332V162.69H0.984212V81.8865C0.393685 81.6896 0 81.1975 0 80.5086V66.9264C0 66.2375 0.393685 65.7454 0.984212 65.5485V61.7101C0.393685 61.6117 0 61.0211 0 60.4305V46.7501C0 46.1596 0.393685 45.6675 0.984212 45.4706V38.3843C0.393685 38.2859 0 37.6954 0 37.1048V31.1996C0 30.5106 0.393685 30.0185 0.984212 29.8217V15.8458Z" fill="var(--fill-0, white)"/>
</svg>
