<svg preserveAspectRatio="xMidYMid meet" width="100%" height="100%" overflow="visible" style="display: block;" viewBox="0 0 12.6712 1.18105" fill="none" xmlns="http://www.w3.org/2000/svg">
<path id="Vector" fill-rule="evenodd" clip-rule="evenodd" d="M0.838419 0C0.700827 0.00738159 0.566877 0.0467504 0.447099 0.114956C0.32732 0.183261 0.225257 0.278532 0.148783 0.393192C0.0723102 0.507853 0.0236916 0.638753 0.00676311 0.775559C-0.0102637 0.912364 0.00498973 1.05114 0.0510508 1.18105C0.0510508 0.787369 0.444735 0.492106 0.838419 0.492106H11.7633C12.157 0.492106 12.5505 0.787369 12.649 1.18105C12.6791 1.04946 12.6786 0.912758 12.6478 0.781464C12.6169 0.650071 12.5564 0.527439 12.471 0.423014C12.3856 0.318589 12.2773 0.235029 12.1547 0.178732C12.0321 0.122534 11.8981 0.0950752 11.7633 0.0984215H0.93694L0.838419 0Z" fill="var(--fill-0, #010715)" fill-opacity="0.1"/>
</svg>
