<svg preserveAspectRatio="xMidYMid meet" width="100%" height="100%" overflow="visible" style="display: block;" viewBox="0 0 163.02 162" fill="none" xmlns="http://www.w3.org/2000/svg">
<g id="Img" clip-path="url(#clip0_0_37)">
<g id="Group" filter="url(#filter0_f_0_37)">
<path id="Vector" d="M130.436 40.5415C108.021 12.5231 92.738 19.1457 79.4926 38.8095C69.1001 54.245 53.5113 54.8054 34.6621 54.8054C15.8129 54.8054 -7.80458 27.4799 31.4221 25.9516C70.6488 24.4233 69.1205 12.1971 87.4602 4.55573C105.8 -3.08564 119.738 4.06669 134.002 37.485L130.436 40.5415Z" fill="url(#paint0_radial_0_37)" fill-opacity="0.6"/>
<path id="Vector_2" d="M130.436 40.5415C108.021 12.5231 92.738 19.1457 79.4926 38.8095C69.1001 54.245 53.5113 54.8054 34.6621 54.8054C15.8129 54.8054 -7.80458 27.4799 31.4221 25.9516C70.6488 24.4233 69.1205 12.1971 87.4602 4.55573C105.8 -3.08564 119.738 4.06669 134.002 37.485L130.436 40.5415Z" fill="url(#paint1_radial_0_37)" fill-opacity="0.1"/>
</g>
<g id="Group_2" opacity="0.3" filter="url(#filter1_f_0_37)">
<path id="Vector_3" d="M140.228 80.6434L156.998 66.4406L205.731 124.046L188.961 138.239L140.228 80.6434Z" fill="var(--fill-0, #276AA5)"/>
<path id="Vector_4" d="M135.826 75.4473C133.748 72.9918 132.708 71.7692 132.23 70.4855C131.794 69.3557 131.62 68.1424 131.719 66.9358C131.817 65.7292 132.187 64.5604 132.8 63.5165C133.503 62.3347 134.736 61.2954 137.181 59.2272C139.413 57.3321 140.533 56.3948 141.695 55.9465C142.722 55.5552 143.824 55.3997 144.919 55.4914C146.014 55.5831 147.075 55.9197 148.022 56.4763C149.102 57.108 150.04 58.2185 151.935 60.4498L156.998 66.4406L140.218 80.6434L135.826 75.4473ZM193.352 143.435C195.42 145.88 196.459 147.103 197.641 147.806C198.687 148.414 199.855 148.781 201.06 148.882C202.266 148.982 203.479 148.813 204.61 148.387C205.894 147.898 207.117 146.858 209.572 144.78C211.804 142.895 212.914 141.948 213.546 140.878C214.104 139.929 214.442 138.867 214.533 137.77C214.625 136.673 214.469 135.569 214.076 134.541C213.638 133.379 212.69 132.269 210.805 130.037L205.731 124.046L188.961 138.239L193.352 143.435Z" fill="var(--fill-0, #276AA5)"/>
</g>
<path id="Vector_5" d="M133.575 56.9348L149.021 44.4539L191.864 97.4646L176.428 109.956L133.575 56.9348Z" fill="var(--fill-0, #3DA5FF)"/>
<path id="Vector_6" d="M133.575 56.9348L149.018 44.4516L191.874 97.4681L176.431 109.951L133.575 56.9348Z" fill="url(#paint2_linear_0_37)"/>
<path id="Vector_7" d="M133.575 56.9348L149.018 44.4518L150.683 46.5119L135.24 58.9949L133.575 56.9348Z" fill="url(#paint3_radial_0_37)"/>
<path id="Vector_8" d="M129.703 52.1665C127.869 49.8945 126.962 48.7738 126.544 47.6021C126.182 46.5719 126.055 45.4738 126.171 44.388C126.287 43.3022 126.645 42.2561 127.217 41.326C127.869 40.2664 129 39.3596 131.251 37.5257C133.309 35.8751 134.338 35.0397 135.398 34.6627C136.334 34.3302 137.333 34.2125 138.32 34.3183C139.308 34.4241 140.259 34.7508 141.104 35.274C142.061 35.8548 142.897 36.8838 144.547 38.9419L149.01 44.4539L133.564 56.9348L129.703 52.1665Z" fill="var(--fill-0, #3DA5FF)"/>
<path id="Vector_9" d="M129.703 52.1665C127.869 49.8945 126.962 48.7738 126.544 47.6021C126.182 46.5719 126.055 45.4738 126.171 44.388C126.287 43.3022 126.645 42.2561 127.217 41.326C127.869 40.2664 129 39.3596 131.251 37.5257C133.309 35.8751 134.338 35.0397 135.398 34.6627C136.334 34.3302 137.333 34.2125 138.32 34.3183C139.308 34.4241 140.259 34.7508 141.104 35.274C142.061 35.8548 142.897 36.8838 144.547 38.9419L149.01 44.4539L133.564 56.9348L129.703 52.1665Z" fill="url(#paint4_radial_0_37)"/>
<path id="Vector_10" d="M129.703 52.1665C127.869 49.8945 126.962 48.7738 126.544 47.6021C126.182 46.5719 126.055 45.4738 126.171 44.388C126.287 43.3022 126.645 42.2561 127.217 41.326C127.869 40.2664 129 39.3596 131.251 37.5257C133.309 35.8751 134.338 35.0397 135.398 34.6627C136.334 34.3302 137.333 34.2125 138.32 34.3183C139.308 34.4241 140.259 34.7508 141.104 35.274C142.061 35.8548 142.897 36.8838 144.547 38.9419L149.01 44.4539L133.564 56.9348L129.703 52.1665Z" fill="url(#paint5_radial_0_37)"/>
<path id="Vector_11" d="M133.575 56.9341L149.018 44.451L147.352 42.3909L131.909 54.8739L133.575 56.9341Z" fill="url(#paint6_radial_0_37)"/>
<g id="Group_3" opacity="0.6" filter="url(#filter2_f_0_37)">
<path id="Vector_12" d="M96.3852 19.543C98.3211 14.3468 99.2788 11.7386 100.99 11.7386C102.702 11.7386 103.65 14.3366 105.575 19.543L106.319 21.5501C106.706 22.5893 106.9 23.1089 107.277 23.4859C107.654 23.8731 108.173 24.0667 109.213 24.4436L111.23 25.1874C116.426 27.1232 119.034 28.0809 119.034 29.7824C119.034 31.4941 116.426 32.4518 111.23 34.3774L109.213 35.1212C108.173 35.5084 107.654 35.7019 107.277 36.0789C106.9 36.4559 106.706 36.9755 106.319 38.0147L105.575 40.0219C103.65 45.218 102.692 47.8262 100.99 47.8262C99.2788 47.8262 98.3211 45.2282 96.3954 40.0219L95.6517 38.0147C95.2645 36.9755 95.0709 36.4559 94.6939 36.0789C94.317 35.7019 93.7974 35.5084 92.7581 35.1212L90.751 34.3774C85.5447 32.4518 82.9466 31.4941 82.9466 29.7926C82.9466 28.0809 85.5447 27.113 90.751 25.1874L92.7581 24.4436C93.7974 24.0667 94.317 23.8731 94.6939 23.4961C95.0709 23.1089 95.2645 22.5893 95.6517 21.5603L96.3852 19.543Z" fill="url(#paint7_linear_0_37)" fill-opacity="0.9"/>
</g>
<path id="Vector_13" d="M97.506 17.6887C98.4433 14.8766 98.9018 13.4604 99.5335 13.002C100.4 12.3601 101.571 12.3601 102.437 13.002C103.069 13.4604 103.527 14.8766 104.455 17.6887C105.147 19.7773 105.494 20.8267 106.034 21.7233C106.788 22.9516 107.821 23.9848 109.05 24.7391C109.946 25.2791 110.985 25.6255 113.084 26.3081C115.896 27.2353 117.302 27.704 117.771 28.3255C118.413 29.1915 118.413 30.3733 117.771 31.2394C117.302 31.8711 115.896 32.3295 113.084 33.2567C110.985 33.9393 109.946 34.2857 109.05 34.8359C107.822 35.5873 106.789 36.6169 106.034 37.8415C105.494 38.7381 105.147 39.7773 104.455 41.8762C103.538 44.6984 103.069 46.1044 102.437 46.5629C101.571 47.2047 100.4 47.2047 99.5335 46.5629C98.9018 46.1044 98.4433 44.6984 97.5162 41.8762C96.8234 39.7875 96.4871 38.7381 95.937 37.8415C95.1815 36.6169 94.1483 35.5873 92.9212 34.8359C92.0246 34.2857 90.9854 33.9393 88.8967 33.2567C86.0745 32.3295 84.6685 31.8711 84.21 31.2394C83.8974 30.818 83.7286 30.3071 83.7286 29.7824C83.7286 29.2577 83.8974 28.7469 84.21 28.3255C84.6685 27.704 86.0745 27.2353 88.8967 26.3081C90.9854 25.6255 92.0246 25.2893 92.9212 24.7391C94.1495 23.9848 95.1827 22.9516 95.937 21.7233C96.4871 20.8267 96.8234 19.7875 97.5162 17.6887" fill="var(--fill-0, #3DA5FF)"/>
<path id="Vector_14" d="M97.506 17.6887C98.4433 14.8766 98.9018 13.4604 99.5335 13.002C100.4 12.3601 101.571 12.3601 102.437 13.002C103.069 13.4604 103.527 14.8766 104.455 17.6887C105.147 19.7773 105.494 20.8267 106.034 21.7233C106.788 22.9516 107.821 23.9848 109.05 24.7391C109.946 25.2791 110.985 25.6255 113.084 26.3081C115.896 27.2353 117.302 27.704 117.771 28.3255C118.413 29.1915 118.413 30.3733 117.771 31.2394C117.302 31.8711 115.896 32.3295 113.084 33.2567C110.985 33.9393 109.946 34.2857 109.05 34.8359C107.822 35.5873 106.789 36.6169 106.034 37.8415C105.494 38.7381 105.147 39.7773 104.455 41.8762C103.538 44.6984 103.069 46.1044 102.437 46.5629C101.571 47.2047 100.4 47.2047 99.5335 46.5629C98.9018 46.1044 98.4433 44.6984 97.5162 41.8762C96.8234 39.7875 96.4871 38.7381 95.937 37.8415C95.1815 36.6169 94.1483 35.5873 92.9212 34.8359C92.0246 34.2857 90.9854 33.9393 88.8967 33.2567C86.0745 32.3295 84.6685 31.8711 84.21 31.2394C83.8974 30.818 83.7286 30.3071 83.7286 29.7824C83.7286 29.2577 83.8974 28.7469 84.21 28.3255C84.6685 27.704 86.0745 27.2353 88.8967 26.3081C90.9854 25.6255 92.0246 25.2893 92.9212 24.7391C94.1495 23.9848 95.1827 22.9516 95.937 21.7233C96.4871 20.8267 96.8234 19.7875 97.5162 17.6887" fill="url(#paint8_linear_0_37)"/>
<g id="Group_4" filter="url(#filter3_f_0_37)">
<path id="Vector_15" d="M97.3431 23.1191C98.8408 18.5343 99.5947 16.2521 100.991 16.2521C102.376 16.2521 103.13 18.5445 104.628 23.1191L104.77 23.547C105.076 24.4538 105.219 24.9021 105.545 25.2282C105.861 25.5542 106.319 25.6968 107.216 25.9923L107.654 26.1349C112.228 27.6428 114.521 28.3968 114.521 29.7824C114.521 31.1782 112.228 31.922 107.654 33.4299L107.226 33.5725C106.309 33.8782 105.871 34.0208 105.545 34.3367C105.219 34.6627 105.066 35.1212 104.77 36.0178L104.628 36.4457C103.13 41.0305 102.376 43.3127 100.991 43.3127C99.5947 43.3127 98.851 41.0305 97.3431 36.4457L97.2004 36.0178C96.8948 35.1212 96.7521 34.6627 96.4261 34.3367C96.1103 34.0208 95.6518 33.868 94.7552 33.5725L94.3171 33.4299C89.7424 31.922 87.4602 31.1782 87.4602 29.7824C87.4602 28.3968 89.7424 27.6428 94.3171 26.1349L94.7552 25.9923C95.6518 25.6968 96.1103 25.5542 96.4261 25.2282C96.7521 24.9021 96.905 24.4538 97.2004 23.547L97.3431 23.1191Z" fill="url(#paint9_linear_0_37)" fill-opacity="0.9"/>
</g>
<g id="Group_5" filter="url(#filter4_f_0_37)">
<path id="Vector_16" d="M97.6181 26.7259L86.6044 29.7824C89.0496 28.5598 94.3171 25.87 95.774 24.8919C97.2514 23.9036 99.8596 17.1283 100.991 13.868L97.6181 26.7259Z" fill="url(#paint10_linear_0_37)"/>
</g>
<g id="Group_6" opacity="0.6" filter="url(#filter5_f_0_37)">
<path id="Vector_17" d="M134.257 12.0954C135.031 10.0169 135.419 8.97772 136.091 8.97772C136.784 8.97772 137.161 10.0169 137.925 12.0954L138.231 12.9105C138.383 13.318 138.465 13.5218 138.618 13.6746C138.771 13.8274 138.974 13.909 139.392 14.0618L140.197 14.3572C142.275 15.1316 143.315 15.5085 143.315 16.1912C143.315 16.8738 142.275 17.261 140.197 18.0251L139.382 18.3308C138.974 18.4836 138.771 18.5549 138.618 18.7077C138.465 18.8606 138.383 19.0745 138.231 19.4821L137.925 20.2971C137.161 22.3756 136.784 23.4148 136.091 23.4148C135.419 23.4148 135.031 22.3756 134.257 20.287L133.962 19.4821C133.809 19.0745 133.727 18.8707 133.585 18.7077C133.432 18.5549 133.218 18.4836 132.8 18.3308L132.005 18.0251C129.917 17.261 128.877 16.8738 128.877 16.1912C128.877 15.5085 129.917 15.1316 132.005 14.3572L132.8 14.0516C133.218 13.9089 133.432 13.8274 133.574 13.6746C133.717 13.5218 133.809 13.318 133.962 12.9003L134.257 12.0954Z" fill="url(#paint11_linear_0_37)" fill-opacity="0.9"/>
</g>
<path id="Vector_18" d="M134.705 11.3516C135.082 10.2309 135.266 9.67054 135.52 9.47696C135.691 9.35864 135.894 9.29524 136.101 9.29524C136.309 9.29524 136.511 9.35864 136.682 9.47696C136.926 9.67054 137.11 10.2309 137.487 11.3516C137.762 12.1973 137.894 12.615 138.118 12.9716C138.424 13.4675 138.825 13.8682 139.321 14.1739C139.677 14.3878 140.095 14.5305 140.93 14.8055C142.051 15.1723 142.622 15.3659 142.805 15.6206C143.06 15.9568 143.06 16.4357 142.805 16.7719C142.622 17.0266 142.061 17.21 140.93 17.587C140.095 17.8621 139.677 17.9945 139.321 18.2187C138.825 18.5243 138.424 18.9251 138.118 19.4209C137.894 19.7775 137.762 20.1953 137.487 21.0307C137.11 22.1515 136.926 22.722 136.672 22.9054C136.502 23.0215 136.302 23.0836 136.096 23.0836C135.891 23.0836 135.69 23.0215 135.52 22.9054C135.266 22.722 135.082 22.1616 134.705 21.0307C134.552 20.4732 134.341 19.9336 134.074 19.4209C133.761 18.9251 133.36 18.5243 132.871 18.2187C132.515 17.9945 132.097 17.8621 131.262 17.587C130.141 17.21 129.57 17.0266 129.387 16.7719C129.269 16.6014 129.205 16.3988 129.205 16.1912C129.205 15.9836 129.269 15.781 129.387 15.6104C129.57 15.3659 130.131 15.1723 131.262 14.8055C132.097 14.5305 132.515 14.398 132.871 14.1739C133.367 13.8614 133.768 13.4607 134.074 12.9716C134.298 12.615 134.43 12.1973 134.705 11.3516Z" fill="var(--fill-0, #3DA5FF)"/>
<path id="Vector_19" d="M134.705 11.3516C135.082 10.2309 135.266 9.67054 135.52 9.47696C135.691 9.35864 135.894 9.29524 136.101 9.29524C136.309 9.29524 136.511 9.35864 136.682 9.47696C136.926 9.67054 137.11 10.2309 137.487 11.3516C137.762 12.1973 137.894 12.615 138.118 12.9716C138.424 13.4675 138.825 13.8682 139.321 14.1739C139.677 14.3878 140.095 14.5305 140.93 14.8055C142.051 15.1723 142.622 15.3659 142.805 15.6206C143.06 15.9568 143.06 16.4357 142.805 16.7719C142.622 17.0266 142.061 17.21 140.93 17.587C140.095 17.8621 139.677 17.9945 139.321 18.2187C138.825 18.5243 138.424 18.9251 138.118 19.4209C137.894 19.7775 137.762 20.1953 137.487 21.0307C137.11 22.1515 136.926 22.722 136.672 22.9054C136.502 23.0215 136.302 23.0836 136.096 23.0836C135.891 23.0836 135.69 23.0215 135.52 22.9054C135.266 22.722 135.082 22.1616 134.705 21.0307C134.552 20.4732 134.341 19.9336 134.074 19.4209C133.761 18.9251 133.36 18.5243 132.871 18.2187C132.515 17.9945 132.097 17.8621 131.262 17.587C130.141 17.21 129.57 17.0266 129.387 16.7719C129.269 16.6014 129.205 16.3988 129.205 16.1912C129.205 15.9836 129.269 15.781 129.387 15.6104C129.57 15.3659 130.131 15.1723 131.262 14.8055C132.097 14.5305 132.515 14.398 132.871 14.1739C133.367 13.8614 133.768 13.4607 134.074 12.9716C134.298 12.615 134.43 12.1973 134.705 11.3516Z" fill="url(#paint12_linear_0_37)"/>
<g id="Group_7" filter="url(#filter6_f_0_37)">
<path id="Vector_20" d="M134.634 13.5318C135.245 11.6978 135.541 10.7809 136.101 10.7809C136.662 10.7809 136.957 11.6978 137.558 13.5318L137.609 13.6948C137.731 14.0616 137.792 14.245 137.915 14.3672C138.047 14.4997 138.22 14.5608 138.587 14.6729L138.76 14.734C140.594 15.3453 141.511 15.6408 141.511 16.191C141.511 16.7513 140.594 17.0468 138.76 17.6479L138.587 17.709C138.231 17.8313 138.047 17.8924 137.915 18.0147C137.792 18.1471 137.731 18.3203 137.609 18.6871L137.558 18.8603C136.947 20.6943 136.651 21.6112 136.091 21.6112C135.531 21.6112 135.235 20.6943 134.634 18.8603L134.583 18.6871C134.461 18.3305 134.4 18.1471 134.277 18.0147C134.145 17.8924 133.972 17.8313 133.605 17.709L133.432 17.6479C131.598 17.0468 130.681 16.7513 130.681 16.191C130.681 15.6306 131.598 15.3351 133.432 14.734L133.605 14.6831C133.962 14.5608 134.145 14.4997 134.277 14.3774C134.4 14.2449 134.461 14.0616 134.583 13.6948L134.634 13.5318Z" fill="url(#paint13_linear_0_37)" fill-opacity="0.9"/>
</g>
<g id="Group_8" filter="url(#filter7_f_0_37)">
<path id="Vector_21" d="M134.746 14.9788L130.345 16.2014C131.323 15.7021 133.432 14.6222 134.013 14.235C134.593 13.8478 135.643 11.1377 136.091 9.82338L134.746 14.9788Z" fill="url(#paint14_linear_0_37)"/>
</g>
<g id="Group_9" opacity="0.6" filter="url(#filter8_f_0_37)">
<path id="Vector_22" d="M113.187 71.7285C114.246 68.8553 114.776 67.4289 115.713 67.4289C116.651 67.4289 117.181 68.8553 118.24 71.7183L118.648 72.8288C118.851 73.3994 118.953 73.6847 119.167 73.8884C119.371 74.0922 119.667 74.2043 120.237 74.4182L121.337 74.8258C124.2 75.8854 125.637 76.4152 125.637 77.3525C125.637 78.2899 124.211 78.8197 121.337 79.8793L120.237 80.2868C119.667 80.4906 119.381 80.6027 119.167 80.8166C118.964 81.0204 118.862 81.3057 118.648 81.8762L118.24 82.9868C117.181 85.8395 116.651 87.2761 115.713 87.2761C114.776 87.2761 114.246 85.8497 113.187 82.9868L112.779 81.8762C112.565 81.3057 112.453 81.0204 112.249 80.8166C112.046 80.6128 111.76 80.5008 111.18 80.2868L110.079 79.8793C107.216 78.8197 105.79 78.2899 105.79 77.3525C105.79 76.4152 107.216 75.8854 110.069 74.8258L111.19 74.4182C111.76 74.2043 112.046 74.1024 112.249 73.8884C112.453 73.6847 112.555 73.3994 112.779 72.8288L113.187 71.7285Z" fill="url(#paint15_linear_0_37)" fill-opacity="0.9"/>
</g>
<path id="Vector_23" d="M113.808 70.6994C114.318 69.1508 114.562 68.3765 114.909 68.1217C115.387 67.7651 116.029 67.7651 116.508 68.1217C116.855 68.3765 117.119 69.1508 117.629 70.6994C117.996 71.8507 118.189 72.4315 118.485 72.9205C118.899 73.5998 119.453 74.1499 120.145 74.5711C120.634 74.8767 121.215 75.0601 122.356 75.4371C123.915 75.9465 124.689 76.2012 124.944 76.5578C125.291 77.0265 125.291 77.6786 124.944 78.1472C124.689 78.4936 123.915 78.7585 122.366 79.268C121.215 79.6347 120.634 79.8283 120.145 80.134C119.459 80.5483 118.906 81.0985 118.485 81.7845C118.179 82.2736 117.996 82.8543 117.619 84.0056C117.109 85.5543 116.855 86.3286 116.508 86.5833C116.039 86.9297 115.387 86.9297 114.909 86.5833C114.562 86.3286 114.307 85.5543 113.798 84.0056C113.421 82.8543 113.238 82.2736 112.932 81.7845C112.514 81.1129 111.945 80.5478 111.271 80.134C110.782 79.8283 110.212 79.6347 109.06 79.2578C107.512 78.7483 106.737 78.4936 106.483 78.1472C106.308 77.917 106.214 77.6362 106.214 77.3474C106.214 77.0587 106.308 76.7778 106.483 76.5476C106.737 76.2012 107.501 75.9465 109.06 75.4371C110.212 75.0601 110.792 74.8767 111.271 74.5711C111.964 74.1567 112.518 73.6065 112.932 72.9205C113.238 72.4213 113.421 71.8507 113.798 70.6994" fill="var(--fill-0, #3DA5FF)"/>
<path id="Vector_24" d="M113.808 70.6994C114.318 69.1508 114.562 68.3765 114.909 68.1217C115.387 67.7651 116.029 67.7651 116.508 68.1217C116.855 68.3765 117.119 69.1508 117.629 70.6994C117.996 71.8507 118.189 72.4315 118.485 72.9205C118.899 73.5998 119.453 74.1499 120.145 74.5711C120.634 74.8767 121.215 75.0601 122.356 75.4371C123.915 75.9465 124.689 76.2012 124.944 76.5578C125.291 77.0265 125.291 77.6786 124.944 78.1472C124.689 78.4936 123.915 78.7585 122.366 79.268C121.215 79.6347 120.634 79.8283 120.145 80.134C119.459 80.5483 118.906 81.0985 118.485 81.7845C118.179 82.2736 117.996 82.8543 117.619 84.0056C117.109 85.5543 116.855 86.3286 116.508 86.5833C116.039 86.9297 115.387 86.9297 114.909 86.5833C114.562 86.3286 114.307 85.5543 113.798 84.0056C113.421 82.8543 113.238 82.2736 112.932 81.7845C112.514 81.1129 111.945 80.5478 111.271 80.134C110.782 79.8283 110.212 79.6347 109.06 79.2578C107.512 78.7483 106.737 78.4936 106.483 78.1472C106.308 77.917 106.214 77.6362 106.214 77.3474C106.214 77.0587 106.308 76.7778 106.483 76.5476C106.737 76.2012 107.501 75.9465 109.06 75.4371C110.212 75.0601 110.792 74.8767 111.271 74.5711C111.964 74.1567 112.518 73.6065 112.932 72.9205C113.238 72.4213 113.421 71.8507 113.798 70.6994" fill="url(#paint16_linear_0_37)"/>
<g id="Group_10" filter="url(#filter9_f_0_37)">
<path id="Vector_25" d="M113.706 73.6847C114.532 71.1681 114.949 69.9149 115.713 69.9149C116.478 69.9149 116.885 71.1681 117.721 73.6847L117.792 73.919C117.955 74.4182 118.036 74.6628 118.22 74.836C118.403 75.0092 118.638 75.1009 119.137 75.2639L119.371 75.3454C121.898 76.1706 123.151 76.5884 123.151 77.3525C123.151 78.1167 121.898 78.5242 119.381 79.3597L119.137 79.431C118.638 79.594 118.393 79.6755 118.22 79.8589C118.047 80.0423 117.955 80.2868 117.792 80.7759L117.71 81.0204C116.895 83.5369 116.478 84.7901 115.713 84.7901C114.949 84.7901 114.532 83.5369 113.706 81.0204L113.625 80.7759C113.462 80.2868 113.38 80.0321 113.207 79.8589C113.024 79.6755 112.779 79.594 112.28 79.431L112.046 79.3597C109.529 78.5242 108.276 78.1167 108.276 77.3525C108.276 76.5884 109.529 76.1706 112.046 75.3454L112.28 75.2639C112.779 75.1009 113.024 75.0194 113.197 74.8461C113.38 74.6628 113.462 74.4182 113.625 73.9292L113.706 73.6847Z" fill="url(#paint17_linear_0_37)" fill-opacity="0.9"/>
</g>
<g id="Group_11" filter="url(#filter10_f_0_37)">
<path id="Vector_26" d="M113.859 75.6714L107.797 77.3525C109.513 76.5128 111.199 75.6122 112.85 74.6526C113.666 74.1228 115.092 70.3938 115.703 68.6006L113.859 75.6714Z" fill="url(#paint18_linear_0_37)"/>
</g>
<g id="Group_12" opacity="0.8" filter="url(#filter11_f_0_37)">
<path id="Vector_27" d="M130.294 42.2837L133.35 39.7366L141.96 50.1187L138.445 52.9816L130.294 42.2837Z" fill="url(#paint19_linear_0_37)"/>
</g>
<g id="Group_13" opacity="0.6" filter="url(#filter12_f_0_37)">
<path id="Vector_28" d="M128.256 40.246L132.841 36.68L134.879 40.246L131.313 43.3026L128.256 40.246Z" fill="url(#paint20_linear_0_37)"/>
</g>
</g>
<defs>
<filter id="filter0_f_0_37" x="6.11149" y="-2.30724" width="131.966" height="61.1881" filterUnits="userSpaceOnUse" color-interpolation-filters="sRGB">
<feFlood flood-opacity="0" result="BackgroundImageFix"/>
<feBlend mode="normal" in="SourceGraphic" in2="BackgroundImageFix" result="shape"/>
<feGaussianBlur stdDeviation="2.03775" result="effect1_foregroundBlur_0_37"/>
</filter>
<filter id="filter1_f_0_37" x="119.465" y="43.2393" width="107.32" height="117.897" filterUnits="userSpaceOnUse" color-interpolation-filters="sRGB">
<feFlood flood-opacity="0" result="BackgroundImageFix"/>
<feBlend mode="normal" in="SourceGraphic" in2="BackgroundImageFix" result="shape"/>
<feGaussianBlur stdDeviation="6.11325" result="effect1_foregroundBlur_0_37"/>
</filter>
<filter id="filter2_f_0_37" x="73.8786" y="2.6706" width="54.2236" height="54.2236" filterUnits="userSpaceOnUse" color-interpolation-filters="sRGB">
<feFlood flood-opacity="0" result="BackgroundImageFix"/>
<feBlend mode="normal" in="SourceGraphic" in2="BackgroundImageFix" result="shape"/>
<feGaussianBlur stdDeviation="4.53399" result="effect1_foregroundBlur_0_37"/>
</filter>
<filter id="filter3_f_0_37" x="82.9364" y="11.7283" width="36.1083" height="36.1083" filterUnits="userSpaceOnUse" color-interpolation-filters="sRGB">
<feFlood flood-opacity="0" result="BackgroundImageFix"/>
<feBlend mode="normal" in="SourceGraphic" in2="BackgroundImageFix" result="shape"/>
<feGaussianBlur stdDeviation="2.2619" result="effect1_foregroundBlur_0_37"/>
</filter>
<filter id="filter4_f_0_37" x="84.3425" y="11.6061" width="18.91" height="20.4382" filterUnits="userSpaceOnUse" color-interpolation-filters="sRGB">
<feFlood flood-opacity="0" result="BackgroundImageFix"/>
<feBlend mode="normal" in="SourceGraphic" in2="BackgroundImageFix" result="shape"/>
<feGaussianBlur stdDeviation="1.13095" result="effect1_foregroundBlur_0_37"/>
</filter>
<filter id="filter5_f_0_37" x="125.25" y="5.35052" width="21.6915" height="21.6915" filterUnits="userSpaceOnUse" color-interpolation-filters="sRGB">
<feFlood flood-opacity="0" result="BackgroundImageFix"/>
<feBlend mode="normal" in="SourceGraphic" in2="BackgroundImageFix" result="shape"/>
<feGaussianBlur stdDeviation="1.8136" result="effect1_foregroundBlur_0_37"/>
</filter>
<filter id="filter6_f_0_37" x="128.867" y="8.96726" width="14.4576" height="14.4576" filterUnits="userSpaceOnUse" color-interpolation-filters="sRGB">
<feFlood flood-opacity="0" result="BackgroundImageFix"/>
<feBlend mode="normal" in="SourceGraphic" in2="BackgroundImageFix" result="shape"/>
<feGaussianBlur stdDeviation="0.906799" result="effect1_foregroundBlur_0_37"/>
</filter>
<filter id="filter7_f_0_37" x="129.448" y="8.92677" width="7.53954" height="8.17122" filterUnits="userSpaceOnUse" color-interpolation-filters="sRGB">
<feFlood flood-opacity="0" result="BackgroundImageFix"/>
<feBlend mode="normal" in="SourceGraphic" in2="BackgroundImageFix" result="shape"/>
<feGaussianBlur stdDeviation="0.448305" result="effect1_foregroundBlur_0_37"/>
</filter>
<filter id="filter8_f_0_37" x="100.797" y="62.4364" width="29.8322" height="29.8322" filterUnits="userSpaceOnUse" color-interpolation-filters="sRGB">
<feFlood flood-opacity="0" result="BackgroundImageFix"/>
<feBlend mode="normal" in="SourceGraphic" in2="BackgroundImageFix" result="shape"/>
<feGaussianBlur stdDeviation="2.49624" result="effect1_foregroundBlur_0_37"/>
</filter>
<filter id="filter9_f_0_37" x="105.79" y="67.4289" width="19.8473" height="19.8473" filterUnits="userSpaceOnUse" color-interpolation-filters="sRGB">
<feFlood flood-opacity="0" result="BackgroundImageFix"/>
<feBlend mode="normal" in="SourceGraphic" in2="BackgroundImageFix" result="shape"/>
<feGaussianBlur stdDeviation="1.24303" result="effect1_foregroundBlur_0_37"/>
</filter>
<filter id="filter10_f_0_37" x="106.554" y="67.3576" width="10.3923" height="11.238" filterUnits="userSpaceOnUse" color-interpolation-filters="sRGB">
<feFlood flood-opacity="0" result="BackgroundImageFix"/>
<feBlend mode="normal" in="SourceGraphic" in2="BackgroundImageFix" result="shape"/>
<feGaussianBlur stdDeviation="0.621514" result="effect1_foregroundBlur_0_37"/>
</filter>
<filter id="filter11_f_0_37" x="128.256" y="37.6988" width="15.7413" height="17.3205" filterUnits="userSpaceOnUse" color-interpolation-filters="sRGB">
<feFlood flood-opacity="0" result="BackgroundImageFix"/>
<feBlend mode="normal" in="SourceGraphic" in2="BackgroundImageFix" result="shape"/>
<feGaussianBlur stdDeviation="1.01887" result="effect1_foregroundBlur_0_37"/>
</filter>
<filter id="filter12_f_0_37" x="126.218" y="34.6423" width="10.698" height="10.698" filterUnits="userSpaceOnUse" color-interpolation-filters="sRGB">
<feFlood flood-opacity="0" result="BackgroundImageFix"/>
<feBlend mode="normal" in="SourceGraphic" in2="BackgroundImageFix" result="shape"/>
<feGaussianBlur stdDeviation="1.01887" result="effect1_foregroundBlur_0_37"/>
</filter>
<radialGradient id="paint0_radial_0_37" cx="0" cy="0" r="1" gradientTransform="matrix(-64.7392 -18.8816 12.541 -42.9971 135.391 38.2114)" gradientUnits="userSpaceOnUse">
<stop stop-color="#3DA5FF"/>
<stop offset="1" stop-color="#3DA5FF" stop-opacity="0"/>
</radialGradient>
<radialGradient id="paint1_radial_0_37" cx="0" cy="0" r="1" gradientTransform="matrix(-69.2807 -50.9463 166.943 -227.011 147.099 22.9359)" gradientUnits="userSpaceOnUse">
<stop stop-color="white"/>
<stop offset="1" stop-color="white" stop-opacity="0"/>
</radialGradient>
<linearGradient id="paint2_linear_0_37" x1="177.937" y1="80.2264" x2="162.494" y2="92.71" gradientUnits="userSpaceOnUse">
<stop stop-color="white" stop-opacity="0"/>
<stop offset="0.26" stop-color="white" stop-opacity="0.1"/>
<stop offset="0.5" stop-color="white" stop-opacity="0.35"/>
<stop offset="0.61" stop-color="white" stop-opacity="0.45"/>
<stop offset="0.89" stop-color="white" stop-opacity="0"/>
</linearGradient>
<radialGradient id="paint3_radial_0_37" cx="0" cy="0" r="1" gradientTransform="matrix(3.12079 3.86064 -14.2495 11.5182 139.006 47.8678)" gradientUnits="userSpaceOnUse">
<stop/>
<stop offset="1" stop-opacity="0"/>
</radialGradient>
<radialGradient id="paint4_radial_0_37" cx="0" cy="0" r="1" gradientUnits="userSpaceOnUse" gradientTransform="translate(139.978 35.6594) rotate(103.43) scale(35.0912 51.6639)">
<stop stop-color="white" stop-opacity="0.35"/>
<stop offset="0.37" stop-color="white" stop-opacity="0.75"/>
<stop offset="1" stop-color="white" stop-opacity="0.7"/>
</radialGradient>
<radialGradient id="paint5_radial_0_37" cx="0" cy="0" r="1" gradientUnits="userSpaceOnUse" gradientTransform="translate(130.294 38.2083) rotate(56.3099) scale(7.34703 17.035)">
<stop offset="0.1" stop-color="white" stop-opacity="0"/>
<stop offset="0.56" stop-color="white" stop-opacity="0.6"/>
<stop offset="1" stop-color="white" stop-opacity="0"/>
</radialGradient>
<radialGradient id="paint6_radial_0_37" cx="0" cy="0" r="1" gradientTransform="matrix(-3.12079 -3.86065 -14.2495 11.5182 143.579 53.5244)" gradientUnits="userSpaceOnUse">
<stop stop-color="white"/>
<stop offset="1" stop-color="white" stop-opacity="0"/>
</radialGradient>
<linearGradient id="paint7_linear_0_37" x1="87.5212" y1="22.7422" x2="106.187" y2="41.4177" gradientUnits="userSpaceOnUse">
<stop stop-color="white"/>
<stop offset="1" stop-color="white" stop-opacity="0.5"/>
</linearGradient>
<linearGradient id="paint8_linear_0_37" x1="87.5213" y1="22.7422" x2="106.187" y2="41.4177" gradientUnits="userSpaceOnUse">
<stop stop-color="white"/>
<stop offset="1" stop-color="white" stop-opacity="0.4"/>
</linearGradient>
<linearGradient id="paint9_linear_0_37" x1="94.0114" y1="21.5195" x2="105.881" y2="33.3891" gradientUnits="userSpaceOnUse">
<stop stop-color="white"/>
<stop offset="1" stop-color="white" stop-opacity="0.7"/>
</linearGradient>
<linearGradient id="paint10_linear_0_37" x1="108.031" y1="8.356" x2="78.9426" y2="33.7661" gradientUnits="userSpaceOnUse">
<stop stop-color="white" stop-opacity="0"/>
<stop offset="0.53" stop-color="white" stop-opacity="0.9"/>
<stop offset="1" stop-color="white" stop-opacity="0"/>
</linearGradient>
<linearGradient id="paint11_linear_0_37" x1="130.711" y1="13.3791" x2="138.18" y2="20.8473" gradientUnits="userSpaceOnUse">
<stop stop-color="white"/>
<stop offset="1" stop-color="white" stop-opacity="0.5"/>
</linearGradient>
<linearGradient id="paint12_linear_0_37" x1="130.711" y1="13.3792" x2="138.18" y2="20.8473" gradientUnits="userSpaceOnUse">
<stop stop-color="white"/>
<stop offset="1" stop-color="white" stop-opacity="0.4"/>
</linearGradient>
<linearGradient id="paint13_linear_0_37" x1="133.31" y1="12.8899" x2="138.057" y2="17.6377" gradientUnits="userSpaceOnUse">
<stop stop-color="white"/>
<stop offset="1" stop-color="white" stop-opacity="0.7"/>
</linearGradient>
<linearGradient id="paint14_linear_0_37" x1="138.913" y1="7.62267" x2="127.278" y2="17.7806" gradientUnits="userSpaceOnUse">
<stop stop-color="white" stop-opacity="0"/>
<stop offset="0.53" stop-color="white" stop-opacity="0.9"/>
<stop offset="1" stop-color="white" stop-opacity="0"/>
</linearGradient>
<linearGradient id="paint15_linear_0_37" x1="108.306" y1="73.4809" x2="118.576" y2="83.7509" gradientUnits="userSpaceOnUse">
<stop stop-color="white"/>
<stop offset="1" stop-color="white" stop-opacity="0.5"/>
</linearGradient>
<linearGradient id="paint16_linear_0_37" x1="108.306" y1="73.4809" x2="118.576" y2="83.7509" gradientUnits="userSpaceOnUse">
<stop stop-color="white"/>
<stop offset="1" stop-color="white" stop-opacity="0.4"/>
</linearGradient>
<linearGradient id="paint17_linear_0_37" x1="111.872" y1="72.8085" x2="118.403" y2="79.3291" gradientUnits="userSpaceOnUse">
<stop stop-color="white"/>
<stop offset="1" stop-color="white" stop-opacity="0.7"/>
</linearGradient>
<linearGradient id="paint18_linear_0_37" x1="119.585" y1="65.5644" x2="103.589" y2="79.543" gradientUnits="userSpaceOnUse">
<stop stop-color="white" stop-opacity="0"/>
<stop offset="0.53" stop-color="white" stop-opacity="0.9"/>
<stop offset="1" stop-color="white" stop-opacity="0"/>
</linearGradient>
<linearGradient id="paint19_linear_0_37" x1="126.728" y1="38.7177" x2="140.666" y2="51.1885" gradientUnits="userSpaceOnUse">
<stop stop-color="white" stop-opacity="0"/>
<stop offset="0.3" stop-color="white" stop-opacity="0.6"/>
</linearGradient>
<linearGradient id="paint20_linear_0_37" x1="120.737" y1="30.893" x2="132.525" y2="41.4483" gradientUnits="userSpaceOnUse">
<stop stop-color="white" stop-opacity="0"/>
<stop offset="0.3" stop-color="white" stop-opacity="0.6"/>
</linearGradient>
<clipPath id="clip0_0_37">
<rect width="163.02" height="162" fill="white"/>
</clipPath>
</defs>
</svg>
