<svg width="24" height="24" viewBox="0 0 24 24" fill="none" xmlns="http://www.w3.org/2000/svg">
<rect width="24" height="24" fill="#1E1E1E"/>
<g id="Container">
<g id="Container_2">
<g id="Background">
<path d="M-1224.66 -4H20C24.4184 -4 28 -0.418278 28 4V28H-1224.66V-4Z" fill="#276AA5"/>
<g id="Container_3">
<g id="Container_4">
<g id="Background_2">
<rect x="-152" width="176" height="24" rx="8" fill="#205583"/>
<g id="Button - Search">
<g id="Img" clip-path="url(#clip0_3_15489)">
<path id="Vector" d="M17.8359 16.3828L15.4922 14.039C15.3984 13.9453 15.2578 13.875 15.0937 13.875H14.7187C15.4824 12.8965 15.844 11.6636 15.73 10.4277C15.6159 9.19171 15.0347 8.04581 14.1049 7.22362C13.1751 6.40142 11.9667 5.96484 10.7261 6.00291C9.4855 6.04097 8.30612 6.55081 7.42847 7.42847C6.55081 8.30612 6.04097 9.4855 6.00291 10.7261C5.96484 11.9667 6.40142 13.1751 7.22362 14.1049C8.04581 15.0347 9.19171 15.6159 10.4277 15.73C11.6636 15.844 12.8965 15.4824 13.875 14.7187V15.0937C13.875 15.2578 13.9453 15.3984 14.039 15.4922L16.3828 17.8359C16.5937 18.0468 16.9453 18.0468 17.1797 17.8359L17.8359 17.1797C18.0468 16.9453 18.0468 16.5937 17.8359 16.3828ZM10.875 13.875C10.0793 13.875 9.31626 13.5589 8.75365 12.9963C8.19104 12.4337 7.87497 11.6706 7.87497 10.875C7.87497 10.0793 8.19104 9.31626 8.75365 8.75365C9.31626 8.19104 10.0793 7.87497 10.875 7.87497C11.6706 7.87497 12.4337 8.19104 12.9963 8.75365C13.5589 9.31626 13.875 10.0793 13.875 10.875C13.875 11.6706 13.5589 12.4337 12.9963 12.9963C12.4337 13.5589 11.6706 13.875 10.875 13.875Z" fill="white"/>
</g>
</g>
</g>
</g>
</g>
</g>
</g>
</g>
<defs>
<clipPath id="clip0_3_15489">
<rect width="12" height="12" fill="white" transform="translate(6 6)"/>
</clipPath>
</defs>
</svg>
