<svg preserveAspectRatio="xMidYMid meet" width="100%" height="100%" overflow="visible" style="display: block;" viewBox="0 0 16 16" fill="none" xmlns="http://www.w3.org/2000/svg">
<g id="Img">
<path id="Vector" d="M15.65 1.45L15.75 1.85C15.75 2.1 15.65 2.3 15.5 2.45C15.15 2.75 14.7 2.95 14.25 3.05L12.65 3.2H12.3L12.45 3.35C12.75 3.6 12.85 4 12.85 4.4V5L13.4 4.75C13.6 4.65 13.65 4.65 13.7 4.85L14.05 5.75L14.55 5.7C14.65 5.7 14.7 5.7 14.75 5.8L15.35 7.45L15.4 7.7C15.4 7.85 15.45 7.9 15.55 8C15.55 8.1 15.7 8.2 15.75 8.3L15.85 8.5C15.85 8.65 15.8 8.75 15.65 8.7C15.45 8.7 15.3 8.55 15.2 8.35C15.05 8.1 14.95 7.8 14.9 7.45C14.8 7.1 14.65 6.75 14.35 6.6H14.3C14.2809 6.79954 14.2809 7.00046 14.3 7.2L14.45 7.8C14.4775 7.86308 14.4917 7.93117 14.4917 8C14.4917 8.06883 14.4775 8.13692 14.45 8.2C14.45 8.3 14.35 8.3 14.3 8.2C14.1 8.1 14 7.9 13.95 7.7L13.75 6.65C13.5 6.65 13.25 6.7 13.05 6.8L12.65 7C12.565 7.04385 12.4707 7.06673 12.375 7.06673C12.2793 7.06673 12.185 7.04385 12.1 7L12 6.95L11.6 7.05C11.25 7.1 10.7 6.75 10.6 6.1V5.25H10.25C9.76828 5.30788 9.32403 5.53889 9 5.9C8.44158 6.52514 7.67996 6.93252 6.85 7.05C6.65 7.1 6.45 7.25 6.35 7.4L6 7.65C5.95 7.65 5.85 7.75 5.85 7.85L5.7 8.1C5.55 8.3 5.4 8.5 5.35 8.8L4.95 10.35C4.93359 10.4661 4.93359 10.5839 4.95 10.7C4.96745 10.7466 4.96687 10.7981 4.94837 10.8443C4.92988 10.8906 4.8948 10.9283 4.85 10.95C4.75 10.95 4.75 11.05 4.7 11.1L4.5 11.9C4.5 12.1 4.3 12.25 4.1 12.3C3.95 12.3 3.75 12.4 3.6 12.2C3.57937 12.1863 3.56245 12.1677 3.55075 12.1459C3.53904 12.1241 3.53292 12.0998 3.53292 12.075C3.53292 12.0502 3.53904 12.0259 3.55075 12.0041C3.56245 11.9823 3.57937 11.9637 3.6 11.95L3.9 11.85C4 11.85 4.15 11.7 4.15 11.6L4.2 11.1L4.5 9.5L4.6 8.6L4.15 8.95L3.65 9.4C3.5 9.5 3.4 9.6 3.35 9.75C3.35 9.80304 3.32893 9.85391 3.29142 9.89142C3.25391 9.92893 3.20304 9.95 3.15 9.95H3C2.79553 10.1795 2.59549 10.4128 2.4 10.65C2.3 11 1.9 11.15 1.65 10.95L1.6 10.85C1.6 10.7 1.7 10.5 1.85 10.45C2.1 10.4 2.3 10.2 2.4 10C2.7 9.5 3.05 9.1 3.4 8.7L4.65 7.3C4.6784 7.26453 4.69387 7.22044 4.69387 7.175C4.69387 7.12956 4.6784 7.08547 4.65 7.05C4.3 6.65 4.15 6.1 4.1 5.55C4.1 5.5 4.1 5.45 4 5.4L3.5 5.15L2.7 4.8C2.58714 4.75783 2.46286 4.75783 2.35 4.8C2.05 4.8 1.75 4.8 1.45 4.9L0.85 5C0.8 5 0.7 5.1 0.65 4.95C0.65 4.85 0.7 4.75 0.8 4.75L0.65 4.7L0.9 4.55C0.834014 4.56347 0.765986 4.56347 0.7 4.55C0.5 4.6 0.4 4.65 0.3 4.5C0.05 4.1 1.49012e-08 4.1 0.45 3.9L1.3 3.5L1.4 3.35L1.7 3.05L2.3 2.75C2.45 2.7 2.55 2.55 2.6 2.45C2.7 2.35 2.8 2.25 2.9 2.25H3.5C3.4 2.5 3.15 2.45 3 2.6H3.4L3.15 2.85L3.95 3.05L4.7 3.15H4.75C5.25 3.15 5.75 3.15 6.25 3.25H6.15C6.4485 3.2924 6.7515 3.2924 7.05 3.25C7.65 3.25 8.25 3.15 8.85 3.05C9.15 3.05 9.45 2.9 9.7 2.8L10.4 2.55C10.6913 2.45938 11.0005 2.44221 11.3 2.5L12.9 2.7C13.6139 2.76878 14.3339 2.66592 15 2.4L15.3 2.2C15.55 2.05 15.65 1.85 15.55 1.55V1.45H15.65ZM13.15 5.85L13.45 5.75C13.3 5.65 13.25 5.65 13.1 5.85H13.15Z" fill="var(--fill-0, #1D4268)"/>
</g>
</svg>
