<svg preserveAspectRatio="xMidYMid meet" width="100%" height="100%" overflow="visible" style="display: block;" viewBox="0 0 16 16" fill="none" xmlns="http://www.w3.org/2000/svg">
<g id="Img" clip-path="url(#clip0_0_14)">
<path id="Vector" d="M14 3.15C13.6 2.45 11.5 2.15 11.1 2.3L10.4 2.65C9.71016 3.07966 8.91269 3.30504 8.1 3.3H8.05H7.95C7.1 3.3 6.3 3.05 5.65 2.6L5 2.35C4.5 2.15 2.5 2.45 2 3.15C0.35 5.85 -0.6 12.1 0.5 13.25C0.613512 13.373 0.753579 13.4684 0.90954 13.529C1.0655 13.5897 1.23324 13.614 1.4 13.6C2 13.55 2.65 13 3.2 12.1L3.35 11.9C4.35 10.2 4.45 10.05 8.05 10.05C11.65 10.05 11.7 10.2 12.7 11.9L12.85 12.15C13.45 13 14.05 13.55 14.65 13.6H14.75C15.1 13.6 15.4 13.45 15.6 13.25C16.65 12.1 15.7 5.85 14 3.15ZM11.4 3.55H12.2C12.2 3.55 12.3 3.55 12.3 3.65V4.4L12.25 4.5L11.85 4.75C11.8348 4.75878 11.8176 4.7634 11.8 4.7634C11.7824 4.7634 11.7652 4.75878 11.75 4.75L11.35 4.5L11.3 4.4V3.65L11.4 3.55ZM9.1 5C9.14673 4.95419 9.20956 4.92854 9.275 4.92854C9.34044 4.92854 9.40327 4.95419 9.45 5L9.55 5.15C9.55 5.3 9.45 5.4 9.3 5.4C9.25357 5.4 9.20806 5.38707 9.16857 5.36266C9.12907 5.33825 9.09716 5.30333 9.07639 5.2618C9.05563 5.22028 9.04684 5.17379 9.05101 5.12755C9.05518 5.08131 9.07214 5.03714 9.1 5ZM6.6 5C6.64673 4.95419 6.70956 4.92854 6.775 4.92854C6.84044 4.92854 6.90327 4.95419 6.95 5L7.05 5.15C7.06421 5.20705 7.05786 5.26729 7.03206 5.32012C7.00627 5.37295 6.96268 5.415 6.90895 5.43888C6.85522 5.46276 6.7948 5.46694 6.73829 5.45069C6.68179 5.43443 6.63282 5.39878 6.6 5.35L6.55 5.15L6.6 5ZM3.9 6.15C3.70222 6.15 3.50888 6.09135 3.34443 5.98147C3.17998 5.87159 3.05181 5.71541 2.97612 5.53268C2.90043 5.34996 2.88063 5.14889 2.91921 4.95491C2.9578 4.76093 3.05304 4.58275 3.19289 4.44289C3.33275 4.30304 3.51093 4.2078 3.70491 4.16921C3.89889 4.13063 4.09996 4.15043 4.28268 4.22612C4.46541 4.30181 4.62159 4.42998 4.73147 4.59443C4.84135 4.75888 4.9 4.95222 4.9 5.15C4.9 5.41522 4.79464 5.66957 4.60711 5.85711C4.41957 6.04464 4.16522 6.15 3.9 6.15ZM7.55 7.95C7.55 8 7.5 8.05 7.4 8.05H6.65V8.8C6.65 8.9 6.65 8.95 6.55 8.95H5.8C5.78011 8.96989 5.75313 8.98107 5.725 8.98107C5.69687 8.98107 5.66989 8.96989 5.65 8.95C5.63011 8.93011 5.61893 8.90313 5.61893 8.875C5.61893 8.84687 5.63011 8.81989 5.65 8.8V8.05H4.9C4.87639 8.04284 4.85492 8.02997 4.83748 8.01252C4.82003 7.99508 4.80716 7.97361 4.8 7.95V7.15C4.8 7.15 4.8 7.05 4.9 7.05H5.65V6.3C5.65 6.2 5.7 6.15 5.8 6.15H6.5C6.55 6.15 6.6 6.2 6.6 6.3V7H7.35C7.45 7 7.5 7.05 7.5 7.1V8L7.55 7.95ZM8.05 5.8C7.91978 5.81005 7.78955 5.78063 7.67629 5.71559C7.56303 5.65054 7.472 5.55288 7.41505 5.43535C7.3581 5.31781 7.33788 5.18584 7.35702 5.05664C7.37617 4.92745 7.43379 4.80701 7.52238 4.71104C7.61097 4.61507 7.72641 4.54802 7.85367 4.51861C7.98092 4.48921 8.11409 4.49882 8.2358 4.5462C8.35751 4.59358 8.46212 4.67653 8.53601 4.78423C8.60989 4.89193 8.64961 5.01939 8.65 5.15C8.65 5.5 8.4 5.8 8.05 5.8ZM9.9 8.6C9.70222 8.6 9.50888 8.54135 9.34443 8.43147C9.17998 8.32159 9.05181 8.16541 8.97612 7.98268C8.90043 7.79996 8.88063 7.59889 8.91921 7.40491C8.9578 7.21093 9.05304 7.03275 9.19289 6.89289C9.33275 6.75304 9.51093 6.6578 9.70491 6.61921C9.89889 6.58063 10.1 6.60043 10.2827 6.67612C10.4654 6.75181 10.6216 6.87998 10.7315 7.04443C10.8414 7.20888 10.9 7.40222 10.9 7.6C10.9 7.86522 10.7946 8.11957 10.6071 8.30711C10.4196 8.49464 10.1652 8.6 9.9 8.6ZM11.05 5.65H10.3C10.2675 5.65184 10.2354 5.64308 10.2083 5.62505C10.1812 5.60701 10.1608 5.58067 10.15 5.55V4.8C10.15 4.7 10.2 4.65 10.3 4.65H11.05L11.15 4.7L11.4 5.1C11.4106 5.10938 11.4192 5.12093 11.425 5.13386C11.4308 5.14679 11.4339 5.16081 11.4339 5.175C11.4339 5.18919 11.4308 5.20321 11.425 5.21614C11.4192 5.22907 11.4106 5.24062 11.4 5.25L11.15 5.6L11.05 5.65ZM12.2 6.8H11.4C11.3693 6.78921 11.343 6.76875 11.325 6.7417C11.3069 6.71464 11.2982 6.68246 11.3 6.65V5.9L11.35 5.8L11.75 5.55H11.85L12.25 5.8V6.65L12.2 6.8ZM13.4 5.55C13.4 5.6 13.4 5.65 13.3 5.65H12.5H12.4L12.15 5.25V5.15V5.1L12.4 4.7H13.25C13.3 4.7 13.35 4.7 13.35 4.8V5.5L13.4 5.55Z" fill="var(--fill-0, #1D4268)"/>
</g>
<defs>
<clipPath id="clip0_0_14">
<rect width="16" height="16" fill="white"/>
</clipPath>
</defs>
</svg>
