<svg preserveAspectRatio="xMidYMid meet" width="100%" height="100%" overflow="visible" style="display: block;" viewBox="0 0 16 16" fill="none" xmlns="http://www.w3.org/2000/svg">
<g id="Img" clip-path="url(#clip0_0_34)">
<path id="Vector" d="M1.4 7.55L1 7.2L1.7 6.5L2.45 7.25L3.45 6.85L2.9 6.25L3.5 5.65L4.25 6.4L5.05 5.8L4.35 5.1L5.05 4.4L5.75 5.1L6.35 4.3L5.6 3.55L6.25 2.9L6.85 3.45L7.25 2.45L6.5 1.7L7.2 1L7.55 1.4C7.65 0.9 7.7 0.45 7.65 0C5.64481 0.0743419 3.7419 0.904186 2.32304 2.32304C0.904186 3.7419 0.0743419 5.64481 0 7.65C0.5 7.65 0.95 7.65 1.4 7.55ZM15.9 8.35C15.45 8.35 15.05 8.35 14.6 8.45L14.95 8.8L14.3 9.45L13.55 8.7L12.55 9.1L13.1 9.7L12.45 10.35L11.7 9.6L10.9 10.2L11.55 10.9L10.9 11.55L10.2 10.9L9.6 11.7L10.35 12.45L9.7 13.1L9.1 12.55L8.7 13.55L9.45 14.3L8.8 14.95L8.45 14.6C8.35 15.1 8.3 15.55 8.35 16C10.3552 15.9257 12.2581 15.0958 13.677 13.677C15.0958 12.2581 15.9257 10.3552 16 8.35H15.9Z" fill="var(--fill-0, #1D4268)"/>
<path id="Vector_2" d="M7.65 13.8L6.75 13L7.4 12.3L7.95 12.85L8.45 11.85L7.65 11.1L8.3 10.45L8.9 11.05L9.55 10.25L8.85 9.55L9.5 8.9L10.2 9.6L11 8.95L10.4 8.35L11.05 7.7L11.85 8.45L12.75 8.05H12.8L12.3 7.45L12.95 6.8L13.8 7.7C14.5193 7.5211 15.2589 7.43706 16 7.45C15.8828 5.52092 15.067 3.70058 13.705 2.32941C12.343 0.958243 10.5282 0.130149 8.6 0C8.6 0.75 8.55 1.5 8.35 2.2L9.25 3L8.5 3.7L8 3.2L7.5 4.2L8.3 4.9L7.6 5.6L7.05 5L6.4 5.8L7.05 6.45L6.4 7.1L5.75 6.45L4.95 7.1L5.55 7.65L4.85 8.35L4.1 7.6L3.2 8H3.15L3.65 8.55L3 9.25L2.15 8.35C1.46314 8.52043 0.757678 8.60441 0.05 8.6H0C0.128826 10.5202 0.949828 12.3285 2.31067 13.6893C3.67151 15.0502 5.4798 15.8712 7.4 16C7.4 15.25 7.45 14.5 7.65 13.8Z" fill="var(--fill-0, #1D4268)"/>
</g>
<defs>
<clipPath id="clip0_0_34">
<rect width="16" height="16" fill="white"/>
</clipPath>
</defs>
</svg>
