<svg preserveAspectRatio="xMidYMid meet" width="100%" height="100%" overflow="visible" style="display: block;" viewBox="0 0 16 16" fill="none" xmlns="http://www.w3.org/2000/svg">
<g id="Img" clip-path="url(#clip0_0_20)">
<path id="Vector" d="M2.18824 5.69412H3.64706V4.23529H2.18824C1.60788 4.23529 1.05129 4.46584 0.640919 4.87621C0.230546 5.28659 -2.98023e-08 5.84317 -2.98023e-08 6.42353L-2.98023e-08 11.7647H1.45882V8.61176H3.64706V7.15294H1.45882V6.42353C1.45882 6.02353 1.78824 5.69412 2.16471 5.69412H2.18824ZM8.72941 5.69412H10.1882V4.23529H8.72941C8.15725 4.2476 7.61268 4.48357 7.21243 4.89262C6.81218 5.30166 6.5881 5.85124 6.58824 6.42353V11.7647H8V8.61176H10.1882V7.15294H8V6.42353C8 6.02353 8.32941 5.69412 8.72941 5.69412ZM13.8353 4.23529H13.1294C12.8401 4.23218 12.553 4.28649 12.2848 4.39506C12.0166 4.50364 11.7726 4.66433 11.5669 4.86783C11.3612 5.07134 11.1979 5.31362 11.0864 5.58066C10.975 5.84769 10.9176 6.13418 10.9176 6.42353V11.7647H12.3765V6.42353C12.3765 6.02353 12.7059 5.69412 13.1059 5.69412H13.8353C14.2353 5.69412 14.5647 6.02353 14.5647 6.4V7.15294H13.1059V8.61176H14.5882V11.7647H16.0471V6.42353C16 5.22353 15.0353 4.23529 13.8353 4.23529ZM4.37647 4.23529H5.83529V11.7647H4.37647V4.23529Z" fill="var(--fill-0, #1D4268)"/>
</g>
<defs>
<clipPath id="clip0_0_20">
<rect width="16" height="16" fill="white"/>
</clipPath>
</defs>
</svg>
