<svg preserveAspectRatio="xMidYMid meet" width="100%" height="100%" overflow="visible" style="display: block;" viewBox="0 0 16 16" fill="none" xmlns="http://www.w3.org/2000/svg">
<g id="Img" clip-path="url(#clip0_0_37)">
<path id="Vector" d="M3.7 3.15C4.4971 2.43814 5.48432 1.97392 6.541 1.81408C7.59767 1.65425 8.67803 1.80573 9.65 2.25H9.6C8.86512 1.27703 7.8145 0.590183 6.62844 0.307354C5.44238 0.0245248 4.19486 0.163349 3.1 0.7V0.85C3.1 1.7 3.35 2.5 3.7 3.15ZM4 3.75C4.35 4.25 4.85 4.75 5.35 5.05C6.08989 4.65297 6.91087 4.43062 7.75 4.4L8.05 4.35V4.4C9.05 4.4 9.9 4.65 10.65 5.1C10.6 4.4 10.4 3.75 10.15 3.15L10.05 3.3L9.75 3.15C8.85941 2.63145 7.82679 2.41007 6.80189 2.51795C5.77699 2.62583 4.8131 3.05738 4.05 3.75H4ZM7.55 5.15C6.9 5.2 6.25 5.4 5.7 5.7C5.7 6.6 5.45 7.4 5.05 8.15V8.4H5C4.5 9.15 3.9 9.8 3.15 10.25C3.65 10.55 4.35 10.75 5 10.75V10.7L5.25 10.5C6.16277 9.96444 6.88208 9.15308 7.30438 8.18269C7.72667 7.21231 7.83018 6.13296 7.6 5.1L7.55 5.15ZM10.5 5.8C9.82998 5.40871 9.07509 5.18567 8.3 5.15L8.35 6.2C8.35 8.05 7.5 9.7 6.1 10.75C8.6 10.4 10.45 8.4 10.6 5.9L10.5 5.8ZM1.15 2.8C1.15 5.05 2.6 6.9 4.55 7.55C4.85 7.05 5 6.35 5.05 5.7C4.3 5.2 3.75 4.65 3.3 3.95L3.05 3.7L3.1 3.65C2.75 2.9 2.5 2 2.5 1.15V1.1C2 1.45 1.5 1.95 1.15 2.45H1.25L1.15 2.8ZM4.25 8.2C2.25 7.45 0.75 5.7 0.5 3.5C0.0668532 4.62871 0.0287715 5.87086 0.391962 7.02399C0.755152 8.17712 1.4982 9.17324 2.5 9.85L2.65 9.75C3.33498 9.35828 3.91752 8.81 4.35 8.15L4.25 8.2ZM13.25 15L12.6 11.85H12.2C12 11.85 11.75 12.2 11.7 12.65L11.3 15.8H12.45C12.95 15.8 13.3 15.45 13.25 15ZM15.85 11.9C15.3 10.9 14.6 10.6 13.95 10.6C15.2 10.1 15.2 9.7 15.2 9.7C13.4 8.85 12.5 9.9 12.15 10.7C11.8 9.9 10.9 8.85 9.1 9.7C9.1 9.7 9.1 10.1 10.4 10.65C9.85 10.7 9.3 11.05 8.8 11.9C8.8 11.9 9 12.2 10.05 12C9.81158 12.444 9.70735 12.9478 9.75 13.45C9.75 13.45 10.4 13.7 12.3 11.3C14.25 13.7 14.85 13.45 14.85 13.45C14.9059 12.9311 14.8011 12.4075 14.55 11.95C15.65 12.2 15.85 11.95 15.85 11.95V11.9Z" fill="var(--fill-0, #1D4268)"/>
</g>
<defs>
<clipPath id="clip0_0_37">
<rect width="16" height="16" fill="white"/>
</clipPath>
</defs>
</svg>
