<svg preserveAspectRatio="xMidYMid meet" width="100%" height="100%" overflow="visible" style="display: block;" viewBox="0 0 16 16" fill="none" xmlns="http://www.w3.org/2000/svg">
<g id="Img" clip-path="url(#clip0_0_18)">
<path id="Vector" d="M5.35 4.5C6.56279 3.43684 8.05301 2.74067 9.64665 2.49277C11.2403 2.24487 12.8716 2.45548 14.35 3.1C13.2269 1.65235 11.6409 0.63409 9.85709 0.21545C8.07332 -0.203191 6.19989 0.00315792 4.55 0.8V1C4.5 2.25 4.85 3.5 5.35 4.5Z" fill="var(--fill-0, #1D4268)"/>
<path id="Vector_2" d="M5.9 5.4C6.46322 6.19694 7.17655 6.8763 8 7.4C9.12606 6.79661 10.3736 6.4548 11.65 6.4L12.1 6.3V6.4C13.5 6.4 14.8 6.75 16 7.4C15.9 6.4 15.65 5.4 15.25 4.55L15.15 4.75L14.65 4.45C13.2775 3.66613 11.6924 3.33593 10.121 3.50654C8.54963 3.67714 7.07233 4.33983 5.9 5.4ZM11.35 7.5C10.35 7.6 9.4 7.85 8.55 8.35C8.5 9.6 8.15 10.85 7.55 11.95L7.45 12.45L7.35 12.4C6.63917 13.5623 5.66235 14.5392 4.5 15.25C5.39536 15.6743 6.36175 15.9286 7.35 16L7.25 15.85L7.7 15.55C9.08249 14.7676 10.1809 13.5666 10.8368 12.1198C11.4928 10.6731 11.6725 9.05542 11.35 7.5Z" fill="var(--fill-0, #1D4268)"/>
<path id="Vector_3" d="M15.75 8.5C14.7277 7.90742 13.5799 7.56478 12.4 7.5C12.7041 9.07636 12.5555 10.7066 11.9715 12.202C11.3875 13.6975 10.3919 14.9969 9.1 15.95C10.9188 15.7024 12.5971 14.8369 13.8534 13.4986C15.1097 12.1604 15.8676 10.4308 16 8.6L15.75 8.45V8.5ZM1.6 4C1.59759 5.58895 2.09989 7.13761 3.03447 8.42266C3.96905 9.7077 5.28761 10.6627 6.8 11.15C7.21873 10.2554 7.45662 9.28683 7.5 8.3C6.41235 7.63071 5.4895 6.72495 4.8 5.65L4.5 5.35L4.55 5.25C3.9 4 3.55 2.75 3.5 1.4C2.65 2 2 2.65 1.4 3.5H1.6V4Z" fill="var(--fill-0, #1D4268)"/>
<path id="Vector_4" d="M6.3 12.1C4.76732 11.5753 3.4165 10.6235 2.40664 9.35677C1.39679 8.09002 0.769968 6.56107 0.6 4.95C-0.109325 6.65326 -0.208102 8.54935 0.3204 10.3171C0.848901 12.0848 1.97219 13.6156 3.5 14.65L3.75 14.5C4.75927 13.9061 5.61546 13.0842 6.25 12.1H6.3Z" fill="var(--fill-0, #1D4268)"/>
</g>
<defs>
<clipPath id="clip0_0_18">
<rect width="16" height="16" fill="white"/>
</clipPath>
</defs>
</svg>
