<svg preserveAspectRatio="xMidYMid meet" width="100%" height="100%" overflow="visible" style="display: block;" viewBox="0 0 16 16" fill="none" xmlns="http://www.w3.org/2000/svg">
<g id="Img" clip-path="url(#clip0_0_17)">
<path id="Vector" d="M6.435 5.65C6.56008 5.65066 6.68407 5.62667 6.79989 5.57941C6.9157 5.53215 7.02107 5.46254 7.10998 5.37455C7.1989 5.28657 7.26961 5.18194 7.31808 5.06663C7.36656 4.95131 7.39184 4.82758 7.3925 4.7025C7.39316 4.57742 7.36917 4.45343 7.32191 4.33761C7.27465 4.2218 7.20504 4.11643 7.11706 4.02752C7.02907 3.9386 6.92444 3.86789 6.80913 3.81942C6.69381 3.77094 6.57008 3.74566 6.445 3.745C6.32024 3.74402 6.19652 3.76761 6.08088 3.81444C5.96524 3.86128 5.85996 3.93043 5.77105 4.01795C5.59149 4.1947 5.48949 4.43554 5.4875 4.6875C5.48551 4.93946 5.58369 5.18188 5.76045 5.36145C5.9372 5.54101 6.17804 5.64301 6.43 5.645L6.435 5.65Z" fill="var(--fill-0, #1D4268)"/>
<path id="Vector_2" d="M1.33 9.99H1.59C1.96652 9.81852 2.38165 9.74948 2.79341 9.78986C3.20517 9.83025 3.59897 9.97863 3.935 10.22C4.33059 9.9341 4.80687 9.78146 5.29495 9.78415C5.78303 9.78685 6.2576 9.94475 6.65 10.235C7.04848 9.95629 7.52361 9.80806 8.00989 9.81074C8.49616 9.81343 8.96962 9.9669 9.365 10.25C9.76292 9.96988 10.2383 9.82079 10.7249 9.82348C11.2115 9.82617 11.6852 9.9805 12.08 10.265C12.43 10.01 12.855 9.875 13.28 9.85L14.855 8.13C14.8972 8.08484 14.9252 8.02827 14.9354 7.96733C14.9457 7.90639 14.9378 7.84378 14.9128 7.78728C14.8877 7.73079 14.8466 7.68291 14.7946 7.64961C14.7425 7.61631 14.6818 7.59905 14.62 7.6L12.095 7.59L9.53 5.455C9.315 5.275 9.035 5.17 8.75 5.17H8.365C8.26953 5.16774 8.17542 5.19287 8.09378 5.24241C8.01215 5.29196 7.9464 5.36384 7.90433 5.44956C7.86226 5.53529 7.84561 5.63127 7.85636 5.72615C7.86711 5.82104 7.90481 5.91086 7.965 5.985L9.24 7.57L7.485 7.565L8.175 7.28C8.22974 7.26522 8.28072 7.23898 8.32455 7.203C8.36838 7.16703 8.40406 7.12215 8.42922 7.07134C8.45438 7.02052 8.46846 6.96494 8.47051 6.90828C8.47256 6.85161 8.46253 6.79516 8.44111 6.74266C8.41968 6.69016 8.38734 6.64282 8.34622 6.60377C8.30511 6.56473 8.25616 6.53487 8.20262 6.51618C8.14909 6.49748 8.0922 6.49039 8.03571 6.49536C7.97923 6.50033 7.92445 6.51725 7.875 6.545L7.155 6.835L6.355 6.205V6.195C6.28727 6.04116 6.17519 5.91102 6.0331 5.82122C5.89102 5.73141 5.72538 5.68603 5.55736 5.69086C5.38934 5.69569 5.22658 5.75052 5.08989 5.84834C4.95319 5.94616 4.84878 6.08253 4.79 6.24L4.29 7.545L1.935 7.53C1.72 7.53 1.525 7.655 1.445 7.855L0.845 9.25C0.810258 9.3305 0.796032 9.41837 0.803596 9.50573C0.81116 9.59308 0.840279 9.67719 0.888343 9.75053C0.936407 9.82386 1.00191 9.88413 1.07899 9.92592C1.15607 9.96771 1.24232 9.98973 1.33 9.99ZM8.36 5.7H8.75C8.91 5.7 9.07 5.76 9.19 5.865L11.26 7.585L9.915 7.575L8.365 5.7H8.36ZM6.105 7.555L6.26 7.145L6.785 7.56H6.105V7.555ZM15.85 11.075C15.801 11.0246 15.7425 10.9845 15.6779 10.957C15.6133 10.9294 15.5438 10.915 15.4735 10.9145C15.4033 10.914 15.3336 10.9275 15.2687 10.9542C15.2037 10.9809 15.1446 11.0203 15.095 11.07C15.0145 11.1497 14.9058 11.1944 14.7925 11.1944C14.6792 11.1944 14.5705 11.1497 14.49 11.07C14.2075 10.7976 13.8314 10.6437 13.439 10.64C13.0465 10.6362 12.6676 10.783 12.38 11.05L12.37 11.06C12.21 11.21 11.93 11.21 11.77 11.05C11.4874 10.7767 11.1102 10.623 10.717 10.6212C10.3239 10.6193 9.94517 10.7694 9.66 11.04C9.57792 11.1152 9.47036 11.1566 9.35902 11.1556C9.24767 11.1547 9.14082 11.1116 9.06 11.035L9.025 11.005C8.73961 10.7455 8.36676 10.6035 7.98108 10.6072C7.5954 10.6109 7.22535 10.7601 6.945 11.025C6.86355 11.1009 6.75634 11.1431 6.645 11.1431C6.53366 11.1431 6.42645 11.1009 6.345 11.025C6.06549 10.7458 5.68712 10.5882 5.29206 10.5863C4.897 10.5844 4.51715 10.7385 4.235 11.015C4.15175 11.0925 4.04171 11.1348 3.92799 11.1329C3.81426 11.131 3.70567 11.0852 3.625 11.005C3.34181 10.7328 2.96479 10.58 2.572 10.5781C2.17921 10.5762 1.80075 10.7255 1.515 10.995C1.43383 11.074 1.32476 11.1178 1.21147 11.1169C1.09819 11.116 0.98985 11.0704 0.91 10.99C0.807539 10.9064 0.67773 10.8637 0.545626 10.8701C0.413523 10.8765 0.288489 10.9317 0.194656 11.0249C0.100824 11.1181 0.0448436 11.2428 0.0375202 11.3748C0.0301968 11.5069 0.0720492 11.637 0.155 11.74C0.434513 12.0192 0.812884 12.1768 1.20794 12.1787C1.603 12.1806 1.98285 12.0265 2.265 11.75C2.34645 11.6741 2.45366 11.6319 2.565 11.6319C2.67634 11.6319 2.78355 11.6741 2.865 11.75C3.14719 12.0255 3.52513 12.1809 3.91948 12.1837C4.31383 12.1865 4.69393 12.0365 4.98 11.765C5.06117 11.686 5.17024 11.6422 5.28353 11.6431C5.39681 11.644 5.50515 11.6896 5.585 11.77C5.72241 11.91 5.88621 12.0215 6.06693 12.0978C6.24766 12.1742 6.44172 12.214 6.63792 12.2149C6.83411 12.2159 7.02854 12.1779 7.20998 12.1032C7.39142 12.0286 7.55627 11.9187 7.695 11.78C7.77645 11.7041 7.88366 11.6619 7.995 11.6619C8.10634 11.6619 8.21355 11.7041 8.295 11.78L8.33 11.815C8.61485 12.0756 8.98792 12.2184 9.37394 12.2147C9.75996 12.211 10.1302 12.061 10.41 11.795C10.4911 11.7165 10.5996 11.6726 10.7125 11.6726C10.8254 11.6726 10.9339 11.7165 11.015 11.795C11.2975 12.0679 11.6742 12.2216 12.067 12.2244C12.4598 12.2272 12.8386 12.0788 13.125 11.81L13.135 11.805C13.295 11.65 13.575 11.655 13.735 11.815C14.0145 12.0942 14.3929 12.2518 14.7879 12.2537C15.183 12.2556 15.5629 12.1015 15.845 11.825C16.05 11.62 16.055 11.28 15.845 11.075H15.85Z" fill="var(--fill-0, #1D4268)"/>
</g>
<defs>
<clipPath id="clip0_0_17">
<rect width="16" height="16" fill="white"/>
</clipPath>
</defs>
</svg>
