<svg preserveAspectRatio="xMidYMid meet" width="100%" height="100%" overflow="visible" style="display: block;" viewBox="0 0 16 16" fill="none" xmlns="http://www.w3.org/2000/svg">
<g id="Img" clip-path="url(#clip0_0_14)">
<path id="Vector" d="M0.25 9.4L0.1 10.9C-0.15 13.4 0.15 15.4 0.15 15.4L0.2 15.8H0.55C2.04089 16.0097 3.55127 16.0432 5.05 15.9C5.61667 15.9 6.15 15.85 6.65 15.75L0.25 9.4ZM8.25 0.5C7.75 0.65 7.25 0.75 6.8 0.95L6.9 0.9C5.4 1.4 4.15 2.2 3.2 3.2C1.85543 4.58528 0.92088 6.31593 0.5 8.2V8.25L7.75 15.5C8.25 15.35 8.75 15.25 9.2 15.05L9.1 15.1C10.6 14.6 11.85 13.8 12.8 12.8C14.1446 11.4147 15.0791 9.68407 15.5 7.8V7.75L8.25 0.5ZM11.4 7.75L10.15 6.5L9.4 7.25L10.65 8.5L10 9.15L8.75 7.95L7.95 8.7L9.2 9.95L8.55 10.6L7.3 9.35L6.5 10.15L7.75 11.4L7.1 12.05L5.85 10.8L5.1 11.55L4.5 10.9L5.25 10.15L4 8.9L4.65 8.25L5.9 9.5L6.7 8.7L5.45 7.45L6.1 6.8L7.35 8.05L8.1 7.25L6.9 6L7.55 5.35L8.8 6.6L9.55 5.85L8.3 4.6L8.9 4L10.15 5.25L10.9 4.5L11.55 5.2L10.8 5.9L12.05 7.15L11.4 7.75ZM15.75 6.65L15.9 5.1C16.15 2.6 15.85 0.6 15.85 0.6L15.8 0.2H15.45C15.35 0.2 13.45 -0.15 10.95 0.1C10.4167 0.1 9.9 0.15 9.4 0.25L15.75 6.65Z" fill="var(--fill-0, white)"/>
</g>
<defs>
<clipPath id="clip0_0_14">
<rect width="16" height="16" fill="white"/>
</clipPath>
</defs>
</svg>
