<svg preserveAspectRatio="xMidYMid meet" width="100%" height="100%" overflow="visible" style="display: block;" viewBox="0 0 16 16" fill="none" xmlns="http://www.w3.org/2000/svg">
<g id="Img" clip-path="url(#clip0_0_10)">
<path id="Vector" d="M14 3.1C13.6 2.4 11.5 2.1 11 2.2C10.7906 2.31872 10.5901 2.4524 10.4 2.6C9.8 2.9 9.2 3.3 8 3.3C6.8 3.3 6.2 2.9 5.6 2.6C5.37781 2.44804 5.14372 2.31427 4.9 2.2C4.5 2.1 2.4 2.4 2 3.2C0.3 5.8 -0.6 12.3 0.5 13.5C0.613451 13.6206 0.755075 13.7112 0.91216 13.7635C1.06925 13.8159 1.23687 13.8284 1.4 13.8C2 13.8 2.6 13.2 3.2 12.3L3.3 12C4.3 10.3 4.4 10.2 8 10.2C11.6 10.2 11.7 10.3 12.7 12L12.8 12.3C13.4 13.3 14 13.8 14.6 13.8C15 13.8 15.3 13.8 15.6 13.5C16.6 12.3 15.6 5.8 14 3V3.1ZM11.4 3.5H12.1L12.3 3.6V4.5L11.8 4.8C11.7848 4.80878 11.7676 4.8134 11.75 4.8134C11.7324 4.8134 11.7152 4.80878 11.7 4.8L11.3 4.5V3.6L11.4 3.5ZM9 5H9.3L9.4 5.2V5.4H9V5ZM6.6 5H6.9L7 5.2V5.4C7 5.45304 6.97893 5.50391 6.94142 5.54142C6.90391 5.57893 6.85304 5.6 6.8 5.6C6.74696 5.6 6.69609 5.57893 6.65858 5.54142C6.62107 5.50391 6.6 5.45304 6.6 5.4L6.5 5.2V5H6.6ZM3.9 6.2C3.63478 6.2 3.38043 6.09464 3.19289 5.90711C3.00536 5.71957 2.9 5.46522 2.9 5.2C2.9 4.6 3.3 4.2 3.9 4.2C4.4 4.2 4.9 4.6 4.9 5.2C4.9 5.8 4.4 6.2 3.9 6.2ZM7.5 8.1L7.4 8.2H6.6V9.1H5.8L5.6 9V8.2H5L4.8 8.1V7.3L5 7.2H5.7V6.4C5.7 6.3 5.7 6.2 5.9 6.2H6.6L6.7 6.4V7.2H7.6V8.1H7.5ZM8 5.9C7.91204 5.90123 7.82488 5.88311 7.74471 5.84691C7.66453 5.81071 7.59329 5.75732 7.53604 5.69053C7.47879 5.62374 7.43693 5.54518 7.41342 5.46041C7.38991 5.37564 7.38533 5.28674 7.4 5.2C7.4 4.8 7.7 4.5 8 4.5C8.3 4.5 8.6 4.8 8.6 5.2C8.6 5.6 8.3 5.9 8 5.9ZM9.9 8.7C9.63478 8.7 9.38043 8.59464 9.19289 8.40711C9.00536 8.21957 8.9 7.96522 8.9 7.7C8.9 7.1 9.3 6.7 9.9 6.7C10.4 6.7 10.9 7.1 10.9 7.7C10.9 8.3 10.4 8.7 9.9 8.7ZM11 5.7H10.3L10.1 5.6V4.8L10.3 4.7H11L11.3 5.1V5.3L11 5.7ZM12.1 7H11.4L11.3 6.9V6L11.7 5.7H11.8L12.2 6V7H12.1ZM13.4 5.7L13.3 5.8H12.5L12.2 5.4V5L12.4 4.6H13.3V5.5L13.4 5.7Z" fill="var(--fill-0, white)"/>
</g>
<defs>
<clipPath id="clip0_0_10">
<rect width="16" height="16" fill="white"/>
</clipPath>
</defs>
</svg>
