<svg preserveAspectRatio="xMidYMid meet" width="100%" height="100%" overflow="visible" style="display: block;" viewBox="0 0 16 16" fill="none" xmlns="http://www.w3.org/2000/svg">
<g id="Img" clip-path="url(#clip0_0_12)">
<path id="Vector" d="M0 1.96V0.56C0 0.26 0.26 0 0.57 0H15.43C15.74 0 16 0.25 16 0.56V1.96C16 2.27 15.74 2.53 15.43 2.53H0.57C0.418827 2.53 0.273845 2.46995 0.166949 2.36305C0.0600534 2.25616 0 2.11117 0 1.96ZM0.57 7.02H15.43C15.74 7.02 16 6.77 16 6.46V5.06C16 4.90883 15.9399 4.76384 15.8331 4.65695C15.7262 4.55005 15.5812 4.49 15.43 4.49H0.57C0.420543 4.48998 0.277057 4.54866 0.170444 4.6534C0.063831 4.75814 0.00262204 4.90057 0 5.05L0 6.45C0 6.77 0.26 7.02 0.57 7.02ZM0.57 16H15.43C15.74 16 16 15.75 16 15.44V14.04C16 13.8888 15.9399 13.7438 15.8331 13.6369C15.7262 13.5301 15.5812 13.47 15.43 13.47H0.57C0.418827 13.47 0.273845 13.5301 0.166949 13.6369C0.0600534 13.7438 0 13.8888 0 14.04L0 15.44C0 15.74 0.26 16 0.57 16ZM0.57 11.5H15.43C15.74 11.5 16 11.26 16 10.95V9.55C16 9.39883 15.9399 9.25384 15.8331 9.14695C15.7262 9.04005 15.5812 8.98 15.43 8.98H0.57C0.420543 8.97998 0.277057 9.03866 0.170444 9.1434C0.063831 9.24814 0.00262204 9.39057 0 9.54L0 10.94C0 11.26 0.26 11.51 0.57 11.51V11.5Z" fill="var(--fill-0, white)"/>
</g>
<defs>
<clipPath id="clip0_0_12">
<rect width="16" height="16" fill="white"/>
</clipPath>
</defs>
</svg>
