<svg preserveAspectRatio="xMidYMid meet" width="100%" height="100%" overflow="visible" style="display: block;" viewBox="0 0 12 12" fill="none" xmlns="http://www.w3.org/2000/svg">
<g id="Img" clip-path="url(#clip0_0_34)">
<path id="Vector" d="M11.8359 10.3828L9.49219 8.03906C9.39844 7.94531 9.25781 7.875 9.09375 7.875H8.71875C9.4824 6.89653 9.84407 5.66363 9.73002 4.42768C9.61597 3.19174 9.03478 2.04584 8.10497 1.22365C7.17516 0.401448 5.96674 -0.0351297 4.72614 0.00293526C3.48553 0.0410002 2.30615 0.550841 1.4285 1.4285C0.550841 2.30615 0.0410002 3.48553 0.00293526 4.72614C-0.0351297 5.96674 0.401448 7.17516 1.22365 8.10497C2.04584 9.03478 3.19174 9.61597 4.42768 9.73002C5.66363 9.84407 6.89653 9.4824 7.875 8.71875V9.09375C7.875 9.25781 7.94531 9.39844 8.03906 9.49219L10.3828 11.8359C10.5937 12.0469 10.9453 12.0469 11.1797 11.8359L11.8359 11.1797C12.0469 10.9453 12.0469 10.5937 11.8359 10.3828ZM4.875 7.875C4.07935 7.875 3.31629 7.55893 2.75368 6.99632C2.19107 6.43371 1.875 5.67065 1.875 4.875C1.875 4.07935 2.19107 3.31629 2.75368 2.75368C3.31629 2.19107 4.07935 1.875 4.875 1.875C5.67065 1.875 6.43371 2.19107 6.99632 2.75368C7.55893 3.31629 7.875 4.07935 7.875 4.875C7.875 5.67065 7.55893 6.43371 6.99632 6.99632C6.43371 7.55893 5.67065 7.875 4.875 7.875Z" fill="var(--fill-0, white)"/>
</g>
<defs>
<clipPath id="clip0_0_34">
<rect width="12" height="12" fill="white"/>
</clipPath>
</defs>
</svg>
