<svg preserveAspectRatio="xMidYMid meet" width="100%" height="100%" overflow="visible" style="display: block;" viewBox="0 0 16 16" fill="none" xmlns="http://www.w3.org/2000/svg">
<g id="Img" clip-path="url(#clip0_0_19)">
<path id="Vector" d="M7.25 0C5.39276 0.17916 3.65656 1.00187 2.34177 2.32579C1.02698 3.64971 0.216303 5.39156 0.05 7.25V7.3C2 7.5 4 8.5 5.8 10.2C7.6 11.9 8.5 14 8.75 15.95C10.5918 15.7746 12.3158 14.9662 13.6286 13.6626C14.9414 12.3589 15.7618 10.6405 15.95 8.8V8.75C14 8.5 12 7.5 10.2 5.8C8.4 4.1 7.5 2 7.25 0.05V0Z" fill="var(--fill-0, white)"/>
<path id="Vector_2" d="M16 7.75C15.9373 5.71443 15.1007 3.7794 13.6606 2.33936C12.2206 0.899312 10.2856 0.0626768 8.25 0C8.45 1.7 9.35 3.55 10.9 5.1C12.45 6.65 14.3 7.5 16 7.75ZM0 8.25C0.0626768 10.2856 0.899312 12.2206 2.33936 13.6606C3.7794 15.1007 5.71443 15.9373 7.75 16C7.55 14.3 6.6 12.45 5.1 10.9C3.6 9.35 1.7 8.5 0 8.25Z" fill="var(--fill-0, white)"/>
</g>
<defs>
<clipPath id="clip0_0_19">
<rect width="16" height="16" fill="white"/>
</clipPath>
</defs>
</svg>
