<svg width="16" height="16" viewBox="0 0 16 16" fill="none" xmlns="http://www.w3.org/2000/svg">
<path d="M8 0C5.87827 0 3.84344 0.842855 2.34315 2.34315C0.842855 3.84344 0 5.87827 0 8C0 10.1217 0.842855 12.1566 2.34315 13.6569C3.84344 15.1571 5.87827 16 8 16C10.1217 16 12.1566 15.1571 13.6569 13.6569C15.1571 12.1566 16 10.1217 16 8C16 5.87827 15.1571 3.84344 13.6569 2.34315C12.1566 0.842855 10.1217 0 8 0ZM8.5 2.5L11 1L12 1.5L13 2.5L13.5 3L14 3.5V4L13.5 6L11 7L8.5 5V2.5ZM2 3.5L2.5 3L3 2.5L4 1.5L5 1L7.5 2.5V5L5 7L2.5 6L2 4V3.5ZM2 12L1.5 11.5L1 10.5V10L0.5 9.5V8.5L2 6.5L5 7.5L5.5 11L4.5 12.5L2 12ZM10 15.5H9H8.5C8.16709 15.5238 7.83291 15.5238 7.5 15.5H7H6.5L5 13L6 11H10L11 13L10 15.5ZM15.5 9.5L15 10V10.5L14.5 11.5L14 12L11.5 12.5L10.5 11L11 7.5L14 6.5L15.5 8.5V9.5Z" fill="currentColor"/>
</svg>
