<svg xmlns="http://www.w3.org/2000/svg" viewBox="0 0 512 512" class="lang-flag-svg"><path d="M0 256c0 31 6 61 16 89l240 22 240-22a255 255 0 001-177l-241-23-241 23C5 196 0 225 0 256z" fill="#ffda44"></path><path d="M256 512c110 0 204-69 240-167H16c36 98 130 167 240 167z" fill="#d80027"></path><path d="M256 0C146 0 52 69 16 167h480A256 256 0 00256 0z" fill="#6da544"></path><circle cx="256" cy="256" fill="#0052b4" r="122.4"></circle><g fill="#ffda44"><path d="M256 161l22 68h72l-58 42 22 68-58-42-58 42 22-68-58-42h72z"></path><path d="M344 273l-70-23 43-59-18-14-43 60-43-60-18 14 43 59-70 23 7 21 70-23v74h22v-74l70 23z"></path></g></svg>