<svg xmlns="http://www.w3.org/2000/svg" viewBox="0 0 512 512" class="lang-flag-svg"><circle cx="256" cy="256" fill="#ffda44" r="256"></circle><g fill="#d80027"><path d="M295 509c42-6 80-23 112-47L256 256l39 253zM217 3c-42 6-80 23-112 47l151 206L217 3zM105 462c32 24 70 41 112 47l39-253-151 206zM50 105C26 137 9 175 3 217l253 39L50 105zM3 295c6 42 23 80 47 112l206-151L3 295zm506-78c-6-42-23-80-47-112L256 256l253-39zM407 50C375 26 337 9 295 3l-39 253L407 50zm55 357c24-32 41-70 47-112l-253-39 206 151z"></path><circle cx="256" cy="256" r="89"></circle></g><circle cx="256" cy="256" fill="#ffda44" r="66.8"></circle></svg>