<svg xmlns="http://www.w3.org/2000/svg" viewBox="0 0 512 512" class="lang-flag-svg"><circle cx="256" cy="256" fill="#f0f0f0" r="256"></circle><g fill="#d80027"><path d="M510 223H289V2a259 259 0 00-66 0v221H2a259 259 0 00-2 33l2 33h221v221a258 258 0 0066 0V289h221a259 259 0 002-33l-2-33z"></path><path d="M156 122V89h-34v33H89v34h33v33h34v-33h33v-34zm234 0V89h-34v33h-33v34h33v33h34v-33h33v-34zM156 356v-33h-34v33H89v34h33v33h34v-33h33v-34zm234 0v-33h-34v33h-33v34h33v33h34v-33h33v-34z"></path></g></svg>