<svg xmlns="http://www.w3.org/2000/svg" viewBox="0 0 512 512" class="lang-flag-svg"><circle cx="256" cy="256" fill="#f0f0f0" r="256"></circle><path d="M245 256h267c0-23-3-45-9-67H245v67zm0-134h229a257 257 0 00-59-66H245v66zm11 390c60 0 116-21 159-56H97c43 35 99 56 159 56zM38 390h436a254 254 0 0029-67H9a254 254 0 0029 67z" fill="#d80027"></path><path d="M256 256V0A256 256 0 000 256h256z" fill="#0052b4"></path><g fill="#ffda44"><path d="M170 219a63 63 0 1130-119 78 78 0 00-132 56 78 78 0 00132 56c-9 4-19 7-30 7z"></path><path d="M188 111l11 24 26-6-12 23 21 17-26 5v26l-20-16-20 16v-26l-26-5 21-17-12-23 26 6z"></path></g></svg>