<svg xmlns="http://www.w3.org/2000/svg" viewBox="0 0 512 512" class="lang-flag-svg"><path d="M12 178a256 256 0 000 156l244 11 244-11a256 256 0 000-156l-244-11-244 11z" fill="#f0f0f0"></path><path d="M500 178l-244-11-244 11a255 255 0 00-6 22h500a254 254 0 00-6-22zM6 312a255 255 0 006 22l244 11 244-11a255 255 0 006-22H6z" fill="#d80027"></path><path d="M256 512c114 0 211-75 244-178H12a256 256 0 00244 178z" fill="#6da544"></path><path d="M256 0C142 0 45 75 12 178h488A256 256 0 00256 0z" fill="#338af3"></path><path d="M117 106c0-24 17-44 39-49a50 50 0 00-10-1 50 50 0 1010 99c-22-5-39-25-39-49zm69 23l3 10h11l-9 6 4 11-9-7-9 7 3-11-8-6h11zm35 0l3 10h11l-9 6 4 11-9-7-9 7 3-11-8-6h11zm35 0l3 10h11l-9 6 4 11-9-7-9 7 3-11-8-6h11zm35 0l3 10h11l-9 6 4 11-9-7-9 7 4-11-9-6h11zm35 0l3 10h11l-8 6 3 11-9-7-9 7 4-11-9-6h11zM221 92l3 11h11l-9 6 4 10-9-6-9 6 3-10-8-6h11zm35 0l3 11h11l-9 6 4 10-9-6-9 6 3-10-8-6h11zm35 0l3 11h11l-9 6 4 10-9-6-9 6 4-10-9-6h11zm35 0l3 11h11l-8 6 3 10-9-6-9 6 4-10-9-6h11zm-70-36l3 10h11l-9 7 4 10-9-6-9 6 3-10-8-7h11zm35 0l3 10h11l-9 7 4 10-9-6-9 6 4-10-9-7h11zm35 0l3 10h11l-8 7 3 10-9-6-9 6 4-10-9-7h11z" fill="#f0f0f0"></path></svg>