<svg xmlns="http://www.w3.org/2000/svg" viewBox="0 0 512 512" class="lang-flag-svg"><circle cx="256" cy="256" fill="#f0f0f0" r="256"></circle><path d="M339 189h-33v11c0 25-6 49-17 66-3 5-9 13-16 18v-95h-34v95c-7-5-13-13-16-18a127 127 0 01-17-77h-33a190 190 0 000 11c0 69 36 123 83 123s83-54 83-123v-11z" fill="#d80027"></path><path d="M106 122h33v23h34v-23h33v23h33v-23h34v23h33v-23h33v23h34v-23h33v23h81a256 256 0 00-462 0h81v-23z" fill="#6da544"></path><path d="M406 367v23h-33v-23h-34v23h-33v-23h-33v23h-34v-23h-33v23h-33v-23h-34v23h-33v-23H25a256 256 0 00462 0h-81z" fill="#d80027"></path></svg>