<svg xmlns="http://www.w3.org/2000/svg" viewBox="0 0 512 512" class="lang-flag-svg"><path d="M256 512c31 0 61-6 89-16l11-240-11-240a255 255 0 00-178 0l-11 240 11 240c28 10 58 16 89 16z" fill="#0052b4"></path><path d="M0 256c0 110 69 204 167 240V16A256 256 0 000 256zM345 16v480a256 256 0 000-480z" fill="#a2001d"></path><g fill="#ffda44"><path d="M122 256h23v89h-23zm-89 0h23v89H33z"></path><circle cx="89" cy="289.4" r="22.3"></circle><circle cx="89" cy="211.5" r="11.1"></circle><path d="M67 323h44v22H67zm0-89h44v22H67zm22-100l8 24h25l-20 15 8 24-21-15-21 15 8-24-20-15h25z"></path></g></svg>