<svg xmlns="http://www.w3.org/2000/svg" viewBox="0 0 48 48" class="lang-flag-svg"><g clip-path="url(#a)"><circle cx="24" cy="24" fill="#04BDD6" r="24"></circle><mask height="48" id="b" maskUnits="userSpaceOnUse" style="mask-type:alpha" width="48" x="0" y="0"><circle cx="24" cy="24" fill="#D9D9D9" r="24"></circle></mask><g mask="url(#b)"><path d="M7.2 14c0 .98.86 1.48 1.54 1.48.91 0 1.4-.56 1.4-1.28 0-.41-.07-.67-.26-1.07 0 0-1.5-3.18-2.1-4.4a1.4 1.4 0 0 1-.09-.59c0-.4.38-.72.78-.73.36 0 .75.34.75.74 0 .49-.25.7-.5.7-.32 0-.44-.12-.44-.35 0-.15.07-.22.18-.22.27 0 .2.37.2.37a.25.25 0 0 0 .17-.35c.1-.02.2-.08.26-.15A.5.5 0 0 0 8.83 8c.07-.2-.02-.31-.2-.36.03.07.04.15.02.23-.28-.08-.72.05-.72.55s.34.92.98.81a.5.5 0 0 0-.25.4.88.88 0 0 1 .25-.05c-.08.13-.18.24-.17.5.11-.05.22-.15.38-.08-.24.47.05 1.13.8 1.28a1.53 1.53 0 0 1-.41-1.02c0-1.13.31-1.32.31-2.1 0-.34-.17-.7-.5-.93v.01a.66.66 0 0 0 .44-.32 2.93 2.93 0 0 0-1.61.02c-.45.05-.76.4-.86.57a1.8 1.8 0 0 0 0 1.4l2.14 4.58c.1.2.14.42.14.64 0 .58-.52.78-.82.78-.35 0-.71-.27-.71-.62 0-.21.11-.34.28-.34.4 0 .38.34.3.56.25-.11.4-.32.35-.53.16-.03.3-.1.4-.23-.1-.13-.21-.22-.4-.22.08-.34-.14-.48-.35-.56.07.25.11.53-.3.53-.3 0-.53.05-.67.25l-.03-1.3c-.02-.39.51-.38.85-.26-.13-.45-.39-.7-1-.63a.48.48 0 0 0 .3-.48c0-.36-.28-.76-.48-.89L7.2 14Zm.1 30.54s-.46.4-.62.2c-.24-.32.77-1.88.77-2.43 0-.9-.6-1.15-1.32-1.28-.5-.08-1.3.04-1.3.04.15.2.25.27.5.28a1.08 1.08 0 0 0-.57.98c0 .78.32 1.1.32 1.97 0 .49-.4 1.1-.4 1.1.7-.07 1.04-.72.85-1.24a.34.34 0 0 1 .3.1c.04-.15-.04-.32-.14-.46.08-.05.15-.02.28 0 0-.14-.1-.3-.31-.45.62.17 1-.28 1-.74 0-.35-.23-.6-.47-.6a.47.47 0 0 0-.25.08c-.05-.1-.02-.22.02-.32-.17.05-.28.15-.2.37a.43.43 0 0 0-.31.14.36.36 0 0 0 .3.15c-.09.2.02.31.18.4 0 0-.1-.4.15-.4.12 0 .22.04.22.2s-.13.36-.43.35c-.3-.01-.53-.2-.53-.69 0-.44.35-.66.81-.68.42 0 .74.22.74.66 0 .58-.83 1.91-.83 2.43 0 .4.34.61.68.61.44 0 .81-.44.81-.44l-.25-.33ZM7.2 34c0-.98.86-1.48 1.54-1.48.91 0 1.4.56 1.4 1.28 0 .41-.07.67-.26 1.07 0 0-1.5 3.18-2.1 4.4a1.4 1.4 0 0 0-.09.59c0 .4.38.72.78.73.36 0 .75-.34.75-.74 0-.49-.25-.7-.5-.7-.32 0-.44.13-.44.35 0 .15.07.22.18.22.27 0 .2-.37.2-.37a.25.25 0 0 1 .17.35c.1.02.2.07.26.15a.5.5 0 0 1-.26.15c.07.2-.02.31-.2.35a.37.37 0 0 0 .02-.22c-.28.08-.72-.05-.72-.55s.34-.92.98-.82c-.15-.07-.23-.22-.25-.39a.9.9 0 0 0 .25.05c-.08-.13-.18-.25-.17-.5.11.05.22.15.38.08-.24-.47.05-1.13.8-1.28-.28.32-.41.67-.41 1.02 0 1.13.31 1.32.31 2.1a1.17 1.17 0 0 1-.5.93v-.01c.22.06.36.17.44.31-.5.15-1.22.15-1.61-.01a1.2 1.2 0 0 1-.86-.58 1.78 1.78 0 0 1 0-1.39l2.14-4.58c.1-.2.14-.42.14-.64 0-.58-.52-.78-.82-.78-.35 0-.71.27-.71.62 0 .21.11.34.28.34.4 0 .38-.34.3-.56.25.11.4.32.35.53.16.03.3.1.4.23-.1.13-.21.22-.4.22.08.34-.14.48-.35.56.07-.25.11-.53-.3-.53-.3 0-.53-.05-.67-.25l-.03 1.3c-.02.39.51.38.85.26-.13.45-.39.7-1 .63a.48.48 0 0 1 .3.47c0 .37-.28.77-.48.9L7.2 34Z" fill="#FFDA44"></path><path d="M7.4 34c0-.98-.87-1.48-1.55-1.48-.92 0-1.4.56-1.4 1.28 0 .41.07.67.26 1.07 0 0 1.5 3.18 2.1 4.4.07.16.1.33.1.59 0 .4-.39.72-.78.73-.37 0-.76-.34-.76-.74 0-.49.25-.7.5-.7.32 0 .44.13.44.35 0 .15-.07.22-.18.22-.27 0-.19-.37-.19-.37a.25.25 0 0 0-.18.35c-.1.02-.2.07-.26.15a.5.5 0 0 0 .26.15c-.06.2.02.31.2.35a.37.37 0 0 1-.02-.22c.29.08.72-.05.72-.55s-.34-.92-.98-.82c.15-.07.23-.22.25-.39a.9.9 0 0 1-.25.05c.08-.13.18-.25.18-.5-.12.05-.23.15-.38.08.24-.47-.06-1.13-.8-1.28.27.32.4.67.4 1.02 0 1.13-.3 1.32-.3 2.1a1.16 1.16 0 0 0 .49.93v-.01a.66.66 0 0 0-.44.31c.5.15 1.22.15 1.61-.01.45-.05.76-.4.86-.58.09-.17.27-.81 0-1.39-.3-.63-1.7-3.63-2.13-4.58-.1-.2-.15-.42-.15-.64 0-.58.52-.78.82-.78.35 0 .71.27.71.62 0 .21-.11.34-.28.34-.4 0-.38-.34-.3-.56-.25.11-.4.32-.35.53-.16.03-.3.1-.4.23.1.13.21.22.4.22-.08.34.14.48.35.56-.07-.25-.11-.53.3-.53.3 0 .53-.05.67-.25l.03 1.3c.02.39-.51.38-.85.26.13.45.4.7 1 .63a.48.48 0 0 0-.3.47c0 .37.29.77.48.9L7.4 34Zm-.1 10.54s.45.4.6.2c.26-.32-.76-1.88-.76-2.43 0-.9.6-1.15 1.33-1.28.49-.08 1.3.04 1.3.04-.16.2-.26.27-.51.28a1.08 1.08 0 0 1 .57.98c0 .78-.31 1.1-.31 1.97 0 .49.39 1.1.39 1.1-.7-.07-1.04-.72-.84-1.24a.34.34 0 0 0-.3.1c-.05-.15.03-.32.14-.46-.1-.05-.15-.02-.3 0 .02-.14.1-.3.32-.45-.62.17-1-.28-1-.74 0-.35.24-.6.47-.6.1 0 .18.04.25.09.05-.1.03-.23-.02-.33.17.05.28.16.2.37a.44.44 0 0 1 .31.15.37.37 0 0 1-.3.14c.09.2-.02.31-.17.4 0 0 .1-.4-.16-.4-.11 0-.22.04-.22.2s.13.36.43.35c.3-.01.54-.2.54-.69 0-.44-.36-.66-.82-.67-.42-.02-.74.21-.74.65 0 .58.83 1.91.83 2.43 0 .4-.34.61-.68.61-.44 0-.81-.44-.81-.44l.26-.33Zm-.1-27.61c0-.98.86-1.48 1.54-1.48.91 0 1.4.55 1.4 1.28 0 .41-.07.67-.26 1.06 0 0-1.5 3.18-2.1 4.41-.07.15-.09.33-.09.58 0 .4.38.72.78.73.36.01.75-.34.75-.74 0-.48-.25-.7-.5-.7-.32 0-.44.13-.44.35 0 .16.07.23.18.23.27 0 .2-.37.2-.37a.25.25 0 0 1 .17.34c.1.02.2.08.26.16a.5.5 0 0 1-.26.14c.06.21-.02.32-.2.36a.37.37 0 0 0 .02-.23c-.29.09-.72-.04-.72-.55 0-.5.34-.92.98-.81-.16-.08-.23-.23-.25-.4a.9.9 0 0 0 .25.06c-.08-.14-.18-.25-.18-.52.12.06.23.16.38.1-.24-.48.06-1.14.8-1.3-.27.33-.4.68-.4 1.03 0 1.13.3 1.32.3 2.1a1.17 1.17 0 0 1-.49.93c.22.05.36.16.44.3-.5.15-1.23.15-1.62 0a1.2 1.2 0 0 1-.85-.58 1.8 1.8 0 0 1 0-1.4l2.13-4.57c.1-.2.15-.43.15-.65 0-.57-.52-.78-.82-.78-.35 0-.72.28-.72.62 0 .22.12.35.29.35.4 0 .38-.35.3-.57.25.12.4.32.35.53.16.03.3.1.4.23a.52.52 0 0 1-.4.23c.08.33-.14.47-.35.55.07-.24.11-.53-.3-.53-.3 0-.53-.05-.67-.25l-.03 1.3c-.02.4.51.38.85.27-.13.44-.4.69-1 .63a.48.48 0 0 1 .3.47c0 .36-.29.77-.48.89l-.09-3.8Z" fill="#FFDA44"></path><path d="M7.4 16.93c0-.98-.87-1.48-1.55-1.48-.92 0-1.4.55-1.4 1.28 0 .41.07.67.26 1.06 0 0 1.5 3.18 2.1 4.41.07.15.1.33.1.58 0 .4-.39.72-.78.73-.37.01-.76-.34-.76-.74 0-.48.25-.7.5-.7.32 0 .44.13.44.35 0 .16-.07.23-.18.23-.27 0-.19-.37-.19-.37a.25.25 0 0 0-.18.34c-.1.02-.2.08-.26.16a.5.5 0 0 0 .26.14c-.06.21.02.32.2.36a.37.37 0 0 1-.02-.23c.29.09.73-.04.73-.55 0-.5-.35-.92-.99-.81.16-.08.23-.23.25-.4a.9.9 0 0 1-.25.06c.08-.14.18-.25.18-.52-.12.06-.23.16-.38.1.24-.48-.06-1.14-.8-1.3.27.33.4.68.4 1.03 0 1.13-.3 1.32-.3 2.1a1.17 1.17 0 0 0 .5.93.66.66 0 0 0-.45.3c.5.15 1.23.15 1.62 0 .44-.06.76-.4.85-.58a1.8 1.8 0 0 0 0-1.4l-2.13-4.57c-.1-.2-.15-.43-.15-.65 0-.57.52-.78.82-.78.35 0 .72.28.72.62 0 .22-.12.35-.29.35-.4 0-.38-.35-.3-.57-.24.12-.39.32-.35.53-.16.03-.3.1-.4.23.1.13.22.22.4.23-.08.33.14.47.35.55-.06-.25-.1-.53.3-.53.3 0 .54-.05.67-.25l.04 1.3c.01.4-.52.38-.86.27.13.44.4.69 1 .62a.48.48 0 0 0-.3.48c0 .36.29.77.48.89l.1-3.8Z" fill="#FFDA44"></path><path d="M7.4 14c0 .98-.87 1.48-1.55 1.48-.92 0-1.4-.56-1.4-1.28 0-.41.07-.67.26-1.07 0 0 1.5-3.18 2.1-4.4.07-.16.1-.33.1-.59 0-.4-.39-.72-.78-.73-.37 0-.76.34-.76.74 0 .49.25.7.5.7.32 0 .44-.12.44-.35 0-.15-.07-.22-.18-.22-.27 0-.19.37-.19.37a.25.25 0 0 1-.2-.3l.02-.05a.48.48 0 0 1-.26-.15.5.5 0 0 1 .26-.15c-.06-.2.02-.31.2-.35a.37.37 0 0 0-.02.22c.29-.08.72.05.72.55s-.34.92-.98.82c.15.07.23.22.25.4a.88.88 0 0 0-.25-.06c.08.13.18.25.18.51-.12-.06-.23-.16-.38-.1.24.48-.06 1.14-.8 1.3.27-.33.4-.68.4-1.03 0-1.13-.3-1.32-.3-2.1a1.17 1.17 0 0 1 .49-.93v.01a.66.66 0 0 1-.44-.31c.5-.15 1.22-.15 1.61.01.45.05.76.4.86.58.09.17.27.81 0 1.39-.3.63-1.7 3.63-2.13 4.58-.1.2-.15.42-.15.64 0 .58.52.78.82.78.35 0 .71-.27.71-.62 0-.21-.11-.34-.28-.34-.4 0-.38.34-.3.56-.25-.11-.4-.32-.35-.53a.64.64 0 0 1-.4-.23c.1-.12.21-.22.4-.22-.08-.34.14-.48.35-.55-.07.24-.11.52.3.52.3 0 .53.05.67.25l.03-1.3c.02-.39-.51-.38-.85-.26.13-.45.4-.7 1-.63a.48.48 0 0 1-.3-.47c0-.37.29-.77.48-.9L7.4 14Zm0 17.07c0 .98-.87 1.48-1.55 1.48-.92 0-1.4-.55-1.4-1.28 0-.41.07-.67.26-1.06 0 0 1.5-3.18 2.1-4.41.07-.15.1-.33.1-.59 0-.39-.39-.71-.78-.72-.37-.01-.76.34-.76.74 0 .48.25.7.5.7.32 0 .44-.13.44-.35 0-.16-.07-.23-.18-.23-.27 0-.19.37-.19.37a.25.25 0 0 1-.18-.34.48.48 0 0 1-.26-.16.5.5 0 0 1 .26-.14c-.06-.21.02-.32.2-.36a.37.37 0 0 0-.02.23c.29-.09.73.04.73.55 0 .5-.35.92-.99.81.16.07.23.23.25.4a.9.9 0 0 0-.25-.06c.08.13.18.25.18.51-.12-.05-.23-.15-.38-.09.24.48-.06 1.13-.8 1.29.27-.33.4-.68.4-1.03 0-1.13-.3-1.32-.3-2.1a1.17 1.17 0 0 1 .5-.93v.02a.66.66 0 0 1-.45-.32c.5-.14 1.23-.14 1.62.01.44.06.76.4.85.58.09.17.27.82 0 1.4l-2.13 4.57c-.1.2-.15.42-.15.64 0 .58.52.78.82.78.35 0 .72-.27.72-.61 0-.22-.12-.35-.29-.35-.4 0-.38.35-.3.57-.24-.12-.39-.32-.35-.54a.64.64 0 0 1-.4-.23c.1-.12.22-.22.4-.22-.08-.33.14-.47.35-.55-.06.24-.1.52.3.52.3 0 .54.06.67.25l.04-1.3c.01-.38-.52-.37-.86-.26.13-.44.4-.69 1-.63a.48.48 0 0 1-.3-.47c0-.36.29-.77.48-.89l.1 3.8Z" fill="#FFDA44"></path><path d="M7.2 31.07c0 .98.86 1.48 1.54 1.48.91 0 1.4-.55 1.4-1.28 0-.41-.07-.67-.26-1.06 0 0-1.5-3.18-2.1-4.41a1.3 1.3 0 0 1-.09-.59c0-.39.38-.71.78-.72.36-.01.75.34.75.74 0 .48-.25.7-.5.7-.32 0-.44-.13-.44-.35 0-.16.07-.23.18-.23.27 0 .2.37.2.37a.25.25 0 0 0 .17-.34c.1-.02.2-.08.26-.16a.5.5 0 0 0-.26-.14c.06-.21-.02-.32-.2-.36.03.07.04.15.02.23-.29-.09-.72.04-.72.55 0 .5.34.92.98.81-.15.07-.23.23-.25.4a.9.9 0 0 1 .25-.06c-.08.13-.18.25-.18.51.12-.05.23-.15.38-.09-.24.48.06 1.13.8 1.29-.27-.33-.4-.68-.4-1.03 0-1.13.3-1.32.3-2.1 0-.33-.16-.69-.49-.93v.02a.66.66 0 0 0 .44-.32 2.94 2.94 0 0 0-1.61.01c-.45.06-.77.4-.86.58a1.8 1.8 0 0 0 0 1.4l2.13 4.57c.1.2.15.42.15.64 0 .58-.52.78-.82.78-.35 0-.71-.27-.71-.61 0-.22.11-.35.28-.35.4 0 .38.35.3.57.25-.12.4-.32.35-.54.16-.02.3-.1.4-.23-.1-.12-.21-.22-.4-.22.08-.33-.14-.47-.35-.55.07.24.11.53-.3.53-.3 0-.53.05-.67.25l-.03-1.3c-.02-.39.51-.38.85-.26-.13-.45-.39-.7-1-.63a.48.48 0 0 0 .3-.48c0-.36-.28-.76-.48-.89l-.09 3.8Zm.1-27.61s.45-.4.6-.2c.26.32-.76 1.88-.76 2.43 0 .9.6 1.15 1.33 1.28.49.08 1.3-.04 1.3-.04-.16-.2-.26-.27-.5-.28a1.08 1.08 0 0 0 .56-.98c0-.78-.31-1.1-.31-1.97 0-.49.39-1.1.39-1.1-.7.06-1.04.71-.84 1.23a.34.34 0 0 1-.3-.09c-.05.15.03.32.14.46-.1.05-.15.02-.3-.01.02.15.1.3.32.45-.62-.16-1 .28-1 .74 0 .35.24.6.47.6.1 0 .18-.03.25-.08.05.1.03.23-.02.32.17-.05.28-.15.2-.36a.44.44 0 0 0 .31-.15.37.37 0 0 0-.3-.14c.09-.2-.02-.32-.17-.41 0 0 .1.4-.16.4-.11 0-.22-.03-.22-.2 0-.15.13-.36.43-.34.3.01.54.2.54.68 0 .45-.36.67-.82.68-.42.02-.74-.21-.74-.65 0-.59.83-1.92.83-2.44 0-.39-.34-.6-.68-.6-.44 0-.81.44-.81.44l.26.33Z" fill="#FFDA44"></path><path d="M7.3 3.46s-.46-.4-.62-.2c-.24.32.77 1.88.77 2.43 0 .9-.6 1.15-1.32 1.28-.5.08-1.3-.04-1.3-.04.15-.2.25-.27.5-.28a1.08 1.08 0 0 1-.57-.98c0-.78.32-1.1.32-1.97 0-.49-.4-1.1-.4-1.1.7.07 1.04.72.85 1.24a.33.33 0 0 0 .3-.1c.04.15-.04.32-.14.46.08.05.15.02.28 0 0 .14-.1.3-.31.45.62-.17 1 .27 1 .73 0 .35-.23.6-.47.6a.48.48 0 0 1-.25-.08c-.05.1-.02.23.02.32-.17-.04-.28-.15-.2-.36a.43.43 0 0 1-.31-.15.37.37 0 0 1 .3-.14c-.09-.2.02-.32.18-.4 0 0-.1.4.15.4.12 0 .22-.04.22-.21 0-.15-.13-.36-.42-.34-.3.01-.54.2-.54.69 0 .44.35.66.81.67.42.02.74-.21.74-.65 0-.58-.83-1.91-.83-2.43 0-.4.34-.61.68-.61.44 0 .81.44.81.44l-.25.33Zm21.96 9.38c.4.08.6-.14.65-.44.08-.4-.09-2.4-.09-2.4s-.9 1.78-.99 2.18c-.06.3.04.58.43.66m1.44.44c.37.15.6-.02.72-.3.15-.38.38-2.38.38-2.38s-1.24 1.57-1.4 1.95c-.11.28-.07.58.3.73Zm1.32.72c.34.22.6.1.77-.16.22-.34.82-2.25.82-2.25s-1.52 1.3-1.74 1.63c-.16.26-.18.55.15.78Zm1.16.97c.29.28.57.2.78 0 .29-.29 1.25-2.05 1.25-2.05s-1.74.97-2.02 1.26c-.22.21-.3.5 0 .79m.94 1.17c.23.34.52.32.77.15.33-.22 1.61-1.76 1.61-1.76s-1.89.6-2.22.83c-.25.17-.38.44-.16.78Zm.71 1.34c.16.37.45.42.72.3.37-.16 1.93-1.41 1.93-1.41s-1.98.22-2.35.38c-.27.12-.45.36-.3.73Zm.44 1.45c.08.4.35.5.65.44.4-.08 2.15-1 2.15-1s-1.97-.17-2.37-.1c-.3.07-.51.27-.43.66Zm.14 1.52c0 .4.26.56.56.56.4 0 2.3-.56 2.3-.56s-1.9-.56-2.3-.56c-.3 0-.56.15-.56.56Zm-.14 1.51c-.08.4.14.6.43.66.4.08 2.37-.1 2.37-.1s-1.76-.92-2.15-1c-.3-.06-.58.04-.65.44Zm-.44 1.46c-.15.37.03.61.3.73.37.15 2.34.38 2.34.38s-1.55-1.26-1.92-1.41c-.27-.12-.57-.08-.72.3Zm-.71 1.34c-.21.34-.09.6.16.78.34.22 2.22.83 2.22.83s-1.28-1.54-1.6-1.76c-.26-.17-.55-.19-.78.15Zm-.95 1.17c-.28.3-.2.58 0 .8.28.28 2.02 1.25 2.02 1.25s-.96-1.76-1.24-2.05c-.21-.2-.5-.29-.78 0m-1.16.97c-.33.23-.31.52-.15.77.23.34 1.74 1.64 1.74 1.64s-.6-1.92-.82-2.26c-.17-.25-.43-.38-.77-.15Zm-1.32.71c-.37.16-.4.45-.3.74.16.37 1.4 1.94 1.4 1.94s-.23-2-.38-2.37c-.11-.28-.35-.46-.72-.3Zm-7.18-.71c-.34-.23-.6-.1-.77.15-.22.34-.82 2.26-.82 2.26s1.52-1.3 1.74-1.64c.17-.25.18-.55-.15-.77Zm-1.16-.97c-.29-.28-.57-.2-.78 0-.29.29-1.24 2.05-1.24 2.05s1.73-.97 2.02-1.26c.2-.21.28-.5 0-.8m-.95-1.16c-.23-.34-.52-.32-.77-.15-.33.22-1.61 1.76-1.61 1.76s1.9-.6 2.22-.83c.26-.17.38-.44.16-.78Zm-.71-1.34c-.16-.38-.44-.42-.72-.3-.37.15-1.92 1.4-1.92 1.4s1.97-.22 2.34-.37c.28-.12.46-.36.3-.73Zm-.43-1.46c-.09-.4-.36-.5-.65-.44-.4.08-2.16 1-2.16 1s1.98.18 2.37.1c.3-.06.52-.26.44-.66Zm-.15-1.51c0-.4-.25-.56-.55-.56-.4 0-2.31.56-2.31.56s1.9.56 2.3.56c.3 0 .56-.16.56-.56Zm.15-1.52c.07-.4-.15-.6-.44-.65-.4-.08-2.37.09-2.37.09s1.76.92 2.16 1c.29.06.57-.04.65-.44Zm.43-1.45c.15-.38-.02-.61-.3-.73-.37-.16-2.34-.38-2.34-.38s1.55 1.25 1.92 1.41c.28.12.57.08.72-.3Zm.71-1.34c.22-.34.1-.6-.16-.78-.33-.22-2.22-.83-2.22-.83s1.28 1.54 1.61 1.76c.26.17.55.19.77-.15Zm.95-1.17c.28-.3.2-.58 0-.8a19.88 19.88 0 0 0-2.02-1.26s.96 1.77 1.24 2.05c.21.22.5.3.78 0m5.4-1.33a6.78 6.78 0 0 1 6.74 6.83 6.78 6.78 0 0 1-6.74 6.82 6.78 6.78 0 0 1-6.73-6.83 6.78 6.78 0 0 1 6.73-6.82Zm.01-.93c.4-.01.55-.27.55-.57 0-.4-.55-2.34-.55-2.34s-.55 1.93-.55 2.34c0 .3.15.56.55.56Zm1.49 15.35c-.39.09-.49.36-.43.66.08.4 1 2.19 1 2.19s.16-2 .08-2.4c-.06-.3-.25-.53-.65-.45Zm-1.49.15c-.4 0-.55.26-.55.57 0 .4.55 2.33.55 2.33s.55-1.93.55-2.33c0-.3-.15-.57-.55-.57Zm-1.49-.15c-.4-.07-.6.15-.65.45-.08.4.1 2.4.1 2.4s.9-1.79.98-2.19c.06-.3-.04-.58-.43-.66Zm-1.44-.44c-.37-.15-.6.03-.72.3a20.5 20.5 0 0 0-.37 2.38s1.24-1.57 1.39-1.94c.11-.29.07-.58-.3-.74ZM23.52 14c.33-.23.32-.52.15-.78-.22-.34-1.74-1.63-1.74-1.63s.6 1.91.82 2.25c.17.26.44.38.77.16Zm1.32-.72c.37-.16.41-.45.3-.73a20 20 0 0 0-1.4-1.95s.23 2 .38 2.38c.12.28.35.46.72.3Zm1.44-.44c.4-.08.49-.36.43-.66-.08-.4-.99-2.18-.99-2.18s-.17 2-.09 2.4c.06.3.25.52.65.44Z" fill="#FFDA44"></path><path d="m27.54 32.37-.12.24-.13.3-.08.14-.06.13-.05.1-.07.07-.15-.13-.17-.12-.18-.09-.2-.08-.2-.05-.2-.05-.21-.04-.22-.03-.46-.04-.45-.01-.44-.03-.4-.05-.24-.04-.22-.05-.12-.04-.11-.04-.1-.05-.1-.05-.14-.1-.14-.1-.16-.12-.14-.13-.3-.29-.3-.28-.29-.28-.27-.25-.13-.09-.13-.1-.12-.04-.11-.04-.22-.05-.2-.07-.19-.07-.2-.09-.16-.08-.17-.1-.15-.1-.15-.11-.15-.12-.13-.12-.13-.13-.13-.13-.24-.27-.24-.3-.46-.6-.5-.63-.28-.3-.3-.3-.16-.16-.17-.15-.18-.13-.2-.14-.03.01-.04.04-.04.05-.02.07-.04.12-.02.05-.09-.04-.07-.04-.1-.04-.07-.03h-.17l-.09.03-.1.04.1.12.12.15.11.19.1.2.1.2.09.2.02.1.03.08.01.1v.07h-.7l.1.16.12.16.13.15.14.15.15.14.14.15.14.11.13.1-.14.01-.2.01-.19.03-.14.01.11.1.15.11.15.12.17.12.17.1.17.1.15.05.14.03.07.02.05.01.04.01.02.03.02.01v.06l-.02.02-.02.08-.02.08v.16l.02.05.02.02.04.03.05.03h.07l.06.04.07.02.06.03.05.04.02.01v.03l-.02.01-.05.04-.05.04-.05.05-.05.07V31l-.02.05.02.07v.07l.23.08.23.08.1.03.1.04.09.04.06.04-.43.34.12.1.14.08.18.1.18.06.21.06.2.04.16.04h.16l-.14.1-.19.12-.19.1-.14.11.13.1.18.09.2.1.25.12.57.25.62.25.64.23.64.21.28.1.26.06.23.06.2.04-.4-.04-.4-.05-.38-.06-.36-.08-.36-.1-.35-.11-.34-.12-.32-.13-.63-.26-.6-.26-.28-.12-.29-.12-.27-.1-.27-.11.07-.04.07-.03.1-.03.12-.03.25-.08.22-.08-.39-.06-.53-.1-.26-.09-.22-.06-.09-.04-.07-.04-.07-.04-.04-.04v-.01l.02-.02h.03l.04-.03.1-.04.15-.04.3-.1.27-.09-.64-.11-.49-.08-.18-.04-.14-.05-.05-.03-.05-.04-.04-.03-.03-.04.04-.02.12-.03.17-.02.19-.04.2-.03.19-.05.09-.03.07-.02.06-.04.05-.04-.1-.04-.1-.04-.14-.03-.13-.02-.3-.04-.3-.04-.15-.04-.14-.03-.14-.05-.14-.05-.13-.07-.12-.09-.1-.1-.08-.1.03-.02.05-.01h.16l.24.02.26.01.28.03h.36l.1-.01.08-.03.06-.02-.31-.14-.42-.18-.23-.12-.25-.11-.24-.14-.25-.13-.23-.14-.22-.16-.2-.15-.19-.16-.07-.1-.08-.07-.05-.08-.05-.1-.06-.07-.02-.1-.01-.07-.02-.1h.1l.1.02.1.04.1.04.21.13.23.13.1.07.12.06.12.05.1.04.12.03.1.01h.12l.1-.04-.31-.23-.35-.3-.4-.36-.4-.39-.4-.42-.37-.42-.17-.22-.17-.2-.14-.22-.13-.2-.03-.05v-.09l.02-.04v-.04l.05-.02.04-.04.04-.03.05-.01.05-.01h.17l.05.02.05.04.04.04.23.24.27.27.29.3.3.3.32.28.3.26.16.1.14.1.16.07.14.06-.1-.07-.12-.12-.15-.15-.17-.2-.38-.46-.4-.54-.22-.28-.19-.29-.18-.29-.18-.27-.16-.27-.13-.23-.09-.22-.07-.19-.02-.06v-.1l.02-.05.02-.04.03-.03.02-.03.04-.03.1-.02.07-.03h.18l.05.01.04.02.05.02.04.04.1.1.1.12.24.3.25.39.28.4.3.42.15.2.16.2.17.16.18.16-.22-.43-.25-.5-.13-.27-.11-.28-.12-.29-.1-.29-.1-.3-.08-.28-.07-.3-.05-.28-.03-.28-.01-.26.01-.13.02-.12v-.11l.04-.12.02-.04.01-.04.04-.04.03-.03.09-.03.09-.03h.09l.08.01.04.02h.02l.01.03.02.04.13.42.11.45.12.46.12.44.11.45.16.42.07.2.1.19.1.18.11.18-.07-.37-.06-.35-.05-.3-.02-.3-.03-.25-.01-.22.01-.18.02-.16.02-.13.04-.1.02-.04.03-.04.03-.03.04-.03h.15l.1.03.1.05.1.42.09.4.1.39.12.36.13.37.14.37.15.38.18.38.13.24.13.25.14.25.15.25.15.24.16.23.16.24.17.23.31.4.33.36.33.37.35.34.36.34.38.31.38.3.4.3.27.18.29.17.3.17.28.15.45.23.44.2.47.19.46.17.44.14.45.12.47.1.45.1.48.06.46.05.48.04.48.03Zm1.18 3.98.21.02.1.04.03.02v.01h-.02l-.03.01-.2.04h-.17l-.55-.04h-.65l-.71-.02-.74.01-.35.01-.35.03-.3.03-.3.02-.25.04-.22.05-.08.03-.08.03-.06.02-.05.04.02-.13.06-.13-.1.03-.08.02-.08.04-.08.04-.06.04-.06.05-.03.07-.02.06-.04-.09-.02-.08-.02-.09v-.14l.02-.08.01-.07.04-.06.02-.05.06-.07.05-.05.05-.05.14-.1.16-.09c.08.05.17.1.27.12.09 0 .18 0 .27-.03a.35.35 0 0 0 .5-.02.29.29 0 0 0 .07-.1.57.57 0 0 0 0-.27l.15-.01.19-.03.19-.05.2-.05.21-.04.2-.05.18-.03.15-.01-.06.05-.16.12-.18.14-.13.1.17.03.14.03-.1.12-.1.11-.1.12-.08.1.1.05.1.02.12.03h.23l.12-.03.11-.02.1-.06.1.06.1.04.1.02.1.03.24.02.25.03h.98" fill="#FFDA44"></path><path d="m24.75 35.6.04.02.04.01.01.04.01.04-.01.04-.01.04-.04.02h-.1l-.02-.02-.02-.04-.02-.04.02-.04.02-.04.03-.01.05-.02Z" fill="#FFDA44"></path><path d="M24.73 35.66h.03l.01.04v.02l-.04.01h-.02l-.01-.03v-.03l.03-.01Z" fill="#FFDA44"></path><path d="M24.75 35.84a.12.12 0 0 1-.1-.2.12.12 0 0 1 .18.16.12.12 0 0 1-.08.03" fill="#FFDA44"></path><path d="m34.37 36.99-.1.04-.08.01-.08.02-.07-.02h-.06l-.07-.04-.05-.02-.06-.04-.1-.08-.1-.08-.06-.04-.06-.02-.06-.02h-.06l-.12.25-.15.32-.05.07-.05.07-.06.04-.05.04-.06.02h-.07l-.06-.02-.08-.04-.02-.04-.03-.04-.03-.05-.02-.07-.03-.11-.01-.08-.08.06-.08.1-.06.1-.08.12-.09.11-.09.1-.05.05-.06.04-.07.02-.08.03h-.04l-.06.01-.06-.01-.06-.03-.15-.18-.17-.18-.12.18-.13.16-.06.06-.07.07-.06.05-.06.04-.06.03h-.18l-.05-.03-.04-.04-.05-.07-.02-.07-.03-.08-.05-.13-.02-.07-.02-.05-.03-.03h-.02l-.35.58-.05.05-.1.04-.1.03-.1.02h-.12l-.09-.02-.02-.02-.04-.04-.01-.02v-.05l.05-.58-.04.01-.05.03-.05.02-.06.06-.1.12-.11.13-.12.14-.14.12-.07.05-.06.05-.08.04-.06.02h-.16l-.02-.02-.03-.02-.01-.04v-.22l.04-.17v-.17l-.02-.08-.05-.1-.08.13-.13.17-.15.16-.17.17-.1.07-.08.06-.08.03-.06.03-.03-.02h-.03l-.03-.02-.01-.02-.03-.03-.01-.04v-.06l-.01-.06.01-.5-.32.22-.4.25-.08.04-.1.05-.1.03-.1.02-.09.03h-.1l-.08-.01-.08-.03.04-.1.04-.1.03-.09.06-.08.05-.07.05-.08.07-.07.06-.06.14-.1.17-.11.17-.08.2-.07.19-.05.22-.04.22-.04.22-.02.47-.03.5-.01h.97l.25-.02.23-.01.23-.01.22-.03.22-.04.2-.04.2-.05.17-.07.17-.08.14-.1.14-.11.12-.15-.13-.26.1-.01.1-.03.11-.05.1-.07.03-.02.04-.04.03-.05.02-.04.01-.05v-.1l-.02-.05.22-.04.23-.02.25-.02h.25l.53.03.54.04.56.06.54.06.53.05.49.02v.19l-.01.08-.03.08-.02.07-.03.07-.04.05-.05.07-.1.09-.1.08-.12.05-.13.03-.14.02-.15-.01-.13-.01-.14-.04-.13-.07-.13-.06-.1-.1-.1-.1v.22l-.04.29-.02.14-.04.13-.03.06-.04.03-.02.04-.04.03Zm-10.39-1.23.3.13.08-.06.1-.08.12-.07.1-.06.39-.16.33-.16.17-.06.15-.08.14-.08.11-.08.3-.2.3-.2.28-.17.26-.19.2-.16.15-.14.17-.16.18-.16.06-.07.08-.05.1-.06.1-.05.21-.1.22-.08.3-.08.32-.08.34-.06.37-.07.46-.05.45-.07.46-.05.46-.08.15-.02.14-.04.16-.04.15-.04.16-.2.24-.27.17-.17.2-.16.21-.17.26-.16.39-.24.41-.21.43-.22.4-.2.4-.2.36-.18.3-.16.23-.16.06-.2.1-.19.1-.2.15-.19.15-.21.2-.2.2-.24.26-.26.24-.2.24-.22.13-.09.13-.09.14-.08.14-.08.15-.06.14-.05.15-.04.15-.04.15-.02.14-.01.16.01.14.03-.01.16-.04.15-.05.16-.07.17-.09.17-.11.17-.15.18-.17.18h.13l.12-.04.1-.02.08-.04.08-.03.09-.02.11-.02h.13l.02.08v.1l-.02.09-.02.07-.04.08-.05.08-.05.07-.07.06-.27.26-.27.25.15.02.17.05.17.05.13.03-.16.11-.18.12-.18.12-.2.12-.2.12-.22.13-.2.14-.2.16.1.01.11.06h.05l.05.03.04.02.04-.02-.26.15-.32.16-.15.08-.13.08-.07.04-.04.04-.02.04-.03.04.01.05.03.04.05.04.04.04-.01.05-.03.04-.05.04-.05.04-.12.06-.15.07-.16.05-.14.05-.1.05-.08.04.26.27-.1.09-.08.06-.08.04-.1.04-.17.03h-.25l.03.11.04.12.02.13.03.13-.22.17-.27.2-.3.2-.34.19-.2.1-.18.1-.2.08-.23.07-.23.08-.25.05-.26.06-.27.04.48.01h.41l.4-.04.34-.04.32-.06.29-.08.28-.1.27-.11.37-.17.34-.2.34-.2.35-.22-.2-.1-.21-.07-.1-.04-.11-.05-.12-.05-.11-.07.1-.08.12-.05.14-.05.15-.04.31-.07.33-.04.28-.04.26-.02.1-.03.1-.03.04-.02.04-.04-.01-.01-.03-.03-.04-.01-.05-.03-.14-.03-.18-.02-.18-.01-.19-.03-.15-.04-.1-.04.35-.07.34-.08.31-.07.26-.06.22-.07.2-.08.09-.04.06-.04.07-.03.05-.06-.02-.01-.02-.03-.05-.01-.07-.01-.17-.02h-.39l-.2-.02-.17-.03-.1-.03.09-.03.09-.04.3-.1.28-.07.24-.07.24-.08.24-.08.25-.1.11-.06.1-.07.05-.04.03-.05.04-.04.02-.04-.02-.04-.04-.02-.03-.02h-.37l-.16.02h-.24l-.06-.02-.05-.02-.05-.03.51-.34.48-.31.42-.28.38-.26.15-.13.14-.13.12-.13.1-.13.08-.14.07-.15.04-.16V28H42l-.1.05-.1.04-.2.13-.23.13-.12.07-.1.06-.12.05-.11.04-.1.03-.1.01h-.12l-.1-.04.3-.23.35-.3.4-.36.4-.39.4-.42.38-.42.17-.23.16-.2.15-.22.13-.2.02-.05.01-.03v-.06l-.02-.04-.02-.04-.03-.03-.04-.04-.04-.01-.05-.03h-.2l-.06.02-.04.04-.05.04-.24.23-.27.28-.28.3-.32.3-.3.28-.31.26-.16.1-.14.1-.16.07-.12.07.08-.08.12-.12.16-.15.17-.2.37-.46.41-.53.21-.3.2-.28.19-.28.17-.28.15-.27.13-.23.1-.22.07-.19.01-.06v-.1l-.01-.05-.03-.04-.02-.03-.03-.03-.04-.01-.08-.04-.09-.03h-.18l-.05.01-.04.02-.05.02-.04.04-.1.1-.1.12-.23.3-.25.39-.27.4-.3.42-.17.2-.15.2-.17.16-.18.16.23-.43.23-.5.13-.27.12-.28.12-.29.1-.28.09-.3.09-.3.06-.28.06-.29.02-.27.02-.27-.02-.13-.01-.11-.01-.12-.03-.12-.01-.04-.03-.04-.04-.04-.02-.02-.1-.04-.08-.03h-.1l-.07.01-.03.02-.04.01v.03l-.02.04L41 22l-.12.43-.11.46-.12.44-.12.45-.15.42-.08.21-.1.19-.1.2-.11.16.08-.38.05-.34.05-.31.03-.29.02-.25.01-.22V23l-.02-.16-.03-.13-.04-.1-.02-.05-.03-.04-.02-.02-.04-.01-.04-.02-.04-.01h-.04l-.04.01-.1.03-.1.05-.1.42-.09.4-.1.39-.12.37-.12.36-.15.35-.15.38-.18.38-.13.25-.13.26-.14.25-.14.25-.16.23-.15.24-.17.23-.17.24-.31.4-.33.36-.33.37-.35.33-.36.34-.37.3-.4.3-.4.3-.26.18-.29.18-.28.17-.29.17-.45.2-.45.22-.46.17-.47.17-.39.11-.38.12-.4.1-.4.09-.4.06-.42.05-.4.06-.41.02-.04.01-.04.02-.08.04-.09.06-.13.13-.17.16-.2.2-.25.28-.23.28-.27.3-.15.14-.14.14-.17.14-.17.13-.12.09-.13.08-.15.06-.14.07-.3.13-.32.12-.3.11-.28.1-.12.06-.11.07-.1.05-.08.05-.08.08-.06.07-.04.06-.03.07-.01.09v.05" fill="#FFDA44"></path><path d="M24.73 35.75a.05.05 0 0 1-.04-.05.05.05 0 0 1 .01-.04h.02a.05.05 0 0 1 .03 0h.02a.05.05 0 0 1 .01.04.05.05 0 0 1-.01.03.05.05 0 0 1-.03.01" fill="#FFDA44"></path><path d="M24.73 35.75a.05.05 0 0 1-.04-.05.05.05 0 0 1 .01-.04h.02a.05.05 0 0 1 .03 0h.02a.05.05 0 0 1 .01.04.05.05 0 0 1-.01.03.05.05 0 0 1-.03.01Z" stroke-width=".02" stroke="#04BDD6"></path></g></g><defs><clipPath id="a"><path d="M0 0h48v48H0z" fill="#fff"></path></clipPath></defs></svg>